<?xml version="1.0" encoding="UTF-8"?><svg xmlns="http://www.w3.org/2000/svg" xmlns:xlink="http://www.w3.org/1999/xlink" stroke-dasharray="none" shape-rendering="auto" font-family="'Dialog'" width="1408" text-rendering="auto" fill-opacity="1" contentScriptType="text/ecmascript" color-interpolation="auto" color-rendering="auto" preserveAspectRatio="xMidYMid meet" font-size="12" fill="black" stroke="black" image-rendering="auto" stroke-miterlimit="10" zoomAndPan="magnify" version="1.0" stroke-linecap="square" stroke-linejoin="miter" contentStyleType="text/css" font-style="normal" height="641" stroke-width="1" stroke-dashoffset="0" font-weight="normal" stroke-opacity="1">
<!--Generated by the Batik Graphics2D SVG Generator-->
<defs id="genericDefs"/>
<g>
<defs id="defs1">
<clipPath clipPathUnits="userSpaceOnUse" id="clipPath1">
<path d="M53 39 L1371 39 L1371 602 L53 602 L53 39 Z"/>
</clipPath>
<clipPath clipPathUnits="userSpaceOnUse" id="clipPath2">
<path d="M-1 -1 L1409 -1 L1409 642 L-1 642 L-1 -1 Z"/>
</clipPath>
</defs>
<g fill="white" text-rendering="geometricPrecision" font-family="'Segoe UI'" stroke-linejoin="round" stroke="white" stroke-width="0" stroke-miterlimit="0">
<rect x="54" y="40" clip-path="url(#clipPath1)" width="1316" height="561" stroke="none"/>
</g>
<g stroke-linecap="butt" fill="rgb(204,204,204)" text-rendering="geometricPrecision" font-family="'Segoe UI'" stroke-dasharray="3,3" stroke="rgb(204,204,204)">
<line clip-path="url(#clipPath1)" fill="none" x1="54" x2="54" y1="40" y2="601"/>
<line clip-path="url(#clipPath1)" fill="none" x1="135" x2="135" y1="40" y2="601"/>
<line clip-path="url(#clipPath1)" fill="none" x1="216" x2="216" y1="40" y2="601"/>
<line clip-path="url(#clipPath1)" fill="none" x1="297" x2="297" y1="40" y2="601"/>
<line clip-path="url(#clipPath1)" fill="none" x1="378" x2="378" y1="40" y2="601"/>
<line clip-path="url(#clipPath1)" fill="none" x1="460" x2="460" y1="40" y2="601"/>
<line clip-path="url(#clipPath1)" fill="none" x1="541" x2="541" y1="40" y2="601"/>
<line clip-path="url(#clipPath1)" fill="none" x1="622" x2="622" y1="40" y2="601"/>
<line clip-path="url(#clipPath1)" fill="none" x1="703" x2="703" y1="40" y2="601"/>
<line clip-path="url(#clipPath1)" fill="none" x1="785" x2="785" y1="40" y2="601"/>
<line clip-path="url(#clipPath1)" fill="none" x1="866" x2="866" y1="40" y2="601"/>
<line clip-path="url(#clipPath1)" fill="none" x1="947" x2="947" y1="40" y2="601"/>
<line clip-path="url(#clipPath1)" fill="none" x1="1028" x2="1028" y1="40" y2="601"/>
<line clip-path="url(#clipPath1)" fill="none" x1="1110" x2="1110" y1="40" y2="601"/>
<line clip-path="url(#clipPath1)" fill="none" x1="1191" x2="1191" y1="40" y2="601"/>
<line clip-path="url(#clipPath1)" fill="none" x1="1272" x2="1272" y1="40" y2="601"/>
<line clip-path="url(#clipPath1)" fill="none" x1="1353" x2="1353" y1="40" y2="601"/>
<line clip-path="url(#clipPath1)" fill="none" x1="54" x2="1370" y1="601" y2="601"/>
<line clip-path="url(#clipPath1)" fill="none" x1="54" x2="1370" y1="511" y2="511"/>
<line clip-path="url(#clipPath1)" fill="none" x1="54" x2="1370" y1="421" y2="421"/>
<line clip-path="url(#clipPath1)" fill="none" x1="54" x2="1370" y1="332" y2="332"/>
<line clip-path="url(#clipPath1)" fill="none" x1="54" x2="1370" y1="242" y2="242"/>
<line clip-path="url(#clipPath1)" fill="none" x1="54" x2="1370" y1="152" y2="152"/>
<line clip-path="url(#clipPath1)" fill="none" x1="54" x2="1370" y1="63" y2="63"/>
<rect x="68" y="596" clip-path="url(#clipPath1)" fill="rgb(0,0,139)" width="5" height="5" stroke="none"/>
<line clip-path="url(#clipPath1)" fill="none" x1="70" x2="86" y1="598" y2="592" stroke-dasharray="none" stroke="rgb(0,0,139)"/>
<rect x="84" y="590" clip-path="url(#clipPath1)" fill="rgb(0,0,139)" width="5" stroke-dasharray="none" height="5" stroke="none"/>
<line clip-path="url(#clipPath1)" fill="none" x1="86" x2="102" y1="592" y2="587" stroke-dasharray="none" stroke="rgb(0,0,139)"/>
<rect x="100" y="585" clip-path="url(#clipPath1)" fill="rgb(0,0,139)" width="5" stroke-dasharray="none" height="5" stroke="none"/>
<line clip-path="url(#clipPath1)" fill="none" x1="102" x2="118" y1="587" y2="582" stroke-dasharray="none" stroke="rgb(0,0,139)"/>
<rect x="116" y="580" clip-path="url(#clipPath1)" fill="rgb(0,0,139)" width="5" stroke-dasharray="none" height="5" stroke="none"/>
<line clip-path="url(#clipPath1)" fill="none" x1="118" x2="135" y1="582" y2="577" stroke-dasharray="none" stroke="rgb(0,0,139)"/>
<rect x="133" y="575" clip-path="url(#clipPath1)" fill="rgb(0,0,139)" width="5" stroke-dasharray="none" height="5" stroke="none"/>
<line clip-path="url(#clipPath1)" fill="none" x1="135" x2="151" y1="577" y2="571" stroke-dasharray="none" stroke="rgb(0,0,139)"/>
<rect x="149" y="569" clip-path="url(#clipPath1)" fill="rgb(0,0,139)" width="5" stroke-dasharray="none" height="5" stroke="none"/>
<line clip-path="url(#clipPath1)" fill="none" x1="151" x2="167" y1="571" y2="566" stroke-dasharray="none" stroke="rgb(0,0,139)"/>
<rect x="165" y="564" clip-path="url(#clipPath1)" fill="rgb(0,0,139)" width="5" stroke-dasharray="none" height="5" stroke="none"/>
<line clip-path="url(#clipPath1)" fill="none" x1="167" x2="183" y1="566" y2="561" stroke-dasharray="none" stroke="rgb(0,0,139)"/>
<rect x="181" y="559" clip-path="url(#clipPath1)" fill="rgb(0,0,139)" width="5" stroke-dasharray="none" height="5" stroke="none"/>
<line clip-path="url(#clipPath1)" fill="none" x1="183" x2="200" y1="561" y2="555" stroke-dasharray="none" stroke="rgb(0,0,139)"/>
<rect x="198" y="553" clip-path="url(#clipPath1)" fill="rgb(0,0,139)" width="5" stroke-dasharray="none" height="5" stroke="none"/>
<line clip-path="url(#clipPath1)" fill="none" x1="200" x2="216" y1="555" y2="550" stroke-dasharray="none" stroke="rgb(0,0,139)"/>
<rect x="214" y="548" clip-path="url(#clipPath1)" fill="rgb(0,0,139)" width="5" stroke-dasharray="none" height="5" stroke="none"/>
<line clip-path="url(#clipPath1)" fill="none" x1="216" x2="232" y1="550" y2="544" stroke-dasharray="none" stroke="rgb(0,0,139)"/>
<rect x="230" y="542" clip-path="url(#clipPath1)" fill="rgb(0,0,139)" width="5" stroke-dasharray="none" height="5" stroke="none"/>
<line clip-path="url(#clipPath1)" fill="none" x1="232" x2="248" y1="544" y2="540" stroke-dasharray="none" stroke="rgb(0,0,139)"/>
<rect x="246" y="538" clip-path="url(#clipPath1)" fill="rgb(0,0,139)" width="5" stroke-dasharray="none" height="5" stroke="none"/>
<line clip-path="url(#clipPath1)" fill="none" x1="248" x2="265" y1="540" y2="534" stroke-dasharray="none" stroke="rgb(0,0,139)"/>
<rect x="263" y="532" clip-path="url(#clipPath1)" fill="rgb(0,0,139)" width="5" stroke-dasharray="none" height="5" stroke="none"/>
<line clip-path="url(#clipPath1)" fill="none" x1="265" x2="281" y1="534" y2="529" stroke-dasharray="none" stroke="rgb(0,0,139)"/>
<rect x="279" y="527" clip-path="url(#clipPath1)" fill="rgb(0,0,139)" width="5" stroke-dasharray="none" height="5" stroke="none"/>
<line clip-path="url(#clipPath1)" fill="none" x1="281" x2="297" y1="529" y2="525" stroke-dasharray="none" stroke="rgb(0,0,139)"/>
<rect x="295" y="523" clip-path="url(#clipPath1)" fill="rgb(0,0,139)" width="5" stroke-dasharray="none" height="5" stroke="none"/>
<line clip-path="url(#clipPath1)" fill="none" x1="297" x2="313" y1="525" y2="518" stroke-dasharray="none" stroke="rgb(0,0,139)"/>
<rect x="311" y="516" clip-path="url(#clipPath1)" fill="rgb(0,0,139)" width="5" stroke-dasharray="none" height="5" stroke="none"/>
<line clip-path="url(#clipPath1)" fill="none" x1="313" x2="330" y1="518" y2="512" stroke-dasharray="none" stroke="rgb(0,0,139)"/>
<rect x="328" y="510" clip-path="url(#clipPath1)" fill="rgb(0,0,139)" width="5" stroke-dasharray="none" height="5" stroke="none"/>
<line clip-path="url(#clipPath1)" fill="none" x1="330" x2="346" y1="512" y2="508" stroke-dasharray="none" stroke="rgb(0,0,139)"/>
<rect x="344" y="506" clip-path="url(#clipPath1)" fill="rgb(0,0,139)" width="5" stroke-dasharray="none" height="5" stroke="none"/>
<line clip-path="url(#clipPath1)" fill="none" x1="346" x2="362" y1="508" y2="502" stroke-dasharray="none" stroke="rgb(0,0,139)"/>
<rect x="360" y="500" clip-path="url(#clipPath1)" fill="rgb(0,0,139)" width="5" stroke-dasharray="none" height="5" stroke="none"/>
<line clip-path="url(#clipPath1)" fill="none" x1="362" x2="378" y1="502" y2="497" stroke-dasharray="none" stroke="rgb(0,0,139)"/>
<rect x="376" y="495" clip-path="url(#clipPath1)" fill="rgb(0,0,139)" width="5" stroke-dasharray="none" height="5" stroke="none"/>
<line clip-path="url(#clipPath1)" fill="none" x1="378" x2="395" y1="497" y2="492" stroke-dasharray="none" stroke="rgb(0,0,139)"/>
<rect x="393" y="490" clip-path="url(#clipPath1)" fill="rgb(0,0,139)" width="5" stroke-dasharray="none" height="5" stroke="none"/>
<line clip-path="url(#clipPath1)" fill="none" x1="395" x2="411" y1="492" y2="486" stroke-dasharray="none" stroke="rgb(0,0,139)"/>
<rect x="409" y="484" clip-path="url(#clipPath1)" fill="rgb(0,0,139)" width="5" stroke-dasharray="none" height="5" stroke="none"/>
<line clip-path="url(#clipPath1)" fill="none" x1="411" x2="427" y1="486" y2="481" stroke-dasharray="none" stroke="rgb(0,0,139)"/>
<rect x="425" y="479" clip-path="url(#clipPath1)" fill="rgb(0,0,139)" width="5" stroke-dasharray="none" height="5" stroke="none"/>
<line clip-path="url(#clipPath1)" fill="none" x1="427" x2="443" y1="481" y2="476" stroke-dasharray="none" stroke="rgb(0,0,139)"/>
<rect x="441" y="474" clip-path="url(#clipPath1)" fill="rgb(0,0,139)" width="5" stroke-dasharray="none" height="5" stroke="none"/>
<line clip-path="url(#clipPath1)" fill="none" x1="443" x2="460" y1="476" y2="471" stroke-dasharray="none" stroke="rgb(0,0,139)"/>
<rect x="458" y="469" clip-path="url(#clipPath1)" fill="rgb(0,0,139)" width="5" stroke-dasharray="none" height="5" stroke="none"/>
<line clip-path="url(#clipPath1)" fill="none" x1="460" x2="476" y1="471" y2="464" stroke-dasharray="none" stroke="rgb(0,0,139)"/>
<rect x="474" y="462" clip-path="url(#clipPath1)" fill="rgb(0,0,139)" width="5" stroke-dasharray="none" height="5" stroke="none"/>
<line clip-path="url(#clipPath1)" fill="none" x1="476" x2="492" y1="464" y2="461" stroke-dasharray="none" stroke="rgb(0,0,139)"/>
<rect x="490" y="459" clip-path="url(#clipPath1)" fill="rgb(0,0,139)" width="5" stroke-dasharray="none" height="5" stroke="none"/>
<line clip-path="url(#clipPath1)" fill="none" x1="492" x2="508" y1="461" y2="455" stroke-dasharray="none" stroke="rgb(0,0,139)"/>
<rect x="506" y="453" clip-path="url(#clipPath1)" fill="rgb(0,0,139)" width="5" stroke-dasharray="none" height="5" stroke="none"/>
<line clip-path="url(#clipPath1)" fill="none" x1="508" x2="525" y1="455" y2="449" stroke-dasharray="none" stroke="rgb(0,0,139)"/>
<rect x="523" y="447" clip-path="url(#clipPath1)" fill="rgb(0,0,139)" width="5" stroke-dasharray="none" height="5" stroke="none"/>
<line clip-path="url(#clipPath1)" fill="none" x1="525" x2="541" y1="449" y2="445" stroke-dasharray="none" stroke="rgb(0,0,139)"/>
<rect x="539" y="443" clip-path="url(#clipPath1)" fill="rgb(0,0,139)" width="5" stroke-dasharray="none" height="5" stroke="none"/>
<line clip-path="url(#clipPath1)" fill="none" x1="541" x2="557" y1="445" y2="438" stroke-dasharray="none" stroke="rgb(0,0,139)"/>
<rect x="555" y="436" clip-path="url(#clipPath1)" fill="rgb(0,0,139)" width="5" stroke-dasharray="none" height="5" stroke="none"/>
<line clip-path="url(#clipPath1)" fill="none" x1="557" x2="573" y1="438" y2="434" stroke-dasharray="none" stroke="rgb(0,0,139)"/>
<rect x="571" y="432" clip-path="url(#clipPath1)" fill="rgb(0,0,139)" width="5" stroke-dasharray="none" height="5" stroke="none"/>
<line clip-path="url(#clipPath1)" fill="none" x1="573" x2="590" y1="434" y2="428" stroke-dasharray="none" stroke="rgb(0,0,139)"/>
<rect x="588" y="426" clip-path="url(#clipPath1)" fill="rgb(0,0,139)" width="5" stroke-dasharray="none" height="5" stroke="none"/>
<line clip-path="url(#clipPath1)" fill="none" x1="590" x2="606" y1="428" y2="423" stroke-dasharray="none" stroke="rgb(0,0,139)"/>
<rect x="604" y="421" clip-path="url(#clipPath1)" fill="rgb(0,0,139)" width="5" stroke-dasharray="none" height="5" stroke="none"/>
<line clip-path="url(#clipPath1)" fill="none" x1="606" x2="622" y1="423" y2="418" stroke-dasharray="none" stroke="rgb(0,0,139)"/>
<rect x="620" y="416" clip-path="url(#clipPath1)" fill="rgb(0,0,139)" width="5" stroke-dasharray="none" height="5" stroke="none"/>
<line clip-path="url(#clipPath1)" fill="none" x1="622" x2="638" y1="418" y2="412" stroke-dasharray="none" stroke="rgb(0,0,139)"/>
<rect x="636" y="410" clip-path="url(#clipPath1)" fill="rgb(0,0,139)" width="5" stroke-dasharray="none" height="5" stroke="none"/>
<line clip-path="url(#clipPath1)" fill="none" x1="638" x2="655" y1="412" y2="407" stroke-dasharray="none" stroke="rgb(0,0,139)"/>
<rect x="653" y="405" clip-path="url(#clipPath1)" fill="rgb(0,0,139)" width="5" stroke-dasharray="none" height="5" stroke="none"/>
<line clip-path="url(#clipPath1)" fill="none" x1="655" x2="671" y1="407" y2="402" stroke-dasharray="none" stroke="rgb(0,0,139)"/>
<rect x="669" y="400" clip-path="url(#clipPath1)" fill="rgb(0,0,139)" width="5" stroke-dasharray="none" height="5" stroke="none"/>
<line clip-path="url(#clipPath1)" fill="none" x1="671" x2="687" y1="402" y2="397" stroke-dasharray="none" stroke="rgb(0,0,139)"/>
<rect x="685" y="395" clip-path="url(#clipPath1)" fill="rgb(0,0,139)" width="5" stroke-dasharray="none" height="5" stroke="none"/>
<line clip-path="url(#clipPath1)" fill="none" x1="687" x2="703" y1="397" y2="391" stroke-dasharray="none" stroke="rgb(0,0,139)"/>
<rect x="701" y="389" clip-path="url(#clipPath1)" fill="rgb(0,0,139)" width="5" stroke-dasharray="none" height="5" stroke="none"/>
<line clip-path="url(#clipPath1)" fill="none" x1="703" x2="720" y1="391" y2="386" stroke-dasharray="none" stroke="rgb(0,0,139)"/>
<rect x="718" y="384" clip-path="url(#clipPath1)" fill="rgb(0,0,139)" width="5" stroke-dasharray="none" height="5" stroke="none"/>
<line clip-path="url(#clipPath1)" fill="none" x1="720" x2="736" y1="386" y2="382" stroke-dasharray="none" stroke="rgb(0,0,139)"/>
<rect x="734" y="380" clip-path="url(#clipPath1)" fill="rgb(0,0,139)" width="5" stroke-dasharray="none" height="5" stroke="none"/>
<line clip-path="url(#clipPath1)" fill="none" x1="736" x2="752" y1="382" y2="375" stroke-dasharray="none" stroke="rgb(0,0,139)"/>
<rect x="750" y="373" clip-path="url(#clipPath1)" fill="rgb(0,0,139)" width="5" stroke-dasharray="none" height="5" stroke="none"/>
<line clip-path="url(#clipPath1)" fill="none" x1="752" x2="768" y1="375" y2="370" stroke-dasharray="none" stroke="rgb(0,0,139)"/>
<rect x="766" y="368" clip-path="url(#clipPath1)" fill="rgb(0,0,139)" width="5" stroke-dasharray="none" height="5" stroke="none"/>
<line clip-path="url(#clipPath1)" fill="none" x1="768" x2="785" y1="370" y2="365" stroke-dasharray="none" stroke="rgb(0,0,139)"/>
<rect x="783" y="363" clip-path="url(#clipPath1)" fill="rgb(0,0,139)" width="5" stroke-dasharray="none" height="5" stroke="none"/>
<line clip-path="url(#clipPath1)" fill="none" x1="785" x2="801" y1="365" y2="360" stroke-dasharray="none" stroke="rgb(0,0,139)"/>
<rect x="799" y="358" clip-path="url(#clipPath1)" fill="rgb(0,0,139)" width="5" stroke-dasharray="none" height="5" stroke="none"/>
<line clip-path="url(#clipPath1)" fill="none" x1="801" x2="817" y1="360" y2="355" stroke-dasharray="none" stroke="rgb(0,0,139)"/>
<rect x="815" y="353" clip-path="url(#clipPath1)" fill="rgb(0,0,139)" width="5" stroke-dasharray="none" height="5" stroke="none"/>
<line clip-path="url(#clipPath1)" fill="none" x1="817" x2="833" y1="355" y2="349" stroke-dasharray="none" stroke="rgb(0,0,139)"/>
<rect x="831" y="347" clip-path="url(#clipPath1)" fill="rgb(0,0,139)" width="5" stroke-dasharray="none" height="5" stroke="none"/>
<line clip-path="url(#clipPath1)" fill="none" x1="833" x2="850" y1="349" y2="345" stroke-dasharray="none" stroke="rgb(0,0,139)"/>
<rect x="848" y="343" clip-path="url(#clipPath1)" fill="rgb(0,0,139)" width="5" stroke-dasharray="none" height="5" stroke="none"/>
<line clip-path="url(#clipPath1)" fill="none" x1="850" x2="866" y1="345" y2="338" stroke-dasharray="none" stroke="rgb(0,0,139)"/>
<rect x="864" y="336" clip-path="url(#clipPath1)" fill="rgb(0,0,139)" width="5" stroke-dasharray="none" height="5" stroke="none"/>
<line clip-path="url(#clipPath1)" fill="none" x1="866" x2="882" y1="338" y2="333" stroke-dasharray="none" stroke="rgb(0,0,139)"/>
<rect x="880" y="331" clip-path="url(#clipPath1)" fill="rgb(0,0,139)" width="5" stroke-dasharray="none" height="5" stroke="none"/>
<line clip-path="url(#clipPath1)" fill="none" x1="882" x2="898" y1="333" y2="328" stroke-dasharray="none" stroke="rgb(0,0,139)"/>
<rect x="896" y="326" clip-path="url(#clipPath1)" fill="rgb(0,0,139)" width="5" stroke-dasharray="none" height="5" stroke="none"/>
<line clip-path="url(#clipPath1)" fill="none" x1="898" x2="915" y1="328" y2="323" stroke-dasharray="none" stroke="rgb(0,0,139)"/>
<rect x="913" y="321" clip-path="url(#clipPath1)" fill="rgb(0,0,139)" width="5" stroke-dasharray="none" height="5" stroke="none"/>
<line clip-path="url(#clipPath1)" fill="none" x1="915" x2="931" y1="323" y2="318" stroke-dasharray="none" stroke="rgb(0,0,139)"/>
<rect x="929" y="316" clip-path="url(#clipPath1)" fill="rgb(0,0,139)" width="5" stroke-dasharray="none" height="5" stroke="none"/>
<line clip-path="url(#clipPath1)" fill="none" x1="931" x2="947" y1="318" y2="311" stroke-dasharray="none" stroke="rgb(0,0,139)"/>
<rect x="945" y="309" clip-path="url(#clipPath1)" fill="rgb(0,0,139)" width="5" stroke-dasharray="none" height="5" stroke="none"/>
<line clip-path="url(#clipPath1)" fill="none" x1="947" x2="963" y1="311" y2="307" stroke-dasharray="none" stroke="rgb(0,0,139)"/>
<rect x="961" y="305" clip-path="url(#clipPath1)" fill="rgb(0,0,139)" width="5" stroke-dasharray="none" height="5" stroke="none"/>
<line clip-path="url(#clipPath1)" fill="none" x1="963" x2="980" y1="307" y2="302" stroke-dasharray="none" stroke="rgb(0,0,139)"/>
<rect x="978" y="300" clip-path="url(#clipPath1)" fill="rgb(0,0,139)" width="5" stroke-dasharray="none" height="5" stroke="none"/>
<line clip-path="url(#clipPath1)" fill="none" x1="980" x2="996" y1="302" y2="296" stroke-dasharray="none" stroke="rgb(0,0,139)"/>
<rect x="994" y="294" clip-path="url(#clipPath1)" fill="rgb(0,0,139)" width="5" stroke-dasharray="none" height="5" stroke="none"/>
<line clip-path="url(#clipPath1)" fill="none" x1="996" x2="1012" y1="296" y2="291" stroke-dasharray="none" stroke="rgb(0,0,139)"/>
<rect x="1010" y="289" clip-path="url(#clipPath1)" fill="rgb(0,0,139)" width="5" stroke-dasharray="none" height="5" stroke="none"/>
<line clip-path="url(#clipPath1)" fill="none" x1="1012" x2="1028" y1="291" y2="286" stroke-dasharray="none" stroke="rgb(0,0,139)"/>
<rect x="1026" y="284" clip-path="url(#clipPath1)" fill="rgb(0,0,139)" width="5" stroke-dasharray="none" height="5" stroke="none"/>
<line clip-path="url(#clipPath1)" fill="none" x1="1028" x2="1045" y1="286" y2="281" stroke-dasharray="none" stroke="rgb(0,0,139)"/>
<rect x="1043" y="279" clip-path="url(#clipPath1)" fill="rgb(0,0,139)" width="5" stroke-dasharray="none" height="5" stroke="none"/>
<line clip-path="url(#clipPath1)" fill="none" x1="1045" x2="1061" y1="281" y2="275" stroke-dasharray="none" stroke="rgb(0,0,139)"/>
<rect x="1059" y="273" clip-path="url(#clipPath1)" fill="rgb(0,0,139)" width="5" stroke-dasharray="none" height="5" stroke="none"/>
<line clip-path="url(#clipPath1)" fill="none" x1="1061" x2="1077" y1="275" y2="269" stroke-dasharray="none" stroke="rgb(0,0,139)"/>
<rect x="1075" y="267" clip-path="url(#clipPath1)" fill="rgb(0,0,139)" width="5" stroke-dasharray="none" height="5" stroke="none"/>
<line clip-path="url(#clipPath1)" fill="none" x1="1077" x2="1093" y1="269" y2="265" stroke-dasharray="none" stroke="rgb(0,0,139)"/>
<rect x="1091" y="263" clip-path="url(#clipPath1)" fill="rgb(0,0,139)" width="5" stroke-dasharray="none" height="5" stroke="none"/>
<line clip-path="url(#clipPath1)" fill="none" x1="1093" x2="1110" y1="265" y2="260" stroke-dasharray="none" stroke="rgb(0,0,139)"/>
<rect x="1108" y="258" clip-path="url(#clipPath1)" fill="rgb(0,0,139)" width="5" stroke-dasharray="none" height="5" stroke="none"/>
<line clip-path="url(#clipPath1)" fill="none" x1="1110" x2="1126" y1="260" y2="254" stroke-dasharray="none" stroke="rgb(0,0,139)"/>
<rect x="1124" y="252" clip-path="url(#clipPath1)" fill="rgb(0,0,139)" width="5" stroke-dasharray="none" height="5" stroke="none"/>
<line clip-path="url(#clipPath1)" fill="none" x1="1126" x2="1142" y1="254" y2="249" stroke-dasharray="none" stroke="rgb(0,0,139)"/>
<rect x="1140" y="247" clip-path="url(#clipPath1)" fill="rgb(0,0,139)" width="5" stroke-dasharray="none" height="5" stroke="none"/>
<line clip-path="url(#clipPath1)" fill="none" x1="1142" x2="1158" y1="249" y2="243" stroke-dasharray="none" stroke="rgb(0,0,139)"/>
<rect x="1156" y="241" clip-path="url(#clipPath1)" fill="rgb(0,0,139)" width="5" stroke-dasharray="none" height="5" stroke="none"/>
<line clip-path="url(#clipPath1)" fill="none" x1="1158" x2="1175" y1="243" y2="238" stroke-dasharray="none" stroke="rgb(0,0,139)"/>
<rect x="1173" y="236" clip-path="url(#clipPath1)" fill="rgb(0,0,139)" width="5" stroke-dasharray="none" height="5" stroke="none"/>
<line clip-path="url(#clipPath1)" fill="none" x1="1175" x2="1191" y1="238" y2="233" stroke-dasharray="none" stroke="rgb(0,0,139)"/>
<rect x="1189" y="231" clip-path="url(#clipPath1)" fill="rgb(0,0,139)" width="5" stroke-dasharray="none" height="5" stroke="none"/>
<line clip-path="url(#clipPath1)" fill="none" x1="1191" x2="1207" y1="233" y2="228" stroke-dasharray="none" stroke="rgb(0,0,139)"/>
<rect x="1205" y="226" clip-path="url(#clipPath1)" fill="rgb(0,0,139)" width="5" stroke-dasharray="none" height="5" stroke="none"/>
<line clip-path="url(#clipPath1)" fill="none" x1="1207" x2="1223" y1="228" y2="222" stroke-dasharray="none" stroke="rgb(0,0,139)"/>
<rect x="1221" y="220" clip-path="url(#clipPath1)" fill="rgb(0,0,139)" width="5" stroke-dasharray="none" height="5" stroke="none"/>
<line clip-path="url(#clipPath1)" fill="none" x1="1223" x2="1240" y1="222" y2="216" stroke-dasharray="none" stroke="rgb(0,0,139)"/>
<rect x="1238" y="214" clip-path="url(#clipPath1)" fill="rgb(0,0,139)" width="5" stroke-dasharray="none" height="5" stroke="none"/>
<line clip-path="url(#clipPath1)" fill="none" x1="1240" x2="1256" y1="216" y2="212" stroke-dasharray="none" stroke="rgb(0,0,139)"/>
<rect x="1254" y="210" clip-path="url(#clipPath1)" fill="rgb(0,0,139)" width="5" stroke-dasharray="none" height="5" stroke="none"/>
<line clip-path="url(#clipPath1)" fill="none" x1="1256" x2="1272" y1="212" y2="207" stroke-dasharray="none" stroke="rgb(0,0,139)"/>
<rect x="1270" y="205" clip-path="url(#clipPath1)" fill="rgb(0,0,139)" width="5" stroke-dasharray="none" height="5" stroke="none"/>
<line clip-path="url(#clipPath1)" fill="none" x1="1272" x2="1288" y1="207" y2="201" stroke-dasharray="none" stroke="rgb(0,0,139)"/>
<rect x="1286" y="199" clip-path="url(#clipPath1)" fill="rgb(0,0,139)" width="5" stroke-dasharray="none" height="5" stroke="none"/>
<line clip-path="url(#clipPath1)" fill="none" x1="1288" x2="1305" y1="201" y2="196" stroke-dasharray="none" stroke="rgb(0,0,139)"/>
<rect x="1303" y="194" clip-path="url(#clipPath1)" fill="rgb(0,0,139)" width="5" stroke-dasharray="none" height="5" stroke="none"/>
<line clip-path="url(#clipPath1)" fill="none" x1="1305" x2="1321" y1="196" y2="191" stroke-dasharray="none" stroke="rgb(0,0,139)"/>
<rect x="1319" y="189" clip-path="url(#clipPath1)" fill="rgb(0,0,139)" width="5" stroke-dasharray="none" height="5" stroke="none"/>
<line clip-path="url(#clipPath1)" fill="none" x1="1321" x2="1337" y1="191" y2="185" stroke-dasharray="none" stroke="rgb(0,0,139)"/>
<rect x="1335" y="183" clip-path="url(#clipPath1)" fill="rgb(0,0,139)" width="5" stroke-dasharray="none" height="5" stroke="none"/>
<line clip-path="url(#clipPath1)" fill="none" x1="1337" x2="1353" y1="185" y2="180" stroke-dasharray="none" stroke="rgb(0,0,139)"/>
<rect x="1351" y="178" clip-path="url(#clipPath1)" fill="rgb(0,0,139)" width="5" stroke-dasharray="none" height="5" stroke="none"/>
<rect x="54" y="40" clip-path="url(#clipPath2)" fill="none" width="1316" stroke-dasharray="none" height="561" stroke="black"/>
</g>
<g text-rendering="geometricPrecision" font-size="13" font-family="'Arial'" stroke-linecap="butt">
<text xml:space="preserve" x="625" y="12" clip-path="url(#clipPath2)" stroke="none">Total users' queues lengths</text>
<line clip-path="url(#clipPath2)" fill="none" x1="54" x2="1370" y1="38" y2="38"/>
<line clip-path="url(#clipPath2)" fill="none" x1="54" x2="1370" y1="603" y2="603"/>
<text xml:space="preserve" x="700" y="637" clip-path="url(#clipPath2)" stroke="none">time</text>
<line clip-path="url(#clipPath2)" fill="none" x1="54" x2="54" y1="34" y2="38"/>
<line clip-path="url(#clipPath2)" fill="none" x1="54" x2="54" y1="607" y2="603"/>
<text x="45" font-size="10" y="29" clip-path="url(#clipPath2)" stroke="none" xml:space="preserve">0.00</text>
<text x="45" font-size="10" y="618" clip-path="url(#clipPath2)" stroke="none" xml:space="preserve">0.00</text>
<line clip-path="url(#clipPath2)" fill="none" x1="70" x2="70" y1="36" y2="38"/>
<line clip-path="url(#clipPath2)" fill="none" x1="70" x2="70" y1="605" y2="603"/>
<line clip-path="url(#clipPath2)" fill="none" x1="86" x2="86" y1="36" y2="38"/>
<line clip-path="url(#clipPath2)" fill="none" x1="86" x2="86" y1="605" y2="603"/>
<line clip-path="url(#clipPath2)" fill="none" x1="102" x2="102" y1="36" y2="38"/>
<line clip-path="url(#clipPath2)" fill="none" x1="102" x2="102" y1="605" y2="603"/>
<line clip-path="url(#clipPath2)" fill="none" x1="118" x2="118" y1="36" y2="38"/>
<line clip-path="url(#clipPath2)" fill="none" x1="118" x2="118" y1="605" y2="603"/>
<line clip-path="url(#clipPath2)" fill="none" x1="135" x2="135" y1="34" y2="38"/>
<line clip-path="url(#clipPath2)" fill="none" x1="135" x2="135" y1="607" y2="603"/>
<text x="124" font-size="10" y="29" clip-path="url(#clipPath2)" stroke="none" xml:space="preserve">0.005</text>
<text x="124" font-size="10" y="618" clip-path="url(#clipPath2)" stroke="none" xml:space="preserve">0.005</text>
<line clip-path="url(#clipPath2)" fill="none" x1="151" x2="151" y1="36" y2="38"/>
<line clip-path="url(#clipPath2)" fill="none" x1="151" x2="151" y1="605" y2="603"/>
<line clip-path="url(#clipPath2)" fill="none" x1="167" x2="167" y1="36" y2="38"/>
<line clip-path="url(#clipPath2)" fill="none" x1="167" x2="167" y1="605" y2="603"/>
<line clip-path="url(#clipPath2)" fill="none" x1="183" x2="183" y1="36" y2="38"/>
<line clip-path="url(#clipPath2)" fill="none" x1="183" x2="183" y1="605" y2="603"/>
<line clip-path="url(#clipPath2)" fill="none" x1="200" x2="200" y1="36" y2="38"/>
<line clip-path="url(#clipPath2)" fill="none" x1="200" x2="200" y1="605" y2="603"/>
<line clip-path="url(#clipPath2)" fill="none" x1="216" x2="216" y1="34" y2="38"/>
<line clip-path="url(#clipPath2)" fill="none" x1="216" x2="216" y1="607" y2="603"/>
<text x="205" font-size="10" y="29" clip-path="url(#clipPath2)" stroke="none" xml:space="preserve">0.010</text>
<text x="205" font-size="10" y="618" clip-path="url(#clipPath2)" stroke="none" xml:space="preserve">0.010</text>
<line clip-path="url(#clipPath2)" fill="none" x1="232" x2="232" y1="36" y2="38"/>
<line clip-path="url(#clipPath2)" fill="none" x1="232" x2="232" y1="605" y2="603"/>
<line clip-path="url(#clipPath2)" fill="none" x1="248" x2="248" y1="36" y2="38"/>
<line clip-path="url(#clipPath2)" fill="none" x1="248" x2="248" y1="605" y2="603"/>
<line clip-path="url(#clipPath2)" fill="none" x1="265" x2="265" y1="36" y2="38"/>
<line clip-path="url(#clipPath2)" fill="none" x1="265" x2="265" y1="605" y2="603"/>
<line clip-path="url(#clipPath2)" fill="none" x1="281" x2="281" y1="36" y2="38"/>
<line clip-path="url(#clipPath2)" fill="none" x1="281" x2="281" y1="605" y2="603"/>
<line clip-path="url(#clipPath2)" fill="none" x1="297" x2="297" y1="34" y2="38"/>
<line clip-path="url(#clipPath2)" fill="none" x1="297" x2="297" y1="607" y2="603"/>
<text x="286" font-size="10" y="29" clip-path="url(#clipPath2)" stroke="none" xml:space="preserve">0.015</text>
<text x="286" font-size="10" y="618" clip-path="url(#clipPath2)" stroke="none" xml:space="preserve">0.015</text>
<line clip-path="url(#clipPath2)" fill="none" x1="313" x2="313" y1="36" y2="38"/>
<line clip-path="url(#clipPath2)" fill="none" x1="313" x2="313" y1="605" y2="603"/>
<line clip-path="url(#clipPath2)" fill="none" x1="330" x2="330" y1="36" y2="38"/>
<line clip-path="url(#clipPath2)" fill="none" x1="330" x2="330" y1="605" y2="603"/>
<line clip-path="url(#clipPath2)" fill="none" x1="346" x2="346" y1="36" y2="38"/>
<line clip-path="url(#clipPath2)" fill="none" x1="346" x2="346" y1="605" y2="603"/>
<line clip-path="url(#clipPath2)" fill="none" x1="362" x2="362" y1="36" y2="38"/>
<line clip-path="url(#clipPath2)" fill="none" x1="362" x2="362" y1="605" y2="603"/>
<line clip-path="url(#clipPath2)" fill="none" x1="378" x2="378" y1="34" y2="38"/>
<line clip-path="url(#clipPath2)" fill="none" x1="378" x2="378" y1="607" y2="603"/>
<text x="367" font-size="10" y="29" clip-path="url(#clipPath2)" stroke="none" xml:space="preserve">0.020</text>
<text x="367" font-size="10" y="618" clip-path="url(#clipPath2)" stroke="none" xml:space="preserve">0.020</text>
<line clip-path="url(#clipPath2)" fill="none" x1="395" x2="395" y1="36" y2="38"/>
<line clip-path="url(#clipPath2)" fill="none" x1="395" x2="395" y1="605" y2="603"/>
<line clip-path="url(#clipPath2)" fill="none" x1="411" x2="411" y1="36" y2="38"/>
<line clip-path="url(#clipPath2)" fill="none" x1="411" x2="411" y1="605" y2="603"/>
<line clip-path="url(#clipPath2)" fill="none" x1="427" x2="427" y1="36" y2="38"/>
<line clip-path="url(#clipPath2)" fill="none" x1="427" x2="427" y1="605" y2="603"/>
<line clip-path="url(#clipPath2)" fill="none" x1="443" x2="443" y1="36" y2="38"/>
<line clip-path="url(#clipPath2)" fill="none" x1="443" x2="443" y1="605" y2="603"/>
<line clip-path="url(#clipPath2)" fill="none" x1="460" x2="460" y1="34" y2="38"/>
<line clip-path="url(#clipPath2)" fill="none" x1="460" x2="460" y1="607" y2="603"/>
<text x="449" font-size="10" y="29" clip-path="url(#clipPath2)" stroke="none" xml:space="preserve">0.025</text>
<text x="449" font-size="10" y="618" clip-path="url(#clipPath2)" stroke="none" xml:space="preserve">0.025</text>
<line clip-path="url(#clipPath2)" fill="none" x1="476" x2="476" y1="36" y2="38"/>
<line clip-path="url(#clipPath2)" fill="none" x1="476" x2="476" y1="605" y2="603"/>
<line clip-path="url(#clipPath2)" fill="none" x1="492" x2="492" y1="36" y2="38"/>
<line clip-path="url(#clipPath2)" fill="none" x1="492" x2="492" y1="605" y2="603"/>
<line clip-path="url(#clipPath2)" fill="none" x1="508" x2="508" y1="36" y2="38"/>
<line clip-path="url(#clipPath2)" fill="none" x1="508" x2="508" y1="605" y2="603"/>
<line clip-path="url(#clipPath2)" fill="none" x1="525" x2="525" y1="36" y2="38"/>
<line clip-path="url(#clipPath2)" fill="none" x1="525" x2="525" y1="605" y2="603"/>
<line clip-path="url(#clipPath2)" fill="none" x1="541" x2="541" y1="34" y2="38"/>
<line clip-path="url(#clipPath2)" fill="none" x1="541" x2="541" y1="607" y2="603"/>
<text x="530" font-size="10" y="29" clip-path="url(#clipPath2)" stroke="none" xml:space="preserve">0.030</text>
<text x="530" font-size="10" y="618" clip-path="url(#clipPath2)" stroke="none" xml:space="preserve">0.030</text>
<line clip-path="url(#clipPath2)" fill="none" x1="557" x2="557" y1="36" y2="38"/>
<line clip-path="url(#clipPath2)" fill="none" x1="557" x2="557" y1="605" y2="603"/>
<line clip-path="url(#clipPath2)" fill="none" x1="573" x2="573" y1="36" y2="38"/>
<line clip-path="url(#clipPath2)" fill="none" x1="573" x2="573" y1="605" y2="603"/>
<line clip-path="url(#clipPath2)" fill="none" x1="590" x2="590" y1="36" y2="38"/>
<line clip-path="url(#clipPath2)" fill="none" x1="590" x2="590" y1="605" y2="603"/>
<line clip-path="url(#clipPath2)" fill="none" x1="606" x2="606" y1="36" y2="38"/>
<line clip-path="url(#clipPath2)" fill="none" x1="606" x2="606" y1="605" y2="603"/>
<line clip-path="url(#clipPath2)" fill="none" x1="622" x2="622" y1="34" y2="38"/>
<line clip-path="url(#clipPath2)" fill="none" x1="622" x2="622" y1="607" y2="603"/>
<text x="611" font-size="10" y="29" clip-path="url(#clipPath2)" stroke="none" xml:space="preserve">0.035</text>
<text x="611" font-size="10" y="618" clip-path="url(#clipPath2)" stroke="none" xml:space="preserve">0.035</text>
<line clip-path="url(#clipPath2)" fill="none" x1="638" x2="638" y1="36" y2="38"/>
<line clip-path="url(#clipPath2)" fill="none" x1="638" x2="638" y1="605" y2="603"/>
<line clip-path="url(#clipPath2)" fill="none" x1="655" x2="655" y1="36" y2="38"/>
<line clip-path="url(#clipPath2)" fill="none" x1="655" x2="655" y1="605" y2="603"/>
<line clip-path="url(#clipPath2)" fill="none" x1="671" x2="671" y1="36" y2="38"/>
<line clip-path="url(#clipPath2)" fill="none" x1="671" x2="671" y1="605" y2="603"/>
<line clip-path="url(#clipPath2)" fill="none" x1="687" x2="687" y1="36" y2="38"/>
<line clip-path="url(#clipPath2)" fill="none" x1="687" x2="687" y1="605" y2="603"/>
<line clip-path="url(#clipPath2)" fill="none" x1="703" x2="703" y1="34" y2="38"/>
<line clip-path="url(#clipPath2)" fill="none" x1="703" x2="703" y1="607" y2="603"/>
<text x="692" font-size="10" y="29" clip-path="url(#clipPath2)" stroke="none" xml:space="preserve">0.040</text>
<text x="692" font-size="10" y="618" clip-path="url(#clipPath2)" stroke="none" xml:space="preserve">0.040</text>
<line clip-path="url(#clipPath2)" fill="none" x1="720" x2="720" y1="36" y2="38"/>
<line clip-path="url(#clipPath2)" fill="none" x1="720" x2="720" y1="605" y2="603"/>
<line clip-path="url(#clipPath2)" fill="none" x1="736" x2="736" y1="36" y2="38"/>
<line clip-path="url(#clipPath2)" fill="none" x1="736" x2="736" y1="605" y2="603"/>
<line clip-path="url(#clipPath2)" fill="none" x1="752" x2="752" y1="36" y2="38"/>
<line clip-path="url(#clipPath2)" fill="none" x1="752" x2="752" y1="605" y2="603"/>
<line clip-path="url(#clipPath2)" fill="none" x1="768" x2="768" y1="36" y2="38"/>
<line clip-path="url(#clipPath2)" fill="none" x1="768" x2="768" y1="605" y2="603"/>
<line clip-path="url(#clipPath2)" fill="none" x1="785" x2="785" y1="34" y2="38"/>
<line clip-path="url(#clipPath2)" fill="none" x1="785" x2="785" y1="607" y2="603"/>
<text x="774" font-size="10" y="29" clip-path="url(#clipPath2)" stroke="none" xml:space="preserve">0.045</text>
<text x="774" font-size="10" y="618" clip-path="url(#clipPath2)" stroke="none" xml:space="preserve">0.045</text>
<line clip-path="url(#clipPath2)" fill="none" x1="801" x2="801" y1="36" y2="38"/>
<line clip-path="url(#clipPath2)" fill="none" x1="801" x2="801" y1="605" y2="603"/>
<line clip-path="url(#clipPath2)" fill="none" x1="817" x2="817" y1="36" y2="38"/>
<line clip-path="url(#clipPath2)" fill="none" x1="817" x2="817" y1="605" y2="603"/>
<line clip-path="url(#clipPath2)" fill="none" x1="833" x2="833" y1="36" y2="38"/>
<line clip-path="url(#clipPath2)" fill="none" x1="833" x2="833" y1="605" y2="603"/>
<line clip-path="url(#clipPath2)" fill="none" x1="850" x2="850" y1="36" y2="38"/>
<line clip-path="url(#clipPath2)" fill="none" x1="850" x2="850" y1="605" y2="603"/>
<line clip-path="url(#clipPath2)" fill="none" x1="866" x2="866" y1="34" y2="38"/>
<line clip-path="url(#clipPath2)" fill="none" x1="866" x2="866" y1="607" y2="603"/>
<text x="855" font-size="10" y="29" clip-path="url(#clipPath2)" stroke="none" xml:space="preserve">0.050</text>
<text x="855" font-size="10" y="618" clip-path="url(#clipPath2)" stroke="none" xml:space="preserve">0.050</text>
<line clip-path="url(#clipPath2)" fill="none" x1="882" x2="882" y1="36" y2="38"/>
<line clip-path="url(#clipPath2)" fill="none" x1="882" x2="882" y1="605" y2="603"/>
<line clip-path="url(#clipPath2)" fill="none" x1="898" x2="898" y1="36" y2="38"/>
<line clip-path="url(#clipPath2)" fill="none" x1="898" x2="898" y1="605" y2="603"/>
<line clip-path="url(#clipPath2)" fill="none" x1="915" x2="915" y1="36" y2="38"/>
<line clip-path="url(#clipPath2)" fill="none" x1="915" x2="915" y1="605" y2="603"/>
<line clip-path="url(#clipPath2)" fill="none" x1="931" x2="931" y1="36" y2="38"/>
<line clip-path="url(#clipPath2)" fill="none" x1="931" x2="931" y1="605" y2="603"/>
<line clip-path="url(#clipPath2)" fill="none" x1="947" x2="947" y1="34" y2="38"/>
<line clip-path="url(#clipPath2)" fill="none" x1="947" x2="947" y1="607" y2="603"/>
<text x="936" font-size="10" y="29" clip-path="url(#clipPath2)" stroke="none" xml:space="preserve">0.055</text>
<text x="936" font-size="10" y="618" clip-path="url(#clipPath2)" stroke="none" xml:space="preserve">0.055</text>
<line clip-path="url(#clipPath2)" fill="none" x1="963" x2="963" y1="36" y2="38"/>
<line clip-path="url(#clipPath2)" fill="none" x1="963" x2="963" y1="605" y2="603"/>
<line clip-path="url(#clipPath2)" fill="none" x1="980" x2="980" y1="36" y2="38"/>
<line clip-path="url(#clipPath2)" fill="none" x1="980" x2="980" y1="605" y2="603"/>
<line clip-path="url(#clipPath2)" fill="none" x1="996" x2="996" y1="36" y2="38"/>
<line clip-path="url(#clipPath2)" fill="none" x1="996" x2="996" y1="605" y2="603"/>
<line clip-path="url(#clipPath2)" fill="none" x1="1012" x2="1012" y1="36" y2="38"/>
<line clip-path="url(#clipPath2)" fill="none" x1="1012" x2="1012" y1="605" y2="603"/>
<line clip-path="url(#clipPath2)" fill="none" x1="1028" x2="1028" y1="34" y2="38"/>
<line clip-path="url(#clipPath2)" fill="none" x1="1028" x2="1028" y1="607" y2="603"/>
<text x="1017" font-size="10" y="29" clip-path="url(#clipPath2)" stroke="none" xml:space="preserve">0.060</text>
<text x="1017" font-size="10" y="618" clip-path="url(#clipPath2)" stroke="none" xml:space="preserve">0.060</text>
<line clip-path="url(#clipPath2)" fill="none" x1="1045" x2="1045" y1="36" y2="38"/>
<line clip-path="url(#clipPath2)" fill="none" x1="1045" x2="1045" y1="605" y2="603"/>
<line clip-path="url(#clipPath2)" fill="none" x1="1061" x2="1061" y1="36" y2="38"/>
<line clip-path="url(#clipPath2)" fill="none" x1="1061" x2="1061" y1="605" y2="603"/>
<line clip-path="url(#clipPath2)" fill="none" x1="1077" x2="1077" y1="36" y2="38"/>
<line clip-path="url(#clipPath2)" fill="none" x1="1077" x2="1077" y1="605" y2="603"/>
<line clip-path="url(#clipPath2)" fill="none" x1="1093" x2="1093" y1="36" y2="38"/>
<line clip-path="url(#clipPath2)" fill="none" x1="1093" x2="1093" y1="605" y2="603"/>
<line clip-path="url(#clipPath2)" fill="none" x1="1110" x2="1110" y1="34" y2="38"/>
<line clip-path="url(#clipPath2)" fill="none" x1="1110" x2="1110" y1="607" y2="603"/>
<text x="1099" font-size="10" y="29" clip-path="url(#clipPath2)" stroke="none" xml:space="preserve">0.065</text>
<text x="1099" font-size="10" y="618" clip-path="url(#clipPath2)" stroke="none" xml:space="preserve">0.065</text>
<line clip-path="url(#clipPath2)" fill="none" x1="1126" x2="1126" y1="36" y2="38"/>
<line clip-path="url(#clipPath2)" fill="none" x1="1126" x2="1126" y1="605" y2="603"/>
<line clip-path="url(#clipPath2)" fill="none" x1="1142" x2="1142" y1="36" y2="38"/>
<line clip-path="url(#clipPath2)" fill="none" x1="1142" x2="1142" y1="605" y2="603"/>
<line clip-path="url(#clipPath2)" fill="none" x1="1158" x2="1158" y1="36" y2="38"/>
<line clip-path="url(#clipPath2)" fill="none" x1="1158" x2="1158" y1="605" y2="603"/>
<line clip-path="url(#clipPath2)" fill="none" x1="1175" x2="1175" y1="36" y2="38"/>
<line clip-path="url(#clipPath2)" fill="none" x1="1175" x2="1175" y1="605" y2="603"/>
<line clip-path="url(#clipPath2)" fill="none" x1="1191" x2="1191" y1="34" y2="38"/>
<line clip-path="url(#clipPath2)" fill="none" x1="1191" x2="1191" y1="607" y2="603"/>
<text x="1180" font-size="10" y="29" clip-path="url(#clipPath2)" stroke="none" xml:space="preserve">0.070</text>
<text x="1180" font-size="10" y="618" clip-path="url(#clipPath2)" stroke="none" xml:space="preserve">0.070</text>
<line clip-path="url(#clipPath2)" fill="none" x1="1207" x2="1207" y1="36" y2="38"/>
<line clip-path="url(#clipPath2)" fill="none" x1="1207" x2="1207" y1="605" y2="603"/>
<line clip-path="url(#clipPath2)" fill="none" x1="1223" x2="1223" y1="36" y2="38"/>
<line clip-path="url(#clipPath2)" fill="none" x1="1223" x2="1223" y1="605" y2="603"/>
<line clip-path="url(#clipPath2)" fill="none" x1="1240" x2="1240" y1="36" y2="38"/>
<line clip-path="url(#clipPath2)" fill="none" x1="1240" x2="1240" y1="605" y2="603"/>
<line clip-path="url(#clipPath2)" fill="none" x1="1256" x2="1256" y1="36" y2="38"/>
<line clip-path="url(#clipPath2)" fill="none" x1="1256" x2="1256" y1="605" y2="603"/>
<line clip-path="url(#clipPath2)" fill="none" x1="1272" x2="1272" y1="34" y2="38"/>
<line clip-path="url(#clipPath2)" fill="none" x1="1272" x2="1272" y1="607" y2="603"/>
<text x="1261" font-size="10" y="29" clip-path="url(#clipPath2)" stroke="none" xml:space="preserve">0.075</text>
<text x="1261" font-size="10" y="618" clip-path="url(#clipPath2)" stroke="none" xml:space="preserve">0.075</text>
<line clip-path="url(#clipPath2)" fill="none" x1="1288" x2="1288" y1="36" y2="38"/>
<line clip-path="url(#clipPath2)" fill="none" x1="1288" x2="1288" y1="605" y2="603"/>
<line clip-path="url(#clipPath2)" fill="none" x1="1305" x2="1305" y1="36" y2="38"/>
<line clip-path="url(#clipPath2)" fill="none" x1="1305" x2="1305" y1="605" y2="603"/>
<line clip-path="url(#clipPath2)" fill="none" x1="1321" x2="1321" y1="36" y2="38"/>
<line clip-path="url(#clipPath2)" fill="none" x1="1321" x2="1321" y1="605" y2="603"/>
<line clip-path="url(#clipPath2)" fill="none" x1="1337" x2="1337" y1="36" y2="38"/>
<line clip-path="url(#clipPath2)" fill="none" x1="1337" x2="1337" y1="605" y2="603"/>
<line clip-path="url(#clipPath2)" fill="none" x1="1353" x2="1353" y1="34" y2="38"/>
<line clip-path="url(#clipPath2)" fill="none" x1="1353" x2="1353" y1="607" y2="603"/>
<text x="1342" font-size="10" y="29" clip-path="url(#clipPath2)" stroke="none" xml:space="preserve">0.080</text>
<text x="1342" font-size="10" y="618" clip-path="url(#clipPath2)" stroke="none" xml:space="preserve">0.080</text>
<line clip-path="url(#clipPath2)" fill="none" x1="1370" x2="1370" y1="36" y2="38"/>
<line clip-path="url(#clipPath2)" fill="none" x1="1370" x2="1370" y1="605" y2="603"/>
<line clip-path="url(#clipPath2)" fill="none" x1="52" x2="52" y1="40" y2="601"/>
<line clip-path="url(#clipPath2)" fill="none" x1="1372" x2="1372" y1="40" y2="601"/>
<line clip-path="url(#clipPath2)" fill="none" x1="48" x2="52" y1="601" y2="601"/>
<line clip-path="url(#clipPath2)" fill="none" x1="1376" x2="1372" y1="601" y2="601"/>
<text x="42" font-size="10" y="604" clip-path="url(#clipPath2)" stroke="none" xml:space="preserve">0</text>
<text x="1379" font-size="10" y="604" clip-path="url(#clipPath2)" stroke="none" xml:space="preserve">0</text>
<line clip-path="url(#clipPath2)" fill="none" x1="50" x2="52" y1="556" y2="556"/>
<line clip-path="url(#clipPath2)" fill="none" x1="1374" x2="1372" y1="556" y2="556"/>
<line clip-path="url(#clipPath2)" fill="none" x1="48" x2="52" y1="511" y2="511"/>
<line clip-path="url(#clipPath2)" fill="none" x1="1376" x2="1372" y1="511" y2="511"/>
<text x="32" font-size="10" y="514" clip-path="url(#clipPath2)" stroke="none" xml:space="preserve">200</text>
<text x="1379" font-size="10" y="514" clip-path="url(#clipPath2)" stroke="none" xml:space="preserve">200</text>
<line clip-path="url(#clipPath2)" fill="none" x1="50" x2="52" y1="466" y2="466"/>
<line clip-path="url(#clipPath2)" fill="none" x1="1374" x2="1372" y1="466" y2="466"/>
<line clip-path="url(#clipPath2)" fill="none" x1="48" x2="52" y1="421" y2="421"/>
<line clip-path="url(#clipPath2)" fill="none" x1="1376" x2="1372" y1="421" y2="421"/>
<text x="32" font-size="10" y="424" clip-path="url(#clipPath2)" stroke="none" xml:space="preserve">400</text>
<text x="1379" font-size="10" y="424" clip-path="url(#clipPath2)" stroke="none" xml:space="preserve">400</text>
<line clip-path="url(#clipPath2)" fill="none" x1="50" x2="52" y1="376" y2="376"/>
<line clip-path="url(#clipPath2)" fill="none" x1="1374" x2="1372" y1="376" y2="376"/>
<line clip-path="url(#clipPath2)" fill="none" x1="48" x2="52" y1="332" y2="332"/>
<line clip-path="url(#clipPath2)" fill="none" x1="1376" x2="1372" y1="332" y2="332"/>
<text x="32" font-size="10" y="335" clip-path="url(#clipPath2)" stroke="none" xml:space="preserve">600</text>
<text x="1379" font-size="10" y="335" clip-path="url(#clipPath2)" stroke="none" xml:space="preserve">600</text>
<line clip-path="url(#clipPath2)" fill="none" x1="50" x2="52" y1="287" y2="287"/>
<line clip-path="url(#clipPath2)" fill="none" x1="1374" x2="1372" y1="287" y2="287"/>
<line clip-path="url(#clipPath2)" fill="none" x1="48" x2="52" y1="242" y2="242"/>
<line clip-path="url(#clipPath2)" fill="none" x1="1376" x2="1372" y1="242" y2="242"/>
<text x="32" font-size="10" y="245" clip-path="url(#clipPath2)" stroke="none" xml:space="preserve">800</text>
<text x="1379" font-size="10" y="245" clip-path="url(#clipPath2)" stroke="none" xml:space="preserve">800</text>
<line clip-path="url(#clipPath2)" fill="none" x1="50" x2="52" y1="197" y2="197"/>
<line clip-path="url(#clipPath2)" fill="none" x1="1374" x2="1372" y1="197" y2="197"/>
<line clip-path="url(#clipPath2)" fill="none" x1="48" x2="52" y1="152" y2="152"/>
<line clip-path="url(#clipPath2)" fill="none" x1="1376" x2="1372" y1="152" y2="152"/>
<text x="27" font-size="10" y="155" clip-path="url(#clipPath2)" stroke="none" xml:space="preserve">1000</text>
<text x="1379" font-size="10" y="155" clip-path="url(#clipPath2)" stroke="none" xml:space="preserve">1000</text>
<line clip-path="url(#clipPath2)" fill="none" x1="50" x2="52" y1="108" y2="108"/>
<line clip-path="url(#clipPath2)" fill="none" x1="1374" x2="1372" y1="108" y2="108"/>
<line clip-path="url(#clipPath2)" fill="none" x1="48" x2="52" y1="63" y2="63"/>
<line clip-path="url(#clipPath2)" fill="none" x1="1376" x2="1372" y1="63" y2="63"/>
<text x="27" font-size="10" y="66" clip-path="url(#clipPath2)" stroke="none" xml:space="preserve">1200</text>
<text x="1379" font-size="10" y="66" clip-path="url(#clipPath2)" stroke="none" xml:space="preserve">1200</text>
</g>
</g>
</svg>
