<?xml version="1.0" encoding="UTF-8"?><svg xmlns="http://www.w3.org/2000/svg" xmlns:xlink="http://www.w3.org/1999/xlink" stroke-dasharray="none" shape-rendering="auto" font-family="'Dialog'" width="1408" text-rendering="auto" fill-opacity="1" contentScriptType="text/ecmascript" color-interpolation="auto" color-rendering="auto" preserveAspectRatio="xMidYMid meet" font-size="12" fill="black" stroke="black" image-rendering="auto" stroke-miterlimit="10" zoomAndPan="magnify" version="1.0" stroke-linecap="square" stroke-linejoin="miter" contentStyleType="text/css" font-style="normal" height="641" stroke-width="1" stroke-dashoffset="0" font-weight="normal" stroke-opacity="1">
<!--Generated by the Batik Graphics2D SVG Generator-->
<defs id="genericDefs"/>
<g>
<defs id="defs1">
<clipPath clipPathUnits="userSpaceOnUse" id="clipPath1">
<path d="M37 23 L1371 23 L1371 618 L37 618 L37 23 Z"/>
</clipPath>
<clipPath clipPathUnits="userSpaceOnUse" id="clipPath2">
<path d="M-1 -1 L1409 -1 L1409 642 L-1 642 L-1 -1 Z"/>
</clipPath>
</defs>
<g fill="white" text-rendering="geometricPrecision" font-family="'Segoe UI'" stroke-linejoin="round" stroke="white" stroke-width="0" stroke-miterlimit="0">
<rect x="38" y="24" clip-path="url(#clipPath1)" width="1332" height="593" stroke="none"/>
</g>
<g stroke-linecap="butt" fill="rgb(204,204,204)" text-rendering="geometricPrecision" font-family="'Segoe UI'" stroke-dasharray="3,3" stroke="rgb(204,204,204)">
<line clip-path="url(#clipPath1)" fill="none" x1="38" x2="38" y1="24" y2="617"/>
<line clip-path="url(#clipPath1)" fill="none" x1="120" x2="120" y1="24" y2="617"/>
<line clip-path="url(#clipPath1)" fill="none" x1="202" x2="202" y1="24" y2="617"/>
<line clip-path="url(#clipPath1)" fill="none" x1="284" x2="284" y1="24" y2="617"/>
<line clip-path="url(#clipPath1)" fill="none" x1="366" x2="366" y1="24" y2="617"/>
<line clip-path="url(#clipPath1)" fill="none" x1="449" x2="449" y1="24" y2="617"/>
<line clip-path="url(#clipPath1)" fill="none" x1="531" x2="531" y1="24" y2="617"/>
<line clip-path="url(#clipPath1)" fill="none" x1="613" x2="613" y1="24" y2="617"/>
<line clip-path="url(#clipPath1)" fill="none" x1="695" x2="695" y1="24" y2="617"/>
<line clip-path="url(#clipPath1)" fill="none" x1="778" x2="778" y1="24" y2="617"/>
<line clip-path="url(#clipPath1)" fill="none" x1="860" x2="860" y1="24" y2="617"/>
<line clip-path="url(#clipPath1)" fill="none" x1="942" x2="942" y1="24" y2="617"/>
<line clip-path="url(#clipPath1)" fill="none" x1="1024" x2="1024" y1="24" y2="617"/>
<line clip-path="url(#clipPath1)" fill="none" x1="1106" x2="1106" y1="24" y2="617"/>
<line clip-path="url(#clipPath1)" fill="none" x1="1189" x2="1189" y1="24" y2="617"/>
<line clip-path="url(#clipPath1)" fill="none" x1="1271" x2="1271" y1="24" y2="617"/>
<line clip-path="url(#clipPath1)" fill="none" x1="1353" x2="1353" y1="24" y2="617"/>
<line clip-path="url(#clipPath1)" fill="none" x1="38" x2="1370" y1="617" y2="617"/>
<line clip-path="url(#clipPath1)" fill="none" x1="38" x2="1370" y1="522" y2="522"/>
<line clip-path="url(#clipPath1)" fill="none" x1="38" x2="1370" y1="427" y2="427"/>
<line clip-path="url(#clipPath1)" fill="none" x1="38" x2="1370" y1="332" y2="332"/>
<line clip-path="url(#clipPath1)" fill="none" x1="38" x2="1370" y1="238" y2="238"/>
<line clip-path="url(#clipPath1)" fill="none" x1="38" x2="1370" y1="143" y2="143"/>
<line clip-path="url(#clipPath1)" fill="none" x1="38" x2="1370" y1="48" y2="48"/>
<rect x="52" y="612" clip-path="url(#clipPath1)" fill="rgb(0,0,139)" width="5" height="5" stroke="none"/>
<line clip-path="url(#clipPath1)" fill="none" x1="54" x2="70" y1="614" y2="607" stroke-dasharray="none" stroke="rgb(0,0,139)"/>
<rect x="68" y="605" clip-path="url(#clipPath1)" fill="rgb(0,0,139)" width="5" stroke-dasharray="none" height="5" stroke="none"/>
<line clip-path="url(#clipPath1)" fill="none" x1="70" x2="87" y1="607" y2="602" stroke-dasharray="none" stroke="rgb(0,0,139)"/>
<rect x="85" y="600" clip-path="url(#clipPath1)" fill="rgb(0,0,139)" width="5" stroke-dasharray="none" height="5" stroke="none"/>
<line clip-path="url(#clipPath1)" fill="none" x1="87" x2="103" y1="602" y2="597" stroke-dasharray="none" stroke="rgb(0,0,139)"/>
<rect x="101" y="595" clip-path="url(#clipPath1)" fill="rgb(0,0,139)" width="5" stroke-dasharray="none" height="5" stroke="none"/>
<line clip-path="url(#clipPath1)" fill="none" x1="103" x2="120" y1="597" y2="592" stroke-dasharray="none" stroke="rgb(0,0,139)"/>
<rect x="118" y="590" clip-path="url(#clipPath1)" fill="rgb(0,0,139)" width="5" stroke-dasharray="none" height="5" stroke="none"/>
<line clip-path="url(#clipPath1)" fill="none" x1="120" x2="136" y1="592" y2="585" stroke-dasharray="none" stroke="rgb(0,0,139)"/>
<rect x="134" y="583" clip-path="url(#clipPath1)" fill="rgb(0,0,139)" width="5" stroke-dasharray="none" height="5" stroke="none"/>
<line clip-path="url(#clipPath1)" fill="none" x1="136" x2="153" y1="585" y2="580" stroke-dasharray="none" stroke="rgb(0,0,139)"/>
<rect x="151" y="578" clip-path="url(#clipPath1)" fill="rgb(0,0,139)" width="5" stroke-dasharray="none" height="5" stroke="none"/>
<line clip-path="url(#clipPath1)" fill="none" x1="153" x2="169" y1="580" y2="575" stroke-dasharray="none" stroke="rgb(0,0,139)"/>
<rect x="167" y="573" clip-path="url(#clipPath1)" fill="rgb(0,0,139)" width="5" stroke-dasharray="none" height="5" stroke="none"/>
<line clip-path="url(#clipPath1)" fill="none" x1="169" x2="186" y1="575" y2="568" stroke-dasharray="none" stroke="rgb(0,0,139)"/>
<rect x="184" y="566" clip-path="url(#clipPath1)" fill="rgb(0,0,139)" width="5" stroke-dasharray="none" height="5" stroke="none"/>
<line clip-path="url(#clipPath1)" fill="none" x1="186" x2="202" y1="568" y2="563" stroke-dasharray="none" stroke="rgb(0,0,139)"/>
<rect x="200" y="561" clip-path="url(#clipPath1)" fill="rgb(0,0,139)" width="5" stroke-dasharray="none" height="5" stroke="none"/>
<line clip-path="url(#clipPath1)" fill="none" x1="202" x2="218" y1="563" y2="557" stroke-dasharray="none" stroke="rgb(0,0,139)"/>
<rect x="216" y="555" clip-path="url(#clipPath1)" fill="rgb(0,0,139)" width="5" stroke-dasharray="none" height="5" stroke="none"/>
<line clip-path="url(#clipPath1)" fill="none" x1="218" x2="235" y1="557" y2="552" stroke-dasharray="none" stroke="rgb(0,0,139)"/>
<rect x="233" y="550" clip-path="url(#clipPath1)" fill="rgb(0,0,139)" width="5" stroke-dasharray="none" height="5" stroke="none"/>
<line clip-path="url(#clipPath1)" fill="none" x1="235" x2="251" y1="552" y2="546" stroke-dasharray="none" stroke="rgb(0,0,139)"/>
<rect x="249" y="544" clip-path="url(#clipPath1)" fill="rgb(0,0,139)" width="5" stroke-dasharray="none" height="5" stroke="none"/>
<line clip-path="url(#clipPath1)" fill="none" x1="251" x2="268" y1="546" y2="541" stroke-dasharray="none" stroke="rgb(0,0,139)"/>
<rect x="266" y="539" clip-path="url(#clipPath1)" fill="rgb(0,0,139)" width="5" stroke-dasharray="none" height="5" stroke="none"/>
<line clip-path="url(#clipPath1)" fill="none" x1="268" x2="284" y1="541" y2="536" stroke-dasharray="none" stroke="rgb(0,0,139)"/>
<rect x="282" y="534" clip-path="url(#clipPath1)" fill="rgb(0,0,139)" width="5" stroke-dasharray="none" height="5" stroke="none"/>
<line clip-path="url(#clipPath1)" fill="none" x1="284" x2="301" y1="536" y2="529" stroke-dasharray="none" stroke="rgb(0,0,139)"/>
<rect x="299" y="527" clip-path="url(#clipPath1)" fill="rgb(0,0,139)" width="5" stroke-dasharray="none" height="5" stroke="none"/>
<line clip-path="url(#clipPath1)" fill="none" x1="301" x2="317" y1="529" y2="523" stroke-dasharray="none" stroke="rgb(0,0,139)"/>
<rect x="315" y="521" clip-path="url(#clipPath1)" fill="rgb(0,0,139)" width="5" stroke-dasharray="none" height="5" stroke="none"/>
<line clip-path="url(#clipPath1)" fill="none" x1="317" x2="334" y1="523" y2="518" stroke-dasharray="none" stroke="rgb(0,0,139)"/>
<rect x="332" y="516" clip-path="url(#clipPath1)" fill="rgb(0,0,139)" width="5" stroke-dasharray="none" height="5" stroke="none"/>
<line clip-path="url(#clipPath1)" fill="none" x1="334" x2="350" y1="518" y2="513" stroke-dasharray="none" stroke="rgb(0,0,139)"/>
<rect x="348" y="511" clip-path="url(#clipPath1)" fill="rgb(0,0,139)" width="5" stroke-dasharray="none" height="5" stroke="none"/>
<line clip-path="url(#clipPath1)" fill="none" x1="350" x2="366" y1="513" y2="507" stroke-dasharray="none" stroke="rgb(0,0,139)"/>
<rect x="364" y="505" clip-path="url(#clipPath1)" fill="rgb(0,0,139)" width="5" stroke-dasharray="none" height="5" stroke="none"/>
<line clip-path="url(#clipPath1)" fill="none" x1="366" x2="383" y1="507" y2="502" stroke-dasharray="none" stroke="rgb(0,0,139)"/>
<rect x="381" y="500" clip-path="url(#clipPath1)" fill="rgb(0,0,139)" width="5" stroke-dasharray="none" height="5" stroke="none"/>
<line clip-path="url(#clipPath1)" fill="none" x1="383" x2="399" y1="502" y2="496" stroke-dasharray="none" stroke="rgb(0,0,139)"/>
<rect x="397" y="494" clip-path="url(#clipPath1)" fill="rgb(0,0,139)" width="5" stroke-dasharray="none" height="5" stroke="none"/>
<line clip-path="url(#clipPath1)" fill="none" x1="399" x2="416" y1="496" y2="491" stroke-dasharray="none" stroke="rgb(0,0,139)"/>
<rect x="414" y="489" clip-path="url(#clipPath1)" fill="rgb(0,0,139)" width="5" stroke-dasharray="none" height="5" stroke="none"/>
<line clip-path="url(#clipPath1)" fill="none" x1="416" x2="432" y1="491" y2="485" stroke-dasharray="none" stroke="rgb(0,0,139)"/>
<rect x="430" y="483" clip-path="url(#clipPath1)" fill="rgb(0,0,139)" width="5" stroke-dasharray="none" height="5" stroke="none"/>
<line clip-path="url(#clipPath1)" fill="none" x1="432" x2="449" y1="485" y2="480" stroke-dasharray="none" stroke="rgb(0,0,139)"/>
<rect x="447" y="478" clip-path="url(#clipPath1)" fill="rgb(0,0,139)" width="5" stroke-dasharray="none" height="5" stroke="none"/>
<line clip-path="url(#clipPath1)" fill="none" x1="449" x2="465" y1="480" y2="473" stroke-dasharray="none" stroke="rgb(0,0,139)"/>
<rect x="463" y="471" clip-path="url(#clipPath1)" fill="rgb(0,0,139)" width="5" stroke-dasharray="none" height="5" stroke="none"/>
<line clip-path="url(#clipPath1)" fill="none" x1="465" x2="482" y1="473" y2="469" stroke-dasharray="none" stroke="rgb(0,0,139)"/>
<rect x="480" y="467" clip-path="url(#clipPath1)" fill="rgb(0,0,139)" width="5" stroke-dasharray="none" height="5" stroke="none"/>
<line clip-path="url(#clipPath1)" fill="none" x1="482" x2="498" y1="469" y2="463" stroke-dasharray="none" stroke="rgb(0,0,139)"/>
<rect x="496" y="461" clip-path="url(#clipPath1)" fill="rgb(0,0,139)" width="5" stroke-dasharray="none" height="5" stroke="none"/>
<line clip-path="url(#clipPath1)" fill="none" x1="498" x2="514" y1="463" y2="456" stroke-dasharray="none" stroke="rgb(0,0,139)"/>
<rect x="512" y="454" clip-path="url(#clipPath1)" fill="rgb(0,0,139)" width="5" stroke-dasharray="none" height="5" stroke="none"/>
<line clip-path="url(#clipPath1)" fill="none" x1="514" x2="531" y1="456" y2="452" stroke-dasharray="none" stroke="rgb(0,0,139)"/>
<rect x="529" y="450" clip-path="url(#clipPath1)" fill="rgb(0,0,139)" width="5" stroke-dasharray="none" height="5" stroke="none"/>
<line clip-path="url(#clipPath1)" fill="none" x1="531" x2="547" y1="452" y2="445" stroke-dasharray="none" stroke="rgb(0,0,139)"/>
<rect x="545" y="443" clip-path="url(#clipPath1)" fill="rgb(0,0,139)" width="5" stroke-dasharray="none" height="5" stroke="none"/>
<line clip-path="url(#clipPath1)" fill="none" x1="547" x2="564" y1="445" y2="441" stroke-dasharray="none" stroke="rgb(0,0,139)"/>
<rect x="562" y="439" clip-path="url(#clipPath1)" fill="rgb(0,0,139)" width="5" stroke-dasharray="none" height="5" stroke="none"/>
<line clip-path="url(#clipPath1)" fill="none" x1="564" x2="580" y1="441" y2="434" stroke-dasharray="none" stroke="rgb(0,0,139)"/>
<rect x="578" y="432" clip-path="url(#clipPath1)" fill="rgb(0,0,139)" width="5" stroke-dasharray="none" height="5" stroke="none"/>
<line clip-path="url(#clipPath1)" fill="none" x1="580" x2="597" y1="434" y2="429" stroke-dasharray="none" stroke="rgb(0,0,139)"/>
<rect x="595" y="427" clip-path="url(#clipPath1)" fill="rgb(0,0,139)" width="5" stroke-dasharray="none" height="5" stroke="none"/>
<line clip-path="url(#clipPath1)" fill="none" x1="597" x2="613" y1="429" y2="424" stroke-dasharray="none" stroke="rgb(0,0,139)"/>
<rect x="611" y="422" clip-path="url(#clipPath1)" fill="rgb(0,0,139)" width="5" stroke-dasharray="none" height="5" stroke="none"/>
<line clip-path="url(#clipPath1)" fill="none" x1="613" x2="630" y1="424" y2="418" stroke-dasharray="none" stroke="rgb(0,0,139)"/>
<rect x="628" y="416" clip-path="url(#clipPath1)" fill="rgb(0,0,139)" width="5" stroke-dasharray="none" height="5" stroke="none"/>
<line clip-path="url(#clipPath1)" fill="none" x1="630" x2="646" y1="418" y2="412" stroke-dasharray="none" stroke="rgb(0,0,139)"/>
<rect x="644" y="410" clip-path="url(#clipPath1)" fill="rgb(0,0,139)" width="5" stroke-dasharray="none" height="5" stroke="none"/>
<line clip-path="url(#clipPath1)" fill="none" x1="646" x2="662" y1="412" y2="407" stroke-dasharray="none" stroke="rgb(0,0,139)"/>
<rect x="660" y="405" clip-path="url(#clipPath1)" fill="rgb(0,0,139)" width="5" stroke-dasharray="none" height="5" stroke="none"/>
<line clip-path="url(#clipPath1)" fill="none" x1="662" x2="679" y1="407" y2="401" stroke-dasharray="none" stroke="rgb(0,0,139)"/>
<rect x="677" y="399" clip-path="url(#clipPath1)" fill="rgb(0,0,139)" width="5" stroke-dasharray="none" height="5" stroke="none"/>
<line clip-path="url(#clipPath1)" fill="none" x1="679" x2="695" y1="401" y2="395" stroke-dasharray="none" stroke="rgb(0,0,139)"/>
<rect x="693" y="393" clip-path="url(#clipPath1)" fill="rgb(0,0,139)" width="5" stroke-dasharray="none" height="5" stroke="none"/>
<line clip-path="url(#clipPath1)" fill="none" x1="695" x2="712" y1="395" y2="390" stroke-dasharray="none" stroke="rgb(0,0,139)"/>
<rect x="710" y="388" clip-path="url(#clipPath1)" fill="rgb(0,0,139)" width="5" stroke-dasharray="none" height="5" stroke="none"/>
<line clip-path="url(#clipPath1)" fill="none" x1="712" x2="728" y1="390" y2="385" stroke-dasharray="none" stroke="rgb(0,0,139)"/>
<rect x="726" y="383" clip-path="url(#clipPath1)" fill="rgb(0,0,139)" width="5" stroke-dasharray="none" height="5" stroke="none"/>
<line clip-path="url(#clipPath1)" fill="none" x1="728" x2="745" y1="385" y2="378" stroke-dasharray="none" stroke="rgb(0,0,139)"/>
<rect x="743" y="376" clip-path="url(#clipPath1)" fill="rgb(0,0,139)" width="5" stroke-dasharray="none" height="5" stroke="none"/>
<line clip-path="url(#clipPath1)" fill="none" x1="745" x2="761" y1="378" y2="373" stroke-dasharray="none" stroke="rgb(0,0,139)"/>
<rect x="759" y="371" clip-path="url(#clipPath1)" fill="rgb(0,0,139)" width="5" stroke-dasharray="none" height="5" stroke="none"/>
<line clip-path="url(#clipPath1)" fill="none" x1="761" x2="778" y1="373" y2="368" stroke-dasharray="none" stroke="rgb(0,0,139)"/>
<rect x="776" y="366" clip-path="url(#clipPath1)" fill="rgb(0,0,139)" width="5" stroke-dasharray="none" height="5" stroke="none"/>
<line clip-path="url(#clipPath1)" fill="none" x1="778" x2="794" y1="368" y2="362" stroke-dasharray="none" stroke="rgb(0,0,139)"/>
<rect x="792" y="360" clip-path="url(#clipPath1)" fill="rgb(0,0,139)" width="5" stroke-dasharray="none" height="5" stroke="none"/>
<line clip-path="url(#clipPath1)" fill="none" x1="794" x2="810" y1="362" y2="356" stroke-dasharray="none" stroke="rgb(0,0,139)"/>
<rect x="808" y="354" clip-path="url(#clipPath1)" fill="rgb(0,0,139)" width="5" stroke-dasharray="none" height="5" stroke="none"/>
<line clip-path="url(#clipPath1)" fill="none" x1="810" x2="827" y1="356" y2="350" stroke-dasharray="none" stroke="rgb(0,0,139)"/>
<rect x="825" y="348" clip-path="url(#clipPath1)" fill="rgb(0,0,139)" width="5" stroke-dasharray="none" height="5" stroke="none"/>
<line clip-path="url(#clipPath1)" fill="none" x1="827" x2="843" y1="350" y2="346" stroke-dasharray="none" stroke="rgb(0,0,139)"/>
<rect x="841" y="344" clip-path="url(#clipPath1)" fill="rgb(0,0,139)" width="5" stroke-dasharray="none" height="5" stroke="none"/>
<line clip-path="url(#clipPath1)" fill="none" x1="843" x2="860" y1="346" y2="339" stroke-dasharray="none" stroke="rgb(0,0,139)"/>
<rect x="858" y="337" clip-path="url(#clipPath1)" fill="rgb(0,0,139)" width="5" stroke-dasharray="none" height="5" stroke="none"/>
<line clip-path="url(#clipPath1)" fill="none" x1="860" x2="876" y1="339" y2="334" stroke-dasharray="none" stroke="rgb(0,0,139)"/>
<rect x="874" y="332" clip-path="url(#clipPath1)" fill="rgb(0,0,139)" width="5" stroke-dasharray="none" height="5" stroke="none"/>
<line clip-path="url(#clipPath1)" fill="none" x1="876" x2="893" y1="334" y2="328" stroke-dasharray="none" stroke="rgb(0,0,139)"/>
<rect x="891" y="326" clip-path="url(#clipPath1)" fill="rgb(0,0,139)" width="5" stroke-dasharray="none" height="5" stroke="none"/>
<line clip-path="url(#clipPath1)" fill="none" x1="893" x2="909" y1="328" y2="323" stroke-dasharray="none" stroke="rgb(0,0,139)"/>
<rect x="907" y="321" clip-path="url(#clipPath1)" fill="rgb(0,0,139)" width="5" stroke-dasharray="none" height="5" stroke="none"/>
<line clip-path="url(#clipPath1)" fill="none" x1="909" x2="926" y1="323" y2="318" stroke-dasharray="none" stroke="rgb(0,0,139)"/>
<rect x="924" y="316" clip-path="url(#clipPath1)" fill="rgb(0,0,139)" width="5" stroke-dasharray="none" height="5" stroke="none"/>
<line clip-path="url(#clipPath1)" fill="none" x1="926" x2="942" y1="318" y2="311" stroke-dasharray="none" stroke="rgb(0,0,139)"/>
<rect x="940" y="309" clip-path="url(#clipPath1)" fill="rgb(0,0,139)" width="5" stroke-dasharray="none" height="5" stroke="none"/>
<line clip-path="url(#clipPath1)" fill="none" x1="942" x2="958" y1="311" y2="306" stroke-dasharray="none" stroke="rgb(0,0,139)"/>
<rect x="956" y="304" clip-path="url(#clipPath1)" fill="rgb(0,0,139)" width="5" stroke-dasharray="none" height="5" stroke="none"/>
<line clip-path="url(#clipPath1)" fill="none" x1="958" x2="975" y1="306" y2="301" stroke-dasharray="none" stroke="rgb(0,0,139)"/>
<rect x="973" y="299" clip-path="url(#clipPath1)" fill="rgb(0,0,139)" width="5" stroke-dasharray="none" height="5" stroke="none"/>
<line clip-path="url(#clipPath1)" fill="none" x1="975" x2="991" y1="301" y2="294" stroke-dasharray="none" stroke="rgb(0,0,139)"/>
<rect x="989" y="292" clip-path="url(#clipPath1)" fill="rgb(0,0,139)" width="5" stroke-dasharray="none" height="5" stroke="none"/>
<line clip-path="url(#clipPath1)" fill="none" x1="991" x2="1008" y1="294" y2="289" stroke-dasharray="none" stroke="rgb(0,0,139)"/>
<rect x="1006" y="287" clip-path="url(#clipPath1)" fill="rgb(0,0,139)" width="5" stroke-dasharray="none" height="5" stroke="none"/>
<line clip-path="url(#clipPath1)" fill="none" x1="1008" x2="1024" y1="289" y2="284" stroke-dasharray="none" stroke="rgb(0,0,139)"/>
<rect x="1022" y="282" clip-path="url(#clipPath1)" fill="rgb(0,0,139)" width="5" stroke-dasharray="none" height="5" stroke="none"/>
<line clip-path="url(#clipPath1)" fill="none" x1="1024" x2="1041" y1="284" y2="278" stroke-dasharray="none" stroke="rgb(0,0,139)"/>
<rect x="1039" y="276" clip-path="url(#clipPath1)" fill="rgb(0,0,139)" width="5" stroke-dasharray="none" height="5" stroke="none"/>
<line clip-path="url(#clipPath1)" fill="none" x1="1041" x2="1057" y1="278" y2="272" stroke-dasharray="none" stroke="rgb(0,0,139)"/>
<rect x="1055" y="270" clip-path="url(#clipPath1)" fill="rgb(0,0,139)" width="5" stroke-dasharray="none" height="5" stroke="none"/>
<line clip-path="url(#clipPath1)" fill="none" x1="1057" x2="1074" y1="272" y2="266" stroke-dasharray="none" stroke="rgb(0,0,139)"/>
<rect x="1072" y="264" clip-path="url(#clipPath1)" fill="rgb(0,0,139)" width="5" stroke-dasharray="none" height="5" stroke="none"/>
<line clip-path="url(#clipPath1)" fill="none" x1="1074" x2="1090" y1="266" y2="262" stroke-dasharray="none" stroke="rgb(0,0,139)"/>
<rect x="1088" y="260" clip-path="url(#clipPath1)" fill="rgb(0,0,139)" width="5" stroke-dasharray="none" height="5" stroke="none"/>
<line clip-path="url(#clipPath1)" fill="none" x1="1090" x2="1106" y1="262" y2="256" stroke-dasharray="none" stroke="rgb(0,0,139)"/>
<rect x="1104" y="254" clip-path="url(#clipPath1)" fill="rgb(0,0,139)" width="5" stroke-dasharray="none" height="5" stroke="none"/>
<line clip-path="url(#clipPath1)" fill="none" x1="1106" x2="1123" y1="256" y2="250" stroke-dasharray="none" stroke="rgb(0,0,139)"/>
<rect x="1121" y="248" clip-path="url(#clipPath1)" fill="rgb(0,0,139)" width="5" stroke-dasharray="none" height="5" stroke="none"/>
<line clip-path="url(#clipPath1)" fill="none" x1="1123" x2="1139" y1="250" y2="245" stroke-dasharray="none" stroke="rgb(0,0,139)"/>
<rect x="1137" y="243" clip-path="url(#clipPath1)" fill="rgb(0,0,139)" width="5" stroke-dasharray="none" height="5" stroke="none"/>
<line clip-path="url(#clipPath1)" fill="none" x1="1139" x2="1156" y1="245" y2="239" stroke-dasharray="none" stroke="rgb(0,0,139)"/>
<rect x="1154" y="237" clip-path="url(#clipPath1)" fill="rgb(0,0,139)" width="5" stroke-dasharray="none" height="5" stroke="none"/>
<line clip-path="url(#clipPath1)" fill="none" x1="1156" x2="1172" y1="239" y2="234" stroke-dasharray="none" stroke="rgb(0,0,139)"/>
<rect x="1170" y="232" clip-path="url(#clipPath1)" fill="rgb(0,0,139)" width="5" stroke-dasharray="none" height="5" stroke="none"/>
<line clip-path="url(#clipPath1)" fill="none" x1="1172" x2="1189" y1="234" y2="228" stroke-dasharray="none" stroke="rgb(0,0,139)"/>
<rect x="1187" y="226" clip-path="url(#clipPath1)" fill="rgb(0,0,139)" width="5" stroke-dasharray="none" height="5" stroke="none"/>
<line clip-path="url(#clipPath1)" fill="none" x1="1189" x2="1205" y1="228" y2="223" stroke-dasharray="none" stroke="rgb(0,0,139)"/>
<rect x="1203" y="221" clip-path="url(#clipPath1)" fill="rgb(0,0,139)" width="5" stroke-dasharray="none" height="5" stroke="none"/>
<line clip-path="url(#clipPath1)" fill="none" x1="1205" x2="1222" y1="223" y2="217" stroke-dasharray="none" stroke="rgb(0,0,139)"/>
<rect x="1220" y="215" clip-path="url(#clipPath1)" fill="rgb(0,0,139)" width="5" stroke-dasharray="none" height="5" stroke="none"/>
<line clip-path="url(#clipPath1)" fill="none" x1="1222" x2="1238" y1="217" y2="211" stroke-dasharray="none" stroke="rgb(0,0,139)"/>
<rect x="1236" y="209" clip-path="url(#clipPath1)" fill="rgb(0,0,139)" width="5" stroke-dasharray="none" height="5" stroke="none"/>
<line clip-path="url(#clipPath1)" fill="none" x1="1238" x2="1254" y1="211" y2="206" stroke-dasharray="none" stroke="rgb(0,0,139)"/>
<rect x="1252" y="204" clip-path="url(#clipPath1)" fill="rgb(0,0,139)" width="5" stroke-dasharray="none" height="5" stroke="none"/>
<line clip-path="url(#clipPath1)" fill="none" x1="1254" x2="1271" y1="206" y2="200" stroke-dasharray="none" stroke="rgb(0,0,139)"/>
<rect x="1269" y="198" clip-path="url(#clipPath1)" fill="rgb(0,0,139)" width="5" stroke-dasharray="none" height="5" stroke="none"/>
<line clip-path="url(#clipPath1)" fill="none" x1="1271" x2="1287" y1="200" y2="194" stroke-dasharray="none" stroke="rgb(0,0,139)"/>
<rect x="1285" y="192" clip-path="url(#clipPath1)" fill="rgb(0,0,139)" width="5" stroke-dasharray="none" height="5" stroke="none"/>
<line clip-path="url(#clipPath1)" fill="none" x1="1287" x2="1304" y1="194" y2="189" stroke-dasharray="none" stroke="rgb(0,0,139)"/>
<rect x="1302" y="187" clip-path="url(#clipPath1)" fill="rgb(0,0,139)" width="5" stroke-dasharray="none" height="5" stroke="none"/>
<line clip-path="url(#clipPath1)" fill="none" x1="1304" x2="1320" y1="189" y2="183" stroke-dasharray="none" stroke="rgb(0,0,139)"/>
<rect x="1318" y="181" clip-path="url(#clipPath1)" fill="rgb(0,0,139)" width="5" stroke-dasharray="none" height="5" stroke="none"/>
<line clip-path="url(#clipPath1)" fill="none" x1="1320" x2="1337" y1="183" y2="177" stroke-dasharray="none" stroke="rgb(0,0,139)"/>
<rect x="1335" y="175" clip-path="url(#clipPath1)" fill="rgb(0,0,139)" width="5" stroke-dasharray="none" height="5" stroke="none"/>
<line clip-path="url(#clipPath1)" fill="none" x1="1337" x2="1353" y1="177" y2="172" stroke-dasharray="none" stroke="rgb(0,0,139)"/>
<rect x="1351" y="170" clip-path="url(#clipPath1)" fill="rgb(0,0,139)" width="5" stroke-dasharray="none" height="5" stroke="none"/>
<rect x="38" y="24" clip-path="url(#clipPath2)" fill="none" width="1332" stroke-dasharray="none" height="593" stroke="black"/>
</g>
<g text-rendering="geometricPrecision" font-size="13" font-family="'Arial'" stroke-linecap="butt">
<line clip-path="url(#clipPath2)" fill="none" x1="38" x2="1370" y1="22" y2="22"/>
<line clip-path="url(#clipPath2)" fill="none" x1="38" x2="1370" y1="619" y2="619"/>
<line clip-path="url(#clipPath2)" fill="none" x1="38" x2="38" y1="18" y2="22"/>
<line clip-path="url(#clipPath2)" fill="none" x1="38" x2="38" y1="623" y2="619"/>
<text x="29" font-size="10" y="13" clip-path="url(#clipPath2)" stroke="none" xml:space="preserve">0.00</text>
<text x="29" font-size="10" y="634" clip-path="url(#clipPath2)" stroke="none" xml:space="preserve">0.00</text>
<line clip-path="url(#clipPath2)" fill="none" x1="54" x2="54" y1="20" y2="22"/>
<line clip-path="url(#clipPath2)" fill="none" x1="54" x2="54" y1="621" y2="619"/>
<line clip-path="url(#clipPath2)" fill="none" x1="70" x2="70" y1="20" y2="22"/>
<line clip-path="url(#clipPath2)" fill="none" x1="70" x2="70" y1="621" y2="619"/>
<line clip-path="url(#clipPath2)" fill="none" x1="87" x2="87" y1="20" y2="22"/>
<line clip-path="url(#clipPath2)" fill="none" x1="87" x2="87" y1="621" y2="619"/>
<line clip-path="url(#clipPath2)" fill="none" x1="103" x2="103" y1="20" y2="22"/>
<line clip-path="url(#clipPath2)" fill="none" x1="103" x2="103" y1="621" y2="619"/>
<line clip-path="url(#clipPath2)" fill="none" x1="120" x2="120" y1="18" y2="22"/>
<line clip-path="url(#clipPath2)" fill="none" x1="120" x2="120" y1="623" y2="619"/>
<text x="109" font-size="10" y="13" clip-path="url(#clipPath2)" stroke="none" xml:space="preserve">0.005</text>
<text x="109" font-size="10" y="634" clip-path="url(#clipPath2)" stroke="none" xml:space="preserve">0.005</text>
<line clip-path="url(#clipPath2)" fill="none" x1="136" x2="136" y1="20" y2="22"/>
<line clip-path="url(#clipPath2)" fill="none" x1="136" x2="136" y1="621" y2="619"/>
<line clip-path="url(#clipPath2)" fill="none" x1="153" x2="153" y1="20" y2="22"/>
<line clip-path="url(#clipPath2)" fill="none" x1="153" x2="153" y1="621" y2="619"/>
<line clip-path="url(#clipPath2)" fill="none" x1="169" x2="169" y1="20" y2="22"/>
<line clip-path="url(#clipPath2)" fill="none" x1="169" x2="169" y1="621" y2="619"/>
<line clip-path="url(#clipPath2)" fill="none" x1="186" x2="186" y1="20" y2="22"/>
<line clip-path="url(#clipPath2)" fill="none" x1="186" x2="186" y1="621" y2="619"/>
<line clip-path="url(#clipPath2)" fill="none" x1="202" x2="202" y1="18" y2="22"/>
<line clip-path="url(#clipPath2)" fill="none" x1="202" x2="202" y1="623" y2="619"/>
<text x="191" font-size="10" y="13" clip-path="url(#clipPath2)" stroke="none" xml:space="preserve">0.010</text>
<text x="191" font-size="10" y="634" clip-path="url(#clipPath2)" stroke="none" xml:space="preserve">0.010</text>
<line clip-path="url(#clipPath2)" fill="none" x1="218" x2="218" y1="20" y2="22"/>
<line clip-path="url(#clipPath2)" fill="none" x1="218" x2="218" y1="621" y2="619"/>
<line clip-path="url(#clipPath2)" fill="none" x1="235" x2="235" y1="20" y2="22"/>
<line clip-path="url(#clipPath2)" fill="none" x1="235" x2="235" y1="621" y2="619"/>
<line clip-path="url(#clipPath2)" fill="none" x1="251" x2="251" y1="20" y2="22"/>
<line clip-path="url(#clipPath2)" fill="none" x1="251" x2="251" y1="621" y2="619"/>
<line clip-path="url(#clipPath2)" fill="none" x1="268" x2="268" y1="20" y2="22"/>
<line clip-path="url(#clipPath2)" fill="none" x1="268" x2="268" y1="621" y2="619"/>
<line clip-path="url(#clipPath2)" fill="none" x1="284" x2="284" y1="18" y2="22"/>
<line clip-path="url(#clipPath2)" fill="none" x1="284" x2="284" y1="623" y2="619"/>
<text x="273" font-size="10" y="13" clip-path="url(#clipPath2)" stroke="none" xml:space="preserve">0.015</text>
<text x="273" font-size="10" y="634" clip-path="url(#clipPath2)" stroke="none" xml:space="preserve">0.015</text>
<line clip-path="url(#clipPath2)" fill="none" x1="301" x2="301" y1="20" y2="22"/>
<line clip-path="url(#clipPath2)" fill="none" x1="301" x2="301" y1="621" y2="619"/>
<line clip-path="url(#clipPath2)" fill="none" x1="317" x2="317" y1="20" y2="22"/>
<line clip-path="url(#clipPath2)" fill="none" x1="317" x2="317" y1="621" y2="619"/>
<line clip-path="url(#clipPath2)" fill="none" x1="334" x2="334" y1="20" y2="22"/>
<line clip-path="url(#clipPath2)" fill="none" x1="334" x2="334" y1="621" y2="619"/>
<line clip-path="url(#clipPath2)" fill="none" x1="350" x2="350" y1="20" y2="22"/>
<line clip-path="url(#clipPath2)" fill="none" x1="350" x2="350" y1="621" y2="619"/>
<line clip-path="url(#clipPath2)" fill="none" x1="366" x2="366" y1="18" y2="22"/>
<line clip-path="url(#clipPath2)" fill="none" x1="366" x2="366" y1="623" y2="619"/>
<text x="355" font-size="10" y="13" clip-path="url(#clipPath2)" stroke="none" xml:space="preserve">0.020</text>
<text x="355" font-size="10" y="634" clip-path="url(#clipPath2)" stroke="none" xml:space="preserve">0.020</text>
<line clip-path="url(#clipPath2)" fill="none" x1="383" x2="383" y1="20" y2="22"/>
<line clip-path="url(#clipPath2)" fill="none" x1="383" x2="383" y1="621" y2="619"/>
<line clip-path="url(#clipPath2)" fill="none" x1="399" x2="399" y1="20" y2="22"/>
<line clip-path="url(#clipPath2)" fill="none" x1="399" x2="399" y1="621" y2="619"/>
<line clip-path="url(#clipPath2)" fill="none" x1="416" x2="416" y1="20" y2="22"/>
<line clip-path="url(#clipPath2)" fill="none" x1="416" x2="416" y1="621" y2="619"/>
<line clip-path="url(#clipPath2)" fill="none" x1="432" x2="432" y1="20" y2="22"/>
<line clip-path="url(#clipPath2)" fill="none" x1="432" x2="432" y1="621" y2="619"/>
<line clip-path="url(#clipPath2)" fill="none" x1="449" x2="449" y1="18" y2="22"/>
<line clip-path="url(#clipPath2)" fill="none" x1="449" x2="449" y1="623" y2="619"/>
<text x="438" font-size="10" y="13" clip-path="url(#clipPath2)" stroke="none" xml:space="preserve">0.025</text>
<text x="438" font-size="10" y="634" clip-path="url(#clipPath2)" stroke="none" xml:space="preserve">0.025</text>
<line clip-path="url(#clipPath2)" fill="none" x1="465" x2="465" y1="20" y2="22"/>
<line clip-path="url(#clipPath2)" fill="none" x1="465" x2="465" y1="621" y2="619"/>
<line clip-path="url(#clipPath2)" fill="none" x1="482" x2="482" y1="20" y2="22"/>
<line clip-path="url(#clipPath2)" fill="none" x1="482" x2="482" y1="621" y2="619"/>
<line clip-path="url(#clipPath2)" fill="none" x1="498" x2="498" y1="20" y2="22"/>
<line clip-path="url(#clipPath2)" fill="none" x1="498" x2="498" y1="621" y2="619"/>
<line clip-path="url(#clipPath2)" fill="none" x1="514" x2="514" y1="20" y2="22"/>
<line clip-path="url(#clipPath2)" fill="none" x1="514" x2="514" y1="621" y2="619"/>
<line clip-path="url(#clipPath2)" fill="none" x1="531" x2="531" y1="18" y2="22"/>
<line clip-path="url(#clipPath2)" fill="none" x1="531" x2="531" y1="623" y2="619"/>
<text x="520" font-size="10" y="13" clip-path="url(#clipPath2)" stroke="none" xml:space="preserve">0.030</text>
<text x="520" font-size="10" y="634" clip-path="url(#clipPath2)" stroke="none" xml:space="preserve">0.030</text>
<line clip-path="url(#clipPath2)" fill="none" x1="547" x2="547" y1="20" y2="22"/>
<line clip-path="url(#clipPath2)" fill="none" x1="547" x2="547" y1="621" y2="619"/>
<line clip-path="url(#clipPath2)" fill="none" x1="564" x2="564" y1="20" y2="22"/>
<line clip-path="url(#clipPath2)" fill="none" x1="564" x2="564" y1="621" y2="619"/>
<line clip-path="url(#clipPath2)" fill="none" x1="580" x2="580" y1="20" y2="22"/>
<line clip-path="url(#clipPath2)" fill="none" x1="580" x2="580" y1="621" y2="619"/>
<line clip-path="url(#clipPath2)" fill="none" x1="597" x2="597" y1="20" y2="22"/>
<line clip-path="url(#clipPath2)" fill="none" x1="597" x2="597" y1="621" y2="619"/>
<line clip-path="url(#clipPath2)" fill="none" x1="613" x2="613" y1="18" y2="22"/>
<line clip-path="url(#clipPath2)" fill="none" x1="613" x2="613" y1="623" y2="619"/>
<text x="602" font-size="10" y="13" clip-path="url(#clipPath2)" stroke="none" xml:space="preserve">0.035</text>
<text x="602" font-size="10" y="634" clip-path="url(#clipPath2)" stroke="none" xml:space="preserve">0.035</text>
<line clip-path="url(#clipPath2)" fill="none" x1="630" x2="630" y1="20" y2="22"/>
<line clip-path="url(#clipPath2)" fill="none" x1="630" x2="630" y1="621" y2="619"/>
<line clip-path="url(#clipPath2)" fill="none" x1="646" x2="646" y1="20" y2="22"/>
<line clip-path="url(#clipPath2)" fill="none" x1="646" x2="646" y1="621" y2="619"/>
<line clip-path="url(#clipPath2)" fill="none" x1="662" x2="662" y1="20" y2="22"/>
<line clip-path="url(#clipPath2)" fill="none" x1="662" x2="662" y1="621" y2="619"/>
<line clip-path="url(#clipPath2)" fill="none" x1="679" x2="679" y1="20" y2="22"/>
<line clip-path="url(#clipPath2)" fill="none" x1="679" x2="679" y1="621" y2="619"/>
<line clip-path="url(#clipPath2)" fill="none" x1="695" x2="695" y1="18" y2="22"/>
<line clip-path="url(#clipPath2)" fill="none" x1="695" x2="695" y1="623" y2="619"/>
<text x="684" font-size="10" y="13" clip-path="url(#clipPath2)" stroke="none" xml:space="preserve">0.040</text>
<text x="684" font-size="10" y="634" clip-path="url(#clipPath2)" stroke="none" xml:space="preserve">0.040</text>
<line clip-path="url(#clipPath2)" fill="none" x1="712" x2="712" y1="20" y2="22"/>
<line clip-path="url(#clipPath2)" fill="none" x1="712" x2="712" y1="621" y2="619"/>
<line clip-path="url(#clipPath2)" fill="none" x1="728" x2="728" y1="20" y2="22"/>
<line clip-path="url(#clipPath2)" fill="none" x1="728" x2="728" y1="621" y2="619"/>
<line clip-path="url(#clipPath2)" fill="none" x1="745" x2="745" y1="20" y2="22"/>
<line clip-path="url(#clipPath2)" fill="none" x1="745" x2="745" y1="621" y2="619"/>
<line clip-path="url(#clipPath2)" fill="none" x1="761" x2="761" y1="20" y2="22"/>
<line clip-path="url(#clipPath2)" fill="none" x1="761" x2="761" y1="621" y2="619"/>
<line clip-path="url(#clipPath2)" fill="none" x1="778" x2="778" y1="18" y2="22"/>
<line clip-path="url(#clipPath2)" fill="none" x1="778" x2="778" y1="623" y2="619"/>
<text x="767" font-size="10" y="13" clip-path="url(#clipPath2)" stroke="none" xml:space="preserve">0.045</text>
<text x="767" font-size="10" y="634" clip-path="url(#clipPath2)" stroke="none" xml:space="preserve">0.045</text>
<line clip-path="url(#clipPath2)" fill="none" x1="794" x2="794" y1="20" y2="22"/>
<line clip-path="url(#clipPath2)" fill="none" x1="794" x2="794" y1="621" y2="619"/>
<line clip-path="url(#clipPath2)" fill="none" x1="810" x2="810" y1="20" y2="22"/>
<line clip-path="url(#clipPath2)" fill="none" x1="810" x2="810" y1="621" y2="619"/>
<line clip-path="url(#clipPath2)" fill="none" x1="827" x2="827" y1="20" y2="22"/>
<line clip-path="url(#clipPath2)" fill="none" x1="827" x2="827" y1="621" y2="619"/>
<line clip-path="url(#clipPath2)" fill="none" x1="843" x2="843" y1="20" y2="22"/>
<line clip-path="url(#clipPath2)" fill="none" x1="843" x2="843" y1="621" y2="619"/>
<line clip-path="url(#clipPath2)" fill="none" x1="860" x2="860" y1="18" y2="22"/>
<line clip-path="url(#clipPath2)" fill="none" x1="860" x2="860" y1="623" y2="619"/>
<text x="849" font-size="10" y="13" clip-path="url(#clipPath2)" stroke="none" xml:space="preserve">0.050</text>
<text x="849" font-size="10" y="634" clip-path="url(#clipPath2)" stroke="none" xml:space="preserve">0.050</text>
<line clip-path="url(#clipPath2)" fill="none" x1="876" x2="876" y1="20" y2="22"/>
<line clip-path="url(#clipPath2)" fill="none" x1="876" x2="876" y1="621" y2="619"/>
<line clip-path="url(#clipPath2)" fill="none" x1="893" x2="893" y1="20" y2="22"/>
<line clip-path="url(#clipPath2)" fill="none" x1="893" x2="893" y1="621" y2="619"/>
<line clip-path="url(#clipPath2)" fill="none" x1="909" x2="909" y1="20" y2="22"/>
<line clip-path="url(#clipPath2)" fill="none" x1="909" x2="909" y1="621" y2="619"/>
<line clip-path="url(#clipPath2)" fill="none" x1="926" x2="926" y1="20" y2="22"/>
<line clip-path="url(#clipPath2)" fill="none" x1="926" x2="926" y1="621" y2="619"/>
<line clip-path="url(#clipPath2)" fill="none" x1="942" x2="942" y1="18" y2="22"/>
<line clip-path="url(#clipPath2)" fill="none" x1="942" x2="942" y1="623" y2="619"/>
<text x="931" font-size="10" y="13" clip-path="url(#clipPath2)" stroke="none" xml:space="preserve">0.055</text>
<text x="931" font-size="10" y="634" clip-path="url(#clipPath2)" stroke="none" xml:space="preserve">0.055</text>
<line clip-path="url(#clipPath2)" fill="none" x1="958" x2="958" y1="20" y2="22"/>
<line clip-path="url(#clipPath2)" fill="none" x1="958" x2="958" y1="621" y2="619"/>
<line clip-path="url(#clipPath2)" fill="none" x1="975" x2="975" y1="20" y2="22"/>
<line clip-path="url(#clipPath2)" fill="none" x1="975" x2="975" y1="621" y2="619"/>
<line clip-path="url(#clipPath2)" fill="none" x1="991" x2="991" y1="20" y2="22"/>
<line clip-path="url(#clipPath2)" fill="none" x1="991" x2="991" y1="621" y2="619"/>
<line clip-path="url(#clipPath2)" fill="none" x1="1008" x2="1008" y1="20" y2="22"/>
<line clip-path="url(#clipPath2)" fill="none" x1="1008" x2="1008" y1="621" y2="619"/>
<line clip-path="url(#clipPath2)" fill="none" x1="1024" x2="1024" y1="18" y2="22"/>
<line clip-path="url(#clipPath2)" fill="none" x1="1024" x2="1024" y1="623" y2="619"/>
<text x="1013" font-size="10" y="13" clip-path="url(#clipPath2)" stroke="none" xml:space="preserve">0.060</text>
<text x="1013" font-size="10" y="634" clip-path="url(#clipPath2)" stroke="none" xml:space="preserve">0.060</text>
<line clip-path="url(#clipPath2)" fill="none" x1="1041" x2="1041" y1="20" y2="22"/>
<line clip-path="url(#clipPath2)" fill="none" x1="1041" x2="1041" y1="621" y2="619"/>
<line clip-path="url(#clipPath2)" fill="none" x1="1057" x2="1057" y1="20" y2="22"/>
<line clip-path="url(#clipPath2)" fill="none" x1="1057" x2="1057" y1="621" y2="619"/>
<line clip-path="url(#clipPath2)" fill="none" x1="1074" x2="1074" y1="20" y2="22"/>
<line clip-path="url(#clipPath2)" fill="none" x1="1074" x2="1074" y1="621" y2="619"/>
<line clip-path="url(#clipPath2)" fill="none" x1="1090" x2="1090" y1="20" y2="22"/>
<line clip-path="url(#clipPath2)" fill="none" x1="1090" x2="1090" y1="621" y2="619"/>
<line clip-path="url(#clipPath2)" fill="none" x1="1106" x2="1106" y1="18" y2="22"/>
<line clip-path="url(#clipPath2)" fill="none" x1="1106" x2="1106" y1="623" y2="619"/>
<text x="1095" font-size="10" y="13" clip-path="url(#clipPath2)" stroke="none" xml:space="preserve">0.065</text>
<text x="1095" font-size="10" y="634" clip-path="url(#clipPath2)" stroke="none" xml:space="preserve">0.065</text>
<line clip-path="url(#clipPath2)" fill="none" x1="1123" x2="1123" y1="20" y2="22"/>
<line clip-path="url(#clipPath2)" fill="none" x1="1123" x2="1123" y1="621" y2="619"/>
<line clip-path="url(#clipPath2)" fill="none" x1="1139" x2="1139" y1="20" y2="22"/>
<line clip-path="url(#clipPath2)" fill="none" x1="1139" x2="1139" y1="621" y2="619"/>
<line clip-path="url(#clipPath2)" fill="none" x1="1156" x2="1156" y1="20" y2="22"/>
<line clip-path="url(#clipPath2)" fill="none" x1="1156" x2="1156" y1="621" y2="619"/>
<line clip-path="url(#clipPath2)" fill="none" x1="1172" x2="1172" y1="20" y2="22"/>
<line clip-path="url(#clipPath2)" fill="none" x1="1172" x2="1172" y1="621" y2="619"/>
<line clip-path="url(#clipPath2)" fill="none" x1="1189" x2="1189" y1="18" y2="22"/>
<line clip-path="url(#clipPath2)" fill="none" x1="1189" x2="1189" y1="623" y2="619"/>
<text x="1178" font-size="10" y="13" clip-path="url(#clipPath2)" stroke="none" xml:space="preserve">0.070</text>
<text x="1178" font-size="10" y="634" clip-path="url(#clipPath2)" stroke="none" xml:space="preserve">0.070</text>
<line clip-path="url(#clipPath2)" fill="none" x1="1205" x2="1205" y1="20" y2="22"/>
<line clip-path="url(#clipPath2)" fill="none" x1="1205" x2="1205" y1="621" y2="619"/>
<line clip-path="url(#clipPath2)" fill="none" x1="1222" x2="1222" y1="20" y2="22"/>
<line clip-path="url(#clipPath2)" fill="none" x1="1222" x2="1222" y1="621" y2="619"/>
<line clip-path="url(#clipPath2)" fill="none" x1="1238" x2="1238" y1="20" y2="22"/>
<line clip-path="url(#clipPath2)" fill="none" x1="1238" x2="1238" y1="621" y2="619"/>
<line clip-path="url(#clipPath2)" fill="none" x1="1254" x2="1254" y1="20" y2="22"/>
<line clip-path="url(#clipPath2)" fill="none" x1="1254" x2="1254" y1="621" y2="619"/>
<line clip-path="url(#clipPath2)" fill="none" x1="1271" x2="1271" y1="18" y2="22"/>
<line clip-path="url(#clipPath2)" fill="none" x1="1271" x2="1271" y1="623" y2="619"/>
<text x="1260" font-size="10" y="13" clip-path="url(#clipPath2)" stroke="none" xml:space="preserve">0.075</text>
<text x="1260" font-size="10" y="634" clip-path="url(#clipPath2)" stroke="none" xml:space="preserve">0.075</text>
<line clip-path="url(#clipPath2)" fill="none" x1="1287" x2="1287" y1="20" y2="22"/>
<line clip-path="url(#clipPath2)" fill="none" x1="1287" x2="1287" y1="621" y2="619"/>
<line clip-path="url(#clipPath2)" fill="none" x1="1304" x2="1304" y1="20" y2="22"/>
<line clip-path="url(#clipPath2)" fill="none" x1="1304" x2="1304" y1="621" y2="619"/>
<line clip-path="url(#clipPath2)" fill="none" x1="1320" x2="1320" y1="20" y2="22"/>
<line clip-path="url(#clipPath2)" fill="none" x1="1320" x2="1320" y1="621" y2="619"/>
<line clip-path="url(#clipPath2)" fill="none" x1="1337" x2="1337" y1="20" y2="22"/>
<line clip-path="url(#clipPath2)" fill="none" x1="1337" x2="1337" y1="621" y2="619"/>
<line clip-path="url(#clipPath2)" fill="none" x1="1353" x2="1353" y1="18" y2="22"/>
<line clip-path="url(#clipPath2)" fill="none" x1="1353" x2="1353" y1="623" y2="619"/>
<text x="1342" font-size="10" y="13" clip-path="url(#clipPath2)" stroke="none" xml:space="preserve">0.080</text>
<text x="1342" font-size="10" y="634" clip-path="url(#clipPath2)" stroke="none" xml:space="preserve">0.080</text>
<line clip-path="url(#clipPath2)" fill="none" x1="1370" x2="1370" y1="20" y2="22"/>
<line clip-path="url(#clipPath2)" fill="none" x1="1370" x2="1370" y1="621" y2="619"/>
<line clip-path="url(#clipPath2)" fill="none" x1="36" x2="36" y1="24" y2="617"/>
<line clip-path="url(#clipPath2)" fill="none" x1="1372" x2="1372" y1="24" y2="617"/>
<line clip-path="url(#clipPath2)" fill="none" x1="32" x2="36" y1="617" y2="617"/>
<line clip-path="url(#clipPath2)" fill="none" x1="1376" x2="1372" y1="617" y2="617"/>
<text x="26" font-size="10" y="620" clip-path="url(#clipPath2)" stroke="none" xml:space="preserve">0</text>
<text x="1379" font-size="10" y="620" clip-path="url(#clipPath2)" stroke="none" xml:space="preserve">0</text>
<line clip-path="url(#clipPath2)" fill="none" x1="34" x2="36" y1="569" y2="569"/>
<line clip-path="url(#clipPath2)" fill="none" x1="1374" x2="1372" y1="569" y2="569"/>
<line clip-path="url(#clipPath2)" fill="none" x1="32" x2="36" y1="522" y2="522"/>
<line clip-path="url(#clipPath2)" fill="none" x1="1376" x2="1372" y1="522" y2="522"/>
<text x="16" font-size="10" y="525" clip-path="url(#clipPath2)" stroke="none" xml:space="preserve">200</text>
<text x="1379" font-size="10" y="525" clip-path="url(#clipPath2)" stroke="none" xml:space="preserve">200</text>
<line clip-path="url(#clipPath2)" fill="none" x1="34" x2="36" y1="474" y2="474"/>
<line clip-path="url(#clipPath2)" fill="none" x1="1374" x2="1372" y1="474" y2="474"/>
<line clip-path="url(#clipPath2)" fill="none" x1="32" x2="36" y1="427" y2="427"/>
<line clip-path="url(#clipPath2)" fill="none" x1="1376" x2="1372" y1="427" y2="427"/>
<text x="16" font-size="10" y="430" clip-path="url(#clipPath2)" stroke="none" xml:space="preserve">400</text>
<text x="1379" font-size="10" y="430" clip-path="url(#clipPath2)" stroke="none" xml:space="preserve">400</text>
<line clip-path="url(#clipPath2)" fill="none" x1="34" x2="36" y1="380" y2="380"/>
<line clip-path="url(#clipPath2)" fill="none" x1="1374" x2="1372" y1="380" y2="380"/>
<line clip-path="url(#clipPath2)" fill="none" x1="32" x2="36" y1="332" y2="332"/>
<line clip-path="url(#clipPath2)" fill="none" x1="1376" x2="1372" y1="332" y2="332"/>
<text x="16" font-size="10" y="335" clip-path="url(#clipPath2)" stroke="none" xml:space="preserve">600</text>
<text x="1379" font-size="10" y="335" clip-path="url(#clipPath2)" stroke="none" xml:space="preserve">600</text>
<line clip-path="url(#clipPath2)" fill="none" x1="34" x2="36" y1="285" y2="285"/>
<line clip-path="url(#clipPath2)" fill="none" x1="1374" x2="1372" y1="285" y2="285"/>
<line clip-path="url(#clipPath2)" fill="none" x1="32" x2="36" y1="238" y2="238"/>
<line clip-path="url(#clipPath2)" fill="none" x1="1376" x2="1372" y1="238" y2="238"/>
<text x="16" font-size="10" y="241" clip-path="url(#clipPath2)" stroke="none" xml:space="preserve">800</text>
<text x="1379" font-size="10" y="241" clip-path="url(#clipPath2)" stroke="none" xml:space="preserve">800</text>
<line clip-path="url(#clipPath2)" fill="none" x1="34" x2="36" y1="190" y2="190"/>
<line clip-path="url(#clipPath2)" fill="none" x1="1374" x2="1372" y1="190" y2="190"/>
<line clip-path="url(#clipPath2)" fill="none" x1="32" x2="36" y1="143" y2="143"/>
<line clip-path="url(#clipPath2)" fill="none" x1="1376" x2="1372" y1="143" y2="143"/>
<text x="11" font-size="10" y="146" clip-path="url(#clipPath2)" stroke="none" xml:space="preserve">1000</text>
<text x="1379" font-size="10" y="146" clip-path="url(#clipPath2)" stroke="none" xml:space="preserve">1000</text>
<line clip-path="url(#clipPath2)" fill="none" x1="34" x2="36" y1="95" y2="95"/>
<line clip-path="url(#clipPath2)" fill="none" x1="1374" x2="1372" y1="95" y2="95"/>
<line clip-path="url(#clipPath2)" fill="none" x1="32" x2="36" y1="48" y2="48"/>
<line clip-path="url(#clipPath2)" fill="none" x1="1376" x2="1372" y1="48" y2="48"/>
<text x="11" font-size="10" y="51" clip-path="url(#clipPath2)" stroke="none" xml:space="preserve">1200</text>
<text x="1379" font-size="10" y="51" clip-path="url(#clipPath2)" stroke="none" xml:space="preserve">1200</text>
</g>
</g>
</svg>
