<?xml version="1.0" encoding="UTF-8"?><svg xmlns="http://www.w3.org/2000/svg" xmlns:xlink="http://www.w3.org/1999/xlink" stroke-dasharray="none" shape-rendering="auto" font-family="'Dialog'" width="1408" text-rendering="auto" fill-opacity="1" contentScriptType="text/ecmascript" color-interpolation="auto" color-rendering="auto" preserveAspectRatio="xMidYMid meet" font-size="12" fill="black" stroke="black" image-rendering="auto" stroke-miterlimit="10" zoomAndPan="magnify" version="1.0" stroke-linecap="square" stroke-linejoin="miter" contentStyleType="text/css" font-style="normal" height="641" stroke-width="1" stroke-dashoffset="0" font-weight="normal" stroke-opacity="1">
<!--Generated by the Batik Graphics2D SVG Generator-->
<defs id="genericDefs"/>
<g>
<defs id="defs1">
<clipPath clipPathUnits="userSpaceOnUse" id="clipPath1">
<path d="M53 39 L1371 39 L1371 602 L53 602 L53 39 Z"/>
</clipPath>
<clipPath clipPathUnits="userSpaceOnUse" id="clipPath2">
<path d="M-1 -1 L1409 -1 L1409 642 L-1 642 L-1 -1 Z"/>
</clipPath>
</defs>
<g fill="white" text-rendering="geometricPrecision" font-family="'Segoe UI'" stroke-linejoin="round" stroke="white" stroke-width="0" stroke-miterlimit="0">
<rect x="54" y="40" clip-path="url(#clipPath1)" width="1316" height="561" stroke="none"/>
</g>
<g stroke-linecap="butt" fill="rgb(204,204,204)" text-rendering="geometricPrecision" font-family="'Segoe UI'" stroke-dasharray="3,3" stroke="rgb(204,204,204)">
<line clip-path="url(#clipPath1)" fill="none" x1="54" x2="54" y1="40" y2="601"/>
<line clip-path="url(#clipPath1)" fill="none" x1="139" x2="139" y1="40" y2="601"/>
<line clip-path="url(#clipPath1)" fill="none" x1="225" x2="225" y1="40" y2="601"/>
<line clip-path="url(#clipPath1)" fill="none" x1="310" x2="310" y1="40" y2="601"/>
<line clip-path="url(#clipPath1)" fill="none" x1="396" x2="396" y1="40" y2="601"/>
<line clip-path="url(#clipPath1)" fill="none" x1="481" x2="481" y1="40" y2="601"/>
<line clip-path="url(#clipPath1)" fill="none" x1="567" x2="567" y1="40" y2="601"/>
<line clip-path="url(#clipPath1)" fill="none" x1="652" x2="652" y1="40" y2="601"/>
<line clip-path="url(#clipPath1)" fill="none" x1="738" x2="738" y1="40" y2="601"/>
<line clip-path="url(#clipPath1)" fill="none" x1="823" x2="823" y1="40" y2="601"/>
<line clip-path="url(#clipPath1)" fill="none" x1="909" x2="909" y1="40" y2="601"/>
<line clip-path="url(#clipPath1)" fill="none" x1="994" x2="994" y1="40" y2="601"/>
<line clip-path="url(#clipPath1)" fill="none" x1="1080" x2="1080" y1="40" y2="601"/>
<line clip-path="url(#clipPath1)" fill="none" x1="1165" x2="1165" y1="40" y2="601"/>
<line clip-path="url(#clipPath1)" fill="none" x1="1251" x2="1251" y1="40" y2="601"/>
<line clip-path="url(#clipPath1)" fill="none" x1="1336" x2="1336" y1="40" y2="601"/>
<line clip-path="url(#clipPath1)" fill="none" x1="54" x2="1370" y1="601" y2="601"/>
<line clip-path="url(#clipPath1)" fill="none" x1="54" x2="1370" y1="506" y2="506"/>
<line clip-path="url(#clipPath1)" fill="none" x1="54" x2="1370" y1="412" y2="412"/>
<line clip-path="url(#clipPath1)" fill="none" x1="54" x2="1370" y1="317" y2="317"/>
<line clip-path="url(#clipPath1)" fill="none" x1="54" x2="1370" y1="223" y2="223"/>
<line clip-path="url(#clipPath1)" fill="none" x1="54" x2="1370" y1="128" y2="128"/>
<rect x="69" y="596" clip-path="url(#clipPath1)" fill="rgb(0,0,139)" width="5" height="5" stroke="none"/>
<line clip-path="url(#clipPath1)" fill="none" x1="71" x2="88" y1="598" y2="591" stroke-dasharray="none" stroke="rgb(0,0,139)"/>
<rect x="86" y="589" clip-path="url(#clipPath1)" fill="rgb(0,0,139)" width="5" stroke-dasharray="none" height="5" stroke="none"/>
<line clip-path="url(#clipPath1)" fill="none" x1="88" x2="105" y1="591" y2="586" stroke-dasharray="none" stroke="rgb(0,0,139)"/>
<rect x="103" y="584" clip-path="url(#clipPath1)" fill="rgb(0,0,139)" width="5" stroke-dasharray="none" height="5" stroke="none"/>
<line clip-path="url(#clipPath1)" fill="none" x1="105" x2="122" y1="586" y2="581" stroke-dasharray="none" stroke="rgb(0,0,139)"/>
<rect x="120" y="579" clip-path="url(#clipPath1)" fill="rgb(0,0,139)" width="5" stroke-dasharray="none" height="5" stroke="none"/>
<line clip-path="url(#clipPath1)" fill="none" x1="122" x2="139" y1="581" y2="576" stroke-dasharray="none" stroke="rgb(0,0,139)"/>
<rect x="137" y="574" clip-path="url(#clipPath1)" fill="rgb(0,0,139)" width="5" stroke-dasharray="none" height="5" stroke="none"/>
<line clip-path="url(#clipPath1)" fill="none" x1="139" x2="156" y1="576" y2="569" stroke-dasharray="none" stroke="rgb(0,0,139)"/>
<rect x="154" y="567" clip-path="url(#clipPath1)" fill="rgb(0,0,139)" width="5" stroke-dasharray="none" height="5" stroke="none"/>
<line clip-path="url(#clipPath1)" fill="none" x1="156" x2="173" y1="569" y2="564" stroke-dasharray="none" stroke="rgb(0,0,139)"/>
<rect x="171" y="562" clip-path="url(#clipPath1)" fill="rgb(0,0,139)" width="5" stroke-dasharray="none" height="5" stroke="none"/>
<line clip-path="url(#clipPath1)" fill="none" x1="173" x2="190" y1="564" y2="559" stroke-dasharray="none" stroke="rgb(0,0,139)"/>
<rect x="188" y="557" clip-path="url(#clipPath1)" fill="rgb(0,0,139)" width="5" stroke-dasharray="none" height="5" stroke="none"/>
<line clip-path="url(#clipPath1)" fill="none" x1="190" x2="207" y1="559" y2="552" stroke-dasharray="none" stroke="rgb(0,0,139)"/>
<rect x="205" y="550" clip-path="url(#clipPath1)" fill="rgb(0,0,139)" width="5" stroke-dasharray="none" height="5" stroke="none"/>
<line clip-path="url(#clipPath1)" fill="none" x1="207" x2="225" y1="552" y2="547" stroke-dasharray="none" stroke="rgb(0,0,139)"/>
<rect x="223" y="545" clip-path="url(#clipPath1)" fill="rgb(0,0,139)" width="5" stroke-dasharray="none" height="5" stroke="none"/>
<line clip-path="url(#clipPath1)" fill="none" x1="225" x2="242" y1="547" y2="541" stroke-dasharray="none" stroke="rgb(0,0,139)"/>
<rect x="240" y="539" clip-path="url(#clipPath1)" fill="rgb(0,0,139)" width="5" stroke-dasharray="none" height="5" stroke="none"/>
<line clip-path="url(#clipPath1)" fill="none" x1="242" x2="259" y1="541" y2="536" stroke-dasharray="none" stroke="rgb(0,0,139)"/>
<rect x="257" y="534" clip-path="url(#clipPath1)" fill="rgb(0,0,139)" width="5" stroke-dasharray="none" height="5" stroke="none"/>
<line clip-path="url(#clipPath1)" fill="none" x1="259" x2="276" y1="536" y2="530" stroke-dasharray="none" stroke="rgb(0,0,139)"/>
<rect x="274" y="528" clip-path="url(#clipPath1)" fill="rgb(0,0,139)" width="5" stroke-dasharray="none" height="5" stroke="none"/>
<line clip-path="url(#clipPath1)" fill="none" x1="276" x2="293" y1="530" y2="525" stroke-dasharray="none" stroke="rgb(0,0,139)"/>
<rect x="291" y="523" clip-path="url(#clipPath1)" fill="rgb(0,0,139)" width="5" stroke-dasharray="none" height="5" stroke="none"/>
<line clip-path="url(#clipPath1)" fill="none" x1="293" x2="310" y1="525" y2="521" stroke-dasharray="none" stroke="rgb(0,0,139)"/>
<rect x="308" y="519" clip-path="url(#clipPath1)" fill="rgb(0,0,139)" width="5" stroke-dasharray="none" height="5" stroke="none"/>
<line clip-path="url(#clipPath1)" fill="none" x1="310" x2="327" y1="521" y2="514" stroke-dasharray="none" stroke="rgb(0,0,139)"/>
<rect x="325" y="512" clip-path="url(#clipPath1)" fill="rgb(0,0,139)" width="5" stroke-dasharray="none" height="5" stroke="none"/>
<line clip-path="url(#clipPath1)" fill="none" x1="327" x2="344" y1="514" y2="507" stroke-dasharray="none" stroke="rgb(0,0,139)"/>
<rect x="342" y="505" clip-path="url(#clipPath1)" fill="rgb(0,0,139)" width="5" stroke-dasharray="none" height="5" stroke="none"/>
<line clip-path="url(#clipPath1)" fill="none" x1="344" x2="361" y1="507" y2="503" stroke-dasharray="none" stroke="rgb(0,0,139)"/>
<rect x="359" y="501" clip-path="url(#clipPath1)" fill="rgb(0,0,139)" width="5" stroke-dasharray="none" height="5" stroke="none"/>
<line clip-path="url(#clipPath1)" fill="none" x1="361" x2="378" y1="503" y2="497" stroke-dasharray="none" stroke="rgb(0,0,139)"/>
<rect x="376" y="495" clip-path="url(#clipPath1)" fill="rgb(0,0,139)" width="5" stroke-dasharray="none" height="5" stroke="none"/>
<line clip-path="url(#clipPath1)" fill="none" x1="378" x2="396" y1="497" y2="491" stroke-dasharray="none" stroke="rgb(0,0,139)"/>
<rect x="394" y="489" clip-path="url(#clipPath1)" fill="rgb(0,0,139)" width="5" stroke-dasharray="none" height="5" stroke="none"/>
<line clip-path="url(#clipPath1)" fill="none" x1="396" x2="413" y1="491" y2="486" stroke-dasharray="none" stroke="rgb(0,0,139)"/>
<rect x="411" y="484" clip-path="url(#clipPath1)" fill="rgb(0,0,139)" width="5" stroke-dasharray="none" height="5" stroke="none"/>
<line clip-path="url(#clipPath1)" fill="none" x1="413" x2="430" y1="486" y2="480" stroke-dasharray="none" stroke="rgb(0,0,139)"/>
<rect x="428" y="478" clip-path="url(#clipPath1)" fill="rgb(0,0,139)" width="5" stroke-dasharray="none" height="5" stroke="none"/>
<line clip-path="url(#clipPath1)" fill="none" x1="430" x2="447" y1="480" y2="475" stroke-dasharray="none" stroke="rgb(0,0,139)"/>
<rect x="445" y="473" clip-path="url(#clipPath1)" fill="rgb(0,0,139)" width="5" stroke-dasharray="none" height="5" stroke="none"/>
<line clip-path="url(#clipPath1)" fill="none" x1="447" x2="464" y1="475" y2="469" stroke-dasharray="none" stroke="rgb(0,0,139)"/>
<rect x="462" y="467" clip-path="url(#clipPath1)" fill="rgb(0,0,139)" width="5" stroke-dasharray="none" height="5" stroke="none"/>
<line clip-path="url(#clipPath1)" fill="none" x1="464" x2="481" y1="469" y2="464" stroke-dasharray="none" stroke="rgb(0,0,139)"/>
<rect x="479" y="462" clip-path="url(#clipPath1)" fill="rgb(0,0,139)" width="5" stroke-dasharray="none" height="5" stroke="none"/>
<line clip-path="url(#clipPath1)" fill="none" x1="481" x2="498" y1="464" y2="457" stroke-dasharray="none" stroke="rgb(0,0,139)"/>
<rect x="496" y="455" clip-path="url(#clipPath1)" fill="rgb(0,0,139)" width="5" stroke-dasharray="none" height="5" stroke="none"/>
<line clip-path="url(#clipPath1)" fill="none" x1="498" x2="515" y1="457" y2="453" stroke-dasharray="none" stroke="rgb(0,0,139)"/>
<rect x="513" y="451" clip-path="url(#clipPath1)" fill="rgb(0,0,139)" width="5" stroke-dasharray="none" height="5" stroke="none"/>
<line clip-path="url(#clipPath1)" fill="none" x1="515" x2="532" y1="453" y2="448" stroke-dasharray="none" stroke="rgb(0,0,139)"/>
<rect x="530" y="446" clip-path="url(#clipPath1)" fill="rgb(0,0,139)" width="5" stroke-dasharray="none" height="5" stroke="none"/>
<line clip-path="url(#clipPath1)" fill="none" x1="532" x2="549" y1="448" y2="441" stroke-dasharray="none" stroke="rgb(0,0,139)"/>
<rect x="547" y="439" clip-path="url(#clipPath1)" fill="rgb(0,0,139)" width="5" stroke-dasharray="none" height="5" stroke="none"/>
<line clip-path="url(#clipPath1)" fill="none" x1="549" x2="567" y1="441" y2="436" stroke-dasharray="none" stroke="rgb(0,0,139)"/>
<rect x="565" y="434" clip-path="url(#clipPath1)" fill="rgb(0,0,139)" width="5" stroke-dasharray="none" height="5" stroke="none"/>
<line clip-path="url(#clipPath1)" fill="none" x1="567" x2="584" y1="436" y2="430" stroke-dasharray="none" stroke="rgb(0,0,139)"/>
<rect x="582" y="428" clip-path="url(#clipPath1)" fill="rgb(0,0,139)" width="5" stroke-dasharray="none" height="5" stroke="none"/>
<line clip-path="url(#clipPath1)" fill="none" x1="584" x2="601" y1="430" y2="425" stroke-dasharray="none" stroke="rgb(0,0,139)"/>
<rect x="599" y="423" clip-path="url(#clipPath1)" fill="rgb(0,0,139)" width="5" stroke-dasharray="none" height="5" stroke="none"/>
<line clip-path="url(#clipPath1)" fill="none" x1="601" x2="618" y1="425" y2="419" stroke-dasharray="none" stroke="rgb(0,0,139)"/>
<rect x="616" y="417" clip-path="url(#clipPath1)" fill="rgb(0,0,139)" width="5" stroke-dasharray="none" height="5" stroke="none"/>
<line clip-path="url(#clipPath1)" fill="none" x1="618" x2="635" y1="419" y2="414" stroke-dasharray="none" stroke="rgb(0,0,139)"/>
<rect x="633" y="412" clip-path="url(#clipPath1)" fill="rgb(0,0,139)" width="5" stroke-dasharray="none" height="5" stroke="none"/>
<line clip-path="url(#clipPath1)" fill="none" x1="635" x2="652" y1="414" y2="408" stroke-dasharray="none" stroke="rgb(0,0,139)"/>
<rect x="650" y="406" clip-path="url(#clipPath1)" fill="rgb(0,0,139)" width="5" stroke-dasharray="none" height="5" stroke="none"/>
<line clip-path="url(#clipPath1)" fill="none" x1="652" x2="669" y1="408" y2="402" stroke-dasharray="none" stroke="rgb(0,0,139)"/>
<rect x="667" y="400" clip-path="url(#clipPath1)" fill="rgb(0,0,139)" width="5" stroke-dasharray="none" height="5" stroke="none"/>
<line clip-path="url(#clipPath1)" fill="none" x1="669" x2="686" y1="402" y2="397" stroke-dasharray="none" stroke="rgb(0,0,139)"/>
<rect x="684" y="395" clip-path="url(#clipPath1)" fill="rgb(0,0,139)" width="5" stroke-dasharray="none" height="5" stroke="none"/>
<line clip-path="url(#clipPath1)" fill="none" x1="686" x2="703" y1="397" y2="391" stroke-dasharray="none" stroke="rgb(0,0,139)"/>
<rect x="701" y="389" clip-path="url(#clipPath1)" fill="rgb(0,0,139)" width="5" stroke-dasharray="none" height="5" stroke="none"/>
<line clip-path="url(#clipPath1)" fill="none" x1="703" x2="720" y1="391" y2="386" stroke-dasharray="none" stroke="rgb(0,0,139)"/>
<rect x="718" y="384" clip-path="url(#clipPath1)" fill="rgb(0,0,139)" width="5" stroke-dasharray="none" height="5" stroke="none"/>
<line clip-path="url(#clipPath1)" fill="none" x1="720" x2="738" y1="386" y2="380" stroke-dasharray="none" stroke="rgb(0,0,139)"/>
<rect x="736" y="378" clip-path="url(#clipPath1)" fill="rgb(0,0,139)" width="5" stroke-dasharray="none" height="5" stroke="none"/>
<line clip-path="url(#clipPath1)" fill="none" x1="738" x2="755" y1="380" y2="374" stroke-dasharray="none" stroke="rgb(0,0,139)"/>
<rect x="753" y="372" clip-path="url(#clipPath1)" fill="rgb(0,0,139)" width="5" stroke-dasharray="none" height="5" stroke="none"/>
<line clip-path="url(#clipPath1)" fill="none" x1="755" x2="772" y1="374" y2="370" stroke-dasharray="none" stroke="rgb(0,0,139)"/>
<rect x="770" y="368" clip-path="url(#clipPath1)" fill="rgb(0,0,139)" width="5" stroke-dasharray="none" height="5" stroke="none"/>
<line clip-path="url(#clipPath1)" fill="none" x1="772" x2="789" y1="370" y2="363" stroke-dasharray="none" stroke="rgb(0,0,139)"/>
<rect x="787" y="361" clip-path="url(#clipPath1)" fill="rgb(0,0,139)" width="5" stroke-dasharray="none" height="5" stroke="none"/>
<line clip-path="url(#clipPath1)" fill="none" x1="789" x2="806" y1="363" y2="357" stroke-dasharray="none" stroke="rgb(0,0,139)"/>
<rect x="804" y="355" clip-path="url(#clipPath1)" fill="rgb(0,0,139)" width="5" stroke-dasharray="none" height="5" stroke="none"/>
<line clip-path="url(#clipPath1)" fill="none" x1="806" x2="823" y1="357" y2="353" stroke-dasharray="none" stroke="rgb(0,0,139)"/>
<rect x="821" y="351" clip-path="url(#clipPath1)" fill="rgb(0,0,139)" width="5" stroke-dasharray="none" height="5" stroke="none"/>
<line clip-path="url(#clipPath1)" fill="none" x1="823" x2="840" y1="353" y2="347" stroke-dasharray="none" stroke="rgb(0,0,139)"/>
<rect x="838" y="345" clip-path="url(#clipPath1)" fill="rgb(0,0,139)" width="5" stroke-dasharray="none" height="5" stroke="none"/>
<line clip-path="url(#clipPath1)" fill="none" x1="840" x2="857" y1="347" y2="341" stroke-dasharray="none" stroke="rgb(0,0,139)"/>
<rect x="855" y="339" clip-path="url(#clipPath1)" fill="rgb(0,0,139)" width="5" stroke-dasharray="none" height="5" stroke="none"/>
<line clip-path="url(#clipPath1)" fill="none" x1="857" x2="874" y1="341" y2="335" stroke-dasharray="none" stroke="rgb(0,0,139)"/>
<rect x="872" y="333" clip-path="url(#clipPath1)" fill="rgb(0,0,139)" width="5" stroke-dasharray="none" height="5" stroke="none"/>
<line clip-path="url(#clipPath1)" fill="none" x1="874" x2="891" y1="335" y2="331" stroke-dasharray="none" stroke="rgb(0,0,139)"/>
<rect x="889" y="329" clip-path="url(#clipPath1)" fill="rgb(0,0,139)" width="5" stroke-dasharray="none" height="5" stroke="none"/>
<line clip-path="url(#clipPath1)" fill="none" x1="891" x2="909" y1="331" y2="324" stroke-dasharray="none" stroke="rgb(0,0,139)"/>
<rect x="907" y="322" clip-path="url(#clipPath1)" fill="rgb(0,0,139)" width="5" stroke-dasharray="none" height="5" stroke="none"/>
<line clip-path="url(#clipPath1)" fill="none" x1="909" x2="926" y1="324" y2="319" stroke-dasharray="none" stroke="rgb(0,0,139)"/>
<rect x="924" y="317" clip-path="url(#clipPath1)" fill="rgb(0,0,139)" width="5" stroke-dasharray="none" height="5" stroke="none"/>
<line clip-path="url(#clipPath1)" fill="none" x1="926" x2="943" y1="319" y2="313" stroke-dasharray="none" stroke="rgb(0,0,139)"/>
<rect x="941" y="311" clip-path="url(#clipPath1)" fill="rgb(0,0,139)" width="5" stroke-dasharray="none" height="5" stroke="none"/>
<line clip-path="url(#clipPath1)" fill="none" x1="943" x2="960" y1="313" y2="308" stroke-dasharray="none" stroke="rgb(0,0,139)"/>
<rect x="958" y="306" clip-path="url(#clipPath1)" fill="rgb(0,0,139)" width="5" stroke-dasharray="none" height="5" stroke="none"/>
<line clip-path="url(#clipPath1)" fill="none" x1="960" x2="977" y1="308" y2="303" stroke-dasharray="none" stroke="rgb(0,0,139)"/>
<rect x="975" y="301" clip-path="url(#clipPath1)" fill="rgb(0,0,139)" width="5" stroke-dasharray="none" height="5" stroke="none"/>
<line clip-path="url(#clipPath1)" fill="none" x1="977" x2="994" y1="303" y2="296" stroke-dasharray="none" stroke="rgb(0,0,139)"/>
<rect x="992" y="294" clip-path="url(#clipPath1)" fill="rgb(0,0,139)" width="5" stroke-dasharray="none" height="5" stroke="none"/>
<line clip-path="url(#clipPath1)" fill="none" x1="994" x2="1011" y1="296" y2="291" stroke-dasharray="none" stroke="rgb(0,0,139)"/>
<rect x="1009" y="289" clip-path="url(#clipPath1)" fill="rgb(0,0,139)" width="5" stroke-dasharray="none" height="5" stroke="none"/>
<line clip-path="url(#clipPath1)" fill="none" x1="1011" x2="1028" y1="291" y2="286" stroke-dasharray="none" stroke="rgb(0,0,139)"/>
<rect x="1026" y="284" clip-path="url(#clipPath1)" fill="rgb(0,0,139)" width="5" stroke-dasharray="none" height="5" stroke="none"/>
<line clip-path="url(#clipPath1)" fill="none" x1="1028" x2="1045" y1="286" y2="279" stroke-dasharray="none" stroke="rgb(0,0,139)"/>
<rect x="1043" y="277" clip-path="url(#clipPath1)" fill="rgb(0,0,139)" width="5" stroke-dasharray="none" height="5" stroke="none"/>
<line clip-path="url(#clipPath1)" fill="none" x1="1045" x2="1063" y1="279" y2="274" stroke-dasharray="none" stroke="rgb(0,0,139)"/>
<rect x="1061" y="272" clip-path="url(#clipPath1)" fill="rgb(0,0,139)" width="5" stroke-dasharray="none" height="5" stroke="none"/>
<line clip-path="url(#clipPath1)" fill="none" x1="1063" x2="1080" y1="274" y2="269" stroke-dasharray="none" stroke="rgb(0,0,139)"/>
<rect x="1078" y="267" clip-path="url(#clipPath1)" fill="rgb(0,0,139)" width="5" stroke-dasharray="none" height="5" stroke="none"/>
<line clip-path="url(#clipPath1)" fill="none" x1="1080" x2="1097" y1="269" y2="263" stroke-dasharray="none" stroke="rgb(0,0,139)"/>
<rect x="1095" y="261" clip-path="url(#clipPath1)" fill="rgb(0,0,139)" width="5" stroke-dasharray="none" height="5" stroke="none"/>
<line clip-path="url(#clipPath1)" fill="none" x1="1097" x2="1114" y1="263" y2="257" stroke-dasharray="none" stroke="rgb(0,0,139)"/>
<rect x="1112" y="255" clip-path="url(#clipPath1)" fill="rgb(0,0,139)" width="5" stroke-dasharray="none" height="5" stroke="none"/>
<line clip-path="url(#clipPath1)" fill="none" x1="1114" x2="1131" y1="257" y2="252" stroke-dasharray="none" stroke="rgb(0,0,139)"/>
<rect x="1129" y="250" clip-path="url(#clipPath1)" fill="rgb(0,0,139)" width="5" stroke-dasharray="none" height="5" stroke="none"/>
<line clip-path="url(#clipPath1)" fill="none" x1="1131" x2="1148" y1="252" y2="247" stroke-dasharray="none" stroke="rgb(0,0,139)"/>
<rect x="1146" y="245" clip-path="url(#clipPath1)" fill="rgb(0,0,139)" width="5" stroke-dasharray="none" height="5" stroke="none"/>
<line clip-path="url(#clipPath1)" fill="none" x1="1148" x2="1165" y1="247" y2="241" stroke-dasharray="none" stroke="rgb(0,0,139)"/>
<rect x="1163" y="239" clip-path="url(#clipPath1)" fill="rgb(0,0,139)" width="5" stroke-dasharray="none" height="5" stroke="none"/>
<line clip-path="url(#clipPath1)" fill="none" x1="1165" x2="1182" y1="241" y2="235" stroke-dasharray="none" stroke="rgb(0,0,139)"/>
<rect x="1180" y="233" clip-path="url(#clipPath1)" fill="rgb(0,0,139)" width="5" stroke-dasharray="none" height="5" stroke="none"/>
<line clip-path="url(#clipPath1)" fill="none" x1="1182" x2="1199" y1="235" y2="230" stroke-dasharray="none" stroke="rgb(0,0,139)"/>
<rect x="1197" y="228" clip-path="url(#clipPath1)" fill="rgb(0,0,139)" width="5" stroke-dasharray="none" height="5" stroke="none"/>
<line clip-path="url(#clipPath1)" fill="none" x1="1199" x2="1216" y1="230" y2="224" stroke-dasharray="none" stroke="rgb(0,0,139)"/>
<rect x="1214" y="222" clip-path="url(#clipPath1)" fill="rgb(0,0,139)" width="5" stroke-dasharray="none" height="5" stroke="none"/>
<line clip-path="url(#clipPath1)" fill="none" x1="1216" x2="1234" y1="224" y2="219" stroke-dasharray="none" stroke="rgb(0,0,139)"/>
<rect x="1232" y="217" clip-path="url(#clipPath1)" fill="rgb(0,0,139)" width="5" stroke-dasharray="none" height="5" stroke="none"/>
<line clip-path="url(#clipPath1)" fill="none" x1="1234" x2="1251" y1="219" y2="213" stroke-dasharray="none" stroke="rgb(0,0,139)"/>
<rect x="1249" y="211" clip-path="url(#clipPath1)" fill="rgb(0,0,139)" width="5" stroke-dasharray="none" height="5" stroke="none"/>
<line clip-path="url(#clipPath1)" fill="none" x1="1251" x2="1268" y1="213" y2="208" stroke-dasharray="none" stroke="rgb(0,0,139)"/>
<rect x="1266" y="206" clip-path="url(#clipPath1)" fill="rgb(0,0,139)" width="5" stroke-dasharray="none" height="5" stroke="none"/>
<line clip-path="url(#clipPath1)" fill="none" x1="1268" x2="1285" y1="208" y2="202" stroke-dasharray="none" stroke="rgb(0,0,139)"/>
<rect x="1283" y="200" clip-path="url(#clipPath1)" fill="rgb(0,0,139)" width="5" stroke-dasharray="none" height="5" stroke="none"/>
<line clip-path="url(#clipPath1)" fill="none" x1="1285" x2="1302" y1="202" y2="196" stroke-dasharray="none" stroke="rgb(0,0,139)"/>
<rect x="1300" y="194" clip-path="url(#clipPath1)" fill="rgb(0,0,139)" width="5" stroke-dasharray="none" height="5" stroke="none"/>
<line clip-path="url(#clipPath1)" fill="none" x1="1302" x2="1319" y1="196" y2="191" stroke-dasharray="none" stroke="rgb(0,0,139)"/>
<rect x="1317" y="189" clip-path="url(#clipPath1)" fill="rgb(0,0,139)" width="5" stroke-dasharray="none" height="5" stroke="none"/>
<line clip-path="url(#clipPath1)" fill="none" x1="1319" x2="1336" y1="191" y2="185" stroke-dasharray="none" stroke="rgb(0,0,139)"/>
<rect x="1334" y="183" clip-path="url(#clipPath1)" fill="rgb(0,0,139)" width="5" stroke-dasharray="none" height="5" stroke="none"/>
<line clip-path="url(#clipPath1)" fill="none" x1="1336" x2="1353" y1="185" y2="180" stroke-dasharray="none" stroke="rgb(0,0,139)"/>
<rect x="1351" y="178" clip-path="url(#clipPath1)" fill="rgb(0,0,139)" width="5" stroke-dasharray="none" height="5" stroke="none"/>
<rect x="54" y="40" clip-path="url(#clipPath2)" fill="none" width="1316" stroke-dasharray="none" height="561" stroke="black"/>
</g>
<g text-rendering="geometricPrecision" font-size="13" font-family="'Arial'" stroke-linecap="butt">
<text xml:space="preserve" x="629" y="12" clip-path="url(#clipPath2)" stroke="none">Total users' queues length</text>
<line clip-path="url(#clipPath2)" fill="none" x1="54" x2="1370" y1="38" y2="38"/>
<line clip-path="url(#clipPath2)" fill="none" x1="54" x2="1370" y1="603" y2="603"/>
<text xml:space="preserve" x="700" y="637" clip-path="url(#clipPath2)" stroke="none">time</text>
<line clip-path="url(#clipPath2)" fill="none" x1="54" x2="54" y1="34" y2="38"/>
<line clip-path="url(#clipPath2)" fill="none" x1="54" x2="54" y1="607" y2="603"/>
<text x="45" font-size="10" y="29" clip-path="url(#clipPath2)" stroke="none" xml:space="preserve">0.00</text>
<text x="45" font-size="10" y="618" clip-path="url(#clipPath2)" stroke="none" xml:space="preserve">0.00</text>
<line clip-path="url(#clipPath2)" fill="none" x1="71" x2="71" y1="36" y2="38"/>
<line clip-path="url(#clipPath2)" fill="none" x1="71" x2="71" y1="605" y2="603"/>
<line clip-path="url(#clipPath2)" fill="none" x1="88" x2="88" y1="36" y2="38"/>
<line clip-path="url(#clipPath2)" fill="none" x1="88" x2="88" y1="605" y2="603"/>
<line clip-path="url(#clipPath2)" fill="none" x1="105" x2="105" y1="36" y2="38"/>
<line clip-path="url(#clipPath2)" fill="none" x1="105" x2="105" y1="605" y2="603"/>
<line clip-path="url(#clipPath2)" fill="none" x1="122" x2="122" y1="36" y2="38"/>
<line clip-path="url(#clipPath2)" fill="none" x1="122" x2="122" y1="605" y2="603"/>
<line clip-path="url(#clipPath2)" fill="none" x1="139" x2="139" y1="34" y2="38"/>
<line clip-path="url(#clipPath2)" fill="none" x1="139" x2="139" y1="607" y2="603"/>
<text x="128" font-size="10" y="29" clip-path="url(#clipPath2)" stroke="none" xml:space="preserve">0.005</text>
<text x="128" font-size="10" y="618" clip-path="url(#clipPath2)" stroke="none" xml:space="preserve">0.005</text>
<line clip-path="url(#clipPath2)" fill="none" x1="156" x2="156" y1="36" y2="38"/>
<line clip-path="url(#clipPath2)" fill="none" x1="156" x2="156" y1="605" y2="603"/>
<line clip-path="url(#clipPath2)" fill="none" x1="173" x2="173" y1="36" y2="38"/>
<line clip-path="url(#clipPath2)" fill="none" x1="173" x2="173" y1="605" y2="603"/>
<line clip-path="url(#clipPath2)" fill="none" x1="190" x2="190" y1="36" y2="38"/>
<line clip-path="url(#clipPath2)" fill="none" x1="190" x2="190" y1="605" y2="603"/>
<line clip-path="url(#clipPath2)" fill="none" x1="207" x2="207" y1="36" y2="38"/>
<line clip-path="url(#clipPath2)" fill="none" x1="207" x2="207" y1="605" y2="603"/>
<line clip-path="url(#clipPath2)" fill="none" x1="225" x2="225" y1="34" y2="38"/>
<line clip-path="url(#clipPath2)" fill="none" x1="225" x2="225" y1="607" y2="603"/>
<text x="214" font-size="10" y="29" clip-path="url(#clipPath2)" stroke="none" xml:space="preserve">0.010</text>
<text x="214" font-size="10" y="618" clip-path="url(#clipPath2)" stroke="none" xml:space="preserve">0.010</text>
<line clip-path="url(#clipPath2)" fill="none" x1="242" x2="242" y1="36" y2="38"/>
<line clip-path="url(#clipPath2)" fill="none" x1="242" x2="242" y1="605" y2="603"/>
<line clip-path="url(#clipPath2)" fill="none" x1="259" x2="259" y1="36" y2="38"/>
<line clip-path="url(#clipPath2)" fill="none" x1="259" x2="259" y1="605" y2="603"/>
<line clip-path="url(#clipPath2)" fill="none" x1="276" x2="276" y1="36" y2="38"/>
<line clip-path="url(#clipPath2)" fill="none" x1="276" x2="276" y1="605" y2="603"/>
<line clip-path="url(#clipPath2)" fill="none" x1="293" x2="293" y1="36" y2="38"/>
<line clip-path="url(#clipPath2)" fill="none" x1="293" x2="293" y1="605" y2="603"/>
<line clip-path="url(#clipPath2)" fill="none" x1="310" x2="310" y1="34" y2="38"/>
<line clip-path="url(#clipPath2)" fill="none" x1="310" x2="310" y1="607" y2="603"/>
<text x="299" font-size="10" y="29" clip-path="url(#clipPath2)" stroke="none" xml:space="preserve">0.015</text>
<text x="299" font-size="10" y="618" clip-path="url(#clipPath2)" stroke="none" xml:space="preserve">0.015</text>
<line clip-path="url(#clipPath2)" fill="none" x1="327" x2="327" y1="36" y2="38"/>
<line clip-path="url(#clipPath2)" fill="none" x1="327" x2="327" y1="605" y2="603"/>
<line clip-path="url(#clipPath2)" fill="none" x1="344" x2="344" y1="36" y2="38"/>
<line clip-path="url(#clipPath2)" fill="none" x1="344" x2="344" y1="605" y2="603"/>
<line clip-path="url(#clipPath2)" fill="none" x1="361" x2="361" y1="36" y2="38"/>
<line clip-path="url(#clipPath2)" fill="none" x1="361" x2="361" y1="605" y2="603"/>
<line clip-path="url(#clipPath2)" fill="none" x1="378" x2="378" y1="36" y2="38"/>
<line clip-path="url(#clipPath2)" fill="none" x1="378" x2="378" y1="605" y2="603"/>
<line clip-path="url(#clipPath2)" fill="none" x1="396" x2="396" y1="34" y2="38"/>
<line clip-path="url(#clipPath2)" fill="none" x1="396" x2="396" y1="607" y2="603"/>
<text x="385" font-size="10" y="29" clip-path="url(#clipPath2)" stroke="none" xml:space="preserve">0.020</text>
<text x="385" font-size="10" y="618" clip-path="url(#clipPath2)" stroke="none" xml:space="preserve">0.020</text>
<line clip-path="url(#clipPath2)" fill="none" x1="413" x2="413" y1="36" y2="38"/>
<line clip-path="url(#clipPath2)" fill="none" x1="413" x2="413" y1="605" y2="603"/>
<line clip-path="url(#clipPath2)" fill="none" x1="430" x2="430" y1="36" y2="38"/>
<line clip-path="url(#clipPath2)" fill="none" x1="430" x2="430" y1="605" y2="603"/>
<line clip-path="url(#clipPath2)" fill="none" x1="447" x2="447" y1="36" y2="38"/>
<line clip-path="url(#clipPath2)" fill="none" x1="447" x2="447" y1="605" y2="603"/>
<line clip-path="url(#clipPath2)" fill="none" x1="464" x2="464" y1="36" y2="38"/>
<line clip-path="url(#clipPath2)" fill="none" x1="464" x2="464" y1="605" y2="603"/>
<line clip-path="url(#clipPath2)" fill="none" x1="481" x2="481" y1="34" y2="38"/>
<line clip-path="url(#clipPath2)" fill="none" x1="481" x2="481" y1="607" y2="603"/>
<text x="470" font-size="10" y="29" clip-path="url(#clipPath2)" stroke="none" xml:space="preserve">0.025</text>
<text x="470" font-size="10" y="618" clip-path="url(#clipPath2)" stroke="none" xml:space="preserve">0.025</text>
<line clip-path="url(#clipPath2)" fill="none" x1="498" x2="498" y1="36" y2="38"/>
<line clip-path="url(#clipPath2)" fill="none" x1="498" x2="498" y1="605" y2="603"/>
<line clip-path="url(#clipPath2)" fill="none" x1="515" x2="515" y1="36" y2="38"/>
<line clip-path="url(#clipPath2)" fill="none" x1="515" x2="515" y1="605" y2="603"/>
<line clip-path="url(#clipPath2)" fill="none" x1="532" x2="532" y1="36" y2="38"/>
<line clip-path="url(#clipPath2)" fill="none" x1="532" x2="532" y1="605" y2="603"/>
<line clip-path="url(#clipPath2)" fill="none" x1="549" x2="549" y1="36" y2="38"/>
<line clip-path="url(#clipPath2)" fill="none" x1="549" x2="549" y1="605" y2="603"/>
<line clip-path="url(#clipPath2)" fill="none" x1="567" x2="567" y1="34" y2="38"/>
<line clip-path="url(#clipPath2)" fill="none" x1="567" x2="567" y1="607" y2="603"/>
<text x="556" font-size="10" y="29" clip-path="url(#clipPath2)" stroke="none" xml:space="preserve">0.030</text>
<text x="556" font-size="10" y="618" clip-path="url(#clipPath2)" stroke="none" xml:space="preserve">0.030</text>
<line clip-path="url(#clipPath2)" fill="none" x1="584" x2="584" y1="36" y2="38"/>
<line clip-path="url(#clipPath2)" fill="none" x1="584" x2="584" y1="605" y2="603"/>
<line clip-path="url(#clipPath2)" fill="none" x1="601" x2="601" y1="36" y2="38"/>
<line clip-path="url(#clipPath2)" fill="none" x1="601" x2="601" y1="605" y2="603"/>
<line clip-path="url(#clipPath2)" fill="none" x1="618" x2="618" y1="36" y2="38"/>
<line clip-path="url(#clipPath2)" fill="none" x1="618" x2="618" y1="605" y2="603"/>
<line clip-path="url(#clipPath2)" fill="none" x1="635" x2="635" y1="36" y2="38"/>
<line clip-path="url(#clipPath2)" fill="none" x1="635" x2="635" y1="605" y2="603"/>
<line clip-path="url(#clipPath2)" fill="none" x1="652" x2="652" y1="34" y2="38"/>
<line clip-path="url(#clipPath2)" fill="none" x1="652" x2="652" y1="607" y2="603"/>
<text x="641" font-size="10" y="29" clip-path="url(#clipPath2)" stroke="none" xml:space="preserve">0.035</text>
<text x="641" font-size="10" y="618" clip-path="url(#clipPath2)" stroke="none" xml:space="preserve">0.035</text>
<line clip-path="url(#clipPath2)" fill="none" x1="669" x2="669" y1="36" y2="38"/>
<line clip-path="url(#clipPath2)" fill="none" x1="669" x2="669" y1="605" y2="603"/>
<line clip-path="url(#clipPath2)" fill="none" x1="686" x2="686" y1="36" y2="38"/>
<line clip-path="url(#clipPath2)" fill="none" x1="686" x2="686" y1="605" y2="603"/>
<line clip-path="url(#clipPath2)" fill="none" x1="703" x2="703" y1="36" y2="38"/>
<line clip-path="url(#clipPath2)" fill="none" x1="703" x2="703" y1="605" y2="603"/>
<line clip-path="url(#clipPath2)" fill="none" x1="720" x2="720" y1="36" y2="38"/>
<line clip-path="url(#clipPath2)" fill="none" x1="720" x2="720" y1="605" y2="603"/>
<line clip-path="url(#clipPath2)" fill="none" x1="738" x2="738" y1="34" y2="38"/>
<line clip-path="url(#clipPath2)" fill="none" x1="738" x2="738" y1="607" y2="603"/>
<text x="727" font-size="10" y="29" clip-path="url(#clipPath2)" stroke="none" xml:space="preserve">0.040</text>
<text x="727" font-size="10" y="618" clip-path="url(#clipPath2)" stroke="none" xml:space="preserve">0.040</text>
<line clip-path="url(#clipPath2)" fill="none" x1="755" x2="755" y1="36" y2="38"/>
<line clip-path="url(#clipPath2)" fill="none" x1="755" x2="755" y1="605" y2="603"/>
<line clip-path="url(#clipPath2)" fill="none" x1="772" x2="772" y1="36" y2="38"/>
<line clip-path="url(#clipPath2)" fill="none" x1="772" x2="772" y1="605" y2="603"/>
<line clip-path="url(#clipPath2)" fill="none" x1="789" x2="789" y1="36" y2="38"/>
<line clip-path="url(#clipPath2)" fill="none" x1="789" x2="789" y1="605" y2="603"/>
<line clip-path="url(#clipPath2)" fill="none" x1="806" x2="806" y1="36" y2="38"/>
<line clip-path="url(#clipPath2)" fill="none" x1="806" x2="806" y1="605" y2="603"/>
<line clip-path="url(#clipPath2)" fill="none" x1="823" x2="823" y1="34" y2="38"/>
<line clip-path="url(#clipPath2)" fill="none" x1="823" x2="823" y1="607" y2="603"/>
<text x="812" font-size="10" y="29" clip-path="url(#clipPath2)" stroke="none" xml:space="preserve">0.045</text>
<text x="812" font-size="10" y="618" clip-path="url(#clipPath2)" stroke="none" xml:space="preserve">0.045</text>
<line clip-path="url(#clipPath2)" fill="none" x1="840" x2="840" y1="36" y2="38"/>
<line clip-path="url(#clipPath2)" fill="none" x1="840" x2="840" y1="605" y2="603"/>
<line clip-path="url(#clipPath2)" fill="none" x1="857" x2="857" y1="36" y2="38"/>
<line clip-path="url(#clipPath2)" fill="none" x1="857" x2="857" y1="605" y2="603"/>
<line clip-path="url(#clipPath2)" fill="none" x1="874" x2="874" y1="36" y2="38"/>
<line clip-path="url(#clipPath2)" fill="none" x1="874" x2="874" y1="605" y2="603"/>
<line clip-path="url(#clipPath2)" fill="none" x1="891" x2="891" y1="36" y2="38"/>
<line clip-path="url(#clipPath2)" fill="none" x1="891" x2="891" y1="605" y2="603"/>
<line clip-path="url(#clipPath2)" fill="none" x1="909" x2="909" y1="34" y2="38"/>
<line clip-path="url(#clipPath2)" fill="none" x1="909" x2="909" y1="607" y2="603"/>
<text x="898" font-size="10" y="29" clip-path="url(#clipPath2)" stroke="none" xml:space="preserve">0.050</text>
<text x="898" font-size="10" y="618" clip-path="url(#clipPath2)" stroke="none" xml:space="preserve">0.050</text>
<line clip-path="url(#clipPath2)" fill="none" x1="926" x2="926" y1="36" y2="38"/>
<line clip-path="url(#clipPath2)" fill="none" x1="926" x2="926" y1="605" y2="603"/>
<line clip-path="url(#clipPath2)" fill="none" x1="943" x2="943" y1="36" y2="38"/>
<line clip-path="url(#clipPath2)" fill="none" x1="943" x2="943" y1="605" y2="603"/>
<line clip-path="url(#clipPath2)" fill="none" x1="960" x2="960" y1="36" y2="38"/>
<line clip-path="url(#clipPath2)" fill="none" x1="960" x2="960" y1="605" y2="603"/>
<line clip-path="url(#clipPath2)" fill="none" x1="977" x2="977" y1="36" y2="38"/>
<line clip-path="url(#clipPath2)" fill="none" x1="977" x2="977" y1="605" y2="603"/>
<line clip-path="url(#clipPath2)" fill="none" x1="994" x2="994" y1="34" y2="38"/>
<line clip-path="url(#clipPath2)" fill="none" x1="994" x2="994" y1="607" y2="603"/>
<text x="983" font-size="10" y="29" clip-path="url(#clipPath2)" stroke="none" xml:space="preserve">0.055</text>
<text x="983" font-size="10" y="618" clip-path="url(#clipPath2)" stroke="none" xml:space="preserve">0.055</text>
<line clip-path="url(#clipPath2)" fill="none" x1="1011" x2="1011" y1="36" y2="38"/>
<line clip-path="url(#clipPath2)" fill="none" x1="1011" x2="1011" y1="605" y2="603"/>
<line clip-path="url(#clipPath2)" fill="none" x1="1028" x2="1028" y1="36" y2="38"/>
<line clip-path="url(#clipPath2)" fill="none" x1="1028" x2="1028" y1="605" y2="603"/>
<line clip-path="url(#clipPath2)" fill="none" x1="1045" x2="1045" y1="36" y2="38"/>
<line clip-path="url(#clipPath2)" fill="none" x1="1045" x2="1045" y1="605" y2="603"/>
<line clip-path="url(#clipPath2)" fill="none" x1="1063" x2="1063" y1="36" y2="38"/>
<line clip-path="url(#clipPath2)" fill="none" x1="1063" x2="1063" y1="605" y2="603"/>
<line clip-path="url(#clipPath2)" fill="none" x1="1080" x2="1080" y1="34" y2="38"/>
<line clip-path="url(#clipPath2)" fill="none" x1="1080" x2="1080" y1="607" y2="603"/>
<text x="1069" font-size="10" y="29" clip-path="url(#clipPath2)" stroke="none" xml:space="preserve">0.060</text>
<text x="1069" font-size="10" y="618" clip-path="url(#clipPath2)" stroke="none" xml:space="preserve">0.060</text>
<line clip-path="url(#clipPath2)" fill="none" x1="1097" x2="1097" y1="36" y2="38"/>
<line clip-path="url(#clipPath2)" fill="none" x1="1097" x2="1097" y1="605" y2="603"/>
<line clip-path="url(#clipPath2)" fill="none" x1="1114" x2="1114" y1="36" y2="38"/>
<line clip-path="url(#clipPath2)" fill="none" x1="1114" x2="1114" y1="605" y2="603"/>
<line clip-path="url(#clipPath2)" fill="none" x1="1131" x2="1131" y1="36" y2="38"/>
<line clip-path="url(#clipPath2)" fill="none" x1="1131" x2="1131" y1="605" y2="603"/>
<line clip-path="url(#clipPath2)" fill="none" x1="1148" x2="1148" y1="36" y2="38"/>
<line clip-path="url(#clipPath2)" fill="none" x1="1148" x2="1148" y1="605" y2="603"/>
<line clip-path="url(#clipPath2)" fill="none" x1="1165" x2="1165" y1="34" y2="38"/>
<line clip-path="url(#clipPath2)" fill="none" x1="1165" x2="1165" y1="607" y2="603"/>
<text x="1154" font-size="10" y="29" clip-path="url(#clipPath2)" stroke="none" xml:space="preserve">0.065</text>
<text x="1154" font-size="10" y="618" clip-path="url(#clipPath2)" stroke="none" xml:space="preserve">0.065</text>
<line clip-path="url(#clipPath2)" fill="none" x1="1182" x2="1182" y1="36" y2="38"/>
<line clip-path="url(#clipPath2)" fill="none" x1="1182" x2="1182" y1="605" y2="603"/>
<line clip-path="url(#clipPath2)" fill="none" x1="1199" x2="1199" y1="36" y2="38"/>
<line clip-path="url(#clipPath2)" fill="none" x1="1199" x2="1199" y1="605" y2="603"/>
<line clip-path="url(#clipPath2)" fill="none" x1="1216" x2="1216" y1="36" y2="38"/>
<line clip-path="url(#clipPath2)" fill="none" x1="1216" x2="1216" y1="605" y2="603"/>
<line clip-path="url(#clipPath2)" fill="none" x1="1234" x2="1234" y1="36" y2="38"/>
<line clip-path="url(#clipPath2)" fill="none" x1="1234" x2="1234" y1="605" y2="603"/>
<line clip-path="url(#clipPath2)" fill="none" x1="1251" x2="1251" y1="34" y2="38"/>
<line clip-path="url(#clipPath2)" fill="none" x1="1251" x2="1251" y1="607" y2="603"/>
<text x="1240" font-size="10" y="29" clip-path="url(#clipPath2)" stroke="none" xml:space="preserve">0.070</text>
<text x="1240" font-size="10" y="618" clip-path="url(#clipPath2)" stroke="none" xml:space="preserve">0.070</text>
<line clip-path="url(#clipPath2)" fill="none" x1="1268" x2="1268" y1="36" y2="38"/>
<line clip-path="url(#clipPath2)" fill="none" x1="1268" x2="1268" y1="605" y2="603"/>
<line clip-path="url(#clipPath2)" fill="none" x1="1285" x2="1285" y1="36" y2="38"/>
<line clip-path="url(#clipPath2)" fill="none" x1="1285" x2="1285" y1="605" y2="603"/>
<line clip-path="url(#clipPath2)" fill="none" x1="1302" x2="1302" y1="36" y2="38"/>
<line clip-path="url(#clipPath2)" fill="none" x1="1302" x2="1302" y1="605" y2="603"/>
<line clip-path="url(#clipPath2)" fill="none" x1="1319" x2="1319" y1="36" y2="38"/>
<line clip-path="url(#clipPath2)" fill="none" x1="1319" x2="1319" y1="605" y2="603"/>
<line clip-path="url(#clipPath2)" fill="none" x1="1336" x2="1336" y1="34" y2="38"/>
<line clip-path="url(#clipPath2)" fill="none" x1="1336" x2="1336" y1="607" y2="603"/>
<text x="1325" font-size="10" y="29" clip-path="url(#clipPath2)" stroke="none" xml:space="preserve">0.075</text>
<text x="1325" font-size="10" y="618" clip-path="url(#clipPath2)" stroke="none" xml:space="preserve">0.075</text>
<line clip-path="url(#clipPath2)" fill="none" x1="1353" x2="1353" y1="36" y2="38"/>
<line clip-path="url(#clipPath2)" fill="none" x1="1353" x2="1353" y1="605" y2="603"/>
<line clip-path="url(#clipPath2)" fill="none" x1="1370" x2="1370" y1="36" y2="38"/>
<line clip-path="url(#clipPath2)" fill="none" x1="1370" x2="1370" y1="605" y2="603"/>
<line clip-path="url(#clipPath2)" fill="none" x1="52" x2="52" y1="40" y2="601"/>
<line clip-path="url(#clipPath2)" fill="none" x1="1372" x2="1372" y1="40" y2="601"/>
<line clip-path="url(#clipPath2)" fill="none" x1="48" x2="52" y1="601" y2="601"/>
<line clip-path="url(#clipPath2)" fill="none" x1="1376" x2="1372" y1="601" y2="601"/>
<text x="42" font-size="10" y="604" clip-path="url(#clipPath2)" stroke="none" xml:space="preserve">0</text>
<text x="1379" font-size="10" y="604" clip-path="url(#clipPath2)" stroke="none" xml:space="preserve">0</text>
<line clip-path="url(#clipPath2)" fill="none" x1="50" x2="52" y1="553" y2="553"/>
<line clip-path="url(#clipPath2)" fill="none" x1="1374" x2="1372" y1="553" y2="553"/>
<line clip-path="url(#clipPath2)" fill="none" x1="48" x2="52" y1="506" y2="506"/>
<line clip-path="url(#clipPath2)" fill="none" x1="1376" x2="1372" y1="506" y2="506"/>
<text x="32" font-size="10" y="509" clip-path="url(#clipPath2)" stroke="none" xml:space="preserve">200</text>
<text x="1379" font-size="10" y="509" clip-path="url(#clipPath2)" stroke="none" xml:space="preserve">200</text>
<line clip-path="url(#clipPath2)" fill="none" x1="50" x2="52" y1="459" y2="459"/>
<line clip-path="url(#clipPath2)" fill="none" x1="1374" x2="1372" y1="459" y2="459"/>
<line clip-path="url(#clipPath2)" fill="none" x1="48" x2="52" y1="412" y2="412"/>
<line clip-path="url(#clipPath2)" fill="none" x1="1376" x2="1372" y1="412" y2="412"/>
<text x="32" font-size="10" y="415" clip-path="url(#clipPath2)" stroke="none" xml:space="preserve">400</text>
<text x="1379" font-size="10" y="415" clip-path="url(#clipPath2)" stroke="none" xml:space="preserve">400</text>
<line clip-path="url(#clipPath2)" fill="none" x1="50" x2="52" y1="364" y2="364"/>
<line clip-path="url(#clipPath2)" fill="none" x1="1374" x2="1372" y1="364" y2="364"/>
<line clip-path="url(#clipPath2)" fill="none" x1="48" x2="52" y1="317" y2="317"/>
<line clip-path="url(#clipPath2)" fill="none" x1="1376" x2="1372" y1="317" y2="317"/>
<text x="32" font-size="10" y="320" clip-path="url(#clipPath2)" stroke="none" xml:space="preserve">600</text>
<text x="1379" font-size="10" y="320" clip-path="url(#clipPath2)" stroke="none" xml:space="preserve">600</text>
<line clip-path="url(#clipPath2)" fill="none" x1="50" x2="52" y1="270" y2="270"/>
<line clip-path="url(#clipPath2)" fill="none" x1="1374" x2="1372" y1="270" y2="270"/>
<line clip-path="url(#clipPath2)" fill="none" x1="48" x2="52" y1="223" y2="223"/>
<line clip-path="url(#clipPath2)" fill="none" x1="1376" x2="1372" y1="223" y2="223"/>
<text x="32" font-size="10" y="226" clip-path="url(#clipPath2)" stroke="none" xml:space="preserve">800</text>
<text x="1379" font-size="10" y="226" clip-path="url(#clipPath2)" stroke="none" xml:space="preserve">800</text>
<line clip-path="url(#clipPath2)" fill="none" x1="50" x2="52" y1="176" y2="176"/>
<line clip-path="url(#clipPath2)" fill="none" x1="1374" x2="1372" y1="176" y2="176"/>
<line clip-path="url(#clipPath2)" fill="none" x1="48" x2="52" y1="128" y2="128"/>
<line clip-path="url(#clipPath2)" fill="none" x1="1376" x2="1372" y1="128" y2="128"/>
<text x="27" font-size="10" y="131" clip-path="url(#clipPath2)" stroke="none" xml:space="preserve">1000</text>
<text x="1379" font-size="10" y="131" clip-path="url(#clipPath2)" stroke="none" xml:space="preserve">1000</text>
<line clip-path="url(#clipPath2)" fill="none" x1="50" x2="52" y1="81" y2="81"/>
<line clip-path="url(#clipPath2)" fill="none" x1="1374" x2="1372" y1="81" y2="81"/>
</g>
</g>
</svg>
