<?xml version="1.0" encoding="UTF-8"?><svg xmlns="http://www.w3.org/2000/svg" xmlns:xlink="http://www.w3.org/1999/xlink" stroke-dasharray="none" shape-rendering="auto" font-family="'Dialog'" width="1408" text-rendering="auto" fill-opacity="1" contentScriptType="text/ecmascript" color-interpolation="auto" color-rendering="auto" preserveAspectRatio="xMidYMid meet" font-size="12" fill="black" stroke="black" image-rendering="auto" stroke-miterlimit="10" zoomAndPan="magnify" version="1.0" stroke-linecap="square" stroke-linejoin="miter" contentStyleType="text/css" font-style="normal" height="641" stroke-width="1" stroke-dashoffset="0" font-weight="normal" stroke-opacity="1">
<!--Generated by the Batik Graphics2D SVG Generator-->
<defs id="genericDefs"/>
<g>
<defs id="defs1">
<clipPath clipPathUnits="userSpaceOnUse" id="clipPath1">
<path d="M30 23 L1378 23 L1378 618 L30 618 L30 23 Z"/>
</clipPath>
<clipPath clipPathUnits="userSpaceOnUse" id="clipPath2">
<path d="M-1 -1 L1409 -1 L1409 642 L-1 642 L-1 -1 Z"/>
</clipPath>
</defs>
<g fill="white" text-rendering="geometricPrecision" font-family="'Segoe UI'" stroke-linejoin="round" stroke="white" stroke-width="0" stroke-miterlimit="0">
<rect x="31" y="24" clip-path="url(#clipPath1)" width="1346" height="593" stroke="none"/>
</g>
<g stroke-linecap="butt" fill="rgb(204,204,204)" text-rendering="geometricPrecision" font-family="'Segoe UI'" stroke-dasharray="3,3" stroke="rgb(204,204,204)">
<line clip-path="url(#clipPath1)" fill="none" x1="31" x2="31" y1="24" y2="617"/>
<line clip-path="url(#clipPath1)" fill="none" x1="124" x2="124" y1="24" y2="617"/>
<line clip-path="url(#clipPath1)" fill="none" x1="218" x2="218" y1="24" y2="617"/>
<line clip-path="url(#clipPath1)" fill="none" x1="311" x2="311" y1="24" y2="617"/>
<line clip-path="url(#clipPath1)" fill="none" x1="405" x2="405" y1="24" y2="617"/>
<line clip-path="url(#clipPath1)" fill="none" x1="499" x2="499" y1="24" y2="617"/>
<line clip-path="url(#clipPath1)" fill="none" x1="592" x2="592" y1="24" y2="617"/>
<line clip-path="url(#clipPath1)" fill="none" x1="686" x2="686" y1="24" y2="617"/>
<line clip-path="url(#clipPath1)" fill="none" x1="779" x2="779" y1="24" y2="617"/>
<line clip-path="url(#clipPath1)" fill="none" x1="873" x2="873" y1="24" y2="617"/>
<line clip-path="url(#clipPath1)" fill="none" x1="967" x2="967" y1="24" y2="617"/>
<line clip-path="url(#clipPath1)" fill="none" x1="1060" x2="1060" y1="24" y2="617"/>
<line clip-path="url(#clipPath1)" fill="none" x1="1154" x2="1154" y1="24" y2="617"/>
<line clip-path="url(#clipPath1)" fill="none" x1="1248" x2="1248" y1="24" y2="617"/>
<line clip-path="url(#clipPath1)" fill="none" x1="1341" x2="1341" y1="24" y2="617"/>
<line clip-path="url(#clipPath1)" fill="none" x1="31" x2="1377" y1="617" y2="617"/>
<line clip-path="url(#clipPath1)" fill="none" x1="31" x2="1377" y1="557" y2="557"/>
<line clip-path="url(#clipPath1)" fill="none" x1="31" x2="1377" y1="498" y2="498"/>
<line clip-path="url(#clipPath1)" fill="none" x1="31" x2="1377" y1="439" y2="439"/>
<line clip-path="url(#clipPath1)" fill="none" x1="31" x2="1377" y1="379" y2="379"/>
<line clip-path="url(#clipPath1)" fill="none" x1="31" x2="1377" y1="320" y2="320"/>
<line clip-path="url(#clipPath1)" fill="none" x1="31" x2="1377" y1="261" y2="261"/>
<line clip-path="url(#clipPath1)" fill="none" x1="31" x2="1377" y1="201" y2="201"/>
<line clip-path="url(#clipPath1)" fill="none" x1="31" x2="1377" y1="142" y2="142"/>
<line clip-path="url(#clipPath1)" fill="none" x1="31" x2="1377" y1="83" y2="83"/>
<rect x="47" y="615" clip-path="url(#clipPath1)" fill="rgb(0,0,139)" width="5" height="5" stroke="none"/>
<line clip-path="url(#clipPath1)" fill="none" x1="49" x2="68" y1="617" y2="617" stroke-dasharray="none" stroke="rgb(0,0,139)"/>
<rect x="66" y="615" clip-path="url(#clipPath1)" fill="rgb(0,0,139)" width="5" stroke-dasharray="none" height="5" stroke="none"/>
<line clip-path="url(#clipPath1)" fill="none" x1="68" x2="87" y1="617" y2="617" stroke-dasharray="none" stroke="rgb(0,0,139)"/>
<rect x="85" y="615" clip-path="url(#clipPath1)" fill="rgb(0,0,139)" width="5" stroke-dasharray="none" height="5" stroke="none"/>
<line clip-path="url(#clipPath1)" fill="none" x1="87" x2="105" y1="617" y2="617" stroke-dasharray="none" stroke="rgb(0,0,139)"/>
<rect x="103" y="615" clip-path="url(#clipPath1)" fill="rgb(0,0,139)" width="5" stroke-dasharray="none" height="5" stroke="none"/>
<line clip-path="url(#clipPath1)" fill="none" x1="105" x2="124" y1="617" y2="617" stroke-dasharray="none" stroke="rgb(0,0,139)"/>
<rect x="122" y="615" clip-path="url(#clipPath1)" fill="rgb(0,0,139)" width="5" stroke-dasharray="none" height="5" stroke="none"/>
<line clip-path="url(#clipPath1)" fill="none" x1="124" x2="143" y1="617" y2="617" stroke-dasharray="none" stroke="rgb(0,0,139)"/>
<rect x="141" y="615" clip-path="url(#clipPath1)" fill="rgb(0,0,139)" width="5" stroke-dasharray="none" height="5" stroke="none"/>
<line clip-path="url(#clipPath1)" fill="none" x1="143" x2="162" y1="617" y2="617" stroke-dasharray="none" stroke="rgb(0,0,139)"/>
<rect x="160" y="615" clip-path="url(#clipPath1)" fill="rgb(0,0,139)" width="5" stroke-dasharray="none" height="5" stroke="none"/>
<line clip-path="url(#clipPath1)" fill="none" x1="162" x2="180" y1="617" y2="617" stroke-dasharray="none" stroke="rgb(0,0,139)"/>
<rect x="178" y="615" clip-path="url(#clipPath1)" fill="rgb(0,0,139)" width="5" stroke-dasharray="none" height="5" stroke="none"/>
<line clip-path="url(#clipPath1)" fill="none" x1="180" x2="199" y1="617" y2="617" stroke-dasharray="none" stroke="rgb(0,0,139)"/>
<rect x="197" y="615" clip-path="url(#clipPath1)" fill="rgb(0,0,139)" width="5" stroke-dasharray="none" height="5" stroke="none"/>
<line clip-path="url(#clipPath1)" fill="none" x1="199" x2="218" y1="617" y2="617" stroke-dasharray="none" stroke="rgb(0,0,139)"/>
<rect x="216" y="615" clip-path="url(#clipPath1)" fill="rgb(0,0,139)" width="5" stroke-dasharray="none" height="5" stroke="none"/>
<line clip-path="url(#clipPath1)" fill="none" x1="218" x2="236" y1="617" y2="617" stroke-dasharray="none" stroke="rgb(0,0,139)"/>
<rect x="234" y="615" clip-path="url(#clipPath1)" fill="rgb(0,0,139)" width="5" stroke-dasharray="none" height="5" stroke="none"/>
<line clip-path="url(#clipPath1)" fill="none" x1="236" x2="255" y1="617" y2="617" stroke-dasharray="none" stroke="rgb(0,0,139)"/>
<rect x="253" y="615" clip-path="url(#clipPath1)" fill="rgb(0,0,139)" width="5" stroke-dasharray="none" height="5" stroke="none"/>
<line clip-path="url(#clipPath1)" fill="none" x1="255" x2="274" y1="617" y2="617" stroke-dasharray="none" stroke="rgb(0,0,139)"/>
<rect x="272" y="615" clip-path="url(#clipPath1)" fill="rgb(0,0,139)" width="5" stroke-dasharray="none" height="5" stroke="none"/>
<line clip-path="url(#clipPath1)" fill="none" x1="274" x2="293" y1="617" y2="617" stroke-dasharray="none" stroke="rgb(0,0,139)"/>
<rect x="291" y="615" clip-path="url(#clipPath1)" fill="rgb(0,0,139)" width="5" stroke-dasharray="none" height="5" stroke="none"/>
<line clip-path="url(#clipPath1)" fill="none" x1="293" x2="311" y1="617" y2="617" stroke-dasharray="none" stroke="rgb(0,0,139)"/>
<rect x="309" y="615" clip-path="url(#clipPath1)" fill="rgb(0,0,139)" width="5" stroke-dasharray="none" height="5" stroke="none"/>
<line clip-path="url(#clipPath1)" fill="none" x1="311" x2="330" y1="617" y2="617" stroke-dasharray="none" stroke="rgb(0,0,139)"/>
<rect x="328" y="615" clip-path="url(#clipPath1)" fill="rgb(0,0,139)" width="5" stroke-dasharray="none" height="5" stroke="none"/>
<line clip-path="url(#clipPath1)" fill="none" x1="330" x2="349" y1="617" y2="617" stroke-dasharray="none" stroke="rgb(0,0,139)"/>
<rect x="347" y="615" clip-path="url(#clipPath1)" fill="rgb(0,0,139)" width="5" stroke-dasharray="none" height="5" stroke="none"/>
<line clip-path="url(#clipPath1)" fill="none" x1="349" x2="368" y1="617" y2="617" stroke-dasharray="none" stroke="rgb(0,0,139)"/>
<rect x="366" y="615" clip-path="url(#clipPath1)" fill="rgb(0,0,139)" width="5" stroke-dasharray="none" height="5" stroke="none"/>
<line clip-path="url(#clipPath1)" fill="none" x1="368" x2="386" y1="617" y2="617" stroke-dasharray="none" stroke="rgb(0,0,139)"/>
<rect x="384" y="615" clip-path="url(#clipPath1)" fill="rgb(0,0,139)" width="5" stroke-dasharray="none" height="5" stroke="none"/>
<line clip-path="url(#clipPath1)" fill="none" x1="386" x2="405" y1="617" y2="617" stroke-dasharray="none" stroke="rgb(0,0,139)"/>
<rect x="403" y="615" clip-path="url(#clipPath1)" fill="rgb(0,0,139)" width="5" stroke-dasharray="none" height="5" stroke="none"/>
<line clip-path="url(#clipPath1)" fill="none" x1="405" x2="424" y1="617" y2="617" stroke-dasharray="none" stroke="rgb(0,0,139)"/>
<rect x="422" y="615" clip-path="url(#clipPath1)" fill="rgb(0,0,139)" width="5" stroke-dasharray="none" height="5" stroke="none"/>
<line clip-path="url(#clipPath1)" fill="none" x1="424" x2="442" y1="617" y2="617" stroke-dasharray="none" stroke="rgb(0,0,139)"/>
<rect x="440" y="615" clip-path="url(#clipPath1)" fill="rgb(0,0,139)" width="5" stroke-dasharray="none" height="5" stroke="none"/>
<line clip-path="url(#clipPath1)" fill="none" x1="442" x2="461" y1="617" y2="617" stroke-dasharray="none" stroke="rgb(0,0,139)"/>
<rect x="459" y="615" clip-path="url(#clipPath1)" fill="rgb(0,0,139)" width="5" stroke-dasharray="none" height="5" stroke="none"/>
<line clip-path="url(#clipPath1)" fill="none" x1="461" x2="480" y1="617" y2="617" stroke-dasharray="none" stroke="rgb(0,0,139)"/>
<rect x="478" y="615" clip-path="url(#clipPath1)" fill="rgb(0,0,139)" width="5" stroke-dasharray="none" height="5" stroke="none"/>
<line clip-path="url(#clipPath1)" fill="none" x1="480" x2="499" y1="617" y2="617" stroke-dasharray="none" stroke="rgb(0,0,139)"/>
<rect x="497" y="615" clip-path="url(#clipPath1)" fill="rgb(0,0,139)" width="5" stroke-dasharray="none" height="5" stroke="none"/>
<line clip-path="url(#clipPath1)" fill="none" x1="499" x2="517" y1="617" y2="617" stroke-dasharray="none" stroke="rgb(0,0,139)"/>
<rect x="515" y="615" clip-path="url(#clipPath1)" fill="rgb(0,0,139)" width="5" stroke-dasharray="none" height="5" stroke="none"/>
<line clip-path="url(#clipPath1)" fill="none" x1="517" x2="536" y1="617" y2="617" stroke-dasharray="none" stroke="rgb(0,0,139)"/>
<rect x="534" y="615" clip-path="url(#clipPath1)" fill="rgb(0,0,139)" width="5" stroke-dasharray="none" height="5" stroke="none"/>
<line clip-path="url(#clipPath1)" fill="none" x1="536" x2="555" y1="617" y2="617" stroke-dasharray="none" stroke="rgb(0,0,139)"/>
<rect x="553" y="615" clip-path="url(#clipPath1)" fill="rgb(0,0,139)" width="5" stroke-dasharray="none" height="5" stroke="none"/>
<line clip-path="url(#clipPath1)" fill="none" x1="555" x2="573" y1="617" y2="617" stroke-dasharray="none" stroke="rgb(0,0,139)"/>
<rect x="571" y="615" clip-path="url(#clipPath1)" fill="rgb(0,0,139)" width="5" stroke-dasharray="none" height="5" stroke="none"/>
<line clip-path="url(#clipPath1)" fill="none" x1="573" x2="592" y1="617" y2="617" stroke-dasharray="none" stroke="rgb(0,0,139)"/>
<rect x="590" y="615" clip-path="url(#clipPath1)" fill="rgb(0,0,139)" width="5" stroke-dasharray="none" height="5" stroke="none"/>
<line clip-path="url(#clipPath1)" fill="none" x1="592" x2="611" y1="617" y2="617" stroke-dasharray="none" stroke="rgb(0,0,139)"/>
<rect x="609" y="615" clip-path="url(#clipPath1)" fill="rgb(0,0,139)" width="5" stroke-dasharray="none" height="5" stroke="none"/>
<line clip-path="url(#clipPath1)" fill="none" x1="611" x2="630" y1="617" y2="617" stroke-dasharray="none" stroke="rgb(0,0,139)"/>
<rect x="628" y="615" clip-path="url(#clipPath1)" fill="rgb(0,0,139)" width="5" stroke-dasharray="none" height="5" stroke="none"/>
<line clip-path="url(#clipPath1)" fill="none" x1="630" x2="648" y1="617" y2="617" stroke-dasharray="none" stroke="rgb(0,0,139)"/>
<rect x="646" y="615" clip-path="url(#clipPath1)" fill="rgb(0,0,139)" width="5" stroke-dasharray="none" height="5" stroke="none"/>
<line clip-path="url(#clipPath1)" fill="none" x1="648" x2="667" y1="617" y2="617" stroke-dasharray="none" stroke="rgb(0,0,139)"/>
<rect x="665" y="615" clip-path="url(#clipPath1)" fill="rgb(0,0,139)" width="5" stroke-dasharray="none" height="5" stroke="none"/>
<line clip-path="url(#clipPath1)" fill="none" x1="667" x2="686" y1="617" y2="617" stroke-dasharray="none" stroke="rgb(0,0,139)"/>
<rect x="684" y="615" clip-path="url(#clipPath1)" fill="rgb(0,0,139)" width="5" stroke-dasharray="none" height="5" stroke="none"/>
<line clip-path="url(#clipPath1)" fill="none" x1="686" x2="705" y1="617" y2="617" stroke-dasharray="none" stroke="rgb(0,0,139)"/>
<rect x="703" y="615" clip-path="url(#clipPath1)" fill="rgb(0,0,139)" width="5" stroke-dasharray="none" height="5" stroke="none"/>
<line clip-path="url(#clipPath1)" fill="none" x1="705" x2="723" y1="617" y2="617" stroke-dasharray="none" stroke="rgb(0,0,139)"/>
<rect x="721" y="615" clip-path="url(#clipPath1)" fill="rgb(0,0,139)" width="5" stroke-dasharray="none" height="5" stroke="none"/>
<line clip-path="url(#clipPath1)" fill="none" x1="723" x2="742" y1="617" y2="617" stroke-dasharray="none" stroke="rgb(0,0,139)"/>
<rect x="740" y="615" clip-path="url(#clipPath1)" fill="rgb(0,0,139)" width="5" stroke-dasharray="none" height="5" stroke="none"/>
<line clip-path="url(#clipPath1)" fill="none" x1="742" x2="761" y1="617" y2="617" stroke-dasharray="none" stroke="rgb(0,0,139)"/>
<rect x="759" y="615" clip-path="url(#clipPath1)" fill="rgb(0,0,139)" width="5" stroke-dasharray="none" height="5" stroke="none"/>
<line clip-path="url(#clipPath1)" fill="none" x1="761" x2="779" y1="617" y2="617" stroke-dasharray="none" stroke="rgb(0,0,139)"/>
<rect x="777" y="615" clip-path="url(#clipPath1)" fill="rgb(0,0,139)" width="5" stroke-dasharray="none" height="5" stroke="none"/>
<line clip-path="url(#clipPath1)" fill="none" x1="779" x2="798" y1="617" y2="617" stroke-dasharray="none" stroke="rgb(0,0,139)"/>
<rect x="796" y="615" clip-path="url(#clipPath1)" fill="rgb(0,0,139)" width="5" stroke-dasharray="none" height="5" stroke="none"/>
<line clip-path="url(#clipPath1)" fill="none" x1="798" x2="817" y1="617" y2="617" stroke-dasharray="none" stroke="rgb(0,0,139)"/>
<rect x="815" y="615" clip-path="url(#clipPath1)" fill="rgb(0,0,139)" width="5" stroke-dasharray="none" height="5" stroke="none"/>
<line clip-path="url(#clipPath1)" fill="none" x1="817" x2="836" y1="617" y2="617" stroke-dasharray="none" stroke="rgb(0,0,139)"/>
<rect x="834" y="615" clip-path="url(#clipPath1)" fill="rgb(0,0,139)" width="5" stroke-dasharray="none" height="5" stroke="none"/>
<line clip-path="url(#clipPath1)" fill="none" x1="836" x2="854" y1="617" y2="617" stroke-dasharray="none" stroke="rgb(0,0,139)"/>
<rect x="852" y="615" clip-path="url(#clipPath1)" fill="rgb(0,0,139)" width="5" stroke-dasharray="none" height="5" stroke="none"/>
<line clip-path="url(#clipPath1)" fill="none" x1="854" x2="873" y1="617" y2="617" stroke-dasharray="none" stroke="rgb(0,0,139)"/>
<rect x="871" y="615" clip-path="url(#clipPath1)" fill="rgb(0,0,139)" width="5" stroke-dasharray="none" height="5" stroke="none"/>
<line clip-path="url(#clipPath1)" fill="none" x1="873" x2="892" y1="617" y2="617" stroke-dasharray="none" stroke="rgb(0,0,139)"/>
<rect x="890" y="615" clip-path="url(#clipPath1)" fill="rgb(0,0,139)" width="5" stroke-dasharray="none" height="5" stroke="none"/>
<line clip-path="url(#clipPath1)" fill="none" x1="892" x2="911" y1="617" y2="617" stroke-dasharray="none" stroke="rgb(0,0,139)"/>
<rect x="909" y="615" clip-path="url(#clipPath1)" fill="rgb(0,0,139)" width="5" stroke-dasharray="none" height="5" stroke="none"/>
<line clip-path="url(#clipPath1)" fill="none" x1="911" x2="929" y1="617" y2="617" stroke-dasharray="none" stroke="rgb(0,0,139)"/>
<rect x="927" y="615" clip-path="url(#clipPath1)" fill="rgb(0,0,139)" width="5" stroke-dasharray="none" height="5" stroke="none"/>
<line clip-path="url(#clipPath1)" fill="none" x1="929" x2="948" y1="617" y2="617" stroke-dasharray="none" stroke="rgb(0,0,139)"/>
<rect x="946" y="615" clip-path="url(#clipPath1)" fill="rgb(0,0,139)" width="5" stroke-dasharray="none" height="5" stroke="none"/>
<line clip-path="url(#clipPath1)" fill="none" x1="948" x2="967" y1="617" y2="617" stroke-dasharray="none" stroke="rgb(0,0,139)"/>
<rect x="965" y="615" clip-path="url(#clipPath1)" fill="rgb(0,0,139)" width="5" stroke-dasharray="none" height="5" stroke="none"/>
<line clip-path="url(#clipPath1)" fill="none" x1="967" x2="985" y1="617" y2="617" stroke-dasharray="none" stroke="rgb(0,0,139)"/>
<rect x="983" y="615" clip-path="url(#clipPath1)" fill="rgb(0,0,139)" width="5" stroke-dasharray="none" height="5" stroke="none"/>
<line clip-path="url(#clipPath1)" fill="none" x1="985" x2="1004" y1="617" y2="617" stroke-dasharray="none" stroke="rgb(0,0,139)"/>
<rect x="1002" y="615" clip-path="url(#clipPath1)" fill="rgb(0,0,139)" width="5" stroke-dasharray="none" height="5" stroke="none"/>
<line clip-path="url(#clipPath1)" fill="none" x1="1004" x2="1023" y1="617" y2="617" stroke-dasharray="none" stroke="rgb(0,0,139)"/>
<rect x="1021" y="615" clip-path="url(#clipPath1)" fill="rgb(0,0,139)" width="5" stroke-dasharray="none" height="5" stroke="none"/>
<line clip-path="url(#clipPath1)" fill="none" x1="1023" x2="1042" y1="617" y2="617" stroke-dasharray="none" stroke="rgb(0,0,139)"/>
<rect x="1040" y="615" clip-path="url(#clipPath1)" fill="rgb(0,0,139)" width="5" stroke-dasharray="none" height="5" stroke="none"/>
<line clip-path="url(#clipPath1)" fill="none" x1="1042" x2="1060" y1="617" y2="617" stroke-dasharray="none" stroke="rgb(0,0,139)"/>
<rect x="1058" y="615" clip-path="url(#clipPath1)" fill="rgb(0,0,139)" width="5" stroke-dasharray="none" height="5" stroke="none"/>
<line clip-path="url(#clipPath1)" fill="none" x1="1060" x2="1079" y1="617" y2="617" stroke-dasharray="none" stroke="rgb(0,0,139)"/>
<rect x="1077" y="615" clip-path="url(#clipPath1)" fill="rgb(0,0,139)" width="5" stroke-dasharray="none" height="5" stroke="none"/>
<line clip-path="url(#clipPath1)" fill="none" x1="1079" x2="1098" y1="617" y2="617" stroke-dasharray="none" stroke="rgb(0,0,139)"/>
<rect x="1096" y="615" clip-path="url(#clipPath1)" fill="rgb(0,0,139)" width="5" stroke-dasharray="none" height="5" stroke="none"/>
<line clip-path="url(#clipPath1)" fill="none" x1="1098" x2="1116" y1="617" y2="617" stroke-dasharray="none" stroke="rgb(0,0,139)"/>
<rect x="1114" y="615" clip-path="url(#clipPath1)" fill="rgb(0,0,139)" width="5" stroke-dasharray="none" height="5" stroke="none"/>
<line clip-path="url(#clipPath1)" fill="none" x1="1116" x2="1135" y1="617" y2="617" stroke-dasharray="none" stroke="rgb(0,0,139)"/>
<rect x="1133" y="615" clip-path="url(#clipPath1)" fill="rgb(0,0,139)" width="5" stroke-dasharray="none" height="5" stroke="none"/>
<line clip-path="url(#clipPath1)" fill="none" x1="1135" x2="1154" y1="617" y2="617" stroke-dasharray="none" stroke="rgb(0,0,139)"/>
<rect x="1152" y="615" clip-path="url(#clipPath1)" fill="rgb(0,0,139)" width="5" stroke-dasharray="none" height="5" stroke="none"/>
<line clip-path="url(#clipPath1)" fill="none" x1="1154" x2="1173" y1="617" y2="617" stroke-dasharray="none" stroke="rgb(0,0,139)"/>
<rect x="1171" y="615" clip-path="url(#clipPath1)" fill="rgb(0,0,139)" width="5" stroke-dasharray="none" height="5" stroke="none"/>
<line clip-path="url(#clipPath1)" fill="none" x1="1173" x2="1191" y1="617" y2="617" stroke-dasharray="none" stroke="rgb(0,0,139)"/>
<rect x="1189" y="615" clip-path="url(#clipPath1)" fill="rgb(0,0,139)" width="5" stroke-dasharray="none" height="5" stroke="none"/>
<line clip-path="url(#clipPath1)" fill="none" x1="1191" x2="1210" y1="617" y2="617" stroke-dasharray="none" stroke="rgb(0,0,139)"/>
<rect x="1208" y="615" clip-path="url(#clipPath1)" fill="rgb(0,0,139)" width="5" stroke-dasharray="none" height="5" stroke="none"/>
<line clip-path="url(#clipPath1)" fill="none" x1="1210" x2="1229" y1="617" y2="617" stroke-dasharray="none" stroke="rgb(0,0,139)"/>
<rect x="1227" y="615" clip-path="url(#clipPath1)" fill="rgb(0,0,139)" width="5" stroke-dasharray="none" height="5" stroke="none"/>
<line clip-path="url(#clipPath1)" fill="none" x1="1229" x2="1248" y1="617" y2="617" stroke-dasharray="none" stroke="rgb(0,0,139)"/>
<rect x="1246" y="615" clip-path="url(#clipPath1)" fill="rgb(0,0,139)" width="5" stroke-dasharray="none" height="5" stroke="none"/>
<line clip-path="url(#clipPath1)" fill="none" x1="1248" x2="1266" y1="617" y2="617" stroke-dasharray="none" stroke="rgb(0,0,139)"/>
<rect x="1264" y="615" clip-path="url(#clipPath1)" fill="rgb(0,0,139)" width="5" stroke-dasharray="none" height="5" stroke="none"/>
<line clip-path="url(#clipPath1)" fill="none" x1="1266" x2="1285" y1="617" y2="617" stroke-dasharray="none" stroke="rgb(0,0,139)"/>
<rect x="1283" y="615" clip-path="url(#clipPath1)" fill="rgb(0,0,139)" width="5" stroke-dasharray="none" height="5" stroke="none"/>
<line clip-path="url(#clipPath1)" fill="none" x1="1285" x2="1304" y1="617" y2="617" stroke-dasharray="none" stroke="rgb(0,0,139)"/>
<rect x="1302" y="615" clip-path="url(#clipPath1)" fill="rgb(0,0,139)" width="5" stroke-dasharray="none" height="5" stroke="none"/>
<line clip-path="url(#clipPath1)" fill="none" x1="1304" x2="1322" y1="617" y2="617" stroke-dasharray="none" stroke="rgb(0,0,139)"/>
<rect x="1320" y="615" clip-path="url(#clipPath1)" fill="rgb(0,0,139)" width="5" stroke-dasharray="none" height="5" stroke="none"/>
<line clip-path="url(#clipPath1)" fill="none" x1="1322" x2="1341" y1="617" y2="617" stroke-dasharray="none" stroke="rgb(0,0,139)"/>
<rect x="1339" y="615" clip-path="url(#clipPath1)" fill="rgb(0,0,139)" width="5" stroke-dasharray="none" height="5" stroke="none"/>
<line clip-path="url(#clipPath1)" fill="none" x1="1341" x2="1360" y1="617" y2="617" stroke-dasharray="none" stroke="rgb(0,0,139)"/>
<rect x="1358" y="615" clip-path="url(#clipPath1)" fill="rgb(0,0,139)" width="5" stroke-dasharray="none" height="5" stroke="none"/>
<rect x="31" y="24" clip-path="url(#clipPath2)" fill="none" width="1346" stroke-dasharray="none" height="593" stroke="black"/>
</g>
<g text-rendering="geometricPrecision" font-size="13" font-family="'Arial'" stroke-linecap="butt">
<line clip-path="url(#clipPath2)" fill="none" x1="31" x2="1377" y1="22" y2="22"/>
<line clip-path="url(#clipPath2)" fill="none" x1="31" x2="1377" y1="619" y2="619"/>
<line clip-path="url(#clipPath2)" fill="none" x1="31" x2="31" y1="18" y2="22"/>
<line clip-path="url(#clipPath2)" fill="none" x1="31" x2="31" y1="623" y2="619"/>
<text x="22" font-size="10" y="13" clip-path="url(#clipPath2)" stroke="none" xml:space="preserve">0.00</text>
<text x="22" font-size="10" y="634" clip-path="url(#clipPath2)" stroke="none" xml:space="preserve">0.00</text>
<line clip-path="url(#clipPath2)" fill="none" x1="49" x2="49" y1="20" y2="22"/>
<line clip-path="url(#clipPath2)" fill="none" x1="49" x2="49" y1="621" y2="619"/>
<line clip-path="url(#clipPath2)" fill="none" x1="68" x2="68" y1="20" y2="22"/>
<line clip-path="url(#clipPath2)" fill="none" x1="68" x2="68" y1="621" y2="619"/>
<line clip-path="url(#clipPath2)" fill="none" x1="87" x2="87" y1="20" y2="22"/>
<line clip-path="url(#clipPath2)" fill="none" x1="87" x2="87" y1="621" y2="619"/>
<line clip-path="url(#clipPath2)" fill="none" x1="105" x2="105" y1="20" y2="22"/>
<line clip-path="url(#clipPath2)" fill="none" x1="105" x2="105" y1="621" y2="619"/>
<line clip-path="url(#clipPath2)" fill="none" x1="124" x2="124" y1="18" y2="22"/>
<line clip-path="url(#clipPath2)" fill="none" x1="124" x2="124" y1="623" y2="619"/>
<text x="113" font-size="10" y="13" clip-path="url(#clipPath2)" stroke="none" xml:space="preserve">0.005</text>
<text x="113" font-size="10" y="634" clip-path="url(#clipPath2)" stroke="none" xml:space="preserve">0.005</text>
<line clip-path="url(#clipPath2)" fill="none" x1="143" x2="143" y1="20" y2="22"/>
<line clip-path="url(#clipPath2)" fill="none" x1="143" x2="143" y1="621" y2="619"/>
<line clip-path="url(#clipPath2)" fill="none" x1="162" x2="162" y1="20" y2="22"/>
<line clip-path="url(#clipPath2)" fill="none" x1="162" x2="162" y1="621" y2="619"/>
<line clip-path="url(#clipPath2)" fill="none" x1="180" x2="180" y1="20" y2="22"/>
<line clip-path="url(#clipPath2)" fill="none" x1="180" x2="180" y1="621" y2="619"/>
<line clip-path="url(#clipPath2)" fill="none" x1="199" x2="199" y1="20" y2="22"/>
<line clip-path="url(#clipPath2)" fill="none" x1="199" x2="199" y1="621" y2="619"/>
<line clip-path="url(#clipPath2)" fill="none" x1="218" x2="218" y1="18" y2="22"/>
<line clip-path="url(#clipPath2)" fill="none" x1="218" x2="218" y1="623" y2="619"/>
<text x="207" font-size="10" y="13" clip-path="url(#clipPath2)" stroke="none" xml:space="preserve">0.010</text>
<text x="207" font-size="10" y="634" clip-path="url(#clipPath2)" stroke="none" xml:space="preserve">0.010</text>
<line clip-path="url(#clipPath2)" fill="none" x1="236" x2="236" y1="20" y2="22"/>
<line clip-path="url(#clipPath2)" fill="none" x1="236" x2="236" y1="621" y2="619"/>
<line clip-path="url(#clipPath2)" fill="none" x1="255" x2="255" y1="20" y2="22"/>
<line clip-path="url(#clipPath2)" fill="none" x1="255" x2="255" y1="621" y2="619"/>
<line clip-path="url(#clipPath2)" fill="none" x1="274" x2="274" y1="20" y2="22"/>
<line clip-path="url(#clipPath2)" fill="none" x1="274" x2="274" y1="621" y2="619"/>
<line clip-path="url(#clipPath2)" fill="none" x1="293" x2="293" y1="20" y2="22"/>
<line clip-path="url(#clipPath2)" fill="none" x1="293" x2="293" y1="621" y2="619"/>
<line clip-path="url(#clipPath2)" fill="none" x1="311" x2="311" y1="18" y2="22"/>
<line clip-path="url(#clipPath2)" fill="none" x1="311" x2="311" y1="623" y2="619"/>
<text x="300" font-size="10" y="13" clip-path="url(#clipPath2)" stroke="none" xml:space="preserve">0.015</text>
<text x="300" font-size="10" y="634" clip-path="url(#clipPath2)" stroke="none" xml:space="preserve">0.015</text>
<line clip-path="url(#clipPath2)" fill="none" x1="330" x2="330" y1="20" y2="22"/>
<line clip-path="url(#clipPath2)" fill="none" x1="330" x2="330" y1="621" y2="619"/>
<line clip-path="url(#clipPath2)" fill="none" x1="349" x2="349" y1="20" y2="22"/>
<line clip-path="url(#clipPath2)" fill="none" x1="349" x2="349" y1="621" y2="619"/>
<line clip-path="url(#clipPath2)" fill="none" x1="368" x2="368" y1="20" y2="22"/>
<line clip-path="url(#clipPath2)" fill="none" x1="368" x2="368" y1="621" y2="619"/>
<line clip-path="url(#clipPath2)" fill="none" x1="386" x2="386" y1="20" y2="22"/>
<line clip-path="url(#clipPath2)" fill="none" x1="386" x2="386" y1="621" y2="619"/>
<line clip-path="url(#clipPath2)" fill="none" x1="405" x2="405" y1="18" y2="22"/>
<line clip-path="url(#clipPath2)" fill="none" x1="405" x2="405" y1="623" y2="619"/>
<text x="394" font-size="10" y="13" clip-path="url(#clipPath2)" stroke="none" xml:space="preserve">0.020</text>
<text x="394" font-size="10" y="634" clip-path="url(#clipPath2)" stroke="none" xml:space="preserve">0.020</text>
<line clip-path="url(#clipPath2)" fill="none" x1="424" x2="424" y1="20" y2="22"/>
<line clip-path="url(#clipPath2)" fill="none" x1="424" x2="424" y1="621" y2="619"/>
<line clip-path="url(#clipPath2)" fill="none" x1="442" x2="442" y1="20" y2="22"/>
<line clip-path="url(#clipPath2)" fill="none" x1="442" x2="442" y1="621" y2="619"/>
<line clip-path="url(#clipPath2)" fill="none" x1="461" x2="461" y1="20" y2="22"/>
<line clip-path="url(#clipPath2)" fill="none" x1="461" x2="461" y1="621" y2="619"/>
<line clip-path="url(#clipPath2)" fill="none" x1="480" x2="480" y1="20" y2="22"/>
<line clip-path="url(#clipPath2)" fill="none" x1="480" x2="480" y1="621" y2="619"/>
<line clip-path="url(#clipPath2)" fill="none" x1="499" x2="499" y1="18" y2="22"/>
<line clip-path="url(#clipPath2)" fill="none" x1="499" x2="499" y1="623" y2="619"/>
<text x="488" font-size="10" y="13" clip-path="url(#clipPath2)" stroke="none" xml:space="preserve">0.025</text>
<text x="488" font-size="10" y="634" clip-path="url(#clipPath2)" stroke="none" xml:space="preserve">0.025</text>
<line clip-path="url(#clipPath2)" fill="none" x1="517" x2="517" y1="20" y2="22"/>
<line clip-path="url(#clipPath2)" fill="none" x1="517" x2="517" y1="621" y2="619"/>
<line clip-path="url(#clipPath2)" fill="none" x1="536" x2="536" y1="20" y2="22"/>
<line clip-path="url(#clipPath2)" fill="none" x1="536" x2="536" y1="621" y2="619"/>
<line clip-path="url(#clipPath2)" fill="none" x1="555" x2="555" y1="20" y2="22"/>
<line clip-path="url(#clipPath2)" fill="none" x1="555" x2="555" y1="621" y2="619"/>
<line clip-path="url(#clipPath2)" fill="none" x1="573" x2="573" y1="20" y2="22"/>
<line clip-path="url(#clipPath2)" fill="none" x1="573" x2="573" y1="621" y2="619"/>
<line clip-path="url(#clipPath2)" fill="none" x1="592" x2="592" y1="18" y2="22"/>
<line clip-path="url(#clipPath2)" fill="none" x1="592" x2="592" y1="623" y2="619"/>
<text x="581" font-size="10" y="13" clip-path="url(#clipPath2)" stroke="none" xml:space="preserve">0.030</text>
<text x="581" font-size="10" y="634" clip-path="url(#clipPath2)" stroke="none" xml:space="preserve">0.030</text>
<line clip-path="url(#clipPath2)" fill="none" x1="611" x2="611" y1="20" y2="22"/>
<line clip-path="url(#clipPath2)" fill="none" x1="611" x2="611" y1="621" y2="619"/>
<line clip-path="url(#clipPath2)" fill="none" x1="630" x2="630" y1="20" y2="22"/>
<line clip-path="url(#clipPath2)" fill="none" x1="630" x2="630" y1="621" y2="619"/>
<line clip-path="url(#clipPath2)" fill="none" x1="648" x2="648" y1="20" y2="22"/>
<line clip-path="url(#clipPath2)" fill="none" x1="648" x2="648" y1="621" y2="619"/>
<line clip-path="url(#clipPath2)" fill="none" x1="667" x2="667" y1="20" y2="22"/>
<line clip-path="url(#clipPath2)" fill="none" x1="667" x2="667" y1="621" y2="619"/>
<line clip-path="url(#clipPath2)" fill="none" x1="686" x2="686" y1="18" y2="22"/>
<line clip-path="url(#clipPath2)" fill="none" x1="686" x2="686" y1="623" y2="619"/>
<text x="675" font-size="10" y="13" clip-path="url(#clipPath2)" stroke="none" xml:space="preserve">0.035</text>
<text x="675" font-size="10" y="634" clip-path="url(#clipPath2)" stroke="none" xml:space="preserve">0.035</text>
<line clip-path="url(#clipPath2)" fill="none" x1="705" x2="705" y1="20" y2="22"/>
<line clip-path="url(#clipPath2)" fill="none" x1="705" x2="705" y1="621" y2="619"/>
<line clip-path="url(#clipPath2)" fill="none" x1="723" x2="723" y1="20" y2="22"/>
<line clip-path="url(#clipPath2)" fill="none" x1="723" x2="723" y1="621" y2="619"/>
<line clip-path="url(#clipPath2)" fill="none" x1="742" x2="742" y1="20" y2="22"/>
<line clip-path="url(#clipPath2)" fill="none" x1="742" x2="742" y1="621" y2="619"/>
<line clip-path="url(#clipPath2)" fill="none" x1="761" x2="761" y1="20" y2="22"/>
<line clip-path="url(#clipPath2)" fill="none" x1="761" x2="761" y1="621" y2="619"/>
<line clip-path="url(#clipPath2)" fill="none" x1="779" x2="779" y1="18" y2="22"/>
<line clip-path="url(#clipPath2)" fill="none" x1="779" x2="779" y1="623" y2="619"/>
<text x="768" font-size="10" y="13" clip-path="url(#clipPath2)" stroke="none" xml:space="preserve">0.040</text>
<text x="768" font-size="10" y="634" clip-path="url(#clipPath2)" stroke="none" xml:space="preserve">0.040</text>
<line clip-path="url(#clipPath2)" fill="none" x1="798" x2="798" y1="20" y2="22"/>
<line clip-path="url(#clipPath2)" fill="none" x1="798" x2="798" y1="621" y2="619"/>
<line clip-path="url(#clipPath2)" fill="none" x1="817" x2="817" y1="20" y2="22"/>
<line clip-path="url(#clipPath2)" fill="none" x1="817" x2="817" y1="621" y2="619"/>
<line clip-path="url(#clipPath2)" fill="none" x1="836" x2="836" y1="20" y2="22"/>
<line clip-path="url(#clipPath2)" fill="none" x1="836" x2="836" y1="621" y2="619"/>
<line clip-path="url(#clipPath2)" fill="none" x1="854" x2="854" y1="20" y2="22"/>
<line clip-path="url(#clipPath2)" fill="none" x1="854" x2="854" y1="621" y2="619"/>
<line clip-path="url(#clipPath2)" fill="none" x1="873" x2="873" y1="18" y2="22"/>
<line clip-path="url(#clipPath2)" fill="none" x1="873" x2="873" y1="623" y2="619"/>
<text x="862" font-size="10" y="13" clip-path="url(#clipPath2)" stroke="none" xml:space="preserve">0.045</text>
<text x="862" font-size="10" y="634" clip-path="url(#clipPath2)" stroke="none" xml:space="preserve">0.045</text>
<line clip-path="url(#clipPath2)" fill="none" x1="892" x2="892" y1="20" y2="22"/>
<line clip-path="url(#clipPath2)" fill="none" x1="892" x2="892" y1="621" y2="619"/>
<line clip-path="url(#clipPath2)" fill="none" x1="911" x2="911" y1="20" y2="22"/>
<line clip-path="url(#clipPath2)" fill="none" x1="911" x2="911" y1="621" y2="619"/>
<line clip-path="url(#clipPath2)" fill="none" x1="929" x2="929" y1="20" y2="22"/>
<line clip-path="url(#clipPath2)" fill="none" x1="929" x2="929" y1="621" y2="619"/>
<line clip-path="url(#clipPath2)" fill="none" x1="948" x2="948" y1="20" y2="22"/>
<line clip-path="url(#clipPath2)" fill="none" x1="948" x2="948" y1="621" y2="619"/>
<line clip-path="url(#clipPath2)" fill="none" x1="967" x2="967" y1="18" y2="22"/>
<line clip-path="url(#clipPath2)" fill="none" x1="967" x2="967" y1="623" y2="619"/>
<text x="956" font-size="10" y="13" clip-path="url(#clipPath2)" stroke="none" xml:space="preserve">0.050</text>
<text x="956" font-size="10" y="634" clip-path="url(#clipPath2)" stroke="none" xml:space="preserve">0.050</text>
<line clip-path="url(#clipPath2)" fill="none" x1="985" x2="985" y1="20" y2="22"/>
<line clip-path="url(#clipPath2)" fill="none" x1="985" x2="985" y1="621" y2="619"/>
<line clip-path="url(#clipPath2)" fill="none" x1="1004" x2="1004" y1="20" y2="22"/>
<line clip-path="url(#clipPath2)" fill="none" x1="1004" x2="1004" y1="621" y2="619"/>
<line clip-path="url(#clipPath2)" fill="none" x1="1023" x2="1023" y1="20" y2="22"/>
<line clip-path="url(#clipPath2)" fill="none" x1="1023" x2="1023" y1="621" y2="619"/>
<line clip-path="url(#clipPath2)" fill="none" x1="1042" x2="1042" y1="20" y2="22"/>
<line clip-path="url(#clipPath2)" fill="none" x1="1042" x2="1042" y1="621" y2="619"/>
<line clip-path="url(#clipPath2)" fill="none" x1="1060" x2="1060" y1="18" y2="22"/>
<line clip-path="url(#clipPath2)" fill="none" x1="1060" x2="1060" y1="623" y2="619"/>
<text x="1049" font-size="10" y="13" clip-path="url(#clipPath2)" stroke="none" xml:space="preserve">0.055</text>
<text x="1049" font-size="10" y="634" clip-path="url(#clipPath2)" stroke="none" xml:space="preserve">0.055</text>
<line clip-path="url(#clipPath2)" fill="none" x1="1079" x2="1079" y1="20" y2="22"/>
<line clip-path="url(#clipPath2)" fill="none" x1="1079" x2="1079" y1="621" y2="619"/>
<line clip-path="url(#clipPath2)" fill="none" x1="1098" x2="1098" y1="20" y2="22"/>
<line clip-path="url(#clipPath2)" fill="none" x1="1098" x2="1098" y1="621" y2="619"/>
<line clip-path="url(#clipPath2)" fill="none" x1="1116" x2="1116" y1="20" y2="22"/>
<line clip-path="url(#clipPath2)" fill="none" x1="1116" x2="1116" y1="621" y2="619"/>
<line clip-path="url(#clipPath2)" fill="none" x1="1135" x2="1135" y1="20" y2="22"/>
<line clip-path="url(#clipPath2)" fill="none" x1="1135" x2="1135" y1="621" y2="619"/>
<line clip-path="url(#clipPath2)" fill="none" x1="1154" x2="1154" y1="18" y2="22"/>
<line clip-path="url(#clipPath2)" fill="none" x1="1154" x2="1154" y1="623" y2="619"/>
<text x="1143" font-size="10" y="13" clip-path="url(#clipPath2)" stroke="none" xml:space="preserve">0.060</text>
<text x="1143" font-size="10" y="634" clip-path="url(#clipPath2)" stroke="none" xml:space="preserve">0.060</text>
<line clip-path="url(#clipPath2)" fill="none" x1="1173" x2="1173" y1="20" y2="22"/>
<line clip-path="url(#clipPath2)" fill="none" x1="1173" x2="1173" y1="621" y2="619"/>
<line clip-path="url(#clipPath2)" fill="none" x1="1191" x2="1191" y1="20" y2="22"/>
<line clip-path="url(#clipPath2)" fill="none" x1="1191" x2="1191" y1="621" y2="619"/>
<line clip-path="url(#clipPath2)" fill="none" x1="1210" x2="1210" y1="20" y2="22"/>
<line clip-path="url(#clipPath2)" fill="none" x1="1210" x2="1210" y1="621" y2="619"/>
<line clip-path="url(#clipPath2)" fill="none" x1="1229" x2="1229" y1="20" y2="22"/>
<line clip-path="url(#clipPath2)" fill="none" x1="1229" x2="1229" y1="621" y2="619"/>
<line clip-path="url(#clipPath2)" fill="none" x1="1248" x2="1248" y1="18" y2="22"/>
<line clip-path="url(#clipPath2)" fill="none" x1="1248" x2="1248" y1="623" y2="619"/>
<text x="1237" font-size="10" y="13" clip-path="url(#clipPath2)" stroke="none" xml:space="preserve">0.065</text>
<text x="1237" font-size="10" y="634" clip-path="url(#clipPath2)" stroke="none" xml:space="preserve">0.065</text>
<line clip-path="url(#clipPath2)" fill="none" x1="1266" x2="1266" y1="20" y2="22"/>
<line clip-path="url(#clipPath2)" fill="none" x1="1266" x2="1266" y1="621" y2="619"/>
<line clip-path="url(#clipPath2)" fill="none" x1="1285" x2="1285" y1="20" y2="22"/>
<line clip-path="url(#clipPath2)" fill="none" x1="1285" x2="1285" y1="621" y2="619"/>
<line clip-path="url(#clipPath2)" fill="none" x1="1304" x2="1304" y1="20" y2="22"/>
<line clip-path="url(#clipPath2)" fill="none" x1="1304" x2="1304" y1="621" y2="619"/>
<line clip-path="url(#clipPath2)" fill="none" x1="1322" x2="1322" y1="20" y2="22"/>
<line clip-path="url(#clipPath2)" fill="none" x1="1322" x2="1322" y1="621" y2="619"/>
<line clip-path="url(#clipPath2)" fill="none" x1="1341" x2="1341" y1="18" y2="22"/>
<line clip-path="url(#clipPath2)" fill="none" x1="1341" x2="1341" y1="623" y2="619"/>
<text x="1330" font-size="10" y="13" clip-path="url(#clipPath2)" stroke="none" xml:space="preserve">0.070</text>
<text x="1330" font-size="10" y="634" clip-path="url(#clipPath2)" stroke="none" xml:space="preserve">0.070</text>
<line clip-path="url(#clipPath2)" fill="none" x1="1360" x2="1360" y1="20" y2="22"/>
<line clip-path="url(#clipPath2)" fill="none" x1="1360" x2="1360" y1="621" y2="619"/>
<line clip-path="url(#clipPath2)" fill="none" x1="29" x2="29" y1="24" y2="617"/>
<line clip-path="url(#clipPath2)" fill="none" x1="1379" x2="1379" y1="24" y2="617"/>
<line clip-path="url(#clipPath2)" fill="none" x1="25" x2="29" y1="617" y2="617"/>
<line clip-path="url(#clipPath2)" fill="none" x1="1383" x2="1379" y1="617" y2="617"/>
<text x="9" font-size="10" y="620" clip-path="url(#clipPath2)" stroke="none" xml:space="preserve">0.0</text>
<text x="1386" font-size="10" y="620" clip-path="url(#clipPath2)" stroke="none" xml:space="preserve">0.0</text>
<line clip-path="url(#clipPath2)" fill="none" x1="27" x2="29" y1="605" y2="605"/>
<line clip-path="url(#clipPath2)" fill="none" x1="1381" x2="1379" y1="605" y2="605"/>
<line clip-path="url(#clipPath2)" fill="none" x1="27" x2="29" y1="593" y2="593"/>
<line clip-path="url(#clipPath2)" fill="none" x1="1381" x2="1379" y1="593" y2="593"/>
<line clip-path="url(#clipPath2)" fill="none" x1="27" x2="29" y1="581" y2="581"/>
<line clip-path="url(#clipPath2)" fill="none" x1="1381" x2="1379" y1="581" y2="581"/>
<line clip-path="url(#clipPath2)" fill="none" x1="27" x2="29" y1="569" y2="569"/>
<line clip-path="url(#clipPath2)" fill="none" x1="1381" x2="1379" y1="569" y2="569"/>
<line clip-path="url(#clipPath2)" fill="none" x1="25" x2="29" y1="557" y2="557"/>
<line clip-path="url(#clipPath2)" fill="none" x1="1383" x2="1379" y1="557" y2="557"/>
<text x="4" font-size="10" y="560" clip-path="url(#clipPath2)" stroke="none" xml:space="preserve">0.10</text>
<text x="1386" font-size="10" y="560" clip-path="url(#clipPath2)" stroke="none" xml:space="preserve">0.10</text>
<line clip-path="url(#clipPath2)" fill="none" x1="27" x2="29" y1="545" y2="545"/>
<line clip-path="url(#clipPath2)" fill="none" x1="1381" x2="1379" y1="545" y2="545"/>
<line clip-path="url(#clipPath2)" fill="none" x1="27" x2="29" y1="533" y2="533"/>
<line clip-path="url(#clipPath2)" fill="none" x1="1381" x2="1379" y1="533" y2="533"/>
<line clip-path="url(#clipPath2)" fill="none" x1="27" x2="29" y1="522" y2="522"/>
<line clip-path="url(#clipPath2)" fill="none" x1="1381" x2="1379" y1="522" y2="522"/>
<line clip-path="url(#clipPath2)" fill="none" x1="27" x2="29" y1="510" y2="510"/>
<line clip-path="url(#clipPath2)" fill="none" x1="1381" x2="1379" y1="510" y2="510"/>
<line clip-path="url(#clipPath2)" fill="none" x1="25" x2="29" y1="498" y2="498"/>
<line clip-path="url(#clipPath2)" fill="none" x1="1383" x2="1379" y1="498" y2="498"/>
<text x="4" font-size="10" y="501" clip-path="url(#clipPath2)" stroke="none" xml:space="preserve">0.20</text>
<text x="1386" font-size="10" y="501" clip-path="url(#clipPath2)" stroke="none" xml:space="preserve">0.20</text>
<line clip-path="url(#clipPath2)" fill="none" x1="27" x2="29" y1="486" y2="486"/>
<line clip-path="url(#clipPath2)" fill="none" x1="1381" x2="1379" y1="486" y2="486"/>
<line clip-path="url(#clipPath2)" fill="none" x1="27" x2="29" y1="474" y2="474"/>
<line clip-path="url(#clipPath2)" fill="none" x1="1381" x2="1379" y1="474" y2="474"/>
<line clip-path="url(#clipPath2)" fill="none" x1="27" x2="29" y1="462" y2="462"/>
<line clip-path="url(#clipPath2)" fill="none" x1="1381" x2="1379" y1="462" y2="462"/>
<line clip-path="url(#clipPath2)" fill="none" x1="27" x2="29" y1="450" y2="450"/>
<line clip-path="url(#clipPath2)" fill="none" x1="1381" x2="1379" y1="450" y2="450"/>
<line clip-path="url(#clipPath2)" fill="none" x1="25" x2="29" y1="439" y2="439"/>
<line clip-path="url(#clipPath2)" fill="none" x1="1383" x2="1379" y1="439" y2="439"/>
<text x="4" font-size="10" y="442" clip-path="url(#clipPath2)" stroke="none" xml:space="preserve">0.30</text>
<text x="1386" font-size="10" y="442" clip-path="url(#clipPath2)" stroke="none" xml:space="preserve">0.30</text>
<line clip-path="url(#clipPath2)" fill="none" x1="27" x2="29" y1="427" y2="427"/>
<line clip-path="url(#clipPath2)" fill="none" x1="1381" x2="1379" y1="427" y2="427"/>
<line clip-path="url(#clipPath2)" fill="none" x1="27" x2="29" y1="415" y2="415"/>
<line clip-path="url(#clipPath2)" fill="none" x1="1381" x2="1379" y1="415" y2="415"/>
<line clip-path="url(#clipPath2)" fill="none" x1="27" x2="29" y1="403" y2="403"/>
<line clip-path="url(#clipPath2)" fill="none" x1="1381" x2="1379" y1="403" y2="403"/>
<line clip-path="url(#clipPath2)" fill="none" x1="27" x2="29" y1="391" y2="391"/>
<line clip-path="url(#clipPath2)" fill="none" x1="1381" x2="1379" y1="391" y2="391"/>
<line clip-path="url(#clipPath2)" fill="none" x1="25" x2="29" y1="379" y2="379"/>
<line clip-path="url(#clipPath2)" fill="none" x1="1383" x2="1379" y1="379" y2="379"/>
<text x="4" font-size="10" y="382" clip-path="url(#clipPath2)" stroke="none" xml:space="preserve">0.40</text>
<text x="1386" font-size="10" y="382" clip-path="url(#clipPath2)" stroke="none" xml:space="preserve">0.40</text>
<line clip-path="url(#clipPath2)" fill="none" x1="27" x2="29" y1="367" y2="367"/>
<line clip-path="url(#clipPath2)" fill="none" x1="1381" x2="1379" y1="367" y2="367"/>
<line clip-path="url(#clipPath2)" fill="none" x1="27" x2="29" y1="356" y2="356"/>
<line clip-path="url(#clipPath2)" fill="none" x1="1381" x2="1379" y1="356" y2="356"/>
<line clip-path="url(#clipPath2)" fill="none" x1="27" x2="29" y1="344" y2="344"/>
<line clip-path="url(#clipPath2)" fill="none" x1="1381" x2="1379" y1="344" y2="344"/>
<line clip-path="url(#clipPath2)" fill="none" x1="27" x2="29" y1="332" y2="332"/>
<line clip-path="url(#clipPath2)" fill="none" x1="1381" x2="1379" y1="332" y2="332"/>
<line clip-path="url(#clipPath2)" fill="none" x1="25" x2="29" y1="320" y2="320"/>
<line clip-path="url(#clipPath2)" fill="none" x1="1383" x2="1379" y1="320" y2="320"/>
<text x="4" font-size="10" y="323" clip-path="url(#clipPath2)" stroke="none" xml:space="preserve">0.50</text>
<text x="1386" font-size="10" y="323" clip-path="url(#clipPath2)" stroke="none" xml:space="preserve">0.50</text>
<line clip-path="url(#clipPath2)" fill="none" x1="27" x2="29" y1="308" y2="308"/>
<line clip-path="url(#clipPath2)" fill="none" x1="1381" x2="1379" y1="308" y2="308"/>
<line clip-path="url(#clipPath2)" fill="none" x1="27" x2="29" y1="296" y2="296"/>
<line clip-path="url(#clipPath2)" fill="none" x1="1381" x2="1379" y1="296" y2="296"/>
<line clip-path="url(#clipPath2)" fill="none" x1="27" x2="29" y1="284" y2="284"/>
<line clip-path="url(#clipPath2)" fill="none" x1="1381" x2="1379" y1="284" y2="284"/>
<line clip-path="url(#clipPath2)" fill="none" x1="27" x2="29" y1="273" y2="273"/>
<line clip-path="url(#clipPath2)" fill="none" x1="1381" x2="1379" y1="273" y2="273"/>
<line clip-path="url(#clipPath2)" fill="none" x1="25" x2="29" y1="261" y2="261"/>
<line clip-path="url(#clipPath2)" fill="none" x1="1383" x2="1379" y1="261" y2="261"/>
<text x="4" font-size="10" y="264" clip-path="url(#clipPath2)" stroke="none" xml:space="preserve">0.60</text>
<text x="1386" font-size="10" y="264" clip-path="url(#clipPath2)" stroke="none" xml:space="preserve">0.60</text>
<line clip-path="url(#clipPath2)" fill="none" x1="27" x2="29" y1="249" y2="249"/>
<line clip-path="url(#clipPath2)" fill="none" x1="1381" x2="1379" y1="249" y2="249"/>
<line clip-path="url(#clipPath2)" fill="none" x1="27" x2="29" y1="237" y2="237"/>
<line clip-path="url(#clipPath2)" fill="none" x1="1381" x2="1379" y1="237" y2="237"/>
<line clip-path="url(#clipPath2)" fill="none" x1="27" x2="29" y1="225" y2="225"/>
<line clip-path="url(#clipPath2)" fill="none" x1="1381" x2="1379" y1="225" y2="225"/>
<line clip-path="url(#clipPath2)" fill="none" x1="27" x2="29" y1="213" y2="213"/>
<line clip-path="url(#clipPath2)" fill="none" x1="1381" x2="1379" y1="213" y2="213"/>
<line clip-path="url(#clipPath2)" fill="none" x1="25" x2="29" y1="201" y2="201"/>
<line clip-path="url(#clipPath2)" fill="none" x1="1383" x2="1379" y1="201" y2="201"/>
<text x="4" font-size="10" y="204" clip-path="url(#clipPath2)" stroke="none" xml:space="preserve">0.70</text>
<text x="1386" font-size="10" y="204" clip-path="url(#clipPath2)" stroke="none" xml:space="preserve">0.70</text>
<line clip-path="url(#clipPath2)" fill="none" x1="27" x2="29" y1="190" y2="190"/>
<line clip-path="url(#clipPath2)" fill="none" x1="1381" x2="1379" y1="190" y2="190"/>
<line clip-path="url(#clipPath2)" fill="none" x1="27" x2="29" y1="178" y2="178"/>
<line clip-path="url(#clipPath2)" fill="none" x1="1381" x2="1379" y1="178" y2="178"/>
<line clip-path="url(#clipPath2)" fill="none" x1="27" x2="29" y1="166" y2="166"/>
<line clip-path="url(#clipPath2)" fill="none" x1="1381" x2="1379" y1="166" y2="166"/>
<line clip-path="url(#clipPath2)" fill="none" x1="27" x2="29" y1="154" y2="154"/>
<line clip-path="url(#clipPath2)" fill="none" x1="1381" x2="1379" y1="154" y2="154"/>
<line clip-path="url(#clipPath2)" fill="none" x1="25" x2="29" y1="142" y2="142"/>
<line clip-path="url(#clipPath2)" fill="none" x1="1383" x2="1379" y1="142" y2="142"/>
<text x="4" font-size="10" y="145" clip-path="url(#clipPath2)" stroke="none" xml:space="preserve">0.80</text>
<text x="1386" font-size="10" y="145" clip-path="url(#clipPath2)" stroke="none" xml:space="preserve">0.80</text>
<line clip-path="url(#clipPath2)" fill="none" x1="27" x2="29" y1="130" y2="130"/>
<line clip-path="url(#clipPath2)" fill="none" x1="1381" x2="1379" y1="130" y2="130"/>
<line clip-path="url(#clipPath2)" fill="none" x1="27" x2="29" y1="118" y2="118"/>
<line clip-path="url(#clipPath2)" fill="none" x1="1381" x2="1379" y1="118" y2="118"/>
<line clip-path="url(#clipPath2)" fill="none" x1="27" x2="29" y1="107" y2="107"/>
<line clip-path="url(#clipPath2)" fill="none" x1="1381" x2="1379" y1="107" y2="107"/>
<line clip-path="url(#clipPath2)" fill="none" x1="27" x2="29" y1="95" y2="95"/>
<line clip-path="url(#clipPath2)" fill="none" x1="1381" x2="1379" y1="95" y2="95"/>
<line clip-path="url(#clipPath2)" fill="none" x1="25" x2="29" y1="83" y2="83"/>
<line clip-path="url(#clipPath2)" fill="none" x1="1383" x2="1379" y1="83" y2="83"/>
<text x="4" font-size="10" y="86" clip-path="url(#clipPath2)" stroke="none" xml:space="preserve">0.90</text>
<text x="1386" font-size="10" y="86" clip-path="url(#clipPath2)" stroke="none" xml:space="preserve">0.90</text>
<line clip-path="url(#clipPath2)" fill="none" x1="27" x2="29" y1="71" y2="71"/>
<line clip-path="url(#clipPath2)" fill="none" x1="1381" x2="1379" y1="71" y2="71"/>
<line clip-path="url(#clipPath2)" fill="none" x1="27" x2="29" y1="59" y2="59"/>
<line clip-path="url(#clipPath2)" fill="none" x1="1381" x2="1379" y1="59" y2="59"/>
<line clip-path="url(#clipPath2)" fill="none" x1="27" x2="29" y1="47" y2="47"/>
<line clip-path="url(#clipPath2)" fill="none" x1="1381" x2="1379" y1="47" y2="47"/>
<line clip-path="url(#clipPath2)" fill="none" x1="27" x2="29" y1="35" y2="35"/>
<line clip-path="url(#clipPath2)" fill="none" x1="1381" x2="1379" y1="35" y2="35"/>
</g>
</g>
</svg>
