<?xml version="1.0" encoding="UTF-8"?><svg xmlns="http://www.w3.org/2000/svg" xmlns:xlink="http://www.w3.org/1999/xlink" stroke-dasharray="none" shape-rendering="auto" font-family="'Dialog'" width="1408" text-rendering="auto" fill-opacity="1" contentScriptType="text/ecmascript" color-interpolation="auto" color-rendering="auto" preserveAspectRatio="xMidYMid meet" font-size="12" fill="black" stroke="black" image-rendering="auto" stroke-miterlimit="10" zoomAndPan="magnify" version="1.0" stroke-linecap="square" stroke-linejoin="miter" contentStyleType="text/css" font-style="normal" height="641" stroke-width="1" stroke-dashoffset="0" font-weight="normal" stroke-opacity="1">
<!--Generated by the Batik Graphics2D SVG Generator-->
<defs id="genericDefs"/>
<g>
<defs id="defs1">
<clipPath clipPathUnits="userSpaceOnUse" id="clipPath1">
<path d="M37 23 L1371 23 L1371 618 L37 618 L37 23 Z"/>
</clipPath>
<clipPath clipPathUnits="userSpaceOnUse" id="clipPath2">
<path d="M-1 -1 L1409 -1 L1409 642 L-1 642 L-1 -1 Z"/>
</clipPath>
</defs>
<g fill="white" text-rendering="geometricPrecision" font-family="'Segoe UI'" stroke-linejoin="round" stroke="white" stroke-width="0" stroke-miterlimit="0">
<rect x="38" y="24" clip-path="url(#clipPath1)" width="1332" height="593" stroke="none"/>
</g>
<g stroke-linecap="butt" fill="rgb(204,204,204)" text-rendering="geometricPrecision" font-family="'Segoe UI'" stroke-dasharray="3,3" stroke="rgb(204,204,204)">
<line clip-path="url(#clipPath1)" fill="none" x1="38" x2="38" y1="24" y2="617"/>
<line clip-path="url(#clipPath1)" fill="none" x1="130" x2="130" y1="24" y2="617"/>
<line clip-path="url(#clipPath1)" fill="none" x1="223" x2="223" y1="24" y2="617"/>
<line clip-path="url(#clipPath1)" fill="none" x1="315" x2="315" y1="24" y2="617"/>
<line clip-path="url(#clipPath1)" fill="none" x1="408" x2="408" y1="24" y2="617"/>
<line clip-path="url(#clipPath1)" fill="none" x1="501" x2="501" y1="24" y2="617"/>
<line clip-path="url(#clipPath1)" fill="none" x1="593" x2="593" y1="24" y2="617"/>
<line clip-path="url(#clipPath1)" fill="none" x1="686" x2="686" y1="24" y2="617"/>
<line clip-path="url(#clipPath1)" fill="none" x1="779" x2="779" y1="24" y2="617"/>
<line clip-path="url(#clipPath1)" fill="none" x1="871" x2="871" y1="24" y2="617"/>
<line clip-path="url(#clipPath1)" fill="none" x1="964" x2="964" y1="24" y2="617"/>
<line clip-path="url(#clipPath1)" fill="none" x1="1057" x2="1057" y1="24" y2="617"/>
<line clip-path="url(#clipPath1)" fill="none" x1="1149" x2="1149" y1="24" y2="617"/>
<line clip-path="url(#clipPath1)" fill="none" x1="1242" x2="1242" y1="24" y2="617"/>
<line clip-path="url(#clipPath1)" fill="none" x1="1335" x2="1335" y1="24" y2="617"/>
<line clip-path="url(#clipPath1)" fill="none" x1="38" x2="1370" y1="617" y2="617"/>
<line clip-path="url(#clipPath1)" fill="none" x1="38" x2="1370" y1="529" y2="529"/>
<line clip-path="url(#clipPath1)" fill="none" x1="38" x2="1370" y1="442" y2="442"/>
<line clip-path="url(#clipPath1)" fill="none" x1="38" x2="1370" y1="355" y2="355"/>
<line clip-path="url(#clipPath1)" fill="none" x1="38" x2="1370" y1="268" y2="268"/>
<line clip-path="url(#clipPath1)" fill="none" x1="38" x2="1370" y1="181" y2="181"/>
<line clip-path="url(#clipPath1)" fill="none" x1="38" x2="1370" y1="94" y2="94"/>
<rect x="54" y="609" clip-path="url(#clipPath1)" fill="rgb(0,0,139)" width="5" height="5" stroke="none"/>
<line clip-path="url(#clipPath1)" fill="none" x1="56" x2="75" y1="611" y2="605" stroke-dasharray="none" stroke="rgb(0,0,139)"/>
<rect x="73" y="603" clip-path="url(#clipPath1)" fill="rgb(0,0,139)" width="5" stroke-dasharray="none" height="5" stroke="none"/>
<line clip-path="url(#clipPath1)" fill="none" x1="75" x2="93" y1="605" y2="599" stroke-dasharray="none" stroke="rgb(0,0,139)"/>
<rect x="91" y="597" clip-path="url(#clipPath1)" fill="rgb(0,0,139)" width="5" stroke-dasharray="none" height="5" stroke="none"/>
<line clip-path="url(#clipPath1)" fill="none" x1="93" x2="112" y1="599" y2="592" stroke-dasharray="none" stroke="rgb(0,0,139)"/>
<rect x="110" y="590" clip-path="url(#clipPath1)" fill="rgb(0,0,139)" width="5" stroke-dasharray="none" height="5" stroke="none"/>
<line clip-path="url(#clipPath1)" fill="none" x1="112" x2="130" y1="592" y2="586" stroke-dasharray="none" stroke="rgb(0,0,139)"/>
<rect x="128" y="584" clip-path="url(#clipPath1)" fill="rgb(0,0,139)" width="5" stroke-dasharray="none" height="5" stroke="none"/>
<line clip-path="url(#clipPath1)" fill="none" x1="130" x2="149" y1="586" y2="580" stroke-dasharray="none" stroke="rgb(0,0,139)"/>
<rect x="147" y="578" clip-path="url(#clipPath1)" fill="rgb(0,0,139)" width="5" stroke-dasharray="none" height="5" stroke="none"/>
<line clip-path="url(#clipPath1)" fill="none" x1="149" x2="167" y1="580" y2="573" stroke-dasharray="none" stroke="rgb(0,0,139)"/>
<rect x="165" y="571" clip-path="url(#clipPath1)" fill="rgb(0,0,139)" width="5" stroke-dasharray="none" height="5" stroke="none"/>
<line clip-path="url(#clipPath1)" fill="none" x1="167" x2="186" y1="573" y2="567" stroke-dasharray="none" stroke="rgb(0,0,139)"/>
<rect x="184" y="565" clip-path="url(#clipPath1)" fill="rgb(0,0,139)" width="5" stroke-dasharray="none" height="5" stroke="none"/>
<line clip-path="url(#clipPath1)" fill="none" x1="186" x2="204" y1="567" y2="561" stroke-dasharray="none" stroke="rgb(0,0,139)"/>
<rect x="202" y="559" clip-path="url(#clipPath1)" fill="rgb(0,0,139)" width="5" stroke-dasharray="none" height="5" stroke="none"/>
<line clip-path="url(#clipPath1)" fill="none" x1="204" x2="223" y1="561" y2="554" stroke-dasharray="none" stroke="rgb(0,0,139)"/>
<rect x="221" y="552" clip-path="url(#clipPath1)" fill="rgb(0,0,139)" width="5" stroke-dasharray="none" height="5" stroke="none"/>
<line clip-path="url(#clipPath1)" fill="none" x1="223" x2="241" y1="554" y2="548" stroke-dasharray="none" stroke="rgb(0,0,139)"/>
<rect x="239" y="546" clip-path="url(#clipPath1)" fill="rgb(0,0,139)" width="5" stroke-dasharray="none" height="5" stroke="none"/>
<line clip-path="url(#clipPath1)" fill="none" x1="241" x2="260" y1="548" y2="542" stroke-dasharray="none" stroke="rgb(0,0,139)"/>
<rect x="258" y="540" clip-path="url(#clipPath1)" fill="rgb(0,0,139)" width="5" stroke-dasharray="none" height="5" stroke="none"/>
<line clip-path="url(#clipPath1)" fill="none" x1="260" x2="278" y1="542" y2="535" stroke-dasharray="none" stroke="rgb(0,0,139)"/>
<rect x="276" y="533" clip-path="url(#clipPath1)" fill="rgb(0,0,139)" width="5" stroke-dasharray="none" height="5" stroke="none"/>
<line clip-path="url(#clipPath1)" fill="none" x1="278" x2="297" y1="535" y2="530" stroke-dasharray="none" stroke="rgb(0,0,139)"/>
<rect x="295" y="528" clip-path="url(#clipPath1)" fill="rgb(0,0,139)" width="5" stroke-dasharray="none" height="5" stroke="none"/>
<line clip-path="url(#clipPath1)" fill="none" x1="297" x2="315" y1="530" y2="523" stroke-dasharray="none" stroke="rgb(0,0,139)"/>
<rect x="313" y="521" clip-path="url(#clipPath1)" fill="rgb(0,0,139)" width="5" stroke-dasharray="none" height="5" stroke="none"/>
<line clip-path="url(#clipPath1)" fill="none" x1="315" x2="334" y1="523" y2="517" stroke-dasharray="none" stroke="rgb(0,0,139)"/>
<rect x="332" y="515" clip-path="url(#clipPath1)" fill="rgb(0,0,139)" width="5" stroke-dasharray="none" height="5" stroke="none"/>
<line clip-path="url(#clipPath1)" fill="none" x1="334" x2="352" y1="517" y2="511" stroke-dasharray="none" stroke="rgb(0,0,139)"/>
<rect x="350" y="509" clip-path="url(#clipPath1)" fill="rgb(0,0,139)" width="5" stroke-dasharray="none" height="5" stroke="none"/>
<line clip-path="url(#clipPath1)" fill="none" x1="352" x2="371" y1="511" y2="504" stroke-dasharray="none" stroke="rgb(0,0,139)"/>
<rect x="369" y="502" clip-path="url(#clipPath1)" fill="rgb(0,0,139)" width="5" stroke-dasharray="none" height="5" stroke="none"/>
<line clip-path="url(#clipPath1)" fill="none" x1="371" x2="390" y1="504" y2="498" stroke-dasharray="none" stroke="rgb(0,0,139)"/>
<rect x="388" y="496" clip-path="url(#clipPath1)" fill="rgb(0,0,139)" width="5" stroke-dasharray="none" height="5" stroke="none"/>
<line clip-path="url(#clipPath1)" fill="none" x1="390" x2="408" y1="498" y2="492" stroke-dasharray="none" stroke="rgb(0,0,139)"/>
<rect x="406" y="490" clip-path="url(#clipPath1)" fill="rgb(0,0,139)" width="5" stroke-dasharray="none" height="5" stroke="none"/>
<line clip-path="url(#clipPath1)" fill="none" x1="408" x2="427" y1="492" y2="486" stroke-dasharray="none" stroke="rgb(0,0,139)"/>
<rect x="425" y="484" clip-path="url(#clipPath1)" fill="rgb(0,0,139)" width="5" stroke-dasharray="none" height="5" stroke="none"/>
<line clip-path="url(#clipPath1)" fill="none" x1="427" x2="445" y1="486" y2="479" stroke-dasharray="none" stroke="rgb(0,0,139)"/>
<rect x="443" y="477" clip-path="url(#clipPath1)" fill="rgb(0,0,139)" width="5" stroke-dasharray="none" height="5" stroke="none"/>
<line clip-path="url(#clipPath1)" fill="none" x1="445" x2="464" y1="479" y2="473" stroke-dasharray="none" stroke="rgb(0,0,139)"/>
<rect x="462" y="471" clip-path="url(#clipPath1)" fill="rgb(0,0,139)" width="5" stroke-dasharray="none" height="5" stroke="none"/>
<line clip-path="url(#clipPath1)" fill="none" x1="464" x2="482" y1="473" y2="466" stroke-dasharray="none" stroke="rgb(0,0,139)"/>
<rect x="480" y="464" clip-path="url(#clipPath1)" fill="rgb(0,0,139)" width="5" stroke-dasharray="none" height="5" stroke="none"/>
<line clip-path="url(#clipPath1)" fill="none" x1="482" x2="501" y1="466" y2="460" stroke-dasharray="none" stroke="rgb(0,0,139)"/>
<rect x="499" y="458" clip-path="url(#clipPath1)" fill="rgb(0,0,139)" width="5" stroke-dasharray="none" height="5" stroke="none"/>
<line clip-path="url(#clipPath1)" fill="none" x1="501" x2="519" y1="460" y2="454" stroke-dasharray="none" stroke="rgb(0,0,139)"/>
<rect x="517" y="452" clip-path="url(#clipPath1)" fill="rgb(0,0,139)" width="5" stroke-dasharray="none" height="5" stroke="none"/>
<line clip-path="url(#clipPath1)" fill="none" x1="519" x2="538" y1="454" y2="448" stroke-dasharray="none" stroke="rgb(0,0,139)"/>
<rect x="536" y="446" clip-path="url(#clipPath1)" fill="rgb(0,0,139)" width="5" stroke-dasharray="none" height="5" stroke="none"/>
<line clip-path="url(#clipPath1)" fill="none" x1="538" x2="556" y1="448" y2="442" stroke-dasharray="none" stroke="rgb(0,0,139)"/>
<rect x="554" y="440" clip-path="url(#clipPath1)" fill="rgb(0,0,139)" width="5" stroke-dasharray="none" height="5" stroke="none"/>
<line clip-path="url(#clipPath1)" fill="none" x1="556" x2="575" y1="442" y2="435" stroke-dasharray="none" stroke="rgb(0,0,139)"/>
<rect x="573" y="433" clip-path="url(#clipPath1)" fill="rgb(0,0,139)" width="5" stroke-dasharray="none" height="5" stroke="none"/>
<line clip-path="url(#clipPath1)" fill="none" x1="575" x2="593" y1="435" y2="429" stroke-dasharray="none" stroke="rgb(0,0,139)"/>
<rect x="591" y="427" clip-path="url(#clipPath1)" fill="rgb(0,0,139)" width="5" stroke-dasharray="none" height="5" stroke="none"/>
<line clip-path="url(#clipPath1)" fill="none" x1="593" x2="612" y1="429" y2="423" stroke-dasharray="none" stroke="rgb(0,0,139)"/>
<rect x="610" y="421" clip-path="url(#clipPath1)" fill="rgb(0,0,139)" width="5" stroke-dasharray="none" height="5" stroke="none"/>
<line clip-path="url(#clipPath1)" fill="none" x1="612" x2="630" y1="423" y2="416" stroke-dasharray="none" stroke="rgb(0,0,139)"/>
<rect x="628" y="414" clip-path="url(#clipPath1)" fill="rgb(0,0,139)" width="5" stroke-dasharray="none" height="5" stroke="none"/>
<line clip-path="url(#clipPath1)" fill="none" x1="630" x2="649" y1="416" y2="410" stroke-dasharray="none" stroke="rgb(0,0,139)"/>
<rect x="647" y="408" clip-path="url(#clipPath1)" fill="rgb(0,0,139)" width="5" stroke-dasharray="none" height="5" stroke="none"/>
<line clip-path="url(#clipPath1)" fill="none" x1="649" x2="667" y1="410" y2="404" stroke-dasharray="none" stroke="rgb(0,0,139)"/>
<rect x="665" y="402" clip-path="url(#clipPath1)" fill="rgb(0,0,139)" width="5" stroke-dasharray="none" height="5" stroke="none"/>
<line clip-path="url(#clipPath1)" fill="none" x1="667" x2="686" y1="404" y2="398" stroke-dasharray="none" stroke="rgb(0,0,139)"/>
<rect x="684" y="396" clip-path="url(#clipPath1)" fill="rgb(0,0,139)" width="5" stroke-dasharray="none" height="5" stroke="none"/>
<line clip-path="url(#clipPath1)" fill="none" x1="686" x2="705" y1="398" y2="391" stroke-dasharray="none" stroke="rgb(0,0,139)"/>
<rect x="703" y="389" clip-path="url(#clipPath1)" fill="rgb(0,0,139)" width="5" stroke-dasharray="none" height="5" stroke="none"/>
<line clip-path="url(#clipPath1)" fill="none" x1="705" x2="723" y1="391" y2="385" stroke-dasharray="none" stroke="rgb(0,0,139)"/>
<rect x="721" y="383" clip-path="url(#clipPath1)" fill="rgb(0,0,139)" width="5" stroke-dasharray="none" height="5" stroke="none"/>
<line clip-path="url(#clipPath1)" fill="none" x1="723" x2="742" y1="385" y2="378" stroke-dasharray="none" stroke="rgb(0,0,139)"/>
<rect x="740" y="376" clip-path="url(#clipPath1)" fill="rgb(0,0,139)" width="5" stroke-dasharray="none" height="5" stroke="none"/>
<line clip-path="url(#clipPath1)" fill="none" x1="742" x2="760" y1="378" y2="372" stroke-dasharray="none" stroke="rgb(0,0,139)"/>
<rect x="758" y="370" clip-path="url(#clipPath1)" fill="rgb(0,0,139)" width="5" stroke-dasharray="none" height="5" stroke="none"/>
<line clip-path="url(#clipPath1)" fill="none" x1="760" x2="779" y1="372" y2="366" stroke-dasharray="none" stroke="rgb(0,0,139)"/>
<rect x="777" y="364" clip-path="url(#clipPath1)" fill="rgb(0,0,139)" width="5" stroke-dasharray="none" height="5" stroke="none"/>
<line clip-path="url(#clipPath1)" fill="none" x1="779" x2="797" y1="366" y2="360" stroke-dasharray="none" stroke="rgb(0,0,139)"/>
<rect x="795" y="358" clip-path="url(#clipPath1)" fill="rgb(0,0,139)" width="5" stroke-dasharray="none" height="5" stroke="none"/>
<line clip-path="url(#clipPath1)" fill="none" x1="797" x2="816" y1="360" y2="354" stroke-dasharray="none" stroke="rgb(0,0,139)"/>
<rect x="814" y="352" clip-path="url(#clipPath1)" fill="rgb(0,0,139)" width="5" stroke-dasharray="none" height="5" stroke="none"/>
<line clip-path="url(#clipPath1)" fill="none" x1="816" x2="834" y1="354" y2="348" stroke-dasharray="none" stroke="rgb(0,0,139)"/>
<rect x="832" y="346" clip-path="url(#clipPath1)" fill="rgb(0,0,139)" width="5" stroke-dasharray="none" height="5" stroke="none"/>
<line clip-path="url(#clipPath1)" fill="none" x1="834" x2="853" y1="348" y2="341" stroke-dasharray="none" stroke="rgb(0,0,139)"/>
<rect x="851" y="339" clip-path="url(#clipPath1)" fill="rgb(0,0,139)" width="5" stroke-dasharray="none" height="5" stroke="none"/>
<line clip-path="url(#clipPath1)" fill="none" x1="853" x2="871" y1="341" y2="335" stroke-dasharray="none" stroke="rgb(0,0,139)"/>
<rect x="869" y="333" clip-path="url(#clipPath1)" fill="rgb(0,0,139)" width="5" stroke-dasharray="none" height="5" stroke="none"/>
<line clip-path="url(#clipPath1)" fill="none" x1="871" x2="890" y1="335" y2="328" stroke-dasharray="none" stroke="rgb(0,0,139)"/>
<rect x="888" y="326" clip-path="url(#clipPath1)" fill="rgb(0,0,139)" width="5" stroke-dasharray="none" height="5" stroke="none"/>
<line clip-path="url(#clipPath1)" fill="none" x1="890" x2="908" y1="328" y2="322" stroke-dasharray="none" stroke="rgb(0,0,139)"/>
<rect x="906" y="320" clip-path="url(#clipPath1)" fill="rgb(0,0,139)" width="5" stroke-dasharray="none" height="5" stroke="none"/>
<line clip-path="url(#clipPath1)" fill="none" x1="908" x2="927" y1="322" y2="316" stroke-dasharray="none" stroke="rgb(0,0,139)"/>
<rect x="925" y="314" clip-path="url(#clipPath1)" fill="rgb(0,0,139)" width="5" stroke-dasharray="none" height="5" stroke="none"/>
<line clip-path="url(#clipPath1)" fill="none" x1="927" x2="945" y1="316" y2="310" stroke-dasharray="none" stroke="rgb(0,0,139)"/>
<rect x="943" y="308" clip-path="url(#clipPath1)" fill="rgb(0,0,139)" width="5" stroke-dasharray="none" height="5" stroke="none"/>
<line clip-path="url(#clipPath1)" fill="none" x1="945" x2="964" y1="310" y2="303" stroke-dasharray="none" stroke="rgb(0,0,139)"/>
<rect x="962" y="301" clip-path="url(#clipPath1)" fill="rgb(0,0,139)" width="5" stroke-dasharray="none" height="5" stroke="none"/>
<line clip-path="url(#clipPath1)" fill="none" x1="964" x2="982" y1="303" y2="297" stroke-dasharray="none" stroke="rgb(0,0,139)"/>
<rect x="980" y="295" clip-path="url(#clipPath1)" fill="rgb(0,0,139)" width="5" stroke-dasharray="none" height="5" stroke="none"/>
<line clip-path="url(#clipPath1)" fill="none" x1="982" x2="1001" y1="297" y2="291" stroke-dasharray="none" stroke="rgb(0,0,139)"/>
<rect x="999" y="289" clip-path="url(#clipPath1)" fill="rgb(0,0,139)" width="5" stroke-dasharray="none" height="5" stroke="none"/>
<line clip-path="url(#clipPath1)" fill="none" x1="1001" x2="1020" y1="291" y2="284" stroke-dasharray="none" stroke="rgb(0,0,139)"/>
<rect x="1018" y="282" clip-path="url(#clipPath1)" fill="rgb(0,0,139)" width="5" stroke-dasharray="none" height="5" stroke="none"/>
<line clip-path="url(#clipPath1)" fill="none" x1="1020" x2="1038" y1="284" y2="278" stroke-dasharray="none" stroke="rgb(0,0,139)"/>
<rect x="1036" y="276" clip-path="url(#clipPath1)" fill="rgb(0,0,139)" width="5" stroke-dasharray="none" height="5" stroke="none"/>
<line clip-path="url(#clipPath1)" fill="none" x1="1038" x2="1057" y1="278" y2="272" stroke-dasharray="none" stroke="rgb(0,0,139)"/>
<rect x="1055" y="270" clip-path="url(#clipPath1)" fill="rgb(0,0,139)" width="5" stroke-dasharray="none" height="5" stroke="none"/>
<line clip-path="url(#clipPath1)" fill="none" x1="1057" x2="1075" y1="272" y2="266" stroke-dasharray="none" stroke="rgb(0,0,139)"/>
<rect x="1073" y="264" clip-path="url(#clipPath1)" fill="rgb(0,0,139)" width="5" stroke-dasharray="none" height="5" stroke="none"/>
<line clip-path="url(#clipPath1)" fill="none" x1="1075" x2="1094" y1="266" y2="260" stroke-dasharray="none" stroke="rgb(0,0,139)"/>
<rect x="1092" y="258" clip-path="url(#clipPath1)" fill="rgb(0,0,139)" width="5" stroke-dasharray="none" height="5" stroke="none"/>
<line clip-path="url(#clipPath1)" fill="none" x1="1094" x2="1112" y1="260" y2="253" stroke-dasharray="none" stroke="rgb(0,0,139)"/>
<rect x="1110" y="251" clip-path="url(#clipPath1)" fill="rgb(0,0,139)" width="5" stroke-dasharray="none" height="5" stroke="none"/>
<line clip-path="url(#clipPath1)" fill="none" x1="1112" x2="1131" y1="253" y2="247" stroke-dasharray="none" stroke="rgb(0,0,139)"/>
<rect x="1129" y="245" clip-path="url(#clipPath1)" fill="rgb(0,0,139)" width="5" stroke-dasharray="none" height="5" stroke="none"/>
<line clip-path="url(#clipPath1)" fill="none" x1="1131" x2="1149" y1="247" y2="241" stroke-dasharray="none" stroke="rgb(0,0,139)"/>
<rect x="1147" y="239" clip-path="url(#clipPath1)" fill="rgb(0,0,139)" width="5" stroke-dasharray="none" height="5" stroke="none"/>
<line clip-path="url(#clipPath1)" fill="none" x1="1149" x2="1168" y1="241" y2="234" stroke-dasharray="none" stroke="rgb(0,0,139)"/>
<rect x="1166" y="232" clip-path="url(#clipPath1)" fill="rgb(0,0,139)" width="5" stroke-dasharray="none" height="5" stroke="none"/>
<line clip-path="url(#clipPath1)" fill="none" x1="1168" x2="1186" y1="234" y2="228" stroke-dasharray="none" stroke="rgb(0,0,139)"/>
<rect x="1184" y="226" clip-path="url(#clipPath1)" fill="rgb(0,0,139)" width="5" stroke-dasharray="none" height="5" stroke="none"/>
<line clip-path="url(#clipPath1)" fill="none" x1="1186" x2="1205" y1="228" y2="222" stroke-dasharray="none" stroke="rgb(0,0,139)"/>
<rect x="1203" y="220" clip-path="url(#clipPath1)" fill="rgb(0,0,139)" width="5" stroke-dasharray="none" height="5" stroke="none"/>
<line clip-path="url(#clipPath1)" fill="none" x1="1205" x2="1223" y1="222" y2="215" stroke-dasharray="none" stroke="rgb(0,0,139)"/>
<rect x="1221" y="213" clip-path="url(#clipPath1)" fill="rgb(0,0,139)" width="5" stroke-dasharray="none" height="5" stroke="none"/>
<line clip-path="url(#clipPath1)" fill="none" x1="1223" x2="1242" y1="215" y2="209" stroke-dasharray="none" stroke="rgb(0,0,139)"/>
<rect x="1240" y="207" clip-path="url(#clipPath1)" fill="rgb(0,0,139)" width="5" stroke-dasharray="none" height="5" stroke="none"/>
<line clip-path="url(#clipPath1)" fill="none" x1="1242" x2="1260" y1="209" y2="203" stroke-dasharray="none" stroke="rgb(0,0,139)"/>
<rect x="1258" y="201" clip-path="url(#clipPath1)" fill="rgb(0,0,139)" width="5" stroke-dasharray="none" height="5" stroke="none"/>
<line clip-path="url(#clipPath1)" fill="none" x1="1260" x2="1279" y1="203" y2="197" stroke-dasharray="none" stroke="rgb(0,0,139)"/>
<rect x="1277" y="195" clip-path="url(#clipPath1)" fill="rgb(0,0,139)" width="5" stroke-dasharray="none" height="5" stroke="none"/>
<line clip-path="url(#clipPath1)" fill="none" x1="1279" x2="1297" y1="197" y2="190" stroke-dasharray="none" stroke="rgb(0,0,139)"/>
<rect x="1295" y="188" clip-path="url(#clipPath1)" fill="rgb(0,0,139)" width="5" stroke-dasharray="none" height="5" stroke="none"/>
<line clip-path="url(#clipPath1)" fill="none" x1="1297" x2="1316" y1="190" y2="184" stroke-dasharray="none" stroke="rgb(0,0,139)"/>
<rect x="1314" y="182" clip-path="url(#clipPath1)" fill="rgb(0,0,139)" width="5" stroke-dasharray="none" height="5" stroke="none"/>
<line clip-path="url(#clipPath1)" fill="none" x1="1316" x2="1335" y1="184" y2="178" stroke-dasharray="none" stroke="rgb(0,0,139)"/>
<rect x="1333" y="176" clip-path="url(#clipPath1)" fill="rgb(0,0,139)" width="5" stroke-dasharray="none" height="5" stroke="none"/>
<line clip-path="url(#clipPath1)" fill="none" x1="1335" x2="1353" y1="178" y2="172" stroke-dasharray="none" stroke="rgb(0,0,139)"/>
<rect x="1351" y="170" clip-path="url(#clipPath1)" fill="rgb(0,0,139)" width="5" stroke-dasharray="none" height="5" stroke="none"/>
<rect x="38" y="24" clip-path="url(#clipPath2)" fill="none" width="1332" stroke-dasharray="none" height="593" stroke="black"/>
</g>
<g text-rendering="geometricPrecision" font-size="13" font-family="'Arial'" stroke-linecap="butt">
<line clip-path="url(#clipPath2)" fill="none" x1="38" x2="1370" y1="22" y2="22"/>
<line clip-path="url(#clipPath2)" fill="none" x1="38" x2="1370" y1="619" y2="619"/>
<line clip-path="url(#clipPath2)" fill="none" x1="38" x2="38" y1="18" y2="22"/>
<line clip-path="url(#clipPath2)" fill="none" x1="38" x2="38" y1="623" y2="619"/>
<text x="29" font-size="10" y="13" clip-path="url(#clipPath2)" stroke="none" xml:space="preserve">0.00</text>
<text x="29" font-size="10" y="634" clip-path="url(#clipPath2)" stroke="none" xml:space="preserve">0.00</text>
<line clip-path="url(#clipPath2)" fill="none" x1="56" x2="56" y1="20" y2="22"/>
<line clip-path="url(#clipPath2)" fill="none" x1="56" x2="56" y1="621" y2="619"/>
<line clip-path="url(#clipPath2)" fill="none" x1="75" x2="75" y1="20" y2="22"/>
<line clip-path="url(#clipPath2)" fill="none" x1="75" x2="75" y1="621" y2="619"/>
<line clip-path="url(#clipPath2)" fill="none" x1="93" x2="93" y1="20" y2="22"/>
<line clip-path="url(#clipPath2)" fill="none" x1="93" x2="93" y1="621" y2="619"/>
<line clip-path="url(#clipPath2)" fill="none" x1="112" x2="112" y1="20" y2="22"/>
<line clip-path="url(#clipPath2)" fill="none" x1="112" x2="112" y1="621" y2="619"/>
<line clip-path="url(#clipPath2)" fill="none" x1="130" x2="130" y1="18" y2="22"/>
<line clip-path="url(#clipPath2)" fill="none" x1="130" x2="130" y1="623" y2="619"/>
<text x="119" font-size="10" y="13" clip-path="url(#clipPath2)" stroke="none" xml:space="preserve">0.005</text>
<text x="119" font-size="10" y="634" clip-path="url(#clipPath2)" stroke="none" xml:space="preserve">0.005</text>
<line clip-path="url(#clipPath2)" fill="none" x1="149" x2="149" y1="20" y2="22"/>
<line clip-path="url(#clipPath2)" fill="none" x1="149" x2="149" y1="621" y2="619"/>
<line clip-path="url(#clipPath2)" fill="none" x1="167" x2="167" y1="20" y2="22"/>
<line clip-path="url(#clipPath2)" fill="none" x1="167" x2="167" y1="621" y2="619"/>
<line clip-path="url(#clipPath2)" fill="none" x1="186" x2="186" y1="20" y2="22"/>
<line clip-path="url(#clipPath2)" fill="none" x1="186" x2="186" y1="621" y2="619"/>
<line clip-path="url(#clipPath2)" fill="none" x1="204" x2="204" y1="20" y2="22"/>
<line clip-path="url(#clipPath2)" fill="none" x1="204" x2="204" y1="621" y2="619"/>
<line clip-path="url(#clipPath2)" fill="none" x1="223" x2="223" y1="18" y2="22"/>
<line clip-path="url(#clipPath2)" fill="none" x1="223" x2="223" y1="623" y2="619"/>
<text x="212" font-size="10" y="13" clip-path="url(#clipPath2)" stroke="none" xml:space="preserve">0.010</text>
<text x="212" font-size="10" y="634" clip-path="url(#clipPath2)" stroke="none" xml:space="preserve">0.010</text>
<line clip-path="url(#clipPath2)" fill="none" x1="241" x2="241" y1="20" y2="22"/>
<line clip-path="url(#clipPath2)" fill="none" x1="241" x2="241" y1="621" y2="619"/>
<line clip-path="url(#clipPath2)" fill="none" x1="260" x2="260" y1="20" y2="22"/>
<line clip-path="url(#clipPath2)" fill="none" x1="260" x2="260" y1="621" y2="619"/>
<line clip-path="url(#clipPath2)" fill="none" x1="278" x2="278" y1="20" y2="22"/>
<line clip-path="url(#clipPath2)" fill="none" x1="278" x2="278" y1="621" y2="619"/>
<line clip-path="url(#clipPath2)" fill="none" x1="297" x2="297" y1="20" y2="22"/>
<line clip-path="url(#clipPath2)" fill="none" x1="297" x2="297" y1="621" y2="619"/>
<line clip-path="url(#clipPath2)" fill="none" x1="315" x2="315" y1="18" y2="22"/>
<line clip-path="url(#clipPath2)" fill="none" x1="315" x2="315" y1="623" y2="619"/>
<text x="304" font-size="10" y="13" clip-path="url(#clipPath2)" stroke="none" xml:space="preserve">0.015</text>
<text x="304" font-size="10" y="634" clip-path="url(#clipPath2)" stroke="none" xml:space="preserve">0.015</text>
<line clip-path="url(#clipPath2)" fill="none" x1="334" x2="334" y1="20" y2="22"/>
<line clip-path="url(#clipPath2)" fill="none" x1="334" x2="334" y1="621" y2="619"/>
<line clip-path="url(#clipPath2)" fill="none" x1="352" x2="352" y1="20" y2="22"/>
<line clip-path="url(#clipPath2)" fill="none" x1="352" x2="352" y1="621" y2="619"/>
<line clip-path="url(#clipPath2)" fill="none" x1="371" x2="371" y1="20" y2="22"/>
<line clip-path="url(#clipPath2)" fill="none" x1="371" x2="371" y1="621" y2="619"/>
<line clip-path="url(#clipPath2)" fill="none" x1="390" x2="390" y1="20" y2="22"/>
<line clip-path="url(#clipPath2)" fill="none" x1="390" x2="390" y1="621" y2="619"/>
<line clip-path="url(#clipPath2)" fill="none" x1="408" x2="408" y1="18" y2="22"/>
<line clip-path="url(#clipPath2)" fill="none" x1="408" x2="408" y1="623" y2="619"/>
<text x="397" font-size="10" y="13" clip-path="url(#clipPath2)" stroke="none" xml:space="preserve">0.020</text>
<text x="397" font-size="10" y="634" clip-path="url(#clipPath2)" stroke="none" xml:space="preserve">0.020</text>
<line clip-path="url(#clipPath2)" fill="none" x1="427" x2="427" y1="20" y2="22"/>
<line clip-path="url(#clipPath2)" fill="none" x1="427" x2="427" y1="621" y2="619"/>
<line clip-path="url(#clipPath2)" fill="none" x1="445" x2="445" y1="20" y2="22"/>
<line clip-path="url(#clipPath2)" fill="none" x1="445" x2="445" y1="621" y2="619"/>
<line clip-path="url(#clipPath2)" fill="none" x1="464" x2="464" y1="20" y2="22"/>
<line clip-path="url(#clipPath2)" fill="none" x1="464" x2="464" y1="621" y2="619"/>
<line clip-path="url(#clipPath2)" fill="none" x1="482" x2="482" y1="20" y2="22"/>
<line clip-path="url(#clipPath2)" fill="none" x1="482" x2="482" y1="621" y2="619"/>
<line clip-path="url(#clipPath2)" fill="none" x1="501" x2="501" y1="18" y2="22"/>
<line clip-path="url(#clipPath2)" fill="none" x1="501" x2="501" y1="623" y2="619"/>
<text x="490" font-size="10" y="13" clip-path="url(#clipPath2)" stroke="none" xml:space="preserve">0.025</text>
<text x="490" font-size="10" y="634" clip-path="url(#clipPath2)" stroke="none" xml:space="preserve">0.025</text>
<line clip-path="url(#clipPath2)" fill="none" x1="519" x2="519" y1="20" y2="22"/>
<line clip-path="url(#clipPath2)" fill="none" x1="519" x2="519" y1="621" y2="619"/>
<line clip-path="url(#clipPath2)" fill="none" x1="538" x2="538" y1="20" y2="22"/>
<line clip-path="url(#clipPath2)" fill="none" x1="538" x2="538" y1="621" y2="619"/>
<line clip-path="url(#clipPath2)" fill="none" x1="556" x2="556" y1="20" y2="22"/>
<line clip-path="url(#clipPath2)" fill="none" x1="556" x2="556" y1="621" y2="619"/>
<line clip-path="url(#clipPath2)" fill="none" x1="575" x2="575" y1="20" y2="22"/>
<line clip-path="url(#clipPath2)" fill="none" x1="575" x2="575" y1="621" y2="619"/>
<line clip-path="url(#clipPath2)" fill="none" x1="593" x2="593" y1="18" y2="22"/>
<line clip-path="url(#clipPath2)" fill="none" x1="593" x2="593" y1="623" y2="619"/>
<text x="582" font-size="10" y="13" clip-path="url(#clipPath2)" stroke="none" xml:space="preserve">0.030</text>
<text x="582" font-size="10" y="634" clip-path="url(#clipPath2)" stroke="none" xml:space="preserve">0.030</text>
<line clip-path="url(#clipPath2)" fill="none" x1="612" x2="612" y1="20" y2="22"/>
<line clip-path="url(#clipPath2)" fill="none" x1="612" x2="612" y1="621" y2="619"/>
<line clip-path="url(#clipPath2)" fill="none" x1="630" x2="630" y1="20" y2="22"/>
<line clip-path="url(#clipPath2)" fill="none" x1="630" x2="630" y1="621" y2="619"/>
<line clip-path="url(#clipPath2)" fill="none" x1="649" x2="649" y1="20" y2="22"/>
<line clip-path="url(#clipPath2)" fill="none" x1="649" x2="649" y1="621" y2="619"/>
<line clip-path="url(#clipPath2)" fill="none" x1="667" x2="667" y1="20" y2="22"/>
<line clip-path="url(#clipPath2)" fill="none" x1="667" x2="667" y1="621" y2="619"/>
<line clip-path="url(#clipPath2)" fill="none" x1="686" x2="686" y1="18" y2="22"/>
<line clip-path="url(#clipPath2)" fill="none" x1="686" x2="686" y1="623" y2="619"/>
<text x="675" font-size="10" y="13" clip-path="url(#clipPath2)" stroke="none" xml:space="preserve">0.035</text>
<text x="675" font-size="10" y="634" clip-path="url(#clipPath2)" stroke="none" xml:space="preserve">0.035</text>
<line clip-path="url(#clipPath2)" fill="none" x1="705" x2="705" y1="20" y2="22"/>
<line clip-path="url(#clipPath2)" fill="none" x1="705" x2="705" y1="621" y2="619"/>
<line clip-path="url(#clipPath2)" fill="none" x1="723" x2="723" y1="20" y2="22"/>
<line clip-path="url(#clipPath2)" fill="none" x1="723" x2="723" y1="621" y2="619"/>
<line clip-path="url(#clipPath2)" fill="none" x1="742" x2="742" y1="20" y2="22"/>
<line clip-path="url(#clipPath2)" fill="none" x1="742" x2="742" y1="621" y2="619"/>
<line clip-path="url(#clipPath2)" fill="none" x1="760" x2="760" y1="20" y2="22"/>
<line clip-path="url(#clipPath2)" fill="none" x1="760" x2="760" y1="621" y2="619"/>
<line clip-path="url(#clipPath2)" fill="none" x1="779" x2="779" y1="18" y2="22"/>
<line clip-path="url(#clipPath2)" fill="none" x1="779" x2="779" y1="623" y2="619"/>
<text x="768" font-size="10" y="13" clip-path="url(#clipPath2)" stroke="none" xml:space="preserve">0.040</text>
<text x="768" font-size="10" y="634" clip-path="url(#clipPath2)" stroke="none" xml:space="preserve">0.040</text>
<line clip-path="url(#clipPath2)" fill="none" x1="797" x2="797" y1="20" y2="22"/>
<line clip-path="url(#clipPath2)" fill="none" x1="797" x2="797" y1="621" y2="619"/>
<line clip-path="url(#clipPath2)" fill="none" x1="816" x2="816" y1="20" y2="22"/>
<line clip-path="url(#clipPath2)" fill="none" x1="816" x2="816" y1="621" y2="619"/>
<line clip-path="url(#clipPath2)" fill="none" x1="834" x2="834" y1="20" y2="22"/>
<line clip-path="url(#clipPath2)" fill="none" x1="834" x2="834" y1="621" y2="619"/>
<line clip-path="url(#clipPath2)" fill="none" x1="853" x2="853" y1="20" y2="22"/>
<line clip-path="url(#clipPath2)" fill="none" x1="853" x2="853" y1="621" y2="619"/>
<line clip-path="url(#clipPath2)" fill="none" x1="871" x2="871" y1="18" y2="22"/>
<line clip-path="url(#clipPath2)" fill="none" x1="871" x2="871" y1="623" y2="619"/>
<text x="860" font-size="10" y="13" clip-path="url(#clipPath2)" stroke="none" xml:space="preserve">0.045</text>
<text x="860" font-size="10" y="634" clip-path="url(#clipPath2)" stroke="none" xml:space="preserve">0.045</text>
<line clip-path="url(#clipPath2)" fill="none" x1="890" x2="890" y1="20" y2="22"/>
<line clip-path="url(#clipPath2)" fill="none" x1="890" x2="890" y1="621" y2="619"/>
<line clip-path="url(#clipPath2)" fill="none" x1="908" x2="908" y1="20" y2="22"/>
<line clip-path="url(#clipPath2)" fill="none" x1="908" x2="908" y1="621" y2="619"/>
<line clip-path="url(#clipPath2)" fill="none" x1="927" x2="927" y1="20" y2="22"/>
<line clip-path="url(#clipPath2)" fill="none" x1="927" x2="927" y1="621" y2="619"/>
<line clip-path="url(#clipPath2)" fill="none" x1="945" x2="945" y1="20" y2="22"/>
<line clip-path="url(#clipPath2)" fill="none" x1="945" x2="945" y1="621" y2="619"/>
<line clip-path="url(#clipPath2)" fill="none" x1="964" x2="964" y1="18" y2="22"/>
<line clip-path="url(#clipPath2)" fill="none" x1="964" x2="964" y1="623" y2="619"/>
<text x="953" font-size="10" y="13" clip-path="url(#clipPath2)" stroke="none" xml:space="preserve">0.050</text>
<text x="953" font-size="10" y="634" clip-path="url(#clipPath2)" stroke="none" xml:space="preserve">0.050</text>
<line clip-path="url(#clipPath2)" fill="none" x1="982" x2="982" y1="20" y2="22"/>
<line clip-path="url(#clipPath2)" fill="none" x1="982" x2="982" y1="621" y2="619"/>
<line clip-path="url(#clipPath2)" fill="none" x1="1001" x2="1001" y1="20" y2="22"/>
<line clip-path="url(#clipPath2)" fill="none" x1="1001" x2="1001" y1="621" y2="619"/>
<line clip-path="url(#clipPath2)" fill="none" x1="1020" x2="1020" y1="20" y2="22"/>
<line clip-path="url(#clipPath2)" fill="none" x1="1020" x2="1020" y1="621" y2="619"/>
<line clip-path="url(#clipPath2)" fill="none" x1="1038" x2="1038" y1="20" y2="22"/>
<line clip-path="url(#clipPath2)" fill="none" x1="1038" x2="1038" y1="621" y2="619"/>
<line clip-path="url(#clipPath2)" fill="none" x1="1057" x2="1057" y1="18" y2="22"/>
<line clip-path="url(#clipPath2)" fill="none" x1="1057" x2="1057" y1="623" y2="619"/>
<text x="1046" font-size="10" y="13" clip-path="url(#clipPath2)" stroke="none" xml:space="preserve">0.055</text>
<text x="1046" font-size="10" y="634" clip-path="url(#clipPath2)" stroke="none" xml:space="preserve">0.055</text>
<line clip-path="url(#clipPath2)" fill="none" x1="1075" x2="1075" y1="20" y2="22"/>
<line clip-path="url(#clipPath2)" fill="none" x1="1075" x2="1075" y1="621" y2="619"/>
<line clip-path="url(#clipPath2)" fill="none" x1="1094" x2="1094" y1="20" y2="22"/>
<line clip-path="url(#clipPath2)" fill="none" x1="1094" x2="1094" y1="621" y2="619"/>
<line clip-path="url(#clipPath2)" fill="none" x1="1112" x2="1112" y1="20" y2="22"/>
<line clip-path="url(#clipPath2)" fill="none" x1="1112" x2="1112" y1="621" y2="619"/>
<line clip-path="url(#clipPath2)" fill="none" x1="1131" x2="1131" y1="20" y2="22"/>
<line clip-path="url(#clipPath2)" fill="none" x1="1131" x2="1131" y1="621" y2="619"/>
<line clip-path="url(#clipPath2)" fill="none" x1="1149" x2="1149" y1="18" y2="22"/>
<line clip-path="url(#clipPath2)" fill="none" x1="1149" x2="1149" y1="623" y2="619"/>
<text x="1138" font-size="10" y="13" clip-path="url(#clipPath2)" stroke="none" xml:space="preserve">0.060</text>
<text x="1138" font-size="10" y="634" clip-path="url(#clipPath2)" stroke="none" xml:space="preserve">0.060</text>
<line clip-path="url(#clipPath2)" fill="none" x1="1168" x2="1168" y1="20" y2="22"/>
<line clip-path="url(#clipPath2)" fill="none" x1="1168" x2="1168" y1="621" y2="619"/>
<line clip-path="url(#clipPath2)" fill="none" x1="1186" x2="1186" y1="20" y2="22"/>
<line clip-path="url(#clipPath2)" fill="none" x1="1186" x2="1186" y1="621" y2="619"/>
<line clip-path="url(#clipPath2)" fill="none" x1="1205" x2="1205" y1="20" y2="22"/>
<line clip-path="url(#clipPath2)" fill="none" x1="1205" x2="1205" y1="621" y2="619"/>
<line clip-path="url(#clipPath2)" fill="none" x1="1223" x2="1223" y1="20" y2="22"/>
<line clip-path="url(#clipPath2)" fill="none" x1="1223" x2="1223" y1="621" y2="619"/>
<line clip-path="url(#clipPath2)" fill="none" x1="1242" x2="1242" y1="18" y2="22"/>
<line clip-path="url(#clipPath2)" fill="none" x1="1242" x2="1242" y1="623" y2="619"/>
<text x="1231" font-size="10" y="13" clip-path="url(#clipPath2)" stroke="none" xml:space="preserve">0.065</text>
<text x="1231" font-size="10" y="634" clip-path="url(#clipPath2)" stroke="none" xml:space="preserve">0.065</text>
<line clip-path="url(#clipPath2)" fill="none" x1="1260" x2="1260" y1="20" y2="22"/>
<line clip-path="url(#clipPath2)" fill="none" x1="1260" x2="1260" y1="621" y2="619"/>
<line clip-path="url(#clipPath2)" fill="none" x1="1279" x2="1279" y1="20" y2="22"/>
<line clip-path="url(#clipPath2)" fill="none" x1="1279" x2="1279" y1="621" y2="619"/>
<line clip-path="url(#clipPath2)" fill="none" x1="1297" x2="1297" y1="20" y2="22"/>
<line clip-path="url(#clipPath2)" fill="none" x1="1297" x2="1297" y1="621" y2="619"/>
<line clip-path="url(#clipPath2)" fill="none" x1="1316" x2="1316" y1="20" y2="22"/>
<line clip-path="url(#clipPath2)" fill="none" x1="1316" x2="1316" y1="621" y2="619"/>
<line clip-path="url(#clipPath2)" fill="none" x1="1335" x2="1335" y1="18" y2="22"/>
<line clip-path="url(#clipPath2)" fill="none" x1="1335" x2="1335" y1="623" y2="619"/>
<text x="1324" font-size="10" y="13" clip-path="url(#clipPath2)" stroke="none" xml:space="preserve">0.070</text>
<text x="1324" font-size="10" y="634" clip-path="url(#clipPath2)" stroke="none" xml:space="preserve">0.070</text>
<line clip-path="url(#clipPath2)" fill="none" x1="1353" x2="1353" y1="20" y2="22"/>
<line clip-path="url(#clipPath2)" fill="none" x1="1353" x2="1353" y1="621" y2="619"/>
<line clip-path="url(#clipPath2)" fill="none" x1="36" x2="36" y1="24" y2="617"/>
<line clip-path="url(#clipPath2)" fill="none" x1="1372" x2="1372" y1="24" y2="617"/>
<line clip-path="url(#clipPath2)" fill="none" x1="32" x2="36" y1="617" y2="617"/>
<line clip-path="url(#clipPath2)" fill="none" x1="1376" x2="1372" y1="617" y2="617"/>
<text x="26" font-size="10" y="620" clip-path="url(#clipPath2)" stroke="none" xml:space="preserve">0</text>
<text x="1379" font-size="10" y="620" clip-path="url(#clipPath2)" stroke="none" xml:space="preserve">0</text>
<line clip-path="url(#clipPath2)" fill="none" x1="34" x2="36" y1="573" y2="573"/>
<line clip-path="url(#clipPath2)" fill="none" x1="1374" x2="1372" y1="573" y2="573"/>
<line clip-path="url(#clipPath2)" fill="none" x1="32" x2="36" y1="529" y2="529"/>
<line clip-path="url(#clipPath2)" fill="none" x1="1376" x2="1372" y1="529" y2="529"/>
<text x="16" font-size="10" y="532" clip-path="url(#clipPath2)" stroke="none" xml:space="preserve">200</text>
<text x="1379" font-size="10" y="532" clip-path="url(#clipPath2)" stroke="none" xml:space="preserve">200</text>
<line clip-path="url(#clipPath2)" fill="none" x1="34" x2="36" y1="486" y2="486"/>
<line clip-path="url(#clipPath2)" fill="none" x1="1374" x2="1372" y1="486" y2="486"/>
<line clip-path="url(#clipPath2)" fill="none" x1="32" x2="36" y1="442" y2="442"/>
<line clip-path="url(#clipPath2)" fill="none" x1="1376" x2="1372" y1="442" y2="442"/>
<text x="16" font-size="10" y="445" clip-path="url(#clipPath2)" stroke="none" xml:space="preserve">400</text>
<text x="1379" font-size="10" y="445" clip-path="url(#clipPath2)" stroke="none" xml:space="preserve">400</text>
<line clip-path="url(#clipPath2)" fill="none" x1="34" x2="36" y1="399" y2="399"/>
<line clip-path="url(#clipPath2)" fill="none" x1="1374" x2="1372" y1="399" y2="399"/>
<line clip-path="url(#clipPath2)" fill="none" x1="32" x2="36" y1="355" y2="355"/>
<line clip-path="url(#clipPath2)" fill="none" x1="1376" x2="1372" y1="355" y2="355"/>
<text x="16" font-size="10" y="358" clip-path="url(#clipPath2)" stroke="none" xml:space="preserve">600</text>
<text x="1379" font-size="10" y="358" clip-path="url(#clipPath2)" stroke="none" xml:space="preserve">600</text>
<line clip-path="url(#clipPath2)" fill="none" x1="34" x2="36" y1="312" y2="312"/>
<line clip-path="url(#clipPath2)" fill="none" x1="1374" x2="1372" y1="312" y2="312"/>
<line clip-path="url(#clipPath2)" fill="none" x1="32" x2="36" y1="268" y2="268"/>
<line clip-path="url(#clipPath2)" fill="none" x1="1376" x2="1372" y1="268" y2="268"/>
<text x="16" font-size="10" y="271" clip-path="url(#clipPath2)" stroke="none" xml:space="preserve">800</text>
<text x="1379" font-size="10" y="271" clip-path="url(#clipPath2)" stroke="none" xml:space="preserve">800</text>
<line clip-path="url(#clipPath2)" fill="none" x1="34" x2="36" y1="225" y2="225"/>
<line clip-path="url(#clipPath2)" fill="none" x1="1374" x2="1372" y1="225" y2="225"/>
<line clip-path="url(#clipPath2)" fill="none" x1="32" x2="36" y1="181" y2="181"/>
<line clip-path="url(#clipPath2)" fill="none" x1="1376" x2="1372" y1="181" y2="181"/>
<text x="11" font-size="10" y="184" clip-path="url(#clipPath2)" stroke="none" xml:space="preserve">1000</text>
<text x="1379" font-size="10" y="184" clip-path="url(#clipPath2)" stroke="none" xml:space="preserve">1000</text>
<line clip-path="url(#clipPath2)" fill="none" x1="34" x2="36" y1="138" y2="138"/>
<line clip-path="url(#clipPath2)" fill="none" x1="1374" x2="1372" y1="138" y2="138"/>
<line clip-path="url(#clipPath2)" fill="none" x1="32" x2="36" y1="94" y2="94"/>
<line clip-path="url(#clipPath2)" fill="none" x1="1376" x2="1372" y1="94" y2="94"/>
<text x="11" font-size="10" y="97" clip-path="url(#clipPath2)" stroke="none" xml:space="preserve">1200</text>
<text x="1379" font-size="10" y="97" clip-path="url(#clipPath2)" stroke="none" xml:space="preserve">1200</text>
<line clip-path="url(#clipPath2)" fill="none" x1="34" x2="36" y1="51" y2="51"/>
<line clip-path="url(#clipPath2)" fill="none" x1="1374" x2="1372" y1="51" y2="51"/>
</g>
</g>
</svg>
