<?xml version="1.0" encoding="UTF-8"?><svg xmlns="http://www.w3.org/2000/svg" xmlns:xlink="http://www.w3.org/1999/xlink" stroke-dasharray="none" shape-rendering="auto" font-family="'Dialog'" width="1408" text-rendering="auto" fill-opacity="1" contentScriptType="text/ecmascript" color-interpolation="auto" color-rendering="auto" preserveAspectRatio="xMidYMid meet" font-size="12" fill="black" stroke="black" image-rendering="auto" stroke-miterlimit="10" zoomAndPan="magnify" version="1.0" stroke-linecap="square" stroke-linejoin="miter" contentStyleType="text/css" font-style="normal" height="641" stroke-width="1" stroke-dashoffset="0" font-weight="normal" stroke-opacity="1">
<!--Generated by the Batik Graphics2D SVG Generator-->
<defs id="genericDefs"/>
<g>
<defs id="defs1">
<clipPath clipPathUnits="userSpaceOnUse" id="clipPath1">
<path d="M53 39 L1371 39 L1371 602 L53 602 L53 39 Z"/>
</clipPath>
<clipPath clipPathUnits="userSpaceOnUse" id="clipPath2">
<path d="M-1 -1 L1409 -1 L1409 642 L-1 642 L-1 -1 Z"/>
</clipPath>
</defs>
<g fill="white" text-rendering="geometricPrecision" font-family="'Segoe UI'" stroke-linejoin="round" stroke="white" stroke-width="0" stroke-miterlimit="0">
<rect x="54" y="40" clip-path="url(#clipPath1)" width="1316" height="561" stroke="none"/>
</g>
<g stroke-linecap="butt" fill="rgb(204,204,204)" text-rendering="geometricPrecision" font-family="'Segoe UI'" stroke-dasharray="3,3" stroke="rgb(204,204,204)">
<line clip-path="url(#clipPath1)" fill="none" x1="54" x2="54" y1="40" y2="601"/>
<line clip-path="url(#clipPath1)" fill="none" x1="145" x2="145" y1="40" y2="601"/>
<line clip-path="url(#clipPath1)" fill="none" x1="237" x2="237" y1="40" y2="601"/>
<line clip-path="url(#clipPath1)" fill="none" x1="328" x2="328" y1="40" y2="601"/>
<line clip-path="url(#clipPath1)" fill="none" x1="420" x2="420" y1="40" y2="601"/>
<line clip-path="url(#clipPath1)" fill="none" x1="511" x2="511" y1="40" y2="601"/>
<line clip-path="url(#clipPath1)" fill="none" x1="603" x2="603" y1="40" y2="601"/>
<line clip-path="url(#clipPath1)" fill="none" x1="694" x2="694" y1="40" y2="601"/>
<line clip-path="url(#clipPath1)" fill="none" x1="786" x2="786" y1="40" y2="601"/>
<line clip-path="url(#clipPath1)" fill="none" x1="877" x2="877" y1="40" y2="601"/>
<line clip-path="url(#clipPath1)" fill="none" x1="969" x2="969" y1="40" y2="601"/>
<line clip-path="url(#clipPath1)" fill="none" x1="1060" x2="1060" y1="40" y2="601"/>
<line clip-path="url(#clipPath1)" fill="none" x1="1152" x2="1152" y1="40" y2="601"/>
<line clip-path="url(#clipPath1)" fill="none" x1="1243" x2="1243" y1="40" y2="601"/>
<line clip-path="url(#clipPath1)" fill="none" x1="1335" x2="1335" y1="40" y2="601"/>
<line clip-path="url(#clipPath1)" fill="none" x1="54" x2="1370" y1="601" y2="601"/>
<line clip-path="url(#clipPath1)" fill="none" x1="54" x2="1370" y1="518" y2="518"/>
<line clip-path="url(#clipPath1)" fill="none" x1="54" x2="1370" y1="436" y2="436"/>
<line clip-path="url(#clipPath1)" fill="none" x1="54" x2="1370" y1="353" y2="353"/>
<line clip-path="url(#clipPath1)" fill="none" x1="54" x2="1370" y1="271" y2="271"/>
<line clip-path="url(#clipPath1)" fill="none" x1="54" x2="1370" y1="189" y2="189"/>
<line clip-path="url(#clipPath1)" fill="none" x1="54" x2="1370" y1="106" y2="106"/>
<rect x="70" y="594" clip-path="url(#clipPath1)" fill="rgb(0,0,139)" width="5" height="5" stroke="none"/>
<line clip-path="url(#clipPath1)" fill="none" x1="72" x2="90" y1="596" y2="589" stroke-dasharray="none" stroke="rgb(0,0,139)"/>
<rect x="88" y="587" clip-path="url(#clipPath1)" fill="rgb(0,0,139)" width="5" stroke-dasharray="none" height="5" stroke="none"/>
<line clip-path="url(#clipPath1)" fill="none" x1="90" x2="108" y1="589" y2="584" stroke-dasharray="none" stroke="rgb(0,0,139)"/>
<rect x="106" y="582" clip-path="url(#clipPath1)" fill="rgb(0,0,139)" width="5" stroke-dasharray="none" height="5" stroke="none"/>
<line clip-path="url(#clipPath1)" fill="none" x1="108" x2="127" y1="584" y2="577" stroke-dasharray="none" stroke="rgb(0,0,139)"/>
<rect x="125" y="575" clip-path="url(#clipPath1)" fill="rgb(0,0,139)" width="5" stroke-dasharray="none" height="5" stroke="none"/>
<line clip-path="url(#clipPath1)" fill="none" x1="127" x2="145" y1="577" y2="571" stroke-dasharray="none" stroke="rgb(0,0,139)"/>
<rect x="143" y="569" clip-path="url(#clipPath1)" fill="rgb(0,0,139)" width="5" stroke-dasharray="none" height="5" stroke="none"/>
<line clip-path="url(#clipPath1)" fill="none" x1="145" x2="163" y1="571" y2="566" stroke-dasharray="none" stroke="rgb(0,0,139)"/>
<rect x="161" y="564" clip-path="url(#clipPath1)" fill="rgb(0,0,139)" width="5" stroke-dasharray="none" height="5" stroke="none"/>
<line clip-path="url(#clipPath1)" fill="none" x1="163" x2="182" y1="566" y2="560" stroke-dasharray="none" stroke="rgb(0,0,139)"/>
<rect x="180" y="558" clip-path="url(#clipPath1)" fill="rgb(0,0,139)" width="5" stroke-dasharray="none" height="5" stroke="none"/>
<line clip-path="url(#clipPath1)" fill="none" x1="182" x2="200" y1="560" y2="554" stroke-dasharray="none" stroke="rgb(0,0,139)"/>
<rect x="198" y="552" clip-path="url(#clipPath1)" fill="rgb(0,0,139)" width="5" stroke-dasharray="none" height="5" stroke="none"/>
<line clip-path="url(#clipPath1)" fill="none" x1="200" x2="218" y1="554" y2="548" stroke-dasharray="none" stroke="rgb(0,0,139)"/>
<rect x="216" y="546" clip-path="url(#clipPath1)" fill="rgb(0,0,139)" width="5" stroke-dasharray="none" height="5" stroke="none"/>
<line clip-path="url(#clipPath1)" fill="none" x1="218" x2="237" y1="548" y2="542" stroke-dasharray="none" stroke="rgb(0,0,139)"/>
<rect x="235" y="540" clip-path="url(#clipPath1)" fill="rgb(0,0,139)" width="5" stroke-dasharray="none" height="5" stroke="none"/>
<line clip-path="url(#clipPath1)" fill="none" x1="237" x2="255" y1="542" y2="535" stroke-dasharray="none" stroke="rgb(0,0,139)"/>
<rect x="253" y="533" clip-path="url(#clipPath1)" fill="rgb(0,0,139)" width="5" stroke-dasharray="none" height="5" stroke="none"/>
<line clip-path="url(#clipPath1)" fill="none" x1="255" x2="273" y1="535" y2="530" stroke-dasharray="none" stroke="rgb(0,0,139)"/>
<rect x="271" y="528" clip-path="url(#clipPath1)" fill="rgb(0,0,139)" width="5" stroke-dasharray="none" height="5" stroke="none"/>
<line clip-path="url(#clipPath1)" fill="none" x1="273" x2="291" y1="530" y2="524" stroke-dasharray="none" stroke="rgb(0,0,139)"/>
<rect x="289" y="522" clip-path="url(#clipPath1)" fill="rgb(0,0,139)" width="5" stroke-dasharray="none" height="5" stroke="none"/>
<line clip-path="url(#clipPath1)" fill="none" x1="291" x2="310" y1="524" y2="519" stroke-dasharray="none" stroke="rgb(0,0,139)"/>
<rect x="308" y="517" clip-path="url(#clipPath1)" fill="rgb(0,0,139)" width="5" stroke-dasharray="none" height="5" stroke="none"/>
<line clip-path="url(#clipPath1)" fill="none" x1="310" x2="328" y1="519" y2="512" stroke-dasharray="none" stroke="rgb(0,0,139)"/>
<rect x="326" y="510" clip-path="url(#clipPath1)" fill="rgb(0,0,139)" width="5" stroke-dasharray="none" height="5" stroke="none"/>
<line clip-path="url(#clipPath1)" fill="none" x1="328" x2="346" y1="512" y2="506" stroke-dasharray="none" stroke="rgb(0,0,139)"/>
<rect x="344" y="504" clip-path="url(#clipPath1)" fill="rgb(0,0,139)" width="5" stroke-dasharray="none" height="5" stroke="none"/>
<line clip-path="url(#clipPath1)" fill="none" x1="346" x2="365" y1="506" y2="500" stroke-dasharray="none" stroke="rgb(0,0,139)"/>
<rect x="363" y="498" clip-path="url(#clipPath1)" fill="rgb(0,0,139)" width="5" stroke-dasharray="none" height="5" stroke="none"/>
<line clip-path="url(#clipPath1)" fill="none" x1="365" x2="383" y1="500" y2="494" stroke-dasharray="none" stroke="rgb(0,0,139)"/>
<rect x="381" y="492" clip-path="url(#clipPath1)" fill="rgb(0,0,139)" width="5" stroke-dasharray="none" height="5" stroke="none"/>
<line clip-path="url(#clipPath1)" fill="none" x1="383" x2="401" y1="494" y2="488" stroke-dasharray="none" stroke="rgb(0,0,139)"/>
<rect x="399" y="486" clip-path="url(#clipPath1)" fill="rgb(0,0,139)" width="5" stroke-dasharray="none" height="5" stroke="none"/>
<line clip-path="url(#clipPath1)" fill="none" x1="401" x2="420" y1="488" y2="482" stroke-dasharray="none" stroke="rgb(0,0,139)"/>
<rect x="418" y="480" clip-path="url(#clipPath1)" fill="rgb(0,0,139)" width="5" stroke-dasharray="none" height="5" stroke="none"/>
<line clip-path="url(#clipPath1)" fill="none" x1="420" x2="438" y1="482" y2="477" stroke-dasharray="none" stroke="rgb(0,0,139)"/>
<rect x="436" y="475" clip-path="url(#clipPath1)" fill="rgb(0,0,139)" width="5" stroke-dasharray="none" height="5" stroke="none"/>
<line clip-path="url(#clipPath1)" fill="none" x1="438" x2="456" y1="477" y2="470" stroke-dasharray="none" stroke="rgb(0,0,139)"/>
<rect x="454" y="468" clip-path="url(#clipPath1)" fill="rgb(0,0,139)" width="5" stroke-dasharray="none" height="5" stroke="none"/>
<line clip-path="url(#clipPath1)" fill="none" x1="456" x2="475" y1="470" y2="465" stroke-dasharray="none" stroke="rgb(0,0,139)"/>
<rect x="473" y="463" clip-path="url(#clipPath1)" fill="rgb(0,0,139)" width="5" stroke-dasharray="none" height="5" stroke="none"/>
<line clip-path="url(#clipPath1)" fill="none" x1="475" x2="493" y1="465" y2="458" stroke-dasharray="none" stroke="rgb(0,0,139)"/>
<rect x="491" y="456" clip-path="url(#clipPath1)" fill="rgb(0,0,139)" width="5" stroke-dasharray="none" height="5" stroke="none"/>
<line clip-path="url(#clipPath1)" fill="none" x1="493" x2="511" y1="458" y2="452" stroke-dasharray="none" stroke="rgb(0,0,139)"/>
<rect x="509" y="450" clip-path="url(#clipPath1)" fill="rgb(0,0,139)" width="5" stroke-dasharray="none" height="5" stroke="none"/>
<line clip-path="url(#clipPath1)" fill="none" x1="511" x2="529" y1="452" y2="447" stroke-dasharray="none" stroke="rgb(0,0,139)"/>
<rect x="527" y="445" clip-path="url(#clipPath1)" fill="rgb(0,0,139)" width="5" stroke-dasharray="none" height="5" stroke="none"/>
<line clip-path="url(#clipPath1)" fill="none" x1="529" x2="548" y1="447" y2="441" stroke-dasharray="none" stroke="rgb(0,0,139)"/>
<rect x="546" y="439" clip-path="url(#clipPath1)" fill="rgb(0,0,139)" width="5" stroke-dasharray="none" height="5" stroke="none"/>
<line clip-path="url(#clipPath1)" fill="none" x1="548" x2="566" y1="441" y2="435" stroke-dasharray="none" stroke="rgb(0,0,139)"/>
<rect x="564" y="433" clip-path="url(#clipPath1)" fill="rgb(0,0,139)" width="5" stroke-dasharray="none" height="5" stroke="none"/>
<line clip-path="url(#clipPath1)" fill="none" x1="566" x2="584" y1="435" y2="429" stroke-dasharray="none" stroke="rgb(0,0,139)"/>
<rect x="582" y="427" clip-path="url(#clipPath1)" fill="rgb(0,0,139)" width="5" stroke-dasharray="none" height="5" stroke="none"/>
<line clip-path="url(#clipPath1)" fill="none" x1="584" x2="603" y1="429" y2="423" stroke-dasharray="none" stroke="rgb(0,0,139)"/>
<rect x="601" y="421" clip-path="url(#clipPath1)" fill="rgb(0,0,139)" width="5" stroke-dasharray="none" height="5" stroke="none"/>
<line clip-path="url(#clipPath1)" fill="none" x1="603" x2="621" y1="423" y2="417" stroke-dasharray="none" stroke="rgb(0,0,139)"/>
<rect x="619" y="415" clip-path="url(#clipPath1)" fill="rgb(0,0,139)" width="5" stroke-dasharray="none" height="5" stroke="none"/>
<line clip-path="url(#clipPath1)" fill="none" x1="621" x2="639" y1="417" y2="411" stroke-dasharray="none" stroke="rgb(0,0,139)"/>
<rect x="637" y="409" clip-path="url(#clipPath1)" fill="rgb(0,0,139)" width="5" stroke-dasharray="none" height="5" stroke="none"/>
<line clip-path="url(#clipPath1)" fill="none" x1="639" x2="658" y1="411" y2="405" stroke-dasharray="none" stroke="rgb(0,0,139)"/>
<rect x="656" y="403" clip-path="url(#clipPath1)" fill="rgb(0,0,139)" width="5" stroke-dasharray="none" height="5" stroke="none"/>
<line clip-path="url(#clipPath1)" fill="none" x1="658" x2="676" y1="405" y2="399" stroke-dasharray="none" stroke="rgb(0,0,139)"/>
<rect x="674" y="397" clip-path="url(#clipPath1)" fill="rgb(0,0,139)" width="5" stroke-dasharray="none" height="5" stroke="none"/>
<line clip-path="url(#clipPath1)" fill="none" x1="676" x2="694" y1="399" y2="393" stroke-dasharray="none" stroke="rgb(0,0,139)"/>
<rect x="692" y="391" clip-path="url(#clipPath1)" fill="rgb(0,0,139)" width="5" stroke-dasharray="none" height="5" stroke="none"/>
<line clip-path="url(#clipPath1)" fill="none" x1="694" x2="713" y1="393" y2="387" stroke-dasharray="none" stroke="rgb(0,0,139)"/>
<rect x="711" y="385" clip-path="url(#clipPath1)" fill="rgb(0,0,139)" width="5" stroke-dasharray="none" height="5" stroke="none"/>
<line clip-path="url(#clipPath1)" fill="none" x1="713" x2="731" y1="387" y2="381" stroke-dasharray="none" stroke="rgb(0,0,139)"/>
<rect x="729" y="379" clip-path="url(#clipPath1)" fill="rgb(0,0,139)" width="5" stroke-dasharray="none" height="5" stroke="none"/>
<line clip-path="url(#clipPath1)" fill="none" x1="731" x2="749" y1="381" y2="375" stroke-dasharray="none" stroke="rgb(0,0,139)"/>
<rect x="747" y="373" clip-path="url(#clipPath1)" fill="rgb(0,0,139)" width="5" stroke-dasharray="none" height="5" stroke="none"/>
<line clip-path="url(#clipPath1)" fill="none" x1="749" x2="767" y1="375" y2="370" stroke-dasharray="none" stroke="rgb(0,0,139)"/>
<rect x="765" y="368" clip-path="url(#clipPath1)" fill="rgb(0,0,139)" width="5" stroke-dasharray="none" height="5" stroke="none"/>
<line clip-path="url(#clipPath1)" fill="none" x1="767" x2="786" y1="370" y2="363" stroke-dasharray="none" stroke="rgb(0,0,139)"/>
<rect x="784" y="361" clip-path="url(#clipPath1)" fill="rgb(0,0,139)" width="5" stroke-dasharray="none" height="5" stroke="none"/>
<line clip-path="url(#clipPath1)" fill="none" x1="786" x2="804" y1="363" y2="358" stroke-dasharray="none" stroke="rgb(0,0,139)"/>
<rect x="802" y="356" clip-path="url(#clipPath1)" fill="rgb(0,0,139)" width="5" stroke-dasharray="none" height="5" stroke="none"/>
<line clip-path="url(#clipPath1)" fill="none" x1="804" x2="822" y1="358" y2="352" stroke-dasharray="none" stroke="rgb(0,0,139)"/>
<rect x="820" y="350" clip-path="url(#clipPath1)" fill="rgb(0,0,139)" width="5" stroke-dasharray="none" height="5" stroke="none"/>
<line clip-path="url(#clipPath1)" fill="none" x1="822" x2="841" y1="352" y2="346" stroke-dasharray="none" stroke="rgb(0,0,139)"/>
<rect x="839" y="344" clip-path="url(#clipPath1)" fill="rgb(0,0,139)" width="5" stroke-dasharray="none" height="5" stroke="none"/>
<line clip-path="url(#clipPath1)" fill="none" x1="841" x2="859" y1="346" y2="340" stroke-dasharray="none" stroke="rgb(0,0,139)"/>
<rect x="857" y="338" clip-path="url(#clipPath1)" fill="rgb(0,0,139)" width="5" stroke-dasharray="none" height="5" stroke="none"/>
<line clip-path="url(#clipPath1)" fill="none" x1="859" x2="877" y1="340" y2="334" stroke-dasharray="none" stroke="rgb(0,0,139)"/>
<rect x="875" y="332" clip-path="url(#clipPath1)" fill="rgb(0,0,139)" width="5" stroke-dasharray="none" height="5" stroke="none"/>
<line clip-path="url(#clipPath1)" fill="none" x1="877" x2="896" y1="334" y2="328" stroke-dasharray="none" stroke="rgb(0,0,139)"/>
<rect x="894" y="326" clip-path="url(#clipPath1)" fill="rgb(0,0,139)" width="5" stroke-dasharray="none" height="5" stroke="none"/>
<line clip-path="url(#clipPath1)" fill="none" x1="896" x2="914" y1="328" y2="322" stroke-dasharray="none" stroke="rgb(0,0,139)"/>
<rect x="912" y="320" clip-path="url(#clipPath1)" fill="rgb(0,0,139)" width="5" stroke-dasharray="none" height="5" stroke="none"/>
<line clip-path="url(#clipPath1)" fill="none" x1="914" x2="932" y1="322" y2="316" stroke-dasharray="none" stroke="rgb(0,0,139)"/>
<rect x="930" y="314" clip-path="url(#clipPath1)" fill="rgb(0,0,139)" width="5" stroke-dasharray="none" height="5" stroke="none"/>
<line clip-path="url(#clipPath1)" fill="none" x1="932" x2="951" y1="316" y2="310" stroke-dasharray="none" stroke="rgb(0,0,139)"/>
<rect x="949" y="308" clip-path="url(#clipPath1)" fill="rgb(0,0,139)" width="5" stroke-dasharray="none" height="5" stroke="none"/>
<line clip-path="url(#clipPath1)" fill="none" x1="951" x2="969" y1="310" y2="304" stroke-dasharray="none" stroke="rgb(0,0,139)"/>
<rect x="967" y="302" clip-path="url(#clipPath1)" fill="rgb(0,0,139)" width="5" stroke-dasharray="none" height="5" stroke="none"/>
<line clip-path="url(#clipPath1)" fill="none" x1="969" x2="987" y1="304" y2="298" stroke-dasharray="none" stroke="rgb(0,0,139)"/>
<rect x="985" y="296" clip-path="url(#clipPath1)" fill="rgb(0,0,139)" width="5" stroke-dasharray="none" height="5" stroke="none"/>
<line clip-path="url(#clipPath1)" fill="none" x1="987" x2="1005" y1="298" y2="292" stroke-dasharray="none" stroke="rgb(0,0,139)"/>
<rect x="1003" y="290" clip-path="url(#clipPath1)" fill="rgb(0,0,139)" width="5" stroke-dasharray="none" height="5" stroke="none"/>
<line clip-path="url(#clipPath1)" fill="none" x1="1005" x2="1024" y1="292" y2="286" stroke-dasharray="none" stroke="rgb(0,0,139)"/>
<rect x="1022" y="284" clip-path="url(#clipPath1)" fill="rgb(0,0,139)" width="5" stroke-dasharray="none" height="5" stroke="none"/>
<line clip-path="url(#clipPath1)" fill="none" x1="1024" x2="1042" y1="286" y2="281" stroke-dasharray="none" stroke="rgb(0,0,139)"/>
<rect x="1040" y="279" clip-path="url(#clipPath1)" fill="rgb(0,0,139)" width="5" stroke-dasharray="none" height="5" stroke="none"/>
<line clip-path="url(#clipPath1)" fill="none" x1="1042" x2="1060" y1="281" y2="274" stroke-dasharray="none" stroke="rgb(0,0,139)"/>
<rect x="1058" y="272" clip-path="url(#clipPath1)" fill="rgb(0,0,139)" width="5" stroke-dasharray="none" height="5" stroke="none"/>
<line clip-path="url(#clipPath1)" fill="none" x1="1060" x2="1079" y1="274" y2="269" stroke-dasharray="none" stroke="rgb(0,0,139)"/>
<rect x="1077" y="267" clip-path="url(#clipPath1)" fill="rgb(0,0,139)" width="5" stroke-dasharray="none" height="5" stroke="none"/>
<line clip-path="url(#clipPath1)" fill="none" x1="1079" x2="1097" y1="269" y2="263" stroke-dasharray="none" stroke="rgb(0,0,139)"/>
<rect x="1095" y="261" clip-path="url(#clipPath1)" fill="rgb(0,0,139)" width="5" stroke-dasharray="none" height="5" stroke="none"/>
<line clip-path="url(#clipPath1)" fill="none" x1="1097" x2="1115" y1="263" y2="257" stroke-dasharray="none" stroke="rgb(0,0,139)"/>
<rect x="1113" y="255" clip-path="url(#clipPath1)" fill="rgb(0,0,139)" width="5" stroke-dasharray="none" height="5" stroke="none"/>
<line clip-path="url(#clipPath1)" fill="none" x1="1115" x2="1134" y1="257" y2="251" stroke-dasharray="none" stroke="rgb(0,0,139)"/>
<rect x="1132" y="249" clip-path="url(#clipPath1)" fill="rgb(0,0,139)" width="5" stroke-dasharray="none" height="5" stroke="none"/>
<line clip-path="url(#clipPath1)" fill="none" x1="1134" x2="1152" y1="251" y2="245" stroke-dasharray="none" stroke="rgb(0,0,139)"/>
<rect x="1150" y="243" clip-path="url(#clipPath1)" fill="rgb(0,0,139)" width="5" stroke-dasharray="none" height="5" stroke="none"/>
<line clip-path="url(#clipPath1)" fill="none" x1="1152" x2="1170" y1="245" y2="239" stroke-dasharray="none" stroke="rgb(0,0,139)"/>
<rect x="1168" y="237" clip-path="url(#clipPath1)" fill="rgb(0,0,139)" width="5" stroke-dasharray="none" height="5" stroke="none"/>
<line clip-path="url(#clipPath1)" fill="none" x1="1170" x2="1188" y1="239" y2="233" stroke-dasharray="none" stroke="rgb(0,0,139)"/>
<rect x="1186" y="231" clip-path="url(#clipPath1)" fill="rgb(0,0,139)" width="5" stroke-dasharray="none" height="5" stroke="none"/>
<line clip-path="url(#clipPath1)" fill="none" x1="1188" x2="1207" y1="233" y2="227" stroke-dasharray="none" stroke="rgb(0,0,139)"/>
<rect x="1205" y="225" clip-path="url(#clipPath1)" fill="rgb(0,0,139)" width="5" stroke-dasharray="none" height="5" stroke="none"/>
<line clip-path="url(#clipPath1)" fill="none" x1="1207" x2="1225" y1="227" y2="221" stroke-dasharray="none" stroke="rgb(0,0,139)"/>
<rect x="1223" y="219" clip-path="url(#clipPath1)" fill="rgb(0,0,139)" width="5" stroke-dasharray="none" height="5" stroke="none"/>
<line clip-path="url(#clipPath1)" fill="none" x1="1225" x2="1243" y1="221" y2="215" stroke-dasharray="none" stroke="rgb(0,0,139)"/>
<rect x="1241" y="213" clip-path="url(#clipPath1)" fill="rgb(0,0,139)" width="5" stroke-dasharray="none" height="5" stroke="none"/>
<line clip-path="url(#clipPath1)" fill="none" x1="1243" x2="1262" y1="215" y2="209" stroke-dasharray="none" stroke="rgb(0,0,139)"/>
<rect x="1260" y="207" clip-path="url(#clipPath1)" fill="rgb(0,0,139)" width="5" stroke-dasharray="none" height="5" stroke="none"/>
<line clip-path="url(#clipPath1)" fill="none" x1="1262" x2="1280" y1="209" y2="204" stroke-dasharray="none" stroke="rgb(0,0,139)"/>
<rect x="1278" y="202" clip-path="url(#clipPath1)" fill="rgb(0,0,139)" width="5" stroke-dasharray="none" height="5" stroke="none"/>
<line clip-path="url(#clipPath1)" fill="none" x1="1280" x2="1298" y1="204" y2="197" stroke-dasharray="none" stroke="rgb(0,0,139)"/>
<rect x="1296" y="195" clip-path="url(#clipPath1)" fill="rgb(0,0,139)" width="5" stroke-dasharray="none" height="5" stroke="none"/>
<line clip-path="url(#clipPath1)" fill="none" x1="1298" x2="1317" y1="197" y2="192" stroke-dasharray="none" stroke="rgb(0,0,139)"/>
<rect x="1315" y="190" clip-path="url(#clipPath1)" fill="rgb(0,0,139)" width="5" stroke-dasharray="none" height="5" stroke="none"/>
<line clip-path="url(#clipPath1)" fill="none" x1="1317" x2="1335" y1="192" y2="186" stroke-dasharray="none" stroke="rgb(0,0,139)"/>
<rect x="1333" y="184" clip-path="url(#clipPath1)" fill="rgb(0,0,139)" width="5" stroke-dasharray="none" height="5" stroke="none"/>
<line clip-path="url(#clipPath1)" fill="none" x1="1335" x2="1353" y1="186" y2="180" stroke-dasharray="none" stroke="rgb(0,0,139)"/>
<rect x="1351" y="178" clip-path="url(#clipPath1)" fill="rgb(0,0,139)" width="5" stroke-dasharray="none" height="5" stroke="none"/>
<rect x="54" y="40" clip-path="url(#clipPath2)" fill="none" width="1316" stroke-dasharray="none" height="561" stroke="black"/>
</g>
<g text-rendering="geometricPrecision" font-size="13" font-family="'Arial'" stroke-linecap="butt">
<text xml:space="preserve" x="625" y="12" clip-path="url(#clipPath2)" stroke="none">Total users' queues lengths</text>
<line clip-path="url(#clipPath2)" fill="none" x1="54" x2="1370" y1="38" y2="38"/>
<line clip-path="url(#clipPath2)" fill="none" x1="54" x2="1370" y1="603" y2="603"/>
<text xml:space="preserve" x="700" y="637" clip-path="url(#clipPath2)" stroke="none">time</text>
<line clip-path="url(#clipPath2)" fill="none" x1="54" x2="54" y1="34" y2="38"/>
<line clip-path="url(#clipPath2)" fill="none" x1="54" x2="54" y1="607" y2="603"/>
<text x="45" font-size="10" y="29" clip-path="url(#clipPath2)" stroke="none" xml:space="preserve">0.00</text>
<text x="45" font-size="10" y="618" clip-path="url(#clipPath2)" stroke="none" xml:space="preserve">0.00</text>
<line clip-path="url(#clipPath2)" fill="none" x1="72" x2="72" y1="36" y2="38"/>
<line clip-path="url(#clipPath2)" fill="none" x1="72" x2="72" y1="605" y2="603"/>
<line clip-path="url(#clipPath2)" fill="none" x1="90" x2="90" y1="36" y2="38"/>
<line clip-path="url(#clipPath2)" fill="none" x1="90" x2="90" y1="605" y2="603"/>
<line clip-path="url(#clipPath2)" fill="none" x1="108" x2="108" y1="36" y2="38"/>
<line clip-path="url(#clipPath2)" fill="none" x1="108" x2="108" y1="605" y2="603"/>
<line clip-path="url(#clipPath2)" fill="none" x1="127" x2="127" y1="36" y2="38"/>
<line clip-path="url(#clipPath2)" fill="none" x1="127" x2="127" y1="605" y2="603"/>
<line clip-path="url(#clipPath2)" fill="none" x1="145" x2="145" y1="34" y2="38"/>
<line clip-path="url(#clipPath2)" fill="none" x1="145" x2="145" y1="607" y2="603"/>
<text x="134" font-size="10" y="29" clip-path="url(#clipPath2)" stroke="none" xml:space="preserve">0.005</text>
<text x="134" font-size="10" y="618" clip-path="url(#clipPath2)" stroke="none" xml:space="preserve">0.005</text>
<line clip-path="url(#clipPath2)" fill="none" x1="163" x2="163" y1="36" y2="38"/>
<line clip-path="url(#clipPath2)" fill="none" x1="163" x2="163" y1="605" y2="603"/>
<line clip-path="url(#clipPath2)" fill="none" x1="182" x2="182" y1="36" y2="38"/>
<line clip-path="url(#clipPath2)" fill="none" x1="182" x2="182" y1="605" y2="603"/>
<line clip-path="url(#clipPath2)" fill="none" x1="200" x2="200" y1="36" y2="38"/>
<line clip-path="url(#clipPath2)" fill="none" x1="200" x2="200" y1="605" y2="603"/>
<line clip-path="url(#clipPath2)" fill="none" x1="218" x2="218" y1="36" y2="38"/>
<line clip-path="url(#clipPath2)" fill="none" x1="218" x2="218" y1="605" y2="603"/>
<line clip-path="url(#clipPath2)" fill="none" x1="237" x2="237" y1="34" y2="38"/>
<line clip-path="url(#clipPath2)" fill="none" x1="237" x2="237" y1="607" y2="603"/>
<text x="226" font-size="10" y="29" clip-path="url(#clipPath2)" stroke="none" xml:space="preserve">0.010</text>
<text x="226" font-size="10" y="618" clip-path="url(#clipPath2)" stroke="none" xml:space="preserve">0.010</text>
<line clip-path="url(#clipPath2)" fill="none" x1="255" x2="255" y1="36" y2="38"/>
<line clip-path="url(#clipPath2)" fill="none" x1="255" x2="255" y1="605" y2="603"/>
<line clip-path="url(#clipPath2)" fill="none" x1="273" x2="273" y1="36" y2="38"/>
<line clip-path="url(#clipPath2)" fill="none" x1="273" x2="273" y1="605" y2="603"/>
<line clip-path="url(#clipPath2)" fill="none" x1="291" x2="291" y1="36" y2="38"/>
<line clip-path="url(#clipPath2)" fill="none" x1="291" x2="291" y1="605" y2="603"/>
<line clip-path="url(#clipPath2)" fill="none" x1="310" x2="310" y1="36" y2="38"/>
<line clip-path="url(#clipPath2)" fill="none" x1="310" x2="310" y1="605" y2="603"/>
<line clip-path="url(#clipPath2)" fill="none" x1="328" x2="328" y1="34" y2="38"/>
<line clip-path="url(#clipPath2)" fill="none" x1="328" x2="328" y1="607" y2="603"/>
<text x="317" font-size="10" y="29" clip-path="url(#clipPath2)" stroke="none" xml:space="preserve">0.015</text>
<text x="317" font-size="10" y="618" clip-path="url(#clipPath2)" stroke="none" xml:space="preserve">0.015</text>
<line clip-path="url(#clipPath2)" fill="none" x1="346" x2="346" y1="36" y2="38"/>
<line clip-path="url(#clipPath2)" fill="none" x1="346" x2="346" y1="605" y2="603"/>
<line clip-path="url(#clipPath2)" fill="none" x1="365" x2="365" y1="36" y2="38"/>
<line clip-path="url(#clipPath2)" fill="none" x1="365" x2="365" y1="605" y2="603"/>
<line clip-path="url(#clipPath2)" fill="none" x1="383" x2="383" y1="36" y2="38"/>
<line clip-path="url(#clipPath2)" fill="none" x1="383" x2="383" y1="605" y2="603"/>
<line clip-path="url(#clipPath2)" fill="none" x1="401" x2="401" y1="36" y2="38"/>
<line clip-path="url(#clipPath2)" fill="none" x1="401" x2="401" y1="605" y2="603"/>
<line clip-path="url(#clipPath2)" fill="none" x1="420" x2="420" y1="34" y2="38"/>
<line clip-path="url(#clipPath2)" fill="none" x1="420" x2="420" y1="607" y2="603"/>
<text x="409" font-size="10" y="29" clip-path="url(#clipPath2)" stroke="none" xml:space="preserve">0.020</text>
<text x="409" font-size="10" y="618" clip-path="url(#clipPath2)" stroke="none" xml:space="preserve">0.020</text>
<line clip-path="url(#clipPath2)" fill="none" x1="438" x2="438" y1="36" y2="38"/>
<line clip-path="url(#clipPath2)" fill="none" x1="438" x2="438" y1="605" y2="603"/>
<line clip-path="url(#clipPath2)" fill="none" x1="456" x2="456" y1="36" y2="38"/>
<line clip-path="url(#clipPath2)" fill="none" x1="456" x2="456" y1="605" y2="603"/>
<line clip-path="url(#clipPath2)" fill="none" x1="475" x2="475" y1="36" y2="38"/>
<line clip-path="url(#clipPath2)" fill="none" x1="475" x2="475" y1="605" y2="603"/>
<line clip-path="url(#clipPath2)" fill="none" x1="493" x2="493" y1="36" y2="38"/>
<line clip-path="url(#clipPath2)" fill="none" x1="493" x2="493" y1="605" y2="603"/>
<line clip-path="url(#clipPath2)" fill="none" x1="511" x2="511" y1="34" y2="38"/>
<line clip-path="url(#clipPath2)" fill="none" x1="511" x2="511" y1="607" y2="603"/>
<text x="500" font-size="10" y="29" clip-path="url(#clipPath2)" stroke="none" xml:space="preserve">0.025</text>
<text x="500" font-size="10" y="618" clip-path="url(#clipPath2)" stroke="none" xml:space="preserve">0.025</text>
<line clip-path="url(#clipPath2)" fill="none" x1="529" x2="529" y1="36" y2="38"/>
<line clip-path="url(#clipPath2)" fill="none" x1="529" x2="529" y1="605" y2="603"/>
<line clip-path="url(#clipPath2)" fill="none" x1="548" x2="548" y1="36" y2="38"/>
<line clip-path="url(#clipPath2)" fill="none" x1="548" x2="548" y1="605" y2="603"/>
<line clip-path="url(#clipPath2)" fill="none" x1="566" x2="566" y1="36" y2="38"/>
<line clip-path="url(#clipPath2)" fill="none" x1="566" x2="566" y1="605" y2="603"/>
<line clip-path="url(#clipPath2)" fill="none" x1="584" x2="584" y1="36" y2="38"/>
<line clip-path="url(#clipPath2)" fill="none" x1="584" x2="584" y1="605" y2="603"/>
<line clip-path="url(#clipPath2)" fill="none" x1="603" x2="603" y1="34" y2="38"/>
<line clip-path="url(#clipPath2)" fill="none" x1="603" x2="603" y1="607" y2="603"/>
<text x="592" font-size="10" y="29" clip-path="url(#clipPath2)" stroke="none" xml:space="preserve">0.030</text>
<text x="592" font-size="10" y="618" clip-path="url(#clipPath2)" stroke="none" xml:space="preserve">0.030</text>
<line clip-path="url(#clipPath2)" fill="none" x1="621" x2="621" y1="36" y2="38"/>
<line clip-path="url(#clipPath2)" fill="none" x1="621" x2="621" y1="605" y2="603"/>
<line clip-path="url(#clipPath2)" fill="none" x1="639" x2="639" y1="36" y2="38"/>
<line clip-path="url(#clipPath2)" fill="none" x1="639" x2="639" y1="605" y2="603"/>
<line clip-path="url(#clipPath2)" fill="none" x1="658" x2="658" y1="36" y2="38"/>
<line clip-path="url(#clipPath2)" fill="none" x1="658" x2="658" y1="605" y2="603"/>
<line clip-path="url(#clipPath2)" fill="none" x1="676" x2="676" y1="36" y2="38"/>
<line clip-path="url(#clipPath2)" fill="none" x1="676" x2="676" y1="605" y2="603"/>
<line clip-path="url(#clipPath2)" fill="none" x1="694" x2="694" y1="34" y2="38"/>
<line clip-path="url(#clipPath2)" fill="none" x1="694" x2="694" y1="607" y2="603"/>
<text x="683" font-size="10" y="29" clip-path="url(#clipPath2)" stroke="none" xml:space="preserve">0.035</text>
<text x="683" font-size="10" y="618" clip-path="url(#clipPath2)" stroke="none" xml:space="preserve">0.035</text>
<line clip-path="url(#clipPath2)" fill="none" x1="713" x2="713" y1="36" y2="38"/>
<line clip-path="url(#clipPath2)" fill="none" x1="713" x2="713" y1="605" y2="603"/>
<line clip-path="url(#clipPath2)" fill="none" x1="731" x2="731" y1="36" y2="38"/>
<line clip-path="url(#clipPath2)" fill="none" x1="731" x2="731" y1="605" y2="603"/>
<line clip-path="url(#clipPath2)" fill="none" x1="749" x2="749" y1="36" y2="38"/>
<line clip-path="url(#clipPath2)" fill="none" x1="749" x2="749" y1="605" y2="603"/>
<line clip-path="url(#clipPath2)" fill="none" x1="767" x2="767" y1="36" y2="38"/>
<line clip-path="url(#clipPath2)" fill="none" x1="767" x2="767" y1="605" y2="603"/>
<line clip-path="url(#clipPath2)" fill="none" x1="786" x2="786" y1="34" y2="38"/>
<line clip-path="url(#clipPath2)" fill="none" x1="786" x2="786" y1="607" y2="603"/>
<text x="775" font-size="10" y="29" clip-path="url(#clipPath2)" stroke="none" xml:space="preserve">0.040</text>
<text x="775" font-size="10" y="618" clip-path="url(#clipPath2)" stroke="none" xml:space="preserve">0.040</text>
<line clip-path="url(#clipPath2)" fill="none" x1="804" x2="804" y1="36" y2="38"/>
<line clip-path="url(#clipPath2)" fill="none" x1="804" x2="804" y1="605" y2="603"/>
<line clip-path="url(#clipPath2)" fill="none" x1="822" x2="822" y1="36" y2="38"/>
<line clip-path="url(#clipPath2)" fill="none" x1="822" x2="822" y1="605" y2="603"/>
<line clip-path="url(#clipPath2)" fill="none" x1="841" x2="841" y1="36" y2="38"/>
<line clip-path="url(#clipPath2)" fill="none" x1="841" x2="841" y1="605" y2="603"/>
<line clip-path="url(#clipPath2)" fill="none" x1="859" x2="859" y1="36" y2="38"/>
<line clip-path="url(#clipPath2)" fill="none" x1="859" x2="859" y1="605" y2="603"/>
<line clip-path="url(#clipPath2)" fill="none" x1="877" x2="877" y1="34" y2="38"/>
<line clip-path="url(#clipPath2)" fill="none" x1="877" x2="877" y1="607" y2="603"/>
<text x="866" font-size="10" y="29" clip-path="url(#clipPath2)" stroke="none" xml:space="preserve">0.045</text>
<text x="866" font-size="10" y="618" clip-path="url(#clipPath2)" stroke="none" xml:space="preserve">0.045</text>
<line clip-path="url(#clipPath2)" fill="none" x1="896" x2="896" y1="36" y2="38"/>
<line clip-path="url(#clipPath2)" fill="none" x1="896" x2="896" y1="605" y2="603"/>
<line clip-path="url(#clipPath2)" fill="none" x1="914" x2="914" y1="36" y2="38"/>
<line clip-path="url(#clipPath2)" fill="none" x1="914" x2="914" y1="605" y2="603"/>
<line clip-path="url(#clipPath2)" fill="none" x1="932" x2="932" y1="36" y2="38"/>
<line clip-path="url(#clipPath2)" fill="none" x1="932" x2="932" y1="605" y2="603"/>
<line clip-path="url(#clipPath2)" fill="none" x1="951" x2="951" y1="36" y2="38"/>
<line clip-path="url(#clipPath2)" fill="none" x1="951" x2="951" y1="605" y2="603"/>
<line clip-path="url(#clipPath2)" fill="none" x1="969" x2="969" y1="34" y2="38"/>
<line clip-path="url(#clipPath2)" fill="none" x1="969" x2="969" y1="607" y2="603"/>
<text x="958" font-size="10" y="29" clip-path="url(#clipPath2)" stroke="none" xml:space="preserve">0.050</text>
<text x="958" font-size="10" y="618" clip-path="url(#clipPath2)" stroke="none" xml:space="preserve">0.050</text>
<line clip-path="url(#clipPath2)" fill="none" x1="987" x2="987" y1="36" y2="38"/>
<line clip-path="url(#clipPath2)" fill="none" x1="987" x2="987" y1="605" y2="603"/>
<line clip-path="url(#clipPath2)" fill="none" x1="1005" x2="1005" y1="36" y2="38"/>
<line clip-path="url(#clipPath2)" fill="none" x1="1005" x2="1005" y1="605" y2="603"/>
<line clip-path="url(#clipPath2)" fill="none" x1="1024" x2="1024" y1="36" y2="38"/>
<line clip-path="url(#clipPath2)" fill="none" x1="1024" x2="1024" y1="605" y2="603"/>
<line clip-path="url(#clipPath2)" fill="none" x1="1042" x2="1042" y1="36" y2="38"/>
<line clip-path="url(#clipPath2)" fill="none" x1="1042" x2="1042" y1="605" y2="603"/>
<line clip-path="url(#clipPath2)" fill="none" x1="1060" x2="1060" y1="34" y2="38"/>
<line clip-path="url(#clipPath2)" fill="none" x1="1060" x2="1060" y1="607" y2="603"/>
<text x="1049" font-size="10" y="29" clip-path="url(#clipPath2)" stroke="none" xml:space="preserve">0.055</text>
<text x="1049" font-size="10" y="618" clip-path="url(#clipPath2)" stroke="none" xml:space="preserve">0.055</text>
<line clip-path="url(#clipPath2)" fill="none" x1="1079" x2="1079" y1="36" y2="38"/>
<line clip-path="url(#clipPath2)" fill="none" x1="1079" x2="1079" y1="605" y2="603"/>
<line clip-path="url(#clipPath2)" fill="none" x1="1097" x2="1097" y1="36" y2="38"/>
<line clip-path="url(#clipPath2)" fill="none" x1="1097" x2="1097" y1="605" y2="603"/>
<line clip-path="url(#clipPath2)" fill="none" x1="1115" x2="1115" y1="36" y2="38"/>
<line clip-path="url(#clipPath2)" fill="none" x1="1115" x2="1115" y1="605" y2="603"/>
<line clip-path="url(#clipPath2)" fill="none" x1="1134" x2="1134" y1="36" y2="38"/>
<line clip-path="url(#clipPath2)" fill="none" x1="1134" x2="1134" y1="605" y2="603"/>
<line clip-path="url(#clipPath2)" fill="none" x1="1152" x2="1152" y1="34" y2="38"/>
<line clip-path="url(#clipPath2)" fill="none" x1="1152" x2="1152" y1="607" y2="603"/>
<text x="1141" font-size="10" y="29" clip-path="url(#clipPath2)" stroke="none" xml:space="preserve">0.060</text>
<text x="1141" font-size="10" y="618" clip-path="url(#clipPath2)" stroke="none" xml:space="preserve">0.060</text>
<line clip-path="url(#clipPath2)" fill="none" x1="1170" x2="1170" y1="36" y2="38"/>
<line clip-path="url(#clipPath2)" fill="none" x1="1170" x2="1170" y1="605" y2="603"/>
<line clip-path="url(#clipPath2)" fill="none" x1="1188" x2="1188" y1="36" y2="38"/>
<line clip-path="url(#clipPath2)" fill="none" x1="1188" x2="1188" y1="605" y2="603"/>
<line clip-path="url(#clipPath2)" fill="none" x1="1207" x2="1207" y1="36" y2="38"/>
<line clip-path="url(#clipPath2)" fill="none" x1="1207" x2="1207" y1="605" y2="603"/>
<line clip-path="url(#clipPath2)" fill="none" x1="1225" x2="1225" y1="36" y2="38"/>
<line clip-path="url(#clipPath2)" fill="none" x1="1225" x2="1225" y1="605" y2="603"/>
<line clip-path="url(#clipPath2)" fill="none" x1="1243" x2="1243" y1="34" y2="38"/>
<line clip-path="url(#clipPath2)" fill="none" x1="1243" x2="1243" y1="607" y2="603"/>
<text x="1232" font-size="10" y="29" clip-path="url(#clipPath2)" stroke="none" xml:space="preserve">0.065</text>
<text x="1232" font-size="10" y="618" clip-path="url(#clipPath2)" stroke="none" xml:space="preserve">0.065</text>
<line clip-path="url(#clipPath2)" fill="none" x1="1262" x2="1262" y1="36" y2="38"/>
<line clip-path="url(#clipPath2)" fill="none" x1="1262" x2="1262" y1="605" y2="603"/>
<line clip-path="url(#clipPath2)" fill="none" x1="1280" x2="1280" y1="36" y2="38"/>
<line clip-path="url(#clipPath2)" fill="none" x1="1280" x2="1280" y1="605" y2="603"/>
<line clip-path="url(#clipPath2)" fill="none" x1="1298" x2="1298" y1="36" y2="38"/>
<line clip-path="url(#clipPath2)" fill="none" x1="1298" x2="1298" y1="605" y2="603"/>
<line clip-path="url(#clipPath2)" fill="none" x1="1317" x2="1317" y1="36" y2="38"/>
<line clip-path="url(#clipPath2)" fill="none" x1="1317" x2="1317" y1="605" y2="603"/>
<line clip-path="url(#clipPath2)" fill="none" x1="1335" x2="1335" y1="34" y2="38"/>
<line clip-path="url(#clipPath2)" fill="none" x1="1335" x2="1335" y1="607" y2="603"/>
<text x="1324" font-size="10" y="29" clip-path="url(#clipPath2)" stroke="none" xml:space="preserve">0.070</text>
<text x="1324" font-size="10" y="618" clip-path="url(#clipPath2)" stroke="none" xml:space="preserve">0.070</text>
<line clip-path="url(#clipPath2)" fill="none" x1="1353" x2="1353" y1="36" y2="38"/>
<line clip-path="url(#clipPath2)" fill="none" x1="1353" x2="1353" y1="605" y2="603"/>
<line clip-path="url(#clipPath2)" fill="none" x1="52" x2="52" y1="40" y2="601"/>
<line clip-path="url(#clipPath2)" fill="none" x1="1372" x2="1372" y1="40" y2="601"/>
<line clip-path="url(#clipPath2)" fill="none" x1="48" x2="52" y1="601" y2="601"/>
<line clip-path="url(#clipPath2)" fill="none" x1="1376" x2="1372" y1="601" y2="601"/>
<text x="42" font-size="10" y="604" clip-path="url(#clipPath2)" stroke="none" xml:space="preserve">0</text>
<text x="1379" font-size="10" y="604" clip-path="url(#clipPath2)" stroke="none" xml:space="preserve">0</text>
<line clip-path="url(#clipPath2)" fill="none" x1="50" x2="52" y1="559" y2="559"/>
<line clip-path="url(#clipPath2)" fill="none" x1="1374" x2="1372" y1="559" y2="559"/>
<line clip-path="url(#clipPath2)" fill="none" x1="48" x2="52" y1="518" y2="518"/>
<line clip-path="url(#clipPath2)" fill="none" x1="1376" x2="1372" y1="518" y2="518"/>
<text x="32" font-size="10" y="521" clip-path="url(#clipPath2)" stroke="none" xml:space="preserve">200</text>
<text x="1379" font-size="10" y="521" clip-path="url(#clipPath2)" stroke="none" xml:space="preserve">200</text>
<line clip-path="url(#clipPath2)" fill="none" x1="50" x2="52" y1="477" y2="477"/>
<line clip-path="url(#clipPath2)" fill="none" x1="1374" x2="1372" y1="477" y2="477"/>
<line clip-path="url(#clipPath2)" fill="none" x1="48" x2="52" y1="436" y2="436"/>
<line clip-path="url(#clipPath2)" fill="none" x1="1376" x2="1372" y1="436" y2="436"/>
<text x="32" font-size="10" y="439" clip-path="url(#clipPath2)" stroke="none" xml:space="preserve">400</text>
<text x="1379" font-size="10" y="439" clip-path="url(#clipPath2)" stroke="none" xml:space="preserve">400</text>
<line clip-path="url(#clipPath2)" fill="none" x1="50" x2="52" y1="395" y2="395"/>
<line clip-path="url(#clipPath2)" fill="none" x1="1374" x2="1372" y1="395" y2="395"/>
<line clip-path="url(#clipPath2)" fill="none" x1="48" x2="52" y1="353" y2="353"/>
<line clip-path="url(#clipPath2)" fill="none" x1="1376" x2="1372" y1="353" y2="353"/>
<text x="32" font-size="10" y="356" clip-path="url(#clipPath2)" stroke="none" xml:space="preserve">600</text>
<text x="1379" font-size="10" y="356" clip-path="url(#clipPath2)" stroke="none" xml:space="preserve">600</text>
<line clip-path="url(#clipPath2)" fill="none" x1="50" x2="52" y1="312" y2="312"/>
<line clip-path="url(#clipPath2)" fill="none" x1="1374" x2="1372" y1="312" y2="312"/>
<line clip-path="url(#clipPath2)" fill="none" x1="48" x2="52" y1="271" y2="271"/>
<line clip-path="url(#clipPath2)" fill="none" x1="1376" x2="1372" y1="271" y2="271"/>
<text x="32" font-size="10" y="274" clip-path="url(#clipPath2)" stroke="none" xml:space="preserve">800</text>
<text x="1379" font-size="10" y="274" clip-path="url(#clipPath2)" stroke="none" xml:space="preserve">800</text>
<line clip-path="url(#clipPath2)" fill="none" x1="50" x2="52" y1="230" y2="230"/>
<line clip-path="url(#clipPath2)" fill="none" x1="1374" x2="1372" y1="230" y2="230"/>
<line clip-path="url(#clipPath2)" fill="none" x1="48" x2="52" y1="189" y2="189"/>
<line clip-path="url(#clipPath2)" fill="none" x1="1376" x2="1372" y1="189" y2="189"/>
<text x="27" font-size="10" y="192" clip-path="url(#clipPath2)" stroke="none" xml:space="preserve">1000</text>
<text x="1379" font-size="10" y="192" clip-path="url(#clipPath2)" stroke="none" xml:space="preserve">1000</text>
<line clip-path="url(#clipPath2)" fill="none" x1="50" x2="52" y1="148" y2="148"/>
<line clip-path="url(#clipPath2)" fill="none" x1="1374" x2="1372" y1="148" y2="148"/>
<line clip-path="url(#clipPath2)" fill="none" x1="48" x2="52" y1="106" y2="106"/>
<line clip-path="url(#clipPath2)" fill="none" x1="1376" x2="1372" y1="106" y2="106"/>
<text x="27" font-size="10" y="109" clip-path="url(#clipPath2)" stroke="none" xml:space="preserve">1200</text>
<text x="1379" font-size="10" y="109" clip-path="url(#clipPath2)" stroke="none" xml:space="preserve">1200</text>
<line clip-path="url(#clipPath2)" fill="none" x1="50" x2="52" y1="65" y2="65"/>
<line clip-path="url(#clipPath2)" fill="none" x1="1374" x2="1372" y1="65" y2="65"/>
</g>
</g>
</svg>
