<?xml version="1.0" encoding="UTF-8"?><svg xmlns="http://www.w3.org/2000/svg" xmlns:xlink="http://www.w3.org/1999/xlink" stroke-dasharray="none" shape-rendering="auto" font-family="'Dialog'" width="1408" text-rendering="auto" fill-opacity="1" contentScriptType="text/ecmascript" color-interpolation="auto" color-rendering="auto" preserveAspectRatio="xMidYMid meet" font-size="12" fill="black" stroke="black" image-rendering="auto" stroke-miterlimit="10" zoomAndPan="magnify" version="1.0" stroke-linecap="square" stroke-linejoin="miter" contentStyleType="text/css" font-style="normal" height="641" stroke-width="1" stroke-dashoffset="0" font-weight="normal" stroke-opacity="1">
<!--Generated by the Batik Graphics2D SVG Generator-->
<defs id="genericDefs"/>
<g>
<defs id="defs1">
<clipPath clipPathUnits="userSpaceOnUse" id="clipPath1">
<path d="M30 23 L1378 23 L1378 618 L30 618 L30 23 Z"/>
</clipPath>
<clipPath clipPathUnits="userSpaceOnUse" id="clipPath2">
<path d="M-1 -1 L1409 -1 L1409 642 L-1 642 L-1 -1 Z"/>
</clipPath>
</defs>
<g fill="white" text-rendering="geometricPrecision" font-family="'Segoe UI'" stroke-linejoin="round" stroke="white" stroke-width="0" stroke-miterlimit="0">
<rect x="31" y="24" clip-path="url(#clipPath1)" width="1346" height="593" stroke="none"/>
</g>
<g stroke-linecap="butt" fill="rgb(204,204,204)" text-rendering="geometricPrecision" font-family="'Segoe UI'" stroke-dasharray="3,3" stroke="rgb(204,204,204)">
<line clip-path="url(#clipPath1)" fill="none" x1="31" x2="31" y1="24" y2="617"/>
<line clip-path="url(#clipPath1)" fill="none" x1="125" x2="125" y1="24" y2="617"/>
<line clip-path="url(#clipPath1)" fill="none" x1="220" x2="220" y1="24" y2="617"/>
<line clip-path="url(#clipPath1)" fill="none" x1="315" x2="315" y1="24" y2="617"/>
<line clip-path="url(#clipPath1)" fill="none" x1="410" x2="410" y1="24" y2="617"/>
<line clip-path="url(#clipPath1)" fill="none" x1="505" x2="505" y1="24" y2="617"/>
<line clip-path="url(#clipPath1)" fill="none" x1="600" x2="600" y1="24" y2="617"/>
<line clip-path="url(#clipPath1)" fill="none" x1="695" x2="695" y1="24" y2="617"/>
<line clip-path="url(#clipPath1)" fill="none" x1="790" x2="790" y1="24" y2="617"/>
<line clip-path="url(#clipPath1)" fill="none" x1="885" x2="885" y1="24" y2="617"/>
<line clip-path="url(#clipPath1)" fill="none" x1="980" x2="980" y1="24" y2="617"/>
<line clip-path="url(#clipPath1)" fill="none" x1="1075" x2="1075" y1="24" y2="617"/>
<line clip-path="url(#clipPath1)" fill="none" x1="1170" x2="1170" y1="24" y2="617"/>
<line clip-path="url(#clipPath1)" fill="none" x1="1265" x2="1265" y1="24" y2="617"/>
<line clip-path="url(#clipPath1)" fill="none" x1="1360" x2="1360" y1="24" y2="617"/>
<line clip-path="url(#clipPath1)" fill="none" x1="31" x2="1377" y1="617" y2="617"/>
<line clip-path="url(#clipPath1)" fill="none" x1="31" x2="1377" y1="557" y2="557"/>
<line clip-path="url(#clipPath1)" fill="none" x1="31" x2="1377" y1="498" y2="498"/>
<line clip-path="url(#clipPath1)" fill="none" x1="31" x2="1377" y1="439" y2="439"/>
<line clip-path="url(#clipPath1)" fill="none" x1="31" x2="1377" y1="379" y2="379"/>
<line clip-path="url(#clipPath1)" fill="none" x1="31" x2="1377" y1="320" y2="320"/>
<line clip-path="url(#clipPath1)" fill="none" x1="31" x2="1377" y1="261" y2="261"/>
<line clip-path="url(#clipPath1)" fill="none" x1="31" x2="1377" y1="201" y2="201"/>
<line clip-path="url(#clipPath1)" fill="none" x1="31" x2="1377" y1="142" y2="142"/>
<line clip-path="url(#clipPath1)" fill="none" x1="31" x2="1377" y1="83" y2="83"/>
<rect x="47" y="615" clip-path="url(#clipPath1)" fill="rgb(0,0,139)" width="5" height="5" stroke="none"/>
<line clip-path="url(#clipPath1)" fill="none" x1="49" x2="68" y1="617" y2="617" stroke-dasharray="none" stroke="rgb(0,0,139)"/>
<rect x="66" y="615" clip-path="url(#clipPath1)" fill="rgb(0,0,139)" width="5" stroke-dasharray="none" height="5" stroke="none"/>
<line clip-path="url(#clipPath1)" fill="none" x1="68" x2="87" y1="617" y2="617" stroke-dasharray="none" stroke="rgb(0,0,139)"/>
<rect x="85" y="615" clip-path="url(#clipPath1)" fill="rgb(0,0,139)" width="5" stroke-dasharray="none" height="5" stroke="none"/>
<line clip-path="url(#clipPath1)" fill="none" x1="87" x2="106" y1="617" y2="617" stroke-dasharray="none" stroke="rgb(0,0,139)"/>
<rect x="104" y="615" clip-path="url(#clipPath1)" fill="rgb(0,0,139)" width="5" stroke-dasharray="none" height="5" stroke="none"/>
<line clip-path="url(#clipPath1)" fill="none" x1="106" x2="125" y1="617" y2="617" stroke-dasharray="none" stroke="rgb(0,0,139)"/>
<rect x="123" y="615" clip-path="url(#clipPath1)" fill="rgb(0,0,139)" width="5" stroke-dasharray="none" height="5" stroke="none"/>
<line clip-path="url(#clipPath1)" fill="none" x1="125" x2="144" y1="617" y2="617" stroke-dasharray="none" stroke="rgb(0,0,139)"/>
<rect x="142" y="615" clip-path="url(#clipPath1)" fill="rgb(0,0,139)" width="5" stroke-dasharray="none" height="5" stroke="none"/>
<line clip-path="url(#clipPath1)" fill="none" x1="144" x2="163" y1="617" y2="617" stroke-dasharray="none" stroke="rgb(0,0,139)"/>
<rect x="161" y="615" clip-path="url(#clipPath1)" fill="rgb(0,0,139)" width="5" stroke-dasharray="none" height="5" stroke="none"/>
<line clip-path="url(#clipPath1)" fill="none" x1="163" x2="182" y1="617" y2="617" stroke-dasharray="none" stroke="rgb(0,0,139)"/>
<rect x="180" y="615" clip-path="url(#clipPath1)" fill="rgb(0,0,139)" width="5" stroke-dasharray="none" height="5" stroke="none"/>
<line clip-path="url(#clipPath1)" fill="none" x1="182" x2="201" y1="617" y2="617" stroke-dasharray="none" stroke="rgb(0,0,139)"/>
<rect x="199" y="615" clip-path="url(#clipPath1)" fill="rgb(0,0,139)" width="5" stroke-dasharray="none" height="5" stroke="none"/>
<line clip-path="url(#clipPath1)" fill="none" x1="201" x2="220" y1="617" y2="617" stroke-dasharray="none" stroke="rgb(0,0,139)"/>
<rect x="218" y="615" clip-path="url(#clipPath1)" fill="rgb(0,0,139)" width="5" stroke-dasharray="none" height="5" stroke="none"/>
<line clip-path="url(#clipPath1)" fill="none" x1="220" x2="239" y1="617" y2="617" stroke-dasharray="none" stroke="rgb(0,0,139)"/>
<rect x="237" y="615" clip-path="url(#clipPath1)" fill="rgb(0,0,139)" width="5" stroke-dasharray="none" height="5" stroke="none"/>
<line clip-path="url(#clipPath1)" fill="none" x1="239" x2="258" y1="617" y2="617" stroke-dasharray="none" stroke="rgb(0,0,139)"/>
<rect x="256" y="615" clip-path="url(#clipPath1)" fill="rgb(0,0,139)" width="5" stroke-dasharray="none" height="5" stroke="none"/>
<line clip-path="url(#clipPath1)" fill="none" x1="258" x2="277" y1="617" y2="617" stroke-dasharray="none" stroke="rgb(0,0,139)"/>
<rect x="275" y="615" clip-path="url(#clipPath1)" fill="rgb(0,0,139)" width="5" stroke-dasharray="none" height="5" stroke="none"/>
<line clip-path="url(#clipPath1)" fill="none" x1="277" x2="296" y1="617" y2="617" stroke-dasharray="none" stroke="rgb(0,0,139)"/>
<rect x="294" y="615" clip-path="url(#clipPath1)" fill="rgb(0,0,139)" width="5" stroke-dasharray="none" height="5" stroke="none"/>
<line clip-path="url(#clipPath1)" fill="none" x1="296" x2="315" y1="617" y2="617" stroke-dasharray="none" stroke="rgb(0,0,139)"/>
<rect x="313" y="615" clip-path="url(#clipPath1)" fill="rgb(0,0,139)" width="5" stroke-dasharray="none" height="5" stroke="none"/>
<line clip-path="url(#clipPath1)" fill="none" x1="315" x2="334" y1="617" y2="617" stroke-dasharray="none" stroke="rgb(0,0,139)"/>
<rect x="332" y="615" clip-path="url(#clipPath1)" fill="rgb(0,0,139)" width="5" stroke-dasharray="none" height="5" stroke="none"/>
<line clip-path="url(#clipPath1)" fill="none" x1="334" x2="353" y1="617" y2="617" stroke-dasharray="none" stroke="rgb(0,0,139)"/>
<rect x="351" y="615" clip-path="url(#clipPath1)" fill="rgb(0,0,139)" width="5" stroke-dasharray="none" height="5" stroke="none"/>
<line clip-path="url(#clipPath1)" fill="none" x1="353" x2="372" y1="617" y2="617" stroke-dasharray="none" stroke="rgb(0,0,139)"/>
<rect x="370" y="615" clip-path="url(#clipPath1)" fill="rgb(0,0,139)" width="5" stroke-dasharray="none" height="5" stroke="none"/>
<line clip-path="url(#clipPath1)" fill="none" x1="372" x2="391" y1="617" y2="617" stroke-dasharray="none" stroke="rgb(0,0,139)"/>
<rect x="389" y="615" clip-path="url(#clipPath1)" fill="rgb(0,0,139)" width="5" stroke-dasharray="none" height="5" stroke="none"/>
<line clip-path="url(#clipPath1)" fill="none" x1="391" x2="410" y1="617" y2="617" stroke-dasharray="none" stroke="rgb(0,0,139)"/>
<rect x="408" y="615" clip-path="url(#clipPath1)" fill="rgb(0,0,139)" width="5" stroke-dasharray="none" height="5" stroke="none"/>
<line clip-path="url(#clipPath1)" fill="none" x1="410" x2="429" y1="617" y2="617" stroke-dasharray="none" stroke="rgb(0,0,139)"/>
<rect x="427" y="615" clip-path="url(#clipPath1)" fill="rgb(0,0,139)" width="5" stroke-dasharray="none" height="5" stroke="none"/>
<line clip-path="url(#clipPath1)" fill="none" x1="429" x2="448" y1="617" y2="617" stroke-dasharray="none" stroke="rgb(0,0,139)"/>
<rect x="446" y="615" clip-path="url(#clipPath1)" fill="rgb(0,0,139)" width="5" stroke-dasharray="none" height="5" stroke="none"/>
<line clip-path="url(#clipPath1)" fill="none" x1="448" x2="467" y1="617" y2="617" stroke-dasharray="none" stroke="rgb(0,0,139)"/>
<rect x="465" y="615" clip-path="url(#clipPath1)" fill="rgb(0,0,139)" width="5" stroke-dasharray="none" height="5" stroke="none"/>
<line clip-path="url(#clipPath1)" fill="none" x1="467" x2="486" y1="617" y2="617" stroke-dasharray="none" stroke="rgb(0,0,139)"/>
<rect x="484" y="615" clip-path="url(#clipPath1)" fill="rgb(0,0,139)" width="5" stroke-dasharray="none" height="5" stroke="none"/>
<line clip-path="url(#clipPath1)" fill="none" x1="486" x2="505" y1="617" y2="617" stroke-dasharray="none" stroke="rgb(0,0,139)"/>
<rect x="503" y="615" clip-path="url(#clipPath1)" fill="rgb(0,0,139)" width="5" stroke-dasharray="none" height="5" stroke="none"/>
<line clip-path="url(#clipPath1)" fill="none" x1="505" x2="524" y1="617" y2="617" stroke-dasharray="none" stroke="rgb(0,0,139)"/>
<rect x="522" y="615" clip-path="url(#clipPath1)" fill="rgb(0,0,139)" width="5" stroke-dasharray="none" height="5" stroke="none"/>
<line clip-path="url(#clipPath1)" fill="none" x1="524" x2="543" y1="617" y2="617" stroke-dasharray="none" stroke="rgb(0,0,139)"/>
<rect x="541" y="615" clip-path="url(#clipPath1)" fill="rgb(0,0,139)" width="5" stroke-dasharray="none" height="5" stroke="none"/>
<line clip-path="url(#clipPath1)" fill="none" x1="543" x2="562" y1="617" y2="617" stroke-dasharray="none" stroke="rgb(0,0,139)"/>
<rect x="560" y="615" clip-path="url(#clipPath1)" fill="rgb(0,0,139)" width="5" stroke-dasharray="none" height="5" stroke="none"/>
<line clip-path="url(#clipPath1)" fill="none" x1="562" x2="581" y1="617" y2="617" stroke-dasharray="none" stroke="rgb(0,0,139)"/>
<rect x="579" y="615" clip-path="url(#clipPath1)" fill="rgb(0,0,139)" width="5" stroke-dasharray="none" height="5" stroke="none"/>
<line clip-path="url(#clipPath1)" fill="none" x1="581" x2="600" y1="617" y2="617" stroke-dasharray="none" stroke="rgb(0,0,139)"/>
<rect x="598" y="615" clip-path="url(#clipPath1)" fill="rgb(0,0,139)" width="5" stroke-dasharray="none" height="5" stroke="none"/>
<line clip-path="url(#clipPath1)" fill="none" x1="600" x2="619" y1="617" y2="617" stroke-dasharray="none" stroke="rgb(0,0,139)"/>
<rect x="617" y="615" clip-path="url(#clipPath1)" fill="rgb(0,0,139)" width="5" stroke-dasharray="none" height="5" stroke="none"/>
<line clip-path="url(#clipPath1)" fill="none" x1="619" x2="638" y1="617" y2="617" stroke-dasharray="none" stroke="rgb(0,0,139)"/>
<rect x="636" y="615" clip-path="url(#clipPath1)" fill="rgb(0,0,139)" width="5" stroke-dasharray="none" height="5" stroke="none"/>
<line clip-path="url(#clipPath1)" fill="none" x1="638" x2="657" y1="617" y2="617" stroke-dasharray="none" stroke="rgb(0,0,139)"/>
<rect x="655" y="615" clip-path="url(#clipPath1)" fill="rgb(0,0,139)" width="5" stroke-dasharray="none" height="5" stroke="none"/>
<line clip-path="url(#clipPath1)" fill="none" x1="657" x2="676" y1="617" y2="617" stroke-dasharray="none" stroke="rgb(0,0,139)"/>
<rect x="674" y="615" clip-path="url(#clipPath1)" fill="rgb(0,0,139)" width="5" stroke-dasharray="none" height="5" stroke="none"/>
<line clip-path="url(#clipPath1)" fill="none" x1="676" x2="695" y1="617" y2="617" stroke-dasharray="none" stroke="rgb(0,0,139)"/>
<rect x="693" y="615" clip-path="url(#clipPath1)" fill="rgb(0,0,139)" width="5" stroke-dasharray="none" height="5" stroke="none"/>
<line clip-path="url(#clipPath1)" fill="none" x1="695" x2="714" y1="617" y2="617" stroke-dasharray="none" stroke="rgb(0,0,139)"/>
<rect x="712" y="615" clip-path="url(#clipPath1)" fill="rgb(0,0,139)" width="5" stroke-dasharray="none" height="5" stroke="none"/>
<line clip-path="url(#clipPath1)" fill="none" x1="714" x2="733" y1="617" y2="617" stroke-dasharray="none" stroke="rgb(0,0,139)"/>
<rect x="731" y="615" clip-path="url(#clipPath1)" fill="rgb(0,0,139)" width="5" stroke-dasharray="none" height="5" stroke="none"/>
<line clip-path="url(#clipPath1)" fill="none" x1="733" x2="752" y1="617" y2="617" stroke-dasharray="none" stroke="rgb(0,0,139)"/>
<rect x="750" y="615" clip-path="url(#clipPath1)" fill="rgb(0,0,139)" width="5" stroke-dasharray="none" height="5" stroke="none"/>
<line clip-path="url(#clipPath1)" fill="none" x1="752" x2="771" y1="617" y2="617" stroke-dasharray="none" stroke="rgb(0,0,139)"/>
<rect x="769" y="615" clip-path="url(#clipPath1)" fill="rgb(0,0,139)" width="5" stroke-dasharray="none" height="5" stroke="none"/>
<line clip-path="url(#clipPath1)" fill="none" x1="771" x2="790" y1="617" y2="617" stroke-dasharray="none" stroke="rgb(0,0,139)"/>
<rect x="788" y="615" clip-path="url(#clipPath1)" fill="rgb(0,0,139)" width="5" stroke-dasharray="none" height="5" stroke="none"/>
<line clip-path="url(#clipPath1)" fill="none" x1="790" x2="809" y1="617" y2="617" stroke-dasharray="none" stroke="rgb(0,0,139)"/>
<rect x="807" y="615" clip-path="url(#clipPath1)" fill="rgb(0,0,139)" width="5" stroke-dasharray="none" height="5" stroke="none"/>
<line clip-path="url(#clipPath1)" fill="none" x1="809" x2="828" y1="617" y2="617" stroke-dasharray="none" stroke="rgb(0,0,139)"/>
<rect x="826" y="615" clip-path="url(#clipPath1)" fill="rgb(0,0,139)" width="5" stroke-dasharray="none" height="5" stroke="none"/>
<line clip-path="url(#clipPath1)" fill="none" x1="828" x2="847" y1="617" y2="617" stroke-dasharray="none" stroke="rgb(0,0,139)"/>
<rect x="845" y="615" clip-path="url(#clipPath1)" fill="rgb(0,0,139)" width="5" stroke-dasharray="none" height="5" stroke="none"/>
<line clip-path="url(#clipPath1)" fill="none" x1="847" x2="866" y1="617" y2="617" stroke-dasharray="none" stroke="rgb(0,0,139)"/>
<rect x="864" y="615" clip-path="url(#clipPath1)" fill="rgb(0,0,139)" width="5" stroke-dasharray="none" height="5" stroke="none"/>
<line clip-path="url(#clipPath1)" fill="none" x1="866" x2="885" y1="617" y2="617" stroke-dasharray="none" stroke="rgb(0,0,139)"/>
<rect x="883" y="615" clip-path="url(#clipPath1)" fill="rgb(0,0,139)" width="5" stroke-dasharray="none" height="5" stroke="none"/>
<line clip-path="url(#clipPath1)" fill="none" x1="885" x2="904" y1="617" y2="617" stroke-dasharray="none" stroke="rgb(0,0,139)"/>
<rect x="902" y="615" clip-path="url(#clipPath1)" fill="rgb(0,0,139)" width="5" stroke-dasharray="none" height="5" stroke="none"/>
<line clip-path="url(#clipPath1)" fill="none" x1="904" x2="923" y1="617" y2="617" stroke-dasharray="none" stroke="rgb(0,0,139)"/>
<rect x="921" y="615" clip-path="url(#clipPath1)" fill="rgb(0,0,139)" width="5" stroke-dasharray="none" height="5" stroke="none"/>
<line clip-path="url(#clipPath1)" fill="none" x1="923" x2="942" y1="617" y2="617" stroke-dasharray="none" stroke="rgb(0,0,139)"/>
<rect x="940" y="615" clip-path="url(#clipPath1)" fill="rgb(0,0,139)" width="5" stroke-dasharray="none" height="5" stroke="none"/>
<line clip-path="url(#clipPath1)" fill="none" x1="942" x2="961" y1="617" y2="617" stroke-dasharray="none" stroke="rgb(0,0,139)"/>
<rect x="959" y="615" clip-path="url(#clipPath1)" fill="rgb(0,0,139)" width="5" stroke-dasharray="none" height="5" stroke="none"/>
<line clip-path="url(#clipPath1)" fill="none" x1="961" x2="980" y1="617" y2="617" stroke-dasharray="none" stroke="rgb(0,0,139)"/>
<rect x="978" y="615" clip-path="url(#clipPath1)" fill="rgb(0,0,139)" width="5" stroke-dasharray="none" height="5" stroke="none"/>
<line clip-path="url(#clipPath1)" fill="none" x1="980" x2="999" y1="617" y2="617" stroke-dasharray="none" stroke="rgb(0,0,139)"/>
<rect x="997" y="615" clip-path="url(#clipPath1)" fill="rgb(0,0,139)" width="5" stroke-dasharray="none" height="5" stroke="none"/>
<line clip-path="url(#clipPath1)" fill="none" x1="999" x2="1018" y1="617" y2="617" stroke-dasharray="none" stroke="rgb(0,0,139)"/>
<rect x="1016" y="615" clip-path="url(#clipPath1)" fill="rgb(0,0,139)" width="5" stroke-dasharray="none" height="5" stroke="none"/>
<line clip-path="url(#clipPath1)" fill="none" x1="1018" x2="1037" y1="617" y2="617" stroke-dasharray="none" stroke="rgb(0,0,139)"/>
<rect x="1035" y="615" clip-path="url(#clipPath1)" fill="rgb(0,0,139)" width="5" stroke-dasharray="none" height="5" stroke="none"/>
<line clip-path="url(#clipPath1)" fill="none" x1="1037" x2="1056" y1="617" y2="617" stroke-dasharray="none" stroke="rgb(0,0,139)"/>
<rect x="1054" y="615" clip-path="url(#clipPath1)" fill="rgb(0,0,139)" width="5" stroke-dasharray="none" height="5" stroke="none"/>
<line clip-path="url(#clipPath1)" fill="none" x1="1056" x2="1075" y1="617" y2="617" stroke-dasharray="none" stroke="rgb(0,0,139)"/>
<rect x="1073" y="615" clip-path="url(#clipPath1)" fill="rgb(0,0,139)" width="5" stroke-dasharray="none" height="5" stroke="none"/>
<line clip-path="url(#clipPath1)" fill="none" x1="1075" x2="1094" y1="617" y2="617" stroke-dasharray="none" stroke="rgb(0,0,139)"/>
<rect x="1092" y="615" clip-path="url(#clipPath1)" fill="rgb(0,0,139)" width="5" stroke-dasharray="none" height="5" stroke="none"/>
<line clip-path="url(#clipPath1)" fill="none" x1="1094" x2="1113" y1="617" y2="617" stroke-dasharray="none" stroke="rgb(0,0,139)"/>
<rect x="1111" y="615" clip-path="url(#clipPath1)" fill="rgb(0,0,139)" width="5" stroke-dasharray="none" height="5" stroke="none"/>
<line clip-path="url(#clipPath1)" fill="none" x1="1113" x2="1132" y1="617" y2="617" stroke-dasharray="none" stroke="rgb(0,0,139)"/>
<rect x="1130" y="615" clip-path="url(#clipPath1)" fill="rgb(0,0,139)" width="5" stroke-dasharray="none" height="5" stroke="none"/>
<line clip-path="url(#clipPath1)" fill="none" x1="1132" x2="1151" y1="617" y2="617" stroke-dasharray="none" stroke="rgb(0,0,139)"/>
<rect x="1149" y="615" clip-path="url(#clipPath1)" fill="rgb(0,0,139)" width="5" stroke-dasharray="none" height="5" stroke="none"/>
<line clip-path="url(#clipPath1)" fill="none" x1="1151" x2="1170" y1="617" y2="617" stroke-dasharray="none" stroke="rgb(0,0,139)"/>
<rect x="1168" y="615" clip-path="url(#clipPath1)" fill="rgb(0,0,139)" width="5" stroke-dasharray="none" height="5" stroke="none"/>
<line clip-path="url(#clipPath1)" fill="none" x1="1170" x2="1189" y1="617" y2="617" stroke-dasharray="none" stroke="rgb(0,0,139)"/>
<rect x="1187" y="615" clip-path="url(#clipPath1)" fill="rgb(0,0,139)" width="5" stroke-dasharray="none" height="5" stroke="none"/>
<line clip-path="url(#clipPath1)" fill="none" x1="1189" x2="1208" y1="617" y2="617" stroke-dasharray="none" stroke="rgb(0,0,139)"/>
<rect x="1206" y="615" clip-path="url(#clipPath1)" fill="rgb(0,0,139)" width="5" stroke-dasharray="none" height="5" stroke="none"/>
<line clip-path="url(#clipPath1)" fill="none" x1="1208" x2="1227" y1="617" y2="617" stroke-dasharray="none" stroke="rgb(0,0,139)"/>
<rect x="1225" y="615" clip-path="url(#clipPath1)" fill="rgb(0,0,139)" width="5" stroke-dasharray="none" height="5" stroke="none"/>
<line clip-path="url(#clipPath1)" fill="none" x1="1227" x2="1246" y1="617" y2="617" stroke-dasharray="none" stroke="rgb(0,0,139)"/>
<rect x="1244" y="615" clip-path="url(#clipPath1)" fill="rgb(0,0,139)" width="5" stroke-dasharray="none" height="5" stroke="none"/>
<line clip-path="url(#clipPath1)" fill="none" x1="1246" x2="1265" y1="617" y2="617" stroke-dasharray="none" stroke="rgb(0,0,139)"/>
<rect x="1263" y="615" clip-path="url(#clipPath1)" fill="rgb(0,0,139)" width="5" stroke-dasharray="none" height="5" stroke="none"/>
<line clip-path="url(#clipPath1)" fill="none" x1="1265" x2="1284" y1="617" y2="617" stroke-dasharray="none" stroke="rgb(0,0,139)"/>
<rect x="1282" y="615" clip-path="url(#clipPath1)" fill="rgb(0,0,139)" width="5" stroke-dasharray="none" height="5" stroke="none"/>
<line clip-path="url(#clipPath1)" fill="none" x1="1284" x2="1303" y1="617" y2="617" stroke-dasharray="none" stroke="rgb(0,0,139)"/>
<rect x="1301" y="615" clip-path="url(#clipPath1)" fill="rgb(0,0,139)" width="5" stroke-dasharray="none" height="5" stroke="none"/>
<line clip-path="url(#clipPath1)" fill="none" x1="1303" x2="1322" y1="617" y2="617" stroke-dasharray="none" stroke="rgb(0,0,139)"/>
<rect x="1320" y="615" clip-path="url(#clipPath1)" fill="rgb(0,0,139)" width="5" stroke-dasharray="none" height="5" stroke="none"/>
<line clip-path="url(#clipPath1)" fill="none" x1="1322" x2="1341" y1="617" y2="617" stroke-dasharray="none" stroke="rgb(0,0,139)"/>
<rect x="1339" y="615" clip-path="url(#clipPath1)" fill="rgb(0,0,139)" width="5" stroke-dasharray="none" height="5" stroke="none"/>
<line clip-path="url(#clipPath1)" fill="none" x1="1341" x2="1360" y1="617" y2="617" stroke-dasharray="none" stroke="rgb(0,0,139)"/>
<rect x="1358" y="615" clip-path="url(#clipPath1)" fill="rgb(0,0,139)" width="5" stroke-dasharray="none" height="5" stroke="none"/>
<rect x="31" y="24" clip-path="url(#clipPath2)" fill="none" width="1346" stroke-dasharray="none" height="593" stroke="black"/>
</g>
<g text-rendering="geometricPrecision" font-size="13" font-family="'Arial'" stroke-linecap="butt">
<line clip-path="url(#clipPath2)" fill="none" x1="31" x2="1377" y1="22" y2="22"/>
<line clip-path="url(#clipPath2)" fill="none" x1="31" x2="1377" y1="619" y2="619"/>
<line clip-path="url(#clipPath2)" fill="none" x1="31" x2="31" y1="18" y2="22"/>
<line clip-path="url(#clipPath2)" fill="none" x1="31" x2="31" y1="623" y2="619"/>
<text x="22" font-size="10" y="13" clip-path="url(#clipPath2)" stroke="none" xml:space="preserve">0.00</text>
<text x="22" font-size="10" y="634" clip-path="url(#clipPath2)" stroke="none" xml:space="preserve">0.00</text>
<line clip-path="url(#clipPath2)" fill="none" x1="49" x2="49" y1="20" y2="22"/>
<line clip-path="url(#clipPath2)" fill="none" x1="49" x2="49" y1="621" y2="619"/>
<line clip-path="url(#clipPath2)" fill="none" x1="68" x2="68" y1="20" y2="22"/>
<line clip-path="url(#clipPath2)" fill="none" x1="68" x2="68" y1="621" y2="619"/>
<line clip-path="url(#clipPath2)" fill="none" x1="87" x2="87" y1="20" y2="22"/>
<line clip-path="url(#clipPath2)" fill="none" x1="87" x2="87" y1="621" y2="619"/>
<line clip-path="url(#clipPath2)" fill="none" x1="106" x2="106" y1="20" y2="22"/>
<line clip-path="url(#clipPath2)" fill="none" x1="106" x2="106" y1="621" y2="619"/>
<line clip-path="url(#clipPath2)" fill="none" x1="125" x2="125" y1="18" y2="22"/>
<line clip-path="url(#clipPath2)" fill="none" x1="125" x2="125" y1="623" y2="619"/>
<text x="114" font-size="10" y="13" clip-path="url(#clipPath2)" stroke="none" xml:space="preserve">0.005</text>
<text x="114" font-size="10" y="634" clip-path="url(#clipPath2)" stroke="none" xml:space="preserve">0.005</text>
<line clip-path="url(#clipPath2)" fill="none" x1="144" x2="144" y1="20" y2="22"/>
<line clip-path="url(#clipPath2)" fill="none" x1="144" x2="144" y1="621" y2="619"/>
<line clip-path="url(#clipPath2)" fill="none" x1="163" x2="163" y1="20" y2="22"/>
<line clip-path="url(#clipPath2)" fill="none" x1="163" x2="163" y1="621" y2="619"/>
<line clip-path="url(#clipPath2)" fill="none" x1="182" x2="182" y1="20" y2="22"/>
<line clip-path="url(#clipPath2)" fill="none" x1="182" x2="182" y1="621" y2="619"/>
<line clip-path="url(#clipPath2)" fill="none" x1="201" x2="201" y1="20" y2="22"/>
<line clip-path="url(#clipPath2)" fill="none" x1="201" x2="201" y1="621" y2="619"/>
<line clip-path="url(#clipPath2)" fill="none" x1="220" x2="220" y1="18" y2="22"/>
<line clip-path="url(#clipPath2)" fill="none" x1="220" x2="220" y1="623" y2="619"/>
<text x="209" font-size="10" y="13" clip-path="url(#clipPath2)" stroke="none" xml:space="preserve">0.010</text>
<text x="209" font-size="10" y="634" clip-path="url(#clipPath2)" stroke="none" xml:space="preserve">0.010</text>
<line clip-path="url(#clipPath2)" fill="none" x1="239" x2="239" y1="20" y2="22"/>
<line clip-path="url(#clipPath2)" fill="none" x1="239" x2="239" y1="621" y2="619"/>
<line clip-path="url(#clipPath2)" fill="none" x1="258" x2="258" y1="20" y2="22"/>
<line clip-path="url(#clipPath2)" fill="none" x1="258" x2="258" y1="621" y2="619"/>
<line clip-path="url(#clipPath2)" fill="none" x1="277" x2="277" y1="20" y2="22"/>
<line clip-path="url(#clipPath2)" fill="none" x1="277" x2="277" y1="621" y2="619"/>
<line clip-path="url(#clipPath2)" fill="none" x1="296" x2="296" y1="20" y2="22"/>
<line clip-path="url(#clipPath2)" fill="none" x1="296" x2="296" y1="621" y2="619"/>
<line clip-path="url(#clipPath2)" fill="none" x1="315" x2="315" y1="18" y2="22"/>
<line clip-path="url(#clipPath2)" fill="none" x1="315" x2="315" y1="623" y2="619"/>
<text x="304" font-size="10" y="13" clip-path="url(#clipPath2)" stroke="none" xml:space="preserve">0.015</text>
<text x="304" font-size="10" y="634" clip-path="url(#clipPath2)" stroke="none" xml:space="preserve">0.015</text>
<line clip-path="url(#clipPath2)" fill="none" x1="334" x2="334" y1="20" y2="22"/>
<line clip-path="url(#clipPath2)" fill="none" x1="334" x2="334" y1="621" y2="619"/>
<line clip-path="url(#clipPath2)" fill="none" x1="353" x2="353" y1="20" y2="22"/>
<line clip-path="url(#clipPath2)" fill="none" x1="353" x2="353" y1="621" y2="619"/>
<line clip-path="url(#clipPath2)" fill="none" x1="372" x2="372" y1="20" y2="22"/>
<line clip-path="url(#clipPath2)" fill="none" x1="372" x2="372" y1="621" y2="619"/>
<line clip-path="url(#clipPath2)" fill="none" x1="391" x2="391" y1="20" y2="22"/>
<line clip-path="url(#clipPath2)" fill="none" x1="391" x2="391" y1="621" y2="619"/>
<line clip-path="url(#clipPath2)" fill="none" x1="410" x2="410" y1="18" y2="22"/>
<line clip-path="url(#clipPath2)" fill="none" x1="410" x2="410" y1="623" y2="619"/>
<text x="399" font-size="10" y="13" clip-path="url(#clipPath2)" stroke="none" xml:space="preserve">0.020</text>
<text x="399" font-size="10" y="634" clip-path="url(#clipPath2)" stroke="none" xml:space="preserve">0.020</text>
<line clip-path="url(#clipPath2)" fill="none" x1="429" x2="429" y1="20" y2="22"/>
<line clip-path="url(#clipPath2)" fill="none" x1="429" x2="429" y1="621" y2="619"/>
<line clip-path="url(#clipPath2)" fill="none" x1="448" x2="448" y1="20" y2="22"/>
<line clip-path="url(#clipPath2)" fill="none" x1="448" x2="448" y1="621" y2="619"/>
<line clip-path="url(#clipPath2)" fill="none" x1="467" x2="467" y1="20" y2="22"/>
<line clip-path="url(#clipPath2)" fill="none" x1="467" x2="467" y1="621" y2="619"/>
<line clip-path="url(#clipPath2)" fill="none" x1="486" x2="486" y1="20" y2="22"/>
<line clip-path="url(#clipPath2)" fill="none" x1="486" x2="486" y1="621" y2="619"/>
<line clip-path="url(#clipPath2)" fill="none" x1="505" x2="505" y1="18" y2="22"/>
<line clip-path="url(#clipPath2)" fill="none" x1="505" x2="505" y1="623" y2="619"/>
<text x="494" font-size="10" y="13" clip-path="url(#clipPath2)" stroke="none" xml:space="preserve">0.025</text>
<text x="494" font-size="10" y="634" clip-path="url(#clipPath2)" stroke="none" xml:space="preserve">0.025</text>
<line clip-path="url(#clipPath2)" fill="none" x1="524" x2="524" y1="20" y2="22"/>
<line clip-path="url(#clipPath2)" fill="none" x1="524" x2="524" y1="621" y2="619"/>
<line clip-path="url(#clipPath2)" fill="none" x1="543" x2="543" y1="20" y2="22"/>
<line clip-path="url(#clipPath2)" fill="none" x1="543" x2="543" y1="621" y2="619"/>
<line clip-path="url(#clipPath2)" fill="none" x1="562" x2="562" y1="20" y2="22"/>
<line clip-path="url(#clipPath2)" fill="none" x1="562" x2="562" y1="621" y2="619"/>
<line clip-path="url(#clipPath2)" fill="none" x1="581" x2="581" y1="20" y2="22"/>
<line clip-path="url(#clipPath2)" fill="none" x1="581" x2="581" y1="621" y2="619"/>
<line clip-path="url(#clipPath2)" fill="none" x1="600" x2="600" y1="18" y2="22"/>
<line clip-path="url(#clipPath2)" fill="none" x1="600" x2="600" y1="623" y2="619"/>
<text x="589" font-size="10" y="13" clip-path="url(#clipPath2)" stroke="none" xml:space="preserve">0.030</text>
<text x="589" font-size="10" y="634" clip-path="url(#clipPath2)" stroke="none" xml:space="preserve">0.030</text>
<line clip-path="url(#clipPath2)" fill="none" x1="619" x2="619" y1="20" y2="22"/>
<line clip-path="url(#clipPath2)" fill="none" x1="619" x2="619" y1="621" y2="619"/>
<line clip-path="url(#clipPath2)" fill="none" x1="638" x2="638" y1="20" y2="22"/>
<line clip-path="url(#clipPath2)" fill="none" x1="638" x2="638" y1="621" y2="619"/>
<line clip-path="url(#clipPath2)" fill="none" x1="657" x2="657" y1="20" y2="22"/>
<line clip-path="url(#clipPath2)" fill="none" x1="657" x2="657" y1="621" y2="619"/>
<line clip-path="url(#clipPath2)" fill="none" x1="676" x2="676" y1="20" y2="22"/>
<line clip-path="url(#clipPath2)" fill="none" x1="676" x2="676" y1="621" y2="619"/>
<line clip-path="url(#clipPath2)" fill="none" x1="695" x2="695" y1="18" y2="22"/>
<line clip-path="url(#clipPath2)" fill="none" x1="695" x2="695" y1="623" y2="619"/>
<text x="684" font-size="10" y="13" clip-path="url(#clipPath2)" stroke="none" xml:space="preserve">0.035</text>
<text x="684" font-size="10" y="634" clip-path="url(#clipPath2)" stroke="none" xml:space="preserve">0.035</text>
<line clip-path="url(#clipPath2)" fill="none" x1="714" x2="714" y1="20" y2="22"/>
<line clip-path="url(#clipPath2)" fill="none" x1="714" x2="714" y1="621" y2="619"/>
<line clip-path="url(#clipPath2)" fill="none" x1="733" x2="733" y1="20" y2="22"/>
<line clip-path="url(#clipPath2)" fill="none" x1="733" x2="733" y1="621" y2="619"/>
<line clip-path="url(#clipPath2)" fill="none" x1="752" x2="752" y1="20" y2="22"/>
<line clip-path="url(#clipPath2)" fill="none" x1="752" x2="752" y1="621" y2="619"/>
<line clip-path="url(#clipPath2)" fill="none" x1="771" x2="771" y1="20" y2="22"/>
<line clip-path="url(#clipPath2)" fill="none" x1="771" x2="771" y1="621" y2="619"/>
<line clip-path="url(#clipPath2)" fill="none" x1="790" x2="790" y1="18" y2="22"/>
<line clip-path="url(#clipPath2)" fill="none" x1="790" x2="790" y1="623" y2="619"/>
<text x="779" font-size="10" y="13" clip-path="url(#clipPath2)" stroke="none" xml:space="preserve">0.040</text>
<text x="779" font-size="10" y="634" clip-path="url(#clipPath2)" stroke="none" xml:space="preserve">0.040</text>
<line clip-path="url(#clipPath2)" fill="none" x1="809" x2="809" y1="20" y2="22"/>
<line clip-path="url(#clipPath2)" fill="none" x1="809" x2="809" y1="621" y2="619"/>
<line clip-path="url(#clipPath2)" fill="none" x1="828" x2="828" y1="20" y2="22"/>
<line clip-path="url(#clipPath2)" fill="none" x1="828" x2="828" y1="621" y2="619"/>
<line clip-path="url(#clipPath2)" fill="none" x1="847" x2="847" y1="20" y2="22"/>
<line clip-path="url(#clipPath2)" fill="none" x1="847" x2="847" y1="621" y2="619"/>
<line clip-path="url(#clipPath2)" fill="none" x1="866" x2="866" y1="20" y2="22"/>
<line clip-path="url(#clipPath2)" fill="none" x1="866" x2="866" y1="621" y2="619"/>
<line clip-path="url(#clipPath2)" fill="none" x1="885" x2="885" y1="18" y2="22"/>
<line clip-path="url(#clipPath2)" fill="none" x1="885" x2="885" y1="623" y2="619"/>
<text x="874" font-size="10" y="13" clip-path="url(#clipPath2)" stroke="none" xml:space="preserve">0.045</text>
<text x="874" font-size="10" y="634" clip-path="url(#clipPath2)" stroke="none" xml:space="preserve">0.045</text>
<line clip-path="url(#clipPath2)" fill="none" x1="904" x2="904" y1="20" y2="22"/>
<line clip-path="url(#clipPath2)" fill="none" x1="904" x2="904" y1="621" y2="619"/>
<line clip-path="url(#clipPath2)" fill="none" x1="923" x2="923" y1="20" y2="22"/>
<line clip-path="url(#clipPath2)" fill="none" x1="923" x2="923" y1="621" y2="619"/>
<line clip-path="url(#clipPath2)" fill="none" x1="942" x2="942" y1="20" y2="22"/>
<line clip-path="url(#clipPath2)" fill="none" x1="942" x2="942" y1="621" y2="619"/>
<line clip-path="url(#clipPath2)" fill="none" x1="961" x2="961" y1="20" y2="22"/>
<line clip-path="url(#clipPath2)" fill="none" x1="961" x2="961" y1="621" y2="619"/>
<line clip-path="url(#clipPath2)" fill="none" x1="980" x2="980" y1="18" y2="22"/>
<line clip-path="url(#clipPath2)" fill="none" x1="980" x2="980" y1="623" y2="619"/>
<text x="969" font-size="10" y="13" clip-path="url(#clipPath2)" stroke="none" xml:space="preserve">0.050</text>
<text x="969" font-size="10" y="634" clip-path="url(#clipPath2)" stroke="none" xml:space="preserve">0.050</text>
<line clip-path="url(#clipPath2)" fill="none" x1="999" x2="999" y1="20" y2="22"/>
<line clip-path="url(#clipPath2)" fill="none" x1="999" x2="999" y1="621" y2="619"/>
<line clip-path="url(#clipPath2)" fill="none" x1="1018" x2="1018" y1="20" y2="22"/>
<line clip-path="url(#clipPath2)" fill="none" x1="1018" x2="1018" y1="621" y2="619"/>
<line clip-path="url(#clipPath2)" fill="none" x1="1037" x2="1037" y1="20" y2="22"/>
<line clip-path="url(#clipPath2)" fill="none" x1="1037" x2="1037" y1="621" y2="619"/>
<line clip-path="url(#clipPath2)" fill="none" x1="1056" x2="1056" y1="20" y2="22"/>
<line clip-path="url(#clipPath2)" fill="none" x1="1056" x2="1056" y1="621" y2="619"/>
<line clip-path="url(#clipPath2)" fill="none" x1="1075" x2="1075" y1="18" y2="22"/>
<line clip-path="url(#clipPath2)" fill="none" x1="1075" x2="1075" y1="623" y2="619"/>
<text x="1064" font-size="10" y="13" clip-path="url(#clipPath2)" stroke="none" xml:space="preserve">0.055</text>
<text x="1064" font-size="10" y="634" clip-path="url(#clipPath2)" stroke="none" xml:space="preserve">0.055</text>
<line clip-path="url(#clipPath2)" fill="none" x1="1094" x2="1094" y1="20" y2="22"/>
<line clip-path="url(#clipPath2)" fill="none" x1="1094" x2="1094" y1="621" y2="619"/>
<line clip-path="url(#clipPath2)" fill="none" x1="1113" x2="1113" y1="20" y2="22"/>
<line clip-path="url(#clipPath2)" fill="none" x1="1113" x2="1113" y1="621" y2="619"/>
<line clip-path="url(#clipPath2)" fill="none" x1="1132" x2="1132" y1="20" y2="22"/>
<line clip-path="url(#clipPath2)" fill="none" x1="1132" x2="1132" y1="621" y2="619"/>
<line clip-path="url(#clipPath2)" fill="none" x1="1151" x2="1151" y1="20" y2="22"/>
<line clip-path="url(#clipPath2)" fill="none" x1="1151" x2="1151" y1="621" y2="619"/>
<line clip-path="url(#clipPath2)" fill="none" x1="1170" x2="1170" y1="18" y2="22"/>
<line clip-path="url(#clipPath2)" fill="none" x1="1170" x2="1170" y1="623" y2="619"/>
<text x="1159" font-size="10" y="13" clip-path="url(#clipPath2)" stroke="none" xml:space="preserve">0.060</text>
<text x="1159" font-size="10" y="634" clip-path="url(#clipPath2)" stroke="none" xml:space="preserve">0.060</text>
<line clip-path="url(#clipPath2)" fill="none" x1="1189" x2="1189" y1="20" y2="22"/>
<line clip-path="url(#clipPath2)" fill="none" x1="1189" x2="1189" y1="621" y2="619"/>
<line clip-path="url(#clipPath2)" fill="none" x1="1208" x2="1208" y1="20" y2="22"/>
<line clip-path="url(#clipPath2)" fill="none" x1="1208" x2="1208" y1="621" y2="619"/>
<line clip-path="url(#clipPath2)" fill="none" x1="1227" x2="1227" y1="20" y2="22"/>
<line clip-path="url(#clipPath2)" fill="none" x1="1227" x2="1227" y1="621" y2="619"/>
<line clip-path="url(#clipPath2)" fill="none" x1="1246" x2="1246" y1="20" y2="22"/>
<line clip-path="url(#clipPath2)" fill="none" x1="1246" x2="1246" y1="621" y2="619"/>
<line clip-path="url(#clipPath2)" fill="none" x1="1265" x2="1265" y1="18" y2="22"/>
<line clip-path="url(#clipPath2)" fill="none" x1="1265" x2="1265" y1="623" y2="619"/>
<text x="1254" font-size="10" y="13" clip-path="url(#clipPath2)" stroke="none" xml:space="preserve">0.065</text>
<text x="1254" font-size="10" y="634" clip-path="url(#clipPath2)" stroke="none" xml:space="preserve">0.065</text>
<line clip-path="url(#clipPath2)" fill="none" x1="1284" x2="1284" y1="20" y2="22"/>
<line clip-path="url(#clipPath2)" fill="none" x1="1284" x2="1284" y1="621" y2="619"/>
<line clip-path="url(#clipPath2)" fill="none" x1="1303" x2="1303" y1="20" y2="22"/>
<line clip-path="url(#clipPath2)" fill="none" x1="1303" x2="1303" y1="621" y2="619"/>
<line clip-path="url(#clipPath2)" fill="none" x1="1322" x2="1322" y1="20" y2="22"/>
<line clip-path="url(#clipPath2)" fill="none" x1="1322" x2="1322" y1="621" y2="619"/>
<line clip-path="url(#clipPath2)" fill="none" x1="1341" x2="1341" y1="20" y2="22"/>
<line clip-path="url(#clipPath2)" fill="none" x1="1341" x2="1341" y1="621" y2="619"/>
<line clip-path="url(#clipPath2)" fill="none" x1="1360" x2="1360" y1="18" y2="22"/>
<line clip-path="url(#clipPath2)" fill="none" x1="1360" x2="1360" y1="623" y2="619"/>
<text x="1349" font-size="10" y="13" clip-path="url(#clipPath2)" stroke="none" xml:space="preserve">0.070</text>
<text x="1349" font-size="10" y="634" clip-path="url(#clipPath2)" stroke="none" xml:space="preserve">0.070</text>
<line clip-path="url(#clipPath2)" fill="none" x1="29" x2="29" y1="24" y2="617"/>
<line clip-path="url(#clipPath2)" fill="none" x1="1379" x2="1379" y1="24" y2="617"/>
<line clip-path="url(#clipPath2)" fill="none" x1="25" x2="29" y1="617" y2="617"/>
<line clip-path="url(#clipPath2)" fill="none" x1="1383" x2="1379" y1="617" y2="617"/>
<text x="9" font-size="10" y="620" clip-path="url(#clipPath2)" stroke="none" xml:space="preserve">0.0</text>
<text x="1386" font-size="10" y="620" clip-path="url(#clipPath2)" stroke="none" xml:space="preserve">0.0</text>
<line clip-path="url(#clipPath2)" fill="none" x1="27" x2="29" y1="605" y2="605"/>
<line clip-path="url(#clipPath2)" fill="none" x1="1381" x2="1379" y1="605" y2="605"/>
<line clip-path="url(#clipPath2)" fill="none" x1="27" x2="29" y1="593" y2="593"/>
<line clip-path="url(#clipPath2)" fill="none" x1="1381" x2="1379" y1="593" y2="593"/>
<line clip-path="url(#clipPath2)" fill="none" x1="27" x2="29" y1="581" y2="581"/>
<line clip-path="url(#clipPath2)" fill="none" x1="1381" x2="1379" y1="581" y2="581"/>
<line clip-path="url(#clipPath2)" fill="none" x1="27" x2="29" y1="569" y2="569"/>
<line clip-path="url(#clipPath2)" fill="none" x1="1381" x2="1379" y1="569" y2="569"/>
<line clip-path="url(#clipPath2)" fill="none" x1="25" x2="29" y1="557" y2="557"/>
<line clip-path="url(#clipPath2)" fill="none" x1="1383" x2="1379" y1="557" y2="557"/>
<text x="4" font-size="10" y="560" clip-path="url(#clipPath2)" stroke="none" xml:space="preserve">0.10</text>
<text x="1386" font-size="10" y="560" clip-path="url(#clipPath2)" stroke="none" xml:space="preserve">0.10</text>
<line clip-path="url(#clipPath2)" fill="none" x1="27" x2="29" y1="545" y2="545"/>
<line clip-path="url(#clipPath2)" fill="none" x1="1381" x2="1379" y1="545" y2="545"/>
<line clip-path="url(#clipPath2)" fill="none" x1="27" x2="29" y1="533" y2="533"/>
<line clip-path="url(#clipPath2)" fill="none" x1="1381" x2="1379" y1="533" y2="533"/>
<line clip-path="url(#clipPath2)" fill="none" x1="27" x2="29" y1="522" y2="522"/>
<line clip-path="url(#clipPath2)" fill="none" x1="1381" x2="1379" y1="522" y2="522"/>
<line clip-path="url(#clipPath2)" fill="none" x1="27" x2="29" y1="510" y2="510"/>
<line clip-path="url(#clipPath2)" fill="none" x1="1381" x2="1379" y1="510" y2="510"/>
<line clip-path="url(#clipPath2)" fill="none" x1="25" x2="29" y1="498" y2="498"/>
<line clip-path="url(#clipPath2)" fill="none" x1="1383" x2="1379" y1="498" y2="498"/>
<text x="4" font-size="10" y="501" clip-path="url(#clipPath2)" stroke="none" xml:space="preserve">0.20</text>
<text x="1386" font-size="10" y="501" clip-path="url(#clipPath2)" stroke="none" xml:space="preserve">0.20</text>
<line clip-path="url(#clipPath2)" fill="none" x1="27" x2="29" y1="486" y2="486"/>
<line clip-path="url(#clipPath2)" fill="none" x1="1381" x2="1379" y1="486" y2="486"/>
<line clip-path="url(#clipPath2)" fill="none" x1="27" x2="29" y1="474" y2="474"/>
<line clip-path="url(#clipPath2)" fill="none" x1="1381" x2="1379" y1="474" y2="474"/>
<line clip-path="url(#clipPath2)" fill="none" x1="27" x2="29" y1="462" y2="462"/>
<line clip-path="url(#clipPath2)" fill="none" x1="1381" x2="1379" y1="462" y2="462"/>
<line clip-path="url(#clipPath2)" fill="none" x1="27" x2="29" y1="450" y2="450"/>
<line clip-path="url(#clipPath2)" fill="none" x1="1381" x2="1379" y1="450" y2="450"/>
<line clip-path="url(#clipPath2)" fill="none" x1="25" x2="29" y1="439" y2="439"/>
<line clip-path="url(#clipPath2)" fill="none" x1="1383" x2="1379" y1="439" y2="439"/>
<text x="4" font-size="10" y="442" clip-path="url(#clipPath2)" stroke="none" xml:space="preserve">0.30</text>
<text x="1386" font-size="10" y="442" clip-path="url(#clipPath2)" stroke="none" xml:space="preserve">0.30</text>
<line clip-path="url(#clipPath2)" fill="none" x1="27" x2="29" y1="427" y2="427"/>
<line clip-path="url(#clipPath2)" fill="none" x1="1381" x2="1379" y1="427" y2="427"/>
<line clip-path="url(#clipPath2)" fill="none" x1="27" x2="29" y1="415" y2="415"/>
<line clip-path="url(#clipPath2)" fill="none" x1="1381" x2="1379" y1="415" y2="415"/>
<line clip-path="url(#clipPath2)" fill="none" x1="27" x2="29" y1="403" y2="403"/>
<line clip-path="url(#clipPath2)" fill="none" x1="1381" x2="1379" y1="403" y2="403"/>
<line clip-path="url(#clipPath2)" fill="none" x1="27" x2="29" y1="391" y2="391"/>
<line clip-path="url(#clipPath2)" fill="none" x1="1381" x2="1379" y1="391" y2="391"/>
<line clip-path="url(#clipPath2)" fill="none" x1="25" x2="29" y1="379" y2="379"/>
<line clip-path="url(#clipPath2)" fill="none" x1="1383" x2="1379" y1="379" y2="379"/>
<text x="4" font-size="10" y="382" clip-path="url(#clipPath2)" stroke="none" xml:space="preserve">0.40</text>
<text x="1386" font-size="10" y="382" clip-path="url(#clipPath2)" stroke="none" xml:space="preserve">0.40</text>
<line clip-path="url(#clipPath2)" fill="none" x1="27" x2="29" y1="367" y2="367"/>
<line clip-path="url(#clipPath2)" fill="none" x1="1381" x2="1379" y1="367" y2="367"/>
<line clip-path="url(#clipPath2)" fill="none" x1="27" x2="29" y1="356" y2="356"/>
<line clip-path="url(#clipPath2)" fill="none" x1="1381" x2="1379" y1="356" y2="356"/>
<line clip-path="url(#clipPath2)" fill="none" x1="27" x2="29" y1="344" y2="344"/>
<line clip-path="url(#clipPath2)" fill="none" x1="1381" x2="1379" y1="344" y2="344"/>
<line clip-path="url(#clipPath2)" fill="none" x1="27" x2="29" y1="332" y2="332"/>
<line clip-path="url(#clipPath2)" fill="none" x1="1381" x2="1379" y1="332" y2="332"/>
<line clip-path="url(#clipPath2)" fill="none" x1="25" x2="29" y1="320" y2="320"/>
<line clip-path="url(#clipPath2)" fill="none" x1="1383" x2="1379" y1="320" y2="320"/>
<text x="4" font-size="10" y="323" clip-path="url(#clipPath2)" stroke="none" xml:space="preserve">0.50</text>
<text x="1386" font-size="10" y="323" clip-path="url(#clipPath2)" stroke="none" xml:space="preserve">0.50</text>
<line clip-path="url(#clipPath2)" fill="none" x1="27" x2="29" y1="308" y2="308"/>
<line clip-path="url(#clipPath2)" fill="none" x1="1381" x2="1379" y1="308" y2="308"/>
<line clip-path="url(#clipPath2)" fill="none" x1="27" x2="29" y1="296" y2="296"/>
<line clip-path="url(#clipPath2)" fill="none" x1="1381" x2="1379" y1="296" y2="296"/>
<line clip-path="url(#clipPath2)" fill="none" x1="27" x2="29" y1="284" y2="284"/>
<line clip-path="url(#clipPath2)" fill="none" x1="1381" x2="1379" y1="284" y2="284"/>
<line clip-path="url(#clipPath2)" fill="none" x1="27" x2="29" y1="273" y2="273"/>
<line clip-path="url(#clipPath2)" fill="none" x1="1381" x2="1379" y1="273" y2="273"/>
<line clip-path="url(#clipPath2)" fill="none" x1="25" x2="29" y1="261" y2="261"/>
<line clip-path="url(#clipPath2)" fill="none" x1="1383" x2="1379" y1="261" y2="261"/>
<text x="4" font-size="10" y="264" clip-path="url(#clipPath2)" stroke="none" xml:space="preserve">0.60</text>
<text x="1386" font-size="10" y="264" clip-path="url(#clipPath2)" stroke="none" xml:space="preserve">0.60</text>
<line clip-path="url(#clipPath2)" fill="none" x1="27" x2="29" y1="249" y2="249"/>
<line clip-path="url(#clipPath2)" fill="none" x1="1381" x2="1379" y1="249" y2="249"/>
<line clip-path="url(#clipPath2)" fill="none" x1="27" x2="29" y1="237" y2="237"/>
<line clip-path="url(#clipPath2)" fill="none" x1="1381" x2="1379" y1="237" y2="237"/>
<line clip-path="url(#clipPath2)" fill="none" x1="27" x2="29" y1="225" y2="225"/>
<line clip-path="url(#clipPath2)" fill="none" x1="1381" x2="1379" y1="225" y2="225"/>
<line clip-path="url(#clipPath2)" fill="none" x1="27" x2="29" y1="213" y2="213"/>
<line clip-path="url(#clipPath2)" fill="none" x1="1381" x2="1379" y1="213" y2="213"/>
<line clip-path="url(#clipPath2)" fill="none" x1="25" x2="29" y1="201" y2="201"/>
<line clip-path="url(#clipPath2)" fill="none" x1="1383" x2="1379" y1="201" y2="201"/>
<text x="4" font-size="10" y="204" clip-path="url(#clipPath2)" stroke="none" xml:space="preserve">0.70</text>
<text x="1386" font-size="10" y="204" clip-path="url(#clipPath2)" stroke="none" xml:space="preserve">0.70</text>
<line clip-path="url(#clipPath2)" fill="none" x1="27" x2="29" y1="190" y2="190"/>
<line clip-path="url(#clipPath2)" fill="none" x1="1381" x2="1379" y1="190" y2="190"/>
<line clip-path="url(#clipPath2)" fill="none" x1="27" x2="29" y1="178" y2="178"/>
<line clip-path="url(#clipPath2)" fill="none" x1="1381" x2="1379" y1="178" y2="178"/>
<line clip-path="url(#clipPath2)" fill="none" x1="27" x2="29" y1="166" y2="166"/>
<line clip-path="url(#clipPath2)" fill="none" x1="1381" x2="1379" y1="166" y2="166"/>
<line clip-path="url(#clipPath2)" fill="none" x1="27" x2="29" y1="154" y2="154"/>
<line clip-path="url(#clipPath2)" fill="none" x1="1381" x2="1379" y1="154" y2="154"/>
<line clip-path="url(#clipPath2)" fill="none" x1="25" x2="29" y1="142" y2="142"/>
<line clip-path="url(#clipPath2)" fill="none" x1="1383" x2="1379" y1="142" y2="142"/>
<text x="4" font-size="10" y="145" clip-path="url(#clipPath2)" stroke="none" xml:space="preserve">0.80</text>
<text x="1386" font-size="10" y="145" clip-path="url(#clipPath2)" stroke="none" xml:space="preserve">0.80</text>
<line clip-path="url(#clipPath2)" fill="none" x1="27" x2="29" y1="130" y2="130"/>
<line clip-path="url(#clipPath2)" fill="none" x1="1381" x2="1379" y1="130" y2="130"/>
<line clip-path="url(#clipPath2)" fill="none" x1="27" x2="29" y1="118" y2="118"/>
<line clip-path="url(#clipPath2)" fill="none" x1="1381" x2="1379" y1="118" y2="118"/>
<line clip-path="url(#clipPath2)" fill="none" x1="27" x2="29" y1="107" y2="107"/>
<line clip-path="url(#clipPath2)" fill="none" x1="1381" x2="1379" y1="107" y2="107"/>
<line clip-path="url(#clipPath2)" fill="none" x1="27" x2="29" y1="95" y2="95"/>
<line clip-path="url(#clipPath2)" fill="none" x1="1381" x2="1379" y1="95" y2="95"/>
<line clip-path="url(#clipPath2)" fill="none" x1="25" x2="29" y1="83" y2="83"/>
<line clip-path="url(#clipPath2)" fill="none" x1="1383" x2="1379" y1="83" y2="83"/>
<text x="4" font-size="10" y="86" clip-path="url(#clipPath2)" stroke="none" xml:space="preserve">0.90</text>
<text x="1386" font-size="10" y="86" clip-path="url(#clipPath2)" stroke="none" xml:space="preserve">0.90</text>
<line clip-path="url(#clipPath2)" fill="none" x1="27" x2="29" y1="71" y2="71"/>
<line clip-path="url(#clipPath2)" fill="none" x1="1381" x2="1379" y1="71" y2="71"/>
<line clip-path="url(#clipPath2)" fill="none" x1="27" x2="29" y1="59" y2="59"/>
<line clip-path="url(#clipPath2)" fill="none" x1="1381" x2="1379" y1="59" y2="59"/>
<line clip-path="url(#clipPath2)" fill="none" x1="27" x2="29" y1="47" y2="47"/>
<line clip-path="url(#clipPath2)" fill="none" x1="1381" x2="1379" y1="47" y2="47"/>
<line clip-path="url(#clipPath2)" fill="none" x1="27" x2="29" y1="35" y2="35"/>
<line clip-path="url(#clipPath2)" fill="none" x1="1381" x2="1379" y1="35" y2="35"/>
</g>
</g>
</svg>
