<?xml version="1.0" encoding="UTF-8"?><svg xmlns="http://www.w3.org/2000/svg" xmlns:xlink="http://www.w3.org/1999/xlink" stroke-dasharray="none" shape-rendering="auto" font-family="'Dialog'" width="1408" text-rendering="auto" fill-opacity="1" contentScriptType="text/ecmascript" color-interpolation="auto" color-rendering="auto" preserveAspectRatio="xMidYMid meet" font-size="12" fill="black" stroke="black" image-rendering="auto" stroke-miterlimit="10" zoomAndPan="magnify" version="1.0" stroke-linecap="square" stroke-linejoin="miter" contentStyleType="text/css" font-style="normal" height="641" stroke-width="1" stroke-dashoffset="0" font-weight="normal" stroke-opacity="1">
<!--Generated by the Batik Graphics2D SVG Generator-->
<defs id="genericDefs"/>
<g>
<defs id="defs1">
<clipPath clipPathUnits="userSpaceOnUse" id="clipPath1">
<path d="M46 39 L1378 39 L1378 602 L46 602 L46 39 Z"/>
</clipPath>
<clipPath clipPathUnits="userSpaceOnUse" id="clipPath2">
<path d="M-1 -1 L1409 -1 L1409 642 L-1 642 L-1 -1 Z"/>
</clipPath>
</defs>
<g fill="white" text-rendering="geometricPrecision" font-family="'Segoe UI'" stroke-linejoin="round" stroke="white" stroke-width="0" stroke-miterlimit="0">
<rect x="47" y="40" clip-path="url(#clipPath1)" width="1330" height="561" stroke="none"/>
</g>
<g stroke-linecap="butt" fill="rgb(204,204,204)" text-rendering="geometricPrecision" font-family="'Segoe UI'" stroke-dasharray="3,3" stroke="rgb(204,204,204)">
<line clip-path="url(#clipPath1)" fill="none" x1="47" x2="47" y1="40" y2="601"/>
<line clip-path="url(#clipPath1)" fill="none" x1="145" x2="145" y1="40" y2="601"/>
<line clip-path="url(#clipPath1)" fill="none" x1="243" x2="243" y1="40" y2="601"/>
<line clip-path="url(#clipPath1)" fill="none" x1="341" x2="341" y1="40" y2="601"/>
<line clip-path="url(#clipPath1)" fill="none" x1="439" x2="439" y1="40" y2="601"/>
<line clip-path="url(#clipPath1)" fill="none" x1="537" x2="537" y1="40" y2="601"/>
<line clip-path="url(#clipPath1)" fill="none" x1="635" x2="635" y1="40" y2="601"/>
<line clip-path="url(#clipPath1)" fill="none" x1="733" x2="733" y1="40" y2="601"/>
<line clip-path="url(#clipPath1)" fill="none" x1="831" x2="831" y1="40" y2="601"/>
<line clip-path="url(#clipPath1)" fill="none" x1="929" x2="929" y1="40" y2="601"/>
<line clip-path="url(#clipPath1)" fill="none" x1="1027" x2="1027" y1="40" y2="601"/>
<line clip-path="url(#clipPath1)" fill="none" x1="1125" x2="1125" y1="40" y2="601"/>
<line clip-path="url(#clipPath1)" fill="none" x1="1223" x2="1223" y1="40" y2="601"/>
<line clip-path="url(#clipPath1)" fill="none" x1="1321" x2="1321" y1="40" y2="601"/>
<line clip-path="url(#clipPath1)" fill="none" x1="47" x2="1377" y1="601" y2="601"/>
<line clip-path="url(#clipPath1)" fill="none" x1="47" x2="1377" y1="544" y2="544"/>
<line clip-path="url(#clipPath1)" fill="none" x1="47" x2="1377" y1="488" y2="488"/>
<line clip-path="url(#clipPath1)" fill="none" x1="47" x2="1377" y1="432" y2="432"/>
<line clip-path="url(#clipPath1)" fill="none" x1="47" x2="1377" y1="376" y2="376"/>
<line clip-path="url(#clipPath1)" fill="none" x1="47" x2="1377" y1="320" y2="320"/>
<line clip-path="url(#clipPath1)" fill="none" x1="47" x2="1377" y1="264" y2="264"/>
<line clip-path="url(#clipPath1)" fill="none" x1="47" x2="1377" y1="208" y2="208"/>
<line clip-path="url(#clipPath1)" fill="none" x1="47" x2="1377" y1="152" y2="152"/>
<line clip-path="url(#clipPath1)" fill="none" x1="47" x2="1377" y1="96" y2="96"/>
<rect x="64" y="599" clip-path="url(#clipPath1)" fill="rgb(0,0,139)" width="5" height="5" stroke="none"/>
<line clip-path="url(#clipPath1)" fill="none" x1="66" x2="86" y1="601" y2="601" stroke-dasharray="none" stroke="rgb(0,0,139)"/>
<rect x="84" y="599" clip-path="url(#clipPath1)" fill="rgb(0,0,139)" width="5" stroke-dasharray="none" height="5" stroke="none"/>
<line clip-path="url(#clipPath1)" fill="none" x1="86" x2="105" y1="601" y2="601" stroke-dasharray="none" stroke="rgb(0,0,139)"/>
<rect x="103" y="599" clip-path="url(#clipPath1)" fill="rgb(0,0,139)" width="5" stroke-dasharray="none" height="5" stroke="none"/>
<line clip-path="url(#clipPath1)" fill="none" x1="105" x2="125" y1="601" y2="601" stroke-dasharray="none" stroke="rgb(0,0,139)"/>
<rect x="123" y="599" clip-path="url(#clipPath1)" fill="rgb(0,0,139)" width="5" stroke-dasharray="none" height="5" stroke="none"/>
<line clip-path="url(#clipPath1)" fill="none" x1="125" x2="145" y1="601" y2="601" stroke-dasharray="none" stroke="rgb(0,0,139)"/>
<rect x="143" y="599" clip-path="url(#clipPath1)" fill="rgb(0,0,139)" width="5" stroke-dasharray="none" height="5" stroke="none"/>
<line clip-path="url(#clipPath1)" fill="none" x1="145" x2="164" y1="601" y2="601" stroke-dasharray="none" stroke="rgb(0,0,139)"/>
<rect x="162" y="599" clip-path="url(#clipPath1)" fill="rgb(0,0,139)" width="5" stroke-dasharray="none" height="5" stroke="none"/>
<line clip-path="url(#clipPath1)" fill="none" x1="164" x2="184" y1="601" y2="601" stroke-dasharray="none" stroke="rgb(0,0,139)"/>
<rect x="182" y="599" clip-path="url(#clipPath1)" fill="rgb(0,0,139)" width="5" stroke-dasharray="none" height="5" stroke="none"/>
<line clip-path="url(#clipPath1)" fill="none" x1="184" x2="203" y1="601" y2="601" stroke-dasharray="none" stroke="rgb(0,0,139)"/>
<rect x="201" y="599" clip-path="url(#clipPath1)" fill="rgb(0,0,139)" width="5" stroke-dasharray="none" height="5" stroke="none"/>
<line clip-path="url(#clipPath1)" fill="none" x1="203" x2="223" y1="601" y2="601" stroke-dasharray="none" stroke="rgb(0,0,139)"/>
<rect x="221" y="599" clip-path="url(#clipPath1)" fill="rgb(0,0,139)" width="5" stroke-dasharray="none" height="5" stroke="none"/>
<line clip-path="url(#clipPath1)" fill="none" x1="223" x2="243" y1="601" y2="601" stroke-dasharray="none" stroke="rgb(0,0,139)"/>
<rect x="241" y="599" clip-path="url(#clipPath1)" fill="rgb(0,0,139)" width="5" stroke-dasharray="none" height="5" stroke="none"/>
<line clip-path="url(#clipPath1)" fill="none" x1="243" x2="262" y1="601" y2="601" stroke-dasharray="none" stroke="rgb(0,0,139)"/>
<rect x="260" y="599" clip-path="url(#clipPath1)" fill="rgb(0,0,139)" width="5" stroke-dasharray="none" height="5" stroke="none"/>
<line clip-path="url(#clipPath1)" fill="none" x1="262" x2="282" y1="601" y2="601" stroke-dasharray="none" stroke="rgb(0,0,139)"/>
<rect x="280" y="599" clip-path="url(#clipPath1)" fill="rgb(0,0,139)" width="5" stroke-dasharray="none" height="5" stroke="none"/>
<line clip-path="url(#clipPath1)" fill="none" x1="282" x2="301" y1="601" y2="601" stroke-dasharray="none" stroke="rgb(0,0,139)"/>
<rect x="299" y="599" clip-path="url(#clipPath1)" fill="rgb(0,0,139)" width="5" stroke-dasharray="none" height="5" stroke="none"/>
<line clip-path="url(#clipPath1)" fill="none" x1="301" x2="321" y1="601" y2="601" stroke-dasharray="none" stroke="rgb(0,0,139)"/>
<rect x="319" y="599" clip-path="url(#clipPath1)" fill="rgb(0,0,139)" width="5" stroke-dasharray="none" height="5" stroke="none"/>
<line clip-path="url(#clipPath1)" fill="none" x1="321" x2="341" y1="601" y2="601" stroke-dasharray="none" stroke="rgb(0,0,139)"/>
<rect x="339" y="599" clip-path="url(#clipPath1)" fill="rgb(0,0,139)" width="5" stroke-dasharray="none" height="5" stroke="none"/>
<line clip-path="url(#clipPath1)" fill="none" x1="341" x2="360" y1="601" y2="601" stroke-dasharray="none" stroke="rgb(0,0,139)"/>
<rect x="358" y="599" clip-path="url(#clipPath1)" fill="rgb(0,0,139)" width="5" stroke-dasharray="none" height="5" stroke="none"/>
<line clip-path="url(#clipPath1)" fill="none" x1="360" x2="380" y1="601" y2="601" stroke-dasharray="none" stroke="rgb(0,0,139)"/>
<rect x="378" y="599" clip-path="url(#clipPath1)" fill="rgb(0,0,139)" width="5" stroke-dasharray="none" height="5" stroke="none"/>
<line clip-path="url(#clipPath1)" fill="none" x1="380" x2="399" y1="601" y2="601" stroke-dasharray="none" stroke="rgb(0,0,139)"/>
<rect x="397" y="599" clip-path="url(#clipPath1)" fill="rgb(0,0,139)" width="5" stroke-dasharray="none" height="5" stroke="none"/>
<line clip-path="url(#clipPath1)" fill="none" x1="399" x2="419" y1="601" y2="601" stroke-dasharray="none" stroke="rgb(0,0,139)"/>
<rect x="417" y="599" clip-path="url(#clipPath1)" fill="rgb(0,0,139)" width="5" stroke-dasharray="none" height="5" stroke="none"/>
<line clip-path="url(#clipPath1)" fill="none" x1="419" x2="439" y1="601" y2="601" stroke-dasharray="none" stroke="rgb(0,0,139)"/>
<rect x="437" y="599" clip-path="url(#clipPath1)" fill="rgb(0,0,139)" width="5" stroke-dasharray="none" height="5" stroke="none"/>
<line clip-path="url(#clipPath1)" fill="none" x1="439" x2="458" y1="601" y2="601" stroke-dasharray="none" stroke="rgb(0,0,139)"/>
<rect x="456" y="599" clip-path="url(#clipPath1)" fill="rgb(0,0,139)" width="5" stroke-dasharray="none" height="5" stroke="none"/>
<line clip-path="url(#clipPath1)" fill="none" x1="458" x2="478" y1="601" y2="601" stroke-dasharray="none" stroke="rgb(0,0,139)"/>
<rect x="476" y="599" clip-path="url(#clipPath1)" fill="rgb(0,0,139)" width="5" stroke-dasharray="none" height="5" stroke="none"/>
<line clip-path="url(#clipPath1)" fill="none" x1="478" x2="497" y1="601" y2="601" stroke-dasharray="none" stroke="rgb(0,0,139)"/>
<rect x="495" y="599" clip-path="url(#clipPath1)" fill="rgb(0,0,139)" width="5" stroke-dasharray="none" height="5" stroke="none"/>
<line clip-path="url(#clipPath1)" fill="none" x1="497" x2="517" y1="601" y2="601" stroke-dasharray="none" stroke="rgb(0,0,139)"/>
<rect x="515" y="599" clip-path="url(#clipPath1)" fill="rgb(0,0,139)" width="5" stroke-dasharray="none" height="5" stroke="none"/>
<line clip-path="url(#clipPath1)" fill="none" x1="517" x2="537" y1="601" y2="601" stroke-dasharray="none" stroke="rgb(0,0,139)"/>
<rect x="535" y="599" clip-path="url(#clipPath1)" fill="rgb(0,0,139)" width="5" stroke-dasharray="none" height="5" stroke="none"/>
<line clip-path="url(#clipPath1)" fill="none" x1="537" x2="556" y1="601" y2="601" stroke-dasharray="none" stroke="rgb(0,0,139)"/>
<rect x="554" y="599" clip-path="url(#clipPath1)" fill="rgb(0,0,139)" width="5" stroke-dasharray="none" height="5" stroke="none"/>
<line clip-path="url(#clipPath1)" fill="none" x1="556" x2="576" y1="601" y2="601" stroke-dasharray="none" stroke="rgb(0,0,139)"/>
<rect x="574" y="599" clip-path="url(#clipPath1)" fill="rgb(0,0,139)" width="5" stroke-dasharray="none" height="5" stroke="none"/>
<line clip-path="url(#clipPath1)" fill="none" x1="576" x2="595" y1="601" y2="601" stroke-dasharray="none" stroke="rgb(0,0,139)"/>
<rect x="593" y="599" clip-path="url(#clipPath1)" fill="rgb(0,0,139)" width="5" stroke-dasharray="none" height="5" stroke="none"/>
<line clip-path="url(#clipPath1)" fill="none" x1="595" x2="615" y1="601" y2="601" stroke-dasharray="none" stroke="rgb(0,0,139)"/>
<rect x="613" y="599" clip-path="url(#clipPath1)" fill="rgb(0,0,139)" width="5" stroke-dasharray="none" height="5" stroke="none"/>
<line clip-path="url(#clipPath1)" fill="none" x1="615" x2="635" y1="601" y2="601" stroke-dasharray="none" stroke="rgb(0,0,139)"/>
<rect x="633" y="599" clip-path="url(#clipPath1)" fill="rgb(0,0,139)" width="5" stroke-dasharray="none" height="5" stroke="none"/>
<line clip-path="url(#clipPath1)" fill="none" x1="635" x2="654" y1="601" y2="601" stroke-dasharray="none" stroke="rgb(0,0,139)"/>
<rect x="652" y="599" clip-path="url(#clipPath1)" fill="rgb(0,0,139)" width="5" stroke-dasharray="none" height="5" stroke="none"/>
<line clip-path="url(#clipPath1)" fill="none" x1="654" x2="674" y1="601" y2="601" stroke-dasharray="none" stroke="rgb(0,0,139)"/>
<rect x="672" y="599" clip-path="url(#clipPath1)" fill="rgb(0,0,139)" width="5" stroke-dasharray="none" height="5" stroke="none"/>
<line clip-path="url(#clipPath1)" fill="none" x1="674" x2="693" y1="601" y2="601" stroke-dasharray="none" stroke="rgb(0,0,139)"/>
<rect x="691" y="599" clip-path="url(#clipPath1)" fill="rgb(0,0,139)" width="5" stroke-dasharray="none" height="5" stroke="none"/>
<line clip-path="url(#clipPath1)" fill="none" x1="693" x2="713" y1="601" y2="601" stroke-dasharray="none" stroke="rgb(0,0,139)"/>
<rect x="711" y="599" clip-path="url(#clipPath1)" fill="rgb(0,0,139)" width="5" stroke-dasharray="none" height="5" stroke="none"/>
<line clip-path="url(#clipPath1)" fill="none" x1="713" x2="733" y1="601" y2="601" stroke-dasharray="none" stroke="rgb(0,0,139)"/>
<rect x="731" y="599" clip-path="url(#clipPath1)" fill="rgb(0,0,139)" width="5" stroke-dasharray="none" height="5" stroke="none"/>
<line clip-path="url(#clipPath1)" fill="none" x1="733" x2="752" y1="601" y2="601" stroke-dasharray="none" stroke="rgb(0,0,139)"/>
<rect x="750" y="599" clip-path="url(#clipPath1)" fill="rgb(0,0,139)" width="5" stroke-dasharray="none" height="5" stroke="none"/>
<line clip-path="url(#clipPath1)" fill="none" x1="752" x2="772" y1="601" y2="601" stroke-dasharray="none" stroke="rgb(0,0,139)"/>
<rect x="770" y="599" clip-path="url(#clipPath1)" fill="rgb(0,0,139)" width="5" stroke-dasharray="none" height="5" stroke="none"/>
<line clip-path="url(#clipPath1)" fill="none" x1="772" x2="792" y1="601" y2="601" stroke-dasharray="none" stroke="rgb(0,0,139)"/>
<rect x="790" y="599" clip-path="url(#clipPath1)" fill="rgb(0,0,139)" width="5" stroke-dasharray="none" height="5" stroke="none"/>
<line clip-path="url(#clipPath1)" fill="none" x1="792" x2="811" y1="601" y2="601" stroke-dasharray="none" stroke="rgb(0,0,139)"/>
<rect x="809" y="599" clip-path="url(#clipPath1)" fill="rgb(0,0,139)" width="5" stroke-dasharray="none" height="5" stroke="none"/>
<line clip-path="url(#clipPath1)" fill="none" x1="811" x2="831" y1="601" y2="601" stroke-dasharray="none" stroke="rgb(0,0,139)"/>
<rect x="829" y="599" clip-path="url(#clipPath1)" fill="rgb(0,0,139)" width="5" stroke-dasharray="none" height="5" stroke="none"/>
<line clip-path="url(#clipPath1)" fill="none" x1="831" x2="850" y1="601" y2="601" stroke-dasharray="none" stroke="rgb(0,0,139)"/>
<rect x="848" y="599" clip-path="url(#clipPath1)" fill="rgb(0,0,139)" width="5" stroke-dasharray="none" height="5" stroke="none"/>
<line clip-path="url(#clipPath1)" fill="none" x1="850" x2="870" y1="601" y2="601" stroke-dasharray="none" stroke="rgb(0,0,139)"/>
<rect x="868" y="599" clip-path="url(#clipPath1)" fill="rgb(0,0,139)" width="5" stroke-dasharray="none" height="5" stroke="none"/>
<line clip-path="url(#clipPath1)" fill="none" x1="870" x2="890" y1="601" y2="601" stroke-dasharray="none" stroke="rgb(0,0,139)"/>
<rect x="888" y="599" clip-path="url(#clipPath1)" fill="rgb(0,0,139)" width="5" stroke-dasharray="none" height="5" stroke="none"/>
<line clip-path="url(#clipPath1)" fill="none" x1="890" x2="909" y1="601" y2="601" stroke-dasharray="none" stroke="rgb(0,0,139)"/>
<rect x="907" y="599" clip-path="url(#clipPath1)" fill="rgb(0,0,139)" width="5" stroke-dasharray="none" height="5" stroke="none"/>
<line clip-path="url(#clipPath1)" fill="none" x1="909" x2="929" y1="601" y2="601" stroke-dasharray="none" stroke="rgb(0,0,139)"/>
<rect x="927" y="599" clip-path="url(#clipPath1)" fill="rgb(0,0,139)" width="5" stroke-dasharray="none" height="5" stroke="none"/>
<line clip-path="url(#clipPath1)" fill="none" x1="929" x2="948" y1="601" y2="601" stroke-dasharray="none" stroke="rgb(0,0,139)"/>
<rect x="946" y="599" clip-path="url(#clipPath1)" fill="rgb(0,0,139)" width="5" stroke-dasharray="none" height="5" stroke="none"/>
<line clip-path="url(#clipPath1)" fill="none" x1="948" x2="968" y1="601" y2="601" stroke-dasharray="none" stroke="rgb(0,0,139)"/>
<rect x="966" y="599" clip-path="url(#clipPath1)" fill="rgb(0,0,139)" width="5" stroke-dasharray="none" height="5" stroke="none"/>
<line clip-path="url(#clipPath1)" fill="none" x1="968" x2="988" y1="601" y2="601" stroke-dasharray="none" stroke="rgb(0,0,139)"/>
<rect x="986" y="599" clip-path="url(#clipPath1)" fill="rgb(0,0,139)" width="5" stroke-dasharray="none" height="5" stroke="none"/>
<line clip-path="url(#clipPath1)" fill="none" x1="988" x2="1007" y1="601" y2="601" stroke-dasharray="none" stroke="rgb(0,0,139)"/>
<rect x="1005" y="599" clip-path="url(#clipPath1)" fill="rgb(0,0,139)" width="5" stroke-dasharray="none" height="5" stroke="none"/>
<line clip-path="url(#clipPath1)" fill="none" x1="1007" x2="1027" y1="601" y2="601" stroke-dasharray="none" stroke="rgb(0,0,139)"/>
<rect x="1025" y="599" clip-path="url(#clipPath1)" fill="rgb(0,0,139)" width="5" stroke-dasharray="none" height="5" stroke="none"/>
<line clip-path="url(#clipPath1)" fill="none" x1="1027" x2="1046" y1="601" y2="601" stroke-dasharray="none" stroke="rgb(0,0,139)"/>
<rect x="1044" y="599" clip-path="url(#clipPath1)" fill="rgb(0,0,139)" width="5" stroke-dasharray="none" height="5" stroke="none"/>
<line clip-path="url(#clipPath1)" fill="none" x1="1046" x2="1066" y1="601" y2="601" stroke-dasharray="none" stroke="rgb(0,0,139)"/>
<rect x="1064" y="599" clip-path="url(#clipPath1)" fill="rgb(0,0,139)" width="5" stroke-dasharray="none" height="5" stroke="none"/>
<line clip-path="url(#clipPath1)" fill="none" x1="1066" x2="1086" y1="601" y2="601" stroke-dasharray="none" stroke="rgb(0,0,139)"/>
<rect x="1084" y="599" clip-path="url(#clipPath1)" fill="rgb(0,0,139)" width="5" stroke-dasharray="none" height="5" stroke="none"/>
<line clip-path="url(#clipPath1)" fill="none" x1="1086" x2="1105" y1="601" y2="601" stroke-dasharray="none" stroke="rgb(0,0,139)"/>
<rect x="1103" y="599" clip-path="url(#clipPath1)" fill="rgb(0,0,139)" width="5" stroke-dasharray="none" height="5" stroke="none"/>
<line clip-path="url(#clipPath1)" fill="none" x1="1105" x2="1125" y1="601" y2="601" stroke-dasharray="none" stroke="rgb(0,0,139)"/>
<rect x="1123" y="599" clip-path="url(#clipPath1)" fill="rgb(0,0,139)" width="5" stroke-dasharray="none" height="5" stroke="none"/>
<line clip-path="url(#clipPath1)" fill="none" x1="1125" x2="1144" y1="601" y2="601" stroke-dasharray="none" stroke="rgb(0,0,139)"/>
<rect x="1142" y="599" clip-path="url(#clipPath1)" fill="rgb(0,0,139)" width="5" stroke-dasharray="none" height="5" stroke="none"/>
<line clip-path="url(#clipPath1)" fill="none" x1="1144" x2="1164" y1="601" y2="601" stroke-dasharray="none" stroke="rgb(0,0,139)"/>
<rect x="1162" y="599" clip-path="url(#clipPath1)" fill="rgb(0,0,139)" width="5" stroke-dasharray="none" height="5" stroke="none"/>
<line clip-path="url(#clipPath1)" fill="none" x1="1164" x2="1184" y1="601" y2="601" stroke-dasharray="none" stroke="rgb(0,0,139)"/>
<rect x="1182" y="599" clip-path="url(#clipPath1)" fill="rgb(0,0,139)" width="5" stroke-dasharray="none" height="5" stroke="none"/>
<line clip-path="url(#clipPath1)" fill="none" x1="1184" x2="1203" y1="601" y2="601" stroke-dasharray="none" stroke="rgb(0,0,139)"/>
<rect x="1201" y="599" clip-path="url(#clipPath1)" fill="rgb(0,0,139)" width="5" stroke-dasharray="none" height="5" stroke="none"/>
<line clip-path="url(#clipPath1)" fill="none" x1="1203" x2="1223" y1="601" y2="601" stroke-dasharray="none" stroke="rgb(0,0,139)"/>
<rect x="1221" y="599" clip-path="url(#clipPath1)" fill="rgb(0,0,139)" width="5" stroke-dasharray="none" height="5" stroke="none"/>
<line clip-path="url(#clipPath1)" fill="none" x1="1223" x2="1242" y1="601" y2="601" stroke-dasharray="none" stroke="rgb(0,0,139)"/>
<rect x="1240" y="599" clip-path="url(#clipPath1)" fill="rgb(0,0,139)" width="5" stroke-dasharray="none" height="5" stroke="none"/>
<line clip-path="url(#clipPath1)" fill="none" x1="1242" x2="1262" y1="601" y2="601" stroke-dasharray="none" stroke="rgb(0,0,139)"/>
<rect x="1260" y="599" clip-path="url(#clipPath1)" fill="rgb(0,0,139)" width="5" stroke-dasharray="none" height="5" stroke="none"/>
<line clip-path="url(#clipPath1)" fill="none" x1="1262" x2="1282" y1="601" y2="601" stroke-dasharray="none" stroke="rgb(0,0,139)"/>
<rect x="1280" y="599" clip-path="url(#clipPath1)" fill="rgb(0,0,139)" width="5" stroke-dasharray="none" height="5" stroke="none"/>
<line clip-path="url(#clipPath1)" fill="none" x1="1282" x2="1301" y1="601" y2="601" stroke-dasharray="none" stroke="rgb(0,0,139)"/>
<rect x="1299" y="599" clip-path="url(#clipPath1)" fill="rgb(0,0,139)" width="5" stroke-dasharray="none" height="5" stroke="none"/>
<line clip-path="url(#clipPath1)" fill="none" x1="1301" x2="1321" y1="601" y2="601" stroke-dasharray="none" stroke="rgb(0,0,139)"/>
<rect x="1319" y="599" clip-path="url(#clipPath1)" fill="rgb(0,0,139)" width="5" stroke-dasharray="none" height="5" stroke="none"/>
<line clip-path="url(#clipPath1)" fill="none" x1="1321" x2="1340" y1="601" y2="601" stroke-dasharray="none" stroke="rgb(0,0,139)"/>
<rect x="1338" y="599" clip-path="url(#clipPath1)" fill="rgb(0,0,139)" width="5" stroke-dasharray="none" height="5" stroke="none"/>
<line clip-path="url(#clipPath1)" fill="none" x1="1340" x2="1360" y1="601" y2="601" stroke-dasharray="none" stroke="rgb(0,0,139)"/>
<rect x="1358" y="599" clip-path="url(#clipPath1)" fill="rgb(0,0,139)" width="5" stroke-dasharray="none" height="5" stroke="none"/>
<rect x="47" y="40" clip-path="url(#clipPath2)" fill="none" width="1330" stroke-dasharray="none" height="561" stroke="black"/>
</g>
<g text-rendering="geometricPrecision" font-size="13" font-family="'Arial'" stroke-linecap="butt">
<text xml:space="preserve" x="634" y="12" clip-path="url(#clipPath2)" stroke="none">Number of free channels</text>
<line clip-path="url(#clipPath2)" fill="none" x1="47" x2="1377" y1="38" y2="38"/>
<line clip-path="url(#clipPath2)" fill="none" x1="47" x2="1377" y1="603" y2="603"/>
<text xml:space="preserve" x="700" y="637" clip-path="url(#clipPath2)" stroke="none">time</text>
<line clip-path="url(#clipPath2)" fill="none" x1="47" x2="47" y1="34" y2="38"/>
<line clip-path="url(#clipPath2)" fill="none" x1="47" x2="47" y1="607" y2="603"/>
<text x="38" font-size="10" y="29" clip-path="url(#clipPath2)" stroke="none" xml:space="preserve">0.00</text>
<text x="38" font-size="10" y="618" clip-path="url(#clipPath2)" stroke="none" xml:space="preserve">0.00</text>
<line clip-path="url(#clipPath2)" fill="none" x1="66" x2="66" y1="36" y2="38"/>
<line clip-path="url(#clipPath2)" fill="none" x1="66" x2="66" y1="605" y2="603"/>
<line clip-path="url(#clipPath2)" fill="none" x1="86" x2="86" y1="36" y2="38"/>
<line clip-path="url(#clipPath2)" fill="none" x1="86" x2="86" y1="605" y2="603"/>
<line clip-path="url(#clipPath2)" fill="none" x1="105" x2="105" y1="36" y2="38"/>
<line clip-path="url(#clipPath2)" fill="none" x1="105" x2="105" y1="605" y2="603"/>
<line clip-path="url(#clipPath2)" fill="none" x1="125" x2="125" y1="36" y2="38"/>
<line clip-path="url(#clipPath2)" fill="none" x1="125" x2="125" y1="605" y2="603"/>
<line clip-path="url(#clipPath2)" fill="none" x1="145" x2="145" y1="34" y2="38"/>
<line clip-path="url(#clipPath2)" fill="none" x1="145" x2="145" y1="607" y2="603"/>
<text x="134" font-size="10" y="29" clip-path="url(#clipPath2)" stroke="none" xml:space="preserve">0.005</text>
<text x="134" font-size="10" y="618" clip-path="url(#clipPath2)" stroke="none" xml:space="preserve">0.005</text>
<line clip-path="url(#clipPath2)" fill="none" x1="164" x2="164" y1="36" y2="38"/>
<line clip-path="url(#clipPath2)" fill="none" x1="164" x2="164" y1="605" y2="603"/>
<line clip-path="url(#clipPath2)" fill="none" x1="184" x2="184" y1="36" y2="38"/>
<line clip-path="url(#clipPath2)" fill="none" x1="184" x2="184" y1="605" y2="603"/>
<line clip-path="url(#clipPath2)" fill="none" x1="203" x2="203" y1="36" y2="38"/>
<line clip-path="url(#clipPath2)" fill="none" x1="203" x2="203" y1="605" y2="603"/>
<line clip-path="url(#clipPath2)" fill="none" x1="223" x2="223" y1="36" y2="38"/>
<line clip-path="url(#clipPath2)" fill="none" x1="223" x2="223" y1="605" y2="603"/>
<line clip-path="url(#clipPath2)" fill="none" x1="243" x2="243" y1="34" y2="38"/>
<line clip-path="url(#clipPath2)" fill="none" x1="243" x2="243" y1="607" y2="603"/>
<text x="232" font-size="10" y="29" clip-path="url(#clipPath2)" stroke="none" xml:space="preserve">0.010</text>
<text x="232" font-size="10" y="618" clip-path="url(#clipPath2)" stroke="none" xml:space="preserve">0.010</text>
<line clip-path="url(#clipPath2)" fill="none" x1="262" x2="262" y1="36" y2="38"/>
<line clip-path="url(#clipPath2)" fill="none" x1="262" x2="262" y1="605" y2="603"/>
<line clip-path="url(#clipPath2)" fill="none" x1="282" x2="282" y1="36" y2="38"/>
<line clip-path="url(#clipPath2)" fill="none" x1="282" x2="282" y1="605" y2="603"/>
<line clip-path="url(#clipPath2)" fill="none" x1="301" x2="301" y1="36" y2="38"/>
<line clip-path="url(#clipPath2)" fill="none" x1="301" x2="301" y1="605" y2="603"/>
<line clip-path="url(#clipPath2)" fill="none" x1="321" x2="321" y1="36" y2="38"/>
<line clip-path="url(#clipPath2)" fill="none" x1="321" x2="321" y1="605" y2="603"/>
<line clip-path="url(#clipPath2)" fill="none" x1="341" x2="341" y1="34" y2="38"/>
<line clip-path="url(#clipPath2)" fill="none" x1="341" x2="341" y1="607" y2="603"/>
<text x="330" font-size="10" y="29" clip-path="url(#clipPath2)" stroke="none" xml:space="preserve">0.015</text>
<text x="330" font-size="10" y="618" clip-path="url(#clipPath2)" stroke="none" xml:space="preserve">0.015</text>
<line clip-path="url(#clipPath2)" fill="none" x1="360" x2="360" y1="36" y2="38"/>
<line clip-path="url(#clipPath2)" fill="none" x1="360" x2="360" y1="605" y2="603"/>
<line clip-path="url(#clipPath2)" fill="none" x1="380" x2="380" y1="36" y2="38"/>
<line clip-path="url(#clipPath2)" fill="none" x1="380" x2="380" y1="605" y2="603"/>
<line clip-path="url(#clipPath2)" fill="none" x1="399" x2="399" y1="36" y2="38"/>
<line clip-path="url(#clipPath2)" fill="none" x1="399" x2="399" y1="605" y2="603"/>
<line clip-path="url(#clipPath2)" fill="none" x1="419" x2="419" y1="36" y2="38"/>
<line clip-path="url(#clipPath2)" fill="none" x1="419" x2="419" y1="605" y2="603"/>
<line clip-path="url(#clipPath2)" fill="none" x1="439" x2="439" y1="34" y2="38"/>
<line clip-path="url(#clipPath2)" fill="none" x1="439" x2="439" y1="607" y2="603"/>
<text x="428" font-size="10" y="29" clip-path="url(#clipPath2)" stroke="none" xml:space="preserve">0.020</text>
<text x="428" font-size="10" y="618" clip-path="url(#clipPath2)" stroke="none" xml:space="preserve">0.020</text>
<line clip-path="url(#clipPath2)" fill="none" x1="458" x2="458" y1="36" y2="38"/>
<line clip-path="url(#clipPath2)" fill="none" x1="458" x2="458" y1="605" y2="603"/>
<line clip-path="url(#clipPath2)" fill="none" x1="478" x2="478" y1="36" y2="38"/>
<line clip-path="url(#clipPath2)" fill="none" x1="478" x2="478" y1="605" y2="603"/>
<line clip-path="url(#clipPath2)" fill="none" x1="497" x2="497" y1="36" y2="38"/>
<line clip-path="url(#clipPath2)" fill="none" x1="497" x2="497" y1="605" y2="603"/>
<line clip-path="url(#clipPath2)" fill="none" x1="517" x2="517" y1="36" y2="38"/>
<line clip-path="url(#clipPath2)" fill="none" x1="517" x2="517" y1="605" y2="603"/>
<line clip-path="url(#clipPath2)" fill="none" x1="537" x2="537" y1="34" y2="38"/>
<line clip-path="url(#clipPath2)" fill="none" x1="537" x2="537" y1="607" y2="603"/>
<text x="526" font-size="10" y="29" clip-path="url(#clipPath2)" stroke="none" xml:space="preserve">0.025</text>
<text x="526" font-size="10" y="618" clip-path="url(#clipPath2)" stroke="none" xml:space="preserve">0.025</text>
<line clip-path="url(#clipPath2)" fill="none" x1="556" x2="556" y1="36" y2="38"/>
<line clip-path="url(#clipPath2)" fill="none" x1="556" x2="556" y1="605" y2="603"/>
<line clip-path="url(#clipPath2)" fill="none" x1="576" x2="576" y1="36" y2="38"/>
<line clip-path="url(#clipPath2)" fill="none" x1="576" x2="576" y1="605" y2="603"/>
<line clip-path="url(#clipPath2)" fill="none" x1="595" x2="595" y1="36" y2="38"/>
<line clip-path="url(#clipPath2)" fill="none" x1="595" x2="595" y1="605" y2="603"/>
<line clip-path="url(#clipPath2)" fill="none" x1="615" x2="615" y1="36" y2="38"/>
<line clip-path="url(#clipPath2)" fill="none" x1="615" x2="615" y1="605" y2="603"/>
<line clip-path="url(#clipPath2)" fill="none" x1="635" x2="635" y1="34" y2="38"/>
<line clip-path="url(#clipPath2)" fill="none" x1="635" x2="635" y1="607" y2="603"/>
<text x="624" font-size="10" y="29" clip-path="url(#clipPath2)" stroke="none" xml:space="preserve">0.030</text>
<text x="624" font-size="10" y="618" clip-path="url(#clipPath2)" stroke="none" xml:space="preserve">0.030</text>
<line clip-path="url(#clipPath2)" fill="none" x1="654" x2="654" y1="36" y2="38"/>
<line clip-path="url(#clipPath2)" fill="none" x1="654" x2="654" y1="605" y2="603"/>
<line clip-path="url(#clipPath2)" fill="none" x1="674" x2="674" y1="36" y2="38"/>
<line clip-path="url(#clipPath2)" fill="none" x1="674" x2="674" y1="605" y2="603"/>
<line clip-path="url(#clipPath2)" fill="none" x1="693" x2="693" y1="36" y2="38"/>
<line clip-path="url(#clipPath2)" fill="none" x1="693" x2="693" y1="605" y2="603"/>
<line clip-path="url(#clipPath2)" fill="none" x1="713" x2="713" y1="36" y2="38"/>
<line clip-path="url(#clipPath2)" fill="none" x1="713" x2="713" y1="605" y2="603"/>
<line clip-path="url(#clipPath2)" fill="none" x1="733" x2="733" y1="34" y2="38"/>
<line clip-path="url(#clipPath2)" fill="none" x1="733" x2="733" y1="607" y2="603"/>
<text x="722" font-size="10" y="29" clip-path="url(#clipPath2)" stroke="none" xml:space="preserve">0.035</text>
<text x="722" font-size="10" y="618" clip-path="url(#clipPath2)" stroke="none" xml:space="preserve">0.035</text>
<line clip-path="url(#clipPath2)" fill="none" x1="752" x2="752" y1="36" y2="38"/>
<line clip-path="url(#clipPath2)" fill="none" x1="752" x2="752" y1="605" y2="603"/>
<line clip-path="url(#clipPath2)" fill="none" x1="772" x2="772" y1="36" y2="38"/>
<line clip-path="url(#clipPath2)" fill="none" x1="772" x2="772" y1="605" y2="603"/>
<line clip-path="url(#clipPath2)" fill="none" x1="792" x2="792" y1="36" y2="38"/>
<line clip-path="url(#clipPath2)" fill="none" x1="792" x2="792" y1="605" y2="603"/>
<line clip-path="url(#clipPath2)" fill="none" x1="811" x2="811" y1="36" y2="38"/>
<line clip-path="url(#clipPath2)" fill="none" x1="811" x2="811" y1="605" y2="603"/>
<line clip-path="url(#clipPath2)" fill="none" x1="831" x2="831" y1="34" y2="38"/>
<line clip-path="url(#clipPath2)" fill="none" x1="831" x2="831" y1="607" y2="603"/>
<text x="820" font-size="10" y="29" clip-path="url(#clipPath2)" stroke="none" xml:space="preserve">0.040</text>
<text x="820" font-size="10" y="618" clip-path="url(#clipPath2)" stroke="none" xml:space="preserve">0.040</text>
<line clip-path="url(#clipPath2)" fill="none" x1="850" x2="850" y1="36" y2="38"/>
<line clip-path="url(#clipPath2)" fill="none" x1="850" x2="850" y1="605" y2="603"/>
<line clip-path="url(#clipPath2)" fill="none" x1="870" x2="870" y1="36" y2="38"/>
<line clip-path="url(#clipPath2)" fill="none" x1="870" x2="870" y1="605" y2="603"/>
<line clip-path="url(#clipPath2)" fill="none" x1="890" x2="890" y1="36" y2="38"/>
<line clip-path="url(#clipPath2)" fill="none" x1="890" x2="890" y1="605" y2="603"/>
<line clip-path="url(#clipPath2)" fill="none" x1="909" x2="909" y1="36" y2="38"/>
<line clip-path="url(#clipPath2)" fill="none" x1="909" x2="909" y1="605" y2="603"/>
<line clip-path="url(#clipPath2)" fill="none" x1="929" x2="929" y1="34" y2="38"/>
<line clip-path="url(#clipPath2)" fill="none" x1="929" x2="929" y1="607" y2="603"/>
<text x="918" font-size="10" y="29" clip-path="url(#clipPath2)" stroke="none" xml:space="preserve">0.045</text>
<text x="918" font-size="10" y="618" clip-path="url(#clipPath2)" stroke="none" xml:space="preserve">0.045</text>
<line clip-path="url(#clipPath2)" fill="none" x1="948" x2="948" y1="36" y2="38"/>
<line clip-path="url(#clipPath2)" fill="none" x1="948" x2="948" y1="605" y2="603"/>
<line clip-path="url(#clipPath2)" fill="none" x1="968" x2="968" y1="36" y2="38"/>
<line clip-path="url(#clipPath2)" fill="none" x1="968" x2="968" y1="605" y2="603"/>
<line clip-path="url(#clipPath2)" fill="none" x1="988" x2="988" y1="36" y2="38"/>
<line clip-path="url(#clipPath2)" fill="none" x1="988" x2="988" y1="605" y2="603"/>
<line clip-path="url(#clipPath2)" fill="none" x1="1007" x2="1007" y1="36" y2="38"/>
<line clip-path="url(#clipPath2)" fill="none" x1="1007" x2="1007" y1="605" y2="603"/>
<line clip-path="url(#clipPath2)" fill="none" x1="1027" x2="1027" y1="34" y2="38"/>
<line clip-path="url(#clipPath2)" fill="none" x1="1027" x2="1027" y1="607" y2="603"/>
<text x="1016" font-size="10" y="29" clip-path="url(#clipPath2)" stroke="none" xml:space="preserve">0.050</text>
<text x="1016" font-size="10" y="618" clip-path="url(#clipPath2)" stroke="none" xml:space="preserve">0.050</text>
<line clip-path="url(#clipPath2)" fill="none" x1="1046" x2="1046" y1="36" y2="38"/>
<line clip-path="url(#clipPath2)" fill="none" x1="1046" x2="1046" y1="605" y2="603"/>
<line clip-path="url(#clipPath2)" fill="none" x1="1066" x2="1066" y1="36" y2="38"/>
<line clip-path="url(#clipPath2)" fill="none" x1="1066" x2="1066" y1="605" y2="603"/>
<line clip-path="url(#clipPath2)" fill="none" x1="1086" x2="1086" y1="36" y2="38"/>
<line clip-path="url(#clipPath2)" fill="none" x1="1086" x2="1086" y1="605" y2="603"/>
<line clip-path="url(#clipPath2)" fill="none" x1="1105" x2="1105" y1="36" y2="38"/>
<line clip-path="url(#clipPath2)" fill="none" x1="1105" x2="1105" y1="605" y2="603"/>
<line clip-path="url(#clipPath2)" fill="none" x1="1125" x2="1125" y1="34" y2="38"/>
<line clip-path="url(#clipPath2)" fill="none" x1="1125" x2="1125" y1="607" y2="603"/>
<text x="1114" font-size="10" y="29" clip-path="url(#clipPath2)" stroke="none" xml:space="preserve">0.055</text>
<text x="1114" font-size="10" y="618" clip-path="url(#clipPath2)" stroke="none" xml:space="preserve">0.055</text>
<line clip-path="url(#clipPath2)" fill="none" x1="1144" x2="1144" y1="36" y2="38"/>
<line clip-path="url(#clipPath2)" fill="none" x1="1144" x2="1144" y1="605" y2="603"/>
<line clip-path="url(#clipPath2)" fill="none" x1="1164" x2="1164" y1="36" y2="38"/>
<line clip-path="url(#clipPath2)" fill="none" x1="1164" x2="1164" y1="605" y2="603"/>
<line clip-path="url(#clipPath2)" fill="none" x1="1184" x2="1184" y1="36" y2="38"/>
<line clip-path="url(#clipPath2)" fill="none" x1="1184" x2="1184" y1="605" y2="603"/>
<line clip-path="url(#clipPath2)" fill="none" x1="1203" x2="1203" y1="36" y2="38"/>
<line clip-path="url(#clipPath2)" fill="none" x1="1203" x2="1203" y1="605" y2="603"/>
<line clip-path="url(#clipPath2)" fill="none" x1="1223" x2="1223" y1="34" y2="38"/>
<line clip-path="url(#clipPath2)" fill="none" x1="1223" x2="1223" y1="607" y2="603"/>
<text x="1212" font-size="10" y="29" clip-path="url(#clipPath2)" stroke="none" xml:space="preserve">0.060</text>
<text x="1212" font-size="10" y="618" clip-path="url(#clipPath2)" stroke="none" xml:space="preserve">0.060</text>
<line clip-path="url(#clipPath2)" fill="none" x1="1242" x2="1242" y1="36" y2="38"/>
<line clip-path="url(#clipPath2)" fill="none" x1="1242" x2="1242" y1="605" y2="603"/>
<line clip-path="url(#clipPath2)" fill="none" x1="1262" x2="1262" y1="36" y2="38"/>
<line clip-path="url(#clipPath2)" fill="none" x1="1262" x2="1262" y1="605" y2="603"/>
<line clip-path="url(#clipPath2)" fill="none" x1="1282" x2="1282" y1="36" y2="38"/>
<line clip-path="url(#clipPath2)" fill="none" x1="1282" x2="1282" y1="605" y2="603"/>
<line clip-path="url(#clipPath2)" fill="none" x1="1301" x2="1301" y1="36" y2="38"/>
<line clip-path="url(#clipPath2)" fill="none" x1="1301" x2="1301" y1="605" y2="603"/>
<line clip-path="url(#clipPath2)" fill="none" x1="1321" x2="1321" y1="34" y2="38"/>
<line clip-path="url(#clipPath2)" fill="none" x1="1321" x2="1321" y1="607" y2="603"/>
<text x="1310" font-size="10" y="29" clip-path="url(#clipPath2)" stroke="none" xml:space="preserve">0.065</text>
<text x="1310" font-size="10" y="618" clip-path="url(#clipPath2)" stroke="none" xml:space="preserve">0.065</text>
<line clip-path="url(#clipPath2)" fill="none" x1="1340" x2="1340" y1="36" y2="38"/>
<line clip-path="url(#clipPath2)" fill="none" x1="1340" x2="1340" y1="605" y2="603"/>
<line clip-path="url(#clipPath2)" fill="none" x1="1360" x2="1360" y1="36" y2="38"/>
<line clip-path="url(#clipPath2)" fill="none" x1="1360" x2="1360" y1="605" y2="603"/>
<line clip-path="url(#clipPath2)" fill="none" x1="45" x2="45" y1="40" y2="601"/>
<line clip-path="url(#clipPath2)" fill="none" x1="1379" x2="1379" y1="40" y2="601"/>
<line clip-path="url(#clipPath2)" fill="none" x1="41" x2="45" y1="601" y2="601"/>
<line clip-path="url(#clipPath2)" fill="none" x1="1383" x2="1379" y1="601" y2="601"/>
<text x="25" font-size="10" y="604" clip-path="url(#clipPath2)" stroke="none" xml:space="preserve">0.0</text>
<text x="1386" font-size="10" y="604" clip-path="url(#clipPath2)" stroke="none" xml:space="preserve">0.0</text>
<line clip-path="url(#clipPath2)" fill="none" x1="43" x2="45" y1="589" y2="589"/>
<line clip-path="url(#clipPath2)" fill="none" x1="1381" x2="1379" y1="589" y2="589"/>
<line clip-path="url(#clipPath2)" fill="none" x1="43" x2="45" y1="578" y2="578"/>
<line clip-path="url(#clipPath2)" fill="none" x1="1381" x2="1379" y1="578" y2="578"/>
<line clip-path="url(#clipPath2)" fill="none" x1="43" x2="45" y1="567" y2="567"/>
<line clip-path="url(#clipPath2)" fill="none" x1="1381" x2="1379" y1="567" y2="567"/>
<line clip-path="url(#clipPath2)" fill="none" x1="43" x2="45" y1="556" y2="556"/>
<line clip-path="url(#clipPath2)" fill="none" x1="1381" x2="1379" y1="556" y2="556"/>
<line clip-path="url(#clipPath2)" fill="none" x1="41" x2="45" y1="544" y2="544"/>
<line clip-path="url(#clipPath2)" fill="none" x1="1383" x2="1379" y1="544" y2="544"/>
<text x="20" font-size="10" y="547" clip-path="url(#clipPath2)" stroke="none" xml:space="preserve">0.10</text>
<text x="1386" font-size="10" y="547" clip-path="url(#clipPath2)" stroke="none" xml:space="preserve">0.10</text>
<line clip-path="url(#clipPath2)" fill="none" x1="43" x2="45" y1="533" y2="533"/>
<line clip-path="url(#clipPath2)" fill="none" x1="1381" x2="1379" y1="533" y2="533"/>
<line clip-path="url(#clipPath2)" fill="none" x1="43" x2="45" y1="522" y2="522"/>
<line clip-path="url(#clipPath2)" fill="none" x1="1381" x2="1379" y1="522" y2="522"/>
<line clip-path="url(#clipPath2)" fill="none" x1="43" x2="45" y1="511" y2="511"/>
<line clip-path="url(#clipPath2)" fill="none" x1="1381" x2="1379" y1="511" y2="511"/>
<line clip-path="url(#clipPath2)" fill="none" x1="43" x2="45" y1="500" y2="500"/>
<line clip-path="url(#clipPath2)" fill="none" x1="1381" x2="1379" y1="500" y2="500"/>
<line clip-path="url(#clipPath2)" fill="none" x1="41" x2="45" y1="488" y2="488"/>
<line clip-path="url(#clipPath2)" fill="none" x1="1383" x2="1379" y1="488" y2="488"/>
<text x="20" font-size="10" y="491" clip-path="url(#clipPath2)" stroke="none" xml:space="preserve">0.20</text>
<text x="1386" font-size="10" y="491" clip-path="url(#clipPath2)" stroke="none" xml:space="preserve">0.20</text>
<line clip-path="url(#clipPath2)" fill="none" x1="43" x2="45" y1="477" y2="477"/>
<line clip-path="url(#clipPath2)" fill="none" x1="1381" x2="1379" y1="477" y2="477"/>
<line clip-path="url(#clipPath2)" fill="none" x1="43" x2="45" y1="466" y2="466"/>
<line clip-path="url(#clipPath2)" fill="none" x1="1381" x2="1379" y1="466" y2="466"/>
<line clip-path="url(#clipPath2)" fill="none" x1="43" x2="45" y1="455" y2="455"/>
<line clip-path="url(#clipPath2)" fill="none" x1="1381" x2="1379" y1="455" y2="455"/>
<line clip-path="url(#clipPath2)" fill="none" x1="43" x2="45" y1="443" y2="443"/>
<line clip-path="url(#clipPath2)" fill="none" x1="1381" x2="1379" y1="443" y2="443"/>
<line clip-path="url(#clipPath2)" fill="none" x1="41" x2="45" y1="432" y2="432"/>
<line clip-path="url(#clipPath2)" fill="none" x1="1383" x2="1379" y1="432" y2="432"/>
<text x="20" font-size="10" y="435" clip-path="url(#clipPath2)" stroke="none" xml:space="preserve">0.30</text>
<text x="1386" font-size="10" y="435" clip-path="url(#clipPath2)" stroke="none" xml:space="preserve">0.30</text>
<line clip-path="url(#clipPath2)" fill="none" x1="43" x2="45" y1="421" y2="421"/>
<line clip-path="url(#clipPath2)" fill="none" x1="1381" x2="1379" y1="421" y2="421"/>
<line clip-path="url(#clipPath2)" fill="none" x1="43" x2="45" y1="410" y2="410"/>
<line clip-path="url(#clipPath2)" fill="none" x1="1381" x2="1379" y1="410" y2="410"/>
<line clip-path="url(#clipPath2)" fill="none" x1="43" x2="45" y1="399" y2="399"/>
<line clip-path="url(#clipPath2)" fill="none" x1="1381" x2="1379" y1="399" y2="399"/>
<line clip-path="url(#clipPath2)" fill="none" x1="43" x2="45" y1="387" y2="387"/>
<line clip-path="url(#clipPath2)" fill="none" x1="1381" x2="1379" y1="387" y2="387"/>
<line clip-path="url(#clipPath2)" fill="none" x1="41" x2="45" y1="376" y2="376"/>
<line clip-path="url(#clipPath2)" fill="none" x1="1383" x2="1379" y1="376" y2="376"/>
<text x="20" font-size="10" y="379" clip-path="url(#clipPath2)" stroke="none" xml:space="preserve">0.40</text>
<text x="1386" font-size="10" y="379" clip-path="url(#clipPath2)" stroke="none" xml:space="preserve">0.40</text>
<line clip-path="url(#clipPath2)" fill="none" x1="43" x2="45" y1="365" y2="365"/>
<line clip-path="url(#clipPath2)" fill="none" x1="1381" x2="1379" y1="365" y2="365"/>
<line clip-path="url(#clipPath2)" fill="none" x1="43" x2="45" y1="354" y2="354"/>
<line clip-path="url(#clipPath2)" fill="none" x1="1381" x2="1379" y1="354" y2="354"/>
<line clip-path="url(#clipPath2)" fill="none" x1="43" x2="45" y1="342" y2="342"/>
<line clip-path="url(#clipPath2)" fill="none" x1="1381" x2="1379" y1="342" y2="342"/>
<line clip-path="url(#clipPath2)" fill="none" x1="43" x2="45" y1="331" y2="331"/>
<line clip-path="url(#clipPath2)" fill="none" x1="1381" x2="1379" y1="331" y2="331"/>
<line clip-path="url(#clipPath2)" fill="none" x1="41" x2="45" y1="320" y2="320"/>
<line clip-path="url(#clipPath2)" fill="none" x1="1383" x2="1379" y1="320" y2="320"/>
<text x="20" font-size="10" y="323" clip-path="url(#clipPath2)" stroke="none" xml:space="preserve">0.50</text>
<text x="1386" font-size="10" y="323" clip-path="url(#clipPath2)" stroke="none" xml:space="preserve">0.50</text>
<line clip-path="url(#clipPath2)" fill="none" x1="43" x2="45" y1="309" y2="309"/>
<line clip-path="url(#clipPath2)" fill="none" x1="1381" x2="1379" y1="309" y2="309"/>
<line clip-path="url(#clipPath2)" fill="none" x1="43" x2="45" y1="298" y2="298"/>
<line clip-path="url(#clipPath2)" fill="none" x1="1381" x2="1379" y1="298" y2="298"/>
<line clip-path="url(#clipPath2)" fill="none" x1="43" x2="45" y1="286" y2="286"/>
<line clip-path="url(#clipPath2)" fill="none" x1="1381" x2="1379" y1="286" y2="286"/>
<line clip-path="url(#clipPath2)" fill="none" x1="43" x2="45" y1="275" y2="275"/>
<line clip-path="url(#clipPath2)" fill="none" x1="1381" x2="1379" y1="275" y2="275"/>
<line clip-path="url(#clipPath2)" fill="none" x1="41" x2="45" y1="264" y2="264"/>
<line clip-path="url(#clipPath2)" fill="none" x1="1383" x2="1379" y1="264" y2="264"/>
<text x="20" font-size="10" y="267" clip-path="url(#clipPath2)" stroke="none" xml:space="preserve">0.60</text>
<text x="1386" font-size="10" y="267" clip-path="url(#clipPath2)" stroke="none" xml:space="preserve">0.60</text>
<line clip-path="url(#clipPath2)" fill="none" x1="43" x2="45" y1="253" y2="253"/>
<line clip-path="url(#clipPath2)" fill="none" x1="1381" x2="1379" y1="253" y2="253"/>
<line clip-path="url(#clipPath2)" fill="none" x1="43" x2="45" y1="241" y2="241"/>
<line clip-path="url(#clipPath2)" fill="none" x1="1381" x2="1379" y1="241" y2="241"/>
<line clip-path="url(#clipPath2)" fill="none" x1="43" x2="45" y1="230" y2="230"/>
<line clip-path="url(#clipPath2)" fill="none" x1="1381" x2="1379" y1="230" y2="230"/>
<line clip-path="url(#clipPath2)" fill="none" x1="43" x2="45" y1="219" y2="219"/>
<line clip-path="url(#clipPath2)" fill="none" x1="1381" x2="1379" y1="219" y2="219"/>
<line clip-path="url(#clipPath2)" fill="none" x1="41" x2="45" y1="208" y2="208"/>
<line clip-path="url(#clipPath2)" fill="none" x1="1383" x2="1379" y1="208" y2="208"/>
<text x="20" font-size="10" y="211" clip-path="url(#clipPath2)" stroke="none" xml:space="preserve">0.70</text>
<text x="1386" font-size="10" y="211" clip-path="url(#clipPath2)" stroke="none" xml:space="preserve">0.70</text>
<line clip-path="url(#clipPath2)" fill="none" x1="43" x2="45" y1="197" y2="197"/>
<line clip-path="url(#clipPath2)" fill="none" x1="1381" x2="1379" y1="197" y2="197"/>
<line clip-path="url(#clipPath2)" fill="none" x1="43" x2="45" y1="185" y2="185"/>
<line clip-path="url(#clipPath2)" fill="none" x1="1381" x2="1379" y1="185" y2="185"/>
<line clip-path="url(#clipPath2)" fill="none" x1="43" x2="45" y1="174" y2="174"/>
<line clip-path="url(#clipPath2)" fill="none" x1="1381" x2="1379" y1="174" y2="174"/>
<line clip-path="url(#clipPath2)" fill="none" x1="43" x2="45" y1="163" y2="163"/>
<line clip-path="url(#clipPath2)" fill="none" x1="1381" x2="1379" y1="163" y2="163"/>
<line clip-path="url(#clipPath2)" fill="none" x1="41" x2="45" y1="152" y2="152"/>
<line clip-path="url(#clipPath2)" fill="none" x1="1383" x2="1379" y1="152" y2="152"/>
<text x="20" font-size="10" y="155" clip-path="url(#clipPath2)" stroke="none" xml:space="preserve">0.80</text>
<text x="1386" font-size="10" y="155" clip-path="url(#clipPath2)" stroke="none" xml:space="preserve">0.80</text>
<line clip-path="url(#clipPath2)" fill="none" x1="43" x2="45" y1="140" y2="140"/>
<line clip-path="url(#clipPath2)" fill="none" x1="1381" x2="1379" y1="140" y2="140"/>
<line clip-path="url(#clipPath2)" fill="none" x1="43" x2="45" y1="129" y2="129"/>
<line clip-path="url(#clipPath2)" fill="none" x1="1381" x2="1379" y1="129" y2="129"/>
<line clip-path="url(#clipPath2)" fill="none" x1="43" x2="45" y1="118" y2="118"/>
<line clip-path="url(#clipPath2)" fill="none" x1="1381" x2="1379" y1="118" y2="118"/>
<line clip-path="url(#clipPath2)" fill="none" x1="43" x2="45" y1="107" y2="107"/>
<line clip-path="url(#clipPath2)" fill="none" x1="1381" x2="1379" y1="107" y2="107"/>
<line clip-path="url(#clipPath2)" fill="none" x1="41" x2="45" y1="96" y2="96"/>
<line clip-path="url(#clipPath2)" fill="none" x1="1383" x2="1379" y1="96" y2="96"/>
<text x="20" font-size="10" y="99" clip-path="url(#clipPath2)" stroke="none" xml:space="preserve">0.90</text>
<text x="1386" font-size="10" y="99" clip-path="url(#clipPath2)" stroke="none" xml:space="preserve">0.90</text>
<line clip-path="url(#clipPath2)" fill="none" x1="43" x2="45" y1="84" y2="84"/>
<line clip-path="url(#clipPath2)" fill="none" x1="1381" x2="1379" y1="84" y2="84"/>
<line clip-path="url(#clipPath2)" fill="none" x1="43" x2="45" y1="73" y2="73"/>
<line clip-path="url(#clipPath2)" fill="none" x1="1381" x2="1379" y1="73" y2="73"/>
<line clip-path="url(#clipPath2)" fill="none" x1="43" x2="45" y1="62" y2="62"/>
<line clip-path="url(#clipPath2)" fill="none" x1="1381" x2="1379" y1="62" y2="62"/>
<line clip-path="url(#clipPath2)" fill="none" x1="43" x2="45" y1="51" y2="51"/>
<line clip-path="url(#clipPath2)" fill="none" x1="1381" x2="1379" y1="51" y2="51"/>
</g>
</g>
</svg>
