<?xml version="1.0" encoding="UTF-8"?><svg xmlns="http://www.w3.org/2000/svg" xmlns:xlink="http://www.w3.org/1999/xlink" stroke-dasharray="none" shape-rendering="auto" font-family="'Dialog'" width="1408" text-rendering="auto" fill-opacity="1" contentScriptType="text/ecmascript" color-interpolation="auto" color-rendering="auto" preserveAspectRatio="xMidYMid meet" font-size="12" fill="black" stroke="black" image-rendering="auto" stroke-miterlimit="10" zoomAndPan="magnify" version="1.0" stroke-linecap="square" stroke-linejoin="miter" contentStyleType="text/css" font-style="normal" height="641" stroke-width="1" stroke-dashoffset="0" font-weight="normal" stroke-opacity="1">
<!--Generated by the Batik Graphics2D SVG Generator-->
<defs id="genericDefs"/>
<g>
<defs id="defs1">
<clipPath clipPathUnits="userSpaceOnUse" id="clipPath1">
<path d="M37 23 L1371 23 L1371 618 L37 618 L37 23 Z"/>
</clipPath>
<clipPath clipPathUnits="userSpaceOnUse" id="clipPath2">
<path d="M-1 -1 L1409 -1 L1409 642 L-1 642 L-1 -1 Z"/>
</clipPath>
</defs>
<g fill="white" text-rendering="geometricPrecision" font-family="'Segoe UI'" stroke-linejoin="round" stroke="white" stroke-width="0" stroke-miterlimit="0">
<rect x="38" y="24" clip-path="url(#clipPath1)" width="1332" height="593" stroke="none"/>
</g>
<g stroke-linecap="butt" fill="rgb(204,204,204)" text-rendering="geometricPrecision" font-family="'Segoe UI'" stroke-dasharray="3,3" stroke="rgb(204,204,204)">
<line clip-path="url(#clipPath1)" fill="none" x1="38" x2="38" y1="24" y2="617"/>
<line clip-path="url(#clipPath1)" fill="none" x1="131" x2="131" y1="24" y2="617"/>
<line clip-path="url(#clipPath1)" fill="none" x1="225" x2="225" y1="24" y2="617"/>
<line clip-path="url(#clipPath1)" fill="none" x1="319" x2="319" y1="24" y2="617"/>
<line clip-path="url(#clipPath1)" fill="none" x1="413" x2="413" y1="24" y2="617"/>
<line clip-path="url(#clipPath1)" fill="none" x1="507" x2="507" y1="24" y2="617"/>
<line clip-path="url(#clipPath1)" fill="none" x1="601" x2="601" y1="24" y2="617"/>
<line clip-path="url(#clipPath1)" fill="none" x1="695" x2="695" y1="24" y2="617"/>
<line clip-path="url(#clipPath1)" fill="none" x1="789" x2="789" y1="24" y2="617"/>
<line clip-path="url(#clipPath1)" fill="none" x1="883" x2="883" y1="24" y2="617"/>
<line clip-path="url(#clipPath1)" fill="none" x1="977" x2="977" y1="24" y2="617"/>
<line clip-path="url(#clipPath1)" fill="none" x1="1071" x2="1071" y1="24" y2="617"/>
<line clip-path="url(#clipPath1)" fill="none" x1="1165" x2="1165" y1="24" y2="617"/>
<line clip-path="url(#clipPath1)" fill="none" x1="1259" x2="1259" y1="24" y2="617"/>
<line clip-path="url(#clipPath1)" fill="none" x1="1353" x2="1353" y1="24" y2="617"/>
<line clip-path="url(#clipPath1)" fill="none" x1="38" x2="1370" y1="617" y2="617"/>
<line clip-path="url(#clipPath1)" fill="none" x1="38" x2="1370" y1="526" y2="526"/>
<line clip-path="url(#clipPath1)" fill="none" x1="38" x2="1370" y1="436" y2="436"/>
<line clip-path="url(#clipPath1)" fill="none" x1="38" x2="1370" y1="345" y2="345"/>
<line clip-path="url(#clipPath1)" fill="none" x1="38" x2="1370" y1="255" y2="255"/>
<line clip-path="url(#clipPath1)" fill="none" x1="38" x2="1370" y1="165" y2="165"/>
<line clip-path="url(#clipPath1)" fill="none" x1="38" x2="1370" y1="74" y2="74"/>
<rect x="54" y="610" clip-path="url(#clipPath1)" fill="rgb(0,0,139)" width="5" height="5" stroke="none"/>
<line clip-path="url(#clipPath1)" fill="none" x1="56" x2="75" y1="612" y2="607" stroke-dasharray="none" stroke="rgb(0,0,139)"/>
<rect x="73" y="605" clip-path="url(#clipPath1)" fill="rgb(0,0,139)" width="5" stroke-dasharray="none" height="5" stroke="none"/>
<line clip-path="url(#clipPath1)" fill="none" x1="75" x2="94" y1="607" y2="600" stroke-dasharray="none" stroke="rgb(0,0,139)"/>
<rect x="92" y="598" clip-path="url(#clipPath1)" fill="rgb(0,0,139)" width="5" stroke-dasharray="none" height="5" stroke="none"/>
<line clip-path="url(#clipPath1)" fill="none" x1="94" x2="113" y1="600" y2="593" stroke-dasharray="none" stroke="rgb(0,0,139)"/>
<rect x="111" y="591" clip-path="url(#clipPath1)" fill="rgb(0,0,139)" width="5" stroke-dasharray="none" height="5" stroke="none"/>
<line clip-path="url(#clipPath1)" fill="none" x1="113" x2="131" y1="593" y2="587" stroke-dasharray="none" stroke="rgb(0,0,139)"/>
<rect x="129" y="585" clip-path="url(#clipPath1)" fill="rgb(0,0,139)" width="5" stroke-dasharray="none" height="5" stroke="none"/>
<line clip-path="url(#clipPath1)" fill="none" x1="131" x2="150" y1="587" y2="581" stroke-dasharray="none" stroke="rgb(0,0,139)"/>
<rect x="148" y="579" clip-path="url(#clipPath1)" fill="rgb(0,0,139)" width="5" stroke-dasharray="none" height="5" stroke="none"/>
<line clip-path="url(#clipPath1)" fill="none" x1="150" x2="169" y1="581" y2="573" stroke-dasharray="none" stroke="rgb(0,0,139)"/>
<rect x="167" y="571" clip-path="url(#clipPath1)" fill="rgb(0,0,139)" width="5" stroke-dasharray="none" height="5" stroke="none"/>
<line clip-path="url(#clipPath1)" fill="none" x1="169" x2="188" y1="573" y2="568" stroke-dasharray="none" stroke="rgb(0,0,139)"/>
<rect x="186" y="566" clip-path="url(#clipPath1)" fill="rgb(0,0,139)" width="5" stroke-dasharray="none" height="5" stroke="none"/>
<line clip-path="url(#clipPath1)" fill="none" x1="188" x2="207" y1="568" y2="561" stroke-dasharray="none" stroke="rgb(0,0,139)"/>
<rect x="205" y="559" clip-path="url(#clipPath1)" fill="rgb(0,0,139)" width="5" stroke-dasharray="none" height="5" stroke="none"/>
<line clip-path="url(#clipPath1)" fill="none" x1="207" x2="225" y1="561" y2="555" stroke-dasharray="none" stroke="rgb(0,0,139)"/>
<rect x="223" y="553" clip-path="url(#clipPath1)" fill="rgb(0,0,139)" width="5" stroke-dasharray="none" height="5" stroke="none"/>
<line clip-path="url(#clipPath1)" fill="none" x1="225" x2="244" y1="555" y2="548" stroke-dasharray="none" stroke="rgb(0,0,139)"/>
<rect x="242" y="546" clip-path="url(#clipPath1)" fill="rgb(0,0,139)" width="5" stroke-dasharray="none" height="5" stroke="none"/>
<line clip-path="url(#clipPath1)" fill="none" x1="244" x2="263" y1="548" y2="542" stroke-dasharray="none" stroke="rgb(0,0,139)"/>
<rect x="261" y="540" clip-path="url(#clipPath1)" fill="rgb(0,0,139)" width="5" stroke-dasharray="none" height="5" stroke="none"/>
<line clip-path="url(#clipPath1)" fill="none" x1="263" x2="282" y1="542" y2="536" stroke-dasharray="none" stroke="rgb(0,0,139)"/>
<rect x="280" y="534" clip-path="url(#clipPath1)" fill="rgb(0,0,139)" width="5" stroke-dasharray="none" height="5" stroke="none"/>
<line clip-path="url(#clipPath1)" fill="none" x1="282" x2="301" y1="536" y2="529" stroke-dasharray="none" stroke="rgb(0,0,139)"/>
<rect x="299" y="527" clip-path="url(#clipPath1)" fill="rgb(0,0,139)" width="5" stroke-dasharray="none" height="5" stroke="none"/>
<line clip-path="url(#clipPath1)" fill="none" x1="301" x2="319" y1="529" y2="523" stroke-dasharray="none" stroke="rgb(0,0,139)"/>
<rect x="317" y="521" clip-path="url(#clipPath1)" fill="rgb(0,0,139)" width="5" stroke-dasharray="none" height="5" stroke="none"/>
<line clip-path="url(#clipPath1)" fill="none" x1="319" x2="338" y1="523" y2="517" stroke-dasharray="none" stroke="rgb(0,0,139)"/>
<rect x="336" y="515" clip-path="url(#clipPath1)" fill="rgb(0,0,139)" width="5" stroke-dasharray="none" height="5" stroke="none"/>
<line clip-path="url(#clipPath1)" fill="none" x1="338" x2="357" y1="517" y2="509" stroke-dasharray="none" stroke="rgb(0,0,139)"/>
<rect x="355" y="507" clip-path="url(#clipPath1)" fill="rgb(0,0,139)" width="5" stroke-dasharray="none" height="5" stroke="none"/>
<line clip-path="url(#clipPath1)" fill="none" x1="357" x2="376" y1="509" y2="504" stroke-dasharray="none" stroke="rgb(0,0,139)"/>
<rect x="374" y="502" clip-path="url(#clipPath1)" fill="rgb(0,0,139)" width="5" stroke-dasharray="none" height="5" stroke="none"/>
<line clip-path="url(#clipPath1)" fill="none" x1="376" x2="395" y1="504" y2="497" stroke-dasharray="none" stroke="rgb(0,0,139)"/>
<rect x="393" y="495" clip-path="url(#clipPath1)" fill="rgb(0,0,139)" width="5" stroke-dasharray="none" height="5" stroke="none"/>
<line clip-path="url(#clipPath1)" fill="none" x1="395" x2="413" y1="497" y2="491" stroke-dasharray="none" stroke="rgb(0,0,139)"/>
<rect x="411" y="489" clip-path="url(#clipPath1)" fill="rgb(0,0,139)" width="5" stroke-dasharray="none" height="5" stroke="none"/>
<line clip-path="url(#clipPath1)" fill="none" x1="413" x2="432" y1="491" y2="484" stroke-dasharray="none" stroke="rgb(0,0,139)"/>
<rect x="430" y="482" clip-path="url(#clipPath1)" fill="rgb(0,0,139)" width="5" stroke-dasharray="none" height="5" stroke="none"/>
<line clip-path="url(#clipPath1)" fill="none" x1="432" x2="451" y1="484" y2="479" stroke-dasharray="none" stroke="rgb(0,0,139)"/>
<rect x="449" y="477" clip-path="url(#clipPath1)" fill="rgb(0,0,139)" width="5" stroke-dasharray="none" height="5" stroke="none"/>
<line clip-path="url(#clipPath1)" fill="none" x1="451" x2="470" y1="479" y2="471" stroke-dasharray="none" stroke="rgb(0,0,139)"/>
<rect x="468" y="469" clip-path="url(#clipPath1)" fill="rgb(0,0,139)" width="5" stroke-dasharray="none" height="5" stroke="none"/>
<line clip-path="url(#clipPath1)" fill="none" x1="470" x2="489" y1="471" y2="466" stroke-dasharray="none" stroke="rgb(0,0,139)"/>
<rect x="487" y="464" clip-path="url(#clipPath1)" fill="rgb(0,0,139)" width="5" stroke-dasharray="none" height="5" stroke="none"/>
<line clip-path="url(#clipPath1)" fill="none" x1="489" x2="507" y1="466" y2="459" stroke-dasharray="none" stroke="rgb(0,0,139)"/>
<rect x="505" y="457" clip-path="url(#clipPath1)" fill="rgb(0,0,139)" width="5" stroke-dasharray="none" height="5" stroke="none"/>
<line clip-path="url(#clipPath1)" fill="none" x1="507" x2="526" y1="459" y2="453" stroke-dasharray="none" stroke="rgb(0,0,139)"/>
<rect x="524" y="451" clip-path="url(#clipPath1)" fill="rgb(0,0,139)" width="5" stroke-dasharray="none" height="5" stroke="none"/>
<line clip-path="url(#clipPath1)" fill="none" x1="526" x2="545" y1="453" y2="446" stroke-dasharray="none" stroke="rgb(0,0,139)"/>
<rect x="543" y="444" clip-path="url(#clipPath1)" fill="rgb(0,0,139)" width="5" stroke-dasharray="none" height="5" stroke="none"/>
<line clip-path="url(#clipPath1)" fill="none" x1="545" x2="564" y1="446" y2="440" stroke-dasharray="none" stroke="rgb(0,0,139)"/>
<rect x="562" y="438" clip-path="url(#clipPath1)" fill="rgb(0,0,139)" width="5" stroke-dasharray="none" height="5" stroke="none"/>
<line clip-path="url(#clipPath1)" fill="none" x1="564" x2="583" y1="440" y2="434" stroke-dasharray="none" stroke="rgb(0,0,139)"/>
<rect x="581" y="432" clip-path="url(#clipPath1)" fill="rgb(0,0,139)" width="5" stroke-dasharray="none" height="5" stroke="none"/>
<line clip-path="url(#clipPath1)" fill="none" x1="583" x2="601" y1="434" y2="427" stroke-dasharray="none" stroke="rgb(0,0,139)"/>
<rect x="599" y="425" clip-path="url(#clipPath1)" fill="rgb(0,0,139)" width="5" stroke-dasharray="none" height="5" stroke="none"/>
<line clip-path="url(#clipPath1)" fill="none" x1="601" x2="620" y1="427" y2="420" stroke-dasharray="none" stroke="rgb(0,0,139)"/>
<rect x="618" y="418" clip-path="url(#clipPath1)" fill="rgb(0,0,139)" width="5" stroke-dasharray="none" height="5" stroke="none"/>
<line clip-path="url(#clipPath1)" fill="none" x1="620" x2="639" y1="420" y2="414" stroke-dasharray="none" stroke="rgb(0,0,139)"/>
<rect x="637" y="412" clip-path="url(#clipPath1)" fill="rgb(0,0,139)" width="5" stroke-dasharray="none" height="5" stroke="none"/>
<line clip-path="url(#clipPath1)" fill="none" x1="639" x2="658" y1="414" y2="408" stroke-dasharray="none" stroke="rgb(0,0,139)"/>
<rect x="656" y="406" clip-path="url(#clipPath1)" fill="rgb(0,0,139)" width="5" stroke-dasharray="none" height="5" stroke="none"/>
<line clip-path="url(#clipPath1)" fill="none" x1="658" x2="676" y1="408" y2="400" stroke-dasharray="none" stroke="rgb(0,0,139)"/>
<rect x="674" y="398" clip-path="url(#clipPath1)" fill="rgb(0,0,139)" width="5" stroke-dasharray="none" height="5" stroke="none"/>
<line clip-path="url(#clipPath1)" fill="none" x1="676" x2="695" y1="400" y2="396" stroke-dasharray="none" stroke="rgb(0,0,139)"/>
<rect x="693" y="394" clip-path="url(#clipPath1)" fill="rgb(0,0,139)" width="5" stroke-dasharray="none" height="5" stroke="none"/>
<line clip-path="url(#clipPath1)" fill="none" x1="695" x2="714" y1="396" y2="388" stroke-dasharray="none" stroke="rgb(0,0,139)"/>
<rect x="712" y="386" clip-path="url(#clipPath1)" fill="rgb(0,0,139)" width="5" stroke-dasharray="none" height="5" stroke="none"/>
<line clip-path="url(#clipPath1)" fill="none" x1="714" x2="733" y1="388" y2="382" stroke-dasharray="none" stroke="rgb(0,0,139)"/>
<rect x="731" y="380" clip-path="url(#clipPath1)" fill="rgb(0,0,139)" width="5" stroke-dasharray="none" height="5" stroke="none"/>
<line clip-path="url(#clipPath1)" fill="none" x1="733" x2="752" y1="382" y2="376" stroke-dasharray="none" stroke="rgb(0,0,139)"/>
<rect x="750" y="374" clip-path="url(#clipPath1)" fill="rgb(0,0,139)" width="5" stroke-dasharray="none" height="5" stroke="none"/>
<line clip-path="url(#clipPath1)" fill="none" x1="752" x2="770" y1="376" y2="370" stroke-dasharray="none" stroke="rgb(0,0,139)"/>
<rect x="768" y="368" clip-path="url(#clipPath1)" fill="rgb(0,0,139)" width="5" stroke-dasharray="none" height="5" stroke="none"/>
<line clip-path="url(#clipPath1)" fill="none" x1="770" x2="789" y1="370" y2="362" stroke-dasharray="none" stroke="rgb(0,0,139)"/>
<rect x="787" y="360" clip-path="url(#clipPath1)" fill="rgb(0,0,139)" width="5" stroke-dasharray="none" height="5" stroke="none"/>
<line clip-path="url(#clipPath1)" fill="none" x1="789" x2="808" y1="362" y2="357" stroke-dasharray="none" stroke="rgb(0,0,139)"/>
<rect x="806" y="355" clip-path="url(#clipPath1)" fill="rgb(0,0,139)" width="5" stroke-dasharray="none" height="5" stroke="none"/>
<line clip-path="url(#clipPath1)" fill="none" x1="808" x2="827" y1="357" y2="350" stroke-dasharray="none" stroke="rgb(0,0,139)"/>
<rect x="825" y="348" clip-path="url(#clipPath1)" fill="rgb(0,0,139)" width="5" stroke-dasharray="none" height="5" stroke="none"/>
<line clip-path="url(#clipPath1)" fill="none" x1="827" x2="846" y1="350" y2="344" stroke-dasharray="none" stroke="rgb(0,0,139)"/>
<rect x="844" y="342" clip-path="url(#clipPath1)" fill="rgb(0,0,139)" width="5" stroke-dasharray="none" height="5" stroke="none"/>
<line clip-path="url(#clipPath1)" fill="none" x1="846" x2="864" y1="344" y2="337" stroke-dasharray="none" stroke="rgb(0,0,139)"/>
<rect x="862" y="335" clip-path="url(#clipPath1)" fill="rgb(0,0,139)" width="5" stroke-dasharray="none" height="5" stroke="none"/>
<line clip-path="url(#clipPath1)" fill="none" x1="864" x2="883" y1="337" y2="331" stroke-dasharray="none" stroke="rgb(0,0,139)"/>
<rect x="881" y="329" clip-path="url(#clipPath1)" fill="rgb(0,0,139)" width="5" stroke-dasharray="none" height="5" stroke="none"/>
<line clip-path="url(#clipPath1)" fill="none" x1="883" x2="902" y1="331" y2="325" stroke-dasharray="none" stroke="rgb(0,0,139)"/>
<rect x="900" y="323" clip-path="url(#clipPath1)" fill="rgb(0,0,139)" width="5" stroke-dasharray="none" height="5" stroke="none"/>
<line clip-path="url(#clipPath1)" fill="none" x1="902" x2="921" y1="325" y2="318" stroke-dasharray="none" stroke="rgb(0,0,139)"/>
<rect x="919" y="316" clip-path="url(#clipPath1)" fill="rgb(0,0,139)" width="5" stroke-dasharray="none" height="5" stroke="none"/>
<line clip-path="url(#clipPath1)" fill="none" x1="921" x2="940" y1="318" y2="312" stroke-dasharray="none" stroke="rgb(0,0,139)"/>
<rect x="938" y="310" clip-path="url(#clipPath1)" fill="rgb(0,0,139)" width="5" stroke-dasharray="none" height="5" stroke="none"/>
<line clip-path="url(#clipPath1)" fill="none" x1="940" x2="958" y1="312" y2="305" stroke-dasharray="none" stroke="rgb(0,0,139)"/>
<rect x="956" y="303" clip-path="url(#clipPath1)" fill="rgb(0,0,139)" width="5" stroke-dasharray="none" height="5" stroke="none"/>
<line clip-path="url(#clipPath1)" fill="none" x1="958" x2="977" y1="305" y2="300" stroke-dasharray="none" stroke="rgb(0,0,139)"/>
<rect x="975" y="298" clip-path="url(#clipPath1)" fill="rgb(0,0,139)" width="5" stroke-dasharray="none" height="5" stroke="none"/>
<line clip-path="url(#clipPath1)" fill="none" x1="977" x2="996" y1="300" y2="292" stroke-dasharray="none" stroke="rgb(0,0,139)"/>
<rect x="994" y="290" clip-path="url(#clipPath1)" fill="rgb(0,0,139)" width="5" stroke-dasharray="none" height="5" stroke="none"/>
<line clip-path="url(#clipPath1)" fill="none" x1="996" x2="1015" y1="292" y2="287" stroke-dasharray="none" stroke="rgb(0,0,139)"/>
<rect x="1013" y="285" clip-path="url(#clipPath1)" fill="rgb(0,0,139)" width="5" stroke-dasharray="none" height="5" stroke="none"/>
<line clip-path="url(#clipPath1)" fill="none" x1="1015" x2="1034" y1="287" y2="280" stroke-dasharray="none" stroke="rgb(0,0,139)"/>
<rect x="1032" y="278" clip-path="url(#clipPath1)" fill="rgb(0,0,139)" width="5" stroke-dasharray="none" height="5" stroke="none"/>
<line clip-path="url(#clipPath1)" fill="none" x1="1034" x2="1052" y1="280" y2="274" stroke-dasharray="none" stroke="rgb(0,0,139)"/>
<rect x="1050" y="272" clip-path="url(#clipPath1)" fill="rgb(0,0,139)" width="5" stroke-dasharray="none" height="5" stroke="none"/>
<line clip-path="url(#clipPath1)" fill="none" x1="1052" x2="1071" y1="274" y2="267" stroke-dasharray="none" stroke="rgb(0,0,139)"/>
<rect x="1069" y="265" clip-path="url(#clipPath1)" fill="rgb(0,0,139)" width="5" stroke-dasharray="none" height="5" stroke="none"/>
<line clip-path="url(#clipPath1)" fill="none" x1="1071" x2="1090" y1="267" y2="261" stroke-dasharray="none" stroke="rgb(0,0,139)"/>
<rect x="1088" y="259" clip-path="url(#clipPath1)" fill="rgb(0,0,139)" width="5" stroke-dasharray="none" height="5" stroke="none"/>
<line clip-path="url(#clipPath1)" fill="none" x1="1090" x2="1109" y1="261" y2="254" stroke-dasharray="none" stroke="rgb(0,0,139)"/>
<rect x="1107" y="252" clip-path="url(#clipPath1)" fill="rgb(0,0,139)" width="5" stroke-dasharray="none" height="5" stroke="none"/>
<line clip-path="url(#clipPath1)" fill="none" x1="1109" x2="1128" y1="254" y2="248" stroke-dasharray="none" stroke="rgb(0,0,139)"/>
<rect x="1126" y="246" clip-path="url(#clipPath1)" fill="rgb(0,0,139)" width="5" stroke-dasharray="none" height="5" stroke="none"/>
<line clip-path="url(#clipPath1)" fill="none" x1="1128" x2="1146" y1="248" y2="241" stroke-dasharray="none" stroke="rgb(0,0,139)"/>
<rect x="1144" y="239" clip-path="url(#clipPath1)" fill="rgb(0,0,139)" width="5" stroke-dasharray="none" height="5" stroke="none"/>
<line clip-path="url(#clipPath1)" fill="none" x1="1146" x2="1165" y1="241" y2="235" stroke-dasharray="none" stroke="rgb(0,0,139)"/>
<rect x="1163" y="233" clip-path="url(#clipPath1)" fill="rgb(0,0,139)" width="5" stroke-dasharray="none" height="5" stroke="none"/>
<line clip-path="url(#clipPath1)" fill="none" x1="1165" x2="1184" y1="235" y2="229" stroke-dasharray="none" stroke="rgb(0,0,139)"/>
<rect x="1182" y="227" clip-path="url(#clipPath1)" fill="rgb(0,0,139)" width="5" stroke-dasharray="none" height="5" stroke="none"/>
<line clip-path="url(#clipPath1)" fill="none" x1="1184" x2="1203" y1="229" y2="221" stroke-dasharray="none" stroke="rgb(0,0,139)"/>
<rect x="1201" y="219" clip-path="url(#clipPath1)" fill="rgb(0,0,139)" width="5" stroke-dasharray="none" height="5" stroke="none"/>
<line clip-path="url(#clipPath1)" fill="none" x1="1203" x2="1221" y1="221" y2="216" stroke-dasharray="none" stroke="rgb(0,0,139)"/>
<rect x="1219" y="214" clip-path="url(#clipPath1)" fill="rgb(0,0,139)" width="5" stroke-dasharray="none" height="5" stroke="none"/>
<line clip-path="url(#clipPath1)" fill="none" x1="1221" x2="1240" y1="216" y2="209" stroke-dasharray="none" stroke="rgb(0,0,139)"/>
<rect x="1238" y="207" clip-path="url(#clipPath1)" fill="rgb(0,0,139)" width="5" stroke-dasharray="none" height="5" stroke="none"/>
<line clip-path="url(#clipPath1)" fill="none" x1="1240" x2="1259" y1="209" y2="203" stroke-dasharray="none" stroke="rgb(0,0,139)"/>
<rect x="1257" y="201" clip-path="url(#clipPath1)" fill="rgb(0,0,139)" width="5" stroke-dasharray="none" height="5" stroke="none"/>
<line clip-path="url(#clipPath1)" fill="none" x1="1259" x2="1278" y1="203" y2="197" stroke-dasharray="none" stroke="rgb(0,0,139)"/>
<rect x="1276" y="195" clip-path="url(#clipPath1)" fill="rgb(0,0,139)" width="5" stroke-dasharray="none" height="5" stroke="none"/>
<line clip-path="url(#clipPath1)" fill="none" x1="1278" x2="1297" y1="197" y2="190" stroke-dasharray="none" stroke="rgb(0,0,139)"/>
<rect x="1295" y="188" clip-path="url(#clipPath1)" fill="rgb(0,0,139)" width="5" stroke-dasharray="none" height="5" stroke="none"/>
<line clip-path="url(#clipPath1)" fill="none" x1="1297" x2="1315" y1="190" y2="184" stroke-dasharray="none" stroke="rgb(0,0,139)"/>
<rect x="1313" y="182" clip-path="url(#clipPath1)" fill="rgb(0,0,139)" width="5" stroke-dasharray="none" height="5" stroke="none"/>
<line clip-path="url(#clipPath1)" fill="none" x1="1315" x2="1334" y1="184" y2="177" stroke-dasharray="none" stroke="rgb(0,0,139)"/>
<rect x="1332" y="175" clip-path="url(#clipPath1)" fill="rgb(0,0,139)" width="5" stroke-dasharray="none" height="5" stroke="none"/>
<line clip-path="url(#clipPath1)" fill="none" x1="1334" x2="1353" y1="177" y2="172" stroke-dasharray="none" stroke="rgb(0,0,139)"/>
<rect x="1351" y="170" clip-path="url(#clipPath1)" fill="rgb(0,0,139)" width="5" stroke-dasharray="none" height="5" stroke="none"/>
<rect x="38" y="24" clip-path="url(#clipPath2)" fill="none" width="1332" stroke-dasharray="none" height="593" stroke="black"/>
</g>
<g text-rendering="geometricPrecision" font-size="13" font-family="'Arial'" stroke-linecap="butt">
<line clip-path="url(#clipPath2)" fill="none" x1="38" x2="1370" y1="22" y2="22"/>
<line clip-path="url(#clipPath2)" fill="none" x1="38" x2="1370" y1="619" y2="619"/>
<line clip-path="url(#clipPath2)" fill="none" x1="38" x2="38" y1="18" y2="22"/>
<line clip-path="url(#clipPath2)" fill="none" x1="38" x2="38" y1="623" y2="619"/>
<text x="29" font-size="10" y="13" clip-path="url(#clipPath2)" stroke="none" xml:space="preserve">0.00</text>
<text x="29" font-size="10" y="634" clip-path="url(#clipPath2)" stroke="none" xml:space="preserve">0.00</text>
<line clip-path="url(#clipPath2)" fill="none" x1="56" x2="56" y1="20" y2="22"/>
<line clip-path="url(#clipPath2)" fill="none" x1="56" x2="56" y1="621" y2="619"/>
<line clip-path="url(#clipPath2)" fill="none" x1="75" x2="75" y1="20" y2="22"/>
<line clip-path="url(#clipPath2)" fill="none" x1="75" x2="75" y1="621" y2="619"/>
<line clip-path="url(#clipPath2)" fill="none" x1="94" x2="94" y1="20" y2="22"/>
<line clip-path="url(#clipPath2)" fill="none" x1="94" x2="94" y1="621" y2="619"/>
<line clip-path="url(#clipPath2)" fill="none" x1="113" x2="113" y1="20" y2="22"/>
<line clip-path="url(#clipPath2)" fill="none" x1="113" x2="113" y1="621" y2="619"/>
<line clip-path="url(#clipPath2)" fill="none" x1="131" x2="131" y1="18" y2="22"/>
<line clip-path="url(#clipPath2)" fill="none" x1="131" x2="131" y1="623" y2="619"/>
<text x="120" font-size="10" y="13" clip-path="url(#clipPath2)" stroke="none" xml:space="preserve">0.005</text>
<text x="120" font-size="10" y="634" clip-path="url(#clipPath2)" stroke="none" xml:space="preserve">0.005</text>
<line clip-path="url(#clipPath2)" fill="none" x1="150" x2="150" y1="20" y2="22"/>
<line clip-path="url(#clipPath2)" fill="none" x1="150" x2="150" y1="621" y2="619"/>
<line clip-path="url(#clipPath2)" fill="none" x1="169" x2="169" y1="20" y2="22"/>
<line clip-path="url(#clipPath2)" fill="none" x1="169" x2="169" y1="621" y2="619"/>
<line clip-path="url(#clipPath2)" fill="none" x1="188" x2="188" y1="20" y2="22"/>
<line clip-path="url(#clipPath2)" fill="none" x1="188" x2="188" y1="621" y2="619"/>
<line clip-path="url(#clipPath2)" fill="none" x1="207" x2="207" y1="20" y2="22"/>
<line clip-path="url(#clipPath2)" fill="none" x1="207" x2="207" y1="621" y2="619"/>
<line clip-path="url(#clipPath2)" fill="none" x1="225" x2="225" y1="18" y2="22"/>
<line clip-path="url(#clipPath2)" fill="none" x1="225" x2="225" y1="623" y2="619"/>
<text x="214" font-size="10" y="13" clip-path="url(#clipPath2)" stroke="none" xml:space="preserve">0.010</text>
<text x="214" font-size="10" y="634" clip-path="url(#clipPath2)" stroke="none" xml:space="preserve">0.010</text>
<line clip-path="url(#clipPath2)" fill="none" x1="244" x2="244" y1="20" y2="22"/>
<line clip-path="url(#clipPath2)" fill="none" x1="244" x2="244" y1="621" y2="619"/>
<line clip-path="url(#clipPath2)" fill="none" x1="263" x2="263" y1="20" y2="22"/>
<line clip-path="url(#clipPath2)" fill="none" x1="263" x2="263" y1="621" y2="619"/>
<line clip-path="url(#clipPath2)" fill="none" x1="282" x2="282" y1="20" y2="22"/>
<line clip-path="url(#clipPath2)" fill="none" x1="282" x2="282" y1="621" y2="619"/>
<line clip-path="url(#clipPath2)" fill="none" x1="301" x2="301" y1="20" y2="22"/>
<line clip-path="url(#clipPath2)" fill="none" x1="301" x2="301" y1="621" y2="619"/>
<line clip-path="url(#clipPath2)" fill="none" x1="319" x2="319" y1="18" y2="22"/>
<line clip-path="url(#clipPath2)" fill="none" x1="319" x2="319" y1="623" y2="619"/>
<text x="308" font-size="10" y="13" clip-path="url(#clipPath2)" stroke="none" xml:space="preserve">0.015</text>
<text x="308" font-size="10" y="634" clip-path="url(#clipPath2)" stroke="none" xml:space="preserve">0.015</text>
<line clip-path="url(#clipPath2)" fill="none" x1="338" x2="338" y1="20" y2="22"/>
<line clip-path="url(#clipPath2)" fill="none" x1="338" x2="338" y1="621" y2="619"/>
<line clip-path="url(#clipPath2)" fill="none" x1="357" x2="357" y1="20" y2="22"/>
<line clip-path="url(#clipPath2)" fill="none" x1="357" x2="357" y1="621" y2="619"/>
<line clip-path="url(#clipPath2)" fill="none" x1="376" x2="376" y1="20" y2="22"/>
<line clip-path="url(#clipPath2)" fill="none" x1="376" x2="376" y1="621" y2="619"/>
<line clip-path="url(#clipPath2)" fill="none" x1="395" x2="395" y1="20" y2="22"/>
<line clip-path="url(#clipPath2)" fill="none" x1="395" x2="395" y1="621" y2="619"/>
<line clip-path="url(#clipPath2)" fill="none" x1="413" x2="413" y1="18" y2="22"/>
<line clip-path="url(#clipPath2)" fill="none" x1="413" x2="413" y1="623" y2="619"/>
<text x="402" font-size="10" y="13" clip-path="url(#clipPath2)" stroke="none" xml:space="preserve">0.020</text>
<text x="402" font-size="10" y="634" clip-path="url(#clipPath2)" stroke="none" xml:space="preserve">0.020</text>
<line clip-path="url(#clipPath2)" fill="none" x1="432" x2="432" y1="20" y2="22"/>
<line clip-path="url(#clipPath2)" fill="none" x1="432" x2="432" y1="621" y2="619"/>
<line clip-path="url(#clipPath2)" fill="none" x1="451" x2="451" y1="20" y2="22"/>
<line clip-path="url(#clipPath2)" fill="none" x1="451" x2="451" y1="621" y2="619"/>
<line clip-path="url(#clipPath2)" fill="none" x1="470" x2="470" y1="20" y2="22"/>
<line clip-path="url(#clipPath2)" fill="none" x1="470" x2="470" y1="621" y2="619"/>
<line clip-path="url(#clipPath2)" fill="none" x1="489" x2="489" y1="20" y2="22"/>
<line clip-path="url(#clipPath2)" fill="none" x1="489" x2="489" y1="621" y2="619"/>
<line clip-path="url(#clipPath2)" fill="none" x1="507" x2="507" y1="18" y2="22"/>
<line clip-path="url(#clipPath2)" fill="none" x1="507" x2="507" y1="623" y2="619"/>
<text x="496" font-size="10" y="13" clip-path="url(#clipPath2)" stroke="none" xml:space="preserve">0.025</text>
<text x="496" font-size="10" y="634" clip-path="url(#clipPath2)" stroke="none" xml:space="preserve">0.025</text>
<line clip-path="url(#clipPath2)" fill="none" x1="526" x2="526" y1="20" y2="22"/>
<line clip-path="url(#clipPath2)" fill="none" x1="526" x2="526" y1="621" y2="619"/>
<line clip-path="url(#clipPath2)" fill="none" x1="545" x2="545" y1="20" y2="22"/>
<line clip-path="url(#clipPath2)" fill="none" x1="545" x2="545" y1="621" y2="619"/>
<line clip-path="url(#clipPath2)" fill="none" x1="564" x2="564" y1="20" y2="22"/>
<line clip-path="url(#clipPath2)" fill="none" x1="564" x2="564" y1="621" y2="619"/>
<line clip-path="url(#clipPath2)" fill="none" x1="583" x2="583" y1="20" y2="22"/>
<line clip-path="url(#clipPath2)" fill="none" x1="583" x2="583" y1="621" y2="619"/>
<line clip-path="url(#clipPath2)" fill="none" x1="601" x2="601" y1="18" y2="22"/>
<line clip-path="url(#clipPath2)" fill="none" x1="601" x2="601" y1="623" y2="619"/>
<text x="590" font-size="10" y="13" clip-path="url(#clipPath2)" stroke="none" xml:space="preserve">0.030</text>
<text x="590" font-size="10" y="634" clip-path="url(#clipPath2)" stroke="none" xml:space="preserve">0.030</text>
<line clip-path="url(#clipPath2)" fill="none" x1="620" x2="620" y1="20" y2="22"/>
<line clip-path="url(#clipPath2)" fill="none" x1="620" x2="620" y1="621" y2="619"/>
<line clip-path="url(#clipPath2)" fill="none" x1="639" x2="639" y1="20" y2="22"/>
<line clip-path="url(#clipPath2)" fill="none" x1="639" x2="639" y1="621" y2="619"/>
<line clip-path="url(#clipPath2)" fill="none" x1="658" x2="658" y1="20" y2="22"/>
<line clip-path="url(#clipPath2)" fill="none" x1="658" x2="658" y1="621" y2="619"/>
<line clip-path="url(#clipPath2)" fill="none" x1="676" x2="676" y1="20" y2="22"/>
<line clip-path="url(#clipPath2)" fill="none" x1="676" x2="676" y1="621" y2="619"/>
<line clip-path="url(#clipPath2)" fill="none" x1="695" x2="695" y1="18" y2="22"/>
<line clip-path="url(#clipPath2)" fill="none" x1="695" x2="695" y1="623" y2="619"/>
<text x="684" font-size="10" y="13" clip-path="url(#clipPath2)" stroke="none" xml:space="preserve">0.035</text>
<text x="684" font-size="10" y="634" clip-path="url(#clipPath2)" stroke="none" xml:space="preserve">0.035</text>
<line clip-path="url(#clipPath2)" fill="none" x1="714" x2="714" y1="20" y2="22"/>
<line clip-path="url(#clipPath2)" fill="none" x1="714" x2="714" y1="621" y2="619"/>
<line clip-path="url(#clipPath2)" fill="none" x1="733" x2="733" y1="20" y2="22"/>
<line clip-path="url(#clipPath2)" fill="none" x1="733" x2="733" y1="621" y2="619"/>
<line clip-path="url(#clipPath2)" fill="none" x1="752" x2="752" y1="20" y2="22"/>
<line clip-path="url(#clipPath2)" fill="none" x1="752" x2="752" y1="621" y2="619"/>
<line clip-path="url(#clipPath2)" fill="none" x1="770" x2="770" y1="20" y2="22"/>
<line clip-path="url(#clipPath2)" fill="none" x1="770" x2="770" y1="621" y2="619"/>
<line clip-path="url(#clipPath2)" fill="none" x1="789" x2="789" y1="18" y2="22"/>
<line clip-path="url(#clipPath2)" fill="none" x1="789" x2="789" y1="623" y2="619"/>
<text x="778" font-size="10" y="13" clip-path="url(#clipPath2)" stroke="none" xml:space="preserve">0.040</text>
<text x="778" font-size="10" y="634" clip-path="url(#clipPath2)" stroke="none" xml:space="preserve">0.040</text>
<line clip-path="url(#clipPath2)" fill="none" x1="808" x2="808" y1="20" y2="22"/>
<line clip-path="url(#clipPath2)" fill="none" x1="808" x2="808" y1="621" y2="619"/>
<line clip-path="url(#clipPath2)" fill="none" x1="827" x2="827" y1="20" y2="22"/>
<line clip-path="url(#clipPath2)" fill="none" x1="827" x2="827" y1="621" y2="619"/>
<line clip-path="url(#clipPath2)" fill="none" x1="846" x2="846" y1="20" y2="22"/>
<line clip-path="url(#clipPath2)" fill="none" x1="846" x2="846" y1="621" y2="619"/>
<line clip-path="url(#clipPath2)" fill="none" x1="864" x2="864" y1="20" y2="22"/>
<line clip-path="url(#clipPath2)" fill="none" x1="864" x2="864" y1="621" y2="619"/>
<line clip-path="url(#clipPath2)" fill="none" x1="883" x2="883" y1="18" y2="22"/>
<line clip-path="url(#clipPath2)" fill="none" x1="883" x2="883" y1="623" y2="619"/>
<text x="872" font-size="10" y="13" clip-path="url(#clipPath2)" stroke="none" xml:space="preserve">0.045</text>
<text x="872" font-size="10" y="634" clip-path="url(#clipPath2)" stroke="none" xml:space="preserve">0.045</text>
<line clip-path="url(#clipPath2)" fill="none" x1="902" x2="902" y1="20" y2="22"/>
<line clip-path="url(#clipPath2)" fill="none" x1="902" x2="902" y1="621" y2="619"/>
<line clip-path="url(#clipPath2)" fill="none" x1="921" x2="921" y1="20" y2="22"/>
<line clip-path="url(#clipPath2)" fill="none" x1="921" x2="921" y1="621" y2="619"/>
<line clip-path="url(#clipPath2)" fill="none" x1="940" x2="940" y1="20" y2="22"/>
<line clip-path="url(#clipPath2)" fill="none" x1="940" x2="940" y1="621" y2="619"/>
<line clip-path="url(#clipPath2)" fill="none" x1="958" x2="958" y1="20" y2="22"/>
<line clip-path="url(#clipPath2)" fill="none" x1="958" x2="958" y1="621" y2="619"/>
<line clip-path="url(#clipPath2)" fill="none" x1="977" x2="977" y1="18" y2="22"/>
<line clip-path="url(#clipPath2)" fill="none" x1="977" x2="977" y1="623" y2="619"/>
<text x="966" font-size="10" y="13" clip-path="url(#clipPath2)" stroke="none" xml:space="preserve">0.050</text>
<text x="966" font-size="10" y="634" clip-path="url(#clipPath2)" stroke="none" xml:space="preserve">0.050</text>
<line clip-path="url(#clipPath2)" fill="none" x1="996" x2="996" y1="20" y2="22"/>
<line clip-path="url(#clipPath2)" fill="none" x1="996" x2="996" y1="621" y2="619"/>
<line clip-path="url(#clipPath2)" fill="none" x1="1015" x2="1015" y1="20" y2="22"/>
<line clip-path="url(#clipPath2)" fill="none" x1="1015" x2="1015" y1="621" y2="619"/>
<line clip-path="url(#clipPath2)" fill="none" x1="1034" x2="1034" y1="20" y2="22"/>
<line clip-path="url(#clipPath2)" fill="none" x1="1034" x2="1034" y1="621" y2="619"/>
<line clip-path="url(#clipPath2)" fill="none" x1="1052" x2="1052" y1="20" y2="22"/>
<line clip-path="url(#clipPath2)" fill="none" x1="1052" x2="1052" y1="621" y2="619"/>
<line clip-path="url(#clipPath2)" fill="none" x1="1071" x2="1071" y1="18" y2="22"/>
<line clip-path="url(#clipPath2)" fill="none" x1="1071" x2="1071" y1="623" y2="619"/>
<text x="1060" font-size="10" y="13" clip-path="url(#clipPath2)" stroke="none" xml:space="preserve">0.055</text>
<text x="1060" font-size="10" y="634" clip-path="url(#clipPath2)" stroke="none" xml:space="preserve">0.055</text>
<line clip-path="url(#clipPath2)" fill="none" x1="1090" x2="1090" y1="20" y2="22"/>
<line clip-path="url(#clipPath2)" fill="none" x1="1090" x2="1090" y1="621" y2="619"/>
<line clip-path="url(#clipPath2)" fill="none" x1="1109" x2="1109" y1="20" y2="22"/>
<line clip-path="url(#clipPath2)" fill="none" x1="1109" x2="1109" y1="621" y2="619"/>
<line clip-path="url(#clipPath2)" fill="none" x1="1128" x2="1128" y1="20" y2="22"/>
<line clip-path="url(#clipPath2)" fill="none" x1="1128" x2="1128" y1="621" y2="619"/>
<line clip-path="url(#clipPath2)" fill="none" x1="1146" x2="1146" y1="20" y2="22"/>
<line clip-path="url(#clipPath2)" fill="none" x1="1146" x2="1146" y1="621" y2="619"/>
<line clip-path="url(#clipPath2)" fill="none" x1="1165" x2="1165" y1="18" y2="22"/>
<line clip-path="url(#clipPath2)" fill="none" x1="1165" x2="1165" y1="623" y2="619"/>
<text x="1154" font-size="10" y="13" clip-path="url(#clipPath2)" stroke="none" xml:space="preserve">0.060</text>
<text x="1154" font-size="10" y="634" clip-path="url(#clipPath2)" stroke="none" xml:space="preserve">0.060</text>
<line clip-path="url(#clipPath2)" fill="none" x1="1184" x2="1184" y1="20" y2="22"/>
<line clip-path="url(#clipPath2)" fill="none" x1="1184" x2="1184" y1="621" y2="619"/>
<line clip-path="url(#clipPath2)" fill="none" x1="1203" x2="1203" y1="20" y2="22"/>
<line clip-path="url(#clipPath2)" fill="none" x1="1203" x2="1203" y1="621" y2="619"/>
<line clip-path="url(#clipPath2)" fill="none" x1="1221" x2="1221" y1="20" y2="22"/>
<line clip-path="url(#clipPath2)" fill="none" x1="1221" x2="1221" y1="621" y2="619"/>
<line clip-path="url(#clipPath2)" fill="none" x1="1240" x2="1240" y1="20" y2="22"/>
<line clip-path="url(#clipPath2)" fill="none" x1="1240" x2="1240" y1="621" y2="619"/>
<line clip-path="url(#clipPath2)" fill="none" x1="1259" x2="1259" y1="18" y2="22"/>
<line clip-path="url(#clipPath2)" fill="none" x1="1259" x2="1259" y1="623" y2="619"/>
<text x="1248" font-size="10" y="13" clip-path="url(#clipPath2)" stroke="none" xml:space="preserve">0.065</text>
<text x="1248" font-size="10" y="634" clip-path="url(#clipPath2)" stroke="none" xml:space="preserve">0.065</text>
<line clip-path="url(#clipPath2)" fill="none" x1="1278" x2="1278" y1="20" y2="22"/>
<line clip-path="url(#clipPath2)" fill="none" x1="1278" x2="1278" y1="621" y2="619"/>
<line clip-path="url(#clipPath2)" fill="none" x1="1297" x2="1297" y1="20" y2="22"/>
<line clip-path="url(#clipPath2)" fill="none" x1="1297" x2="1297" y1="621" y2="619"/>
<line clip-path="url(#clipPath2)" fill="none" x1="1315" x2="1315" y1="20" y2="22"/>
<line clip-path="url(#clipPath2)" fill="none" x1="1315" x2="1315" y1="621" y2="619"/>
<line clip-path="url(#clipPath2)" fill="none" x1="1334" x2="1334" y1="20" y2="22"/>
<line clip-path="url(#clipPath2)" fill="none" x1="1334" x2="1334" y1="621" y2="619"/>
<line clip-path="url(#clipPath2)" fill="none" x1="1353" x2="1353" y1="18" y2="22"/>
<line clip-path="url(#clipPath2)" fill="none" x1="1353" x2="1353" y1="623" y2="619"/>
<text x="1342" font-size="10" y="13" clip-path="url(#clipPath2)" stroke="none" xml:space="preserve">0.070</text>
<text x="1342" font-size="10" y="634" clip-path="url(#clipPath2)" stroke="none" xml:space="preserve">0.070</text>
<line clip-path="url(#clipPath2)" fill="none" x1="36" x2="36" y1="24" y2="617"/>
<line clip-path="url(#clipPath2)" fill="none" x1="1372" x2="1372" y1="24" y2="617"/>
<line clip-path="url(#clipPath2)" fill="none" x1="32" x2="36" y1="617" y2="617"/>
<line clip-path="url(#clipPath2)" fill="none" x1="1376" x2="1372" y1="617" y2="617"/>
<text x="26" font-size="10" y="620" clip-path="url(#clipPath2)" stroke="none" xml:space="preserve">0</text>
<text x="1379" font-size="10" y="620" clip-path="url(#clipPath2)" stroke="none" xml:space="preserve">0</text>
<line clip-path="url(#clipPath2)" fill="none" x1="34" x2="36" y1="571" y2="571"/>
<line clip-path="url(#clipPath2)" fill="none" x1="1374" x2="1372" y1="571" y2="571"/>
<line clip-path="url(#clipPath2)" fill="none" x1="32" x2="36" y1="526" y2="526"/>
<line clip-path="url(#clipPath2)" fill="none" x1="1376" x2="1372" y1="526" y2="526"/>
<text x="16" font-size="10" y="529" clip-path="url(#clipPath2)" stroke="none" xml:space="preserve">200</text>
<text x="1379" font-size="10" y="529" clip-path="url(#clipPath2)" stroke="none" xml:space="preserve">200</text>
<line clip-path="url(#clipPath2)" fill="none" x1="34" x2="36" y1="481" y2="481"/>
<line clip-path="url(#clipPath2)" fill="none" x1="1374" x2="1372" y1="481" y2="481"/>
<line clip-path="url(#clipPath2)" fill="none" x1="32" x2="36" y1="436" y2="436"/>
<line clip-path="url(#clipPath2)" fill="none" x1="1376" x2="1372" y1="436" y2="436"/>
<text x="16" font-size="10" y="439" clip-path="url(#clipPath2)" stroke="none" xml:space="preserve">400</text>
<text x="1379" font-size="10" y="439" clip-path="url(#clipPath2)" stroke="none" xml:space="preserve">400</text>
<line clip-path="url(#clipPath2)" fill="none" x1="34" x2="36" y1="391" y2="391"/>
<line clip-path="url(#clipPath2)" fill="none" x1="1374" x2="1372" y1="391" y2="391"/>
<line clip-path="url(#clipPath2)" fill="none" x1="32" x2="36" y1="345" y2="345"/>
<line clip-path="url(#clipPath2)" fill="none" x1="1376" x2="1372" y1="345" y2="345"/>
<text x="16" font-size="10" y="348" clip-path="url(#clipPath2)" stroke="none" xml:space="preserve">600</text>
<text x="1379" font-size="10" y="348" clip-path="url(#clipPath2)" stroke="none" xml:space="preserve">600</text>
<line clip-path="url(#clipPath2)" fill="none" x1="34" x2="36" y1="300" y2="300"/>
<line clip-path="url(#clipPath2)" fill="none" x1="1374" x2="1372" y1="300" y2="300"/>
<line clip-path="url(#clipPath2)" fill="none" x1="32" x2="36" y1="255" y2="255"/>
<line clip-path="url(#clipPath2)" fill="none" x1="1376" x2="1372" y1="255" y2="255"/>
<text x="16" font-size="10" y="258" clip-path="url(#clipPath2)" stroke="none" xml:space="preserve">800</text>
<text x="1379" font-size="10" y="258" clip-path="url(#clipPath2)" stroke="none" xml:space="preserve">800</text>
<line clip-path="url(#clipPath2)" fill="none" x1="34" x2="36" y1="210" y2="210"/>
<line clip-path="url(#clipPath2)" fill="none" x1="1374" x2="1372" y1="210" y2="210"/>
<line clip-path="url(#clipPath2)" fill="none" x1="32" x2="36" y1="165" y2="165"/>
<line clip-path="url(#clipPath2)" fill="none" x1="1376" x2="1372" y1="165" y2="165"/>
<text x="11" font-size="10" y="168" clip-path="url(#clipPath2)" stroke="none" xml:space="preserve">1000</text>
<text x="1379" font-size="10" y="168" clip-path="url(#clipPath2)" stroke="none" xml:space="preserve">1000</text>
<line clip-path="url(#clipPath2)" fill="none" x1="34" x2="36" y1="119" y2="119"/>
<line clip-path="url(#clipPath2)" fill="none" x1="1374" x2="1372" y1="119" y2="119"/>
<line clip-path="url(#clipPath2)" fill="none" x1="32" x2="36" y1="74" y2="74"/>
<line clip-path="url(#clipPath2)" fill="none" x1="1376" x2="1372" y1="74" y2="74"/>
<text x="11" font-size="10" y="77" clip-path="url(#clipPath2)" stroke="none" xml:space="preserve">1200</text>
<text x="1379" font-size="10" y="77" clip-path="url(#clipPath2)" stroke="none" xml:space="preserve">1200</text>
<line clip-path="url(#clipPath2)" fill="none" x1="34" x2="36" y1="29" y2="29"/>
<line clip-path="url(#clipPath2)" fill="none" x1="1374" x2="1372" y1="29" y2="29"/>
</g>
</g>
</svg>
