<?xml version="1.0" encoding="UTF-8"?><svg xmlns="http://www.w3.org/2000/svg" xmlns:xlink="http://www.w3.org/1999/xlink" stroke-dasharray="none" shape-rendering="auto" font-family="'Dialog'" width="1408" text-rendering="auto" fill-opacity="1" contentScriptType="text/ecmascript" color-interpolation="auto" color-rendering="auto" preserveAspectRatio="xMidYMid meet" font-size="12" fill="black" stroke="black" image-rendering="auto" stroke-miterlimit="10" zoomAndPan="magnify" version="1.0" stroke-linecap="square" stroke-linejoin="miter" contentStyleType="text/css" font-style="normal" height="641" stroke-width="1" stroke-dashoffset="0" font-weight="normal" stroke-opacity="1">
<!--Generated by the Batik Graphics2D SVG Generator-->
<defs id="genericDefs"/>
<g>
<defs id="defs1">
<clipPath clipPathUnits="userSpaceOnUse" id="clipPath1">
<path d="M53 39 L1371 39 L1371 602 L53 602 L53 39 Z"/>
</clipPath>
<clipPath clipPathUnits="userSpaceOnUse" id="clipPath2">
<path d="M-1 -1 L1409 -1 L1409 642 L-1 642 L-1 -1 Z"/>
</clipPath>
</defs>
<g fill="white" text-rendering="geometricPrecision" font-family="'Segoe UI'" stroke-linejoin="round" stroke="white" stroke-width="0" stroke-miterlimit="0">
<rect x="54" y="40" clip-path="url(#clipPath1)" width="1316" height="561" stroke="none"/>
</g>
<g stroke-linecap="butt" fill="rgb(204,204,204)" text-rendering="geometricPrecision" font-family="'Segoe UI'" stroke-dasharray="3,3" stroke="rgb(204,204,204)">
<line clip-path="url(#clipPath1)" fill="none" x1="54" x2="54" y1="40" y2="601"/>
<line clip-path="url(#clipPath1)" fill="none" x1="150" x2="150" y1="40" y2="601"/>
<line clip-path="url(#clipPath1)" fill="none" x1="247" x2="247" y1="40" y2="601"/>
<line clip-path="url(#clipPath1)" fill="none" x1="344" x2="344" y1="40" y2="601"/>
<line clip-path="url(#clipPath1)" fill="none" x1="441" x2="441" y1="40" y2="601"/>
<line clip-path="url(#clipPath1)" fill="none" x1="538" x2="538" y1="40" y2="601"/>
<line clip-path="url(#clipPath1)" fill="none" x1="635" x2="635" y1="40" y2="601"/>
<line clip-path="url(#clipPath1)" fill="none" x1="732" x2="732" y1="40" y2="601"/>
<line clip-path="url(#clipPath1)" fill="none" x1="829" x2="829" y1="40" y2="601"/>
<line clip-path="url(#clipPath1)" fill="none" x1="926" x2="926" y1="40" y2="601"/>
<line clip-path="url(#clipPath1)" fill="none" x1="1023" x2="1023" y1="40" y2="601"/>
<line clip-path="url(#clipPath1)" fill="none" x1="1120" x2="1120" y1="40" y2="601"/>
<line clip-path="url(#clipPath1)" fill="none" x1="1217" x2="1217" y1="40" y2="601"/>
<line clip-path="url(#clipPath1)" fill="none" x1="1314" x2="1314" y1="40" y2="601"/>
<line clip-path="url(#clipPath1)" fill="none" x1="54" x2="1370" y1="601" y2="601"/>
<line clip-path="url(#clipPath1)" fill="none" x1="54" x2="1370" y1="511" y2="511"/>
<line clip-path="url(#clipPath1)" fill="none" x1="54" x2="1370" y1="422" y2="422"/>
<line clip-path="url(#clipPath1)" fill="none" x1="54" x2="1370" y1="333" y2="333"/>
<line clip-path="url(#clipPath1)" fill="none" x1="54" x2="1370" y1="244" y2="244"/>
<line clip-path="url(#clipPath1)" fill="none" x1="54" x2="1370" y1="154" y2="154"/>
<line clip-path="url(#clipPath1)" fill="none" x1="54" x2="1370" y1="65" y2="65"/>
<rect x="71" y="594" clip-path="url(#clipPath1)" fill="rgb(0,0,139)" width="5" height="5" stroke="none"/>
<line clip-path="url(#clipPath1)" fill="none" x1="73" x2="92" y1="596" y2="591" stroke-dasharray="none" stroke="rgb(0,0,139)"/>
<rect x="90" y="589" clip-path="url(#clipPath1)" fill="rgb(0,0,139)" width="5" stroke-dasharray="none" height="5" stroke="none"/>
<line clip-path="url(#clipPath1)" fill="none" x1="92" x2="112" y1="591" y2="584" stroke-dasharray="none" stroke="rgb(0,0,139)"/>
<rect x="110" y="582" clip-path="url(#clipPath1)" fill="rgb(0,0,139)" width="5" stroke-dasharray="none" height="5" stroke="none"/>
<line clip-path="url(#clipPath1)" fill="none" x1="112" x2="131" y1="584" y2="578" stroke-dasharray="none" stroke="rgb(0,0,139)"/>
<rect x="129" y="576" clip-path="url(#clipPath1)" fill="rgb(0,0,139)" width="5" stroke-dasharray="none" height="5" stroke="none"/>
<line clip-path="url(#clipPath1)" fill="none" x1="131" x2="150" y1="578" y2="571" stroke-dasharray="none" stroke="rgb(0,0,139)"/>
<rect x="148" y="569" clip-path="url(#clipPath1)" fill="rgb(0,0,139)" width="5" stroke-dasharray="none" height="5" stroke="none"/>
<line clip-path="url(#clipPath1)" fill="none" x1="150" x2="170" y1="571" y2="566" stroke-dasharray="none" stroke="rgb(0,0,139)"/>
<rect x="168" y="564" clip-path="url(#clipPath1)" fill="rgb(0,0,139)" width="5" stroke-dasharray="none" height="5" stroke="none"/>
<line clip-path="url(#clipPath1)" fill="none" x1="170" x2="189" y1="566" y2="558" stroke-dasharray="none" stroke="rgb(0,0,139)"/>
<rect x="187" y="556" clip-path="url(#clipPath1)" fill="rgb(0,0,139)" width="5" stroke-dasharray="none" height="5" stroke="none"/>
<line clip-path="url(#clipPath1)" fill="none" x1="189" x2="209" y1="558" y2="552" stroke-dasharray="none" stroke="rgb(0,0,139)"/>
<rect x="207" y="550" clip-path="url(#clipPath1)" fill="rgb(0,0,139)" width="5" stroke-dasharray="none" height="5" stroke="none"/>
<line clip-path="url(#clipPath1)" fill="none" x1="209" x2="228" y1="552" y2="546" stroke-dasharray="none" stroke="rgb(0,0,139)"/>
<rect x="226" y="544" clip-path="url(#clipPath1)" fill="rgb(0,0,139)" width="5" stroke-dasharray="none" height="5" stroke="none"/>
<line clip-path="url(#clipPath1)" fill="none" x1="228" x2="247" y1="546" y2="540" stroke-dasharray="none" stroke="rgb(0,0,139)"/>
<rect x="245" y="538" clip-path="url(#clipPath1)" fill="rgb(0,0,139)" width="5" stroke-dasharray="none" height="5" stroke="none"/>
<line clip-path="url(#clipPath1)" fill="none" x1="247" x2="267" y1="540" y2="533" stroke-dasharray="none" stroke="rgb(0,0,139)"/>
<rect x="265" y="531" clip-path="url(#clipPath1)" fill="rgb(0,0,139)" width="5" stroke-dasharray="none" height="5" stroke="none"/>
<line clip-path="url(#clipPath1)" fill="none" x1="267" x2="286" y1="533" y2="527" stroke-dasharray="none" stroke="rgb(0,0,139)"/>
<rect x="284" y="525" clip-path="url(#clipPath1)" fill="rgb(0,0,139)" width="5" stroke-dasharray="none" height="5" stroke="none"/>
<line clip-path="url(#clipPath1)" fill="none" x1="286" x2="306" y1="527" y2="521" stroke-dasharray="none" stroke="rgb(0,0,139)"/>
<rect x="304" y="519" clip-path="url(#clipPath1)" fill="rgb(0,0,139)" width="5" stroke-dasharray="none" height="5" stroke="none"/>
<line clip-path="url(#clipPath1)" fill="none" x1="306" x2="325" y1="521" y2="514" stroke-dasharray="none" stroke="rgb(0,0,139)"/>
<rect x="323" y="512" clip-path="url(#clipPath1)" fill="rgb(0,0,139)" width="5" stroke-dasharray="none" height="5" stroke="none"/>
<line clip-path="url(#clipPath1)" fill="none" x1="325" x2="344" y1="514" y2="508" stroke-dasharray="none" stroke="rgb(0,0,139)"/>
<rect x="342" y="506" clip-path="url(#clipPath1)" fill="rgb(0,0,139)" width="5" stroke-dasharray="none" height="5" stroke="none"/>
<line clip-path="url(#clipPath1)" fill="none" x1="344" x2="364" y1="508" y2="502" stroke-dasharray="none" stroke="rgb(0,0,139)"/>
<rect x="362" y="500" clip-path="url(#clipPath1)" fill="rgb(0,0,139)" width="5" stroke-dasharray="none" height="5" stroke="none"/>
<line clip-path="url(#clipPath1)" fill="none" x1="364" x2="383" y1="502" y2="495" stroke-dasharray="none" stroke="rgb(0,0,139)"/>
<rect x="381" y="493" clip-path="url(#clipPath1)" fill="rgb(0,0,139)" width="5" stroke-dasharray="none" height="5" stroke="none"/>
<line clip-path="url(#clipPath1)" fill="none" x1="383" x2="403" y1="495" y2="489" stroke-dasharray="none" stroke="rgb(0,0,139)"/>
<rect x="401" y="487" clip-path="url(#clipPath1)" fill="rgb(0,0,139)" width="5" stroke-dasharray="none" height="5" stroke="none"/>
<line clip-path="url(#clipPath1)" fill="none" x1="403" x2="422" y1="489" y2="483" stroke-dasharray="none" stroke="rgb(0,0,139)"/>
<rect x="420" y="481" clip-path="url(#clipPath1)" fill="rgb(0,0,139)" width="5" stroke-dasharray="none" height="5" stroke="none"/>
<line clip-path="url(#clipPath1)" fill="none" x1="422" x2="441" y1="483" y2="476" stroke-dasharray="none" stroke="rgb(0,0,139)"/>
<rect x="439" y="474" clip-path="url(#clipPath1)" fill="rgb(0,0,139)" width="5" stroke-dasharray="none" height="5" stroke="none"/>
<line clip-path="url(#clipPath1)" fill="none" x1="441" x2="461" y1="476" y2="469" stroke-dasharray="none" stroke="rgb(0,0,139)"/>
<rect x="459" y="467" clip-path="url(#clipPath1)" fill="rgb(0,0,139)" width="5" stroke-dasharray="none" height="5" stroke="none"/>
<line clip-path="url(#clipPath1)" fill="none" x1="461" x2="480" y1="469" y2="464" stroke-dasharray="none" stroke="rgb(0,0,139)"/>
<rect x="478" y="462" clip-path="url(#clipPath1)" fill="rgb(0,0,139)" width="5" stroke-dasharray="none" height="5" stroke="none"/>
<line clip-path="url(#clipPath1)" fill="none" x1="480" x2="500" y1="464" y2="457" stroke-dasharray="none" stroke="rgb(0,0,139)"/>
<rect x="498" y="455" clip-path="url(#clipPath1)" fill="rgb(0,0,139)" width="5" stroke-dasharray="none" height="5" stroke="none"/>
<line clip-path="url(#clipPath1)" fill="none" x1="500" x2="519" y1="457" y2="451" stroke-dasharray="none" stroke="rgb(0,0,139)"/>
<rect x="517" y="449" clip-path="url(#clipPath1)" fill="rgb(0,0,139)" width="5" stroke-dasharray="none" height="5" stroke="none"/>
<line clip-path="url(#clipPath1)" fill="none" x1="519" x2="538" y1="451" y2="445" stroke-dasharray="none" stroke="rgb(0,0,139)"/>
<rect x="536" y="443" clip-path="url(#clipPath1)" fill="rgb(0,0,139)" width="5" stroke-dasharray="none" height="5" stroke="none"/>
<line clip-path="url(#clipPath1)" fill="none" x1="538" x2="558" y1="445" y2="439" stroke-dasharray="none" stroke="rgb(0,0,139)"/>
<rect x="556" y="437" clip-path="url(#clipPath1)" fill="rgb(0,0,139)" width="5" stroke-dasharray="none" height="5" stroke="none"/>
<line clip-path="url(#clipPath1)" fill="none" x1="558" x2="577" y1="439" y2="432" stroke-dasharray="none" stroke="rgb(0,0,139)"/>
<rect x="575" y="430" clip-path="url(#clipPath1)" fill="rgb(0,0,139)" width="5" stroke-dasharray="none" height="5" stroke="none"/>
<line clip-path="url(#clipPath1)" fill="none" x1="577" x2="597" y1="432" y2="426" stroke-dasharray="none" stroke="rgb(0,0,139)"/>
<rect x="595" y="424" clip-path="url(#clipPath1)" fill="rgb(0,0,139)" width="5" stroke-dasharray="none" height="5" stroke="none"/>
<line clip-path="url(#clipPath1)" fill="none" x1="597" x2="616" y1="426" y2="420" stroke-dasharray="none" stroke="rgb(0,0,139)"/>
<rect x="614" y="418" clip-path="url(#clipPath1)" fill="rgb(0,0,139)" width="5" stroke-dasharray="none" height="5" stroke="none"/>
<line clip-path="url(#clipPath1)" fill="none" x1="616" x2="635" y1="420" y2="413" stroke-dasharray="none" stroke="rgb(0,0,139)"/>
<rect x="633" y="411" clip-path="url(#clipPath1)" fill="rgb(0,0,139)" width="5" stroke-dasharray="none" height="5" stroke="none"/>
<line clip-path="url(#clipPath1)" fill="none" x1="635" x2="655" y1="413" y2="407" stroke-dasharray="none" stroke="rgb(0,0,139)"/>
<rect x="653" y="405" clip-path="url(#clipPath1)" fill="rgb(0,0,139)" width="5" stroke-dasharray="none" height="5" stroke="none"/>
<line clip-path="url(#clipPath1)" fill="none" x1="655" x2="674" y1="407" y2="401" stroke-dasharray="none" stroke="rgb(0,0,139)"/>
<rect x="672" y="399" clip-path="url(#clipPath1)" fill="rgb(0,0,139)" width="5" stroke-dasharray="none" height="5" stroke="none"/>
<line clip-path="url(#clipPath1)" fill="none" x1="674" x2="694" y1="401" y2="395" stroke-dasharray="none" stroke="rgb(0,0,139)"/>
<rect x="692" y="393" clip-path="url(#clipPath1)" fill="rgb(0,0,139)" width="5" stroke-dasharray="none" height="5" stroke="none"/>
<line clip-path="url(#clipPath1)" fill="none" x1="694" x2="713" y1="395" y2="387" stroke-dasharray="none" stroke="rgb(0,0,139)"/>
<rect x="711" y="385" clip-path="url(#clipPath1)" fill="rgb(0,0,139)" width="5" stroke-dasharray="none" height="5" stroke="none"/>
<line clip-path="url(#clipPath1)" fill="none" x1="713" x2="732" y1="387" y2="383" stroke-dasharray="none" stroke="rgb(0,0,139)"/>
<rect x="730" y="381" clip-path="url(#clipPath1)" fill="rgb(0,0,139)" width="5" stroke-dasharray="none" height="5" stroke="none"/>
<line clip-path="url(#clipPath1)" fill="none" x1="732" x2="752" y1="383" y2="375" stroke-dasharray="none" stroke="rgb(0,0,139)"/>
<rect x="750" y="373" clip-path="url(#clipPath1)" fill="rgb(0,0,139)" width="5" stroke-dasharray="none" height="5" stroke="none"/>
<line clip-path="url(#clipPath1)" fill="none" x1="752" x2="771" y1="375" y2="369" stroke-dasharray="none" stroke="rgb(0,0,139)"/>
<rect x="769" y="367" clip-path="url(#clipPath1)" fill="rgb(0,0,139)" width="5" stroke-dasharray="none" height="5" stroke="none"/>
<line clip-path="url(#clipPath1)" fill="none" x1="771" x2="791" y1="369" y2="363" stroke-dasharray="none" stroke="rgb(0,0,139)"/>
<rect x="789" y="361" clip-path="url(#clipPath1)" fill="rgb(0,0,139)" width="5" stroke-dasharray="none" height="5" stroke="none"/>
<line clip-path="url(#clipPath1)" fill="none" x1="791" x2="810" y1="363" y2="357" stroke-dasharray="none" stroke="rgb(0,0,139)"/>
<rect x="808" y="355" clip-path="url(#clipPath1)" fill="rgb(0,0,139)" width="5" stroke-dasharray="none" height="5" stroke="none"/>
<line clip-path="url(#clipPath1)" fill="none" x1="810" x2="829" y1="357" y2="350" stroke-dasharray="none" stroke="rgb(0,0,139)"/>
<rect x="827" y="348" clip-path="url(#clipPath1)" fill="rgb(0,0,139)" width="5" stroke-dasharray="none" height="5" stroke="none"/>
<line clip-path="url(#clipPath1)" fill="none" x1="829" x2="849" y1="350" y2="344" stroke-dasharray="none" stroke="rgb(0,0,139)"/>
<rect x="847" y="342" clip-path="url(#clipPath1)" fill="rgb(0,0,139)" width="5" stroke-dasharray="none" height="5" stroke="none"/>
<line clip-path="url(#clipPath1)" fill="none" x1="849" x2="868" y1="344" y2="337" stroke-dasharray="none" stroke="rgb(0,0,139)"/>
<rect x="866" y="335" clip-path="url(#clipPath1)" fill="rgb(0,0,139)" width="5" stroke-dasharray="none" height="5" stroke="none"/>
<line clip-path="url(#clipPath1)" fill="none" x1="868" x2="888" y1="337" y2="331" stroke-dasharray="none" stroke="rgb(0,0,139)"/>
<rect x="886" y="329" clip-path="url(#clipPath1)" fill="rgb(0,0,139)" width="5" stroke-dasharray="none" height="5" stroke="none"/>
<line clip-path="url(#clipPath1)" fill="none" x1="888" x2="907" y1="331" y2="324" stroke-dasharray="none" stroke="rgb(0,0,139)"/>
<rect x="905" y="322" clip-path="url(#clipPath1)" fill="rgb(0,0,139)" width="5" stroke-dasharray="none" height="5" stroke="none"/>
<line clip-path="url(#clipPath1)" fill="none" x1="907" x2="926" y1="324" y2="319" stroke-dasharray="none" stroke="rgb(0,0,139)"/>
<rect x="924" y="317" clip-path="url(#clipPath1)" fill="rgb(0,0,139)" width="5" stroke-dasharray="none" height="5" stroke="none"/>
<line clip-path="url(#clipPath1)" fill="none" x1="926" x2="946" y1="319" y2="312" stroke-dasharray="none" stroke="rgb(0,0,139)"/>
<rect x="944" y="310" clip-path="url(#clipPath1)" fill="rgb(0,0,139)" width="5" stroke-dasharray="none" height="5" stroke="none"/>
<line clip-path="url(#clipPath1)" fill="none" x1="946" x2="965" y1="312" y2="306" stroke-dasharray="none" stroke="rgb(0,0,139)"/>
<rect x="963" y="304" clip-path="url(#clipPath1)" fill="rgb(0,0,139)" width="5" stroke-dasharray="none" height="5" stroke="none"/>
<line clip-path="url(#clipPath1)" fill="none" x1="965" x2="985" y1="306" y2="300" stroke-dasharray="none" stroke="rgb(0,0,139)"/>
<rect x="983" y="298" clip-path="url(#clipPath1)" fill="rgb(0,0,139)" width="5" stroke-dasharray="none" height="5" stroke="none"/>
<line clip-path="url(#clipPath1)" fill="none" x1="985" x2="1004" y1="300" y2="293" stroke-dasharray="none" stroke="rgb(0,0,139)"/>
<rect x="1002" y="291" clip-path="url(#clipPath1)" fill="rgb(0,0,139)" width="5" stroke-dasharray="none" height="5" stroke="none"/>
<line clip-path="url(#clipPath1)" fill="none" x1="1004" x2="1023" y1="293" y2="288" stroke-dasharray="none" stroke="rgb(0,0,139)"/>
<rect x="1021" y="286" clip-path="url(#clipPath1)" fill="rgb(0,0,139)" width="5" stroke-dasharray="none" height="5" stroke="none"/>
<line clip-path="url(#clipPath1)" fill="none" x1="1023" x2="1043" y1="288" y2="280" stroke-dasharray="none" stroke="rgb(0,0,139)"/>
<rect x="1041" y="278" clip-path="url(#clipPath1)" fill="rgb(0,0,139)" width="5" stroke-dasharray="none" height="5" stroke="none"/>
<line clip-path="url(#clipPath1)" fill="none" x1="1043" x2="1062" y1="280" y2="275" stroke-dasharray="none" stroke="rgb(0,0,139)"/>
<rect x="1060" y="273" clip-path="url(#clipPath1)" fill="rgb(0,0,139)" width="5" stroke-dasharray="none" height="5" stroke="none"/>
<line clip-path="url(#clipPath1)" fill="none" x1="1062" x2="1082" y1="275" y2="268" stroke-dasharray="none" stroke="rgb(0,0,139)"/>
<rect x="1080" y="266" clip-path="url(#clipPath1)" fill="rgb(0,0,139)" width="5" stroke-dasharray="none" height="5" stroke="none"/>
<line clip-path="url(#clipPath1)" fill="none" x1="1082" x2="1101" y1="268" y2="262" stroke-dasharray="none" stroke="rgb(0,0,139)"/>
<rect x="1099" y="260" clip-path="url(#clipPath1)" fill="rgb(0,0,139)" width="5" stroke-dasharray="none" height="5" stroke="none"/>
<line clip-path="url(#clipPath1)" fill="none" x1="1101" x2="1120" y1="262" y2="255" stroke-dasharray="none" stroke="rgb(0,0,139)"/>
<rect x="1118" y="253" clip-path="url(#clipPath1)" fill="rgb(0,0,139)" width="5" stroke-dasharray="none" height="5" stroke="none"/>
<line clip-path="url(#clipPath1)" fill="none" x1="1120" x2="1140" y1="255" y2="249" stroke-dasharray="none" stroke="rgb(0,0,139)"/>
<rect x="1138" y="247" clip-path="url(#clipPath1)" fill="rgb(0,0,139)" width="5" stroke-dasharray="none" height="5" stroke="none"/>
<line clip-path="url(#clipPath1)" fill="none" x1="1140" x2="1159" y1="249" y2="242" stroke-dasharray="none" stroke="rgb(0,0,139)"/>
<rect x="1157" y="240" clip-path="url(#clipPath1)" fill="rgb(0,0,139)" width="5" stroke-dasharray="none" height="5" stroke="none"/>
<line clip-path="url(#clipPath1)" fill="none" x1="1159" x2="1179" y1="242" y2="237" stroke-dasharray="none" stroke="rgb(0,0,139)"/>
<rect x="1177" y="235" clip-path="url(#clipPath1)" fill="rgb(0,0,139)" width="5" stroke-dasharray="none" height="5" stroke="none"/>
<line clip-path="url(#clipPath1)" fill="none" x1="1179" x2="1198" y1="237" y2="230" stroke-dasharray="none" stroke="rgb(0,0,139)"/>
<rect x="1196" y="228" clip-path="url(#clipPath1)" fill="rgb(0,0,139)" width="5" stroke-dasharray="none" height="5" stroke="none"/>
<line clip-path="url(#clipPath1)" fill="none" x1="1198" x2="1217" y1="230" y2="224" stroke-dasharray="none" stroke="rgb(0,0,139)"/>
<rect x="1215" y="222" clip-path="url(#clipPath1)" fill="rgb(0,0,139)" width="5" stroke-dasharray="none" height="5" stroke="none"/>
<line clip-path="url(#clipPath1)" fill="none" x1="1217" x2="1237" y1="224" y2="218" stroke-dasharray="none" stroke="rgb(0,0,139)"/>
<rect x="1235" y="216" clip-path="url(#clipPath1)" fill="rgb(0,0,139)" width="5" stroke-dasharray="none" height="5" stroke="none"/>
<line clip-path="url(#clipPath1)" fill="none" x1="1237" x2="1256" y1="218" y2="211" stroke-dasharray="none" stroke="rgb(0,0,139)"/>
<rect x="1254" y="209" clip-path="url(#clipPath1)" fill="rgb(0,0,139)" width="5" stroke-dasharray="none" height="5" stroke="none"/>
<line clip-path="url(#clipPath1)" fill="none" x1="1256" x2="1276" y1="211" y2="205" stroke-dasharray="none" stroke="rgb(0,0,139)"/>
<rect x="1274" y="203" clip-path="url(#clipPath1)" fill="rgb(0,0,139)" width="5" stroke-dasharray="none" height="5" stroke="none"/>
<line clip-path="url(#clipPath1)" fill="none" x1="1276" x2="1295" y1="205" y2="198" stroke-dasharray="none" stroke="rgb(0,0,139)"/>
<rect x="1293" y="196" clip-path="url(#clipPath1)" fill="rgb(0,0,139)" width="5" stroke-dasharray="none" height="5" stroke="none"/>
<line clip-path="url(#clipPath1)" fill="none" x1="1295" x2="1314" y1="198" y2="192" stroke-dasharray="none" stroke="rgb(0,0,139)"/>
<rect x="1312" y="190" clip-path="url(#clipPath1)" fill="rgb(0,0,139)" width="5" stroke-dasharray="none" height="5" stroke="none"/>
<line clip-path="url(#clipPath1)" fill="none" x1="1314" x2="1334" y1="192" y2="186" stroke-dasharray="none" stroke="rgb(0,0,139)"/>
<rect x="1332" y="184" clip-path="url(#clipPath1)" fill="rgb(0,0,139)" width="5" stroke-dasharray="none" height="5" stroke="none"/>
<line clip-path="url(#clipPath1)" fill="none" x1="1334" x2="1353" y1="186" y2="180" stroke-dasharray="none" stroke="rgb(0,0,139)"/>
<rect x="1351" y="178" clip-path="url(#clipPath1)" fill="rgb(0,0,139)" width="5" stroke-dasharray="none" height="5" stroke="none"/>
<rect x="54" y="40" clip-path="url(#clipPath2)" fill="none" width="1316" stroke-dasharray="none" height="561" stroke="black"/>
</g>
<g text-rendering="geometricPrecision" font-size="13" font-family="'Arial'" stroke-linecap="butt">
<text xml:space="preserve" x="629" y="12" clip-path="url(#clipPath2)" stroke="none">Total users' queues length</text>
<line clip-path="url(#clipPath2)" fill="none" x1="54" x2="1370" y1="38" y2="38"/>
<line clip-path="url(#clipPath2)" fill="none" x1="54" x2="1370" y1="603" y2="603"/>
<text xml:space="preserve" x="700" y="637" clip-path="url(#clipPath2)" stroke="none">time</text>
<line clip-path="url(#clipPath2)" fill="none" x1="54" x2="54" y1="34" y2="38"/>
<line clip-path="url(#clipPath2)" fill="none" x1="54" x2="54" y1="607" y2="603"/>
<text x="45" font-size="10" y="29" clip-path="url(#clipPath2)" stroke="none" xml:space="preserve">0.00</text>
<text x="45" font-size="10" y="618" clip-path="url(#clipPath2)" stroke="none" xml:space="preserve">0.00</text>
<line clip-path="url(#clipPath2)" fill="none" x1="73" x2="73" y1="36" y2="38"/>
<line clip-path="url(#clipPath2)" fill="none" x1="73" x2="73" y1="605" y2="603"/>
<line clip-path="url(#clipPath2)" fill="none" x1="92" x2="92" y1="36" y2="38"/>
<line clip-path="url(#clipPath2)" fill="none" x1="92" x2="92" y1="605" y2="603"/>
<line clip-path="url(#clipPath2)" fill="none" x1="112" x2="112" y1="36" y2="38"/>
<line clip-path="url(#clipPath2)" fill="none" x1="112" x2="112" y1="605" y2="603"/>
<line clip-path="url(#clipPath2)" fill="none" x1="131" x2="131" y1="36" y2="38"/>
<line clip-path="url(#clipPath2)" fill="none" x1="131" x2="131" y1="605" y2="603"/>
<line clip-path="url(#clipPath2)" fill="none" x1="150" x2="150" y1="34" y2="38"/>
<line clip-path="url(#clipPath2)" fill="none" x1="150" x2="150" y1="607" y2="603"/>
<text x="139" font-size="10" y="29" clip-path="url(#clipPath2)" stroke="none" xml:space="preserve">0.005</text>
<text x="139" font-size="10" y="618" clip-path="url(#clipPath2)" stroke="none" xml:space="preserve">0.005</text>
<line clip-path="url(#clipPath2)" fill="none" x1="170" x2="170" y1="36" y2="38"/>
<line clip-path="url(#clipPath2)" fill="none" x1="170" x2="170" y1="605" y2="603"/>
<line clip-path="url(#clipPath2)" fill="none" x1="189" x2="189" y1="36" y2="38"/>
<line clip-path="url(#clipPath2)" fill="none" x1="189" x2="189" y1="605" y2="603"/>
<line clip-path="url(#clipPath2)" fill="none" x1="209" x2="209" y1="36" y2="38"/>
<line clip-path="url(#clipPath2)" fill="none" x1="209" x2="209" y1="605" y2="603"/>
<line clip-path="url(#clipPath2)" fill="none" x1="228" x2="228" y1="36" y2="38"/>
<line clip-path="url(#clipPath2)" fill="none" x1="228" x2="228" y1="605" y2="603"/>
<line clip-path="url(#clipPath2)" fill="none" x1="247" x2="247" y1="34" y2="38"/>
<line clip-path="url(#clipPath2)" fill="none" x1="247" x2="247" y1="607" y2="603"/>
<text x="236" font-size="10" y="29" clip-path="url(#clipPath2)" stroke="none" xml:space="preserve">0.010</text>
<text x="236" font-size="10" y="618" clip-path="url(#clipPath2)" stroke="none" xml:space="preserve">0.010</text>
<line clip-path="url(#clipPath2)" fill="none" x1="267" x2="267" y1="36" y2="38"/>
<line clip-path="url(#clipPath2)" fill="none" x1="267" x2="267" y1="605" y2="603"/>
<line clip-path="url(#clipPath2)" fill="none" x1="286" x2="286" y1="36" y2="38"/>
<line clip-path="url(#clipPath2)" fill="none" x1="286" x2="286" y1="605" y2="603"/>
<line clip-path="url(#clipPath2)" fill="none" x1="306" x2="306" y1="36" y2="38"/>
<line clip-path="url(#clipPath2)" fill="none" x1="306" x2="306" y1="605" y2="603"/>
<line clip-path="url(#clipPath2)" fill="none" x1="325" x2="325" y1="36" y2="38"/>
<line clip-path="url(#clipPath2)" fill="none" x1="325" x2="325" y1="605" y2="603"/>
<line clip-path="url(#clipPath2)" fill="none" x1="344" x2="344" y1="34" y2="38"/>
<line clip-path="url(#clipPath2)" fill="none" x1="344" x2="344" y1="607" y2="603"/>
<text x="333" font-size="10" y="29" clip-path="url(#clipPath2)" stroke="none" xml:space="preserve">0.015</text>
<text x="333" font-size="10" y="618" clip-path="url(#clipPath2)" stroke="none" xml:space="preserve">0.015</text>
<line clip-path="url(#clipPath2)" fill="none" x1="364" x2="364" y1="36" y2="38"/>
<line clip-path="url(#clipPath2)" fill="none" x1="364" x2="364" y1="605" y2="603"/>
<line clip-path="url(#clipPath2)" fill="none" x1="383" x2="383" y1="36" y2="38"/>
<line clip-path="url(#clipPath2)" fill="none" x1="383" x2="383" y1="605" y2="603"/>
<line clip-path="url(#clipPath2)" fill="none" x1="403" x2="403" y1="36" y2="38"/>
<line clip-path="url(#clipPath2)" fill="none" x1="403" x2="403" y1="605" y2="603"/>
<line clip-path="url(#clipPath2)" fill="none" x1="422" x2="422" y1="36" y2="38"/>
<line clip-path="url(#clipPath2)" fill="none" x1="422" x2="422" y1="605" y2="603"/>
<line clip-path="url(#clipPath2)" fill="none" x1="441" x2="441" y1="34" y2="38"/>
<line clip-path="url(#clipPath2)" fill="none" x1="441" x2="441" y1="607" y2="603"/>
<text x="430" font-size="10" y="29" clip-path="url(#clipPath2)" stroke="none" xml:space="preserve">0.020</text>
<text x="430" font-size="10" y="618" clip-path="url(#clipPath2)" stroke="none" xml:space="preserve">0.020</text>
<line clip-path="url(#clipPath2)" fill="none" x1="461" x2="461" y1="36" y2="38"/>
<line clip-path="url(#clipPath2)" fill="none" x1="461" x2="461" y1="605" y2="603"/>
<line clip-path="url(#clipPath2)" fill="none" x1="480" x2="480" y1="36" y2="38"/>
<line clip-path="url(#clipPath2)" fill="none" x1="480" x2="480" y1="605" y2="603"/>
<line clip-path="url(#clipPath2)" fill="none" x1="500" x2="500" y1="36" y2="38"/>
<line clip-path="url(#clipPath2)" fill="none" x1="500" x2="500" y1="605" y2="603"/>
<line clip-path="url(#clipPath2)" fill="none" x1="519" x2="519" y1="36" y2="38"/>
<line clip-path="url(#clipPath2)" fill="none" x1="519" x2="519" y1="605" y2="603"/>
<line clip-path="url(#clipPath2)" fill="none" x1="538" x2="538" y1="34" y2="38"/>
<line clip-path="url(#clipPath2)" fill="none" x1="538" x2="538" y1="607" y2="603"/>
<text x="527" font-size="10" y="29" clip-path="url(#clipPath2)" stroke="none" xml:space="preserve">0.025</text>
<text x="527" font-size="10" y="618" clip-path="url(#clipPath2)" stroke="none" xml:space="preserve">0.025</text>
<line clip-path="url(#clipPath2)" fill="none" x1="558" x2="558" y1="36" y2="38"/>
<line clip-path="url(#clipPath2)" fill="none" x1="558" x2="558" y1="605" y2="603"/>
<line clip-path="url(#clipPath2)" fill="none" x1="577" x2="577" y1="36" y2="38"/>
<line clip-path="url(#clipPath2)" fill="none" x1="577" x2="577" y1="605" y2="603"/>
<line clip-path="url(#clipPath2)" fill="none" x1="597" x2="597" y1="36" y2="38"/>
<line clip-path="url(#clipPath2)" fill="none" x1="597" x2="597" y1="605" y2="603"/>
<line clip-path="url(#clipPath2)" fill="none" x1="616" x2="616" y1="36" y2="38"/>
<line clip-path="url(#clipPath2)" fill="none" x1="616" x2="616" y1="605" y2="603"/>
<line clip-path="url(#clipPath2)" fill="none" x1="635" x2="635" y1="34" y2="38"/>
<line clip-path="url(#clipPath2)" fill="none" x1="635" x2="635" y1="607" y2="603"/>
<text x="624" font-size="10" y="29" clip-path="url(#clipPath2)" stroke="none" xml:space="preserve">0.030</text>
<text x="624" font-size="10" y="618" clip-path="url(#clipPath2)" stroke="none" xml:space="preserve">0.030</text>
<line clip-path="url(#clipPath2)" fill="none" x1="655" x2="655" y1="36" y2="38"/>
<line clip-path="url(#clipPath2)" fill="none" x1="655" x2="655" y1="605" y2="603"/>
<line clip-path="url(#clipPath2)" fill="none" x1="674" x2="674" y1="36" y2="38"/>
<line clip-path="url(#clipPath2)" fill="none" x1="674" x2="674" y1="605" y2="603"/>
<line clip-path="url(#clipPath2)" fill="none" x1="694" x2="694" y1="36" y2="38"/>
<line clip-path="url(#clipPath2)" fill="none" x1="694" x2="694" y1="605" y2="603"/>
<line clip-path="url(#clipPath2)" fill="none" x1="713" x2="713" y1="36" y2="38"/>
<line clip-path="url(#clipPath2)" fill="none" x1="713" x2="713" y1="605" y2="603"/>
<line clip-path="url(#clipPath2)" fill="none" x1="732" x2="732" y1="34" y2="38"/>
<line clip-path="url(#clipPath2)" fill="none" x1="732" x2="732" y1="607" y2="603"/>
<text x="721" font-size="10" y="29" clip-path="url(#clipPath2)" stroke="none" xml:space="preserve">0.035</text>
<text x="721" font-size="10" y="618" clip-path="url(#clipPath2)" stroke="none" xml:space="preserve">0.035</text>
<line clip-path="url(#clipPath2)" fill="none" x1="752" x2="752" y1="36" y2="38"/>
<line clip-path="url(#clipPath2)" fill="none" x1="752" x2="752" y1="605" y2="603"/>
<line clip-path="url(#clipPath2)" fill="none" x1="771" x2="771" y1="36" y2="38"/>
<line clip-path="url(#clipPath2)" fill="none" x1="771" x2="771" y1="605" y2="603"/>
<line clip-path="url(#clipPath2)" fill="none" x1="791" x2="791" y1="36" y2="38"/>
<line clip-path="url(#clipPath2)" fill="none" x1="791" x2="791" y1="605" y2="603"/>
<line clip-path="url(#clipPath2)" fill="none" x1="810" x2="810" y1="36" y2="38"/>
<line clip-path="url(#clipPath2)" fill="none" x1="810" x2="810" y1="605" y2="603"/>
<line clip-path="url(#clipPath2)" fill="none" x1="829" x2="829" y1="34" y2="38"/>
<line clip-path="url(#clipPath2)" fill="none" x1="829" x2="829" y1="607" y2="603"/>
<text x="818" font-size="10" y="29" clip-path="url(#clipPath2)" stroke="none" xml:space="preserve">0.040</text>
<text x="818" font-size="10" y="618" clip-path="url(#clipPath2)" stroke="none" xml:space="preserve">0.040</text>
<line clip-path="url(#clipPath2)" fill="none" x1="849" x2="849" y1="36" y2="38"/>
<line clip-path="url(#clipPath2)" fill="none" x1="849" x2="849" y1="605" y2="603"/>
<line clip-path="url(#clipPath2)" fill="none" x1="868" x2="868" y1="36" y2="38"/>
<line clip-path="url(#clipPath2)" fill="none" x1="868" x2="868" y1="605" y2="603"/>
<line clip-path="url(#clipPath2)" fill="none" x1="888" x2="888" y1="36" y2="38"/>
<line clip-path="url(#clipPath2)" fill="none" x1="888" x2="888" y1="605" y2="603"/>
<line clip-path="url(#clipPath2)" fill="none" x1="907" x2="907" y1="36" y2="38"/>
<line clip-path="url(#clipPath2)" fill="none" x1="907" x2="907" y1="605" y2="603"/>
<line clip-path="url(#clipPath2)" fill="none" x1="926" x2="926" y1="34" y2="38"/>
<line clip-path="url(#clipPath2)" fill="none" x1="926" x2="926" y1="607" y2="603"/>
<text x="915" font-size="10" y="29" clip-path="url(#clipPath2)" stroke="none" xml:space="preserve">0.045</text>
<text x="915" font-size="10" y="618" clip-path="url(#clipPath2)" stroke="none" xml:space="preserve">0.045</text>
<line clip-path="url(#clipPath2)" fill="none" x1="946" x2="946" y1="36" y2="38"/>
<line clip-path="url(#clipPath2)" fill="none" x1="946" x2="946" y1="605" y2="603"/>
<line clip-path="url(#clipPath2)" fill="none" x1="965" x2="965" y1="36" y2="38"/>
<line clip-path="url(#clipPath2)" fill="none" x1="965" x2="965" y1="605" y2="603"/>
<line clip-path="url(#clipPath2)" fill="none" x1="985" x2="985" y1="36" y2="38"/>
<line clip-path="url(#clipPath2)" fill="none" x1="985" x2="985" y1="605" y2="603"/>
<line clip-path="url(#clipPath2)" fill="none" x1="1004" x2="1004" y1="36" y2="38"/>
<line clip-path="url(#clipPath2)" fill="none" x1="1004" x2="1004" y1="605" y2="603"/>
<line clip-path="url(#clipPath2)" fill="none" x1="1023" x2="1023" y1="34" y2="38"/>
<line clip-path="url(#clipPath2)" fill="none" x1="1023" x2="1023" y1="607" y2="603"/>
<text x="1012" font-size="10" y="29" clip-path="url(#clipPath2)" stroke="none" xml:space="preserve">0.050</text>
<text x="1012" font-size="10" y="618" clip-path="url(#clipPath2)" stroke="none" xml:space="preserve">0.050</text>
<line clip-path="url(#clipPath2)" fill="none" x1="1043" x2="1043" y1="36" y2="38"/>
<line clip-path="url(#clipPath2)" fill="none" x1="1043" x2="1043" y1="605" y2="603"/>
<line clip-path="url(#clipPath2)" fill="none" x1="1062" x2="1062" y1="36" y2="38"/>
<line clip-path="url(#clipPath2)" fill="none" x1="1062" x2="1062" y1="605" y2="603"/>
<line clip-path="url(#clipPath2)" fill="none" x1="1082" x2="1082" y1="36" y2="38"/>
<line clip-path="url(#clipPath2)" fill="none" x1="1082" x2="1082" y1="605" y2="603"/>
<line clip-path="url(#clipPath2)" fill="none" x1="1101" x2="1101" y1="36" y2="38"/>
<line clip-path="url(#clipPath2)" fill="none" x1="1101" x2="1101" y1="605" y2="603"/>
<line clip-path="url(#clipPath2)" fill="none" x1="1120" x2="1120" y1="34" y2="38"/>
<line clip-path="url(#clipPath2)" fill="none" x1="1120" x2="1120" y1="607" y2="603"/>
<text x="1109" font-size="10" y="29" clip-path="url(#clipPath2)" stroke="none" xml:space="preserve">0.055</text>
<text x="1109" font-size="10" y="618" clip-path="url(#clipPath2)" stroke="none" xml:space="preserve">0.055</text>
<line clip-path="url(#clipPath2)" fill="none" x1="1140" x2="1140" y1="36" y2="38"/>
<line clip-path="url(#clipPath2)" fill="none" x1="1140" x2="1140" y1="605" y2="603"/>
<line clip-path="url(#clipPath2)" fill="none" x1="1159" x2="1159" y1="36" y2="38"/>
<line clip-path="url(#clipPath2)" fill="none" x1="1159" x2="1159" y1="605" y2="603"/>
<line clip-path="url(#clipPath2)" fill="none" x1="1179" x2="1179" y1="36" y2="38"/>
<line clip-path="url(#clipPath2)" fill="none" x1="1179" x2="1179" y1="605" y2="603"/>
<line clip-path="url(#clipPath2)" fill="none" x1="1198" x2="1198" y1="36" y2="38"/>
<line clip-path="url(#clipPath2)" fill="none" x1="1198" x2="1198" y1="605" y2="603"/>
<line clip-path="url(#clipPath2)" fill="none" x1="1217" x2="1217" y1="34" y2="38"/>
<line clip-path="url(#clipPath2)" fill="none" x1="1217" x2="1217" y1="607" y2="603"/>
<text x="1206" font-size="10" y="29" clip-path="url(#clipPath2)" stroke="none" xml:space="preserve">0.060</text>
<text x="1206" font-size="10" y="618" clip-path="url(#clipPath2)" stroke="none" xml:space="preserve">0.060</text>
<line clip-path="url(#clipPath2)" fill="none" x1="1237" x2="1237" y1="36" y2="38"/>
<line clip-path="url(#clipPath2)" fill="none" x1="1237" x2="1237" y1="605" y2="603"/>
<line clip-path="url(#clipPath2)" fill="none" x1="1256" x2="1256" y1="36" y2="38"/>
<line clip-path="url(#clipPath2)" fill="none" x1="1256" x2="1256" y1="605" y2="603"/>
<line clip-path="url(#clipPath2)" fill="none" x1="1276" x2="1276" y1="36" y2="38"/>
<line clip-path="url(#clipPath2)" fill="none" x1="1276" x2="1276" y1="605" y2="603"/>
<line clip-path="url(#clipPath2)" fill="none" x1="1295" x2="1295" y1="36" y2="38"/>
<line clip-path="url(#clipPath2)" fill="none" x1="1295" x2="1295" y1="605" y2="603"/>
<line clip-path="url(#clipPath2)" fill="none" x1="1314" x2="1314" y1="34" y2="38"/>
<line clip-path="url(#clipPath2)" fill="none" x1="1314" x2="1314" y1="607" y2="603"/>
<text x="1303" font-size="10" y="29" clip-path="url(#clipPath2)" stroke="none" xml:space="preserve">0.065</text>
<text x="1303" font-size="10" y="618" clip-path="url(#clipPath2)" stroke="none" xml:space="preserve">0.065</text>
<line clip-path="url(#clipPath2)" fill="none" x1="1334" x2="1334" y1="36" y2="38"/>
<line clip-path="url(#clipPath2)" fill="none" x1="1334" x2="1334" y1="605" y2="603"/>
<line clip-path="url(#clipPath2)" fill="none" x1="1353" x2="1353" y1="36" y2="38"/>
<line clip-path="url(#clipPath2)" fill="none" x1="1353" x2="1353" y1="605" y2="603"/>
<line clip-path="url(#clipPath2)" fill="none" x1="52" x2="52" y1="40" y2="601"/>
<line clip-path="url(#clipPath2)" fill="none" x1="1372" x2="1372" y1="40" y2="601"/>
<line clip-path="url(#clipPath2)" fill="none" x1="48" x2="52" y1="601" y2="601"/>
<line clip-path="url(#clipPath2)" fill="none" x1="1376" x2="1372" y1="601" y2="601"/>
<text x="42" font-size="10" y="604" clip-path="url(#clipPath2)" stroke="none" xml:space="preserve">0</text>
<text x="1379" font-size="10" y="604" clip-path="url(#clipPath2)" stroke="none" xml:space="preserve">0</text>
<line clip-path="url(#clipPath2)" fill="none" x1="50" x2="52" y1="556" y2="556"/>
<line clip-path="url(#clipPath2)" fill="none" x1="1374" x2="1372" y1="556" y2="556"/>
<line clip-path="url(#clipPath2)" fill="none" x1="48" x2="52" y1="511" y2="511"/>
<line clip-path="url(#clipPath2)" fill="none" x1="1376" x2="1372" y1="511" y2="511"/>
<text x="32" font-size="10" y="514" clip-path="url(#clipPath2)" stroke="none" xml:space="preserve">200</text>
<text x="1379" font-size="10" y="514" clip-path="url(#clipPath2)" stroke="none" xml:space="preserve">200</text>
<line clip-path="url(#clipPath2)" fill="none" x1="50" x2="52" y1="467" y2="467"/>
<line clip-path="url(#clipPath2)" fill="none" x1="1374" x2="1372" y1="467" y2="467"/>
<line clip-path="url(#clipPath2)" fill="none" x1="48" x2="52" y1="422" y2="422"/>
<line clip-path="url(#clipPath2)" fill="none" x1="1376" x2="1372" y1="422" y2="422"/>
<text x="32" font-size="10" y="425" clip-path="url(#clipPath2)" stroke="none" xml:space="preserve">400</text>
<text x="1379" font-size="10" y="425" clip-path="url(#clipPath2)" stroke="none" xml:space="preserve">400</text>
<line clip-path="url(#clipPath2)" fill="none" x1="50" x2="52" y1="377" y2="377"/>
<line clip-path="url(#clipPath2)" fill="none" x1="1374" x2="1372" y1="377" y2="377"/>
<line clip-path="url(#clipPath2)" fill="none" x1="48" x2="52" y1="333" y2="333"/>
<line clip-path="url(#clipPath2)" fill="none" x1="1376" x2="1372" y1="333" y2="333"/>
<text x="32" font-size="10" y="336" clip-path="url(#clipPath2)" stroke="none" xml:space="preserve">600</text>
<text x="1379" font-size="10" y="336" clip-path="url(#clipPath2)" stroke="none" xml:space="preserve">600</text>
<line clip-path="url(#clipPath2)" fill="none" x1="50" x2="52" y1="288" y2="288"/>
<line clip-path="url(#clipPath2)" fill="none" x1="1374" x2="1372" y1="288" y2="288"/>
<line clip-path="url(#clipPath2)" fill="none" x1="48" x2="52" y1="244" y2="244"/>
<line clip-path="url(#clipPath2)" fill="none" x1="1376" x2="1372" y1="244" y2="244"/>
<text x="32" font-size="10" y="247" clip-path="url(#clipPath2)" stroke="none" xml:space="preserve">800</text>
<text x="1379" font-size="10" y="247" clip-path="url(#clipPath2)" stroke="none" xml:space="preserve">800</text>
<line clip-path="url(#clipPath2)" fill="none" x1="50" x2="52" y1="199" y2="199"/>
<line clip-path="url(#clipPath2)" fill="none" x1="1374" x2="1372" y1="199" y2="199"/>
<line clip-path="url(#clipPath2)" fill="none" x1="48" x2="52" y1="154" y2="154"/>
<line clip-path="url(#clipPath2)" fill="none" x1="1376" x2="1372" y1="154" y2="154"/>
<text x="27" font-size="10" y="157" clip-path="url(#clipPath2)" stroke="none" xml:space="preserve">1000</text>
<text x="1379" font-size="10" y="157" clip-path="url(#clipPath2)" stroke="none" xml:space="preserve">1000</text>
<line clip-path="url(#clipPath2)" fill="none" x1="50" x2="52" y1="110" y2="110"/>
<line clip-path="url(#clipPath2)" fill="none" x1="1374" x2="1372" y1="110" y2="110"/>
<line clip-path="url(#clipPath2)" fill="none" x1="48" x2="52" y1="65" y2="65"/>
<line clip-path="url(#clipPath2)" fill="none" x1="1376" x2="1372" y1="65" y2="65"/>
<text x="27" font-size="10" y="68" clip-path="url(#clipPath2)" stroke="none" xml:space="preserve">1200</text>
<text x="1379" font-size="10" y="68" clip-path="url(#clipPath2)" stroke="none" xml:space="preserve">1200</text>
</g>
</g>
</svg>
