<?xml version="1.0" encoding="UTF-8"?><svg xmlns="http://www.w3.org/2000/svg" xmlns:xlink="http://www.w3.org/1999/xlink" stroke-dasharray="none" shape-rendering="auto" font-family="'Dialog'" width="1408" text-rendering="auto" fill-opacity="1" contentScriptType="text/ecmascript" color-interpolation="auto" color-rendering="auto" preserveAspectRatio="xMidYMid meet" font-size="12" fill="black" stroke="black" image-rendering="auto" stroke-miterlimit="10" zoomAndPan="magnify" version="1.0" stroke-linecap="square" stroke-linejoin="miter" contentStyleType="text/css" font-style="normal" height="641" stroke-width="1" stroke-dashoffset="0" font-weight="normal" stroke-opacity="1">
<!--Generated by the Batik Graphics2D SVG Generator-->
<defs id="genericDefs"/>
<g>
<defs id="defs1">
<clipPath clipPathUnits="userSpaceOnUse" id="clipPath1">
<path d="M46 39 L1378 39 L1378 602 L46 602 L46 39 Z"/>
</clipPath>
<clipPath clipPathUnits="userSpaceOnUse" id="clipPath2">
<path d="M-1 -1 L1409 -1 L1409 642 L-1 642 L-1 -1 Z"/>
</clipPath>
</defs>
<g fill="white" text-rendering="geometricPrecision" font-family="'Segoe UI'" stroke-linejoin="round" stroke="white" stroke-width="0" stroke-miterlimit="0">
<rect x="47" y="40" clip-path="url(#clipPath1)" width="1330" height="561" stroke="none"/>
</g>
<g stroke-linecap="butt" fill="rgb(204,204,204)" text-rendering="geometricPrecision" font-family="'Segoe UI'" stroke-dasharray="3,3" stroke="rgb(204,204,204)">
<line clip-path="url(#clipPath1)" fill="none" x1="47" x2="47" y1="40" y2="601"/>
<line clip-path="url(#clipPath1)" fill="none" x1="140" x2="140" y1="40" y2="601"/>
<line clip-path="url(#clipPath1)" fill="none" x1="234" x2="234" y1="40" y2="601"/>
<line clip-path="url(#clipPath1)" fill="none" x1="328" x2="328" y1="40" y2="601"/>
<line clip-path="url(#clipPath1)" fill="none" x1="422" x2="422" y1="40" y2="601"/>
<line clip-path="url(#clipPath1)" fill="none" x1="516" x2="516" y1="40" y2="601"/>
<line clip-path="url(#clipPath1)" fill="none" x1="609" x2="609" y1="40" y2="601"/>
<line clip-path="url(#clipPath1)" fill="none" x1="703" x2="703" y1="40" y2="601"/>
<line clip-path="url(#clipPath1)" fill="none" x1="797" x2="797" y1="40" y2="601"/>
<line clip-path="url(#clipPath1)" fill="none" x1="891" x2="891" y1="40" y2="601"/>
<line clip-path="url(#clipPath1)" fill="none" x1="985" x2="985" y1="40" y2="601"/>
<line clip-path="url(#clipPath1)" fill="none" x1="1079" x2="1079" y1="40" y2="601"/>
<line clip-path="url(#clipPath1)" fill="none" x1="1172" x2="1172" y1="40" y2="601"/>
<line clip-path="url(#clipPath1)" fill="none" x1="1266" x2="1266" y1="40" y2="601"/>
<line clip-path="url(#clipPath1)" fill="none" x1="1360" x2="1360" y1="40" y2="601"/>
<line clip-path="url(#clipPath1)" fill="none" x1="47" x2="1377" y1="601" y2="601"/>
<line clip-path="url(#clipPath1)" fill="none" x1="47" x2="1377" y1="544" y2="544"/>
<line clip-path="url(#clipPath1)" fill="none" x1="47" x2="1377" y1="488" y2="488"/>
<line clip-path="url(#clipPath1)" fill="none" x1="47" x2="1377" y1="432" y2="432"/>
<line clip-path="url(#clipPath1)" fill="none" x1="47" x2="1377" y1="376" y2="376"/>
<line clip-path="url(#clipPath1)" fill="none" x1="47" x2="1377" y1="320" y2="320"/>
<line clip-path="url(#clipPath1)" fill="none" x1="47" x2="1377" y1="264" y2="264"/>
<line clip-path="url(#clipPath1)" fill="none" x1="47" x2="1377" y1="208" y2="208"/>
<line clip-path="url(#clipPath1)" fill="none" x1="47" x2="1377" y1="152" y2="152"/>
<line clip-path="url(#clipPath1)" fill="none" x1="47" x2="1377" y1="96" y2="96"/>
<rect x="63" y="599" clip-path="url(#clipPath1)" fill="rgb(0,0,139)" width="5" height="5" stroke="none"/>
<line clip-path="url(#clipPath1)" fill="none" x1="65" x2="84" y1="601" y2="601" stroke-dasharray="none" stroke="rgb(0,0,139)"/>
<rect x="82" y="599" clip-path="url(#clipPath1)" fill="rgb(0,0,139)" width="5" stroke-dasharray="none" height="5" stroke="none"/>
<line clip-path="url(#clipPath1)" fill="none" x1="84" x2="103" y1="601" y2="601" stroke-dasharray="none" stroke="rgb(0,0,139)"/>
<rect x="101" y="599" clip-path="url(#clipPath1)" fill="rgb(0,0,139)" width="5" stroke-dasharray="none" height="5" stroke="none"/>
<line clip-path="url(#clipPath1)" fill="none" x1="103" x2="122" y1="601" y2="601" stroke-dasharray="none" stroke="rgb(0,0,139)"/>
<rect x="120" y="599" clip-path="url(#clipPath1)" fill="rgb(0,0,139)" width="5" stroke-dasharray="none" height="5" stroke="none"/>
<line clip-path="url(#clipPath1)" fill="none" x1="122" x2="140" y1="601" y2="601" stroke-dasharray="none" stroke="rgb(0,0,139)"/>
<rect x="138" y="599" clip-path="url(#clipPath1)" fill="rgb(0,0,139)" width="5" stroke-dasharray="none" height="5" stroke="none"/>
<line clip-path="url(#clipPath1)" fill="none" x1="140" x2="159" y1="601" y2="601" stroke-dasharray="none" stroke="rgb(0,0,139)"/>
<rect x="157" y="599" clip-path="url(#clipPath1)" fill="rgb(0,0,139)" width="5" stroke-dasharray="none" height="5" stroke="none"/>
<line clip-path="url(#clipPath1)" fill="none" x1="159" x2="178" y1="601" y2="601" stroke-dasharray="none" stroke="rgb(0,0,139)"/>
<rect x="176" y="599" clip-path="url(#clipPath1)" fill="rgb(0,0,139)" width="5" stroke-dasharray="none" height="5" stroke="none"/>
<line clip-path="url(#clipPath1)" fill="none" x1="178" x2="197" y1="601" y2="601" stroke-dasharray="none" stroke="rgb(0,0,139)"/>
<rect x="195" y="599" clip-path="url(#clipPath1)" fill="rgb(0,0,139)" width="5" stroke-dasharray="none" height="5" stroke="none"/>
<line clip-path="url(#clipPath1)" fill="none" x1="197" x2="215" y1="601" y2="601" stroke-dasharray="none" stroke="rgb(0,0,139)"/>
<rect x="213" y="599" clip-path="url(#clipPath1)" fill="rgb(0,0,139)" width="5" stroke-dasharray="none" height="5" stroke="none"/>
<line clip-path="url(#clipPath1)" fill="none" x1="215" x2="234" y1="601" y2="601" stroke-dasharray="none" stroke="rgb(0,0,139)"/>
<rect x="232" y="599" clip-path="url(#clipPath1)" fill="rgb(0,0,139)" width="5" stroke-dasharray="none" height="5" stroke="none"/>
<line clip-path="url(#clipPath1)" fill="none" x1="234" x2="253" y1="601" y2="601" stroke-dasharray="none" stroke="rgb(0,0,139)"/>
<rect x="251" y="599" clip-path="url(#clipPath1)" fill="rgb(0,0,139)" width="5" stroke-dasharray="none" height="5" stroke="none"/>
<line clip-path="url(#clipPath1)" fill="none" x1="253" x2="272" y1="601" y2="601" stroke-dasharray="none" stroke="rgb(0,0,139)"/>
<rect x="270" y="599" clip-path="url(#clipPath1)" fill="rgb(0,0,139)" width="5" stroke-dasharray="none" height="5" stroke="none"/>
<line clip-path="url(#clipPath1)" fill="none" x1="272" x2="290" y1="601" y2="601" stroke-dasharray="none" stroke="rgb(0,0,139)"/>
<rect x="288" y="599" clip-path="url(#clipPath1)" fill="rgb(0,0,139)" width="5" stroke-dasharray="none" height="5" stroke="none"/>
<line clip-path="url(#clipPath1)" fill="none" x1="290" x2="309" y1="601" y2="601" stroke-dasharray="none" stroke="rgb(0,0,139)"/>
<rect x="307" y="599" clip-path="url(#clipPath1)" fill="rgb(0,0,139)" width="5" stroke-dasharray="none" height="5" stroke="none"/>
<line clip-path="url(#clipPath1)" fill="none" x1="309" x2="328" y1="601" y2="601" stroke-dasharray="none" stroke="rgb(0,0,139)"/>
<rect x="326" y="599" clip-path="url(#clipPath1)" fill="rgb(0,0,139)" width="5" stroke-dasharray="none" height="5" stroke="none"/>
<line clip-path="url(#clipPath1)" fill="none" x1="328" x2="347" y1="601" y2="601" stroke-dasharray="none" stroke="rgb(0,0,139)"/>
<rect x="345" y="599" clip-path="url(#clipPath1)" fill="rgb(0,0,139)" width="5" stroke-dasharray="none" height="5" stroke="none"/>
<line clip-path="url(#clipPath1)" fill="none" x1="347" x2="366" y1="601" y2="601" stroke-dasharray="none" stroke="rgb(0,0,139)"/>
<rect x="364" y="599" clip-path="url(#clipPath1)" fill="rgb(0,0,139)" width="5" stroke-dasharray="none" height="5" stroke="none"/>
<line clip-path="url(#clipPath1)" fill="none" x1="366" x2="384" y1="601" y2="601" stroke-dasharray="none" stroke="rgb(0,0,139)"/>
<rect x="382" y="599" clip-path="url(#clipPath1)" fill="rgb(0,0,139)" width="5" stroke-dasharray="none" height="5" stroke="none"/>
<line clip-path="url(#clipPath1)" fill="none" x1="384" x2="403" y1="601" y2="601" stroke-dasharray="none" stroke="rgb(0,0,139)"/>
<rect x="401" y="599" clip-path="url(#clipPath1)" fill="rgb(0,0,139)" width="5" stroke-dasharray="none" height="5" stroke="none"/>
<line clip-path="url(#clipPath1)" fill="none" x1="403" x2="422" y1="601" y2="601" stroke-dasharray="none" stroke="rgb(0,0,139)"/>
<rect x="420" y="599" clip-path="url(#clipPath1)" fill="rgb(0,0,139)" width="5" stroke-dasharray="none" height="5" stroke="none"/>
<line clip-path="url(#clipPath1)" fill="none" x1="422" x2="441" y1="601" y2="601" stroke-dasharray="none" stroke="rgb(0,0,139)"/>
<rect x="439" y="599" clip-path="url(#clipPath1)" fill="rgb(0,0,139)" width="5" stroke-dasharray="none" height="5" stroke="none"/>
<line clip-path="url(#clipPath1)" fill="none" x1="441" x2="459" y1="601" y2="601" stroke-dasharray="none" stroke="rgb(0,0,139)"/>
<rect x="457" y="599" clip-path="url(#clipPath1)" fill="rgb(0,0,139)" width="5" stroke-dasharray="none" height="5" stroke="none"/>
<line clip-path="url(#clipPath1)" fill="none" x1="459" x2="478" y1="601" y2="601" stroke-dasharray="none" stroke="rgb(0,0,139)"/>
<rect x="476" y="599" clip-path="url(#clipPath1)" fill="rgb(0,0,139)" width="5" stroke-dasharray="none" height="5" stroke="none"/>
<line clip-path="url(#clipPath1)" fill="none" x1="478" x2="497" y1="601" y2="601" stroke-dasharray="none" stroke="rgb(0,0,139)"/>
<rect x="495" y="599" clip-path="url(#clipPath1)" fill="rgb(0,0,139)" width="5" stroke-dasharray="none" height="5" stroke="none"/>
<line clip-path="url(#clipPath1)" fill="none" x1="497" x2="516" y1="601" y2="601" stroke-dasharray="none" stroke="rgb(0,0,139)"/>
<rect x="514" y="599" clip-path="url(#clipPath1)" fill="rgb(0,0,139)" width="5" stroke-dasharray="none" height="5" stroke="none"/>
<line clip-path="url(#clipPath1)" fill="none" x1="516" x2="534" y1="601" y2="601" stroke-dasharray="none" stroke="rgb(0,0,139)"/>
<rect x="532" y="599" clip-path="url(#clipPath1)" fill="rgb(0,0,139)" width="5" stroke-dasharray="none" height="5" stroke="none"/>
<line clip-path="url(#clipPath1)" fill="none" x1="534" x2="553" y1="601" y2="601" stroke-dasharray="none" stroke="rgb(0,0,139)"/>
<rect x="551" y="599" clip-path="url(#clipPath1)" fill="rgb(0,0,139)" width="5" stroke-dasharray="none" height="5" stroke="none"/>
<line clip-path="url(#clipPath1)" fill="none" x1="553" x2="572" y1="601" y2="601" stroke-dasharray="none" stroke="rgb(0,0,139)"/>
<rect x="570" y="599" clip-path="url(#clipPath1)" fill="rgb(0,0,139)" width="5" stroke-dasharray="none" height="5" stroke="none"/>
<line clip-path="url(#clipPath1)" fill="none" x1="572" x2="591" y1="601" y2="601" stroke-dasharray="none" stroke="rgb(0,0,139)"/>
<rect x="589" y="599" clip-path="url(#clipPath1)" fill="rgb(0,0,139)" width="5" stroke-dasharray="none" height="5" stroke="none"/>
<line clip-path="url(#clipPath1)" fill="none" x1="591" x2="609" y1="601" y2="601" stroke-dasharray="none" stroke="rgb(0,0,139)"/>
<rect x="607" y="599" clip-path="url(#clipPath1)" fill="rgb(0,0,139)" width="5" stroke-dasharray="none" height="5" stroke="none"/>
<line clip-path="url(#clipPath1)" fill="none" x1="609" x2="628" y1="601" y2="601" stroke-dasharray="none" stroke="rgb(0,0,139)"/>
<rect x="626" y="599" clip-path="url(#clipPath1)" fill="rgb(0,0,139)" width="5" stroke-dasharray="none" height="5" stroke="none"/>
<line clip-path="url(#clipPath1)" fill="none" x1="628" x2="647" y1="601" y2="601" stroke-dasharray="none" stroke="rgb(0,0,139)"/>
<rect x="645" y="599" clip-path="url(#clipPath1)" fill="rgb(0,0,139)" width="5" stroke-dasharray="none" height="5" stroke="none"/>
<line clip-path="url(#clipPath1)" fill="none" x1="647" x2="666" y1="601" y2="601" stroke-dasharray="none" stroke="rgb(0,0,139)"/>
<rect x="664" y="599" clip-path="url(#clipPath1)" fill="rgb(0,0,139)" width="5" stroke-dasharray="none" height="5" stroke="none"/>
<line clip-path="url(#clipPath1)" fill="none" x1="666" x2="685" y1="601" y2="601" stroke-dasharray="none" stroke="rgb(0,0,139)"/>
<rect x="683" y="599" clip-path="url(#clipPath1)" fill="rgb(0,0,139)" width="5" stroke-dasharray="none" height="5" stroke="none"/>
<line clip-path="url(#clipPath1)" fill="none" x1="685" x2="703" y1="601" y2="601" stroke-dasharray="none" stroke="rgb(0,0,139)"/>
<rect x="701" y="599" clip-path="url(#clipPath1)" fill="rgb(0,0,139)" width="5" stroke-dasharray="none" height="5" stroke="none"/>
<line clip-path="url(#clipPath1)" fill="none" x1="703" x2="722" y1="601" y2="601" stroke-dasharray="none" stroke="rgb(0,0,139)"/>
<rect x="720" y="599" clip-path="url(#clipPath1)" fill="rgb(0,0,139)" width="5" stroke-dasharray="none" height="5" stroke="none"/>
<line clip-path="url(#clipPath1)" fill="none" x1="722" x2="741" y1="601" y2="601" stroke-dasharray="none" stroke="rgb(0,0,139)"/>
<rect x="739" y="599" clip-path="url(#clipPath1)" fill="rgb(0,0,139)" width="5" stroke-dasharray="none" height="5" stroke="none"/>
<line clip-path="url(#clipPath1)" fill="none" x1="741" x2="760" y1="601" y2="601" stroke-dasharray="none" stroke="rgb(0,0,139)"/>
<rect x="758" y="599" clip-path="url(#clipPath1)" fill="rgb(0,0,139)" width="5" stroke-dasharray="none" height="5" stroke="none"/>
<line clip-path="url(#clipPath1)" fill="none" x1="760" x2="778" y1="601" y2="601" stroke-dasharray="none" stroke="rgb(0,0,139)"/>
<rect x="776" y="599" clip-path="url(#clipPath1)" fill="rgb(0,0,139)" width="5" stroke-dasharray="none" height="5" stroke="none"/>
<line clip-path="url(#clipPath1)" fill="none" x1="778" x2="797" y1="601" y2="601" stroke-dasharray="none" stroke="rgb(0,0,139)"/>
<rect x="795" y="599" clip-path="url(#clipPath1)" fill="rgb(0,0,139)" width="5" stroke-dasharray="none" height="5" stroke="none"/>
<line clip-path="url(#clipPath1)" fill="none" x1="797" x2="816" y1="601" y2="601" stroke-dasharray="none" stroke="rgb(0,0,139)"/>
<rect x="814" y="599" clip-path="url(#clipPath1)" fill="rgb(0,0,139)" width="5" stroke-dasharray="none" height="5" stroke="none"/>
<line clip-path="url(#clipPath1)" fill="none" x1="816" x2="835" y1="601" y2="601" stroke-dasharray="none" stroke="rgb(0,0,139)"/>
<rect x="833" y="599" clip-path="url(#clipPath1)" fill="rgb(0,0,139)" width="5" stroke-dasharray="none" height="5" stroke="none"/>
<line clip-path="url(#clipPath1)" fill="none" x1="835" x2="853" y1="601" y2="601" stroke-dasharray="none" stroke="rgb(0,0,139)"/>
<rect x="851" y="599" clip-path="url(#clipPath1)" fill="rgb(0,0,139)" width="5" stroke-dasharray="none" height="5" stroke="none"/>
<line clip-path="url(#clipPath1)" fill="none" x1="853" x2="872" y1="601" y2="601" stroke-dasharray="none" stroke="rgb(0,0,139)"/>
<rect x="870" y="599" clip-path="url(#clipPath1)" fill="rgb(0,0,139)" width="5" stroke-dasharray="none" height="5" stroke="none"/>
<line clip-path="url(#clipPath1)" fill="none" x1="872" x2="891" y1="601" y2="601" stroke-dasharray="none" stroke="rgb(0,0,139)"/>
<rect x="889" y="599" clip-path="url(#clipPath1)" fill="rgb(0,0,139)" width="5" stroke-dasharray="none" height="5" stroke="none"/>
<line clip-path="url(#clipPath1)" fill="none" x1="891" x2="910" y1="601" y2="601" stroke-dasharray="none" stroke="rgb(0,0,139)"/>
<rect x="908" y="599" clip-path="url(#clipPath1)" fill="rgb(0,0,139)" width="5" stroke-dasharray="none" height="5" stroke="none"/>
<line clip-path="url(#clipPath1)" fill="none" x1="910" x2="928" y1="601" y2="601" stroke-dasharray="none" stroke="rgb(0,0,139)"/>
<rect x="926" y="599" clip-path="url(#clipPath1)" fill="rgb(0,0,139)" width="5" stroke-dasharray="none" height="5" stroke="none"/>
<line clip-path="url(#clipPath1)" fill="none" x1="928" x2="947" y1="601" y2="601" stroke-dasharray="none" stroke="rgb(0,0,139)"/>
<rect x="945" y="599" clip-path="url(#clipPath1)" fill="rgb(0,0,139)" width="5" stroke-dasharray="none" height="5" stroke="none"/>
<line clip-path="url(#clipPath1)" fill="none" x1="947" x2="966" y1="601" y2="601" stroke-dasharray="none" stroke="rgb(0,0,139)"/>
<rect x="964" y="599" clip-path="url(#clipPath1)" fill="rgb(0,0,139)" width="5" stroke-dasharray="none" height="5" stroke="none"/>
<line clip-path="url(#clipPath1)" fill="none" x1="966" x2="985" y1="601" y2="601" stroke-dasharray="none" stroke="rgb(0,0,139)"/>
<rect x="983" y="599" clip-path="url(#clipPath1)" fill="rgb(0,0,139)" width="5" stroke-dasharray="none" height="5" stroke="none"/>
<line clip-path="url(#clipPath1)" fill="none" x1="985" x2="1004" y1="601" y2="601" stroke-dasharray="none" stroke="rgb(0,0,139)"/>
<rect x="1002" y="599" clip-path="url(#clipPath1)" fill="rgb(0,0,139)" width="5" stroke-dasharray="none" height="5" stroke="none"/>
<line clip-path="url(#clipPath1)" fill="none" x1="1004" x2="1022" y1="601" y2="601" stroke-dasharray="none" stroke="rgb(0,0,139)"/>
<rect x="1020" y="599" clip-path="url(#clipPath1)" fill="rgb(0,0,139)" width="5" stroke-dasharray="none" height="5" stroke="none"/>
<line clip-path="url(#clipPath1)" fill="none" x1="1022" x2="1041" y1="601" y2="601" stroke-dasharray="none" stroke="rgb(0,0,139)"/>
<rect x="1039" y="599" clip-path="url(#clipPath1)" fill="rgb(0,0,139)" width="5" stroke-dasharray="none" height="5" stroke="none"/>
<line clip-path="url(#clipPath1)" fill="none" x1="1041" x2="1060" y1="601" y2="601" stroke-dasharray="none" stroke="rgb(0,0,139)"/>
<rect x="1058" y="599" clip-path="url(#clipPath1)" fill="rgb(0,0,139)" width="5" stroke-dasharray="none" height="5" stroke="none"/>
<line clip-path="url(#clipPath1)" fill="none" x1="1060" x2="1079" y1="601" y2="601" stroke-dasharray="none" stroke="rgb(0,0,139)"/>
<rect x="1077" y="599" clip-path="url(#clipPath1)" fill="rgb(0,0,139)" width="5" stroke-dasharray="none" height="5" stroke="none"/>
<line clip-path="url(#clipPath1)" fill="none" x1="1079" x2="1097" y1="601" y2="601" stroke-dasharray="none" stroke="rgb(0,0,139)"/>
<rect x="1095" y="599" clip-path="url(#clipPath1)" fill="rgb(0,0,139)" width="5" stroke-dasharray="none" height="5" stroke="none"/>
<line clip-path="url(#clipPath1)" fill="none" x1="1097" x2="1116" y1="601" y2="601" stroke-dasharray="none" stroke="rgb(0,0,139)"/>
<rect x="1114" y="599" clip-path="url(#clipPath1)" fill="rgb(0,0,139)" width="5" stroke-dasharray="none" height="5" stroke="none"/>
<line clip-path="url(#clipPath1)" fill="none" x1="1116" x2="1135" y1="601" y2="601" stroke-dasharray="none" stroke="rgb(0,0,139)"/>
<rect x="1133" y="599" clip-path="url(#clipPath1)" fill="rgb(0,0,139)" width="5" stroke-dasharray="none" height="5" stroke="none"/>
<line clip-path="url(#clipPath1)" fill="none" x1="1135" x2="1154" y1="601" y2="601" stroke-dasharray="none" stroke="rgb(0,0,139)"/>
<rect x="1152" y="599" clip-path="url(#clipPath1)" fill="rgb(0,0,139)" width="5" stroke-dasharray="none" height="5" stroke="none"/>
<line clip-path="url(#clipPath1)" fill="none" x1="1154" x2="1172" y1="601" y2="601" stroke-dasharray="none" stroke="rgb(0,0,139)"/>
<rect x="1170" y="599" clip-path="url(#clipPath1)" fill="rgb(0,0,139)" width="5" stroke-dasharray="none" height="5" stroke="none"/>
<line clip-path="url(#clipPath1)" fill="none" x1="1172" x2="1191" y1="601" y2="601" stroke-dasharray="none" stroke="rgb(0,0,139)"/>
<rect x="1189" y="599" clip-path="url(#clipPath1)" fill="rgb(0,0,139)" width="5" stroke-dasharray="none" height="5" stroke="none"/>
<line clip-path="url(#clipPath1)" fill="none" x1="1191" x2="1210" y1="601" y2="601" stroke-dasharray="none" stroke="rgb(0,0,139)"/>
<rect x="1208" y="599" clip-path="url(#clipPath1)" fill="rgb(0,0,139)" width="5" stroke-dasharray="none" height="5" stroke="none"/>
<line clip-path="url(#clipPath1)" fill="none" x1="1210" x2="1229" y1="601" y2="601" stroke-dasharray="none" stroke="rgb(0,0,139)"/>
<rect x="1227" y="599" clip-path="url(#clipPath1)" fill="rgb(0,0,139)" width="5" stroke-dasharray="none" height="5" stroke="none"/>
<line clip-path="url(#clipPath1)" fill="none" x1="1229" x2="1247" y1="601" y2="601" stroke-dasharray="none" stroke="rgb(0,0,139)"/>
<rect x="1245" y="599" clip-path="url(#clipPath1)" fill="rgb(0,0,139)" width="5" stroke-dasharray="none" height="5" stroke="none"/>
<line clip-path="url(#clipPath1)" fill="none" x1="1247" x2="1266" y1="601" y2="601" stroke-dasharray="none" stroke="rgb(0,0,139)"/>
<rect x="1264" y="599" clip-path="url(#clipPath1)" fill="rgb(0,0,139)" width="5" stroke-dasharray="none" height="5" stroke="none"/>
<line clip-path="url(#clipPath1)" fill="none" x1="1266" x2="1285" y1="601" y2="601" stroke-dasharray="none" stroke="rgb(0,0,139)"/>
<rect x="1283" y="599" clip-path="url(#clipPath1)" fill="rgb(0,0,139)" width="5" stroke-dasharray="none" height="5" stroke="none"/>
<line clip-path="url(#clipPath1)" fill="none" x1="1285" x2="1304" y1="601" y2="601" stroke-dasharray="none" stroke="rgb(0,0,139)"/>
<rect x="1302" y="599" clip-path="url(#clipPath1)" fill="rgb(0,0,139)" width="5" stroke-dasharray="none" height="5" stroke="none"/>
<line clip-path="url(#clipPath1)" fill="none" x1="1304" x2="1323" y1="601" y2="601" stroke-dasharray="none" stroke="rgb(0,0,139)"/>
<rect x="1321" y="599" clip-path="url(#clipPath1)" fill="rgb(0,0,139)" width="5" stroke-dasharray="none" height="5" stroke="none"/>
<line clip-path="url(#clipPath1)" fill="none" x1="1323" x2="1341" y1="601" y2="601" stroke-dasharray="none" stroke="rgb(0,0,139)"/>
<rect x="1339" y="599" clip-path="url(#clipPath1)" fill="rgb(0,0,139)" width="5" stroke-dasharray="none" height="5" stroke="none"/>
<line clip-path="url(#clipPath1)" fill="none" x1="1341" x2="1360" y1="601" y2="601" stroke-dasharray="none" stroke="rgb(0,0,139)"/>
<rect x="1358" y="599" clip-path="url(#clipPath1)" fill="rgb(0,0,139)" width="5" stroke-dasharray="none" height="5" stroke="none"/>
<rect x="47" y="40" clip-path="url(#clipPath2)" fill="none" width="1330" stroke-dasharray="none" height="561" stroke="black"/>
</g>
<g text-rendering="geometricPrecision" font-size="13" font-family="'Arial'" stroke-linecap="butt">
<text xml:space="preserve" x="634" y="12" clip-path="url(#clipPath2)" stroke="none">Scheduler free channels</text>
<line clip-path="url(#clipPath2)" fill="none" x1="47" x2="1377" y1="38" y2="38"/>
<line clip-path="url(#clipPath2)" fill="none" x1="47" x2="1377" y1="603" y2="603"/>
<text xml:space="preserve" x="700" y="637" clip-path="url(#clipPath2)" stroke="none">time</text>
<line clip-path="url(#clipPath2)" fill="none" x1="47" x2="47" y1="34" y2="38"/>
<line clip-path="url(#clipPath2)" fill="none" x1="47" x2="47" y1="607" y2="603"/>
<text x="38" font-size="10" y="29" clip-path="url(#clipPath2)" stroke="none" xml:space="preserve">0.00</text>
<text x="38" font-size="10" y="618" clip-path="url(#clipPath2)" stroke="none" xml:space="preserve">0.00</text>
<line clip-path="url(#clipPath2)" fill="none" x1="65" x2="65" y1="36" y2="38"/>
<line clip-path="url(#clipPath2)" fill="none" x1="65" x2="65" y1="605" y2="603"/>
<line clip-path="url(#clipPath2)" fill="none" x1="84" x2="84" y1="36" y2="38"/>
<line clip-path="url(#clipPath2)" fill="none" x1="84" x2="84" y1="605" y2="603"/>
<line clip-path="url(#clipPath2)" fill="none" x1="103" x2="103" y1="36" y2="38"/>
<line clip-path="url(#clipPath2)" fill="none" x1="103" x2="103" y1="605" y2="603"/>
<line clip-path="url(#clipPath2)" fill="none" x1="122" x2="122" y1="36" y2="38"/>
<line clip-path="url(#clipPath2)" fill="none" x1="122" x2="122" y1="605" y2="603"/>
<line clip-path="url(#clipPath2)" fill="none" x1="140" x2="140" y1="34" y2="38"/>
<line clip-path="url(#clipPath2)" fill="none" x1="140" x2="140" y1="607" y2="603"/>
<text x="129" font-size="10" y="29" clip-path="url(#clipPath2)" stroke="none" xml:space="preserve">0.005</text>
<text x="129" font-size="10" y="618" clip-path="url(#clipPath2)" stroke="none" xml:space="preserve">0.005</text>
<line clip-path="url(#clipPath2)" fill="none" x1="159" x2="159" y1="36" y2="38"/>
<line clip-path="url(#clipPath2)" fill="none" x1="159" x2="159" y1="605" y2="603"/>
<line clip-path="url(#clipPath2)" fill="none" x1="178" x2="178" y1="36" y2="38"/>
<line clip-path="url(#clipPath2)" fill="none" x1="178" x2="178" y1="605" y2="603"/>
<line clip-path="url(#clipPath2)" fill="none" x1="197" x2="197" y1="36" y2="38"/>
<line clip-path="url(#clipPath2)" fill="none" x1="197" x2="197" y1="605" y2="603"/>
<line clip-path="url(#clipPath2)" fill="none" x1="215" x2="215" y1="36" y2="38"/>
<line clip-path="url(#clipPath2)" fill="none" x1="215" x2="215" y1="605" y2="603"/>
<line clip-path="url(#clipPath2)" fill="none" x1="234" x2="234" y1="34" y2="38"/>
<line clip-path="url(#clipPath2)" fill="none" x1="234" x2="234" y1="607" y2="603"/>
<text x="223" font-size="10" y="29" clip-path="url(#clipPath2)" stroke="none" xml:space="preserve">0.010</text>
<text x="223" font-size="10" y="618" clip-path="url(#clipPath2)" stroke="none" xml:space="preserve">0.010</text>
<line clip-path="url(#clipPath2)" fill="none" x1="253" x2="253" y1="36" y2="38"/>
<line clip-path="url(#clipPath2)" fill="none" x1="253" x2="253" y1="605" y2="603"/>
<line clip-path="url(#clipPath2)" fill="none" x1="272" x2="272" y1="36" y2="38"/>
<line clip-path="url(#clipPath2)" fill="none" x1="272" x2="272" y1="605" y2="603"/>
<line clip-path="url(#clipPath2)" fill="none" x1="290" x2="290" y1="36" y2="38"/>
<line clip-path="url(#clipPath2)" fill="none" x1="290" x2="290" y1="605" y2="603"/>
<line clip-path="url(#clipPath2)" fill="none" x1="309" x2="309" y1="36" y2="38"/>
<line clip-path="url(#clipPath2)" fill="none" x1="309" x2="309" y1="605" y2="603"/>
<line clip-path="url(#clipPath2)" fill="none" x1="328" x2="328" y1="34" y2="38"/>
<line clip-path="url(#clipPath2)" fill="none" x1="328" x2="328" y1="607" y2="603"/>
<text x="317" font-size="10" y="29" clip-path="url(#clipPath2)" stroke="none" xml:space="preserve">0.015</text>
<text x="317" font-size="10" y="618" clip-path="url(#clipPath2)" stroke="none" xml:space="preserve">0.015</text>
<line clip-path="url(#clipPath2)" fill="none" x1="347" x2="347" y1="36" y2="38"/>
<line clip-path="url(#clipPath2)" fill="none" x1="347" x2="347" y1="605" y2="603"/>
<line clip-path="url(#clipPath2)" fill="none" x1="366" x2="366" y1="36" y2="38"/>
<line clip-path="url(#clipPath2)" fill="none" x1="366" x2="366" y1="605" y2="603"/>
<line clip-path="url(#clipPath2)" fill="none" x1="384" x2="384" y1="36" y2="38"/>
<line clip-path="url(#clipPath2)" fill="none" x1="384" x2="384" y1="605" y2="603"/>
<line clip-path="url(#clipPath2)" fill="none" x1="403" x2="403" y1="36" y2="38"/>
<line clip-path="url(#clipPath2)" fill="none" x1="403" x2="403" y1="605" y2="603"/>
<line clip-path="url(#clipPath2)" fill="none" x1="422" x2="422" y1="34" y2="38"/>
<line clip-path="url(#clipPath2)" fill="none" x1="422" x2="422" y1="607" y2="603"/>
<text x="411" font-size="10" y="29" clip-path="url(#clipPath2)" stroke="none" xml:space="preserve">0.020</text>
<text x="411" font-size="10" y="618" clip-path="url(#clipPath2)" stroke="none" xml:space="preserve">0.020</text>
<line clip-path="url(#clipPath2)" fill="none" x1="441" x2="441" y1="36" y2="38"/>
<line clip-path="url(#clipPath2)" fill="none" x1="441" x2="441" y1="605" y2="603"/>
<line clip-path="url(#clipPath2)" fill="none" x1="459" x2="459" y1="36" y2="38"/>
<line clip-path="url(#clipPath2)" fill="none" x1="459" x2="459" y1="605" y2="603"/>
<line clip-path="url(#clipPath2)" fill="none" x1="478" x2="478" y1="36" y2="38"/>
<line clip-path="url(#clipPath2)" fill="none" x1="478" x2="478" y1="605" y2="603"/>
<line clip-path="url(#clipPath2)" fill="none" x1="497" x2="497" y1="36" y2="38"/>
<line clip-path="url(#clipPath2)" fill="none" x1="497" x2="497" y1="605" y2="603"/>
<line clip-path="url(#clipPath2)" fill="none" x1="516" x2="516" y1="34" y2="38"/>
<line clip-path="url(#clipPath2)" fill="none" x1="516" x2="516" y1="607" y2="603"/>
<text x="505" font-size="10" y="29" clip-path="url(#clipPath2)" stroke="none" xml:space="preserve">0.025</text>
<text x="505" font-size="10" y="618" clip-path="url(#clipPath2)" stroke="none" xml:space="preserve">0.025</text>
<line clip-path="url(#clipPath2)" fill="none" x1="534" x2="534" y1="36" y2="38"/>
<line clip-path="url(#clipPath2)" fill="none" x1="534" x2="534" y1="605" y2="603"/>
<line clip-path="url(#clipPath2)" fill="none" x1="553" x2="553" y1="36" y2="38"/>
<line clip-path="url(#clipPath2)" fill="none" x1="553" x2="553" y1="605" y2="603"/>
<line clip-path="url(#clipPath2)" fill="none" x1="572" x2="572" y1="36" y2="38"/>
<line clip-path="url(#clipPath2)" fill="none" x1="572" x2="572" y1="605" y2="603"/>
<line clip-path="url(#clipPath2)" fill="none" x1="591" x2="591" y1="36" y2="38"/>
<line clip-path="url(#clipPath2)" fill="none" x1="591" x2="591" y1="605" y2="603"/>
<line clip-path="url(#clipPath2)" fill="none" x1="609" x2="609" y1="34" y2="38"/>
<line clip-path="url(#clipPath2)" fill="none" x1="609" x2="609" y1="607" y2="603"/>
<text x="598" font-size="10" y="29" clip-path="url(#clipPath2)" stroke="none" xml:space="preserve">0.030</text>
<text x="598" font-size="10" y="618" clip-path="url(#clipPath2)" stroke="none" xml:space="preserve">0.030</text>
<line clip-path="url(#clipPath2)" fill="none" x1="628" x2="628" y1="36" y2="38"/>
<line clip-path="url(#clipPath2)" fill="none" x1="628" x2="628" y1="605" y2="603"/>
<line clip-path="url(#clipPath2)" fill="none" x1="647" x2="647" y1="36" y2="38"/>
<line clip-path="url(#clipPath2)" fill="none" x1="647" x2="647" y1="605" y2="603"/>
<line clip-path="url(#clipPath2)" fill="none" x1="666" x2="666" y1="36" y2="38"/>
<line clip-path="url(#clipPath2)" fill="none" x1="666" x2="666" y1="605" y2="603"/>
<line clip-path="url(#clipPath2)" fill="none" x1="685" x2="685" y1="36" y2="38"/>
<line clip-path="url(#clipPath2)" fill="none" x1="685" x2="685" y1="605" y2="603"/>
<line clip-path="url(#clipPath2)" fill="none" x1="703" x2="703" y1="34" y2="38"/>
<line clip-path="url(#clipPath2)" fill="none" x1="703" x2="703" y1="607" y2="603"/>
<text x="692" font-size="10" y="29" clip-path="url(#clipPath2)" stroke="none" xml:space="preserve">0.035</text>
<text x="692" font-size="10" y="618" clip-path="url(#clipPath2)" stroke="none" xml:space="preserve">0.035</text>
<line clip-path="url(#clipPath2)" fill="none" x1="722" x2="722" y1="36" y2="38"/>
<line clip-path="url(#clipPath2)" fill="none" x1="722" x2="722" y1="605" y2="603"/>
<line clip-path="url(#clipPath2)" fill="none" x1="741" x2="741" y1="36" y2="38"/>
<line clip-path="url(#clipPath2)" fill="none" x1="741" x2="741" y1="605" y2="603"/>
<line clip-path="url(#clipPath2)" fill="none" x1="760" x2="760" y1="36" y2="38"/>
<line clip-path="url(#clipPath2)" fill="none" x1="760" x2="760" y1="605" y2="603"/>
<line clip-path="url(#clipPath2)" fill="none" x1="778" x2="778" y1="36" y2="38"/>
<line clip-path="url(#clipPath2)" fill="none" x1="778" x2="778" y1="605" y2="603"/>
<line clip-path="url(#clipPath2)" fill="none" x1="797" x2="797" y1="34" y2="38"/>
<line clip-path="url(#clipPath2)" fill="none" x1="797" x2="797" y1="607" y2="603"/>
<text x="786" font-size="10" y="29" clip-path="url(#clipPath2)" stroke="none" xml:space="preserve">0.040</text>
<text x="786" font-size="10" y="618" clip-path="url(#clipPath2)" stroke="none" xml:space="preserve">0.040</text>
<line clip-path="url(#clipPath2)" fill="none" x1="816" x2="816" y1="36" y2="38"/>
<line clip-path="url(#clipPath2)" fill="none" x1="816" x2="816" y1="605" y2="603"/>
<line clip-path="url(#clipPath2)" fill="none" x1="835" x2="835" y1="36" y2="38"/>
<line clip-path="url(#clipPath2)" fill="none" x1="835" x2="835" y1="605" y2="603"/>
<line clip-path="url(#clipPath2)" fill="none" x1="853" x2="853" y1="36" y2="38"/>
<line clip-path="url(#clipPath2)" fill="none" x1="853" x2="853" y1="605" y2="603"/>
<line clip-path="url(#clipPath2)" fill="none" x1="872" x2="872" y1="36" y2="38"/>
<line clip-path="url(#clipPath2)" fill="none" x1="872" x2="872" y1="605" y2="603"/>
<line clip-path="url(#clipPath2)" fill="none" x1="891" x2="891" y1="34" y2="38"/>
<line clip-path="url(#clipPath2)" fill="none" x1="891" x2="891" y1="607" y2="603"/>
<text x="880" font-size="10" y="29" clip-path="url(#clipPath2)" stroke="none" xml:space="preserve">0.045</text>
<text x="880" font-size="10" y="618" clip-path="url(#clipPath2)" stroke="none" xml:space="preserve">0.045</text>
<line clip-path="url(#clipPath2)" fill="none" x1="910" x2="910" y1="36" y2="38"/>
<line clip-path="url(#clipPath2)" fill="none" x1="910" x2="910" y1="605" y2="603"/>
<line clip-path="url(#clipPath2)" fill="none" x1="928" x2="928" y1="36" y2="38"/>
<line clip-path="url(#clipPath2)" fill="none" x1="928" x2="928" y1="605" y2="603"/>
<line clip-path="url(#clipPath2)" fill="none" x1="947" x2="947" y1="36" y2="38"/>
<line clip-path="url(#clipPath2)" fill="none" x1="947" x2="947" y1="605" y2="603"/>
<line clip-path="url(#clipPath2)" fill="none" x1="966" x2="966" y1="36" y2="38"/>
<line clip-path="url(#clipPath2)" fill="none" x1="966" x2="966" y1="605" y2="603"/>
<line clip-path="url(#clipPath2)" fill="none" x1="985" x2="985" y1="34" y2="38"/>
<line clip-path="url(#clipPath2)" fill="none" x1="985" x2="985" y1="607" y2="603"/>
<text x="974" font-size="10" y="29" clip-path="url(#clipPath2)" stroke="none" xml:space="preserve">0.050</text>
<text x="974" font-size="10" y="618" clip-path="url(#clipPath2)" stroke="none" xml:space="preserve">0.050</text>
<line clip-path="url(#clipPath2)" fill="none" x1="1004" x2="1004" y1="36" y2="38"/>
<line clip-path="url(#clipPath2)" fill="none" x1="1004" x2="1004" y1="605" y2="603"/>
<line clip-path="url(#clipPath2)" fill="none" x1="1022" x2="1022" y1="36" y2="38"/>
<line clip-path="url(#clipPath2)" fill="none" x1="1022" x2="1022" y1="605" y2="603"/>
<line clip-path="url(#clipPath2)" fill="none" x1="1041" x2="1041" y1="36" y2="38"/>
<line clip-path="url(#clipPath2)" fill="none" x1="1041" x2="1041" y1="605" y2="603"/>
<line clip-path="url(#clipPath2)" fill="none" x1="1060" x2="1060" y1="36" y2="38"/>
<line clip-path="url(#clipPath2)" fill="none" x1="1060" x2="1060" y1="605" y2="603"/>
<line clip-path="url(#clipPath2)" fill="none" x1="1079" x2="1079" y1="34" y2="38"/>
<line clip-path="url(#clipPath2)" fill="none" x1="1079" x2="1079" y1="607" y2="603"/>
<text x="1068" font-size="10" y="29" clip-path="url(#clipPath2)" stroke="none" xml:space="preserve">0.055</text>
<text x="1068" font-size="10" y="618" clip-path="url(#clipPath2)" stroke="none" xml:space="preserve">0.055</text>
<line clip-path="url(#clipPath2)" fill="none" x1="1097" x2="1097" y1="36" y2="38"/>
<line clip-path="url(#clipPath2)" fill="none" x1="1097" x2="1097" y1="605" y2="603"/>
<line clip-path="url(#clipPath2)" fill="none" x1="1116" x2="1116" y1="36" y2="38"/>
<line clip-path="url(#clipPath2)" fill="none" x1="1116" x2="1116" y1="605" y2="603"/>
<line clip-path="url(#clipPath2)" fill="none" x1="1135" x2="1135" y1="36" y2="38"/>
<line clip-path="url(#clipPath2)" fill="none" x1="1135" x2="1135" y1="605" y2="603"/>
<line clip-path="url(#clipPath2)" fill="none" x1="1154" x2="1154" y1="36" y2="38"/>
<line clip-path="url(#clipPath2)" fill="none" x1="1154" x2="1154" y1="605" y2="603"/>
<line clip-path="url(#clipPath2)" fill="none" x1="1172" x2="1172" y1="34" y2="38"/>
<line clip-path="url(#clipPath2)" fill="none" x1="1172" x2="1172" y1="607" y2="603"/>
<text x="1161" font-size="10" y="29" clip-path="url(#clipPath2)" stroke="none" xml:space="preserve">0.060</text>
<text x="1161" font-size="10" y="618" clip-path="url(#clipPath2)" stroke="none" xml:space="preserve">0.060</text>
<line clip-path="url(#clipPath2)" fill="none" x1="1191" x2="1191" y1="36" y2="38"/>
<line clip-path="url(#clipPath2)" fill="none" x1="1191" x2="1191" y1="605" y2="603"/>
<line clip-path="url(#clipPath2)" fill="none" x1="1210" x2="1210" y1="36" y2="38"/>
<line clip-path="url(#clipPath2)" fill="none" x1="1210" x2="1210" y1="605" y2="603"/>
<line clip-path="url(#clipPath2)" fill="none" x1="1229" x2="1229" y1="36" y2="38"/>
<line clip-path="url(#clipPath2)" fill="none" x1="1229" x2="1229" y1="605" y2="603"/>
<line clip-path="url(#clipPath2)" fill="none" x1="1247" x2="1247" y1="36" y2="38"/>
<line clip-path="url(#clipPath2)" fill="none" x1="1247" x2="1247" y1="605" y2="603"/>
<line clip-path="url(#clipPath2)" fill="none" x1="1266" x2="1266" y1="34" y2="38"/>
<line clip-path="url(#clipPath2)" fill="none" x1="1266" x2="1266" y1="607" y2="603"/>
<text x="1255" font-size="10" y="29" clip-path="url(#clipPath2)" stroke="none" xml:space="preserve">0.065</text>
<text x="1255" font-size="10" y="618" clip-path="url(#clipPath2)" stroke="none" xml:space="preserve">0.065</text>
<line clip-path="url(#clipPath2)" fill="none" x1="1285" x2="1285" y1="36" y2="38"/>
<line clip-path="url(#clipPath2)" fill="none" x1="1285" x2="1285" y1="605" y2="603"/>
<line clip-path="url(#clipPath2)" fill="none" x1="1304" x2="1304" y1="36" y2="38"/>
<line clip-path="url(#clipPath2)" fill="none" x1="1304" x2="1304" y1="605" y2="603"/>
<line clip-path="url(#clipPath2)" fill="none" x1="1323" x2="1323" y1="36" y2="38"/>
<line clip-path="url(#clipPath2)" fill="none" x1="1323" x2="1323" y1="605" y2="603"/>
<line clip-path="url(#clipPath2)" fill="none" x1="1341" x2="1341" y1="36" y2="38"/>
<line clip-path="url(#clipPath2)" fill="none" x1="1341" x2="1341" y1="605" y2="603"/>
<line clip-path="url(#clipPath2)" fill="none" x1="1360" x2="1360" y1="34" y2="38"/>
<line clip-path="url(#clipPath2)" fill="none" x1="1360" x2="1360" y1="607" y2="603"/>
<text x="1349" font-size="10" y="29" clip-path="url(#clipPath2)" stroke="none" xml:space="preserve">0.070</text>
<text x="1349" font-size="10" y="618" clip-path="url(#clipPath2)" stroke="none" xml:space="preserve">0.070</text>
<line clip-path="url(#clipPath2)" fill="none" x1="45" x2="45" y1="40" y2="601"/>
<line clip-path="url(#clipPath2)" fill="none" x1="1379" x2="1379" y1="40" y2="601"/>
<line clip-path="url(#clipPath2)" fill="none" x1="41" x2="45" y1="601" y2="601"/>
<line clip-path="url(#clipPath2)" fill="none" x1="1383" x2="1379" y1="601" y2="601"/>
<text x="25" font-size="10" y="604" clip-path="url(#clipPath2)" stroke="none" xml:space="preserve">0.0</text>
<text x="1386" font-size="10" y="604" clip-path="url(#clipPath2)" stroke="none" xml:space="preserve">0.0</text>
<line clip-path="url(#clipPath2)" fill="none" x1="43" x2="45" y1="589" y2="589"/>
<line clip-path="url(#clipPath2)" fill="none" x1="1381" x2="1379" y1="589" y2="589"/>
<line clip-path="url(#clipPath2)" fill="none" x1="43" x2="45" y1="578" y2="578"/>
<line clip-path="url(#clipPath2)" fill="none" x1="1381" x2="1379" y1="578" y2="578"/>
<line clip-path="url(#clipPath2)" fill="none" x1="43" x2="45" y1="567" y2="567"/>
<line clip-path="url(#clipPath2)" fill="none" x1="1381" x2="1379" y1="567" y2="567"/>
<line clip-path="url(#clipPath2)" fill="none" x1="43" x2="45" y1="556" y2="556"/>
<line clip-path="url(#clipPath2)" fill="none" x1="1381" x2="1379" y1="556" y2="556"/>
<line clip-path="url(#clipPath2)" fill="none" x1="41" x2="45" y1="544" y2="544"/>
<line clip-path="url(#clipPath2)" fill="none" x1="1383" x2="1379" y1="544" y2="544"/>
<text x="20" font-size="10" y="547" clip-path="url(#clipPath2)" stroke="none" xml:space="preserve">0.10</text>
<text x="1386" font-size="10" y="547" clip-path="url(#clipPath2)" stroke="none" xml:space="preserve">0.10</text>
<line clip-path="url(#clipPath2)" fill="none" x1="43" x2="45" y1="533" y2="533"/>
<line clip-path="url(#clipPath2)" fill="none" x1="1381" x2="1379" y1="533" y2="533"/>
<line clip-path="url(#clipPath2)" fill="none" x1="43" x2="45" y1="522" y2="522"/>
<line clip-path="url(#clipPath2)" fill="none" x1="1381" x2="1379" y1="522" y2="522"/>
<line clip-path="url(#clipPath2)" fill="none" x1="43" x2="45" y1="511" y2="511"/>
<line clip-path="url(#clipPath2)" fill="none" x1="1381" x2="1379" y1="511" y2="511"/>
<line clip-path="url(#clipPath2)" fill="none" x1="43" x2="45" y1="500" y2="500"/>
<line clip-path="url(#clipPath2)" fill="none" x1="1381" x2="1379" y1="500" y2="500"/>
<line clip-path="url(#clipPath2)" fill="none" x1="41" x2="45" y1="488" y2="488"/>
<line clip-path="url(#clipPath2)" fill="none" x1="1383" x2="1379" y1="488" y2="488"/>
<text x="20" font-size="10" y="491" clip-path="url(#clipPath2)" stroke="none" xml:space="preserve">0.20</text>
<text x="1386" font-size="10" y="491" clip-path="url(#clipPath2)" stroke="none" xml:space="preserve">0.20</text>
<line clip-path="url(#clipPath2)" fill="none" x1="43" x2="45" y1="477" y2="477"/>
<line clip-path="url(#clipPath2)" fill="none" x1="1381" x2="1379" y1="477" y2="477"/>
<line clip-path="url(#clipPath2)" fill="none" x1="43" x2="45" y1="466" y2="466"/>
<line clip-path="url(#clipPath2)" fill="none" x1="1381" x2="1379" y1="466" y2="466"/>
<line clip-path="url(#clipPath2)" fill="none" x1="43" x2="45" y1="455" y2="455"/>
<line clip-path="url(#clipPath2)" fill="none" x1="1381" x2="1379" y1="455" y2="455"/>
<line clip-path="url(#clipPath2)" fill="none" x1="43" x2="45" y1="443" y2="443"/>
<line clip-path="url(#clipPath2)" fill="none" x1="1381" x2="1379" y1="443" y2="443"/>
<line clip-path="url(#clipPath2)" fill="none" x1="41" x2="45" y1="432" y2="432"/>
<line clip-path="url(#clipPath2)" fill="none" x1="1383" x2="1379" y1="432" y2="432"/>
<text x="20" font-size="10" y="435" clip-path="url(#clipPath2)" stroke="none" xml:space="preserve">0.30</text>
<text x="1386" font-size="10" y="435" clip-path="url(#clipPath2)" stroke="none" xml:space="preserve">0.30</text>
<line clip-path="url(#clipPath2)" fill="none" x1="43" x2="45" y1="421" y2="421"/>
<line clip-path="url(#clipPath2)" fill="none" x1="1381" x2="1379" y1="421" y2="421"/>
<line clip-path="url(#clipPath2)" fill="none" x1="43" x2="45" y1="410" y2="410"/>
<line clip-path="url(#clipPath2)" fill="none" x1="1381" x2="1379" y1="410" y2="410"/>
<line clip-path="url(#clipPath2)" fill="none" x1="43" x2="45" y1="399" y2="399"/>
<line clip-path="url(#clipPath2)" fill="none" x1="1381" x2="1379" y1="399" y2="399"/>
<line clip-path="url(#clipPath2)" fill="none" x1="43" x2="45" y1="387" y2="387"/>
<line clip-path="url(#clipPath2)" fill="none" x1="1381" x2="1379" y1="387" y2="387"/>
<line clip-path="url(#clipPath2)" fill="none" x1="41" x2="45" y1="376" y2="376"/>
<line clip-path="url(#clipPath2)" fill="none" x1="1383" x2="1379" y1="376" y2="376"/>
<text x="20" font-size="10" y="379" clip-path="url(#clipPath2)" stroke="none" xml:space="preserve">0.40</text>
<text x="1386" font-size="10" y="379" clip-path="url(#clipPath2)" stroke="none" xml:space="preserve">0.40</text>
<line clip-path="url(#clipPath2)" fill="none" x1="43" x2="45" y1="365" y2="365"/>
<line clip-path="url(#clipPath2)" fill="none" x1="1381" x2="1379" y1="365" y2="365"/>
<line clip-path="url(#clipPath2)" fill="none" x1="43" x2="45" y1="354" y2="354"/>
<line clip-path="url(#clipPath2)" fill="none" x1="1381" x2="1379" y1="354" y2="354"/>
<line clip-path="url(#clipPath2)" fill="none" x1="43" x2="45" y1="342" y2="342"/>
<line clip-path="url(#clipPath2)" fill="none" x1="1381" x2="1379" y1="342" y2="342"/>
<line clip-path="url(#clipPath2)" fill="none" x1="43" x2="45" y1="331" y2="331"/>
<line clip-path="url(#clipPath2)" fill="none" x1="1381" x2="1379" y1="331" y2="331"/>
<line clip-path="url(#clipPath2)" fill="none" x1="41" x2="45" y1="320" y2="320"/>
<line clip-path="url(#clipPath2)" fill="none" x1="1383" x2="1379" y1="320" y2="320"/>
<text x="20" font-size="10" y="323" clip-path="url(#clipPath2)" stroke="none" xml:space="preserve">0.50</text>
<text x="1386" font-size="10" y="323" clip-path="url(#clipPath2)" stroke="none" xml:space="preserve">0.50</text>
<line clip-path="url(#clipPath2)" fill="none" x1="43" x2="45" y1="309" y2="309"/>
<line clip-path="url(#clipPath2)" fill="none" x1="1381" x2="1379" y1="309" y2="309"/>
<line clip-path="url(#clipPath2)" fill="none" x1="43" x2="45" y1="298" y2="298"/>
<line clip-path="url(#clipPath2)" fill="none" x1="1381" x2="1379" y1="298" y2="298"/>
<line clip-path="url(#clipPath2)" fill="none" x1="43" x2="45" y1="286" y2="286"/>
<line clip-path="url(#clipPath2)" fill="none" x1="1381" x2="1379" y1="286" y2="286"/>
<line clip-path="url(#clipPath2)" fill="none" x1="43" x2="45" y1="275" y2="275"/>
<line clip-path="url(#clipPath2)" fill="none" x1="1381" x2="1379" y1="275" y2="275"/>
<line clip-path="url(#clipPath2)" fill="none" x1="41" x2="45" y1="264" y2="264"/>
<line clip-path="url(#clipPath2)" fill="none" x1="1383" x2="1379" y1="264" y2="264"/>
<text x="20" font-size="10" y="267" clip-path="url(#clipPath2)" stroke="none" xml:space="preserve">0.60</text>
<text x="1386" font-size="10" y="267" clip-path="url(#clipPath2)" stroke="none" xml:space="preserve">0.60</text>
<line clip-path="url(#clipPath2)" fill="none" x1="43" x2="45" y1="253" y2="253"/>
<line clip-path="url(#clipPath2)" fill="none" x1="1381" x2="1379" y1="253" y2="253"/>
<line clip-path="url(#clipPath2)" fill="none" x1="43" x2="45" y1="241" y2="241"/>
<line clip-path="url(#clipPath2)" fill="none" x1="1381" x2="1379" y1="241" y2="241"/>
<line clip-path="url(#clipPath2)" fill="none" x1="43" x2="45" y1="230" y2="230"/>
<line clip-path="url(#clipPath2)" fill="none" x1="1381" x2="1379" y1="230" y2="230"/>
<line clip-path="url(#clipPath2)" fill="none" x1="43" x2="45" y1="219" y2="219"/>
<line clip-path="url(#clipPath2)" fill="none" x1="1381" x2="1379" y1="219" y2="219"/>
<line clip-path="url(#clipPath2)" fill="none" x1="41" x2="45" y1="208" y2="208"/>
<line clip-path="url(#clipPath2)" fill="none" x1="1383" x2="1379" y1="208" y2="208"/>
<text x="20" font-size="10" y="211" clip-path="url(#clipPath2)" stroke="none" xml:space="preserve">0.70</text>
<text x="1386" font-size="10" y="211" clip-path="url(#clipPath2)" stroke="none" xml:space="preserve">0.70</text>
<line clip-path="url(#clipPath2)" fill="none" x1="43" x2="45" y1="197" y2="197"/>
<line clip-path="url(#clipPath2)" fill="none" x1="1381" x2="1379" y1="197" y2="197"/>
<line clip-path="url(#clipPath2)" fill="none" x1="43" x2="45" y1="185" y2="185"/>
<line clip-path="url(#clipPath2)" fill="none" x1="1381" x2="1379" y1="185" y2="185"/>
<line clip-path="url(#clipPath2)" fill="none" x1="43" x2="45" y1="174" y2="174"/>
<line clip-path="url(#clipPath2)" fill="none" x1="1381" x2="1379" y1="174" y2="174"/>
<line clip-path="url(#clipPath2)" fill="none" x1="43" x2="45" y1="163" y2="163"/>
<line clip-path="url(#clipPath2)" fill="none" x1="1381" x2="1379" y1="163" y2="163"/>
<line clip-path="url(#clipPath2)" fill="none" x1="41" x2="45" y1="152" y2="152"/>
<line clip-path="url(#clipPath2)" fill="none" x1="1383" x2="1379" y1="152" y2="152"/>
<text x="20" font-size="10" y="155" clip-path="url(#clipPath2)" stroke="none" xml:space="preserve">0.80</text>
<text x="1386" font-size="10" y="155" clip-path="url(#clipPath2)" stroke="none" xml:space="preserve">0.80</text>
<line clip-path="url(#clipPath2)" fill="none" x1="43" x2="45" y1="140" y2="140"/>
<line clip-path="url(#clipPath2)" fill="none" x1="1381" x2="1379" y1="140" y2="140"/>
<line clip-path="url(#clipPath2)" fill="none" x1="43" x2="45" y1="129" y2="129"/>
<line clip-path="url(#clipPath2)" fill="none" x1="1381" x2="1379" y1="129" y2="129"/>
<line clip-path="url(#clipPath2)" fill="none" x1="43" x2="45" y1="118" y2="118"/>
<line clip-path="url(#clipPath2)" fill="none" x1="1381" x2="1379" y1="118" y2="118"/>
<line clip-path="url(#clipPath2)" fill="none" x1="43" x2="45" y1="107" y2="107"/>
<line clip-path="url(#clipPath2)" fill="none" x1="1381" x2="1379" y1="107" y2="107"/>
<line clip-path="url(#clipPath2)" fill="none" x1="41" x2="45" y1="96" y2="96"/>
<line clip-path="url(#clipPath2)" fill="none" x1="1383" x2="1379" y1="96" y2="96"/>
<text x="20" font-size="10" y="99" clip-path="url(#clipPath2)" stroke="none" xml:space="preserve">0.90</text>
<text x="1386" font-size="10" y="99" clip-path="url(#clipPath2)" stroke="none" xml:space="preserve">0.90</text>
<line clip-path="url(#clipPath2)" fill="none" x1="43" x2="45" y1="84" y2="84"/>
<line clip-path="url(#clipPath2)" fill="none" x1="1381" x2="1379" y1="84" y2="84"/>
<line clip-path="url(#clipPath2)" fill="none" x1="43" x2="45" y1="73" y2="73"/>
<line clip-path="url(#clipPath2)" fill="none" x1="1381" x2="1379" y1="73" y2="73"/>
<line clip-path="url(#clipPath2)" fill="none" x1="43" x2="45" y1="62" y2="62"/>
<line clip-path="url(#clipPath2)" fill="none" x1="1381" x2="1379" y1="62" y2="62"/>
<line clip-path="url(#clipPath2)" fill="none" x1="43" x2="45" y1="51" y2="51"/>
<line clip-path="url(#clipPath2)" fill="none" x1="1381" x2="1379" y1="51" y2="51"/>
</g>
</g>
</svg>
