<?xml version="1.0" encoding="UTF-8"?><svg xmlns="http://www.w3.org/2000/svg" xmlns:xlink="http://www.w3.org/1999/xlink" stroke-dasharray="none" shape-rendering="auto" font-family="'Dialog'" width="1408" text-rendering="auto" fill-opacity="1" contentScriptType="text/ecmascript" color-interpolation="auto" color-rendering="auto" preserveAspectRatio="xMidYMid meet" font-size="12" fill="black" stroke="black" image-rendering="auto" stroke-miterlimit="10" zoomAndPan="magnify" version="1.0" stroke-linecap="square" stroke-linejoin="miter" contentStyleType="text/css" font-style="normal" height="641" stroke-width="1" stroke-dashoffset="0" font-weight="normal" stroke-opacity="1">
<!--Generated by the Batik Graphics2D SVG Generator-->
<defs id="genericDefs"/>
<g>
<defs id="defs1">
<clipPath clipPathUnits="userSpaceOnUse" id="clipPath1">
<path d="M25 23 L1383 23 L1383 618 L25 618 L25 23 Z"/>
</clipPath>
<clipPath clipPathUnits="userSpaceOnUse" id="clipPath2">
<path d="M-1 -1 L1409 -1 L1409 642 L-1 642 L-1 -1 Z"/>
</clipPath>
</defs>
<g fill="white" text-rendering="geometricPrecision" font-family="'Segoe UI'" stroke-linejoin="round" stroke="white" stroke-width="0" stroke-miterlimit="0">
<rect x="26" y="24" clip-path="url(#clipPath1)" width="1356" height="593" stroke="none"/>
</g>
<g stroke-linecap="butt" fill="rgb(204,204,204)" text-rendering="geometricPrecision" font-family="'Segoe UI'" stroke-dasharray="3,3" stroke="rgb(204,204,204)">
<line clip-path="url(#clipPath1)" fill="none" x1="26" x2="26" y1="24" y2="617"/>
<line clip-path="url(#clipPath1)" fill="none" x1="107" x2="107" y1="24" y2="617"/>
<line clip-path="url(#clipPath1)" fill="none" x1="189" x2="189" y1="24" y2="617"/>
<line clip-path="url(#clipPath1)" fill="none" x1="270" x2="270" y1="24" y2="617"/>
<line clip-path="url(#clipPath1)" fill="none" x1="352" x2="352" y1="24" y2="617"/>
<line clip-path="url(#clipPath1)" fill="none" x1="434" x2="434" y1="24" y2="617"/>
<line clip-path="url(#clipPath1)" fill="none" x1="515" x2="515" y1="24" y2="617"/>
<line clip-path="url(#clipPath1)" fill="none" x1="597" x2="597" y1="24" y2="617"/>
<line clip-path="url(#clipPath1)" fill="none" x1="679" x2="679" y1="24" y2="617"/>
<line clip-path="url(#clipPath1)" fill="none" x1="760" x2="760" y1="24" y2="617"/>
<line clip-path="url(#clipPath1)" fill="none" x1="842" x2="842" y1="24" y2="617"/>
<line clip-path="url(#clipPath1)" fill="none" x1="924" x2="924" y1="24" y2="617"/>
<line clip-path="url(#clipPath1)" fill="none" x1="1005" x2="1005" y1="24" y2="617"/>
<line clip-path="url(#clipPath1)" fill="none" x1="1087" x2="1087" y1="24" y2="617"/>
<line clip-path="url(#clipPath1)" fill="none" x1="1169" x2="1169" y1="24" y2="617"/>
<line clip-path="url(#clipPath1)" fill="none" x1="1250" x2="1250" y1="24" y2="617"/>
<line clip-path="url(#clipPath1)" fill="none" x1="1332" x2="1332" y1="24" y2="617"/>
<line clip-path="url(#clipPath1)" fill="none" x1="26" x2="1382" y1="617" y2="617"/>
<line clip-path="url(#clipPath1)" fill="none" x1="26" x2="1382" y1="518" y2="518"/>
<line clip-path="url(#clipPath1)" fill="none" x1="26" x2="1382" y1="419" y2="419"/>
<line clip-path="url(#clipPath1)" fill="none" x1="26" x2="1382" y1="320" y2="320"/>
<line clip-path="url(#clipPath1)" fill="none" x1="26" x2="1382" y1="221" y2="221"/>
<line clip-path="url(#clipPath1)" fill="none" x1="26" x2="1382" y1="122" y2="122"/>
<line clip-path="url(#clipPath1)" fill="none" x1="26" x2="1382" y1="24" y2="24"/>
<rect x="40" y="170" clip-path="url(#clipPath1)" fill="rgb(0,0,139)" width="5" height="5" stroke="none"/>
<line clip-path="url(#clipPath1)" fill="none" x1="42" x2="58" y1="172" y2="617" stroke-dasharray="none" stroke="rgb(0,0,139)"/>
<rect x="56" y="615" clip-path="url(#clipPath1)" fill="rgb(0,0,139)" width="5" stroke-dasharray="none" height="5" stroke="none"/>
<line clip-path="url(#clipPath1)" fill="none" x1="58" x2="74" y1="617" y2="617" stroke-dasharray="none" stroke="rgb(0,0,139)"/>
<rect x="72" y="615" clip-path="url(#clipPath1)" fill="rgb(0,0,139)" width="5" stroke-dasharray="none" height="5" stroke="none"/>
<line clip-path="url(#clipPath1)" fill="none" x1="74" x2="91" y1="617" y2="617" stroke-dasharray="none" stroke="rgb(0,0,139)"/>
<rect x="89" y="615" clip-path="url(#clipPath1)" fill="rgb(0,0,139)" width="5" stroke-dasharray="none" height="5" stroke="none"/>
<line clip-path="url(#clipPath1)" fill="none" x1="91" x2="107" y1="617" y2="617" stroke-dasharray="none" stroke="rgb(0,0,139)"/>
<rect x="105" y="615" clip-path="url(#clipPath1)" fill="rgb(0,0,139)" width="5" stroke-dasharray="none" height="5" stroke="none"/>
<line clip-path="url(#clipPath1)" fill="none" x1="107" x2="123" y1="617" y2="617" stroke-dasharray="none" stroke="rgb(0,0,139)"/>
<rect x="121" y="615" clip-path="url(#clipPath1)" fill="rgb(0,0,139)" width="5" stroke-dasharray="none" height="5" stroke="none"/>
<line clip-path="url(#clipPath1)" fill="none" x1="123" x2="140" y1="617" y2="617" stroke-dasharray="none" stroke="rgb(0,0,139)"/>
<rect x="138" y="615" clip-path="url(#clipPath1)" fill="rgb(0,0,139)" width="5" stroke-dasharray="none" height="5" stroke="none"/>
<line clip-path="url(#clipPath1)" fill="none" x1="140" x2="156" y1="617" y2="468" stroke-dasharray="none" stroke="rgb(0,0,139)"/>
<rect x="154" y="466" clip-path="url(#clipPath1)" fill="rgb(0,0,139)" width="5" stroke-dasharray="none" height="5" stroke="none"/>
<line clip-path="url(#clipPath1)" fill="none" x1="156" x2="172" y1="468" y2="617" stroke-dasharray="none" stroke="rgb(0,0,139)"/>
<rect x="170" y="615" clip-path="url(#clipPath1)" fill="rgb(0,0,139)" width="5" stroke-dasharray="none" height="5" stroke="none"/>
<line clip-path="url(#clipPath1)" fill="none" x1="172" x2="189" y1="617" y2="617" stroke-dasharray="none" stroke="rgb(0,0,139)"/>
<rect x="187" y="615" clip-path="url(#clipPath1)" fill="rgb(0,0,139)" width="5" stroke-dasharray="none" height="5" stroke="none"/>
<line clip-path="url(#clipPath1)" fill="none" x1="189" x2="205" y1="617" y2="617" stroke-dasharray="none" stroke="rgb(0,0,139)"/>
<rect x="203" y="615" clip-path="url(#clipPath1)" fill="rgb(0,0,139)" width="5" stroke-dasharray="none" height="5" stroke="none"/>
<line clip-path="url(#clipPath1)" fill="none" x1="205" x2="221" y1="617" y2="617" stroke-dasharray="none" stroke="rgb(0,0,139)"/>
<rect x="219" y="615" clip-path="url(#clipPath1)" fill="rgb(0,0,139)" width="5" stroke-dasharray="none" height="5" stroke="none"/>
<line clip-path="url(#clipPath1)" fill="none" x1="221" x2="238" y1="617" y2="617" stroke-dasharray="none" stroke="rgb(0,0,139)"/>
<rect x="236" y="615" clip-path="url(#clipPath1)" fill="rgb(0,0,139)" width="5" stroke-dasharray="none" height="5" stroke="none"/>
<line clip-path="url(#clipPath1)" fill="none" x1="238" x2="254" y1="617" y2="567" stroke-dasharray="none" stroke="rgb(0,0,139)"/>
<rect x="252" y="565" clip-path="url(#clipPath1)" fill="rgb(0,0,139)" width="5" stroke-dasharray="none" height="5" stroke="none"/>
<line clip-path="url(#clipPath1)" fill="none" x1="254" x2="270" y1="567" y2="567" stroke-dasharray="none" stroke="rgb(0,0,139)"/>
<rect x="268" y="565" clip-path="url(#clipPath1)" fill="rgb(0,0,139)" width="5" stroke-dasharray="none" height="5" stroke="none"/>
<line clip-path="url(#clipPath1)" fill="none" x1="270" x2="287" y1="567" y2="518" stroke-dasharray="none" stroke="rgb(0,0,139)"/>
<rect x="285" y="516" clip-path="url(#clipPath1)" fill="rgb(0,0,139)" width="5" stroke-dasharray="none" height="5" stroke="none"/>
<line clip-path="url(#clipPath1)" fill="none" x1="287" x2="303" y1="518" y2="617" stroke-dasharray="none" stroke="rgb(0,0,139)"/>
<rect x="301" y="615" clip-path="url(#clipPath1)" fill="rgb(0,0,139)" width="5" stroke-dasharray="none" height="5" stroke="none"/>
<line clip-path="url(#clipPath1)" fill="none" x1="303" x2="319" y1="617" y2="617" stroke-dasharray="none" stroke="rgb(0,0,139)"/>
<rect x="317" y="615" clip-path="url(#clipPath1)" fill="rgb(0,0,139)" width="5" stroke-dasharray="none" height="5" stroke="none"/>
<line clip-path="url(#clipPath1)" fill="none" x1="319" x2="336" y1="617" y2="617" stroke-dasharray="none" stroke="rgb(0,0,139)"/>
<rect x="334" y="615" clip-path="url(#clipPath1)" fill="rgb(0,0,139)" width="5" stroke-dasharray="none" height="5" stroke="none"/>
<line clip-path="url(#clipPath1)" fill="none" x1="336" x2="352" y1="617" y2="617" stroke-dasharray="none" stroke="rgb(0,0,139)"/>
<rect x="350" y="615" clip-path="url(#clipPath1)" fill="rgb(0,0,139)" width="5" stroke-dasharray="none" height="5" stroke="none"/>
<line clip-path="url(#clipPath1)" fill="none" x1="352" x2="368" y1="617" y2="617" stroke-dasharray="none" stroke="rgb(0,0,139)"/>
<rect x="366" y="615" clip-path="url(#clipPath1)" fill="rgb(0,0,139)" width="5" stroke-dasharray="none" height="5" stroke="none"/>
<line clip-path="url(#clipPath1)" fill="none" x1="368" x2="385" y1="617" y2="617" stroke-dasharray="none" stroke="rgb(0,0,139)"/>
<rect x="383" y="615" clip-path="url(#clipPath1)" fill="rgb(0,0,139)" width="5" stroke-dasharray="none" height="5" stroke="none"/>
<line clip-path="url(#clipPath1)" fill="none" x1="385" x2="401" y1="617" y2="567" stroke-dasharray="none" stroke="rgb(0,0,139)"/>
<rect x="399" y="565" clip-path="url(#clipPath1)" fill="rgb(0,0,139)" width="5" stroke-dasharray="none" height="5" stroke="none"/>
<line clip-path="url(#clipPath1)" fill="none" x1="401" x2="417" y1="567" y2="518" stroke-dasharray="none" stroke="rgb(0,0,139)"/>
<rect x="415" y="516" clip-path="url(#clipPath1)" fill="rgb(0,0,139)" width="5" stroke-dasharray="none" height="5" stroke="none"/>
<line clip-path="url(#clipPath1)" fill="none" x1="417" x2="434" y1="518" y2="617" stroke-dasharray="none" stroke="rgb(0,0,139)"/>
<rect x="432" y="615" clip-path="url(#clipPath1)" fill="rgb(0,0,139)" width="5" stroke-dasharray="none" height="5" stroke="none"/>
<line clip-path="url(#clipPath1)" fill="none" x1="434" x2="450" y1="617" y2="567" stroke-dasharray="none" stroke="rgb(0,0,139)"/>
<rect x="448" y="565" clip-path="url(#clipPath1)" fill="rgb(0,0,139)" width="5" stroke-dasharray="none" height="5" stroke="none"/>
<line clip-path="url(#clipPath1)" fill="none" x1="450" x2="466" y1="567" y2="617" stroke-dasharray="none" stroke="rgb(0,0,139)"/>
<rect x="464" y="615" clip-path="url(#clipPath1)" fill="rgb(0,0,139)" width="5" stroke-dasharray="none" height="5" stroke="none"/>
<line clip-path="url(#clipPath1)" fill="none" x1="466" x2="483" y1="617" y2="567" stroke-dasharray="none" stroke="rgb(0,0,139)"/>
<rect x="481" y="565" clip-path="url(#clipPath1)" fill="rgb(0,0,139)" width="5" stroke-dasharray="none" height="5" stroke="none"/>
<line clip-path="url(#clipPath1)" fill="none" x1="483" x2="499" y1="567" y2="617" stroke-dasharray="none" stroke="rgb(0,0,139)"/>
<rect x="497" y="615" clip-path="url(#clipPath1)" fill="rgb(0,0,139)" width="5" stroke-dasharray="none" height="5" stroke="none"/>
<line clip-path="url(#clipPath1)" fill="none" x1="499" x2="515" y1="617" y2="567" stroke-dasharray="none" stroke="rgb(0,0,139)"/>
<rect x="513" y="565" clip-path="url(#clipPath1)" fill="rgb(0,0,139)" width="5" stroke-dasharray="none" height="5" stroke="none"/>
<line clip-path="url(#clipPath1)" fill="none" x1="515" x2="532" y1="567" y2="617" stroke-dasharray="none" stroke="rgb(0,0,139)"/>
<rect x="530" y="615" clip-path="url(#clipPath1)" fill="rgb(0,0,139)" width="5" stroke-dasharray="none" height="5" stroke="none"/>
<line clip-path="url(#clipPath1)" fill="none" x1="532" x2="548" y1="617" y2="468" stroke-dasharray="none" stroke="rgb(0,0,139)"/>
<rect x="546" y="466" clip-path="url(#clipPath1)" fill="rgb(0,0,139)" width="5" stroke-dasharray="none" height="5" stroke="none"/>
<line clip-path="url(#clipPath1)" fill="none" x1="548" x2="564" y1="468" y2="617" stroke-dasharray="none" stroke="rgb(0,0,139)"/>
<rect x="562" y="615" clip-path="url(#clipPath1)" fill="rgb(0,0,139)" width="5" stroke-dasharray="none" height="5" stroke="none"/>
<line clip-path="url(#clipPath1)" fill="none" x1="564" x2="581" y1="617" y2="617" stroke-dasharray="none" stroke="rgb(0,0,139)"/>
<rect x="579" y="615" clip-path="url(#clipPath1)" fill="rgb(0,0,139)" width="5" stroke-dasharray="none" height="5" stroke="none"/>
<line clip-path="url(#clipPath1)" fill="none" x1="581" x2="597" y1="617" y2="567" stroke-dasharray="none" stroke="rgb(0,0,139)"/>
<rect x="595" y="565" clip-path="url(#clipPath1)" fill="rgb(0,0,139)" width="5" stroke-dasharray="none" height="5" stroke="none"/>
<line clip-path="url(#clipPath1)" fill="none" x1="597" x2="613" y1="567" y2="617" stroke-dasharray="none" stroke="rgb(0,0,139)"/>
<rect x="611" y="615" clip-path="url(#clipPath1)" fill="rgb(0,0,139)" width="5" stroke-dasharray="none" height="5" stroke="none"/>
<line clip-path="url(#clipPath1)" fill="none" x1="613" x2="630" y1="617" y2="617" stroke-dasharray="none" stroke="rgb(0,0,139)"/>
<rect x="628" y="615" clip-path="url(#clipPath1)" fill="rgb(0,0,139)" width="5" stroke-dasharray="none" height="5" stroke="none"/>
<line clip-path="url(#clipPath1)" fill="none" x1="630" x2="646" y1="617" y2="567" stroke-dasharray="none" stroke="rgb(0,0,139)"/>
<rect x="644" y="565" clip-path="url(#clipPath1)" fill="rgb(0,0,139)" width="5" stroke-dasharray="none" height="5" stroke="none"/>
<line clip-path="url(#clipPath1)" fill="none" x1="646" x2="662" y1="567" y2="567" stroke-dasharray="none" stroke="rgb(0,0,139)"/>
<rect x="660" y="565" clip-path="url(#clipPath1)" fill="rgb(0,0,139)" width="5" stroke-dasharray="none" height="5" stroke="none"/>
<line clip-path="url(#clipPath1)" fill="none" x1="662" x2="679" y1="567" y2="567" stroke-dasharray="none" stroke="rgb(0,0,139)"/>
<rect x="677" y="565" clip-path="url(#clipPath1)" fill="rgb(0,0,139)" width="5" stroke-dasharray="none" height="5" stroke="none"/>
<line clip-path="url(#clipPath1)" fill="none" x1="679" x2="695" y1="567" y2="617" stroke-dasharray="none" stroke="rgb(0,0,139)"/>
<rect x="693" y="615" clip-path="url(#clipPath1)" fill="rgb(0,0,139)" width="5" stroke-dasharray="none" height="5" stroke="none"/>
<line clip-path="url(#clipPath1)" fill="none" x1="695" x2="711" y1="617" y2="617" stroke-dasharray="none" stroke="rgb(0,0,139)"/>
<rect x="709" y="615" clip-path="url(#clipPath1)" fill="rgb(0,0,139)" width="5" stroke-dasharray="none" height="5" stroke="none"/>
<line clip-path="url(#clipPath1)" fill="none" x1="711" x2="728" y1="617" y2="617" stroke-dasharray="none" stroke="rgb(0,0,139)"/>
<rect x="726" y="615" clip-path="url(#clipPath1)" fill="rgb(0,0,139)" width="5" stroke-dasharray="none" height="5" stroke="none"/>
<line clip-path="url(#clipPath1)" fill="none" x1="728" x2="744" y1="617" y2="617" stroke-dasharray="none" stroke="rgb(0,0,139)"/>
<rect x="742" y="615" clip-path="url(#clipPath1)" fill="rgb(0,0,139)" width="5" stroke-dasharray="none" height="5" stroke="none"/>
<line clip-path="url(#clipPath1)" fill="none" x1="744" x2="760" y1="617" y2="567" stroke-dasharray="none" stroke="rgb(0,0,139)"/>
<rect x="758" y="565" clip-path="url(#clipPath1)" fill="rgb(0,0,139)" width="5" stroke-dasharray="none" height="5" stroke="none"/>
<line clip-path="url(#clipPath1)" fill="none" x1="760" x2="777" y1="567" y2="617" stroke-dasharray="none" stroke="rgb(0,0,139)"/>
<rect x="775" y="615" clip-path="url(#clipPath1)" fill="rgb(0,0,139)" width="5" stroke-dasharray="none" height="5" stroke="none"/>
<line clip-path="url(#clipPath1)" fill="none" x1="777" x2="793" y1="617" y2="567" stroke-dasharray="none" stroke="rgb(0,0,139)"/>
<rect x="791" y="565" clip-path="url(#clipPath1)" fill="rgb(0,0,139)" width="5" stroke-dasharray="none" height="5" stroke="none"/>
<line clip-path="url(#clipPath1)" fill="none" x1="793" x2="809" y1="567" y2="567" stroke-dasharray="none" stroke="rgb(0,0,139)"/>
<rect x="807" y="565" clip-path="url(#clipPath1)" fill="rgb(0,0,139)" width="5" stroke-dasharray="none" height="5" stroke="none"/>
<line clip-path="url(#clipPath1)" fill="none" x1="809" x2="826" y1="567" y2="617" stroke-dasharray="none" stroke="rgb(0,0,139)"/>
<rect x="824" y="615" clip-path="url(#clipPath1)" fill="rgb(0,0,139)" width="5" stroke-dasharray="none" height="5" stroke="none"/>
<line clip-path="url(#clipPath1)" fill="none" x1="826" x2="842" y1="617" y2="617" stroke-dasharray="none" stroke="rgb(0,0,139)"/>
<rect x="840" y="615" clip-path="url(#clipPath1)" fill="rgb(0,0,139)" width="5" stroke-dasharray="none" height="5" stroke="none"/>
<line clip-path="url(#clipPath1)" fill="none" x1="842" x2="858" y1="617" y2="617" stroke-dasharray="none" stroke="rgb(0,0,139)"/>
<rect x="856" y="615" clip-path="url(#clipPath1)" fill="rgb(0,0,139)" width="5" stroke-dasharray="none" height="5" stroke="none"/>
<line clip-path="url(#clipPath1)" fill="none" x1="858" x2="875" y1="617" y2="567" stroke-dasharray="none" stroke="rgb(0,0,139)"/>
<rect x="873" y="565" clip-path="url(#clipPath1)" fill="rgb(0,0,139)" width="5" stroke-dasharray="none" height="5" stroke="none"/>
<line clip-path="url(#clipPath1)" fill="none" x1="875" x2="891" y1="567" y2="567" stroke-dasharray="none" stroke="rgb(0,0,139)"/>
<rect x="889" y="565" clip-path="url(#clipPath1)" fill="rgb(0,0,139)" width="5" stroke-dasharray="none" height="5" stroke="none"/>
<line clip-path="url(#clipPath1)" fill="none" x1="891" x2="907" y1="567" y2="617" stroke-dasharray="none" stroke="rgb(0,0,139)"/>
<rect x="905" y="615" clip-path="url(#clipPath1)" fill="rgb(0,0,139)" width="5" stroke-dasharray="none" height="5" stroke="none"/>
<line clip-path="url(#clipPath1)" fill="none" x1="907" x2="924" y1="617" y2="567" stroke-dasharray="none" stroke="rgb(0,0,139)"/>
<rect x="922" y="565" clip-path="url(#clipPath1)" fill="rgb(0,0,139)" width="5" stroke-dasharray="none" height="5" stroke="none"/>
<line clip-path="url(#clipPath1)" fill="none" x1="924" x2="940" y1="567" y2="518" stroke-dasharray="none" stroke="rgb(0,0,139)"/>
<rect x="938" y="516" clip-path="url(#clipPath1)" fill="rgb(0,0,139)" width="5" stroke-dasharray="none" height="5" stroke="none"/>
<line clip-path="url(#clipPath1)" fill="none" x1="940" x2="956" y1="518" y2="617" stroke-dasharray="none" stroke="rgb(0,0,139)"/>
<rect x="954" y="615" clip-path="url(#clipPath1)" fill="rgb(0,0,139)" width="5" stroke-dasharray="none" height="5" stroke="none"/>
<line clip-path="url(#clipPath1)" fill="none" x1="956" x2="973" y1="617" y2="617" stroke-dasharray="none" stroke="rgb(0,0,139)"/>
<rect x="971" y="615" clip-path="url(#clipPath1)" fill="rgb(0,0,139)" width="5" stroke-dasharray="none" height="5" stroke="none"/>
<line clip-path="url(#clipPath1)" fill="none" x1="973" x2="989" y1="617" y2="617" stroke-dasharray="none" stroke="rgb(0,0,139)"/>
<rect x="987" y="615" clip-path="url(#clipPath1)" fill="rgb(0,0,139)" width="5" stroke-dasharray="none" height="5" stroke="none"/>
<line clip-path="url(#clipPath1)" fill="none" x1="989" x2="1005" y1="617" y2="567" stroke-dasharray="none" stroke="rgb(0,0,139)"/>
<rect x="1003" y="565" clip-path="url(#clipPath1)" fill="rgb(0,0,139)" width="5" stroke-dasharray="none" height="5" stroke="none"/>
<line clip-path="url(#clipPath1)" fill="none" x1="1005" x2="1022" y1="567" y2="617" stroke-dasharray="none" stroke="rgb(0,0,139)"/>
<rect x="1020" y="615" clip-path="url(#clipPath1)" fill="rgb(0,0,139)" width="5" stroke-dasharray="none" height="5" stroke="none"/>
<line clip-path="url(#clipPath1)" fill="none" x1="1022" x2="1038" y1="617" y2="617" stroke-dasharray="none" stroke="rgb(0,0,139)"/>
<rect x="1036" y="615" clip-path="url(#clipPath1)" fill="rgb(0,0,139)" width="5" stroke-dasharray="none" height="5" stroke="none"/>
<line clip-path="url(#clipPath1)" fill="none" x1="1038" x2="1054" y1="617" y2="518" stroke-dasharray="none" stroke="rgb(0,0,139)"/>
<rect x="1052" y="516" clip-path="url(#clipPath1)" fill="rgb(0,0,139)" width="5" stroke-dasharray="none" height="5" stroke="none"/>
<line clip-path="url(#clipPath1)" fill="none" x1="1054" x2="1071" y1="518" y2="567" stroke-dasharray="none" stroke="rgb(0,0,139)"/>
<rect x="1069" y="565" clip-path="url(#clipPath1)" fill="rgb(0,0,139)" width="5" stroke-dasharray="none" height="5" stroke="none"/>
<line clip-path="url(#clipPath1)" fill="none" x1="1071" x2="1087" y1="567" y2="617" stroke-dasharray="none" stroke="rgb(0,0,139)"/>
<rect x="1085" y="615" clip-path="url(#clipPath1)" fill="rgb(0,0,139)" width="5" stroke-dasharray="none" height="5" stroke="none"/>
<line clip-path="url(#clipPath1)" fill="none" x1="1087" x2="1103" y1="617" y2="617" stroke-dasharray="none" stroke="rgb(0,0,139)"/>
<rect x="1101" y="615" clip-path="url(#clipPath1)" fill="rgb(0,0,139)" width="5" stroke-dasharray="none" height="5" stroke="none"/>
<line clip-path="url(#clipPath1)" fill="none" x1="1103" x2="1120" y1="617" y2="567" stroke-dasharray="none" stroke="rgb(0,0,139)"/>
<rect x="1118" y="565" clip-path="url(#clipPath1)" fill="rgb(0,0,139)" width="5" stroke-dasharray="none" height="5" stroke="none"/>
<line clip-path="url(#clipPath1)" fill="none" x1="1120" x2="1136" y1="567" y2="567" stroke-dasharray="none" stroke="rgb(0,0,139)"/>
<rect x="1134" y="565" clip-path="url(#clipPath1)" fill="rgb(0,0,139)" width="5" stroke-dasharray="none" height="5" stroke="none"/>
<line clip-path="url(#clipPath1)" fill="none" x1="1136" x2="1152" y1="567" y2="567" stroke-dasharray="none" stroke="rgb(0,0,139)"/>
<rect x="1150" y="565" clip-path="url(#clipPath1)" fill="rgb(0,0,139)" width="5" stroke-dasharray="none" height="5" stroke="none"/>
<line clip-path="url(#clipPath1)" fill="none" x1="1152" x2="1169" y1="567" y2="567" stroke-dasharray="none" stroke="rgb(0,0,139)"/>
<rect x="1167" y="565" clip-path="url(#clipPath1)" fill="rgb(0,0,139)" width="5" stroke-dasharray="none" height="5" stroke="none"/>
<line clip-path="url(#clipPath1)" fill="none" x1="1169" x2="1185" y1="567" y2="518" stroke-dasharray="none" stroke="rgb(0,0,139)"/>
<rect x="1183" y="516" clip-path="url(#clipPath1)" fill="rgb(0,0,139)" width="5" stroke-dasharray="none" height="5" stroke="none"/>
<line clip-path="url(#clipPath1)" fill="none" x1="1185" x2="1201" y1="518" y2="617" stroke-dasharray="none" stroke="rgb(0,0,139)"/>
<rect x="1199" y="615" clip-path="url(#clipPath1)" fill="rgb(0,0,139)" width="5" stroke-dasharray="none" height="5" stroke="none"/>
<line clip-path="url(#clipPath1)" fill="none" x1="1201" x2="1218" y1="617" y2="567" stroke-dasharray="none" stroke="rgb(0,0,139)"/>
<rect x="1216" y="565" clip-path="url(#clipPath1)" fill="rgb(0,0,139)" width="5" stroke-dasharray="none" height="5" stroke="none"/>
<line clip-path="url(#clipPath1)" fill="none" x1="1218" x2="1234" y1="567" y2="617" stroke-dasharray="none" stroke="rgb(0,0,139)"/>
<rect x="1232" y="615" clip-path="url(#clipPath1)" fill="rgb(0,0,139)" width="5" stroke-dasharray="none" height="5" stroke="none"/>
<line clip-path="url(#clipPath1)" fill="none" x1="1234" x2="1250" y1="617" y2="567" stroke-dasharray="none" stroke="rgb(0,0,139)"/>
<rect x="1248" y="565" clip-path="url(#clipPath1)" fill="rgb(0,0,139)" width="5" stroke-dasharray="none" height="5" stroke="none"/>
<line clip-path="url(#clipPath1)" fill="none" x1="1250" x2="1267" y1="567" y2="617" stroke-dasharray="none" stroke="rgb(0,0,139)"/>
<rect x="1265" y="615" clip-path="url(#clipPath1)" fill="rgb(0,0,139)" width="5" stroke-dasharray="none" height="5" stroke="none"/>
<line clip-path="url(#clipPath1)" fill="none" x1="1267" x2="1283" y1="617" y2="567" stroke-dasharray="none" stroke="rgb(0,0,139)"/>
<rect x="1281" y="565" clip-path="url(#clipPath1)" fill="rgb(0,0,139)" width="5" stroke-dasharray="none" height="5" stroke="none"/>
<line clip-path="url(#clipPath1)" fill="none" x1="1283" x2="1299" y1="567" y2="567" stroke-dasharray="none" stroke="rgb(0,0,139)"/>
<rect x="1297" y="565" clip-path="url(#clipPath1)" fill="rgb(0,0,139)" width="5" stroke-dasharray="none" height="5" stroke="none"/>
<line clip-path="url(#clipPath1)" fill="none" x1="1299" x2="1316" y1="567" y2="567" stroke-dasharray="none" stroke="rgb(0,0,139)"/>
<rect x="1314" y="565" clip-path="url(#clipPath1)" fill="rgb(0,0,139)" width="5" stroke-dasharray="none" height="5" stroke="none"/>
<line clip-path="url(#clipPath1)" fill="none" x1="1316" x2="1332" y1="567" y2="617" stroke-dasharray="none" stroke="rgb(0,0,139)"/>
<rect x="1330" y="615" clip-path="url(#clipPath1)" fill="rgb(0,0,139)" width="5" stroke-dasharray="none" height="5" stroke="none"/>
<line clip-path="url(#clipPath1)" fill="none" x1="1332" x2="1348" y1="617" y2="617" stroke-dasharray="none" stroke="rgb(0,0,139)"/>
<rect x="1346" y="615" clip-path="url(#clipPath1)" fill="rgb(0,0,139)" width="5" stroke-dasharray="none" height="5" stroke="none"/>
<line clip-path="url(#clipPath1)" fill="none" x1="1348" x2="1365" y1="617" y2="617" stroke-dasharray="none" stroke="rgb(0,0,139)"/>
<rect x="1363" y="615" clip-path="url(#clipPath1)" fill="rgb(0,0,139)" width="5" stroke-dasharray="none" height="5" stroke="none"/>
<rect x="26" y="24" clip-path="url(#clipPath2)" fill="none" width="1356" stroke-dasharray="none" height="593" stroke="black"/>
</g>
<g text-rendering="geometricPrecision" font-size="13" font-family="'Arial'" stroke-linecap="butt">
<line clip-path="url(#clipPath2)" fill="none" x1="26" x2="1382" y1="22" y2="22"/>
<line clip-path="url(#clipPath2)" fill="none" x1="26" x2="1382" y1="619" y2="619"/>
<line clip-path="url(#clipPath2)" fill="none" x1="26" x2="26" y1="18" y2="22"/>
<line clip-path="url(#clipPath2)" fill="none" x1="26" x2="26" y1="623" y2="619"/>
<text x="17" font-size="10" y="13" clip-path="url(#clipPath2)" stroke="none" xml:space="preserve">0.00</text>
<text x="17" font-size="10" y="634" clip-path="url(#clipPath2)" stroke="none" xml:space="preserve">0.00</text>
<line clip-path="url(#clipPath2)" fill="none" x1="42" x2="42" y1="20" y2="22"/>
<line clip-path="url(#clipPath2)" fill="none" x1="42" x2="42" y1="621" y2="619"/>
<line clip-path="url(#clipPath2)" fill="none" x1="58" x2="58" y1="20" y2="22"/>
<line clip-path="url(#clipPath2)" fill="none" x1="58" x2="58" y1="621" y2="619"/>
<line clip-path="url(#clipPath2)" fill="none" x1="74" x2="74" y1="20" y2="22"/>
<line clip-path="url(#clipPath2)" fill="none" x1="74" x2="74" y1="621" y2="619"/>
<line clip-path="url(#clipPath2)" fill="none" x1="91" x2="91" y1="20" y2="22"/>
<line clip-path="url(#clipPath2)" fill="none" x1="91" x2="91" y1="621" y2="619"/>
<line clip-path="url(#clipPath2)" fill="none" x1="107" x2="107" y1="18" y2="22"/>
<line clip-path="url(#clipPath2)" fill="none" x1="107" x2="107" y1="623" y2="619"/>
<text x="96" font-size="10" y="13" clip-path="url(#clipPath2)" stroke="none" xml:space="preserve">0.005</text>
<text x="96" font-size="10" y="634" clip-path="url(#clipPath2)" stroke="none" xml:space="preserve">0.005</text>
<line clip-path="url(#clipPath2)" fill="none" x1="123" x2="123" y1="20" y2="22"/>
<line clip-path="url(#clipPath2)" fill="none" x1="123" x2="123" y1="621" y2="619"/>
<line clip-path="url(#clipPath2)" fill="none" x1="140" x2="140" y1="20" y2="22"/>
<line clip-path="url(#clipPath2)" fill="none" x1="140" x2="140" y1="621" y2="619"/>
<line clip-path="url(#clipPath2)" fill="none" x1="156" x2="156" y1="20" y2="22"/>
<line clip-path="url(#clipPath2)" fill="none" x1="156" x2="156" y1="621" y2="619"/>
<line clip-path="url(#clipPath2)" fill="none" x1="172" x2="172" y1="20" y2="22"/>
<line clip-path="url(#clipPath2)" fill="none" x1="172" x2="172" y1="621" y2="619"/>
<line clip-path="url(#clipPath2)" fill="none" x1="189" x2="189" y1="18" y2="22"/>
<line clip-path="url(#clipPath2)" fill="none" x1="189" x2="189" y1="623" y2="619"/>
<text x="178" font-size="10" y="13" clip-path="url(#clipPath2)" stroke="none" xml:space="preserve">0.010</text>
<text x="178" font-size="10" y="634" clip-path="url(#clipPath2)" stroke="none" xml:space="preserve">0.010</text>
<line clip-path="url(#clipPath2)" fill="none" x1="205" x2="205" y1="20" y2="22"/>
<line clip-path="url(#clipPath2)" fill="none" x1="205" x2="205" y1="621" y2="619"/>
<line clip-path="url(#clipPath2)" fill="none" x1="221" x2="221" y1="20" y2="22"/>
<line clip-path="url(#clipPath2)" fill="none" x1="221" x2="221" y1="621" y2="619"/>
<line clip-path="url(#clipPath2)" fill="none" x1="238" x2="238" y1="20" y2="22"/>
<line clip-path="url(#clipPath2)" fill="none" x1="238" x2="238" y1="621" y2="619"/>
<line clip-path="url(#clipPath2)" fill="none" x1="254" x2="254" y1="20" y2="22"/>
<line clip-path="url(#clipPath2)" fill="none" x1="254" x2="254" y1="621" y2="619"/>
<line clip-path="url(#clipPath2)" fill="none" x1="270" x2="270" y1="18" y2="22"/>
<line clip-path="url(#clipPath2)" fill="none" x1="270" x2="270" y1="623" y2="619"/>
<text x="259" font-size="10" y="13" clip-path="url(#clipPath2)" stroke="none" xml:space="preserve">0.015</text>
<text x="259" font-size="10" y="634" clip-path="url(#clipPath2)" stroke="none" xml:space="preserve">0.015</text>
<line clip-path="url(#clipPath2)" fill="none" x1="287" x2="287" y1="20" y2="22"/>
<line clip-path="url(#clipPath2)" fill="none" x1="287" x2="287" y1="621" y2="619"/>
<line clip-path="url(#clipPath2)" fill="none" x1="303" x2="303" y1="20" y2="22"/>
<line clip-path="url(#clipPath2)" fill="none" x1="303" x2="303" y1="621" y2="619"/>
<line clip-path="url(#clipPath2)" fill="none" x1="319" x2="319" y1="20" y2="22"/>
<line clip-path="url(#clipPath2)" fill="none" x1="319" x2="319" y1="621" y2="619"/>
<line clip-path="url(#clipPath2)" fill="none" x1="336" x2="336" y1="20" y2="22"/>
<line clip-path="url(#clipPath2)" fill="none" x1="336" x2="336" y1="621" y2="619"/>
<line clip-path="url(#clipPath2)" fill="none" x1="352" x2="352" y1="18" y2="22"/>
<line clip-path="url(#clipPath2)" fill="none" x1="352" x2="352" y1="623" y2="619"/>
<text x="341" font-size="10" y="13" clip-path="url(#clipPath2)" stroke="none" xml:space="preserve">0.020</text>
<text x="341" font-size="10" y="634" clip-path="url(#clipPath2)" stroke="none" xml:space="preserve">0.020</text>
<line clip-path="url(#clipPath2)" fill="none" x1="368" x2="368" y1="20" y2="22"/>
<line clip-path="url(#clipPath2)" fill="none" x1="368" x2="368" y1="621" y2="619"/>
<line clip-path="url(#clipPath2)" fill="none" x1="385" x2="385" y1="20" y2="22"/>
<line clip-path="url(#clipPath2)" fill="none" x1="385" x2="385" y1="621" y2="619"/>
<line clip-path="url(#clipPath2)" fill="none" x1="401" x2="401" y1="20" y2="22"/>
<line clip-path="url(#clipPath2)" fill="none" x1="401" x2="401" y1="621" y2="619"/>
<line clip-path="url(#clipPath2)" fill="none" x1="417" x2="417" y1="20" y2="22"/>
<line clip-path="url(#clipPath2)" fill="none" x1="417" x2="417" y1="621" y2="619"/>
<line clip-path="url(#clipPath2)" fill="none" x1="434" x2="434" y1="18" y2="22"/>
<line clip-path="url(#clipPath2)" fill="none" x1="434" x2="434" y1="623" y2="619"/>
<text x="423" font-size="10" y="13" clip-path="url(#clipPath2)" stroke="none" xml:space="preserve">0.025</text>
<text x="423" font-size="10" y="634" clip-path="url(#clipPath2)" stroke="none" xml:space="preserve">0.025</text>
<line clip-path="url(#clipPath2)" fill="none" x1="450" x2="450" y1="20" y2="22"/>
<line clip-path="url(#clipPath2)" fill="none" x1="450" x2="450" y1="621" y2="619"/>
<line clip-path="url(#clipPath2)" fill="none" x1="466" x2="466" y1="20" y2="22"/>
<line clip-path="url(#clipPath2)" fill="none" x1="466" x2="466" y1="621" y2="619"/>
<line clip-path="url(#clipPath2)" fill="none" x1="483" x2="483" y1="20" y2="22"/>
<line clip-path="url(#clipPath2)" fill="none" x1="483" x2="483" y1="621" y2="619"/>
<line clip-path="url(#clipPath2)" fill="none" x1="499" x2="499" y1="20" y2="22"/>
<line clip-path="url(#clipPath2)" fill="none" x1="499" x2="499" y1="621" y2="619"/>
<line clip-path="url(#clipPath2)" fill="none" x1="515" x2="515" y1="18" y2="22"/>
<line clip-path="url(#clipPath2)" fill="none" x1="515" x2="515" y1="623" y2="619"/>
<text x="504" font-size="10" y="13" clip-path="url(#clipPath2)" stroke="none" xml:space="preserve">0.030</text>
<text x="504" font-size="10" y="634" clip-path="url(#clipPath2)" stroke="none" xml:space="preserve">0.030</text>
<line clip-path="url(#clipPath2)" fill="none" x1="532" x2="532" y1="20" y2="22"/>
<line clip-path="url(#clipPath2)" fill="none" x1="532" x2="532" y1="621" y2="619"/>
<line clip-path="url(#clipPath2)" fill="none" x1="548" x2="548" y1="20" y2="22"/>
<line clip-path="url(#clipPath2)" fill="none" x1="548" x2="548" y1="621" y2="619"/>
<line clip-path="url(#clipPath2)" fill="none" x1="564" x2="564" y1="20" y2="22"/>
<line clip-path="url(#clipPath2)" fill="none" x1="564" x2="564" y1="621" y2="619"/>
<line clip-path="url(#clipPath2)" fill="none" x1="581" x2="581" y1="20" y2="22"/>
<line clip-path="url(#clipPath2)" fill="none" x1="581" x2="581" y1="621" y2="619"/>
<line clip-path="url(#clipPath2)" fill="none" x1="597" x2="597" y1="18" y2="22"/>
<line clip-path="url(#clipPath2)" fill="none" x1="597" x2="597" y1="623" y2="619"/>
<text x="586" font-size="10" y="13" clip-path="url(#clipPath2)" stroke="none" xml:space="preserve">0.035</text>
<text x="586" font-size="10" y="634" clip-path="url(#clipPath2)" stroke="none" xml:space="preserve">0.035</text>
<line clip-path="url(#clipPath2)" fill="none" x1="613" x2="613" y1="20" y2="22"/>
<line clip-path="url(#clipPath2)" fill="none" x1="613" x2="613" y1="621" y2="619"/>
<line clip-path="url(#clipPath2)" fill="none" x1="630" x2="630" y1="20" y2="22"/>
<line clip-path="url(#clipPath2)" fill="none" x1="630" x2="630" y1="621" y2="619"/>
<line clip-path="url(#clipPath2)" fill="none" x1="646" x2="646" y1="20" y2="22"/>
<line clip-path="url(#clipPath2)" fill="none" x1="646" x2="646" y1="621" y2="619"/>
<line clip-path="url(#clipPath2)" fill="none" x1="662" x2="662" y1="20" y2="22"/>
<line clip-path="url(#clipPath2)" fill="none" x1="662" x2="662" y1="621" y2="619"/>
<line clip-path="url(#clipPath2)" fill="none" x1="679" x2="679" y1="18" y2="22"/>
<line clip-path="url(#clipPath2)" fill="none" x1="679" x2="679" y1="623" y2="619"/>
<text x="668" font-size="10" y="13" clip-path="url(#clipPath2)" stroke="none" xml:space="preserve">0.040</text>
<text x="668" font-size="10" y="634" clip-path="url(#clipPath2)" stroke="none" xml:space="preserve">0.040</text>
<line clip-path="url(#clipPath2)" fill="none" x1="695" x2="695" y1="20" y2="22"/>
<line clip-path="url(#clipPath2)" fill="none" x1="695" x2="695" y1="621" y2="619"/>
<line clip-path="url(#clipPath2)" fill="none" x1="711" x2="711" y1="20" y2="22"/>
<line clip-path="url(#clipPath2)" fill="none" x1="711" x2="711" y1="621" y2="619"/>
<line clip-path="url(#clipPath2)" fill="none" x1="728" x2="728" y1="20" y2="22"/>
<line clip-path="url(#clipPath2)" fill="none" x1="728" x2="728" y1="621" y2="619"/>
<line clip-path="url(#clipPath2)" fill="none" x1="744" x2="744" y1="20" y2="22"/>
<line clip-path="url(#clipPath2)" fill="none" x1="744" x2="744" y1="621" y2="619"/>
<line clip-path="url(#clipPath2)" fill="none" x1="760" x2="760" y1="18" y2="22"/>
<line clip-path="url(#clipPath2)" fill="none" x1="760" x2="760" y1="623" y2="619"/>
<text x="749" font-size="10" y="13" clip-path="url(#clipPath2)" stroke="none" xml:space="preserve">0.045</text>
<text x="749" font-size="10" y="634" clip-path="url(#clipPath2)" stroke="none" xml:space="preserve">0.045</text>
<line clip-path="url(#clipPath2)" fill="none" x1="777" x2="777" y1="20" y2="22"/>
<line clip-path="url(#clipPath2)" fill="none" x1="777" x2="777" y1="621" y2="619"/>
<line clip-path="url(#clipPath2)" fill="none" x1="793" x2="793" y1="20" y2="22"/>
<line clip-path="url(#clipPath2)" fill="none" x1="793" x2="793" y1="621" y2="619"/>
<line clip-path="url(#clipPath2)" fill="none" x1="809" x2="809" y1="20" y2="22"/>
<line clip-path="url(#clipPath2)" fill="none" x1="809" x2="809" y1="621" y2="619"/>
<line clip-path="url(#clipPath2)" fill="none" x1="826" x2="826" y1="20" y2="22"/>
<line clip-path="url(#clipPath2)" fill="none" x1="826" x2="826" y1="621" y2="619"/>
<line clip-path="url(#clipPath2)" fill="none" x1="842" x2="842" y1="18" y2="22"/>
<line clip-path="url(#clipPath2)" fill="none" x1="842" x2="842" y1="623" y2="619"/>
<text x="831" font-size="10" y="13" clip-path="url(#clipPath2)" stroke="none" xml:space="preserve">0.050</text>
<text x="831" font-size="10" y="634" clip-path="url(#clipPath2)" stroke="none" xml:space="preserve">0.050</text>
<line clip-path="url(#clipPath2)" fill="none" x1="858" x2="858" y1="20" y2="22"/>
<line clip-path="url(#clipPath2)" fill="none" x1="858" x2="858" y1="621" y2="619"/>
<line clip-path="url(#clipPath2)" fill="none" x1="875" x2="875" y1="20" y2="22"/>
<line clip-path="url(#clipPath2)" fill="none" x1="875" x2="875" y1="621" y2="619"/>
<line clip-path="url(#clipPath2)" fill="none" x1="891" x2="891" y1="20" y2="22"/>
<line clip-path="url(#clipPath2)" fill="none" x1="891" x2="891" y1="621" y2="619"/>
<line clip-path="url(#clipPath2)" fill="none" x1="907" x2="907" y1="20" y2="22"/>
<line clip-path="url(#clipPath2)" fill="none" x1="907" x2="907" y1="621" y2="619"/>
<line clip-path="url(#clipPath2)" fill="none" x1="924" x2="924" y1="18" y2="22"/>
<line clip-path="url(#clipPath2)" fill="none" x1="924" x2="924" y1="623" y2="619"/>
<text x="913" font-size="10" y="13" clip-path="url(#clipPath2)" stroke="none" xml:space="preserve">0.055</text>
<text x="913" font-size="10" y="634" clip-path="url(#clipPath2)" stroke="none" xml:space="preserve">0.055</text>
<line clip-path="url(#clipPath2)" fill="none" x1="940" x2="940" y1="20" y2="22"/>
<line clip-path="url(#clipPath2)" fill="none" x1="940" x2="940" y1="621" y2="619"/>
<line clip-path="url(#clipPath2)" fill="none" x1="956" x2="956" y1="20" y2="22"/>
<line clip-path="url(#clipPath2)" fill="none" x1="956" x2="956" y1="621" y2="619"/>
<line clip-path="url(#clipPath2)" fill="none" x1="973" x2="973" y1="20" y2="22"/>
<line clip-path="url(#clipPath2)" fill="none" x1="973" x2="973" y1="621" y2="619"/>
<line clip-path="url(#clipPath2)" fill="none" x1="989" x2="989" y1="20" y2="22"/>
<line clip-path="url(#clipPath2)" fill="none" x1="989" x2="989" y1="621" y2="619"/>
<line clip-path="url(#clipPath2)" fill="none" x1="1005" x2="1005" y1="18" y2="22"/>
<line clip-path="url(#clipPath2)" fill="none" x1="1005" x2="1005" y1="623" y2="619"/>
<text x="994" font-size="10" y="13" clip-path="url(#clipPath2)" stroke="none" xml:space="preserve">0.060</text>
<text x="994" font-size="10" y="634" clip-path="url(#clipPath2)" stroke="none" xml:space="preserve">0.060</text>
<line clip-path="url(#clipPath2)" fill="none" x1="1022" x2="1022" y1="20" y2="22"/>
<line clip-path="url(#clipPath2)" fill="none" x1="1022" x2="1022" y1="621" y2="619"/>
<line clip-path="url(#clipPath2)" fill="none" x1="1038" x2="1038" y1="20" y2="22"/>
<line clip-path="url(#clipPath2)" fill="none" x1="1038" x2="1038" y1="621" y2="619"/>
<line clip-path="url(#clipPath2)" fill="none" x1="1054" x2="1054" y1="20" y2="22"/>
<line clip-path="url(#clipPath2)" fill="none" x1="1054" x2="1054" y1="621" y2="619"/>
<line clip-path="url(#clipPath2)" fill="none" x1="1071" x2="1071" y1="20" y2="22"/>
<line clip-path="url(#clipPath2)" fill="none" x1="1071" x2="1071" y1="621" y2="619"/>
<line clip-path="url(#clipPath2)" fill="none" x1="1087" x2="1087" y1="18" y2="22"/>
<line clip-path="url(#clipPath2)" fill="none" x1="1087" x2="1087" y1="623" y2="619"/>
<text x="1076" font-size="10" y="13" clip-path="url(#clipPath2)" stroke="none" xml:space="preserve">0.065</text>
<text x="1076" font-size="10" y="634" clip-path="url(#clipPath2)" stroke="none" xml:space="preserve">0.065</text>
<line clip-path="url(#clipPath2)" fill="none" x1="1103" x2="1103" y1="20" y2="22"/>
<line clip-path="url(#clipPath2)" fill="none" x1="1103" x2="1103" y1="621" y2="619"/>
<line clip-path="url(#clipPath2)" fill="none" x1="1120" x2="1120" y1="20" y2="22"/>
<line clip-path="url(#clipPath2)" fill="none" x1="1120" x2="1120" y1="621" y2="619"/>
<line clip-path="url(#clipPath2)" fill="none" x1="1136" x2="1136" y1="20" y2="22"/>
<line clip-path="url(#clipPath2)" fill="none" x1="1136" x2="1136" y1="621" y2="619"/>
<line clip-path="url(#clipPath2)" fill="none" x1="1152" x2="1152" y1="20" y2="22"/>
<line clip-path="url(#clipPath2)" fill="none" x1="1152" x2="1152" y1="621" y2="619"/>
<line clip-path="url(#clipPath2)" fill="none" x1="1169" x2="1169" y1="18" y2="22"/>
<line clip-path="url(#clipPath2)" fill="none" x1="1169" x2="1169" y1="623" y2="619"/>
<text x="1158" font-size="10" y="13" clip-path="url(#clipPath2)" stroke="none" xml:space="preserve">0.070</text>
<text x="1158" font-size="10" y="634" clip-path="url(#clipPath2)" stroke="none" xml:space="preserve">0.070</text>
<line clip-path="url(#clipPath2)" fill="none" x1="1185" x2="1185" y1="20" y2="22"/>
<line clip-path="url(#clipPath2)" fill="none" x1="1185" x2="1185" y1="621" y2="619"/>
<line clip-path="url(#clipPath2)" fill="none" x1="1201" x2="1201" y1="20" y2="22"/>
<line clip-path="url(#clipPath2)" fill="none" x1="1201" x2="1201" y1="621" y2="619"/>
<line clip-path="url(#clipPath2)" fill="none" x1="1218" x2="1218" y1="20" y2="22"/>
<line clip-path="url(#clipPath2)" fill="none" x1="1218" x2="1218" y1="621" y2="619"/>
<line clip-path="url(#clipPath2)" fill="none" x1="1234" x2="1234" y1="20" y2="22"/>
<line clip-path="url(#clipPath2)" fill="none" x1="1234" x2="1234" y1="621" y2="619"/>
<line clip-path="url(#clipPath2)" fill="none" x1="1250" x2="1250" y1="18" y2="22"/>
<line clip-path="url(#clipPath2)" fill="none" x1="1250" x2="1250" y1="623" y2="619"/>
<text x="1239" font-size="10" y="13" clip-path="url(#clipPath2)" stroke="none" xml:space="preserve">0.075</text>
<text x="1239" font-size="10" y="634" clip-path="url(#clipPath2)" stroke="none" xml:space="preserve">0.075</text>
<line clip-path="url(#clipPath2)" fill="none" x1="1267" x2="1267" y1="20" y2="22"/>
<line clip-path="url(#clipPath2)" fill="none" x1="1267" x2="1267" y1="621" y2="619"/>
<line clip-path="url(#clipPath2)" fill="none" x1="1283" x2="1283" y1="20" y2="22"/>
<line clip-path="url(#clipPath2)" fill="none" x1="1283" x2="1283" y1="621" y2="619"/>
<line clip-path="url(#clipPath2)" fill="none" x1="1299" x2="1299" y1="20" y2="22"/>
<line clip-path="url(#clipPath2)" fill="none" x1="1299" x2="1299" y1="621" y2="619"/>
<line clip-path="url(#clipPath2)" fill="none" x1="1316" x2="1316" y1="20" y2="22"/>
<line clip-path="url(#clipPath2)" fill="none" x1="1316" x2="1316" y1="621" y2="619"/>
<line clip-path="url(#clipPath2)" fill="none" x1="1332" x2="1332" y1="18" y2="22"/>
<line clip-path="url(#clipPath2)" fill="none" x1="1332" x2="1332" y1="623" y2="619"/>
<text x="1321" font-size="10" y="13" clip-path="url(#clipPath2)" stroke="none" xml:space="preserve">0.080</text>
<text x="1321" font-size="10" y="634" clip-path="url(#clipPath2)" stroke="none" xml:space="preserve">0.080</text>
<line clip-path="url(#clipPath2)" fill="none" x1="1348" x2="1348" y1="20" y2="22"/>
<line clip-path="url(#clipPath2)" fill="none" x1="1348" x2="1348" y1="621" y2="619"/>
<line clip-path="url(#clipPath2)" fill="none" x1="1365" x2="1365" y1="20" y2="22"/>
<line clip-path="url(#clipPath2)" fill="none" x1="1365" x2="1365" y1="621" y2="619"/>
<line clip-path="url(#clipPath2)" fill="none" x1="1381" x2="1381" y1="20" y2="22"/>
<line clip-path="url(#clipPath2)" fill="none" x1="1381" x2="1381" y1="621" y2="619"/>
<line clip-path="url(#clipPath2)" fill="none" x1="24" x2="24" y1="24" y2="617"/>
<line clip-path="url(#clipPath2)" fill="none" x1="1384" x2="1384" y1="24" y2="617"/>
<line clip-path="url(#clipPath2)" fill="none" x1="20" x2="24" y1="617" y2="617"/>
<line clip-path="url(#clipPath2)" fill="none" x1="1388" x2="1384" y1="617" y2="617"/>
<text x="14" font-size="10" y="620" clip-path="url(#clipPath2)" stroke="none" xml:space="preserve">0</text>
<text x="1391" font-size="10" y="620" clip-path="url(#clipPath2)" stroke="none" xml:space="preserve">0</text>
<line clip-path="url(#clipPath2)" fill="none" x1="22" x2="24" y1="567" y2="567"/>
<line clip-path="url(#clipPath2)" fill="none" x1="1386" x2="1384" y1="567" y2="567"/>
<line clip-path="url(#clipPath2)" fill="none" x1="20" x2="24" y1="518" y2="518"/>
<line clip-path="url(#clipPath2)" fill="none" x1="1388" x2="1384" y1="518" y2="518"/>
<text x="14" font-size="10" y="521" clip-path="url(#clipPath2)" stroke="none" xml:space="preserve">2</text>
<text x="1391" font-size="10" y="521" clip-path="url(#clipPath2)" stroke="none" xml:space="preserve">2</text>
<line clip-path="url(#clipPath2)" fill="none" x1="22" x2="24" y1="468" y2="468"/>
<line clip-path="url(#clipPath2)" fill="none" x1="1386" x2="1384" y1="468" y2="468"/>
<line clip-path="url(#clipPath2)" fill="none" x1="20" x2="24" y1="419" y2="419"/>
<line clip-path="url(#clipPath2)" fill="none" x1="1388" x2="1384" y1="419" y2="419"/>
<text x="14" font-size="10" y="422" clip-path="url(#clipPath2)" stroke="none" xml:space="preserve">4</text>
<text x="1391" font-size="10" y="422" clip-path="url(#clipPath2)" stroke="none" xml:space="preserve">4</text>
<line clip-path="url(#clipPath2)" fill="none" x1="22" x2="24" y1="369" y2="369"/>
<line clip-path="url(#clipPath2)" fill="none" x1="1386" x2="1384" y1="369" y2="369"/>
<line clip-path="url(#clipPath2)" fill="none" x1="20" x2="24" y1="320" y2="320"/>
<line clip-path="url(#clipPath2)" fill="none" x1="1388" x2="1384" y1="320" y2="320"/>
<text x="14" font-size="10" y="323" clip-path="url(#clipPath2)" stroke="none" xml:space="preserve">6</text>
<text x="1391" font-size="10" y="323" clip-path="url(#clipPath2)" stroke="none" xml:space="preserve">6</text>
<line clip-path="url(#clipPath2)" fill="none" x1="22" x2="24" y1="271" y2="271"/>
<line clip-path="url(#clipPath2)" fill="none" x1="1386" x2="1384" y1="271" y2="271"/>
<line clip-path="url(#clipPath2)" fill="none" x1="20" x2="24" y1="221" y2="221"/>
<line clip-path="url(#clipPath2)" fill="none" x1="1388" x2="1384" y1="221" y2="221"/>
<text x="14" font-size="10" y="224" clip-path="url(#clipPath2)" stroke="none" xml:space="preserve">8</text>
<text x="1391" font-size="10" y="224" clip-path="url(#clipPath2)" stroke="none" xml:space="preserve">8</text>
<line clip-path="url(#clipPath2)" fill="none" x1="22" x2="24" y1="172" y2="172"/>
<line clip-path="url(#clipPath2)" fill="none" x1="1386" x2="1384" y1="172" y2="172"/>
<line clip-path="url(#clipPath2)" fill="none" x1="20" x2="24" y1="122" y2="122"/>
<line clip-path="url(#clipPath2)" fill="none" x1="1388" x2="1384" y1="122" y2="122"/>
<text x="9" font-size="10" y="125" clip-path="url(#clipPath2)" stroke="none" xml:space="preserve">10</text>
<text x="1391" font-size="10" y="125" clip-path="url(#clipPath2)" stroke="none" xml:space="preserve">10</text>
<line clip-path="url(#clipPath2)" fill="none" x1="22" x2="24" y1="73" y2="73"/>
<line clip-path="url(#clipPath2)" fill="none" x1="1386" x2="1384" y1="73" y2="73"/>
<line clip-path="url(#clipPath2)" fill="none" x1="20" x2="24" y1="24" y2="24"/>
<line clip-path="url(#clipPath2)" fill="none" x1="1388" x2="1384" y1="24" y2="24"/>
<text x="9" font-size="10" y="27" clip-path="url(#clipPath2)" stroke="none" xml:space="preserve">12</text>
<text x="1391" font-size="10" y="27" clip-path="url(#clipPath2)" stroke="none" xml:space="preserve">12</text>
</g>
</g>
</svg>
