<?xml version="1.0" encoding="UTF-8"?><svg xmlns="http://www.w3.org/2000/svg" xmlns:xlink="http://www.w3.org/1999/xlink" stroke-dasharray="none" shape-rendering="auto" font-family="'Dialog'" width="1408" text-rendering="auto" fill-opacity="1" contentScriptType="text/ecmascript" color-interpolation="auto" color-rendering="auto" preserveAspectRatio="xMidYMid meet" font-size="12" fill="black" stroke="black" image-rendering="auto" stroke-miterlimit="10" zoomAndPan="magnify" version="1.0" stroke-linecap="square" stroke-linejoin="miter" contentStyleType="text/css" font-style="normal" height="641" stroke-width="1" stroke-dashoffset="0" font-weight="normal" stroke-opacity="1">
<!--Generated by the Batik Graphics2D SVG Generator-->
<defs id="genericDefs"/>
<g>
<defs id="defs1">
<clipPath clipPathUnits="userSpaceOnUse" id="clipPath1">
<path d="M41 39 L1383 39 L1383 602 L41 602 L41 39 Z"/>
</clipPath>
<clipPath clipPathUnits="userSpaceOnUse" id="clipPath2">
<path d="M-1 -1 L1409 -1 L1409 642 L-1 642 L-1 -1 Z"/>
</clipPath>
</defs>
<g fill="white" text-rendering="geometricPrecision" font-family="'Segoe UI'" stroke-linejoin="round" stroke="white" stroke-width="0" stroke-miterlimit="0">
<rect x="42" y="40" clip-path="url(#clipPath1)" width="1340" height="561" stroke="none"/>
</g>
<g stroke-linecap="butt" fill="rgb(204,204,204)" text-rendering="geometricPrecision" font-family="'Segoe UI'" stroke-dasharray="3,3" stroke="rgb(204,204,204)">
<line clip-path="url(#clipPath1)" fill="none" x1="42" x2="42" y1="40" y2="601"/>
<line clip-path="url(#clipPath1)" fill="none" x1="122" x2="122" y1="40" y2="601"/>
<line clip-path="url(#clipPath1)" fill="none" x1="203" x2="203" y1="40" y2="601"/>
<line clip-path="url(#clipPath1)" fill="none" x1="284" x2="284" y1="40" y2="601"/>
<line clip-path="url(#clipPath1)" fill="none" x1="364" x2="364" y1="40" y2="601"/>
<line clip-path="url(#clipPath1)" fill="none" x1="445" x2="445" y1="40" y2="601"/>
<line clip-path="url(#clipPath1)" fill="none" x1="526" x2="526" y1="40" y2="601"/>
<line clip-path="url(#clipPath1)" fill="none" x1="606" x2="606" y1="40" y2="601"/>
<line clip-path="url(#clipPath1)" fill="none" x1="687" x2="687" y1="40" y2="601"/>
<line clip-path="url(#clipPath1)" fill="none" x1="768" x2="768" y1="40" y2="601"/>
<line clip-path="url(#clipPath1)" fill="none" x1="848" x2="848" y1="40" y2="601"/>
<line clip-path="url(#clipPath1)" fill="none" x1="929" x2="929" y1="40" y2="601"/>
<line clip-path="url(#clipPath1)" fill="none" x1="1010" x2="1010" y1="40" y2="601"/>
<line clip-path="url(#clipPath1)" fill="none" x1="1091" x2="1091" y1="40" y2="601"/>
<line clip-path="url(#clipPath1)" fill="none" x1="1171" x2="1171" y1="40" y2="601"/>
<line clip-path="url(#clipPath1)" fill="none" x1="1252" x2="1252" y1="40" y2="601"/>
<line clip-path="url(#clipPath1)" fill="none" x1="1333" x2="1333" y1="40" y2="601"/>
<line clip-path="url(#clipPath1)" fill="none" x1="42" x2="1382" y1="601" y2="601"/>
<line clip-path="url(#clipPath1)" fill="none" x1="42" x2="1382" y1="507" y2="507"/>
<line clip-path="url(#clipPath1)" fill="none" x1="42" x2="1382" y1="414" y2="414"/>
<line clip-path="url(#clipPath1)" fill="none" x1="42" x2="1382" y1="320" y2="320"/>
<line clip-path="url(#clipPath1)" fill="none" x1="42" x2="1382" y1="227" y2="227"/>
<line clip-path="url(#clipPath1)" fill="none" x1="42" x2="1382" y1="133" y2="133"/>
<line clip-path="url(#clipPath1)" fill="none" x1="42" x2="1382" y1="40" y2="40"/>
<rect x="56" y="178" clip-path="url(#clipPath1)" fill="rgb(0,0,139)" width="5" height="5" stroke="none"/>
<line clip-path="url(#clipPath1)" fill="none" x1="58" x2="74" y1="180" y2="601" stroke-dasharray="none" stroke="rgb(0,0,139)"/>
<rect x="72" y="599" clip-path="url(#clipPath1)" fill="rgb(0,0,139)" width="5" stroke-dasharray="none" height="5" stroke="none"/>
<line clip-path="url(#clipPath1)" fill="none" x1="74" x2="90" y1="601" y2="601" stroke-dasharray="none" stroke="rgb(0,0,139)"/>
<rect x="88" y="599" clip-path="url(#clipPath1)" fill="rgb(0,0,139)" width="5" stroke-dasharray="none" height="5" stroke="none"/>
<line clip-path="url(#clipPath1)" fill="none" x1="90" x2="106" y1="601" y2="601" stroke-dasharray="none" stroke="rgb(0,0,139)"/>
<rect x="104" y="599" clip-path="url(#clipPath1)" fill="rgb(0,0,139)" width="5" stroke-dasharray="none" height="5" stroke="none"/>
<line clip-path="url(#clipPath1)" fill="none" x1="106" x2="122" y1="601" y2="601" stroke-dasharray="none" stroke="rgb(0,0,139)"/>
<rect x="120" y="599" clip-path="url(#clipPath1)" fill="rgb(0,0,139)" width="5" stroke-dasharray="none" height="5" stroke="none"/>
<line clip-path="url(#clipPath1)" fill="none" x1="122" x2="138" y1="601" y2="601" stroke-dasharray="none" stroke="rgb(0,0,139)"/>
<rect x="136" y="599" clip-path="url(#clipPath1)" fill="rgb(0,0,139)" width="5" stroke-dasharray="none" height="5" stroke="none"/>
<line clip-path="url(#clipPath1)" fill="none" x1="138" x2="154" y1="601" y2="601" stroke-dasharray="none" stroke="rgb(0,0,139)"/>
<rect x="152" y="599" clip-path="url(#clipPath1)" fill="rgb(0,0,139)" width="5" stroke-dasharray="none" height="5" stroke="none"/>
<line clip-path="url(#clipPath1)" fill="none" x1="154" x2="171" y1="601" y2="460" stroke-dasharray="none" stroke="rgb(0,0,139)"/>
<rect x="169" y="458" clip-path="url(#clipPath1)" fill="rgb(0,0,139)" width="5" stroke-dasharray="none" height="5" stroke="none"/>
<line clip-path="url(#clipPath1)" fill="none" x1="171" x2="187" y1="460" y2="601" stroke-dasharray="none" stroke="rgb(0,0,139)"/>
<rect x="185" y="599" clip-path="url(#clipPath1)" fill="rgb(0,0,139)" width="5" stroke-dasharray="none" height="5" stroke="none"/>
<line clip-path="url(#clipPath1)" fill="none" x1="187" x2="203" y1="601" y2="601" stroke-dasharray="none" stroke="rgb(0,0,139)"/>
<rect x="201" y="599" clip-path="url(#clipPath1)" fill="rgb(0,0,139)" width="5" stroke-dasharray="none" height="5" stroke="none"/>
<line clip-path="url(#clipPath1)" fill="none" x1="203" x2="219" y1="601" y2="601" stroke-dasharray="none" stroke="rgb(0,0,139)"/>
<rect x="217" y="599" clip-path="url(#clipPath1)" fill="rgb(0,0,139)" width="5" stroke-dasharray="none" height="5" stroke="none"/>
<line clip-path="url(#clipPath1)" fill="none" x1="219" x2="235" y1="601" y2="601" stroke-dasharray="none" stroke="rgb(0,0,139)"/>
<rect x="233" y="599" clip-path="url(#clipPath1)" fill="rgb(0,0,139)" width="5" stroke-dasharray="none" height="5" stroke="none"/>
<line clip-path="url(#clipPath1)" fill="none" x1="235" x2="251" y1="601" y2="601" stroke-dasharray="none" stroke="rgb(0,0,139)"/>
<rect x="249" y="599" clip-path="url(#clipPath1)" fill="rgb(0,0,139)" width="5" stroke-dasharray="none" height="5" stroke="none"/>
<line clip-path="url(#clipPath1)" fill="none" x1="251" x2="267" y1="601" y2="554" stroke-dasharray="none" stroke="rgb(0,0,139)"/>
<rect x="265" y="552" clip-path="url(#clipPath1)" fill="rgb(0,0,139)" width="5" stroke-dasharray="none" height="5" stroke="none"/>
<line clip-path="url(#clipPath1)" fill="none" x1="267" x2="284" y1="554" y2="554" stroke-dasharray="none" stroke="rgb(0,0,139)"/>
<rect x="282" y="552" clip-path="url(#clipPath1)" fill="rgb(0,0,139)" width="5" stroke-dasharray="none" height="5" stroke="none"/>
<line clip-path="url(#clipPath1)" fill="none" x1="284" x2="300" y1="554" y2="507" stroke-dasharray="none" stroke="rgb(0,0,139)"/>
<rect x="298" y="505" clip-path="url(#clipPath1)" fill="rgb(0,0,139)" width="5" stroke-dasharray="none" height="5" stroke="none"/>
<line clip-path="url(#clipPath1)" fill="none" x1="300" x2="316" y1="507" y2="601" stroke-dasharray="none" stroke="rgb(0,0,139)"/>
<rect x="314" y="599" clip-path="url(#clipPath1)" fill="rgb(0,0,139)" width="5" stroke-dasharray="none" height="5" stroke="none"/>
<line clip-path="url(#clipPath1)" fill="none" x1="316" x2="332" y1="601" y2="601" stroke-dasharray="none" stroke="rgb(0,0,139)"/>
<rect x="330" y="599" clip-path="url(#clipPath1)" fill="rgb(0,0,139)" width="5" stroke-dasharray="none" height="5" stroke="none"/>
<line clip-path="url(#clipPath1)" fill="none" x1="332" x2="348" y1="601" y2="601" stroke-dasharray="none" stroke="rgb(0,0,139)"/>
<rect x="346" y="599" clip-path="url(#clipPath1)" fill="rgb(0,0,139)" width="5" stroke-dasharray="none" height="5" stroke="none"/>
<line clip-path="url(#clipPath1)" fill="none" x1="348" x2="364" y1="601" y2="601" stroke-dasharray="none" stroke="rgb(0,0,139)"/>
<rect x="362" y="599" clip-path="url(#clipPath1)" fill="rgb(0,0,139)" width="5" stroke-dasharray="none" height="5" stroke="none"/>
<line clip-path="url(#clipPath1)" fill="none" x1="364" x2="380" y1="601" y2="601" stroke-dasharray="none" stroke="rgb(0,0,139)"/>
<rect x="378" y="599" clip-path="url(#clipPath1)" fill="rgb(0,0,139)" width="5" stroke-dasharray="none" height="5" stroke="none"/>
<line clip-path="url(#clipPath1)" fill="none" x1="380" x2="397" y1="601" y2="601" stroke-dasharray="none" stroke="rgb(0,0,139)"/>
<rect x="395" y="599" clip-path="url(#clipPath1)" fill="rgb(0,0,139)" width="5" stroke-dasharray="none" height="5" stroke="none"/>
<line clip-path="url(#clipPath1)" fill="none" x1="397" x2="413" y1="601" y2="554" stroke-dasharray="none" stroke="rgb(0,0,139)"/>
<rect x="411" y="552" clip-path="url(#clipPath1)" fill="rgb(0,0,139)" width="5" stroke-dasharray="none" height="5" stroke="none"/>
<line clip-path="url(#clipPath1)" fill="none" x1="413" x2="429" y1="554" y2="507" stroke-dasharray="none" stroke="rgb(0,0,139)"/>
<rect x="427" y="505" clip-path="url(#clipPath1)" fill="rgb(0,0,139)" width="5" stroke-dasharray="none" height="5" stroke="none"/>
<line clip-path="url(#clipPath1)" fill="none" x1="429" x2="445" y1="507" y2="601" stroke-dasharray="none" stroke="rgb(0,0,139)"/>
<rect x="443" y="599" clip-path="url(#clipPath1)" fill="rgb(0,0,139)" width="5" stroke-dasharray="none" height="5" stroke="none"/>
<line clip-path="url(#clipPath1)" fill="none" x1="445" x2="461" y1="601" y2="554" stroke-dasharray="none" stroke="rgb(0,0,139)"/>
<rect x="459" y="552" clip-path="url(#clipPath1)" fill="rgb(0,0,139)" width="5" stroke-dasharray="none" height="5" stroke="none"/>
<line clip-path="url(#clipPath1)" fill="none" x1="461" x2="477" y1="554" y2="601" stroke-dasharray="none" stroke="rgb(0,0,139)"/>
<rect x="475" y="599" clip-path="url(#clipPath1)" fill="rgb(0,0,139)" width="5" stroke-dasharray="none" height="5" stroke="none"/>
<line clip-path="url(#clipPath1)" fill="none" x1="477" x2="493" y1="601" y2="554" stroke-dasharray="none" stroke="rgb(0,0,139)"/>
<rect x="491" y="552" clip-path="url(#clipPath1)" fill="rgb(0,0,139)" width="5" stroke-dasharray="none" height="5" stroke="none"/>
<line clip-path="url(#clipPath1)" fill="none" x1="493" x2="510" y1="554" y2="601" stroke-dasharray="none" stroke="rgb(0,0,139)"/>
<rect x="508" y="599" clip-path="url(#clipPath1)" fill="rgb(0,0,139)" width="5" stroke-dasharray="none" height="5" stroke="none"/>
<line clip-path="url(#clipPath1)" fill="none" x1="510" x2="526" y1="601" y2="554" stroke-dasharray="none" stroke="rgb(0,0,139)"/>
<rect x="524" y="552" clip-path="url(#clipPath1)" fill="rgb(0,0,139)" width="5" stroke-dasharray="none" height="5" stroke="none"/>
<line clip-path="url(#clipPath1)" fill="none" x1="526" x2="542" y1="554" y2="601" stroke-dasharray="none" stroke="rgb(0,0,139)"/>
<rect x="540" y="599" clip-path="url(#clipPath1)" fill="rgb(0,0,139)" width="5" stroke-dasharray="none" height="5" stroke="none"/>
<line clip-path="url(#clipPath1)" fill="none" x1="542" x2="558" y1="601" y2="460" stroke-dasharray="none" stroke="rgb(0,0,139)"/>
<rect x="556" y="458" clip-path="url(#clipPath1)" fill="rgb(0,0,139)" width="5" stroke-dasharray="none" height="5" stroke="none"/>
<line clip-path="url(#clipPath1)" fill="none" x1="558" x2="574" y1="460" y2="601" stroke-dasharray="none" stroke="rgb(0,0,139)"/>
<rect x="572" y="599" clip-path="url(#clipPath1)" fill="rgb(0,0,139)" width="5" stroke-dasharray="none" height="5" stroke="none"/>
<line clip-path="url(#clipPath1)" fill="none" x1="574" x2="590" y1="601" y2="601" stroke-dasharray="none" stroke="rgb(0,0,139)"/>
<rect x="588" y="599" clip-path="url(#clipPath1)" fill="rgb(0,0,139)" width="5" stroke-dasharray="none" height="5" stroke="none"/>
<line clip-path="url(#clipPath1)" fill="none" x1="590" x2="606" y1="601" y2="554" stroke-dasharray="none" stroke="rgb(0,0,139)"/>
<rect x="604" y="552" clip-path="url(#clipPath1)" fill="rgb(0,0,139)" width="5" stroke-dasharray="none" height="5" stroke="none"/>
<line clip-path="url(#clipPath1)" fill="none" x1="606" x2="623" y1="554" y2="601" stroke-dasharray="none" stroke="rgb(0,0,139)"/>
<rect x="621" y="599" clip-path="url(#clipPath1)" fill="rgb(0,0,139)" width="5" stroke-dasharray="none" height="5" stroke="none"/>
<line clip-path="url(#clipPath1)" fill="none" x1="623" x2="639" y1="601" y2="601" stroke-dasharray="none" stroke="rgb(0,0,139)"/>
<rect x="637" y="599" clip-path="url(#clipPath1)" fill="rgb(0,0,139)" width="5" stroke-dasharray="none" height="5" stroke="none"/>
<line clip-path="url(#clipPath1)" fill="none" x1="639" x2="655" y1="601" y2="554" stroke-dasharray="none" stroke="rgb(0,0,139)"/>
<rect x="653" y="552" clip-path="url(#clipPath1)" fill="rgb(0,0,139)" width="5" stroke-dasharray="none" height="5" stroke="none"/>
<line clip-path="url(#clipPath1)" fill="none" x1="655" x2="671" y1="554" y2="554" stroke-dasharray="none" stroke="rgb(0,0,139)"/>
<rect x="669" y="552" clip-path="url(#clipPath1)" fill="rgb(0,0,139)" width="5" stroke-dasharray="none" height="5" stroke="none"/>
<line clip-path="url(#clipPath1)" fill="none" x1="671" x2="687" y1="554" y2="554" stroke-dasharray="none" stroke="rgb(0,0,139)"/>
<rect x="685" y="552" clip-path="url(#clipPath1)" fill="rgb(0,0,139)" width="5" stroke-dasharray="none" height="5" stroke="none"/>
<line clip-path="url(#clipPath1)" fill="none" x1="687" x2="703" y1="554" y2="601" stroke-dasharray="none" stroke="rgb(0,0,139)"/>
<rect x="701" y="599" clip-path="url(#clipPath1)" fill="rgb(0,0,139)" width="5" stroke-dasharray="none" height="5" stroke="none"/>
<line clip-path="url(#clipPath1)" fill="none" x1="703" x2="719" y1="601" y2="601" stroke-dasharray="none" stroke="rgb(0,0,139)"/>
<rect x="717" y="599" clip-path="url(#clipPath1)" fill="rgb(0,0,139)" width="5" stroke-dasharray="none" height="5" stroke="none"/>
<line clip-path="url(#clipPath1)" fill="none" x1="719" x2="736" y1="601" y2="601" stroke-dasharray="none" stroke="rgb(0,0,139)"/>
<rect x="734" y="599" clip-path="url(#clipPath1)" fill="rgb(0,0,139)" width="5" stroke-dasharray="none" height="5" stroke="none"/>
<line clip-path="url(#clipPath1)" fill="none" x1="736" x2="752" y1="601" y2="601" stroke-dasharray="none" stroke="rgb(0,0,139)"/>
<rect x="750" y="599" clip-path="url(#clipPath1)" fill="rgb(0,0,139)" width="5" stroke-dasharray="none" height="5" stroke="none"/>
<line clip-path="url(#clipPath1)" fill="none" x1="752" x2="768" y1="601" y2="554" stroke-dasharray="none" stroke="rgb(0,0,139)"/>
<rect x="766" y="552" clip-path="url(#clipPath1)" fill="rgb(0,0,139)" width="5" stroke-dasharray="none" height="5" stroke="none"/>
<line clip-path="url(#clipPath1)" fill="none" x1="768" x2="784" y1="554" y2="601" stroke-dasharray="none" stroke="rgb(0,0,139)"/>
<rect x="782" y="599" clip-path="url(#clipPath1)" fill="rgb(0,0,139)" width="5" stroke-dasharray="none" height="5" stroke="none"/>
<line clip-path="url(#clipPath1)" fill="none" x1="784" x2="800" y1="601" y2="554" stroke-dasharray="none" stroke="rgb(0,0,139)"/>
<rect x="798" y="552" clip-path="url(#clipPath1)" fill="rgb(0,0,139)" width="5" stroke-dasharray="none" height="5" stroke="none"/>
<line clip-path="url(#clipPath1)" fill="none" x1="800" x2="816" y1="554" y2="554" stroke-dasharray="none" stroke="rgb(0,0,139)"/>
<rect x="814" y="552" clip-path="url(#clipPath1)" fill="rgb(0,0,139)" width="5" stroke-dasharray="none" height="5" stroke="none"/>
<line clip-path="url(#clipPath1)" fill="none" x1="816" x2="832" y1="554" y2="601" stroke-dasharray="none" stroke="rgb(0,0,139)"/>
<rect x="830" y="599" clip-path="url(#clipPath1)" fill="rgb(0,0,139)" width="5" stroke-dasharray="none" height="5" stroke="none"/>
<line clip-path="url(#clipPath1)" fill="none" x1="832" x2="848" y1="601" y2="601" stroke-dasharray="none" stroke="rgb(0,0,139)"/>
<rect x="846" y="599" clip-path="url(#clipPath1)" fill="rgb(0,0,139)" width="5" stroke-dasharray="none" height="5" stroke="none"/>
<line clip-path="url(#clipPath1)" fill="none" x1="848" x2="865" y1="601" y2="601" stroke-dasharray="none" stroke="rgb(0,0,139)"/>
<rect x="863" y="599" clip-path="url(#clipPath1)" fill="rgb(0,0,139)" width="5" stroke-dasharray="none" height="5" stroke="none"/>
<line clip-path="url(#clipPath1)" fill="none" x1="865" x2="881" y1="601" y2="554" stroke-dasharray="none" stroke="rgb(0,0,139)"/>
<rect x="879" y="552" clip-path="url(#clipPath1)" fill="rgb(0,0,139)" width="5" stroke-dasharray="none" height="5" stroke="none"/>
<line clip-path="url(#clipPath1)" fill="none" x1="881" x2="897" y1="554" y2="554" stroke-dasharray="none" stroke="rgb(0,0,139)"/>
<rect x="895" y="552" clip-path="url(#clipPath1)" fill="rgb(0,0,139)" width="5" stroke-dasharray="none" height="5" stroke="none"/>
<line clip-path="url(#clipPath1)" fill="none" x1="897" x2="913" y1="554" y2="601" stroke-dasharray="none" stroke="rgb(0,0,139)"/>
<rect x="911" y="599" clip-path="url(#clipPath1)" fill="rgb(0,0,139)" width="5" stroke-dasharray="none" height="5" stroke="none"/>
<line clip-path="url(#clipPath1)" fill="none" x1="913" x2="929" y1="601" y2="554" stroke-dasharray="none" stroke="rgb(0,0,139)"/>
<rect x="927" y="552" clip-path="url(#clipPath1)" fill="rgb(0,0,139)" width="5" stroke-dasharray="none" height="5" stroke="none"/>
<line clip-path="url(#clipPath1)" fill="none" x1="929" x2="945" y1="554" y2="507" stroke-dasharray="none" stroke="rgb(0,0,139)"/>
<rect x="943" y="505" clip-path="url(#clipPath1)" fill="rgb(0,0,139)" width="5" stroke-dasharray="none" height="5" stroke="none"/>
<line clip-path="url(#clipPath1)" fill="none" x1="945" x2="961" y1="507" y2="601" stroke-dasharray="none" stroke="rgb(0,0,139)"/>
<rect x="959" y="599" clip-path="url(#clipPath1)" fill="rgb(0,0,139)" width="5" stroke-dasharray="none" height="5" stroke="none"/>
<line clip-path="url(#clipPath1)" fill="none" x1="961" x2="978" y1="601" y2="601" stroke-dasharray="none" stroke="rgb(0,0,139)"/>
<rect x="976" y="599" clip-path="url(#clipPath1)" fill="rgb(0,0,139)" width="5" stroke-dasharray="none" height="5" stroke="none"/>
<line clip-path="url(#clipPath1)" fill="none" x1="978" x2="994" y1="601" y2="601" stroke-dasharray="none" stroke="rgb(0,0,139)"/>
<rect x="992" y="599" clip-path="url(#clipPath1)" fill="rgb(0,0,139)" width="5" stroke-dasharray="none" height="5" stroke="none"/>
<line clip-path="url(#clipPath1)" fill="none" x1="994" x2="1010" y1="601" y2="554" stroke-dasharray="none" stroke="rgb(0,0,139)"/>
<rect x="1008" y="552" clip-path="url(#clipPath1)" fill="rgb(0,0,139)" width="5" stroke-dasharray="none" height="5" stroke="none"/>
<line clip-path="url(#clipPath1)" fill="none" x1="1010" x2="1026" y1="554" y2="601" stroke-dasharray="none" stroke="rgb(0,0,139)"/>
<rect x="1024" y="599" clip-path="url(#clipPath1)" fill="rgb(0,0,139)" width="5" stroke-dasharray="none" height="5" stroke="none"/>
<line clip-path="url(#clipPath1)" fill="none" x1="1026" x2="1042" y1="601" y2="601" stroke-dasharray="none" stroke="rgb(0,0,139)"/>
<rect x="1040" y="599" clip-path="url(#clipPath1)" fill="rgb(0,0,139)" width="5" stroke-dasharray="none" height="5" stroke="none"/>
<line clip-path="url(#clipPath1)" fill="none" x1="1042" x2="1058" y1="601" y2="507" stroke-dasharray="none" stroke="rgb(0,0,139)"/>
<rect x="1056" y="505" clip-path="url(#clipPath1)" fill="rgb(0,0,139)" width="5" stroke-dasharray="none" height="5" stroke="none"/>
<line clip-path="url(#clipPath1)" fill="none" x1="1058" x2="1074" y1="507" y2="554" stroke-dasharray="none" stroke="rgb(0,0,139)"/>
<rect x="1072" y="552" clip-path="url(#clipPath1)" fill="rgb(0,0,139)" width="5" stroke-dasharray="none" height="5" stroke="none"/>
<line clip-path="url(#clipPath1)" fill="none" x1="1074" x2="1091" y1="554" y2="601" stroke-dasharray="none" stroke="rgb(0,0,139)"/>
<rect x="1089" y="599" clip-path="url(#clipPath1)" fill="rgb(0,0,139)" width="5" stroke-dasharray="none" height="5" stroke="none"/>
<line clip-path="url(#clipPath1)" fill="none" x1="1091" x2="1107" y1="601" y2="601" stroke-dasharray="none" stroke="rgb(0,0,139)"/>
<rect x="1105" y="599" clip-path="url(#clipPath1)" fill="rgb(0,0,139)" width="5" stroke-dasharray="none" height="5" stroke="none"/>
<line clip-path="url(#clipPath1)" fill="none" x1="1107" x2="1123" y1="601" y2="554" stroke-dasharray="none" stroke="rgb(0,0,139)"/>
<rect x="1121" y="552" clip-path="url(#clipPath1)" fill="rgb(0,0,139)" width="5" stroke-dasharray="none" height="5" stroke="none"/>
<line clip-path="url(#clipPath1)" fill="none" x1="1123" x2="1139" y1="554" y2="554" stroke-dasharray="none" stroke="rgb(0,0,139)"/>
<rect x="1137" y="552" clip-path="url(#clipPath1)" fill="rgb(0,0,139)" width="5" stroke-dasharray="none" height="5" stroke="none"/>
<line clip-path="url(#clipPath1)" fill="none" x1="1139" x2="1155" y1="554" y2="554" stroke-dasharray="none" stroke="rgb(0,0,139)"/>
<rect x="1153" y="552" clip-path="url(#clipPath1)" fill="rgb(0,0,139)" width="5" stroke-dasharray="none" height="5" stroke="none"/>
<line clip-path="url(#clipPath1)" fill="none" x1="1155" x2="1171" y1="554" y2="554" stroke-dasharray="none" stroke="rgb(0,0,139)"/>
<rect x="1169" y="552" clip-path="url(#clipPath1)" fill="rgb(0,0,139)" width="5" stroke-dasharray="none" height="5" stroke="none"/>
<line clip-path="url(#clipPath1)" fill="none" x1="1171" x2="1187" y1="554" y2="507" stroke-dasharray="none" stroke="rgb(0,0,139)"/>
<rect x="1185" y="505" clip-path="url(#clipPath1)" fill="rgb(0,0,139)" width="5" stroke-dasharray="none" height="5" stroke="none"/>
<line clip-path="url(#clipPath1)" fill="none" x1="1187" x2="1204" y1="507" y2="601" stroke-dasharray="none" stroke="rgb(0,0,139)"/>
<rect x="1202" y="599" clip-path="url(#clipPath1)" fill="rgb(0,0,139)" width="5" stroke-dasharray="none" height="5" stroke="none"/>
<line clip-path="url(#clipPath1)" fill="none" x1="1204" x2="1220" y1="601" y2="554" stroke-dasharray="none" stroke="rgb(0,0,139)"/>
<rect x="1218" y="552" clip-path="url(#clipPath1)" fill="rgb(0,0,139)" width="5" stroke-dasharray="none" height="5" stroke="none"/>
<line clip-path="url(#clipPath1)" fill="none" x1="1220" x2="1236" y1="554" y2="601" stroke-dasharray="none" stroke="rgb(0,0,139)"/>
<rect x="1234" y="599" clip-path="url(#clipPath1)" fill="rgb(0,0,139)" width="5" stroke-dasharray="none" height="5" stroke="none"/>
<line clip-path="url(#clipPath1)" fill="none" x1="1236" x2="1252" y1="601" y2="554" stroke-dasharray="none" stroke="rgb(0,0,139)"/>
<rect x="1250" y="552" clip-path="url(#clipPath1)" fill="rgb(0,0,139)" width="5" stroke-dasharray="none" height="5" stroke="none"/>
<line clip-path="url(#clipPath1)" fill="none" x1="1252" x2="1268" y1="554" y2="601" stroke-dasharray="none" stroke="rgb(0,0,139)"/>
<rect x="1266" y="599" clip-path="url(#clipPath1)" fill="rgb(0,0,139)" width="5" stroke-dasharray="none" height="5" stroke="none"/>
<line clip-path="url(#clipPath1)" fill="none" x1="1268" x2="1284" y1="601" y2="554" stroke-dasharray="none" stroke="rgb(0,0,139)"/>
<rect x="1282" y="552" clip-path="url(#clipPath1)" fill="rgb(0,0,139)" width="5" stroke-dasharray="none" height="5" stroke="none"/>
<line clip-path="url(#clipPath1)" fill="none" x1="1284" x2="1300" y1="554" y2="554" stroke-dasharray="none" stroke="rgb(0,0,139)"/>
<rect x="1298" y="552" clip-path="url(#clipPath1)" fill="rgb(0,0,139)" width="5" stroke-dasharray="none" height="5" stroke="none"/>
<line clip-path="url(#clipPath1)" fill="none" x1="1300" x2="1317" y1="554" y2="554" stroke-dasharray="none" stroke="rgb(0,0,139)"/>
<rect x="1315" y="552" clip-path="url(#clipPath1)" fill="rgb(0,0,139)" width="5" stroke-dasharray="none" height="5" stroke="none"/>
<line clip-path="url(#clipPath1)" fill="none" x1="1317" x2="1333" y1="554" y2="601" stroke-dasharray="none" stroke="rgb(0,0,139)"/>
<rect x="1331" y="599" clip-path="url(#clipPath1)" fill="rgb(0,0,139)" width="5" stroke-dasharray="none" height="5" stroke="none"/>
<line clip-path="url(#clipPath1)" fill="none" x1="1333" x2="1349" y1="601" y2="601" stroke-dasharray="none" stroke="rgb(0,0,139)"/>
<rect x="1347" y="599" clip-path="url(#clipPath1)" fill="rgb(0,0,139)" width="5" stroke-dasharray="none" height="5" stroke="none"/>
<line clip-path="url(#clipPath1)" fill="none" x1="1349" x2="1365" y1="601" y2="601" stroke-dasharray="none" stroke="rgb(0,0,139)"/>
<rect x="1363" y="599" clip-path="url(#clipPath1)" fill="rgb(0,0,139)" width="5" stroke-dasharray="none" height="5" stroke="none"/>
<rect x="42" y="40" clip-path="url(#clipPath2)" fill="none" width="1340" stroke-dasharray="none" height="561" stroke="black"/>
</g>
<g text-rendering="geometricPrecision" font-size="13" font-family="'Arial'" stroke-linecap="butt">
<text xml:space="preserve" x="634" y="12" clip-path="url(#clipPath2)" stroke="none">Scheduler free channels</text>
<line clip-path="url(#clipPath2)" fill="none" x1="42" x2="1382" y1="38" y2="38"/>
<line clip-path="url(#clipPath2)" fill="none" x1="42" x2="1382" y1="603" y2="603"/>
<text xml:space="preserve" x="700" y="637" clip-path="url(#clipPath2)" stroke="none">time</text>
<line clip-path="url(#clipPath2)" fill="none" x1="42" x2="42" y1="34" y2="38"/>
<line clip-path="url(#clipPath2)" fill="none" x1="42" x2="42" y1="607" y2="603"/>
<text x="33" font-size="10" y="29" clip-path="url(#clipPath2)" stroke="none" xml:space="preserve">0.00</text>
<text x="33" font-size="10" y="618" clip-path="url(#clipPath2)" stroke="none" xml:space="preserve">0.00</text>
<line clip-path="url(#clipPath2)" fill="none" x1="58" x2="58" y1="36" y2="38"/>
<line clip-path="url(#clipPath2)" fill="none" x1="58" x2="58" y1="605" y2="603"/>
<line clip-path="url(#clipPath2)" fill="none" x1="74" x2="74" y1="36" y2="38"/>
<line clip-path="url(#clipPath2)" fill="none" x1="74" x2="74" y1="605" y2="603"/>
<line clip-path="url(#clipPath2)" fill="none" x1="90" x2="90" y1="36" y2="38"/>
<line clip-path="url(#clipPath2)" fill="none" x1="90" x2="90" y1="605" y2="603"/>
<line clip-path="url(#clipPath2)" fill="none" x1="106" x2="106" y1="36" y2="38"/>
<line clip-path="url(#clipPath2)" fill="none" x1="106" x2="106" y1="605" y2="603"/>
<line clip-path="url(#clipPath2)" fill="none" x1="122" x2="122" y1="34" y2="38"/>
<line clip-path="url(#clipPath2)" fill="none" x1="122" x2="122" y1="607" y2="603"/>
<text x="111" font-size="10" y="29" clip-path="url(#clipPath2)" stroke="none" xml:space="preserve">0.005</text>
<text x="111" font-size="10" y="618" clip-path="url(#clipPath2)" stroke="none" xml:space="preserve">0.005</text>
<line clip-path="url(#clipPath2)" fill="none" x1="138" x2="138" y1="36" y2="38"/>
<line clip-path="url(#clipPath2)" fill="none" x1="138" x2="138" y1="605" y2="603"/>
<line clip-path="url(#clipPath2)" fill="none" x1="154" x2="154" y1="36" y2="38"/>
<line clip-path="url(#clipPath2)" fill="none" x1="154" x2="154" y1="605" y2="603"/>
<line clip-path="url(#clipPath2)" fill="none" x1="171" x2="171" y1="36" y2="38"/>
<line clip-path="url(#clipPath2)" fill="none" x1="171" x2="171" y1="605" y2="603"/>
<line clip-path="url(#clipPath2)" fill="none" x1="187" x2="187" y1="36" y2="38"/>
<line clip-path="url(#clipPath2)" fill="none" x1="187" x2="187" y1="605" y2="603"/>
<line clip-path="url(#clipPath2)" fill="none" x1="203" x2="203" y1="34" y2="38"/>
<line clip-path="url(#clipPath2)" fill="none" x1="203" x2="203" y1="607" y2="603"/>
<text x="192" font-size="10" y="29" clip-path="url(#clipPath2)" stroke="none" xml:space="preserve">0.010</text>
<text x="192" font-size="10" y="618" clip-path="url(#clipPath2)" stroke="none" xml:space="preserve">0.010</text>
<line clip-path="url(#clipPath2)" fill="none" x1="219" x2="219" y1="36" y2="38"/>
<line clip-path="url(#clipPath2)" fill="none" x1="219" x2="219" y1="605" y2="603"/>
<line clip-path="url(#clipPath2)" fill="none" x1="235" x2="235" y1="36" y2="38"/>
<line clip-path="url(#clipPath2)" fill="none" x1="235" x2="235" y1="605" y2="603"/>
<line clip-path="url(#clipPath2)" fill="none" x1="251" x2="251" y1="36" y2="38"/>
<line clip-path="url(#clipPath2)" fill="none" x1="251" x2="251" y1="605" y2="603"/>
<line clip-path="url(#clipPath2)" fill="none" x1="267" x2="267" y1="36" y2="38"/>
<line clip-path="url(#clipPath2)" fill="none" x1="267" x2="267" y1="605" y2="603"/>
<line clip-path="url(#clipPath2)" fill="none" x1="284" x2="284" y1="34" y2="38"/>
<line clip-path="url(#clipPath2)" fill="none" x1="284" x2="284" y1="607" y2="603"/>
<text x="273" font-size="10" y="29" clip-path="url(#clipPath2)" stroke="none" xml:space="preserve">0.015</text>
<text x="273" font-size="10" y="618" clip-path="url(#clipPath2)" stroke="none" xml:space="preserve">0.015</text>
<line clip-path="url(#clipPath2)" fill="none" x1="300" x2="300" y1="36" y2="38"/>
<line clip-path="url(#clipPath2)" fill="none" x1="300" x2="300" y1="605" y2="603"/>
<line clip-path="url(#clipPath2)" fill="none" x1="316" x2="316" y1="36" y2="38"/>
<line clip-path="url(#clipPath2)" fill="none" x1="316" x2="316" y1="605" y2="603"/>
<line clip-path="url(#clipPath2)" fill="none" x1="332" x2="332" y1="36" y2="38"/>
<line clip-path="url(#clipPath2)" fill="none" x1="332" x2="332" y1="605" y2="603"/>
<line clip-path="url(#clipPath2)" fill="none" x1="348" x2="348" y1="36" y2="38"/>
<line clip-path="url(#clipPath2)" fill="none" x1="348" x2="348" y1="605" y2="603"/>
<line clip-path="url(#clipPath2)" fill="none" x1="364" x2="364" y1="34" y2="38"/>
<line clip-path="url(#clipPath2)" fill="none" x1="364" x2="364" y1="607" y2="603"/>
<text x="353" font-size="10" y="29" clip-path="url(#clipPath2)" stroke="none" xml:space="preserve">0.020</text>
<text x="353" font-size="10" y="618" clip-path="url(#clipPath2)" stroke="none" xml:space="preserve">0.020</text>
<line clip-path="url(#clipPath2)" fill="none" x1="380" x2="380" y1="36" y2="38"/>
<line clip-path="url(#clipPath2)" fill="none" x1="380" x2="380" y1="605" y2="603"/>
<line clip-path="url(#clipPath2)" fill="none" x1="397" x2="397" y1="36" y2="38"/>
<line clip-path="url(#clipPath2)" fill="none" x1="397" x2="397" y1="605" y2="603"/>
<line clip-path="url(#clipPath2)" fill="none" x1="413" x2="413" y1="36" y2="38"/>
<line clip-path="url(#clipPath2)" fill="none" x1="413" x2="413" y1="605" y2="603"/>
<line clip-path="url(#clipPath2)" fill="none" x1="429" x2="429" y1="36" y2="38"/>
<line clip-path="url(#clipPath2)" fill="none" x1="429" x2="429" y1="605" y2="603"/>
<line clip-path="url(#clipPath2)" fill="none" x1="445" x2="445" y1="34" y2="38"/>
<line clip-path="url(#clipPath2)" fill="none" x1="445" x2="445" y1="607" y2="603"/>
<text x="434" font-size="10" y="29" clip-path="url(#clipPath2)" stroke="none" xml:space="preserve">0.025</text>
<text x="434" font-size="10" y="618" clip-path="url(#clipPath2)" stroke="none" xml:space="preserve">0.025</text>
<line clip-path="url(#clipPath2)" fill="none" x1="461" x2="461" y1="36" y2="38"/>
<line clip-path="url(#clipPath2)" fill="none" x1="461" x2="461" y1="605" y2="603"/>
<line clip-path="url(#clipPath2)" fill="none" x1="477" x2="477" y1="36" y2="38"/>
<line clip-path="url(#clipPath2)" fill="none" x1="477" x2="477" y1="605" y2="603"/>
<line clip-path="url(#clipPath2)" fill="none" x1="493" x2="493" y1="36" y2="38"/>
<line clip-path="url(#clipPath2)" fill="none" x1="493" x2="493" y1="605" y2="603"/>
<line clip-path="url(#clipPath2)" fill="none" x1="510" x2="510" y1="36" y2="38"/>
<line clip-path="url(#clipPath2)" fill="none" x1="510" x2="510" y1="605" y2="603"/>
<line clip-path="url(#clipPath2)" fill="none" x1="526" x2="526" y1="34" y2="38"/>
<line clip-path="url(#clipPath2)" fill="none" x1="526" x2="526" y1="607" y2="603"/>
<text x="515" font-size="10" y="29" clip-path="url(#clipPath2)" stroke="none" xml:space="preserve">0.030</text>
<text x="515" font-size="10" y="618" clip-path="url(#clipPath2)" stroke="none" xml:space="preserve">0.030</text>
<line clip-path="url(#clipPath2)" fill="none" x1="542" x2="542" y1="36" y2="38"/>
<line clip-path="url(#clipPath2)" fill="none" x1="542" x2="542" y1="605" y2="603"/>
<line clip-path="url(#clipPath2)" fill="none" x1="558" x2="558" y1="36" y2="38"/>
<line clip-path="url(#clipPath2)" fill="none" x1="558" x2="558" y1="605" y2="603"/>
<line clip-path="url(#clipPath2)" fill="none" x1="574" x2="574" y1="36" y2="38"/>
<line clip-path="url(#clipPath2)" fill="none" x1="574" x2="574" y1="605" y2="603"/>
<line clip-path="url(#clipPath2)" fill="none" x1="590" x2="590" y1="36" y2="38"/>
<line clip-path="url(#clipPath2)" fill="none" x1="590" x2="590" y1="605" y2="603"/>
<line clip-path="url(#clipPath2)" fill="none" x1="606" x2="606" y1="34" y2="38"/>
<line clip-path="url(#clipPath2)" fill="none" x1="606" x2="606" y1="607" y2="603"/>
<text x="595" font-size="10" y="29" clip-path="url(#clipPath2)" stroke="none" xml:space="preserve">0.035</text>
<text x="595" font-size="10" y="618" clip-path="url(#clipPath2)" stroke="none" xml:space="preserve">0.035</text>
<line clip-path="url(#clipPath2)" fill="none" x1="623" x2="623" y1="36" y2="38"/>
<line clip-path="url(#clipPath2)" fill="none" x1="623" x2="623" y1="605" y2="603"/>
<line clip-path="url(#clipPath2)" fill="none" x1="639" x2="639" y1="36" y2="38"/>
<line clip-path="url(#clipPath2)" fill="none" x1="639" x2="639" y1="605" y2="603"/>
<line clip-path="url(#clipPath2)" fill="none" x1="655" x2="655" y1="36" y2="38"/>
<line clip-path="url(#clipPath2)" fill="none" x1="655" x2="655" y1="605" y2="603"/>
<line clip-path="url(#clipPath2)" fill="none" x1="671" x2="671" y1="36" y2="38"/>
<line clip-path="url(#clipPath2)" fill="none" x1="671" x2="671" y1="605" y2="603"/>
<line clip-path="url(#clipPath2)" fill="none" x1="687" x2="687" y1="34" y2="38"/>
<line clip-path="url(#clipPath2)" fill="none" x1="687" x2="687" y1="607" y2="603"/>
<text x="676" font-size="10" y="29" clip-path="url(#clipPath2)" stroke="none" xml:space="preserve">0.040</text>
<text x="676" font-size="10" y="618" clip-path="url(#clipPath2)" stroke="none" xml:space="preserve">0.040</text>
<line clip-path="url(#clipPath2)" fill="none" x1="703" x2="703" y1="36" y2="38"/>
<line clip-path="url(#clipPath2)" fill="none" x1="703" x2="703" y1="605" y2="603"/>
<line clip-path="url(#clipPath2)" fill="none" x1="719" x2="719" y1="36" y2="38"/>
<line clip-path="url(#clipPath2)" fill="none" x1="719" x2="719" y1="605" y2="603"/>
<line clip-path="url(#clipPath2)" fill="none" x1="736" x2="736" y1="36" y2="38"/>
<line clip-path="url(#clipPath2)" fill="none" x1="736" x2="736" y1="605" y2="603"/>
<line clip-path="url(#clipPath2)" fill="none" x1="752" x2="752" y1="36" y2="38"/>
<line clip-path="url(#clipPath2)" fill="none" x1="752" x2="752" y1="605" y2="603"/>
<line clip-path="url(#clipPath2)" fill="none" x1="768" x2="768" y1="34" y2="38"/>
<line clip-path="url(#clipPath2)" fill="none" x1="768" x2="768" y1="607" y2="603"/>
<text x="757" font-size="10" y="29" clip-path="url(#clipPath2)" stroke="none" xml:space="preserve">0.045</text>
<text x="757" font-size="10" y="618" clip-path="url(#clipPath2)" stroke="none" xml:space="preserve">0.045</text>
<line clip-path="url(#clipPath2)" fill="none" x1="784" x2="784" y1="36" y2="38"/>
<line clip-path="url(#clipPath2)" fill="none" x1="784" x2="784" y1="605" y2="603"/>
<line clip-path="url(#clipPath2)" fill="none" x1="800" x2="800" y1="36" y2="38"/>
<line clip-path="url(#clipPath2)" fill="none" x1="800" x2="800" y1="605" y2="603"/>
<line clip-path="url(#clipPath2)" fill="none" x1="816" x2="816" y1="36" y2="38"/>
<line clip-path="url(#clipPath2)" fill="none" x1="816" x2="816" y1="605" y2="603"/>
<line clip-path="url(#clipPath2)" fill="none" x1="832" x2="832" y1="36" y2="38"/>
<line clip-path="url(#clipPath2)" fill="none" x1="832" x2="832" y1="605" y2="603"/>
<line clip-path="url(#clipPath2)" fill="none" x1="848" x2="848" y1="34" y2="38"/>
<line clip-path="url(#clipPath2)" fill="none" x1="848" x2="848" y1="607" y2="603"/>
<text x="837" font-size="10" y="29" clip-path="url(#clipPath2)" stroke="none" xml:space="preserve">0.050</text>
<text x="837" font-size="10" y="618" clip-path="url(#clipPath2)" stroke="none" xml:space="preserve">0.050</text>
<line clip-path="url(#clipPath2)" fill="none" x1="865" x2="865" y1="36" y2="38"/>
<line clip-path="url(#clipPath2)" fill="none" x1="865" x2="865" y1="605" y2="603"/>
<line clip-path="url(#clipPath2)" fill="none" x1="881" x2="881" y1="36" y2="38"/>
<line clip-path="url(#clipPath2)" fill="none" x1="881" x2="881" y1="605" y2="603"/>
<line clip-path="url(#clipPath2)" fill="none" x1="897" x2="897" y1="36" y2="38"/>
<line clip-path="url(#clipPath2)" fill="none" x1="897" x2="897" y1="605" y2="603"/>
<line clip-path="url(#clipPath2)" fill="none" x1="913" x2="913" y1="36" y2="38"/>
<line clip-path="url(#clipPath2)" fill="none" x1="913" x2="913" y1="605" y2="603"/>
<line clip-path="url(#clipPath2)" fill="none" x1="929" x2="929" y1="34" y2="38"/>
<line clip-path="url(#clipPath2)" fill="none" x1="929" x2="929" y1="607" y2="603"/>
<text x="918" font-size="10" y="29" clip-path="url(#clipPath2)" stroke="none" xml:space="preserve">0.055</text>
<text x="918" font-size="10" y="618" clip-path="url(#clipPath2)" stroke="none" xml:space="preserve">0.055</text>
<line clip-path="url(#clipPath2)" fill="none" x1="945" x2="945" y1="36" y2="38"/>
<line clip-path="url(#clipPath2)" fill="none" x1="945" x2="945" y1="605" y2="603"/>
<line clip-path="url(#clipPath2)" fill="none" x1="961" x2="961" y1="36" y2="38"/>
<line clip-path="url(#clipPath2)" fill="none" x1="961" x2="961" y1="605" y2="603"/>
<line clip-path="url(#clipPath2)" fill="none" x1="978" x2="978" y1="36" y2="38"/>
<line clip-path="url(#clipPath2)" fill="none" x1="978" x2="978" y1="605" y2="603"/>
<line clip-path="url(#clipPath2)" fill="none" x1="994" x2="994" y1="36" y2="38"/>
<line clip-path="url(#clipPath2)" fill="none" x1="994" x2="994" y1="605" y2="603"/>
<line clip-path="url(#clipPath2)" fill="none" x1="1010" x2="1010" y1="34" y2="38"/>
<line clip-path="url(#clipPath2)" fill="none" x1="1010" x2="1010" y1="607" y2="603"/>
<text x="999" font-size="10" y="29" clip-path="url(#clipPath2)" stroke="none" xml:space="preserve">0.060</text>
<text x="999" font-size="10" y="618" clip-path="url(#clipPath2)" stroke="none" xml:space="preserve">0.060</text>
<line clip-path="url(#clipPath2)" fill="none" x1="1026" x2="1026" y1="36" y2="38"/>
<line clip-path="url(#clipPath2)" fill="none" x1="1026" x2="1026" y1="605" y2="603"/>
<line clip-path="url(#clipPath2)" fill="none" x1="1042" x2="1042" y1="36" y2="38"/>
<line clip-path="url(#clipPath2)" fill="none" x1="1042" x2="1042" y1="605" y2="603"/>
<line clip-path="url(#clipPath2)" fill="none" x1="1058" x2="1058" y1="36" y2="38"/>
<line clip-path="url(#clipPath2)" fill="none" x1="1058" x2="1058" y1="605" y2="603"/>
<line clip-path="url(#clipPath2)" fill="none" x1="1074" x2="1074" y1="36" y2="38"/>
<line clip-path="url(#clipPath2)" fill="none" x1="1074" x2="1074" y1="605" y2="603"/>
<line clip-path="url(#clipPath2)" fill="none" x1="1091" x2="1091" y1="34" y2="38"/>
<line clip-path="url(#clipPath2)" fill="none" x1="1091" x2="1091" y1="607" y2="603"/>
<text x="1080" font-size="10" y="29" clip-path="url(#clipPath2)" stroke="none" xml:space="preserve">0.065</text>
<text x="1080" font-size="10" y="618" clip-path="url(#clipPath2)" stroke="none" xml:space="preserve">0.065</text>
<line clip-path="url(#clipPath2)" fill="none" x1="1107" x2="1107" y1="36" y2="38"/>
<line clip-path="url(#clipPath2)" fill="none" x1="1107" x2="1107" y1="605" y2="603"/>
<line clip-path="url(#clipPath2)" fill="none" x1="1123" x2="1123" y1="36" y2="38"/>
<line clip-path="url(#clipPath2)" fill="none" x1="1123" x2="1123" y1="605" y2="603"/>
<line clip-path="url(#clipPath2)" fill="none" x1="1139" x2="1139" y1="36" y2="38"/>
<line clip-path="url(#clipPath2)" fill="none" x1="1139" x2="1139" y1="605" y2="603"/>
<line clip-path="url(#clipPath2)" fill="none" x1="1155" x2="1155" y1="36" y2="38"/>
<line clip-path="url(#clipPath2)" fill="none" x1="1155" x2="1155" y1="605" y2="603"/>
<line clip-path="url(#clipPath2)" fill="none" x1="1171" x2="1171" y1="34" y2="38"/>
<line clip-path="url(#clipPath2)" fill="none" x1="1171" x2="1171" y1="607" y2="603"/>
<text x="1160" font-size="10" y="29" clip-path="url(#clipPath2)" stroke="none" xml:space="preserve">0.070</text>
<text x="1160" font-size="10" y="618" clip-path="url(#clipPath2)" stroke="none" xml:space="preserve">0.070</text>
<line clip-path="url(#clipPath2)" fill="none" x1="1187" x2="1187" y1="36" y2="38"/>
<line clip-path="url(#clipPath2)" fill="none" x1="1187" x2="1187" y1="605" y2="603"/>
<line clip-path="url(#clipPath2)" fill="none" x1="1204" x2="1204" y1="36" y2="38"/>
<line clip-path="url(#clipPath2)" fill="none" x1="1204" x2="1204" y1="605" y2="603"/>
<line clip-path="url(#clipPath2)" fill="none" x1="1220" x2="1220" y1="36" y2="38"/>
<line clip-path="url(#clipPath2)" fill="none" x1="1220" x2="1220" y1="605" y2="603"/>
<line clip-path="url(#clipPath2)" fill="none" x1="1236" x2="1236" y1="36" y2="38"/>
<line clip-path="url(#clipPath2)" fill="none" x1="1236" x2="1236" y1="605" y2="603"/>
<line clip-path="url(#clipPath2)" fill="none" x1="1252" x2="1252" y1="34" y2="38"/>
<line clip-path="url(#clipPath2)" fill="none" x1="1252" x2="1252" y1="607" y2="603"/>
<text x="1241" font-size="10" y="29" clip-path="url(#clipPath2)" stroke="none" xml:space="preserve">0.075</text>
<text x="1241" font-size="10" y="618" clip-path="url(#clipPath2)" stroke="none" xml:space="preserve">0.075</text>
<line clip-path="url(#clipPath2)" fill="none" x1="1268" x2="1268" y1="36" y2="38"/>
<line clip-path="url(#clipPath2)" fill="none" x1="1268" x2="1268" y1="605" y2="603"/>
<line clip-path="url(#clipPath2)" fill="none" x1="1284" x2="1284" y1="36" y2="38"/>
<line clip-path="url(#clipPath2)" fill="none" x1="1284" x2="1284" y1="605" y2="603"/>
<line clip-path="url(#clipPath2)" fill="none" x1="1300" x2="1300" y1="36" y2="38"/>
<line clip-path="url(#clipPath2)" fill="none" x1="1300" x2="1300" y1="605" y2="603"/>
<line clip-path="url(#clipPath2)" fill="none" x1="1317" x2="1317" y1="36" y2="38"/>
<line clip-path="url(#clipPath2)" fill="none" x1="1317" x2="1317" y1="605" y2="603"/>
<line clip-path="url(#clipPath2)" fill="none" x1="1333" x2="1333" y1="34" y2="38"/>
<line clip-path="url(#clipPath2)" fill="none" x1="1333" x2="1333" y1="607" y2="603"/>
<text x="1322" font-size="10" y="29" clip-path="url(#clipPath2)" stroke="none" xml:space="preserve">0.080</text>
<text x="1322" font-size="10" y="618" clip-path="url(#clipPath2)" stroke="none" xml:space="preserve">0.080</text>
<line clip-path="url(#clipPath2)" fill="none" x1="1349" x2="1349" y1="36" y2="38"/>
<line clip-path="url(#clipPath2)" fill="none" x1="1349" x2="1349" y1="605" y2="603"/>
<line clip-path="url(#clipPath2)" fill="none" x1="1365" x2="1365" y1="36" y2="38"/>
<line clip-path="url(#clipPath2)" fill="none" x1="1365" x2="1365" y1="605" y2="603"/>
<line clip-path="url(#clipPath2)" fill="none" x1="1381" x2="1381" y1="36" y2="38"/>
<line clip-path="url(#clipPath2)" fill="none" x1="1381" x2="1381" y1="605" y2="603"/>
<line clip-path="url(#clipPath2)" fill="none" x1="40" x2="40" y1="40" y2="601"/>
<line clip-path="url(#clipPath2)" fill="none" x1="1384" x2="1384" y1="40" y2="601"/>
<line clip-path="url(#clipPath2)" fill="none" x1="36" x2="40" y1="601" y2="601"/>
<line clip-path="url(#clipPath2)" fill="none" x1="1388" x2="1384" y1="601" y2="601"/>
<text x="30" font-size="10" y="604" clip-path="url(#clipPath2)" stroke="none" xml:space="preserve">0</text>
<text x="1391" font-size="10" y="604" clip-path="url(#clipPath2)" stroke="none" xml:space="preserve">0</text>
<line clip-path="url(#clipPath2)" fill="none" x1="38" x2="40" y1="554" y2="554"/>
<line clip-path="url(#clipPath2)" fill="none" x1="1386" x2="1384" y1="554" y2="554"/>
<line clip-path="url(#clipPath2)" fill="none" x1="36" x2="40" y1="507" y2="507"/>
<line clip-path="url(#clipPath2)" fill="none" x1="1388" x2="1384" y1="507" y2="507"/>
<text x="30" font-size="10" y="510" clip-path="url(#clipPath2)" stroke="none" xml:space="preserve">2</text>
<text x="1391" font-size="10" y="510" clip-path="url(#clipPath2)" stroke="none" xml:space="preserve">2</text>
<line clip-path="url(#clipPath2)" fill="none" x1="38" x2="40" y1="460" y2="460"/>
<line clip-path="url(#clipPath2)" fill="none" x1="1386" x2="1384" y1="460" y2="460"/>
<line clip-path="url(#clipPath2)" fill="none" x1="36" x2="40" y1="414" y2="414"/>
<line clip-path="url(#clipPath2)" fill="none" x1="1388" x2="1384" y1="414" y2="414"/>
<text x="30" font-size="10" y="417" clip-path="url(#clipPath2)" stroke="none" xml:space="preserve">4</text>
<text x="1391" font-size="10" y="417" clip-path="url(#clipPath2)" stroke="none" xml:space="preserve">4</text>
<line clip-path="url(#clipPath2)" fill="none" x1="38" x2="40" y1="367" y2="367"/>
<line clip-path="url(#clipPath2)" fill="none" x1="1386" x2="1384" y1="367" y2="367"/>
<line clip-path="url(#clipPath2)" fill="none" x1="36" x2="40" y1="320" y2="320"/>
<line clip-path="url(#clipPath2)" fill="none" x1="1388" x2="1384" y1="320" y2="320"/>
<text x="30" font-size="10" y="323" clip-path="url(#clipPath2)" stroke="none" xml:space="preserve">6</text>
<text x="1391" font-size="10" y="323" clip-path="url(#clipPath2)" stroke="none" xml:space="preserve">6</text>
<line clip-path="url(#clipPath2)" fill="none" x1="38" x2="40" y1="273" y2="273"/>
<line clip-path="url(#clipPath2)" fill="none" x1="1386" x2="1384" y1="273" y2="273"/>
<line clip-path="url(#clipPath2)" fill="none" x1="36" x2="40" y1="227" y2="227"/>
<line clip-path="url(#clipPath2)" fill="none" x1="1388" x2="1384" y1="227" y2="227"/>
<text x="30" font-size="10" y="230" clip-path="url(#clipPath2)" stroke="none" xml:space="preserve">8</text>
<text x="1391" font-size="10" y="230" clip-path="url(#clipPath2)" stroke="none" xml:space="preserve">8</text>
<line clip-path="url(#clipPath2)" fill="none" x1="38" x2="40" y1="180" y2="180"/>
<line clip-path="url(#clipPath2)" fill="none" x1="1386" x2="1384" y1="180" y2="180"/>
<line clip-path="url(#clipPath2)" fill="none" x1="36" x2="40" y1="133" y2="133"/>
<line clip-path="url(#clipPath2)" fill="none" x1="1388" x2="1384" y1="133" y2="133"/>
<text x="25" font-size="10" y="136" clip-path="url(#clipPath2)" stroke="none" xml:space="preserve">10</text>
<text x="1391" font-size="10" y="136" clip-path="url(#clipPath2)" stroke="none" xml:space="preserve">10</text>
<line clip-path="url(#clipPath2)" fill="none" x1="38" x2="40" y1="86" y2="86"/>
<line clip-path="url(#clipPath2)" fill="none" x1="1386" x2="1384" y1="86" y2="86"/>
<line clip-path="url(#clipPath2)" fill="none" x1="36" x2="40" y1="40" y2="40"/>
<line clip-path="url(#clipPath2)" fill="none" x1="1388" x2="1384" y1="40" y2="40"/>
<text x="25" font-size="10" y="43" clip-path="url(#clipPath2)" stroke="none" xml:space="preserve">12</text>
<text x="1391" font-size="10" y="43" clip-path="url(#clipPath2)" stroke="none" xml:space="preserve">12</text>
</g>
</g>
</svg>
