<?xml version="1.0" encoding="UTF-8"?><svg xmlns="http://www.w3.org/2000/svg" xmlns:xlink="http://www.w3.org/1999/xlink" stroke-dasharray="none" shape-rendering="auto" font-family="'Dialog'" width="1408" text-rendering="auto" fill-opacity="1" contentScriptType="text/ecmascript" color-interpolation="auto" color-rendering="auto" preserveAspectRatio="xMidYMid meet" font-size="12" fill="black" stroke="black" image-rendering="auto" stroke-miterlimit="10" zoomAndPan="magnify" version="1.0" stroke-linecap="square" stroke-linejoin="miter" contentStyleType="text/css" font-style="normal" height="641" stroke-width="1" stroke-dashoffset="0" font-weight="normal" stroke-opacity="1">
<!--Generated by the Batik Graphics2D SVG Generator-->
<defs id="genericDefs"/>
<g>
<defs id="defs1">
<clipPath clipPathUnits="userSpaceOnUse" id="clipPath1">
<path d="M41 39 L1383 39 L1383 602 L41 602 L41 39 Z"/>
</clipPath>
<clipPath clipPathUnits="userSpaceOnUse" id="clipPath2">
<path d="M-1 -1 L1409 -1 L1409 642 L-1 642 L-1 -1 Z"/>
</clipPath>
</defs>
<g fill="white" text-rendering="geometricPrecision" font-family="'Segoe UI'" stroke-linejoin="round" stroke="white" stroke-width="0" stroke-miterlimit="0">
<rect x="42" y="40" clip-path="url(#clipPath1)" width="1340" height="561" stroke="none"/>
</g>
<g stroke-linecap="butt" fill="rgb(204,204,204)" text-rendering="geometricPrecision" font-family="'Segoe UI'" stroke-dasharray="3,3" stroke="rgb(204,204,204)">
<line clip-path="url(#clipPath1)" fill="none" x1="42" x2="42" y1="40" y2="601"/>
<line clip-path="url(#clipPath1)" fill="none" x1="126" x2="126" y1="40" y2="601"/>
<line clip-path="url(#clipPath1)" fill="none" x1="211" x2="211" y1="40" y2="601"/>
<line clip-path="url(#clipPath1)" fill="none" x1="296" x2="296" y1="40" y2="601"/>
<line clip-path="url(#clipPath1)" fill="none" x1="381" x2="381" y1="40" y2="601"/>
<line clip-path="url(#clipPath1)" fill="none" x1="466" x2="466" y1="40" y2="601"/>
<line clip-path="url(#clipPath1)" fill="none" x1="551" x2="551" y1="40" y2="601"/>
<line clip-path="url(#clipPath1)" fill="none" x1="635" x2="635" y1="40" y2="601"/>
<line clip-path="url(#clipPath1)" fill="none" x1="720" x2="720" y1="40" y2="601"/>
<line clip-path="url(#clipPath1)" fill="none" x1="805" x2="805" y1="40" y2="601"/>
<line clip-path="url(#clipPath1)" fill="none" x1="890" x2="890" y1="40" y2="601"/>
<line clip-path="url(#clipPath1)" fill="none" x1="975" x2="975" y1="40" y2="601"/>
<line clip-path="url(#clipPath1)" fill="none" x1="1060" x2="1060" y1="40" y2="601"/>
<line clip-path="url(#clipPath1)" fill="none" x1="1144" x2="1144" y1="40" y2="601"/>
<line clip-path="url(#clipPath1)" fill="none" x1="1229" x2="1229" y1="40" y2="601"/>
<line clip-path="url(#clipPath1)" fill="none" x1="1314" x2="1314" y1="40" y2="601"/>
<line clip-path="url(#clipPath1)" fill="none" x1="42" x2="1382" y1="601" y2="601"/>
<line clip-path="url(#clipPath1)" fill="none" x1="42" x2="1382" y1="507" y2="507"/>
<line clip-path="url(#clipPath1)" fill="none" x1="42" x2="1382" y1="414" y2="414"/>
<line clip-path="url(#clipPath1)" fill="none" x1="42" x2="1382" y1="320" y2="320"/>
<line clip-path="url(#clipPath1)" fill="none" x1="42" x2="1382" y1="227" y2="227"/>
<line clip-path="url(#clipPath1)" fill="none" x1="42" x2="1382" y1="133" y2="133"/>
<line clip-path="url(#clipPath1)" fill="none" x1="42" x2="1382" y1="40" y2="40"/>
<rect x="56" y="178" clip-path="url(#clipPath1)" fill="rgb(0,0,139)" width="5" height="5" stroke="none"/>
<line clip-path="url(#clipPath1)" fill="none" x1="58" x2="75" y1="180" y2="601" stroke-dasharray="none" stroke="rgb(0,0,139)"/>
<rect x="73" y="599" clip-path="url(#clipPath1)" fill="rgb(0,0,139)" width="5" stroke-dasharray="none" height="5" stroke="none"/>
<line clip-path="url(#clipPath1)" fill="none" x1="75" x2="92" y1="601" y2="601" stroke-dasharray="none" stroke="rgb(0,0,139)"/>
<rect x="90" y="599" clip-path="url(#clipPath1)" fill="rgb(0,0,139)" width="5" stroke-dasharray="none" height="5" stroke="none"/>
<line clip-path="url(#clipPath1)" fill="none" x1="92" x2="109" y1="601" y2="601" stroke-dasharray="none" stroke="rgb(0,0,139)"/>
<rect x="107" y="599" clip-path="url(#clipPath1)" fill="rgb(0,0,139)" width="5" stroke-dasharray="none" height="5" stroke="none"/>
<line clip-path="url(#clipPath1)" fill="none" x1="109" x2="126" y1="601" y2="601" stroke-dasharray="none" stroke="rgb(0,0,139)"/>
<rect x="124" y="599" clip-path="url(#clipPath1)" fill="rgb(0,0,139)" width="5" stroke-dasharray="none" height="5" stroke="none"/>
<line clip-path="url(#clipPath1)" fill="none" x1="126" x2="143" y1="601" y2="601" stroke-dasharray="none" stroke="rgb(0,0,139)"/>
<rect x="141" y="599" clip-path="url(#clipPath1)" fill="rgb(0,0,139)" width="5" stroke-dasharray="none" height="5" stroke="none"/>
<line clip-path="url(#clipPath1)" fill="none" x1="143" x2="160" y1="601" y2="601" stroke-dasharray="none" stroke="rgb(0,0,139)"/>
<rect x="158" y="599" clip-path="url(#clipPath1)" fill="rgb(0,0,139)" width="5" stroke-dasharray="none" height="5" stroke="none"/>
<line clip-path="url(#clipPath1)" fill="none" x1="160" x2="177" y1="601" y2="460" stroke-dasharray="none" stroke="rgb(0,0,139)"/>
<rect x="175" y="458" clip-path="url(#clipPath1)" fill="rgb(0,0,139)" width="5" stroke-dasharray="none" height="5" stroke="none"/>
<line clip-path="url(#clipPath1)" fill="none" x1="177" x2="194" y1="460" y2="601" stroke-dasharray="none" stroke="rgb(0,0,139)"/>
<rect x="192" y="599" clip-path="url(#clipPath1)" fill="rgb(0,0,139)" width="5" stroke-dasharray="none" height="5" stroke="none"/>
<line clip-path="url(#clipPath1)" fill="none" x1="194" x2="211" y1="601" y2="601" stroke-dasharray="none" stroke="rgb(0,0,139)"/>
<rect x="209" y="599" clip-path="url(#clipPath1)" fill="rgb(0,0,139)" width="5" stroke-dasharray="none" height="5" stroke="none"/>
<line clip-path="url(#clipPath1)" fill="none" x1="211" x2="228" y1="601" y2="601" stroke-dasharray="none" stroke="rgb(0,0,139)"/>
<rect x="226" y="599" clip-path="url(#clipPath1)" fill="rgb(0,0,139)" width="5" stroke-dasharray="none" height="5" stroke="none"/>
<line clip-path="url(#clipPath1)" fill="none" x1="228" x2="245" y1="601" y2="601" stroke-dasharray="none" stroke="rgb(0,0,139)"/>
<rect x="243" y="599" clip-path="url(#clipPath1)" fill="rgb(0,0,139)" width="5" stroke-dasharray="none" height="5" stroke="none"/>
<line clip-path="url(#clipPath1)" fill="none" x1="245" x2="262" y1="601" y2="601" stroke-dasharray="none" stroke="rgb(0,0,139)"/>
<rect x="260" y="599" clip-path="url(#clipPath1)" fill="rgb(0,0,139)" width="5" stroke-dasharray="none" height="5" stroke="none"/>
<line clip-path="url(#clipPath1)" fill="none" x1="262" x2="279" y1="601" y2="554" stroke-dasharray="none" stroke="rgb(0,0,139)"/>
<rect x="277" y="552" clip-path="url(#clipPath1)" fill="rgb(0,0,139)" width="5" stroke-dasharray="none" height="5" stroke="none"/>
<line clip-path="url(#clipPath1)" fill="none" x1="279" x2="296" y1="554" y2="554" stroke-dasharray="none" stroke="rgb(0,0,139)"/>
<rect x="294" y="552" clip-path="url(#clipPath1)" fill="rgb(0,0,139)" width="5" stroke-dasharray="none" height="5" stroke="none"/>
<line clip-path="url(#clipPath1)" fill="none" x1="296" x2="313" y1="554" y2="507" stroke-dasharray="none" stroke="rgb(0,0,139)"/>
<rect x="311" y="505" clip-path="url(#clipPath1)" fill="rgb(0,0,139)" width="5" stroke-dasharray="none" height="5" stroke="none"/>
<line clip-path="url(#clipPath1)" fill="none" x1="313" x2="330" y1="507" y2="601" stroke-dasharray="none" stroke="rgb(0,0,139)"/>
<rect x="328" y="599" clip-path="url(#clipPath1)" fill="rgb(0,0,139)" width="5" stroke-dasharray="none" height="5" stroke="none"/>
<line clip-path="url(#clipPath1)" fill="none" x1="330" x2="347" y1="601" y2="601" stroke-dasharray="none" stroke="rgb(0,0,139)"/>
<rect x="345" y="599" clip-path="url(#clipPath1)" fill="rgb(0,0,139)" width="5" stroke-dasharray="none" height="5" stroke="none"/>
<line clip-path="url(#clipPath1)" fill="none" x1="347" x2="364" y1="601" y2="601" stroke-dasharray="none" stroke="rgb(0,0,139)"/>
<rect x="362" y="599" clip-path="url(#clipPath1)" fill="rgb(0,0,139)" width="5" stroke-dasharray="none" height="5" stroke="none"/>
<line clip-path="url(#clipPath1)" fill="none" x1="364" x2="381" y1="601" y2="601" stroke-dasharray="none" stroke="rgb(0,0,139)"/>
<rect x="379" y="599" clip-path="url(#clipPath1)" fill="rgb(0,0,139)" width="5" stroke-dasharray="none" height="5" stroke="none"/>
<line clip-path="url(#clipPath1)" fill="none" x1="381" x2="398" y1="601" y2="601" stroke-dasharray="none" stroke="rgb(0,0,139)"/>
<rect x="396" y="599" clip-path="url(#clipPath1)" fill="rgb(0,0,139)" width="5" stroke-dasharray="none" height="5" stroke="none"/>
<line clip-path="url(#clipPath1)" fill="none" x1="398" x2="415" y1="601" y2="601" stroke-dasharray="none" stroke="rgb(0,0,139)"/>
<rect x="413" y="599" clip-path="url(#clipPath1)" fill="rgb(0,0,139)" width="5" stroke-dasharray="none" height="5" stroke="none"/>
<line clip-path="url(#clipPath1)" fill="none" x1="415" x2="432" y1="601" y2="554" stroke-dasharray="none" stroke="rgb(0,0,139)"/>
<rect x="430" y="552" clip-path="url(#clipPath1)" fill="rgb(0,0,139)" width="5" stroke-dasharray="none" height="5" stroke="none"/>
<line clip-path="url(#clipPath1)" fill="none" x1="432" x2="449" y1="554" y2="507" stroke-dasharray="none" stroke="rgb(0,0,139)"/>
<rect x="447" y="505" clip-path="url(#clipPath1)" fill="rgb(0,0,139)" width="5" stroke-dasharray="none" height="5" stroke="none"/>
<line clip-path="url(#clipPath1)" fill="none" x1="449" x2="466" y1="507" y2="601" stroke-dasharray="none" stroke="rgb(0,0,139)"/>
<rect x="464" y="599" clip-path="url(#clipPath1)" fill="rgb(0,0,139)" width="5" stroke-dasharray="none" height="5" stroke="none"/>
<line clip-path="url(#clipPath1)" fill="none" x1="466" x2="483" y1="601" y2="554" stroke-dasharray="none" stroke="rgb(0,0,139)"/>
<rect x="481" y="552" clip-path="url(#clipPath1)" fill="rgb(0,0,139)" width="5" stroke-dasharray="none" height="5" stroke="none"/>
<line clip-path="url(#clipPath1)" fill="none" x1="483" x2="500" y1="554" y2="601" stroke-dasharray="none" stroke="rgb(0,0,139)"/>
<rect x="498" y="599" clip-path="url(#clipPath1)" fill="rgb(0,0,139)" width="5" stroke-dasharray="none" height="5" stroke="none"/>
<line clip-path="url(#clipPath1)" fill="none" x1="500" x2="517" y1="601" y2="554" stroke-dasharray="none" stroke="rgb(0,0,139)"/>
<rect x="515" y="552" clip-path="url(#clipPath1)" fill="rgb(0,0,139)" width="5" stroke-dasharray="none" height="5" stroke="none"/>
<line clip-path="url(#clipPath1)" fill="none" x1="517" x2="534" y1="554" y2="601" stroke-dasharray="none" stroke="rgb(0,0,139)"/>
<rect x="532" y="599" clip-path="url(#clipPath1)" fill="rgb(0,0,139)" width="5" stroke-dasharray="none" height="5" stroke="none"/>
<line clip-path="url(#clipPath1)" fill="none" x1="534" x2="551" y1="601" y2="554" stroke-dasharray="none" stroke="rgb(0,0,139)"/>
<rect x="549" y="552" clip-path="url(#clipPath1)" fill="rgb(0,0,139)" width="5" stroke-dasharray="none" height="5" stroke="none"/>
<line clip-path="url(#clipPath1)" fill="none" x1="551" x2="567" y1="554" y2="601" stroke-dasharray="none" stroke="rgb(0,0,139)"/>
<rect x="565" y="599" clip-path="url(#clipPath1)" fill="rgb(0,0,139)" width="5" stroke-dasharray="none" height="5" stroke="none"/>
<line clip-path="url(#clipPath1)" fill="none" x1="567" x2="584" y1="601" y2="460" stroke-dasharray="none" stroke="rgb(0,0,139)"/>
<rect x="582" y="458" clip-path="url(#clipPath1)" fill="rgb(0,0,139)" width="5" stroke-dasharray="none" height="5" stroke="none"/>
<line clip-path="url(#clipPath1)" fill="none" x1="584" x2="601" y1="460" y2="601" stroke-dasharray="none" stroke="rgb(0,0,139)"/>
<rect x="599" y="599" clip-path="url(#clipPath1)" fill="rgb(0,0,139)" width="5" stroke-dasharray="none" height="5" stroke="none"/>
<line clip-path="url(#clipPath1)" fill="none" x1="601" x2="618" y1="601" y2="601" stroke-dasharray="none" stroke="rgb(0,0,139)"/>
<rect x="616" y="599" clip-path="url(#clipPath1)" fill="rgb(0,0,139)" width="5" stroke-dasharray="none" height="5" stroke="none"/>
<line clip-path="url(#clipPath1)" fill="none" x1="618" x2="635" y1="601" y2="554" stroke-dasharray="none" stroke="rgb(0,0,139)"/>
<rect x="633" y="552" clip-path="url(#clipPath1)" fill="rgb(0,0,139)" width="5" stroke-dasharray="none" height="5" stroke="none"/>
<line clip-path="url(#clipPath1)" fill="none" x1="635" x2="652" y1="554" y2="601" stroke-dasharray="none" stroke="rgb(0,0,139)"/>
<rect x="650" y="599" clip-path="url(#clipPath1)" fill="rgb(0,0,139)" width="5" stroke-dasharray="none" height="5" stroke="none"/>
<line clip-path="url(#clipPath1)" fill="none" x1="652" x2="669" y1="601" y2="601" stroke-dasharray="none" stroke="rgb(0,0,139)"/>
<rect x="667" y="599" clip-path="url(#clipPath1)" fill="rgb(0,0,139)" width="5" stroke-dasharray="none" height="5" stroke="none"/>
<line clip-path="url(#clipPath1)" fill="none" x1="669" x2="686" y1="601" y2="554" stroke-dasharray="none" stroke="rgb(0,0,139)"/>
<rect x="684" y="552" clip-path="url(#clipPath1)" fill="rgb(0,0,139)" width="5" stroke-dasharray="none" height="5" stroke="none"/>
<line clip-path="url(#clipPath1)" fill="none" x1="686" x2="703" y1="554" y2="554" stroke-dasharray="none" stroke="rgb(0,0,139)"/>
<rect x="701" y="552" clip-path="url(#clipPath1)" fill="rgb(0,0,139)" width="5" stroke-dasharray="none" height="5" stroke="none"/>
<line clip-path="url(#clipPath1)" fill="none" x1="703" x2="720" y1="554" y2="554" stroke-dasharray="none" stroke="rgb(0,0,139)"/>
<rect x="718" y="552" clip-path="url(#clipPath1)" fill="rgb(0,0,139)" width="5" stroke-dasharray="none" height="5" stroke="none"/>
<line clip-path="url(#clipPath1)" fill="none" x1="720" x2="737" y1="554" y2="601" stroke-dasharray="none" stroke="rgb(0,0,139)"/>
<rect x="735" y="599" clip-path="url(#clipPath1)" fill="rgb(0,0,139)" width="5" stroke-dasharray="none" height="5" stroke="none"/>
<line clip-path="url(#clipPath1)" fill="none" x1="737" x2="754" y1="601" y2="601" stroke-dasharray="none" stroke="rgb(0,0,139)"/>
<rect x="752" y="599" clip-path="url(#clipPath1)" fill="rgb(0,0,139)" width="5" stroke-dasharray="none" height="5" stroke="none"/>
<line clip-path="url(#clipPath1)" fill="none" x1="754" x2="771" y1="601" y2="601" stroke-dasharray="none" stroke="rgb(0,0,139)"/>
<rect x="769" y="599" clip-path="url(#clipPath1)" fill="rgb(0,0,139)" width="5" stroke-dasharray="none" height="5" stroke="none"/>
<line clip-path="url(#clipPath1)" fill="none" x1="771" x2="788" y1="601" y2="601" stroke-dasharray="none" stroke="rgb(0,0,139)"/>
<rect x="786" y="599" clip-path="url(#clipPath1)" fill="rgb(0,0,139)" width="5" stroke-dasharray="none" height="5" stroke="none"/>
<line clip-path="url(#clipPath1)" fill="none" x1="788" x2="805" y1="601" y2="554" stroke-dasharray="none" stroke="rgb(0,0,139)"/>
<rect x="803" y="552" clip-path="url(#clipPath1)" fill="rgb(0,0,139)" width="5" stroke-dasharray="none" height="5" stroke="none"/>
<line clip-path="url(#clipPath1)" fill="none" x1="805" x2="822" y1="554" y2="601" stroke-dasharray="none" stroke="rgb(0,0,139)"/>
<rect x="820" y="599" clip-path="url(#clipPath1)" fill="rgb(0,0,139)" width="5" stroke-dasharray="none" height="5" stroke="none"/>
<line clip-path="url(#clipPath1)" fill="none" x1="822" x2="839" y1="601" y2="554" stroke-dasharray="none" stroke="rgb(0,0,139)"/>
<rect x="837" y="552" clip-path="url(#clipPath1)" fill="rgb(0,0,139)" width="5" stroke-dasharray="none" height="5" stroke="none"/>
<line clip-path="url(#clipPath1)" fill="none" x1="839" x2="856" y1="554" y2="554" stroke-dasharray="none" stroke="rgb(0,0,139)"/>
<rect x="854" y="552" clip-path="url(#clipPath1)" fill="rgb(0,0,139)" width="5" stroke-dasharray="none" height="5" stroke="none"/>
<line clip-path="url(#clipPath1)" fill="none" x1="856" x2="873" y1="554" y2="601" stroke-dasharray="none" stroke="rgb(0,0,139)"/>
<rect x="871" y="599" clip-path="url(#clipPath1)" fill="rgb(0,0,139)" width="5" stroke-dasharray="none" height="5" stroke="none"/>
<line clip-path="url(#clipPath1)" fill="none" x1="873" x2="890" y1="601" y2="601" stroke-dasharray="none" stroke="rgb(0,0,139)"/>
<rect x="888" y="599" clip-path="url(#clipPath1)" fill="rgb(0,0,139)" width="5" stroke-dasharray="none" height="5" stroke="none"/>
<line clip-path="url(#clipPath1)" fill="none" x1="890" x2="907" y1="601" y2="601" stroke-dasharray="none" stroke="rgb(0,0,139)"/>
<rect x="905" y="599" clip-path="url(#clipPath1)" fill="rgb(0,0,139)" width="5" stroke-dasharray="none" height="5" stroke="none"/>
<line clip-path="url(#clipPath1)" fill="none" x1="907" x2="924" y1="601" y2="554" stroke-dasharray="none" stroke="rgb(0,0,139)"/>
<rect x="922" y="552" clip-path="url(#clipPath1)" fill="rgb(0,0,139)" width="5" stroke-dasharray="none" height="5" stroke="none"/>
<line clip-path="url(#clipPath1)" fill="none" x1="924" x2="941" y1="554" y2="554" stroke-dasharray="none" stroke="rgb(0,0,139)"/>
<rect x="939" y="552" clip-path="url(#clipPath1)" fill="rgb(0,0,139)" width="5" stroke-dasharray="none" height="5" stroke="none"/>
<line clip-path="url(#clipPath1)" fill="none" x1="941" x2="958" y1="554" y2="601" stroke-dasharray="none" stroke="rgb(0,0,139)"/>
<rect x="956" y="599" clip-path="url(#clipPath1)" fill="rgb(0,0,139)" width="5" stroke-dasharray="none" height="5" stroke="none"/>
<line clip-path="url(#clipPath1)" fill="none" x1="958" x2="975" y1="601" y2="554" stroke-dasharray="none" stroke="rgb(0,0,139)"/>
<rect x="973" y="552" clip-path="url(#clipPath1)" fill="rgb(0,0,139)" width="5" stroke-dasharray="none" height="5" stroke="none"/>
<line clip-path="url(#clipPath1)" fill="none" x1="975" x2="992" y1="554" y2="507" stroke-dasharray="none" stroke="rgb(0,0,139)"/>
<rect x="990" y="505" clip-path="url(#clipPath1)" fill="rgb(0,0,139)" width="5" stroke-dasharray="none" height="5" stroke="none"/>
<line clip-path="url(#clipPath1)" fill="none" x1="992" x2="1009" y1="507" y2="601" stroke-dasharray="none" stroke="rgb(0,0,139)"/>
<rect x="1007" y="599" clip-path="url(#clipPath1)" fill="rgb(0,0,139)" width="5" stroke-dasharray="none" height="5" stroke="none"/>
<line clip-path="url(#clipPath1)" fill="none" x1="1009" x2="1026" y1="601" y2="601" stroke-dasharray="none" stroke="rgb(0,0,139)"/>
<rect x="1024" y="599" clip-path="url(#clipPath1)" fill="rgb(0,0,139)" width="5" stroke-dasharray="none" height="5" stroke="none"/>
<line clip-path="url(#clipPath1)" fill="none" x1="1026" x2="1043" y1="601" y2="601" stroke-dasharray="none" stroke="rgb(0,0,139)"/>
<rect x="1041" y="599" clip-path="url(#clipPath1)" fill="rgb(0,0,139)" width="5" stroke-dasharray="none" height="5" stroke="none"/>
<line clip-path="url(#clipPath1)" fill="none" x1="1043" x2="1060" y1="601" y2="554" stroke-dasharray="none" stroke="rgb(0,0,139)"/>
<rect x="1058" y="552" clip-path="url(#clipPath1)" fill="rgb(0,0,139)" width="5" stroke-dasharray="none" height="5" stroke="none"/>
<line clip-path="url(#clipPath1)" fill="none" x1="1060" x2="1077" y1="554" y2="601" stroke-dasharray="none" stroke="rgb(0,0,139)"/>
<rect x="1075" y="599" clip-path="url(#clipPath1)" fill="rgb(0,0,139)" width="5" stroke-dasharray="none" height="5" stroke="none"/>
<line clip-path="url(#clipPath1)" fill="none" x1="1077" x2="1093" y1="601" y2="601" stroke-dasharray="none" stroke="rgb(0,0,139)"/>
<rect x="1091" y="599" clip-path="url(#clipPath1)" fill="rgb(0,0,139)" width="5" stroke-dasharray="none" height="5" stroke="none"/>
<line clip-path="url(#clipPath1)" fill="none" x1="1093" x2="1110" y1="601" y2="507" stroke-dasharray="none" stroke="rgb(0,0,139)"/>
<rect x="1108" y="505" clip-path="url(#clipPath1)" fill="rgb(0,0,139)" width="5" stroke-dasharray="none" height="5" stroke="none"/>
<line clip-path="url(#clipPath1)" fill="none" x1="1110" x2="1127" y1="507" y2="554" stroke-dasharray="none" stroke="rgb(0,0,139)"/>
<rect x="1125" y="552" clip-path="url(#clipPath1)" fill="rgb(0,0,139)" width="5" stroke-dasharray="none" height="5" stroke="none"/>
<line clip-path="url(#clipPath1)" fill="none" x1="1127" x2="1144" y1="554" y2="601" stroke-dasharray="none" stroke="rgb(0,0,139)"/>
<rect x="1142" y="599" clip-path="url(#clipPath1)" fill="rgb(0,0,139)" width="5" stroke-dasharray="none" height="5" stroke="none"/>
<line clip-path="url(#clipPath1)" fill="none" x1="1144" x2="1161" y1="601" y2="601" stroke-dasharray="none" stroke="rgb(0,0,139)"/>
<rect x="1159" y="599" clip-path="url(#clipPath1)" fill="rgb(0,0,139)" width="5" stroke-dasharray="none" height="5" stroke="none"/>
<line clip-path="url(#clipPath1)" fill="none" x1="1161" x2="1178" y1="601" y2="554" stroke-dasharray="none" stroke="rgb(0,0,139)"/>
<rect x="1176" y="552" clip-path="url(#clipPath1)" fill="rgb(0,0,139)" width="5" stroke-dasharray="none" height="5" stroke="none"/>
<line clip-path="url(#clipPath1)" fill="none" x1="1178" x2="1195" y1="554" y2="554" stroke-dasharray="none" stroke="rgb(0,0,139)"/>
<rect x="1193" y="552" clip-path="url(#clipPath1)" fill="rgb(0,0,139)" width="5" stroke-dasharray="none" height="5" stroke="none"/>
<line clip-path="url(#clipPath1)" fill="none" x1="1195" x2="1212" y1="554" y2="554" stroke-dasharray="none" stroke="rgb(0,0,139)"/>
<rect x="1210" y="552" clip-path="url(#clipPath1)" fill="rgb(0,0,139)" width="5" stroke-dasharray="none" height="5" stroke="none"/>
<line clip-path="url(#clipPath1)" fill="none" x1="1212" x2="1229" y1="554" y2="554" stroke-dasharray="none" stroke="rgb(0,0,139)"/>
<rect x="1227" y="552" clip-path="url(#clipPath1)" fill="rgb(0,0,139)" width="5" stroke-dasharray="none" height="5" stroke="none"/>
<line clip-path="url(#clipPath1)" fill="none" x1="1229" x2="1246" y1="554" y2="507" stroke-dasharray="none" stroke="rgb(0,0,139)"/>
<rect x="1244" y="505" clip-path="url(#clipPath1)" fill="rgb(0,0,139)" width="5" stroke-dasharray="none" height="5" stroke="none"/>
<line clip-path="url(#clipPath1)" fill="none" x1="1246" x2="1263" y1="507" y2="601" stroke-dasharray="none" stroke="rgb(0,0,139)"/>
<rect x="1261" y="599" clip-path="url(#clipPath1)" fill="rgb(0,0,139)" width="5" stroke-dasharray="none" height="5" stroke="none"/>
<line clip-path="url(#clipPath1)" fill="none" x1="1263" x2="1280" y1="601" y2="554" stroke-dasharray="none" stroke="rgb(0,0,139)"/>
<rect x="1278" y="552" clip-path="url(#clipPath1)" fill="rgb(0,0,139)" width="5" stroke-dasharray="none" height="5" stroke="none"/>
<line clip-path="url(#clipPath1)" fill="none" x1="1280" x2="1297" y1="554" y2="601" stroke-dasharray="none" stroke="rgb(0,0,139)"/>
<rect x="1295" y="599" clip-path="url(#clipPath1)" fill="rgb(0,0,139)" width="5" stroke-dasharray="none" height="5" stroke="none"/>
<line clip-path="url(#clipPath1)" fill="none" x1="1297" x2="1314" y1="601" y2="554" stroke-dasharray="none" stroke="rgb(0,0,139)"/>
<rect x="1312" y="552" clip-path="url(#clipPath1)" fill="rgb(0,0,139)" width="5" stroke-dasharray="none" height="5" stroke="none"/>
<line clip-path="url(#clipPath1)" fill="none" x1="1314" x2="1331" y1="554" y2="601" stroke-dasharray="none" stroke="rgb(0,0,139)"/>
<rect x="1329" y="599" clip-path="url(#clipPath1)" fill="rgb(0,0,139)" width="5" stroke-dasharray="none" height="5" stroke="none"/>
<line clip-path="url(#clipPath1)" fill="none" x1="1331" x2="1348" y1="601" y2="554" stroke-dasharray="none" stroke="rgb(0,0,139)"/>
<rect x="1346" y="552" clip-path="url(#clipPath1)" fill="rgb(0,0,139)" width="5" stroke-dasharray="none" height="5" stroke="none"/>
<line clip-path="url(#clipPath1)" fill="none" x1="1348" x2="1365" y1="554" y2="554" stroke-dasharray="none" stroke="rgb(0,0,139)"/>
<rect x="1363" y="552" clip-path="url(#clipPath1)" fill="rgb(0,0,139)" width="5" stroke-dasharray="none" height="5" stroke="none"/>
<rect x="42" y="40" clip-path="url(#clipPath2)" fill="none" width="1340" stroke-dasharray="none" height="561" stroke="black"/>
</g>
<g text-rendering="geometricPrecision" font-size="13" font-family="'Arial'" stroke-linecap="butt">
<text xml:space="preserve" x="634" y="12" clip-path="url(#clipPath2)" stroke="none">Number of free channels</text>
<line clip-path="url(#clipPath2)" fill="none" x1="42" x2="1382" y1="38" y2="38"/>
<line clip-path="url(#clipPath2)" fill="none" x1="42" x2="1382" y1="603" y2="603"/>
<text xml:space="preserve" x="700" y="637" clip-path="url(#clipPath2)" stroke="none">time</text>
<line clip-path="url(#clipPath2)" fill="none" x1="42" x2="42" y1="34" y2="38"/>
<line clip-path="url(#clipPath2)" fill="none" x1="42" x2="42" y1="607" y2="603"/>
<text x="33" font-size="10" y="29" clip-path="url(#clipPath2)" stroke="none" xml:space="preserve">0.00</text>
<text x="33" font-size="10" y="618" clip-path="url(#clipPath2)" stroke="none" xml:space="preserve">0.00</text>
<line clip-path="url(#clipPath2)" fill="none" x1="58" x2="58" y1="36" y2="38"/>
<line clip-path="url(#clipPath2)" fill="none" x1="58" x2="58" y1="605" y2="603"/>
<line clip-path="url(#clipPath2)" fill="none" x1="75" x2="75" y1="36" y2="38"/>
<line clip-path="url(#clipPath2)" fill="none" x1="75" x2="75" y1="605" y2="603"/>
<line clip-path="url(#clipPath2)" fill="none" x1="92" x2="92" y1="36" y2="38"/>
<line clip-path="url(#clipPath2)" fill="none" x1="92" x2="92" y1="605" y2="603"/>
<line clip-path="url(#clipPath2)" fill="none" x1="109" x2="109" y1="36" y2="38"/>
<line clip-path="url(#clipPath2)" fill="none" x1="109" x2="109" y1="605" y2="603"/>
<line clip-path="url(#clipPath2)" fill="none" x1="126" x2="126" y1="34" y2="38"/>
<line clip-path="url(#clipPath2)" fill="none" x1="126" x2="126" y1="607" y2="603"/>
<text x="115" font-size="10" y="29" clip-path="url(#clipPath2)" stroke="none" xml:space="preserve">0.005</text>
<text x="115" font-size="10" y="618" clip-path="url(#clipPath2)" stroke="none" xml:space="preserve">0.005</text>
<line clip-path="url(#clipPath2)" fill="none" x1="143" x2="143" y1="36" y2="38"/>
<line clip-path="url(#clipPath2)" fill="none" x1="143" x2="143" y1="605" y2="603"/>
<line clip-path="url(#clipPath2)" fill="none" x1="160" x2="160" y1="36" y2="38"/>
<line clip-path="url(#clipPath2)" fill="none" x1="160" x2="160" y1="605" y2="603"/>
<line clip-path="url(#clipPath2)" fill="none" x1="177" x2="177" y1="36" y2="38"/>
<line clip-path="url(#clipPath2)" fill="none" x1="177" x2="177" y1="605" y2="603"/>
<line clip-path="url(#clipPath2)" fill="none" x1="194" x2="194" y1="36" y2="38"/>
<line clip-path="url(#clipPath2)" fill="none" x1="194" x2="194" y1="605" y2="603"/>
<line clip-path="url(#clipPath2)" fill="none" x1="211" x2="211" y1="34" y2="38"/>
<line clip-path="url(#clipPath2)" fill="none" x1="211" x2="211" y1="607" y2="603"/>
<text x="200" font-size="10" y="29" clip-path="url(#clipPath2)" stroke="none" xml:space="preserve">0.010</text>
<text x="200" font-size="10" y="618" clip-path="url(#clipPath2)" stroke="none" xml:space="preserve">0.010</text>
<line clip-path="url(#clipPath2)" fill="none" x1="228" x2="228" y1="36" y2="38"/>
<line clip-path="url(#clipPath2)" fill="none" x1="228" x2="228" y1="605" y2="603"/>
<line clip-path="url(#clipPath2)" fill="none" x1="245" x2="245" y1="36" y2="38"/>
<line clip-path="url(#clipPath2)" fill="none" x1="245" x2="245" y1="605" y2="603"/>
<line clip-path="url(#clipPath2)" fill="none" x1="262" x2="262" y1="36" y2="38"/>
<line clip-path="url(#clipPath2)" fill="none" x1="262" x2="262" y1="605" y2="603"/>
<line clip-path="url(#clipPath2)" fill="none" x1="279" x2="279" y1="36" y2="38"/>
<line clip-path="url(#clipPath2)" fill="none" x1="279" x2="279" y1="605" y2="603"/>
<line clip-path="url(#clipPath2)" fill="none" x1="296" x2="296" y1="34" y2="38"/>
<line clip-path="url(#clipPath2)" fill="none" x1="296" x2="296" y1="607" y2="603"/>
<text x="285" font-size="10" y="29" clip-path="url(#clipPath2)" stroke="none" xml:space="preserve">0.015</text>
<text x="285" font-size="10" y="618" clip-path="url(#clipPath2)" stroke="none" xml:space="preserve">0.015</text>
<line clip-path="url(#clipPath2)" fill="none" x1="313" x2="313" y1="36" y2="38"/>
<line clip-path="url(#clipPath2)" fill="none" x1="313" x2="313" y1="605" y2="603"/>
<line clip-path="url(#clipPath2)" fill="none" x1="330" x2="330" y1="36" y2="38"/>
<line clip-path="url(#clipPath2)" fill="none" x1="330" x2="330" y1="605" y2="603"/>
<line clip-path="url(#clipPath2)" fill="none" x1="347" x2="347" y1="36" y2="38"/>
<line clip-path="url(#clipPath2)" fill="none" x1="347" x2="347" y1="605" y2="603"/>
<line clip-path="url(#clipPath2)" fill="none" x1="364" x2="364" y1="36" y2="38"/>
<line clip-path="url(#clipPath2)" fill="none" x1="364" x2="364" y1="605" y2="603"/>
<line clip-path="url(#clipPath2)" fill="none" x1="381" x2="381" y1="34" y2="38"/>
<line clip-path="url(#clipPath2)" fill="none" x1="381" x2="381" y1="607" y2="603"/>
<text x="370" font-size="10" y="29" clip-path="url(#clipPath2)" stroke="none" xml:space="preserve">0.020</text>
<text x="370" font-size="10" y="618" clip-path="url(#clipPath2)" stroke="none" xml:space="preserve">0.020</text>
<line clip-path="url(#clipPath2)" fill="none" x1="398" x2="398" y1="36" y2="38"/>
<line clip-path="url(#clipPath2)" fill="none" x1="398" x2="398" y1="605" y2="603"/>
<line clip-path="url(#clipPath2)" fill="none" x1="415" x2="415" y1="36" y2="38"/>
<line clip-path="url(#clipPath2)" fill="none" x1="415" x2="415" y1="605" y2="603"/>
<line clip-path="url(#clipPath2)" fill="none" x1="432" x2="432" y1="36" y2="38"/>
<line clip-path="url(#clipPath2)" fill="none" x1="432" x2="432" y1="605" y2="603"/>
<line clip-path="url(#clipPath2)" fill="none" x1="449" x2="449" y1="36" y2="38"/>
<line clip-path="url(#clipPath2)" fill="none" x1="449" x2="449" y1="605" y2="603"/>
<line clip-path="url(#clipPath2)" fill="none" x1="466" x2="466" y1="34" y2="38"/>
<line clip-path="url(#clipPath2)" fill="none" x1="466" x2="466" y1="607" y2="603"/>
<text x="455" font-size="10" y="29" clip-path="url(#clipPath2)" stroke="none" xml:space="preserve">0.025</text>
<text x="455" font-size="10" y="618" clip-path="url(#clipPath2)" stroke="none" xml:space="preserve">0.025</text>
<line clip-path="url(#clipPath2)" fill="none" x1="483" x2="483" y1="36" y2="38"/>
<line clip-path="url(#clipPath2)" fill="none" x1="483" x2="483" y1="605" y2="603"/>
<line clip-path="url(#clipPath2)" fill="none" x1="500" x2="500" y1="36" y2="38"/>
<line clip-path="url(#clipPath2)" fill="none" x1="500" x2="500" y1="605" y2="603"/>
<line clip-path="url(#clipPath2)" fill="none" x1="517" x2="517" y1="36" y2="38"/>
<line clip-path="url(#clipPath2)" fill="none" x1="517" x2="517" y1="605" y2="603"/>
<line clip-path="url(#clipPath2)" fill="none" x1="534" x2="534" y1="36" y2="38"/>
<line clip-path="url(#clipPath2)" fill="none" x1="534" x2="534" y1="605" y2="603"/>
<line clip-path="url(#clipPath2)" fill="none" x1="551" x2="551" y1="34" y2="38"/>
<line clip-path="url(#clipPath2)" fill="none" x1="551" x2="551" y1="607" y2="603"/>
<text x="540" font-size="10" y="29" clip-path="url(#clipPath2)" stroke="none" xml:space="preserve">0.030</text>
<text x="540" font-size="10" y="618" clip-path="url(#clipPath2)" stroke="none" xml:space="preserve">0.030</text>
<line clip-path="url(#clipPath2)" fill="none" x1="567" x2="567" y1="36" y2="38"/>
<line clip-path="url(#clipPath2)" fill="none" x1="567" x2="567" y1="605" y2="603"/>
<line clip-path="url(#clipPath2)" fill="none" x1="584" x2="584" y1="36" y2="38"/>
<line clip-path="url(#clipPath2)" fill="none" x1="584" x2="584" y1="605" y2="603"/>
<line clip-path="url(#clipPath2)" fill="none" x1="601" x2="601" y1="36" y2="38"/>
<line clip-path="url(#clipPath2)" fill="none" x1="601" x2="601" y1="605" y2="603"/>
<line clip-path="url(#clipPath2)" fill="none" x1="618" x2="618" y1="36" y2="38"/>
<line clip-path="url(#clipPath2)" fill="none" x1="618" x2="618" y1="605" y2="603"/>
<line clip-path="url(#clipPath2)" fill="none" x1="635" x2="635" y1="34" y2="38"/>
<line clip-path="url(#clipPath2)" fill="none" x1="635" x2="635" y1="607" y2="603"/>
<text x="624" font-size="10" y="29" clip-path="url(#clipPath2)" stroke="none" xml:space="preserve">0.035</text>
<text x="624" font-size="10" y="618" clip-path="url(#clipPath2)" stroke="none" xml:space="preserve">0.035</text>
<line clip-path="url(#clipPath2)" fill="none" x1="652" x2="652" y1="36" y2="38"/>
<line clip-path="url(#clipPath2)" fill="none" x1="652" x2="652" y1="605" y2="603"/>
<line clip-path="url(#clipPath2)" fill="none" x1="669" x2="669" y1="36" y2="38"/>
<line clip-path="url(#clipPath2)" fill="none" x1="669" x2="669" y1="605" y2="603"/>
<line clip-path="url(#clipPath2)" fill="none" x1="686" x2="686" y1="36" y2="38"/>
<line clip-path="url(#clipPath2)" fill="none" x1="686" x2="686" y1="605" y2="603"/>
<line clip-path="url(#clipPath2)" fill="none" x1="703" x2="703" y1="36" y2="38"/>
<line clip-path="url(#clipPath2)" fill="none" x1="703" x2="703" y1="605" y2="603"/>
<line clip-path="url(#clipPath2)" fill="none" x1="720" x2="720" y1="34" y2="38"/>
<line clip-path="url(#clipPath2)" fill="none" x1="720" x2="720" y1="607" y2="603"/>
<text x="709" font-size="10" y="29" clip-path="url(#clipPath2)" stroke="none" xml:space="preserve">0.040</text>
<text x="709" font-size="10" y="618" clip-path="url(#clipPath2)" stroke="none" xml:space="preserve">0.040</text>
<line clip-path="url(#clipPath2)" fill="none" x1="737" x2="737" y1="36" y2="38"/>
<line clip-path="url(#clipPath2)" fill="none" x1="737" x2="737" y1="605" y2="603"/>
<line clip-path="url(#clipPath2)" fill="none" x1="754" x2="754" y1="36" y2="38"/>
<line clip-path="url(#clipPath2)" fill="none" x1="754" x2="754" y1="605" y2="603"/>
<line clip-path="url(#clipPath2)" fill="none" x1="771" x2="771" y1="36" y2="38"/>
<line clip-path="url(#clipPath2)" fill="none" x1="771" x2="771" y1="605" y2="603"/>
<line clip-path="url(#clipPath2)" fill="none" x1="788" x2="788" y1="36" y2="38"/>
<line clip-path="url(#clipPath2)" fill="none" x1="788" x2="788" y1="605" y2="603"/>
<line clip-path="url(#clipPath2)" fill="none" x1="805" x2="805" y1="34" y2="38"/>
<line clip-path="url(#clipPath2)" fill="none" x1="805" x2="805" y1="607" y2="603"/>
<text x="794" font-size="10" y="29" clip-path="url(#clipPath2)" stroke="none" xml:space="preserve">0.045</text>
<text x="794" font-size="10" y="618" clip-path="url(#clipPath2)" stroke="none" xml:space="preserve">0.045</text>
<line clip-path="url(#clipPath2)" fill="none" x1="822" x2="822" y1="36" y2="38"/>
<line clip-path="url(#clipPath2)" fill="none" x1="822" x2="822" y1="605" y2="603"/>
<line clip-path="url(#clipPath2)" fill="none" x1="839" x2="839" y1="36" y2="38"/>
<line clip-path="url(#clipPath2)" fill="none" x1="839" x2="839" y1="605" y2="603"/>
<line clip-path="url(#clipPath2)" fill="none" x1="856" x2="856" y1="36" y2="38"/>
<line clip-path="url(#clipPath2)" fill="none" x1="856" x2="856" y1="605" y2="603"/>
<line clip-path="url(#clipPath2)" fill="none" x1="873" x2="873" y1="36" y2="38"/>
<line clip-path="url(#clipPath2)" fill="none" x1="873" x2="873" y1="605" y2="603"/>
<line clip-path="url(#clipPath2)" fill="none" x1="890" x2="890" y1="34" y2="38"/>
<line clip-path="url(#clipPath2)" fill="none" x1="890" x2="890" y1="607" y2="603"/>
<text x="879" font-size="10" y="29" clip-path="url(#clipPath2)" stroke="none" xml:space="preserve">0.050</text>
<text x="879" font-size="10" y="618" clip-path="url(#clipPath2)" stroke="none" xml:space="preserve">0.050</text>
<line clip-path="url(#clipPath2)" fill="none" x1="907" x2="907" y1="36" y2="38"/>
<line clip-path="url(#clipPath2)" fill="none" x1="907" x2="907" y1="605" y2="603"/>
<line clip-path="url(#clipPath2)" fill="none" x1="924" x2="924" y1="36" y2="38"/>
<line clip-path="url(#clipPath2)" fill="none" x1="924" x2="924" y1="605" y2="603"/>
<line clip-path="url(#clipPath2)" fill="none" x1="941" x2="941" y1="36" y2="38"/>
<line clip-path="url(#clipPath2)" fill="none" x1="941" x2="941" y1="605" y2="603"/>
<line clip-path="url(#clipPath2)" fill="none" x1="958" x2="958" y1="36" y2="38"/>
<line clip-path="url(#clipPath2)" fill="none" x1="958" x2="958" y1="605" y2="603"/>
<line clip-path="url(#clipPath2)" fill="none" x1="975" x2="975" y1="34" y2="38"/>
<line clip-path="url(#clipPath2)" fill="none" x1="975" x2="975" y1="607" y2="603"/>
<text x="964" font-size="10" y="29" clip-path="url(#clipPath2)" stroke="none" xml:space="preserve">0.055</text>
<text x="964" font-size="10" y="618" clip-path="url(#clipPath2)" stroke="none" xml:space="preserve">0.055</text>
<line clip-path="url(#clipPath2)" fill="none" x1="992" x2="992" y1="36" y2="38"/>
<line clip-path="url(#clipPath2)" fill="none" x1="992" x2="992" y1="605" y2="603"/>
<line clip-path="url(#clipPath2)" fill="none" x1="1009" x2="1009" y1="36" y2="38"/>
<line clip-path="url(#clipPath2)" fill="none" x1="1009" x2="1009" y1="605" y2="603"/>
<line clip-path="url(#clipPath2)" fill="none" x1="1026" x2="1026" y1="36" y2="38"/>
<line clip-path="url(#clipPath2)" fill="none" x1="1026" x2="1026" y1="605" y2="603"/>
<line clip-path="url(#clipPath2)" fill="none" x1="1043" x2="1043" y1="36" y2="38"/>
<line clip-path="url(#clipPath2)" fill="none" x1="1043" x2="1043" y1="605" y2="603"/>
<line clip-path="url(#clipPath2)" fill="none" x1="1060" x2="1060" y1="34" y2="38"/>
<line clip-path="url(#clipPath2)" fill="none" x1="1060" x2="1060" y1="607" y2="603"/>
<text x="1049" font-size="10" y="29" clip-path="url(#clipPath2)" stroke="none" xml:space="preserve">0.060</text>
<text x="1049" font-size="10" y="618" clip-path="url(#clipPath2)" stroke="none" xml:space="preserve">0.060</text>
<line clip-path="url(#clipPath2)" fill="none" x1="1077" x2="1077" y1="36" y2="38"/>
<line clip-path="url(#clipPath2)" fill="none" x1="1077" x2="1077" y1="605" y2="603"/>
<line clip-path="url(#clipPath2)" fill="none" x1="1093" x2="1093" y1="36" y2="38"/>
<line clip-path="url(#clipPath2)" fill="none" x1="1093" x2="1093" y1="605" y2="603"/>
<line clip-path="url(#clipPath2)" fill="none" x1="1110" x2="1110" y1="36" y2="38"/>
<line clip-path="url(#clipPath2)" fill="none" x1="1110" x2="1110" y1="605" y2="603"/>
<line clip-path="url(#clipPath2)" fill="none" x1="1127" x2="1127" y1="36" y2="38"/>
<line clip-path="url(#clipPath2)" fill="none" x1="1127" x2="1127" y1="605" y2="603"/>
<line clip-path="url(#clipPath2)" fill="none" x1="1144" x2="1144" y1="34" y2="38"/>
<line clip-path="url(#clipPath2)" fill="none" x1="1144" x2="1144" y1="607" y2="603"/>
<text x="1133" font-size="10" y="29" clip-path="url(#clipPath2)" stroke="none" xml:space="preserve">0.065</text>
<text x="1133" font-size="10" y="618" clip-path="url(#clipPath2)" stroke="none" xml:space="preserve">0.065</text>
<line clip-path="url(#clipPath2)" fill="none" x1="1161" x2="1161" y1="36" y2="38"/>
<line clip-path="url(#clipPath2)" fill="none" x1="1161" x2="1161" y1="605" y2="603"/>
<line clip-path="url(#clipPath2)" fill="none" x1="1178" x2="1178" y1="36" y2="38"/>
<line clip-path="url(#clipPath2)" fill="none" x1="1178" x2="1178" y1="605" y2="603"/>
<line clip-path="url(#clipPath2)" fill="none" x1="1195" x2="1195" y1="36" y2="38"/>
<line clip-path="url(#clipPath2)" fill="none" x1="1195" x2="1195" y1="605" y2="603"/>
<line clip-path="url(#clipPath2)" fill="none" x1="1212" x2="1212" y1="36" y2="38"/>
<line clip-path="url(#clipPath2)" fill="none" x1="1212" x2="1212" y1="605" y2="603"/>
<line clip-path="url(#clipPath2)" fill="none" x1="1229" x2="1229" y1="34" y2="38"/>
<line clip-path="url(#clipPath2)" fill="none" x1="1229" x2="1229" y1="607" y2="603"/>
<text x="1218" font-size="10" y="29" clip-path="url(#clipPath2)" stroke="none" xml:space="preserve">0.070</text>
<text x="1218" font-size="10" y="618" clip-path="url(#clipPath2)" stroke="none" xml:space="preserve">0.070</text>
<line clip-path="url(#clipPath2)" fill="none" x1="1246" x2="1246" y1="36" y2="38"/>
<line clip-path="url(#clipPath2)" fill="none" x1="1246" x2="1246" y1="605" y2="603"/>
<line clip-path="url(#clipPath2)" fill="none" x1="1263" x2="1263" y1="36" y2="38"/>
<line clip-path="url(#clipPath2)" fill="none" x1="1263" x2="1263" y1="605" y2="603"/>
<line clip-path="url(#clipPath2)" fill="none" x1="1280" x2="1280" y1="36" y2="38"/>
<line clip-path="url(#clipPath2)" fill="none" x1="1280" x2="1280" y1="605" y2="603"/>
<line clip-path="url(#clipPath2)" fill="none" x1="1297" x2="1297" y1="36" y2="38"/>
<line clip-path="url(#clipPath2)" fill="none" x1="1297" x2="1297" y1="605" y2="603"/>
<line clip-path="url(#clipPath2)" fill="none" x1="1314" x2="1314" y1="34" y2="38"/>
<line clip-path="url(#clipPath2)" fill="none" x1="1314" x2="1314" y1="607" y2="603"/>
<text x="1303" font-size="10" y="29" clip-path="url(#clipPath2)" stroke="none" xml:space="preserve">0.075</text>
<text x="1303" font-size="10" y="618" clip-path="url(#clipPath2)" stroke="none" xml:space="preserve">0.075</text>
<line clip-path="url(#clipPath2)" fill="none" x1="1331" x2="1331" y1="36" y2="38"/>
<line clip-path="url(#clipPath2)" fill="none" x1="1331" x2="1331" y1="605" y2="603"/>
<line clip-path="url(#clipPath2)" fill="none" x1="1348" x2="1348" y1="36" y2="38"/>
<line clip-path="url(#clipPath2)" fill="none" x1="1348" x2="1348" y1="605" y2="603"/>
<line clip-path="url(#clipPath2)" fill="none" x1="1365" x2="1365" y1="36" y2="38"/>
<line clip-path="url(#clipPath2)" fill="none" x1="1365" x2="1365" y1="605" y2="603"/>
<line clip-path="url(#clipPath2)" fill="none" x1="1382" x2="1382" y1="36" y2="38"/>
<line clip-path="url(#clipPath2)" fill="none" x1="1382" x2="1382" y1="605" y2="603"/>
<line clip-path="url(#clipPath2)" fill="none" x1="40" x2="40" y1="40" y2="601"/>
<line clip-path="url(#clipPath2)" fill="none" x1="1384" x2="1384" y1="40" y2="601"/>
<line clip-path="url(#clipPath2)" fill="none" x1="36" x2="40" y1="601" y2="601"/>
<line clip-path="url(#clipPath2)" fill="none" x1="1388" x2="1384" y1="601" y2="601"/>
<text x="30" font-size="10" y="604" clip-path="url(#clipPath2)" stroke="none" xml:space="preserve">0</text>
<text x="1391" font-size="10" y="604" clip-path="url(#clipPath2)" stroke="none" xml:space="preserve">0</text>
<line clip-path="url(#clipPath2)" fill="none" x1="38" x2="40" y1="554" y2="554"/>
<line clip-path="url(#clipPath2)" fill="none" x1="1386" x2="1384" y1="554" y2="554"/>
<line clip-path="url(#clipPath2)" fill="none" x1="36" x2="40" y1="507" y2="507"/>
<line clip-path="url(#clipPath2)" fill="none" x1="1388" x2="1384" y1="507" y2="507"/>
<text x="30" font-size="10" y="510" clip-path="url(#clipPath2)" stroke="none" xml:space="preserve">2</text>
<text x="1391" font-size="10" y="510" clip-path="url(#clipPath2)" stroke="none" xml:space="preserve">2</text>
<line clip-path="url(#clipPath2)" fill="none" x1="38" x2="40" y1="460" y2="460"/>
<line clip-path="url(#clipPath2)" fill="none" x1="1386" x2="1384" y1="460" y2="460"/>
<line clip-path="url(#clipPath2)" fill="none" x1="36" x2="40" y1="414" y2="414"/>
<line clip-path="url(#clipPath2)" fill="none" x1="1388" x2="1384" y1="414" y2="414"/>
<text x="30" font-size="10" y="417" clip-path="url(#clipPath2)" stroke="none" xml:space="preserve">4</text>
<text x="1391" font-size="10" y="417" clip-path="url(#clipPath2)" stroke="none" xml:space="preserve">4</text>
<line clip-path="url(#clipPath2)" fill="none" x1="38" x2="40" y1="367" y2="367"/>
<line clip-path="url(#clipPath2)" fill="none" x1="1386" x2="1384" y1="367" y2="367"/>
<line clip-path="url(#clipPath2)" fill="none" x1="36" x2="40" y1="320" y2="320"/>
<line clip-path="url(#clipPath2)" fill="none" x1="1388" x2="1384" y1="320" y2="320"/>
<text x="30" font-size="10" y="323" clip-path="url(#clipPath2)" stroke="none" xml:space="preserve">6</text>
<text x="1391" font-size="10" y="323" clip-path="url(#clipPath2)" stroke="none" xml:space="preserve">6</text>
<line clip-path="url(#clipPath2)" fill="none" x1="38" x2="40" y1="273" y2="273"/>
<line clip-path="url(#clipPath2)" fill="none" x1="1386" x2="1384" y1="273" y2="273"/>
<line clip-path="url(#clipPath2)" fill="none" x1="36" x2="40" y1="227" y2="227"/>
<line clip-path="url(#clipPath2)" fill="none" x1="1388" x2="1384" y1="227" y2="227"/>
<text x="30" font-size="10" y="230" clip-path="url(#clipPath2)" stroke="none" xml:space="preserve">8</text>
<text x="1391" font-size="10" y="230" clip-path="url(#clipPath2)" stroke="none" xml:space="preserve">8</text>
<line clip-path="url(#clipPath2)" fill="none" x1="38" x2="40" y1="180" y2="180"/>
<line clip-path="url(#clipPath2)" fill="none" x1="1386" x2="1384" y1="180" y2="180"/>
<line clip-path="url(#clipPath2)" fill="none" x1="36" x2="40" y1="133" y2="133"/>
<line clip-path="url(#clipPath2)" fill="none" x1="1388" x2="1384" y1="133" y2="133"/>
<text x="25" font-size="10" y="136" clip-path="url(#clipPath2)" stroke="none" xml:space="preserve">10</text>
<text x="1391" font-size="10" y="136" clip-path="url(#clipPath2)" stroke="none" xml:space="preserve">10</text>
<line clip-path="url(#clipPath2)" fill="none" x1="38" x2="40" y1="86" y2="86"/>
<line clip-path="url(#clipPath2)" fill="none" x1="1386" x2="1384" y1="86" y2="86"/>
<line clip-path="url(#clipPath2)" fill="none" x1="36" x2="40" y1="40" y2="40"/>
<line clip-path="url(#clipPath2)" fill="none" x1="1388" x2="1384" y1="40" y2="40"/>
<text x="25" font-size="10" y="43" clip-path="url(#clipPath2)" stroke="none" xml:space="preserve">12</text>
<text x="1391" font-size="10" y="43" clip-path="url(#clipPath2)" stroke="none" xml:space="preserve">12</text>
</g>
</g>
</svg>
