<?xml version="1.0" encoding="UTF-8"?><svg xmlns="http://www.w3.org/2000/svg" xmlns:xlink="http://www.w3.org/1999/xlink" stroke-dasharray="none" shape-rendering="auto" font-family="'Dialog'" width="1408" text-rendering="auto" fill-opacity="1" contentScriptType="text/ecmascript" color-interpolation="auto" color-rendering="auto" preserveAspectRatio="xMidYMid meet" font-size="12" fill="black" stroke="black" image-rendering="auto" stroke-miterlimit="10" zoomAndPan="magnify" version="1.0" stroke-linecap="square" stroke-linejoin="miter" contentStyleType="text/css" font-style="normal" height="641" stroke-width="1" stroke-dashoffset="0" font-weight="normal" stroke-opacity="1">
<!--Generated by the Batik Graphics2D SVG Generator-->
<defs id="genericDefs"/>
<g>
<defs id="defs1">
<clipPath clipPathUnits="userSpaceOnUse" id="clipPath1">
<path d="M41 39 L1383 39 L1383 602 L41 602 L41 39 Z"/>
</clipPath>
<clipPath clipPathUnits="userSpaceOnUse" id="clipPath2">
<path d="M-1 -1 L1409 -1 L1409 642 L-1 642 L-1 -1 Z"/>
</clipPath>
</defs>
<g fill="white" text-rendering="geometricPrecision" font-family="'Segoe UI'" stroke-linejoin="round" stroke="white" stroke-width="0" stroke-miterlimit="0">
<rect x="42" y="40" clip-path="url(#clipPath1)" width="1340" height="561" stroke="none"/>
</g>
<g stroke-linecap="butt" fill="rgb(204,204,204)" text-rendering="geometricPrecision" font-family="'Segoe UI'" stroke-dasharray="3,3" stroke="rgb(204,204,204)">
<line clip-path="url(#clipPath1)" fill="none" x1="42" x2="42" y1="40" y2="601"/>
<line clip-path="url(#clipPath1)" fill="none" x1="119" x2="119" y1="40" y2="601"/>
<line clip-path="url(#clipPath1)" fill="none" x1="197" x2="197" y1="40" y2="601"/>
<line clip-path="url(#clipPath1)" fill="none" x1="275" x2="275" y1="40" y2="601"/>
<line clip-path="url(#clipPath1)" fill="none" x1="353" x2="353" y1="40" y2="601"/>
<line clip-path="url(#clipPath1)" fill="none" x1="431" x2="431" y1="40" y2="601"/>
<line clip-path="url(#clipPath1)" fill="none" x1="509" x2="509" y1="40" y2="601"/>
<line clip-path="url(#clipPath1)" fill="none" x1="586" x2="586" y1="40" y2="601"/>
<line clip-path="url(#clipPath1)" fill="none" x1="664" x2="664" y1="40" y2="601"/>
<line clip-path="url(#clipPath1)" fill="none" x1="742" x2="742" y1="40" y2="601"/>
<line clip-path="url(#clipPath1)" fill="none" x1="820" x2="820" y1="40" y2="601"/>
<line clip-path="url(#clipPath1)" fill="none" x1="898" x2="898" y1="40" y2="601"/>
<line clip-path="url(#clipPath1)" fill="none" x1="976" x2="976" y1="40" y2="601"/>
<line clip-path="url(#clipPath1)" fill="none" x1="1054" x2="1054" y1="40" y2="601"/>
<line clip-path="url(#clipPath1)" fill="none" x1="1131" x2="1131" y1="40" y2="601"/>
<line clip-path="url(#clipPath1)" fill="none" x1="1209" x2="1209" y1="40" y2="601"/>
<line clip-path="url(#clipPath1)" fill="none" x1="1287" x2="1287" y1="40" y2="601"/>
<line clip-path="url(#clipPath1)" fill="none" x1="1365" x2="1365" y1="40" y2="601"/>
<line clip-path="url(#clipPath1)" fill="none" x1="42" x2="1382" y1="601" y2="601"/>
<line clip-path="url(#clipPath1)" fill="none" x1="42" x2="1382" y1="516" y2="516"/>
<line clip-path="url(#clipPath1)" fill="none" x1="42" x2="1382" y1="432" y2="432"/>
<line clip-path="url(#clipPath1)" fill="none" x1="42" x2="1382" y1="348" y2="348"/>
<line clip-path="url(#clipPath1)" fill="none" x1="42" x2="1382" y1="264" y2="264"/>
<line clip-path="url(#clipPath1)" fill="none" x1="42" x2="1382" y1="180" y2="180"/>
<line clip-path="url(#clipPath1)" fill="none" x1="42" x2="1382" y1="96" y2="96"/>
<rect x="55" y="178" clip-path="url(#clipPath1)" fill="rgb(0,0,139)" width="5" height="5" stroke="none"/>
<line clip-path="url(#clipPath1)" fill="none" x1="57" x2="73" y1="180" y2="601" stroke-dasharray="none" stroke="rgb(0,0,139)"/>
<rect x="71" y="599" clip-path="url(#clipPath1)" fill="rgb(0,0,139)" width="5" stroke-dasharray="none" height="5" stroke="none"/>
<line clip-path="url(#clipPath1)" fill="none" x1="73" x2="88" y1="601" y2="390" stroke-dasharray="none" stroke="rgb(0,0,139)"/>
<rect x="86" y="388" clip-path="url(#clipPath1)" fill="rgb(0,0,139)" width="5" stroke-dasharray="none" height="5" stroke="none"/>
<line clip-path="url(#clipPath1)" fill="none" x1="88" x2="104" y1="390" y2="390" stroke-dasharray="none" stroke="rgb(0,0,139)"/>
<rect x="102" y="388" clip-path="url(#clipPath1)" fill="rgb(0,0,139)" width="5" stroke-dasharray="none" height="5" stroke="none"/>
<line clip-path="url(#clipPath1)" fill="none" x1="104" x2="119" y1="390" y2="474" stroke-dasharray="none" stroke="rgb(0,0,139)"/>
<rect x="117" y="472" clip-path="url(#clipPath1)" fill="rgb(0,0,139)" width="5" stroke-dasharray="none" height="5" stroke="none"/>
<line clip-path="url(#clipPath1)" fill="none" x1="119" x2="135" y1="474" y2="516" stroke-dasharray="none" stroke="rgb(0,0,139)"/>
<rect x="133" y="514" clip-path="url(#clipPath1)" fill="rgb(0,0,139)" width="5" stroke-dasharray="none" height="5" stroke="none"/>
<line clip-path="url(#clipPath1)" fill="none" x1="135" x2="150" y1="516" y2="432" stroke-dasharray="none" stroke="rgb(0,0,139)"/>
<rect x="148" y="430" clip-path="url(#clipPath1)" fill="rgb(0,0,139)" width="5" stroke-dasharray="none" height="5" stroke="none"/>
<line clip-path="url(#clipPath1)" fill="none" x1="150" x2="166" y1="432" y2="432" stroke-dasharray="none" stroke="rgb(0,0,139)"/>
<rect x="164" y="430" clip-path="url(#clipPath1)" fill="rgb(0,0,139)" width="5" stroke-dasharray="none" height="5" stroke="none"/>
<line clip-path="url(#clipPath1)" fill="none" x1="166" x2="182" y1="432" y2="516" stroke-dasharray="none" stroke="rgb(0,0,139)"/>
<rect x="180" y="514" clip-path="url(#clipPath1)" fill="rgb(0,0,139)" width="5" stroke-dasharray="none" height="5" stroke="none"/>
<line clip-path="url(#clipPath1)" fill="none" x1="182" x2="197" y1="516" y2="306" stroke-dasharray="none" stroke="rgb(0,0,139)"/>
<rect x="195" y="304" clip-path="url(#clipPath1)" fill="rgb(0,0,139)" width="5" stroke-dasharray="none" height="5" stroke="none"/>
<line clip-path="url(#clipPath1)" fill="none" x1="197" x2="213" y1="306" y2="516" stroke-dasharray="none" stroke="rgb(0,0,139)"/>
<rect x="211" y="514" clip-path="url(#clipPath1)" fill="rgb(0,0,139)" width="5" stroke-dasharray="none" height="5" stroke="none"/>
<line clip-path="url(#clipPath1)" fill="none" x1="213" x2="228" y1="516" y2="516" stroke-dasharray="none" stroke="rgb(0,0,139)"/>
<rect x="226" y="514" clip-path="url(#clipPath1)" fill="rgb(0,0,139)" width="5" stroke-dasharray="none" height="5" stroke="none"/>
<line clip-path="url(#clipPath1)" fill="none" x1="228" x2="244" y1="516" y2="348" stroke-dasharray="none" stroke="rgb(0,0,139)"/>
<rect x="242" y="346" clip-path="url(#clipPath1)" fill="rgb(0,0,139)" width="5" stroke-dasharray="none" height="5" stroke="none"/>
<line clip-path="url(#clipPath1)" fill="none" x1="244" x2="259" y1="348" y2="558" stroke-dasharray="none" stroke="rgb(0,0,139)"/>
<rect x="257" y="556" clip-path="url(#clipPath1)" fill="rgb(0,0,139)" width="5" stroke-dasharray="none" height="5" stroke="none"/>
<line clip-path="url(#clipPath1)" fill="none" x1="259" x2="275" y1="558" y2="390" stroke-dasharray="none" stroke="rgb(0,0,139)"/>
<rect x="273" y="388" clip-path="url(#clipPath1)" fill="rgb(0,0,139)" width="5" stroke-dasharray="none" height="5" stroke="none"/>
<line clip-path="url(#clipPath1)" fill="none" x1="275" x2="291" y1="390" y2="474" stroke-dasharray="none" stroke="rgb(0,0,139)"/>
<rect x="289" y="472" clip-path="url(#clipPath1)" fill="rgb(0,0,139)" width="5" stroke-dasharray="none" height="5" stroke="none"/>
<line clip-path="url(#clipPath1)" fill="none" x1="291" x2="306" y1="474" y2="390" stroke-dasharray="none" stroke="rgb(0,0,139)"/>
<rect x="304" y="388" clip-path="url(#clipPath1)" fill="rgb(0,0,139)" width="5" stroke-dasharray="none" height="5" stroke="none"/>
<line clip-path="url(#clipPath1)" fill="none" x1="306" x2="322" y1="390" y2="516" stroke-dasharray="none" stroke="rgb(0,0,139)"/>
<rect x="320" y="514" clip-path="url(#clipPath1)" fill="rgb(0,0,139)" width="5" stroke-dasharray="none" height="5" stroke="none"/>
<line clip-path="url(#clipPath1)" fill="none" x1="322" x2="337" y1="516" y2="516" stroke-dasharray="none" stroke="rgb(0,0,139)"/>
<rect x="335" y="514" clip-path="url(#clipPath1)" fill="rgb(0,0,139)" width="5" stroke-dasharray="none" height="5" stroke="none"/>
<line clip-path="url(#clipPath1)" fill="none" x1="337" x2="353" y1="516" y2="348" stroke-dasharray="none" stroke="rgb(0,0,139)"/>
<rect x="351" y="346" clip-path="url(#clipPath1)" fill="rgb(0,0,139)" width="5" stroke-dasharray="none" height="5" stroke="none"/>
<line clip-path="url(#clipPath1)" fill="none" x1="353" x2="368" y1="348" y2="558" stroke-dasharray="none" stroke="rgb(0,0,139)"/>
<rect x="366" y="556" clip-path="url(#clipPath1)" fill="rgb(0,0,139)" width="5" stroke-dasharray="none" height="5" stroke="none"/>
<line clip-path="url(#clipPath1)" fill="none" x1="368" x2="384" y1="558" y2="306" stroke-dasharray="none" stroke="rgb(0,0,139)"/>
<rect x="382" y="304" clip-path="url(#clipPath1)" fill="rgb(0,0,139)" width="5" stroke-dasharray="none" height="5" stroke="none"/>
<line clip-path="url(#clipPath1)" fill="none" x1="384" x2="400" y1="306" y2="516" stroke-dasharray="none" stroke="rgb(0,0,139)"/>
<rect x="398" y="514" clip-path="url(#clipPath1)" fill="rgb(0,0,139)" width="5" stroke-dasharray="none" height="5" stroke="none"/>
<line clip-path="url(#clipPath1)" fill="none" x1="400" x2="415" y1="516" y2="516" stroke-dasharray="none" stroke="rgb(0,0,139)"/>
<rect x="413" y="514" clip-path="url(#clipPath1)" fill="rgb(0,0,139)" width="5" stroke-dasharray="none" height="5" stroke="none"/>
<line clip-path="url(#clipPath1)" fill="none" x1="415" x2="431" y1="516" y2="390" stroke-dasharray="none" stroke="rgb(0,0,139)"/>
<rect x="429" y="388" clip-path="url(#clipPath1)" fill="rgb(0,0,139)" width="5" stroke-dasharray="none" height="5" stroke="none"/>
<line clip-path="url(#clipPath1)" fill="none" x1="431" x2="446" y1="390" y2="474" stroke-dasharray="none" stroke="rgb(0,0,139)"/>
<rect x="444" y="472" clip-path="url(#clipPath1)" fill="rgb(0,0,139)" width="5" stroke-dasharray="none" height="5" stroke="none"/>
<line clip-path="url(#clipPath1)" fill="none" x1="446" x2="462" y1="474" y2="432" stroke-dasharray="none" stroke="rgb(0,0,139)"/>
<rect x="460" y="430" clip-path="url(#clipPath1)" fill="rgb(0,0,139)" width="5" stroke-dasharray="none" height="5" stroke="none"/>
<line clip-path="url(#clipPath1)" fill="none" x1="462" x2="477" y1="432" y2="474" stroke-dasharray="none" stroke="rgb(0,0,139)"/>
<rect x="475" y="472" clip-path="url(#clipPath1)" fill="rgb(0,0,139)" width="5" stroke-dasharray="none" height="5" stroke="none"/>
<line clip-path="url(#clipPath1)" fill="none" x1="477" x2="493" y1="474" y2="348" stroke-dasharray="none" stroke="rgb(0,0,139)"/>
<rect x="491" y="346" clip-path="url(#clipPath1)" fill="rgb(0,0,139)" width="5" stroke-dasharray="none" height="5" stroke="none"/>
<line clip-path="url(#clipPath1)" fill="none" x1="493" x2="509" y1="348" y2="558" stroke-dasharray="none" stroke="rgb(0,0,139)"/>
<rect x="507" y="556" clip-path="url(#clipPath1)" fill="rgb(0,0,139)" width="5" stroke-dasharray="none" height="5" stroke="none"/>
<line clip-path="url(#clipPath1)" fill="none" x1="509" x2="524" y1="558" y2="432" stroke-dasharray="none" stroke="rgb(0,0,139)"/>
<rect x="522" y="430" clip-path="url(#clipPath1)" fill="rgb(0,0,139)" width="5" stroke-dasharray="none" height="5" stroke="none"/>
<line clip-path="url(#clipPath1)" fill="none" x1="524" x2="540" y1="432" y2="474" stroke-dasharray="none" stroke="rgb(0,0,139)"/>
<rect x="538" y="472" clip-path="url(#clipPath1)" fill="rgb(0,0,139)" width="5" stroke-dasharray="none" height="5" stroke="none"/>
<line clip-path="url(#clipPath1)" fill="none" x1="540" x2="555" y1="474" y2="432" stroke-dasharray="none" stroke="rgb(0,0,139)"/>
<rect x="553" y="430" clip-path="url(#clipPath1)" fill="rgb(0,0,139)" width="5" stroke-dasharray="none" height="5" stroke="none"/>
<line clip-path="url(#clipPath1)" fill="none" x1="555" x2="571" y1="432" y2="390" stroke-dasharray="none" stroke="rgb(0,0,139)"/>
<rect x="569" y="388" clip-path="url(#clipPath1)" fill="rgb(0,0,139)" width="5" stroke-dasharray="none" height="5" stroke="none"/>
<line clip-path="url(#clipPath1)" fill="none" x1="571" x2="586" y1="390" y2="601" stroke-dasharray="none" stroke="rgb(0,0,139)"/>
<rect x="584" y="599" clip-path="url(#clipPath1)" fill="rgb(0,0,139)" width="5" stroke-dasharray="none" height="5" stroke="none"/>
<line clip-path="url(#clipPath1)" fill="none" x1="586" x2="602" y1="601" y2="348" stroke-dasharray="none" stroke="rgb(0,0,139)"/>
<rect x="600" y="346" clip-path="url(#clipPath1)" fill="rgb(0,0,139)" width="5" stroke-dasharray="none" height="5" stroke="none"/>
<line clip-path="url(#clipPath1)" fill="none" x1="602" x2="618" y1="348" y2="432" stroke-dasharray="none" stroke="rgb(0,0,139)"/>
<rect x="616" y="430" clip-path="url(#clipPath1)" fill="rgb(0,0,139)" width="5" stroke-dasharray="none" height="5" stroke="none"/>
<line clip-path="url(#clipPath1)" fill="none" x1="618" x2="633" y1="432" y2="601" stroke-dasharray="none" stroke="rgb(0,0,139)"/>
<rect x="631" y="599" clip-path="url(#clipPath1)" fill="rgb(0,0,139)" width="5" stroke-dasharray="none" height="5" stroke="none"/>
<line clip-path="url(#clipPath1)" fill="none" x1="633" x2="649" y1="601" y2="306" stroke-dasharray="none" stroke="rgb(0,0,139)"/>
<rect x="647" y="304" clip-path="url(#clipPath1)" fill="rgb(0,0,139)" width="5" stroke-dasharray="none" height="5" stroke="none"/>
<line clip-path="url(#clipPath1)" fill="none" x1="649" x2="664" y1="306" y2="474" stroke-dasharray="none" stroke="rgb(0,0,139)"/>
<rect x="662" y="472" clip-path="url(#clipPath1)" fill="rgb(0,0,139)" width="5" stroke-dasharray="none" height="5" stroke="none"/>
<line clip-path="url(#clipPath1)" fill="none" x1="664" x2="680" y1="474" y2="516" stroke-dasharray="none" stroke="rgb(0,0,139)"/>
<rect x="678" y="514" clip-path="url(#clipPath1)" fill="rgb(0,0,139)" width="5" stroke-dasharray="none" height="5" stroke="none"/>
<line clip-path="url(#clipPath1)" fill="none" x1="680" x2="695" y1="516" y2="390" stroke-dasharray="none" stroke="rgb(0,0,139)"/>
<rect x="693" y="388" clip-path="url(#clipPath1)" fill="rgb(0,0,139)" width="5" stroke-dasharray="none" height="5" stroke="none"/>
<line clip-path="url(#clipPath1)" fill="none" x1="695" x2="711" y1="390" y2="474" stroke-dasharray="none" stroke="rgb(0,0,139)"/>
<rect x="709" y="472" clip-path="url(#clipPath1)" fill="rgb(0,0,139)" width="5" stroke-dasharray="none" height="5" stroke="none"/>
<line clip-path="url(#clipPath1)" fill="none" x1="711" x2="727" y1="474" y2="432" stroke-dasharray="none" stroke="rgb(0,0,139)"/>
<rect x="725" y="430" clip-path="url(#clipPath1)" fill="rgb(0,0,139)" width="5" stroke-dasharray="none" height="5" stroke="none"/>
<line clip-path="url(#clipPath1)" fill="none" x1="727" x2="742" y1="432" y2="474" stroke-dasharray="none" stroke="rgb(0,0,139)"/>
<rect x="740" y="472" clip-path="url(#clipPath1)" fill="rgb(0,0,139)" width="5" stroke-dasharray="none" height="5" stroke="none"/>
<line clip-path="url(#clipPath1)" fill="none" x1="742" x2="758" y1="474" y2="390" stroke-dasharray="none" stroke="rgb(0,0,139)"/>
<rect x="756" y="388" clip-path="url(#clipPath1)" fill="rgb(0,0,139)" width="5" stroke-dasharray="none" height="5" stroke="none"/>
<line clip-path="url(#clipPath1)" fill="none" x1="758" x2="773" y1="390" y2="516" stroke-dasharray="none" stroke="rgb(0,0,139)"/>
<rect x="771" y="514" clip-path="url(#clipPath1)" fill="rgb(0,0,139)" width="5" stroke-dasharray="none" height="5" stroke="none"/>
<line clip-path="url(#clipPath1)" fill="none" x1="773" x2="789" y1="516" y2="474" stroke-dasharray="none" stroke="rgb(0,0,139)"/>
<rect x="787" y="472" clip-path="url(#clipPath1)" fill="rgb(0,0,139)" width="5" stroke-dasharray="none" height="5" stroke="none"/>
<line clip-path="url(#clipPath1)" fill="none" x1="789" x2="804" y1="474" y2="432" stroke-dasharray="none" stroke="rgb(0,0,139)"/>
<rect x="802" y="430" clip-path="url(#clipPath1)" fill="rgb(0,0,139)" width="5" stroke-dasharray="none" height="5" stroke="none"/>
<line clip-path="url(#clipPath1)" fill="none" x1="804" x2="820" y1="432" y2="474" stroke-dasharray="none" stroke="rgb(0,0,139)"/>
<rect x="818" y="472" clip-path="url(#clipPath1)" fill="rgb(0,0,139)" width="5" stroke-dasharray="none" height="5" stroke="none"/>
<line clip-path="url(#clipPath1)" fill="none" x1="820" x2="836" y1="474" y2="432" stroke-dasharray="none" stroke="rgb(0,0,139)"/>
<rect x="834" y="430" clip-path="url(#clipPath1)" fill="rgb(0,0,139)" width="5" stroke-dasharray="none" height="5" stroke="none"/>
<line clip-path="url(#clipPath1)" fill="none" x1="836" x2="851" y1="432" y2="474" stroke-dasharray="none" stroke="rgb(0,0,139)"/>
<rect x="849" y="472" clip-path="url(#clipPath1)" fill="rgb(0,0,139)" width="5" stroke-dasharray="none" height="5" stroke="none"/>
<line clip-path="url(#clipPath1)" fill="none" x1="851" x2="867" y1="474" y2="432" stroke-dasharray="none" stroke="rgb(0,0,139)"/>
<rect x="865" y="430" clip-path="url(#clipPath1)" fill="rgb(0,0,139)" width="5" stroke-dasharray="none" height="5" stroke="none"/>
<line clip-path="url(#clipPath1)" fill="none" x1="867" x2="882" y1="432" y2="474" stroke-dasharray="none" stroke="rgb(0,0,139)"/>
<rect x="880" y="472" clip-path="url(#clipPath1)" fill="rgb(0,0,139)" width="5" stroke-dasharray="none" height="5" stroke="none"/>
<line clip-path="url(#clipPath1)" fill="none" x1="882" x2="898" y1="474" y2="390" stroke-dasharray="none" stroke="rgb(0,0,139)"/>
<rect x="896" y="388" clip-path="url(#clipPath1)" fill="rgb(0,0,139)" width="5" stroke-dasharray="none" height="5" stroke="none"/>
<line clip-path="url(#clipPath1)" fill="none" x1="898" x2="913" y1="390" y2="474" stroke-dasharray="none" stroke="rgb(0,0,139)"/>
<rect x="911" y="472" clip-path="url(#clipPath1)" fill="rgb(0,0,139)" width="5" stroke-dasharray="none" height="5" stroke="none"/>
<line clip-path="url(#clipPath1)" fill="none" x1="913" x2="929" y1="474" y2="558" stroke-dasharray="none" stroke="rgb(0,0,139)"/>
<rect x="927" y="556" clip-path="url(#clipPath1)" fill="rgb(0,0,139)" width="5" stroke-dasharray="none" height="5" stroke="none"/>
<line clip-path="url(#clipPath1)" fill="none" x1="929" x2="945" y1="558" y2="264" stroke-dasharray="none" stroke="rgb(0,0,139)"/>
<rect x="943" y="262" clip-path="url(#clipPath1)" fill="rgb(0,0,139)" width="5" stroke-dasharray="none" height="5" stroke="none"/>
<line clip-path="url(#clipPath1)" fill="none" x1="945" x2="960" y1="264" y2="558" stroke-dasharray="none" stroke="rgb(0,0,139)"/>
<rect x="958" y="556" clip-path="url(#clipPath1)" fill="rgb(0,0,139)" width="5" stroke-dasharray="none" height="5" stroke="none"/>
<line clip-path="url(#clipPath1)" fill="none" x1="960" x2="976" y1="558" y2="516" stroke-dasharray="none" stroke="rgb(0,0,139)"/>
<rect x="974" y="514" clip-path="url(#clipPath1)" fill="rgb(0,0,139)" width="5" stroke-dasharray="none" height="5" stroke="none"/>
<line clip-path="url(#clipPath1)" fill="none" x1="976" x2="991" y1="516" y2="348" stroke-dasharray="none" stroke="rgb(0,0,139)"/>
<rect x="989" y="346" clip-path="url(#clipPath1)" fill="rgb(0,0,139)" width="5" stroke-dasharray="none" height="5" stroke="none"/>
<line clip-path="url(#clipPath1)" fill="none" x1="991" x2="1007" y1="348" y2="474" stroke-dasharray="none" stroke="rgb(0,0,139)"/>
<rect x="1005" y="472" clip-path="url(#clipPath1)" fill="rgb(0,0,139)" width="5" stroke-dasharray="none" height="5" stroke="none"/>
<line clip-path="url(#clipPath1)" fill="none" x1="1007" x2="1022" y1="474" y2="474" stroke-dasharray="none" stroke="rgb(0,0,139)"/>
<rect x="1020" y="472" clip-path="url(#clipPath1)" fill="rgb(0,0,139)" width="5" stroke-dasharray="none" height="5" stroke="none"/>
<line clip-path="url(#clipPath1)" fill="none" x1="1022" x2="1038" y1="474" y2="474" stroke-dasharray="none" stroke="rgb(0,0,139)"/>
<rect x="1036" y="472" clip-path="url(#clipPath1)" fill="rgb(0,0,139)" width="5" stroke-dasharray="none" height="5" stroke="none"/>
<line clip-path="url(#clipPath1)" fill="none" x1="1038" x2="1054" y1="474" y2="390" stroke-dasharray="none" stroke="rgb(0,0,139)"/>
<rect x="1052" y="388" clip-path="url(#clipPath1)" fill="rgb(0,0,139)" width="5" stroke-dasharray="none" height="5" stroke="none"/>
<line clip-path="url(#clipPath1)" fill="none" x1="1054" x2="1069" y1="390" y2="474" stroke-dasharray="none" stroke="rgb(0,0,139)"/>
<rect x="1067" y="472" clip-path="url(#clipPath1)" fill="rgb(0,0,139)" width="5" stroke-dasharray="none" height="5" stroke="none"/>
<line clip-path="url(#clipPath1)" fill="none" x1="1069" x2="1085" y1="474" y2="474" stroke-dasharray="none" stroke="rgb(0,0,139)"/>
<rect x="1083" y="472" clip-path="url(#clipPath1)" fill="rgb(0,0,139)" width="5" stroke-dasharray="none" height="5" stroke="none"/>
<line clip-path="url(#clipPath1)" fill="none" x1="1085" x2="1100" y1="474" y2="432" stroke-dasharray="none" stroke="rgb(0,0,139)"/>
<rect x="1098" y="430" clip-path="url(#clipPath1)" fill="rgb(0,0,139)" width="5" stroke-dasharray="none" height="5" stroke="none"/>
<line clip-path="url(#clipPath1)" fill="none" x1="1100" x2="1116" y1="432" y2="432" stroke-dasharray="none" stroke="rgb(0,0,139)"/>
<rect x="1114" y="430" clip-path="url(#clipPath1)" fill="rgb(0,0,139)" width="5" stroke-dasharray="none" height="5" stroke="none"/>
<line clip-path="url(#clipPath1)" fill="none" x1="1116" x2="1131" y1="432" y2="516" stroke-dasharray="none" stroke="rgb(0,0,139)"/>
<rect x="1129" y="514" clip-path="url(#clipPath1)" fill="rgb(0,0,139)" width="5" stroke-dasharray="none" height="5" stroke="none"/>
<line clip-path="url(#clipPath1)" fill="none" x1="1131" x2="1147" y1="516" y2="432" stroke-dasharray="none" stroke="rgb(0,0,139)"/>
<rect x="1145" y="430" clip-path="url(#clipPath1)" fill="rgb(0,0,139)" width="5" stroke-dasharray="none" height="5" stroke="none"/>
<line clip-path="url(#clipPath1)" fill="none" x1="1147" x2="1163" y1="432" y2="432" stroke-dasharray="none" stroke="rgb(0,0,139)"/>
<rect x="1161" y="430" clip-path="url(#clipPath1)" fill="rgb(0,0,139)" width="5" stroke-dasharray="none" height="5" stroke="none"/>
<line clip-path="url(#clipPath1)" fill="none" x1="1163" x2="1178" y1="432" y2="474" stroke-dasharray="none" stroke="rgb(0,0,139)"/>
<rect x="1176" y="472" clip-path="url(#clipPath1)" fill="rgb(0,0,139)" width="5" stroke-dasharray="none" height="5" stroke="none"/>
<line clip-path="url(#clipPath1)" fill="none" x1="1178" x2="1194" y1="474" y2="432" stroke-dasharray="none" stroke="rgb(0,0,139)"/>
<rect x="1192" y="430" clip-path="url(#clipPath1)" fill="rgb(0,0,139)" width="5" stroke-dasharray="none" height="5" stroke="none"/>
<line clip-path="url(#clipPath1)" fill="none" x1="1194" x2="1209" y1="432" y2="432" stroke-dasharray="none" stroke="rgb(0,0,139)"/>
<rect x="1207" y="430" clip-path="url(#clipPath1)" fill="rgb(0,0,139)" width="5" stroke-dasharray="none" height="5" stroke="none"/>
<line clip-path="url(#clipPath1)" fill="none" x1="1209" x2="1225" y1="432" y2="516" stroke-dasharray="none" stroke="rgb(0,0,139)"/>
<rect x="1223" y="514" clip-path="url(#clipPath1)" fill="rgb(0,0,139)" width="5" stroke-dasharray="none" height="5" stroke="none"/>
<line clip-path="url(#clipPath1)" fill="none" x1="1225" x2="1240" y1="516" y2="348" stroke-dasharray="none" stroke="rgb(0,0,139)"/>
<rect x="1238" y="346" clip-path="url(#clipPath1)" fill="rgb(0,0,139)" width="5" stroke-dasharray="none" height="5" stroke="none"/>
<line clip-path="url(#clipPath1)" fill="none" x1="1240" x2="1256" y1="348" y2="516" stroke-dasharray="none" stroke="rgb(0,0,139)"/>
<rect x="1254" y="514" clip-path="url(#clipPath1)" fill="rgb(0,0,139)" width="5" stroke-dasharray="none" height="5" stroke="none"/>
<line clip-path="url(#clipPath1)" fill="none" x1="1256" x2="1272" y1="516" y2="558" stroke-dasharray="none" stroke="rgb(0,0,139)"/>
<rect x="1270" y="556" clip-path="url(#clipPath1)" fill="rgb(0,0,139)" width="5" stroke-dasharray="none" height="5" stroke="none"/>
<line clip-path="url(#clipPath1)" fill="none" x1="1272" x2="1287" y1="558" y2="306" stroke-dasharray="none" stroke="rgb(0,0,139)"/>
<rect x="1285" y="304" clip-path="url(#clipPath1)" fill="rgb(0,0,139)" width="5" stroke-dasharray="none" height="5" stroke="none"/>
<line clip-path="url(#clipPath1)" fill="none" x1="1287" x2="1303" y1="306" y2="474" stroke-dasharray="none" stroke="rgb(0,0,139)"/>
<rect x="1301" y="472" clip-path="url(#clipPath1)" fill="rgb(0,0,139)" width="5" stroke-dasharray="none" height="5" stroke="none"/>
<line clip-path="url(#clipPath1)" fill="none" x1="1303" x2="1318" y1="474" y2="558" stroke-dasharray="none" stroke="rgb(0,0,139)"/>
<rect x="1316" y="556" clip-path="url(#clipPath1)" fill="rgb(0,0,139)" width="5" stroke-dasharray="none" height="5" stroke="none"/>
<line clip-path="url(#clipPath1)" fill="none" x1="1318" x2="1334" y1="558" y2="348" stroke-dasharray="none" stroke="rgb(0,0,139)"/>
<rect x="1332" y="346" clip-path="url(#clipPath1)" fill="rgb(0,0,139)" width="5" stroke-dasharray="none" height="5" stroke="none"/>
<line clip-path="url(#clipPath1)" fill="none" x1="1334" x2="1349" y1="348" y2="474" stroke-dasharray="none" stroke="rgb(0,0,139)"/>
<rect x="1347" y="472" clip-path="url(#clipPath1)" fill="rgb(0,0,139)" width="5" stroke-dasharray="none" height="5" stroke="none"/>
<line clip-path="url(#clipPath1)" fill="none" x1="1349" x2="1365" y1="474" y2="516" stroke-dasharray="none" stroke="rgb(0,0,139)"/>
<rect x="1363" y="514" clip-path="url(#clipPath1)" fill="rgb(0,0,139)" width="5" stroke-dasharray="none" height="5" stroke="none"/>
<rect x="42" y="40" clip-path="url(#clipPath2)" fill="none" width="1340" stroke-dasharray="none" height="561" stroke="black"/>
</g>
<g text-rendering="geometricPrecision" font-size="13" font-family="'Arial'" stroke-linecap="butt">
<text xml:space="preserve" x="634" y="12" clip-path="url(#clipPath2)" stroke="none">Number of free channels</text>
<line clip-path="url(#clipPath2)" fill="none" x1="42" x2="1382" y1="38" y2="38"/>
<line clip-path="url(#clipPath2)" fill="none" x1="42" x2="1382" y1="603" y2="603"/>
<text xml:space="preserve" x="700" y="637" clip-path="url(#clipPath2)" stroke="none">time</text>
<line clip-path="url(#clipPath2)" fill="none" x1="42" x2="42" y1="34" y2="38"/>
<line clip-path="url(#clipPath2)" fill="none" x1="42" x2="42" y1="607" y2="603"/>
<text x="33" font-size="10" y="29" clip-path="url(#clipPath2)" stroke="none" xml:space="preserve">0.00</text>
<text x="33" font-size="10" y="618" clip-path="url(#clipPath2)" stroke="none" xml:space="preserve">0.00</text>
<line clip-path="url(#clipPath2)" fill="none" x1="57" x2="57" y1="36" y2="38"/>
<line clip-path="url(#clipPath2)" fill="none" x1="57" x2="57" y1="605" y2="603"/>
<line clip-path="url(#clipPath2)" fill="none" x1="73" x2="73" y1="36" y2="38"/>
<line clip-path="url(#clipPath2)" fill="none" x1="73" x2="73" y1="605" y2="603"/>
<line clip-path="url(#clipPath2)" fill="none" x1="88" x2="88" y1="36" y2="38"/>
<line clip-path="url(#clipPath2)" fill="none" x1="88" x2="88" y1="605" y2="603"/>
<line clip-path="url(#clipPath2)" fill="none" x1="104" x2="104" y1="36" y2="38"/>
<line clip-path="url(#clipPath2)" fill="none" x1="104" x2="104" y1="605" y2="603"/>
<line clip-path="url(#clipPath2)" fill="none" x1="119" x2="119" y1="34" y2="38"/>
<line clip-path="url(#clipPath2)" fill="none" x1="119" x2="119" y1="607" y2="603"/>
<text x="108" font-size="10" y="29" clip-path="url(#clipPath2)" stroke="none" xml:space="preserve">0.005</text>
<text x="108" font-size="10" y="618" clip-path="url(#clipPath2)" stroke="none" xml:space="preserve">0.005</text>
<line clip-path="url(#clipPath2)" fill="none" x1="135" x2="135" y1="36" y2="38"/>
<line clip-path="url(#clipPath2)" fill="none" x1="135" x2="135" y1="605" y2="603"/>
<line clip-path="url(#clipPath2)" fill="none" x1="150" x2="150" y1="36" y2="38"/>
<line clip-path="url(#clipPath2)" fill="none" x1="150" x2="150" y1="605" y2="603"/>
<line clip-path="url(#clipPath2)" fill="none" x1="166" x2="166" y1="36" y2="38"/>
<line clip-path="url(#clipPath2)" fill="none" x1="166" x2="166" y1="605" y2="603"/>
<line clip-path="url(#clipPath2)" fill="none" x1="182" x2="182" y1="36" y2="38"/>
<line clip-path="url(#clipPath2)" fill="none" x1="182" x2="182" y1="605" y2="603"/>
<line clip-path="url(#clipPath2)" fill="none" x1="197" x2="197" y1="34" y2="38"/>
<line clip-path="url(#clipPath2)" fill="none" x1="197" x2="197" y1="607" y2="603"/>
<text x="186" font-size="10" y="29" clip-path="url(#clipPath2)" stroke="none" xml:space="preserve">0.010</text>
<text x="186" font-size="10" y="618" clip-path="url(#clipPath2)" stroke="none" xml:space="preserve">0.010</text>
<line clip-path="url(#clipPath2)" fill="none" x1="213" x2="213" y1="36" y2="38"/>
<line clip-path="url(#clipPath2)" fill="none" x1="213" x2="213" y1="605" y2="603"/>
<line clip-path="url(#clipPath2)" fill="none" x1="228" x2="228" y1="36" y2="38"/>
<line clip-path="url(#clipPath2)" fill="none" x1="228" x2="228" y1="605" y2="603"/>
<line clip-path="url(#clipPath2)" fill="none" x1="244" x2="244" y1="36" y2="38"/>
<line clip-path="url(#clipPath2)" fill="none" x1="244" x2="244" y1="605" y2="603"/>
<line clip-path="url(#clipPath2)" fill="none" x1="259" x2="259" y1="36" y2="38"/>
<line clip-path="url(#clipPath2)" fill="none" x1="259" x2="259" y1="605" y2="603"/>
<line clip-path="url(#clipPath2)" fill="none" x1="275" x2="275" y1="34" y2="38"/>
<line clip-path="url(#clipPath2)" fill="none" x1="275" x2="275" y1="607" y2="603"/>
<text x="264" font-size="10" y="29" clip-path="url(#clipPath2)" stroke="none" xml:space="preserve">0.015</text>
<text x="264" font-size="10" y="618" clip-path="url(#clipPath2)" stroke="none" xml:space="preserve">0.015</text>
<line clip-path="url(#clipPath2)" fill="none" x1="291" x2="291" y1="36" y2="38"/>
<line clip-path="url(#clipPath2)" fill="none" x1="291" x2="291" y1="605" y2="603"/>
<line clip-path="url(#clipPath2)" fill="none" x1="306" x2="306" y1="36" y2="38"/>
<line clip-path="url(#clipPath2)" fill="none" x1="306" x2="306" y1="605" y2="603"/>
<line clip-path="url(#clipPath2)" fill="none" x1="322" x2="322" y1="36" y2="38"/>
<line clip-path="url(#clipPath2)" fill="none" x1="322" x2="322" y1="605" y2="603"/>
<line clip-path="url(#clipPath2)" fill="none" x1="337" x2="337" y1="36" y2="38"/>
<line clip-path="url(#clipPath2)" fill="none" x1="337" x2="337" y1="605" y2="603"/>
<line clip-path="url(#clipPath2)" fill="none" x1="353" x2="353" y1="34" y2="38"/>
<line clip-path="url(#clipPath2)" fill="none" x1="353" x2="353" y1="607" y2="603"/>
<text x="342" font-size="10" y="29" clip-path="url(#clipPath2)" stroke="none" xml:space="preserve">0.020</text>
<text x="342" font-size="10" y="618" clip-path="url(#clipPath2)" stroke="none" xml:space="preserve">0.020</text>
<line clip-path="url(#clipPath2)" fill="none" x1="368" x2="368" y1="36" y2="38"/>
<line clip-path="url(#clipPath2)" fill="none" x1="368" x2="368" y1="605" y2="603"/>
<line clip-path="url(#clipPath2)" fill="none" x1="384" x2="384" y1="36" y2="38"/>
<line clip-path="url(#clipPath2)" fill="none" x1="384" x2="384" y1="605" y2="603"/>
<line clip-path="url(#clipPath2)" fill="none" x1="400" x2="400" y1="36" y2="38"/>
<line clip-path="url(#clipPath2)" fill="none" x1="400" x2="400" y1="605" y2="603"/>
<line clip-path="url(#clipPath2)" fill="none" x1="415" x2="415" y1="36" y2="38"/>
<line clip-path="url(#clipPath2)" fill="none" x1="415" x2="415" y1="605" y2="603"/>
<line clip-path="url(#clipPath2)" fill="none" x1="431" x2="431" y1="34" y2="38"/>
<line clip-path="url(#clipPath2)" fill="none" x1="431" x2="431" y1="607" y2="603"/>
<text x="420" font-size="10" y="29" clip-path="url(#clipPath2)" stroke="none" xml:space="preserve">0.025</text>
<text x="420" font-size="10" y="618" clip-path="url(#clipPath2)" stroke="none" xml:space="preserve">0.025</text>
<line clip-path="url(#clipPath2)" fill="none" x1="446" x2="446" y1="36" y2="38"/>
<line clip-path="url(#clipPath2)" fill="none" x1="446" x2="446" y1="605" y2="603"/>
<line clip-path="url(#clipPath2)" fill="none" x1="462" x2="462" y1="36" y2="38"/>
<line clip-path="url(#clipPath2)" fill="none" x1="462" x2="462" y1="605" y2="603"/>
<line clip-path="url(#clipPath2)" fill="none" x1="477" x2="477" y1="36" y2="38"/>
<line clip-path="url(#clipPath2)" fill="none" x1="477" x2="477" y1="605" y2="603"/>
<line clip-path="url(#clipPath2)" fill="none" x1="493" x2="493" y1="36" y2="38"/>
<line clip-path="url(#clipPath2)" fill="none" x1="493" x2="493" y1="605" y2="603"/>
<line clip-path="url(#clipPath2)" fill="none" x1="509" x2="509" y1="34" y2="38"/>
<line clip-path="url(#clipPath2)" fill="none" x1="509" x2="509" y1="607" y2="603"/>
<text x="498" font-size="10" y="29" clip-path="url(#clipPath2)" stroke="none" xml:space="preserve">0.030</text>
<text x="498" font-size="10" y="618" clip-path="url(#clipPath2)" stroke="none" xml:space="preserve">0.030</text>
<line clip-path="url(#clipPath2)" fill="none" x1="524" x2="524" y1="36" y2="38"/>
<line clip-path="url(#clipPath2)" fill="none" x1="524" x2="524" y1="605" y2="603"/>
<line clip-path="url(#clipPath2)" fill="none" x1="540" x2="540" y1="36" y2="38"/>
<line clip-path="url(#clipPath2)" fill="none" x1="540" x2="540" y1="605" y2="603"/>
<line clip-path="url(#clipPath2)" fill="none" x1="555" x2="555" y1="36" y2="38"/>
<line clip-path="url(#clipPath2)" fill="none" x1="555" x2="555" y1="605" y2="603"/>
<line clip-path="url(#clipPath2)" fill="none" x1="571" x2="571" y1="36" y2="38"/>
<line clip-path="url(#clipPath2)" fill="none" x1="571" x2="571" y1="605" y2="603"/>
<line clip-path="url(#clipPath2)" fill="none" x1="586" x2="586" y1="34" y2="38"/>
<line clip-path="url(#clipPath2)" fill="none" x1="586" x2="586" y1="607" y2="603"/>
<text x="575" font-size="10" y="29" clip-path="url(#clipPath2)" stroke="none" xml:space="preserve">0.035</text>
<text x="575" font-size="10" y="618" clip-path="url(#clipPath2)" stroke="none" xml:space="preserve">0.035</text>
<line clip-path="url(#clipPath2)" fill="none" x1="602" x2="602" y1="36" y2="38"/>
<line clip-path="url(#clipPath2)" fill="none" x1="602" x2="602" y1="605" y2="603"/>
<line clip-path="url(#clipPath2)" fill="none" x1="618" x2="618" y1="36" y2="38"/>
<line clip-path="url(#clipPath2)" fill="none" x1="618" x2="618" y1="605" y2="603"/>
<line clip-path="url(#clipPath2)" fill="none" x1="633" x2="633" y1="36" y2="38"/>
<line clip-path="url(#clipPath2)" fill="none" x1="633" x2="633" y1="605" y2="603"/>
<line clip-path="url(#clipPath2)" fill="none" x1="649" x2="649" y1="36" y2="38"/>
<line clip-path="url(#clipPath2)" fill="none" x1="649" x2="649" y1="605" y2="603"/>
<line clip-path="url(#clipPath2)" fill="none" x1="664" x2="664" y1="34" y2="38"/>
<line clip-path="url(#clipPath2)" fill="none" x1="664" x2="664" y1="607" y2="603"/>
<text x="653" font-size="10" y="29" clip-path="url(#clipPath2)" stroke="none" xml:space="preserve">0.040</text>
<text x="653" font-size="10" y="618" clip-path="url(#clipPath2)" stroke="none" xml:space="preserve">0.040</text>
<line clip-path="url(#clipPath2)" fill="none" x1="680" x2="680" y1="36" y2="38"/>
<line clip-path="url(#clipPath2)" fill="none" x1="680" x2="680" y1="605" y2="603"/>
<line clip-path="url(#clipPath2)" fill="none" x1="695" x2="695" y1="36" y2="38"/>
<line clip-path="url(#clipPath2)" fill="none" x1="695" x2="695" y1="605" y2="603"/>
<line clip-path="url(#clipPath2)" fill="none" x1="711" x2="711" y1="36" y2="38"/>
<line clip-path="url(#clipPath2)" fill="none" x1="711" x2="711" y1="605" y2="603"/>
<line clip-path="url(#clipPath2)" fill="none" x1="727" x2="727" y1="36" y2="38"/>
<line clip-path="url(#clipPath2)" fill="none" x1="727" x2="727" y1="605" y2="603"/>
<line clip-path="url(#clipPath2)" fill="none" x1="742" x2="742" y1="34" y2="38"/>
<line clip-path="url(#clipPath2)" fill="none" x1="742" x2="742" y1="607" y2="603"/>
<text x="731" font-size="10" y="29" clip-path="url(#clipPath2)" stroke="none" xml:space="preserve">0.045</text>
<text x="731" font-size="10" y="618" clip-path="url(#clipPath2)" stroke="none" xml:space="preserve">0.045</text>
<line clip-path="url(#clipPath2)" fill="none" x1="758" x2="758" y1="36" y2="38"/>
<line clip-path="url(#clipPath2)" fill="none" x1="758" x2="758" y1="605" y2="603"/>
<line clip-path="url(#clipPath2)" fill="none" x1="773" x2="773" y1="36" y2="38"/>
<line clip-path="url(#clipPath2)" fill="none" x1="773" x2="773" y1="605" y2="603"/>
<line clip-path="url(#clipPath2)" fill="none" x1="789" x2="789" y1="36" y2="38"/>
<line clip-path="url(#clipPath2)" fill="none" x1="789" x2="789" y1="605" y2="603"/>
<line clip-path="url(#clipPath2)" fill="none" x1="804" x2="804" y1="36" y2="38"/>
<line clip-path="url(#clipPath2)" fill="none" x1="804" x2="804" y1="605" y2="603"/>
<line clip-path="url(#clipPath2)" fill="none" x1="820" x2="820" y1="34" y2="38"/>
<line clip-path="url(#clipPath2)" fill="none" x1="820" x2="820" y1="607" y2="603"/>
<text x="809" font-size="10" y="29" clip-path="url(#clipPath2)" stroke="none" xml:space="preserve">0.050</text>
<text x="809" font-size="10" y="618" clip-path="url(#clipPath2)" stroke="none" xml:space="preserve">0.050</text>
<line clip-path="url(#clipPath2)" fill="none" x1="836" x2="836" y1="36" y2="38"/>
<line clip-path="url(#clipPath2)" fill="none" x1="836" x2="836" y1="605" y2="603"/>
<line clip-path="url(#clipPath2)" fill="none" x1="851" x2="851" y1="36" y2="38"/>
<line clip-path="url(#clipPath2)" fill="none" x1="851" x2="851" y1="605" y2="603"/>
<line clip-path="url(#clipPath2)" fill="none" x1="867" x2="867" y1="36" y2="38"/>
<line clip-path="url(#clipPath2)" fill="none" x1="867" x2="867" y1="605" y2="603"/>
<line clip-path="url(#clipPath2)" fill="none" x1="882" x2="882" y1="36" y2="38"/>
<line clip-path="url(#clipPath2)" fill="none" x1="882" x2="882" y1="605" y2="603"/>
<line clip-path="url(#clipPath2)" fill="none" x1="898" x2="898" y1="34" y2="38"/>
<line clip-path="url(#clipPath2)" fill="none" x1="898" x2="898" y1="607" y2="603"/>
<text x="887" font-size="10" y="29" clip-path="url(#clipPath2)" stroke="none" xml:space="preserve">0.055</text>
<text x="887" font-size="10" y="618" clip-path="url(#clipPath2)" stroke="none" xml:space="preserve">0.055</text>
<line clip-path="url(#clipPath2)" fill="none" x1="913" x2="913" y1="36" y2="38"/>
<line clip-path="url(#clipPath2)" fill="none" x1="913" x2="913" y1="605" y2="603"/>
<line clip-path="url(#clipPath2)" fill="none" x1="929" x2="929" y1="36" y2="38"/>
<line clip-path="url(#clipPath2)" fill="none" x1="929" x2="929" y1="605" y2="603"/>
<line clip-path="url(#clipPath2)" fill="none" x1="945" x2="945" y1="36" y2="38"/>
<line clip-path="url(#clipPath2)" fill="none" x1="945" x2="945" y1="605" y2="603"/>
<line clip-path="url(#clipPath2)" fill="none" x1="960" x2="960" y1="36" y2="38"/>
<line clip-path="url(#clipPath2)" fill="none" x1="960" x2="960" y1="605" y2="603"/>
<line clip-path="url(#clipPath2)" fill="none" x1="976" x2="976" y1="34" y2="38"/>
<line clip-path="url(#clipPath2)" fill="none" x1="976" x2="976" y1="607" y2="603"/>
<text x="965" font-size="10" y="29" clip-path="url(#clipPath2)" stroke="none" xml:space="preserve">0.060</text>
<text x="965" font-size="10" y="618" clip-path="url(#clipPath2)" stroke="none" xml:space="preserve">0.060</text>
<line clip-path="url(#clipPath2)" fill="none" x1="991" x2="991" y1="36" y2="38"/>
<line clip-path="url(#clipPath2)" fill="none" x1="991" x2="991" y1="605" y2="603"/>
<line clip-path="url(#clipPath2)" fill="none" x1="1007" x2="1007" y1="36" y2="38"/>
<line clip-path="url(#clipPath2)" fill="none" x1="1007" x2="1007" y1="605" y2="603"/>
<line clip-path="url(#clipPath2)" fill="none" x1="1022" x2="1022" y1="36" y2="38"/>
<line clip-path="url(#clipPath2)" fill="none" x1="1022" x2="1022" y1="605" y2="603"/>
<line clip-path="url(#clipPath2)" fill="none" x1="1038" x2="1038" y1="36" y2="38"/>
<line clip-path="url(#clipPath2)" fill="none" x1="1038" x2="1038" y1="605" y2="603"/>
<line clip-path="url(#clipPath2)" fill="none" x1="1054" x2="1054" y1="34" y2="38"/>
<line clip-path="url(#clipPath2)" fill="none" x1="1054" x2="1054" y1="607" y2="603"/>
<text x="1043" font-size="10" y="29" clip-path="url(#clipPath2)" stroke="none" xml:space="preserve">0.065</text>
<text x="1043" font-size="10" y="618" clip-path="url(#clipPath2)" stroke="none" xml:space="preserve">0.065</text>
<line clip-path="url(#clipPath2)" fill="none" x1="1069" x2="1069" y1="36" y2="38"/>
<line clip-path="url(#clipPath2)" fill="none" x1="1069" x2="1069" y1="605" y2="603"/>
<line clip-path="url(#clipPath2)" fill="none" x1="1085" x2="1085" y1="36" y2="38"/>
<line clip-path="url(#clipPath2)" fill="none" x1="1085" x2="1085" y1="605" y2="603"/>
<line clip-path="url(#clipPath2)" fill="none" x1="1100" x2="1100" y1="36" y2="38"/>
<line clip-path="url(#clipPath2)" fill="none" x1="1100" x2="1100" y1="605" y2="603"/>
<line clip-path="url(#clipPath2)" fill="none" x1="1116" x2="1116" y1="36" y2="38"/>
<line clip-path="url(#clipPath2)" fill="none" x1="1116" x2="1116" y1="605" y2="603"/>
<line clip-path="url(#clipPath2)" fill="none" x1="1131" x2="1131" y1="34" y2="38"/>
<line clip-path="url(#clipPath2)" fill="none" x1="1131" x2="1131" y1="607" y2="603"/>
<text x="1120" font-size="10" y="29" clip-path="url(#clipPath2)" stroke="none" xml:space="preserve">0.070</text>
<text x="1120" font-size="10" y="618" clip-path="url(#clipPath2)" stroke="none" xml:space="preserve">0.070</text>
<line clip-path="url(#clipPath2)" fill="none" x1="1147" x2="1147" y1="36" y2="38"/>
<line clip-path="url(#clipPath2)" fill="none" x1="1147" x2="1147" y1="605" y2="603"/>
<line clip-path="url(#clipPath2)" fill="none" x1="1163" x2="1163" y1="36" y2="38"/>
<line clip-path="url(#clipPath2)" fill="none" x1="1163" x2="1163" y1="605" y2="603"/>
<line clip-path="url(#clipPath2)" fill="none" x1="1178" x2="1178" y1="36" y2="38"/>
<line clip-path="url(#clipPath2)" fill="none" x1="1178" x2="1178" y1="605" y2="603"/>
<line clip-path="url(#clipPath2)" fill="none" x1="1194" x2="1194" y1="36" y2="38"/>
<line clip-path="url(#clipPath2)" fill="none" x1="1194" x2="1194" y1="605" y2="603"/>
<line clip-path="url(#clipPath2)" fill="none" x1="1209" x2="1209" y1="34" y2="38"/>
<line clip-path="url(#clipPath2)" fill="none" x1="1209" x2="1209" y1="607" y2="603"/>
<text x="1198" font-size="10" y="29" clip-path="url(#clipPath2)" stroke="none" xml:space="preserve">0.075</text>
<text x="1198" font-size="10" y="618" clip-path="url(#clipPath2)" stroke="none" xml:space="preserve">0.075</text>
<line clip-path="url(#clipPath2)" fill="none" x1="1225" x2="1225" y1="36" y2="38"/>
<line clip-path="url(#clipPath2)" fill="none" x1="1225" x2="1225" y1="605" y2="603"/>
<line clip-path="url(#clipPath2)" fill="none" x1="1240" x2="1240" y1="36" y2="38"/>
<line clip-path="url(#clipPath2)" fill="none" x1="1240" x2="1240" y1="605" y2="603"/>
<line clip-path="url(#clipPath2)" fill="none" x1="1256" x2="1256" y1="36" y2="38"/>
<line clip-path="url(#clipPath2)" fill="none" x1="1256" x2="1256" y1="605" y2="603"/>
<line clip-path="url(#clipPath2)" fill="none" x1="1272" x2="1272" y1="36" y2="38"/>
<line clip-path="url(#clipPath2)" fill="none" x1="1272" x2="1272" y1="605" y2="603"/>
<line clip-path="url(#clipPath2)" fill="none" x1="1287" x2="1287" y1="34" y2="38"/>
<line clip-path="url(#clipPath2)" fill="none" x1="1287" x2="1287" y1="607" y2="603"/>
<text x="1276" font-size="10" y="29" clip-path="url(#clipPath2)" stroke="none" xml:space="preserve">0.080</text>
<text x="1276" font-size="10" y="618" clip-path="url(#clipPath2)" stroke="none" xml:space="preserve">0.080</text>
<line clip-path="url(#clipPath2)" fill="none" x1="1303" x2="1303" y1="36" y2="38"/>
<line clip-path="url(#clipPath2)" fill="none" x1="1303" x2="1303" y1="605" y2="603"/>
<line clip-path="url(#clipPath2)" fill="none" x1="1318" x2="1318" y1="36" y2="38"/>
<line clip-path="url(#clipPath2)" fill="none" x1="1318" x2="1318" y1="605" y2="603"/>
<line clip-path="url(#clipPath2)" fill="none" x1="1334" x2="1334" y1="36" y2="38"/>
<line clip-path="url(#clipPath2)" fill="none" x1="1334" x2="1334" y1="605" y2="603"/>
<line clip-path="url(#clipPath2)" fill="none" x1="1349" x2="1349" y1="36" y2="38"/>
<line clip-path="url(#clipPath2)" fill="none" x1="1349" x2="1349" y1="605" y2="603"/>
<line clip-path="url(#clipPath2)" fill="none" x1="1365" x2="1365" y1="34" y2="38"/>
<line clip-path="url(#clipPath2)" fill="none" x1="1365" x2="1365" y1="607" y2="603"/>
<text x="1354" font-size="10" y="29" clip-path="url(#clipPath2)" stroke="none" xml:space="preserve">0.085</text>
<text x="1354" font-size="10" y="618" clip-path="url(#clipPath2)" stroke="none" xml:space="preserve">0.085</text>
<line clip-path="url(#clipPath2)" fill="none" x1="1381" x2="1381" y1="36" y2="38"/>
<line clip-path="url(#clipPath2)" fill="none" x1="1381" x2="1381" y1="605" y2="603"/>
<line clip-path="url(#clipPath2)" fill="none" x1="40" x2="40" y1="40" y2="601"/>
<line clip-path="url(#clipPath2)" fill="none" x1="1384" x2="1384" y1="40" y2="601"/>
<line clip-path="url(#clipPath2)" fill="none" x1="36" x2="40" y1="601" y2="601"/>
<line clip-path="url(#clipPath2)" fill="none" x1="1388" x2="1384" y1="601" y2="601"/>
<text x="30" font-size="10" y="604" clip-path="url(#clipPath2)" stroke="none" xml:space="preserve">0</text>
<text x="1391" font-size="10" y="604" clip-path="url(#clipPath2)" stroke="none" xml:space="preserve">0</text>
<line clip-path="url(#clipPath2)" fill="none" x1="38" x2="40" y1="558" y2="558"/>
<line clip-path="url(#clipPath2)" fill="none" x1="1386" x2="1384" y1="558" y2="558"/>
<line clip-path="url(#clipPath2)" fill="none" x1="36" x2="40" y1="516" y2="516"/>
<line clip-path="url(#clipPath2)" fill="none" x1="1388" x2="1384" y1="516" y2="516"/>
<text x="30" font-size="10" y="519" clip-path="url(#clipPath2)" stroke="none" xml:space="preserve">2</text>
<text x="1391" font-size="10" y="519" clip-path="url(#clipPath2)" stroke="none" xml:space="preserve">2</text>
<line clip-path="url(#clipPath2)" fill="none" x1="38" x2="40" y1="474" y2="474"/>
<line clip-path="url(#clipPath2)" fill="none" x1="1386" x2="1384" y1="474" y2="474"/>
<line clip-path="url(#clipPath2)" fill="none" x1="36" x2="40" y1="432" y2="432"/>
<line clip-path="url(#clipPath2)" fill="none" x1="1388" x2="1384" y1="432" y2="432"/>
<text x="30" font-size="10" y="435" clip-path="url(#clipPath2)" stroke="none" xml:space="preserve">4</text>
<text x="1391" font-size="10" y="435" clip-path="url(#clipPath2)" stroke="none" xml:space="preserve">4</text>
<line clip-path="url(#clipPath2)" fill="none" x1="38" x2="40" y1="390" y2="390"/>
<line clip-path="url(#clipPath2)" fill="none" x1="1386" x2="1384" y1="390" y2="390"/>
<line clip-path="url(#clipPath2)" fill="none" x1="36" x2="40" y1="348" y2="348"/>
<line clip-path="url(#clipPath2)" fill="none" x1="1388" x2="1384" y1="348" y2="348"/>
<text x="30" font-size="10" y="351" clip-path="url(#clipPath2)" stroke="none" xml:space="preserve">6</text>
<text x="1391" font-size="10" y="351" clip-path="url(#clipPath2)" stroke="none" xml:space="preserve">6</text>
<line clip-path="url(#clipPath2)" fill="none" x1="38" x2="40" y1="306" y2="306"/>
<line clip-path="url(#clipPath2)" fill="none" x1="1386" x2="1384" y1="306" y2="306"/>
<line clip-path="url(#clipPath2)" fill="none" x1="36" x2="40" y1="264" y2="264"/>
<line clip-path="url(#clipPath2)" fill="none" x1="1388" x2="1384" y1="264" y2="264"/>
<text x="30" font-size="10" y="267" clip-path="url(#clipPath2)" stroke="none" xml:space="preserve">8</text>
<text x="1391" font-size="10" y="267" clip-path="url(#clipPath2)" stroke="none" xml:space="preserve">8</text>
<line clip-path="url(#clipPath2)" fill="none" x1="38" x2="40" y1="222" y2="222"/>
<line clip-path="url(#clipPath2)" fill="none" x1="1386" x2="1384" y1="222" y2="222"/>
<line clip-path="url(#clipPath2)" fill="none" x1="36" x2="40" y1="180" y2="180"/>
<line clip-path="url(#clipPath2)" fill="none" x1="1388" x2="1384" y1="180" y2="180"/>
<text x="25" font-size="10" y="183" clip-path="url(#clipPath2)" stroke="none" xml:space="preserve">10</text>
<text x="1391" font-size="10" y="183" clip-path="url(#clipPath2)" stroke="none" xml:space="preserve">10</text>
<line clip-path="url(#clipPath2)" fill="none" x1="38" x2="40" y1="138" y2="138"/>
<line clip-path="url(#clipPath2)" fill="none" x1="1386" x2="1384" y1="138" y2="138"/>
<line clip-path="url(#clipPath2)" fill="none" x1="36" x2="40" y1="96" y2="96"/>
<line clip-path="url(#clipPath2)" fill="none" x1="1388" x2="1384" y1="96" y2="96"/>
<text x="25" font-size="10" y="99" clip-path="url(#clipPath2)" stroke="none" xml:space="preserve">12</text>
<text x="1391" font-size="10" y="99" clip-path="url(#clipPath2)" stroke="none" xml:space="preserve">12</text>
<line clip-path="url(#clipPath2)" fill="none" x1="38" x2="40" y1="54" y2="54"/>
<line clip-path="url(#clipPath2)" fill="none" x1="1386" x2="1384" y1="54" y2="54"/>
</g>
</g>
</svg>
